<svg xmlns="http://www.w3.org/2000/svg" width="227.83" height="44"><path fill="#fff" d="M35.85 10a12 12 0 0 0 0 24 2.73 2.73 0 0 0 0-5.45 6.57 6.57 0 0 1-6-3.82h15.27A2.73 2.73 0 0 0 47.85 22a12 12 0 0 0-12-12zm-6 9.27a6.55 6.55 0 0 1 11.91 0zM62.42 10a12 12 0 0 0-12 12v9.12a2.73 2.73 0 0 0 5.45 0V22A6.55 6.55 0 1 1 69 22v9.12a2.73 2.73 0 0 0 5.45 0V22a12 12 0 0 0-12.03-12zm57.99 0a2.72 2.72 0 0 0-2.72 2.73v9.11a6.55 6.55 0 1 1-13.1 0v-9.11a2.73 2.73 0 1 0-5.45 0v9.11a12 12 0 0 0 24 0v-9.11a2.73 2.73 0 0 0-2.73-2.73zm-31.77 9.78c-3.85-.82-5.4-1.15-5.4-2.55s2-2.17 4.15-2.17a8.87 8.87 0 0 1 3.15.63 3.2 3.2 0 0 0 1.12.24 2.55 2.55 0 0 0 2.55-2.55 2.58 2.58 0 0 0-1.79-2.47 14.64 14.64 0 0 0-5-.9c-6.27 0-9.83 3.56-9.83 7.13 0 4.33 4 6.26 8.48 7.22 3.47.72 4.53 1 4.53 2.5s-2 2.08-4.34 2.08a11 11 0 0 1-5.13-1.58 2.91 2.91 0 0 0-1-.22A2.57 2.57 0 0 0 79 32a14.84 14.84 0 0 0 7.47 2c5.83 0 10-3.13 10-7-.08-4.76-3.3-6.25-7.83-7.22zm40.79 7.56zm7.57-7.56c-3.86-.82-5.4-1.15-5.4-2.55s2-2.17 4.14-2.17a8.78 8.78 0 0 1 3.15.63 3.18 3.18 0 0 0 1.13.24 2.55 2.55 0 0 0 2.54-2.55 2.61 2.61 0 0 0-1.79-2.47 14.59 14.59 0 0 0-5-.9c-6.26 0-9.82 3.56-9.82 7.13 0 4.33 3.95 6.26 8.47 7.22 3.47.72 4.53 1 4.53 2.5s-2 2.08-4.33 2.08a11.16 11.16 0 0 1-5.18-1.6 2.44 2.44 0 0 0-1-.2 2.57 2.57 0 0 0-2.58 2.57 2.64 2.64 0 0 0 1.47 2.29 14.81 14.81 0 0 0 7.47 2c5.83 0 10-3.13 10-7-.03-4.76-3.26-6.25-7.8-7.22zM12 15.45a6.45 6.45 0 0 1 4.78 2.09 2.72 2.72 0 1 0 4-3.71 12 12 0 1 0 0 16.34 2.73 2.73 0 0 0-4-3.72 6.46 6.46 0 0 1-4.78 2.1 6.55 6.55 0 0 1 0-13.1zm154.51 14.9H154.9a4.74 4.74 0 0 1 .14-1c.6-2.45 3.08-3.72 6.09-5.06 3.46-1.6 6.72-3.22 6.72-7.33s-3-6.83-8-6.83a9.6 9.6 0 0 0-6.15 2 5.15 5.15 0 0 0-2.09 3.75c0 1.92 2.4 1.88 2.4 1.77a5.43 5.43 0 0 1 5.6-4.38c2.93 0 4.67 1.41 4.67 3.78s-2.69 3.61-5.7 5.1c-3.43 1.7-7.08 3.78-7.08 8.49v.88c0 1.46.67 2 2.27 2h12.74c1.2 0 1.73-.53 1.73-1.49v-.21c0-.97-.53-1.47-1.73-1.47zm41.4 0H196.3a4.74 4.74 0 0 1 .14-1c.6-2.45 3.08-3.72 6.09-5.06 3.47-1.6 6.72-3.22 6.72-7.33s-3-6.83-8-6.83a9.6 9.6 0 0 0-6.15 2 5.15 5.15 0 0 0-2.1 3.71c0 1.92 2.4 1.88 2.4 1.77a5.43 5.43 0 0 1 5.6-4.38c2.93 0 4.67 1.41 4.67 3.78s-2.69 3.61-5.7 5.1c-3.43 1.7-7.08 3.78-7.08 8.49v.88c0 1.46.67 2 2.27 2h12.74c1.2 0 1.73-.53 1.73-1.49v-.21c.01-.93-.52-1.43-1.72-1.43zm18.26.04h-3.08V12.06a1.49 1.49 0 0 0-1.63-1.67h-1.23l-6.83 4.5a2 2 0 0 0 1.87 2.23 2.9 2.9 0 0 0 1.88-.78c.67-.53 1.24-1.17 2.62-2.27v16.32H216c-1.09 0-1.66.46-1.66 1.48v.18c0 1 .57 1.42 1.66 1.42h10.2c1.09 0 1.66-.43 1.66-1.42v-.18c-.03-1.02-.6-1.48-1.69-1.48zm-45.86-20.28c-5.88 0-9.52 4.14-9.52 10.76v2.33c0 6.62 3.57 10.73 9.52 10.73s9.55-4.18 9.55-10.8v-2.3c0-6.61-3.61-10.72-9.55-10.72zm5.91 13.2c0 4.81-2.13 7.54-5.91 7.54s-5.84-2.76-5.84-7.57v-2.59c0-4.81 2.12-7.57 5.84-7.57s5.91 2.83 5.91 7.64z"/></svg>