<?xml version="1.0" encoding="UTF-8"?>
<svg width="32px" height="32px" viewBox="0 0 32 32" version="1.1" xmlns="http://www.w3.org/2000/svg" xmlns:xlink="http://www.w3.org/1999/xlink">
    <!-- Generator: Sketch 55.2 (78181) - https://sketchapp.com -->
    <title>Icons/Email</title>
    <desc>Created with Sketch.</desc>
    <g id="Icons/Email" stroke="none" stroke-width="1" fill="none" fill-rule="evenodd">
        <path d="M29,9.17449664 L29,6 L16,13.8993289 L3,6 L3,9.17449664 L16,17 L29,9.17449664 Z M28.8450704,3 C29.6964049,3 30.4350516,3.3294314 31.0610329,3.98830409 C31.6870141,4.64717678 32,5.4074031 32,6.26900585 L32,25.7309942 C32,26.5925969 31.6870141,27.3528232 31.0610329,28.0116959 C30.4350516,28.6705686 29.6964049,29 28.8450704,29 L3.15492958,29 C2.30359512,29 1.56494836,28.6705686 0.938967136,28.0116959 C0.312985915,27.3528232 0,26.5925969 0,25.7309942 L0,6.26900585 C0,5.4074031 0.312985915,4.64717678 0.938967136,3.98830409 C1.56494836,3.3294314 2.30359512,3 3.15492958,3 L28.8450704,3 Z" id="" fill="#000000" fill-rule="nonzero"></path>
    </g>
</svg>