<?xml version="1.0" encoding="UTF-8"?>
<svg width="32px" height="32px" viewBox="0 0 32 32" version="1.1" xmlns="http://www.w3.org/2000/svg" xmlns:xlink="http://www.w3.org/1999/xlink">
    <!-- Generator: Sketch 55.2 (78181) - https://sketchapp.com -->
    <title>Icons/Facebook</title>
    <desc>Created with Sketch.</desc>
    <g id="Icons/Facebook" stroke="none" stroke-width="1" fill="none" fill-rule="evenodd">
        <g id="facebook-(2)" fill="#3B5998" fill-rule="nonzero">
            <path d="M32,16.0978015 C32,7.20720431 24.8366329,0 16.0000667,0 C7.16344711,0 0,7.20720431 0,16.0978015 C0,24.1326827 5.8509832,30.792306 13.5,32 L13.5,20.7510858 L9.43752047,20.7510858 L9.43752047,16.0978015 L13.5,16.0978015 L13.5,12.5512301 C13.5,8.51672452 15.8887245,6.28819238 19.5434139,6.28819238 C21.2939524,6.28819238 23.1250307,6.60259261 23.1250307,6.60259261 L23.1250307,10.5641562 L21.1075377,10.5641562 C19.1199137,10.5641562 18.5,11.805041 18.5,13.0780835 L18.5,16.0978015 L22.9375492,16.0978015 L22.2281597,20.7510858 L18.5,20.7510858 L18.5,32 C26.1491368,30.792306 32,24.1326827 32,16.0978015 Z" id="Path"></path>
        </g>
    </g>
</svg>