<svg xmlns="http://www.w3.org/2000/svg" viewBox="0 0 14 12" fill="#595959"><path d="M2.52,8.7c0,.18.08.27.25.27a1.17,1.17,0,0,0,.6-.21,6.63,6.63,0,0,1-.11-1.11A1.46,1.46,0,0,0,2.52,8.7Z"/><path d="M3.69,7.45v.12a5.65,5.65,0,0,0,.07.86A3.08,3.08,0,0,0,4.5,7.32h0A2.54,2.54,0,0,0,3.69,7.45Z"/><path d="M10,2.56c-.05.21-.21.73-.47,1.57h1c-.25-.78-.38-1.23-.41-1.33S10,2.62,10,2.56Z"/><path d="M10,0A4,4,0,0,0,6,4s0,0,0,.06A4,4,0,0,0,0,7.5V12l1.82-1.14.07,0A4,4,0,0,0,8,7.5s0,0,0-.06a3.95,3.95,0,0,0,4.12,0l.07,0L14,8.5V4A4,4,0,0,0,10,0ZM4.44,9.71,4.17,9.3c.91-.1,1.39-.57,1.39-1.14a.8.8,0,0,0-.62-.77A4,4,0,0,1,3.88,8.94c0,.13.07.26.11.38l-.45.13c0-.07,0-.15-.07-.24a1.72,1.72,0,0,1-.8.24.6.6,0,0,1-.62-.67A2,2,0,0,1,3.27,7.17c0-.21,0-.44,0-.66H3.08l-.82,0,0-.46c.17,0,.6.06.85.06h.27l0-.33c0-.08,0-.19,0-.26h.52a1.2,1.2,0,0,0-.06.24q0,.15-.06.33a8.78,8.78,0,0,0,1.7-.21v.46a16.81,16.81,0,0,1-1.76.18c0,.17,0,.35,0,.53a3.13,3.13,0,0,1,.79-.11h.14a1.77,1.77,0,0,0,.05-.32l.49.13a2.64,2.64,0,0,0-.1.27,1.24,1.24,0,0,1,1,1.18C6.05,8.88,5.6,9.52,4.44,9.71Zm6.48-4.07h0l-.26-.86H9.34l-.26.86H8.25L9.53,2h.94l1.28,3.64Z"/></svg>