<svg xmlns="http://www.w3.org/2000/svg" viewBox="0 0 512 512"><path d="M501.66,237.31,372.38,109.73a26.26,26.26,0,1,0-36.87,37.4l83.71,82.61H203.84a26.26,26.26,0,0,0,0,52.52H419.22l-83.71,82.62a26.26,26.26,0,1,0,36.88,37.39L501.66,274.7a26.52,26.52,0,0,0,7.82-18.7A26.12,26.12,0,0,0,501.66,237.31Z" style="fill:#fff;stroke:#fff;stroke-miterlimit:10;stroke-width:3px"/><path d="M187.11,423.09H67.63A5.67,5.67,0,0,1,62,417.42V94.58a5.67,5.67,0,0,1,5.66-5.67H187.11A26.12,26.12,0,0,0,187,36.67H67.63A58,58,0,0,0,9.72,94.58V417.42a58,58,0,0,0,57.91,57.91H187a26.12,26.12,0,0,0,.08-52.24Z" style="fill:#fff;stroke:#fff;stroke-miterlimit:10;stroke-width:3px"/></svg>