<svg xmlns="http://www.w3.org/2000/svg" viewBox="0 0 16.48 22.69"><path d="M22,13.42H20.87l0-4.49A5.71,5.71,0,0,0,15,3.4,5.71,5.71,0,0,0,9.12,8.93v4.49H8a1.23,1.23,0,0,0-1.24,1.23V24.86A1.24,1.24,0,0,0,8,26.1H22a1.24,1.24,0,0,0,1.24-1.24V14.65A1.23,1.23,0,0,0,22,13.42ZM10.12,8.93A4.7,4.7,0,0,1,15,4.4a4.71,4.71,0,0,1,4.86,4.54l0,4.48H10.12Zm6.57,13.76a.49.49,0,0,1-.49.55H13.8a.49.49,0,0,1-.49-.55l.66-3a1.64,1.64,0,0,1-.66-1.33,1.69,1.69,0,1,1,3.38,0A1.64,1.64,0,0,1,16,19.7Z" transform="translate(-6.76 -3.4)" style="fill:#212121"/></svg>