<?xml version="1.0" encoding="UTF-8"?>
<svg width="32px" height="32px" viewBox="0 0 32 32" version="1.1" xmlns="http://www.w3.org/2000/svg" xmlns:xlink="http://www.w3.org/1999/xlink">
    <!-- Generator: Sketch 55.2 (78181) - https://sketchapp.com -->
    <title>Icons/Twitter</title>
    <desc>Created with Sketch.</desc>
    <g id="Icons/Twitter" stroke="none" stroke-width="1" fill="none" fill-rule="evenodd">
        <g id="twitter" transform="translate(0.000000, 3.000000)" fill="#1DA1F2" fill-rule="nonzero">
            <path d="M31.9373359,2.97713641 C30.7573851,3.4756754 29.4974376,3.81529707 28.1708262,3.97036961 C29.5227699,3.18731737 30.5627266,1.95314502 31.0547061,0.480596709 C29.7867589,1.19187984 28.3814841,1.70964269 26.8855464,1.99800072 C25.6909295,0.768954734 23.9883338,0 22.0977459,0 C18.4752302,0 15.5380192,2.82334547 15.5380192,6.30158405 C15.5380192,6.80140462 15.5980167,7.28200133 15.7073455,7.74209258 C10.2542394,7.49474548 5.42110745,4.97770031 2.18657556,1.17265597 C1.61726595,2.09796483 1.29861256,3.17321987 1.29861256,4.34459425 C1.29861256,6.53611524 2.45856423,8.46234685 4.21582434,9.5939919 C3.13986917,9.56067053 2.12791134,9.27615728 1.24528145,8.80453171 L1.24528145,8.88270877 C1.24528145,11.9393038 3.50252073,14.4883888 6.50639557,15.0689496 C5.95575184,15.2112062 5.37444273,15.2881017 4.77846756,15.2881017 C4.35981834,15.2881017 3.95850173,15.249654 3.55718512,15.1778849 C4.3984834,17.6808325 6.81704929,19.5058184 9.69559602,19.5570821 C7.45568935,21.2475009 4.61714095,22.2548316 1.559935,22.2548316 C1.03995667,22.2548316 0.521311612,22.225355 0,22.168965 C2.91854506,23.9555032 6.35706846,25 10.0755802,25 C22.1470772,25 28.7401358,15.3931922 28.7401358,7.07566515 C28.7401358,6.80781258 28.7401358,6.53739683 28.7201367,6.26826267 C30.0014166,5.38524632 31.1200367,4.26898037 32,3.00276824 L31.9373359,2.97713641 Z" id="Path"></path>
        </g>
    </g>
</svg>