<?xml version="1.0" encoding="UTF-8"?>
<svg width="24px" height="24px" viewBox="0 0 24 24" version="1.1" xmlns="http://www.w3.org/2000/svg" xmlns:xlink="http://www.w3.org/1999/xlink">
    <!-- Generator: Sketch 46.2 (44496) - http://www.bohemiancoding.com/sketch -->
    <title>calculator</title>
    <desc>Created with Sketch.</desc>
    <defs></defs>
    <g id="Page-1" stroke="none" stroke-width="1" fill="none" fill-rule="evenodd">
        <g id="calculator" fill="#333333">
            <path d="M5.14286327,20.5714531 C5.14286327,19.6205591 4.37946951,18.8571653 3.42857552,18.8571653 C2.47768153,18.8571653 1.71428776,19.6205591 1.71428776,20.5714531 C1.71428776,21.5223471 2.47768153,22.2857409 3.42857552,22.2857409 C4.37946951,22.2857409 5.14286327,21.5223471 5.14286327,20.5714531 Z M10.2857265,20.5714531 C10.2857265,19.6205591 9.52233278,18.8571653 8.57143879,18.8571653 C7.6205448,18.8571653 6.85715103,19.6205591 6.85715103,20.5714531 C6.85715103,21.5223471 7.6205448,22.2857409 8.57143879,22.2857409 C9.52233278,22.2857409 10.2857265,21.5223471 10.2857265,20.5714531 Z M5.14286327,15.4285898 C5.14286327,14.4776958 4.37946951,13.7143021 3.42857552,13.7143021 C2.47768153,13.7143021 1.71428776,14.4776958 1.71428776,15.4285898 C1.71428776,16.3794838 2.47768153,17.1428776 3.42857552,17.1428776 C4.37946951,17.1428776 5.14286327,16.3794838 5.14286327,15.4285898 Z M15.4285898,20.5714531 C15.4285898,19.6205591 14.6651961,18.8571653 13.7143021,18.8571653 C12.7634081,18.8571653 12.0000143,19.6205591 12.0000143,20.5714531 C12.0000143,21.5223471 12.7634081,22.2857409 13.7143021,22.2857409 C14.6651961,22.2857409 15.4285898,21.5223471 15.4285898,20.5714531 Z M10.2857265,15.4285898 C10.2857265,14.4776958 9.52233278,13.7143021 8.57143879,13.7143021 C7.6205448,13.7143021 6.85715103,14.4776958 6.85715103,15.4285898 C6.85715103,16.3794838 7.6205448,17.1428776 8.57143879,17.1428776 C9.52233278,17.1428776 10.2857265,16.3794838 10.2857265,15.4285898 Z M5.14286327,10.2857265 C5.14286327,9.33483256 4.37946951,8.57143879 3.42857552,8.57143879 C2.47768153,8.57143879 1.71428776,9.33483256 1.71428776,10.2857265 C1.71428776,11.2366205 2.47768153,12.0000143 3.42857552,12.0000143 C4.37946951,12.0000143 5.14286327,11.2366205 5.14286327,10.2857265 Z M15.4285898,15.4285898 C15.4285898,14.4776958 14.6651961,13.7143021 13.7143021,13.7143021 C12.7634081,13.7143021 12.0000143,14.4776958 12.0000143,15.4285898 C12.0000143,16.3794838 12.7634081,17.1428776 13.7143021,17.1428776 C14.6651961,17.1428776 15.4285898,16.3794838 15.4285898,15.4285898 Z M10.2857265,10.2857265 C10.2857265,9.33483256 9.52233278,8.57143879 8.57143879,8.57143879 C7.6205448,8.57143879 6.85715103,9.33483256 6.85715103,10.2857265 C6.85715103,11.2366205 7.6205448,12.0000143 8.57143879,12.0000143 C9.52233278,12.0000143 10.2857265,11.2366205 10.2857265,10.2857265 Z M20.5714531,20.5714531 L20.5714531,15.4285898 C20.5714531,14.4910887 19.7946665,13.7143021 18.8571653,13.7143021 C17.9196642,13.7143021 17.1428776,14.4910887 17.1428776,15.4285898 L17.1428776,20.5714531 C17.1428776,21.5089542 17.9196642,22.2857409 18.8571653,22.2857409 C19.7946665,22.2857409 20.5714531,21.5089542 20.5714531,20.5714531 Z M15.4285898,10.2857265 C15.4285898,9.33483256 14.6651961,8.57143879 13.7143021,8.57143879 C12.7634081,8.57143879 12.0000143,9.33483256 12.0000143,10.2857265 C12.0000143,11.2366205 12.7634081,12.0000143 13.7143021,12.0000143 C14.6651961,12.0000143 15.4285898,11.2366205 15.4285898,10.2857265 Z M20.5714531,6.00000715 L20.5714531,2.57143164 C20.5714531,2.10268108 20.1830598,1.71428776 19.7143092,1.71428776 L2.57143164,1.71428776 C2.10268108,1.71428776 1.71428776,2.10268108 1.71428776,2.57143164 L1.71428776,6.00000715 C1.71428776,6.46875771 2.10268108,6.85715103 2.57143164,6.85715103 L19.7143092,6.85715103 C20.1830598,6.85715103 20.5714531,6.46875771 20.5714531,6.00000715 Z M20.5714531,10.2857265 C20.5714531,9.33483256 19.8080593,8.57143879 18.8571653,8.57143879 C17.9062713,8.57143879 17.1428776,9.33483256 17.1428776,10.2857265 C17.1428776,11.2366205 17.9062713,12.0000143 18.8571653,12.0000143 C19.8080593,12.0000143 20.5714531,11.2366205 20.5714531,10.2857265 Z M22.2857409,1.71428776 L22.2857409,22.2857409 C22.2857409,23.223242 21.5089542,24.0000286 20.5714531,24.0000286 L1.71428776,24.0000286 C0.77678664,24.0000286 0,23.223242 0,22.2857409 L0,1.71428776 C0,0.77678664 0.77678664,0 1.71428776,0 L20.5714531,0 C21.5089542,0 22.2857409,0.77678664 22.2857409,1.71428776 Z" id=""></path>
        </g>
    </g>
</svg>