<?xml version="1.0" encoding="UTF-8"?>
<svg width="24px" height="24px" viewBox="0 0 24 24" version="1.1" xmlns="http://www.w3.org/2000/svg" xmlns:xlink="http://www.w3.org/1999/xlink">
    <!-- Generator: Sketch 46.2 (44496) - http://www.bohemiancoding.com/sketch -->
    <title>clock</title>
    <desc>Created with Sketch.</desc>
    <defs></defs>
    <g id="Page-1" stroke="none" stroke-width="1" fill="none" fill-rule="evenodd">
        <g id="clock" fill="#333333">
            <path d="M14,6.5 L14,13.5 C14,13.78125 13.78125,14 13.5,14 L8.5,14 C8.21875,14 8,13.78125 8,13.5 L8,12.5 C8,12.21875 8.21875,12 8.5,12 L12,12 L12,6.5 C12,6.21875 12.21875,6 12.5,6 L13.5,6 C13.78125,6 14,6.21875 14,6.5 Z M20.5,12 C20.5,7.3125 16.6875,3.5 12,3.5 C7.3125,3.5 3.5,7.3125 3.5,12 C3.5,16.6875 7.3125,20.5 12,20.5 C16.6875,20.5 20.5,16.6875 20.5,12 Z M24,12 C24,18.625 18.625,24 12,24 C5.375,24 0,18.625 0,12 C0,5.375 5.375,0 12,0 C18.625,0 24,5.375 24,12 Z" id=""></path>
        </g>
    </g>
</svg>