<?xml version="1.0" encoding="UTF-8"?>
<svg width="16px" height="16px" viewBox="0 0 16 16" version="1.1" xmlns="http://www.w3.org/2000/svg" xmlns:xlink="http://www.w3.org/1999/xlink">
    <!-- Generator: Sketch 43.1 (39012) - http://www.bohemiancoding.com/sketch -->
    <title>download</title>
    <desc>Created with Sketch.</desc>
    <defs></defs>
    <g id="Page-1" stroke="none" stroke-width="1" fill="none" fill-rule="evenodd">
        <g id="download" fill="#000000">
            <path d="M12.3083337,12.9237504 C12.3083337,12.5871944 12.029473,12.3083337 11.692917,12.3083337 C11.356361,12.3083337 11.0775003,12.5871944 11.0775003,12.9237504 C11.0775003,13.2603064 11.356361,13.5391671 11.692917,13.5391671 C12.029473,13.5391671 12.3083337,13.2603064 12.3083337,12.9237504 Z M14.7700005,12.9237504 C14.7700005,12.5871944 14.4911398,12.3083337 14.1545838,12.3083337 C13.8180278,12.3083337 13.5391671,12.5871944 13.5391671,12.9237504 C13.5391671,13.2603064 13.8180278,13.5391671 14.1545838,13.5391671 C14.4911398,13.5391671 14.7700005,13.2603064 14.7700005,12.9237504 Z M16.0008338,10.769792 L16.0008338,13.8468754 C16.0008338,14.3565174 15.5873507,14.7700005 15.0777088,14.7700005 L0.923125029,14.7700005 C0.413483086,14.7700005 0,14.3565174 0,13.8468754 L0,10.769792 C0,10.2601501 0.413483086,9.84666697 0.923125029,9.84666697 L5.39451189,9.84666697 L6.69265646,11.1544274 C7.04844423,11.5005993 7.51000674,11.692917 8.00041691,11.692917 C8.49082709,11.692917 8.9523896,11.5005993 9.30817737,11.1544274 L10.6159378,9.84666697 L15.0777088,9.84666697 C15.5873507,9.84666697 16.0008338,10.2601501 16.0008338,10.769792 Z M12.875671,5.29835303 C12.9718298,5.52913429 12.9237504,5.79837909 12.7410486,5.97146503 L8.43313177,10.2793818 C8.31774114,10.4043883 8.15427109,10.4620837 8.00041691,10.4620837 C7.84656274,10.4620837 7.68309269,10.4043883 7.56770206,10.2793818 L3.25978526,5.97146503 C3.07708343,5.79837909 3.029004,5.52913429 3.12516286,5.29835303 C3.22132171,5.07718766 3.44248709,4.92333349 3.69250011,4.92333349 L6.15416686,4.92333349 L6.15416686,0.615416686 C6.15416686,0.278860686 6.43302754,0 6.76958354,0 L9.23125029,0 C9.56780629,0 9.84666697,0.278860686 9.84666697,0.615416686 L9.84666697,4.92333349 L12.3083337,4.92333349 C12.5583467,4.92333349 12.7795121,5.07718766 12.875671,5.29835303 Z" id=""></path>
        </g>
    </g>
</svg>