<?xml version="1.0" encoding="UTF-8"?>
<svg width="24px" height="24px" viewBox="0 0 24 24" version="1.1" xmlns="http://www.w3.org/2000/svg" xmlns:xlink="http://www.w3.org/1999/xlink">
    <!-- Generator: Sketch 43.2 (39069) - http://www.bohemiancoding.com/sketch -->
    <title>download</title>
    <desc>Created with Sketch.</desc>
    <defs></defs>
    <g id="Page-1" stroke="none" stroke-width="1" fill="none" fill-rule="evenodd">
        <g id="download" fill-rule="nonzero" fill="#000000">
            <path d="M17.3764711,19.2452947 C17.3764711,18.7701568 16.9827854,18.3764711 16.5076475,18.3764711 C16.0325096,18.3764711 15.638824,18.7701568 15.638824,19.2452947 C15.638824,19.7204326 16.0325096,20.1141183 16.5076475,20.1141183 C16.9827854,20.1141183 17.3764711,19.7204326 17.3764711,19.2452947 Z M20.8517654,19.2452947 C20.8517654,18.7701568 20.4580797,18.3764711 19.9829418,18.3764711 C19.507804,18.3764711 19.1141183,18.7701568 19.1141183,19.2452947 C19.1141183,19.7204326 19.507804,20.1141183 19.9829418,20.1141183 C20.4580797,20.1141183 20.8517654,19.7204326 20.8517654,19.2452947 Z M22.5894124,16.2044122 L22.5894124,20.54853 C22.5894124,21.2680246 22.0056716,21.8517654 21.2861771,21.8517654 L1.30323534,21.8517654 C0.583740827,21.8517654 0,21.2680246 0,20.54853 L0,16.2044122 C0,15.4849178 0.583740827,14.9011769 1.30323534,14.9011769 L7.61578149,14.9011769 L9.44845618,16.7474269 C9.9507448,17.2361402 10.6023625,17.5076475 11.2947062,17.5076475 C11.98705,17.5076475 12.6386677,17.2361402 13.1409563,16.7474269 L14.9872063,14.9011769 L21.2861771,14.9011769 C22.0056716,14.9011769 22.5894124,15.4849178 22.5894124,16.2044122 Z M18.1774179,8.48002781 C18.3131715,8.80583664 18.2452947,9.18594695 17.9873627,9.43030357 L11.9055978,15.5120684 C11.7426934,15.6885482 11.5119121,15.7700005 11.2947062,15.7700005 C11.0775003,15.7700005 10.8467191,15.6885482 10.6838147,15.5120684 L4.60204978,9.43030357 C4.34411778,9.18594695 4.27624094,8.80583664 4.41199463,8.48002781 C4.5477483,8.16779434 4.85998177,7.95058846 5.21294133,7.95058846 L8.68823557,7.95058846 L8.68823557,1.86882356 C8.68823557,1.39368567 9.08192123,1 9.55705912,1 L13.0323534,1 C13.5074912,1 13.9011769,1.39368567 13.9011769,1.86882356 L13.9011769,7.95058846 L17.3764711,7.95058846 C17.7294306,7.95058846 18.0416641,8.16779434 18.1774179,8.48002781 Z" id="icon"></path>
        </g>
    </g>
</svg>