<?xml version="1.0" encoding="utf-8"?>
<!-- Generator: Adobe Illustrator 24.3.0, SVG Export Plug-In . SVG Version: 6.00 Build 0)  -->
<svg version="1.1" xmlns="http://www.w3.org/2000/svg" xmlns:xlink="http://www.w3.org/1999/xlink" x="0px" y="0px"
	 viewBox="0 0 16 16" style="enable-background:new 0 0 16 16;" xml:space="preserve">
<style type="text/css">
	.st0{display:none;}
	.st1{display:inline;fill:#BFE8E9;}
	.st2{display:inline;opacity:0.1;}
	.st3{fill:#003B61;}
	.st4{fill:#FFFFFF;stroke:#003B61;stroke-miterlimit:10;}
	.st5{fill:none;stroke:#003B61;stroke-width:0.4993;stroke-linecap:round;stroke-miterlimit:10;}
	.st6{fill:none;stroke:#FFFFFF;stroke-width:0.75;stroke-miterlimit:10;}
	.st7{fill:none;stroke:#FFFFFF;stroke-width:0.5;stroke-linecap:round;stroke-miterlimit:10;}
	.st8{fill:#FFFFFF;}
	.st9{fill:none;stroke:#000000;stroke-width:0.375;stroke-miterlimit:10;}
	.st10{fill:none;stroke:#000000;stroke-width:1.5;stroke-linecap:round;stroke-linejoin:round;stroke-miterlimit:10;}
	.st11{fill:none;stroke:#FFFFFF;stroke-linecap:round;stroke-linejoin:round;stroke-miterlimit:10;}
	.st12{fill:none;stroke:#000000;stroke-linecap:round;stroke-linejoin:round;stroke-miterlimit:10;}
	.st13{fill:none;stroke:#FFFFFF;stroke-width:0.75;stroke-linecap:round;stroke-miterlimit:10;}
	.st14{fill:none;stroke:#FFFFFF;stroke-width:0.5;stroke-miterlimit:10;}
	.st15{fill:none;stroke:#000000;stroke-miterlimit:10;}
	.st16{fill:none;}
	.st17{fill:#91348A;}
	.st18{fill:none;stroke:#000000;stroke-width:1;stroke-miterlimit:10;}
	.st19{fill:none;stroke:#FFFFFF;stroke-linecap:round;stroke-miterlimit:10;}
	.st20{fill:none;stroke:#000000;stroke-width:0.875;stroke-miterlimit:10;}
	.st21{fill:none;stroke:#000000;stroke-width:0.9905;stroke-linecap:round;stroke-miterlimit:10;}
	.st22{fill:none;stroke:#000000;stroke-width:0.5;stroke-linecap:round;stroke-linejoin:round;stroke-miterlimit:10;}
	.st23{fill:#FFFFFF;stroke:#FFFFFF;stroke-linecap:round;stroke-linejoin:round;stroke-miterlimit:10;}
	.st24{fill:url(#SVGID_1_);}
	.st25{fill:none;stroke:#000000;stroke-linecap:round;stroke-miterlimit:10;}
	.st26{fill:none;stroke:#000000;stroke-width:1.0024;stroke-linecap:round;stroke-linejoin:round;stroke-miterlimit:10;}
	.st27{fill:none;stroke:#FFFFFF;stroke-miterlimit:10;}
	.st28{fill:none;stroke:#000000;stroke-width:1;stroke-linecap:round;stroke-miterlimit:10;}
	.st29{fill:none;stroke:#000000;stroke-width:0.9837;stroke-linecap:round;stroke-linejoin:round;stroke-miterlimit:10;}
	.st30{fill:none;stroke:#FFFFFF;stroke-width:1.5;stroke-linecap:round;stroke-linejoin:round;stroke-miterlimit:10;}
	.st31{fill:none;stroke:#000000;stroke-width:0.75;stroke-linecap:round;stroke-linejoin:round;stroke-miterlimit:10;}
	.st32{clip-path:url(#SVGID_3_);fill:#FFFFFF;}
	.st33{stroke:#FFFFFF;stroke-width:0.5;stroke-linecap:round;stroke-miterlimit:10;}
	.st34{stroke:#FFFFFF;stroke-width:0.5;stroke-miterlimit:10;}
	.st35{fill:#FFFFFF;stroke:#000000;stroke-miterlimit:10;}
	.st36{fill:none;stroke:#000000;stroke-width:0.75;stroke-linecap:round;stroke-miterlimit:10;}
	.st37{fill:none;stroke:#FFFFFF;stroke-width:0.75;stroke-linecap:round;stroke-linejoin:round;stroke-miterlimit:10;}
	.st38{clip-path:url(#SVGID_5_);fill:#FFFFFF;}
	.st39{fill:none;stroke:#FFFFFF;stroke-width:1.5;stroke-miterlimit:10;}
	.st40{fill:none;stroke:#000000;stroke-width:0.75;stroke-miterlimit:10;}
	.st41{fill:#0F8243;}
	.st42{fill:none;stroke:#000000;stroke-width:2;stroke-miterlimit:10;}
	.st43{fill:none;stroke:#FFFFFF;stroke-width:1.25;stroke-miterlimit:10;}
	.st44{fill:none;stroke:#000000;stroke-width:1.4945;stroke-miterlimit:10;}
	.st45{fill:none;stroke:#FFFFFF;stroke-width:1.5;stroke-linecap:round;stroke-miterlimit:10;}
	.st46{fill:none;stroke:#000000;stroke-width:3.5;stroke-linecap:round;stroke-miterlimit:10;}
	.st47{fill:none;stroke:#000000;stroke-width:1.75;stroke-linecap:round;stroke-miterlimit:10;}
	.st48{fill:none;stroke:#000000;stroke-width:1.75;stroke-miterlimit:10;}
	.st49{fill:none;stroke:#000000;stroke-width:1.5;stroke-miterlimit:10;}
	.st50{fill:none;stroke:#000000;stroke-width:1.5;stroke-linecap:round;stroke-miterlimit:10;}
	.st51{fill:#FFFFFF;stroke:#FFFFFF;stroke-width:1.5;stroke-linecap:round;stroke-linejoin:round;stroke-miterlimit:10;}
	.st52{fill:url(#SVGID_6_);}
	.st53{fill:none;stroke:#000000;stroke-width:1.5138;stroke-linecap:round;stroke-linejoin:round;stroke-miterlimit:10;}
	.st54{stroke:#FFFFFF;stroke-width:0.75;stroke-linecap:round;stroke-miterlimit:10;}
	.st55{stroke:#FFFFFF;stroke-width:0.75;stroke-miterlimit:10;}
	.st56{fill:#FFFFFF;stroke:#000000;stroke-width:1.2;stroke-miterlimit:10;}
	.st57{fill:#787878;}
	.st58{fill:none;stroke:#FFFFFF;stroke-width:0.8;stroke-miterlimit:10;}
	.st59{fill:none;stroke:#787878;stroke-width:2;stroke-linecap:round;stroke-miterlimit:10;}
	.st60{fill:none;stroke:#000000;stroke-width:3.5;stroke-miterlimit:10;}
	.st61{fill:none;stroke:#6360A5;stroke-width:8;stroke-miterlimit:10;}
	.st62{fill:#3C388E;}
	.st63{fill:none;stroke:#6360A5;stroke-width:4;stroke-miterlimit:10;}
	.st64{fill:none;stroke:#787878;stroke-width:4;stroke-miterlimit:10;}
	.st65{fill:none;stroke:#4D4D4D;stroke-width:2;stroke-miterlimit:10;}
	.st66{fill:none;stroke:#FFFFFF;stroke-width:2.5;stroke-linecap:round;stroke-miterlimit:10;}
	.st67{fill:none;stroke:#787878;stroke-width:1.5;stroke-miterlimit:10;}
	.st68{fill:none;stroke:#FFFFFF;stroke-width:2;stroke-linecap:round;stroke-miterlimit:10;}
	.st69{fill:none;stroke:#000000;stroke-width:3;stroke-linecap:round;stroke-linejoin:round;stroke-miterlimit:10;}
	.st70{fill:none;stroke:#787878;stroke-width:3;stroke-linecap:round;stroke-linejoin:round;stroke-miterlimit:10;}
	.st71{fill:none;stroke:#FFFFFF;stroke-width:3;stroke-linecap:round;stroke-linejoin:round;stroke-miterlimit:10;}
	.st72{fill:none;stroke:#FFFFFF;stroke-width:2.8708;stroke-linecap:round;stroke-linejoin:round;stroke-miterlimit:10;}
	.st73{fill:none;stroke:#FFFFFF;stroke-width:2.5;stroke-miterlimit:10;}
	.st74{fill:none;stroke:#787878;stroke-width:2.9966;stroke-miterlimit:10;}
	.st75{stroke:#FFFFFF;stroke-width:3;stroke-miterlimit:10;}
	.st76{fill:#FFFFFF;stroke:#787878;stroke-width:1.9697;stroke-miterlimit:10;}
	.st77{fill:none;stroke:#000000;stroke-width:3;stroke-miterlimit:10;}
	.st78{fill:none;stroke:#787878;stroke-width:3;stroke-miterlimit:10;}
	.st79{fill:none;stroke:#000000;stroke-width:3;stroke-linecap:round;stroke-miterlimit:10;}
	.st80{fill:none;stroke:#FFFFFF;stroke-width:3;stroke-miterlimit:10;}
	.st81{fill:none;stroke:#000000;stroke-width:4;stroke-miterlimit:10;}
	.st82{fill:none;stroke:#787878;stroke-width:3;stroke-linecap:round;stroke-miterlimit:10;}
	.st83{fill:none;stroke:#787878;stroke-width:7;stroke-linecap:round;stroke-miterlimit:10;}
	.st84{fill:none;stroke:#000000;stroke-width:2;stroke-linecap:round;stroke-linejoin:round;stroke-miterlimit:10;}
	.st85{fill:url(#SVGID_7_);}
	.st86{fill:none;stroke:#000000;stroke-width:2;stroke-linecap:round;stroke-miterlimit:10;}
	.st87{fill:none;stroke:#FFFFFF;stroke-width:0.9;stroke-miterlimit:10;}
	.st88{fill:#787878;stroke:#FFFFFF;stroke-width:1.5;stroke-linecap:round;stroke-miterlimit:10;}
	.st89{fill:none;stroke:#000000;stroke-width:3.0275;stroke-linecap:round;stroke-linejoin:round;stroke-miterlimit:10;}
	.st90{fill:none;stroke:#000000;stroke-width:1.4928;stroke-miterlimit:10;}
	.st91{fill:none;stroke:#000000;stroke-width:2.5;stroke-linecap:round;stroke-linejoin:round;stroke-miterlimit:10;}
	.st92{clip-path:url(#SVGID_9_);fill:#787878;}
	.st93{fill:#FFFFFF;stroke:#787878;stroke-width:2.4;stroke-miterlimit:10;}
	.st94{fill:none;stroke:#FFFFFF;stroke-width:3;stroke-linecap:round;stroke-miterlimit:10;}
	.st95{clip-path:url(#SVGID_11_);fill:#787878;}
	.st96{fill:#1D1D1D;}
</style>
<g id="Circle" class="st0">
</g>
<g id="Grid" class="st0">
	<g class="st2">
		<path d="M13,14H3c-0.55,0-1-0.45-1-1V3c0-0.55,0.45-1,1-1h10c0.55,0,1,0.45,1,1v10C14,13.55,13.55,14,13,14z"/>
	</g>
	<g class="st2">
		<path d="M12,15H4c-0.55,0-1-0.45-1-1V2c0-0.55,0.45-1,1-1h8c0.55,0,1,0.45,1,1v12C13,14.55,12.55,15,12,15z"/>
	</g>
	<g class="st2">
		<path d="M15,4v8c0,0.55-0.45,1-1,1H2c-0.55,0-1-0.45-1-1V4c0-0.55,0.45-1,1-1h12C14.55,3,15,3.45,15,4z"/>
	</g>
	<circle class="st2" cx="8" cy="8" r="7"/>
</g>
<g id="OLD">
</g>
<g id="Artwork_16x16">
	<g>
		<path d="M15,6c0,1.05,0,4.5,0,4.5l-1.82-1.14L13.11,9.4C12.5,9.78,11.77,10,11,10c-2.21,0-4-1.79-4-4s1.79-4,4-4S15,3.79,15,6z"/>
	</g>
	<g>
		<g>
			<path d="M1,9.5C1,10.55,1,14,1,14l1.82-1.14l0.07,0.04C3.5,13.28,4.23,13.5,5,13.5c2.21,0,4-1.79,4-4s-1.79-4-4-4S1,7.29,1,9.5z"
				/>
		</g>
	</g>
	<g>
		<path class="st8" d="M6.18,8.73C6.15,8.79,6.11,8.91,6.08,9c0.6,0.18,0.97,0.63,0.97,1.18c0,0.7-0.45,1.34-1.61,1.53L5.17,11.3
			c0.91-0.1,1.39-0.57,1.39-1.14c0-0.34-0.21-0.64-0.62-0.77c-0.27,0.69-0.67,1.21-1.06,1.55c0.03,0.13,0.07,0.26,0.11,0.38
			l-0.45,0.13c-0.02-0.07-0.05-0.15-0.07-0.24c-0.25,0.14-0.54,0.24-0.8,0.24c-0.34,0-0.62-0.21-0.62-0.67
			c0-0.63,0.54-1.29,1.22-1.61C4.28,8.96,4.3,8.73,4.32,8.51c-0.08,0-0.16,0-0.24,0c-0.23,0-0.62-0.02-0.82-0.03L3.24,8.02
			c0.17,0.02,0.6,0.06,0.85,0.06c0.09,0,0.18,0,0.27,0L4.4,7.75c0-0.08,0.01-0.19,0.01-0.26l0.52,0.01C4.9,7.58,4.88,7.67,4.87,7.74
			C4.85,7.84,4.83,7.95,4.81,8.07c0.62-0.02,1.18-0.09,1.7-0.21l0,0.46C6.02,8.4,5.36,8.47,4.75,8.5C4.74,8.67,4.72,8.85,4.71,9.03
			c0.26-0.07,0.54-0.11,0.79-0.11c0.05,0,0.09,0,0.14,0c0.02-0.09,0.05-0.23,0.05-0.32L6.18,8.73z M4.37,10.76
			c-0.06-0.35-0.11-0.73-0.11-1.11c-0.43,0.27-0.74,0.71-0.74,1.05c0,0.18,0.08,0.27,0.25,0.27C3.94,10.97,4.15,10.9,4.37,10.76z
			 M4.69,9.57c0,0.31,0.03,0.6,0.07,0.86C5.05,10.15,5.31,9.8,5.5,9.32H5.47c-0.3,0-0.56,0.06-0.78,0.13V9.57z"/>
	</g>
	<g>
		<path class="st8" d="M11.92,7.63l-0.26-0.86h-1.32l-0.26,0.86H9.25L10.53,4h0.94l1.28,3.64H11.92z M11.48,6.13
			C11.23,5.35,11.1,4.9,11.07,4.8C11.04,4.7,11.01,4.62,11,4.56c-0.05,0.21-0.21,0.73-0.47,1.57H11.48z"/>
	</g>
</g>
<g id="Artwork_32x32">
</g>
<g id="Artwork_64x64">
</g>
<g id="Notes">
</g>
</svg>
