<?xml version="1.0" encoding="utf-8"?>
<!-- Generator: Adobe Illustrator 23.1.1, SVG Export Plug-In . SVG Version: 6.00 Build 0)  -->
<svg version="1.1" id="Layer_1" xmlns="http://www.w3.org/2000/svg" xmlns:xlink="http://www.w3.org/1999/xlink" x="0px" y="0px"
	 viewBox="0 0 2000 600" style="enable-background:new 0 0 2000 600;" xml:space="preserve">
<style type="text/css">
	.st0{clip-path:url(#SVGID_2_);}
	.st1{fill:#92358B;}
	.st2{fill:url(#SVGID_3_);}
	.st3{fill:url(#SVGID_4_);}
	.st4{fill:url(#SVGID_5_);}
	.st5{opacity:0.23;}
	.st6{fill:#FFFFFF;}
	.st7{opacity:0.2;}
</style>
<g>
	<defs>
		<rect id="SVGID_1_" width="1998.5" height="603.6"/>
	</defs>
	<clipPath id="SVGID_2_">
		<use xlink:href="#SVGID_1_"  style="overflow:visible;"/>
	</clipPath>
	<g class="st0">
		<polygon class="st1" points="1318.7,-28.1 1397.6,530 1519.2,675 2031.1,623 2031.1,-51.9 		"/>
		<linearGradient id="SVGID_3_" gradientUnits="userSpaceOnUse" x1="1136.5419" y1="439.6666" x2="1500.7736" y2="75.4349">
			<stop  offset="0" style="stop-color:#662483"/>
			<stop  offset="0.1841" style="stop-color:#5E2683"/>
			<stop  offset="0.5036" style="stop-color:#462B83"/>
			<stop  offset="0.7344" style="stop-color:#2D2E83"/>
			<stop  offset="1" style="stop-color:#195D93"/>
		</linearGradient>
		<circle class="st2" cx="1318.7" cy="257.6" r="257.6"/>
		
			<linearGradient id="SVGID_4_" gradientUnits="userSpaceOnUse" x1="1417.7629" y1="592.1896" x2="1543.4612" y2="466.4913" gradientTransform="matrix(0.211 -0.9775 0.9775 0.211 581.3494 1927.8335)">
			<stop  offset="0" style="stop-color:#662483"/>
			<stop  offset="0.1841" style="stop-color:#5E2683"/>
			<stop  offset="0.5036" style="stop-color:#462B83"/>
			<stop  offset="0.7344" style="stop-color:#2D2E83"/>
			<stop  offset="1" style="stop-color:#195D93"/>
		</linearGradient>
		<circle class="st3" cx="1411.1" cy="592.2" r="88.9"/>
		
			<linearGradient id="SVGID_5_" gradientUnits="userSpaceOnUse" x1="2074.749" y1="1017.9297" x2="2200.4475" y2="892.2314" gradientTransform="matrix(0.9145 -0.4046 0.4046 0.9145 -375.3444 31.4216)">
			<stop  offset="0" style="stop-color:#662483"/>
			<stop  offset="0.1825" style="stop-color:#612C85"/>
			<stop  offset="0.5004" style="stop-color:#533E8A"/>
			<stop  offset="0.9133" style="stop-color:#2B5892"/>
			<stop  offset="1" style="stop-color:#195D93"/>
		</linearGradient>
		<circle class="st4" cx="1965.9" cy="39.8" r="88.9"/>
		<g class="st5">
			<path class="st6" d="M997,258.8L896.7,446.1c-0.2,3.3-0.4,6.6-0.4,9.9L1005,253C1002.3,254.9,999.6,256.8,997,258.8"/>
			<path class="st6" d="M926.5,341.6c-7.6,14.1-13.6,28.6-18.3,43.4l44.3-82.7C942.8,314.4,934.1,327.5,926.5,341.6"/>
			<path class="st6" d="M1036.4,234L897.9,492.6c0.6,4.8,1.3,9.6,2.1,14.3l149.5-279.1C1045.1,229.8,1040.7,231.8,1036.4,234"/>
			<path class="st6" d="M1076.2,217.7L906.4,534.8c1.1,3.9,2.3,7.7,3.6,11.5l177.8-332.1C1083.9,215.4,1080,216.5,1076.2,217.7"/>
			<path class="st6" d="M1149.9,205.1l-213.2,398c2.6,4.1,5.3,8.2,8.1,12.2l219.8-410.3C1159.7,205,1154.8,205,1149.9,205.1"/>
			<path class="st6" d="M1111.9,209l-193,360.4c2.2,4.9,4.4,9.7,6.9,14.5l202-377.2C1122.5,207.3,1117.2,208.1,1111.9,209"/>
			<path class="st6" d="M1222.6,212.7L983.4,659.4c4.3,4,8.8,7.8,13.4,11.5l242.9-453.5C1233.9,215.7,1228.3,214.1,1222.6,212.7"/>
			<path class="st6" d="M1185.2,206.3L957.3,631.8c3.9,4.7,7.9,9.3,12.1,13.8l234-436.8C1197.3,207.8,1191.3,206.9,1185.2,206.3"/>
			<path class="st6" d="M1257.5,223.7l-245.6,458.6c5.9,4.1,11.9,8,18.2,11.7l247.2-461.7C1270.7,229.2,1264.1,226.3,1257.5,223.7"
				/>
			<path class="st6" d="M1293.9,241.1l-247.4,462c6.5,3.3,13,6.2,19.6,9l246.1-459.6C1306.3,248.5,1300.2,244.7,1293.9,241.1"/>
			<path class="st6" d="M1327.5,263.5l-243.7,455.1c8.4,2.8,16.9,5.2,25.5,7.1l238.3-445C1341.2,274.8,1334.6,269,1327.5,263.5"/>
			<path class="st6" d="M1361.4,294.8l-232.8,434.6c9.3,1.4,18.5,2.4,27.8,2.8l222.8-415.9C1373.6,308.9,1367.7,301.7,1361.4,294.8"
				/>
			<path class="st6" d="M1417.3,388.4l-179.8,335.7c14.4-3.7,28.5-8.6,42-14.7l148.8-277.9C1425.9,416.9,1422.2,402.5,1417.3,388.4"
				/>
			<path class="st6" d="M1391,333.8l-213.5,398.7c12.1-0.3,24.1-1.5,36-3.4l194.7-363.5C1403.2,354.7,1397.5,344.1,1391,333.8"/>
			<path class="st6" d="M1431.8,464.8l-122.7,229.1c31.9-19.5,59.9-46,81.2-78.7l20.9-39.1C1426.7,540.1,1433.3,502.2,1431.8,464.8"
				/>
		</g>
		<g class="st7">
			<path class="st6" d="M1861.3,944.1c-4.1-5-12.1-5.8-17.3-1.7c-3,2.3-4.7,5.6-4.9,9c8,1.8,16.1,3.5,24.3,4.8
				C1864.7,952.1,1864.2,947.5,1861.3,944.1z"/>
			<path class="st6" d="M1916,944.4c-4.7-5.1-13.2-5.2-18.1-0.3c-4.4,4.4-4.6,11.4-0.9,16.3c6.2,0.5,12.4,1,18.6,1.2
				C1920.3,956.9,1920.4,949.3,1916,944.4z"/>
			<path class="st6" d="M1970.4,943.4c-4.9-4.7-12.5-4.4-17.3,0.5c-4.7,4.9-4.5,12.5,0.4,17.2c0.2,0.2,0.4,0.2,0.6,0.4
				c5.7-0.3,11.3-0.7,17-1.2C1975.3,955.4,1975.1,947.9,1970.4,943.4z"/>
			<path class="st6" d="M2007.4,944.5c-2.9,3.3-3.6,7.6-2.3,11.4c7.8-1.3,15.6-2.9,23.2-4.7c-0.3-3-1.4-5.8-3.7-7.9
				C2019.6,938.8,2012,939.3,2007.4,944.5z"/>
			<path class="st6" d="M1530.8,612.4c-3.8-3.6-8.9-4.6-13.4-3c1.5,8.9,3.2,17.6,5.2,26.3c3.2-0.2,6.3-1.4,8.6-3.7
				C1536.6,626.7,1536.4,617.7,1530.8,612.4z"/>
			<path class="st6" d="M1531.1,667.2c1.2,3.9,2.6,7.7,3.9,11.5C1535.5,674.6,1534.2,670.3,1531.1,667.2z"/>
			<path class="st6" d="M1530.6,467.5c5.8-5.2,6.2-14.1,0.9-19.6c-2.3-2.4-5.4-3.6-8.6-3.9c-2,8.7-3.8,17.5-5.3,26.4
				C1522,471.8,1526.9,470.9,1530.6,467.5z"/>
			<path class="st6" d="M1530.5,522.1c5.8-5.2,6.3-14,1.1-19.6c-4.5-4.8-12.6-5.4-18-1.7c-0.6,6.9-1.1,13.9-1.4,20.9
				C1517.3,526.6,1525.1,526.9,1530.5,522.1z"/>
			<path class="st6" d="M1531.4,577.3c5.3-5.5,4.9-14.4-0.8-19.6c-5.4-4.9-13.3-4.8-18.5,0.3c0.3,7,0.8,13.9,1.4,20.8
				C1518.8,582.6,1526.8,582.1,1531.4,577.3z"/>
			<path class="st6" d="M1538.8,640.5c-4.9,5.5-4.6,14.1,0.7,19c5.3,4.9,14.2,4.6,19.1-0.5c5.1-5.3,4.9-13.7-0.3-19
				C1552.7,634.4,1544,634.7,1538.8,640.5z"/>
			<path class="st6" d="M1613.9,475.2c-5.5-5.4-14.2-5.1-19.4,0.7c-4.9,5.4-4.5,14,0.9,18.8c5.3,4.8,14,4.5,18.9-0.7
				C1619.4,488.7,1619.2,480.3,1613.9,475.2z"/>
			<path class="st6" d="M1567.2,503.1c-5.3,5.2-5.4,13.5-0.2,18.8c5.2,5.3,13.5,5.6,18.9,0.6c5.5-5,5.6-14.5,0.2-19.7
				C1580.9,497.8,1572.4,497.9,1567.2,503.1z"/>
			<path class="st6" d="M1557.9,494.6c5.7-5.3,5.9-14.3,0.5-19.6c-5.1-5-14-5-19.1,0c-5.2,5.1-5.3,13.6-0.2,19
				C1544.1,499.4,1552.4,499.6,1557.9,494.6z"/>
			<path class="st6" d="M1567.1,447.1c-5.1,5-5.2,13.9-0.3,19.1c5.2,5.5,14.2,5.5,19.6-0.1c5.1-5.4,5-13.6-0.3-18.8
				C1580.8,442.1,1572.3,442,1567.1,447.1z"/>
			<path class="st6" d="M1558.5,604.5c5.1-5.2,5.1-13.7-0.1-19c-5.2-5.3-13.5-5.5-18.8-0.3c-5.4,5.1-5.7,13.5-0.8,19
				C1543.7,609.7,1553.2,609.9,1558.5,604.5z"/>
			<path class="st6" d="M1613.3,439.1c5.3-5.1,5.4-13.5,0.4-18.8c-5.3-5.6-14.3-5.6-19.5-0.2c-4.9,5.2-4.8,14,0.3,19
				C1599.6,444.3,1608,444.3,1613.3,439.1z"/>
			<path class="st6" d="M1540.3,530c-5.5,5.1-5.8,13.4-0.8,18.8c5.2,5.7,14.2,6,19.6,0.6c5-5,5.1-14,0.2-19.1
				C1554.2,525.2,1545.6,525,1540.3,530z"/>
			<path class="st6" d="M1595.5,529.4c-5.7,4.6-6.7,13-2.2,18.7c4.8,6.1,13.5,7,19.4,2c5.4-4.6,6.2-13.2,1.6-18.9
				C1609.7,525.6,1601.2,524.8,1595.5,529.4z"/>
			<path class="st6" d="M1586.2,557.4c-5.2-5.1-13.7-5-19,0.1c-5.3,5.2-5.5,13.5-0.3,18.8c5.1,5.3,13.5,5.7,18.9,0.8
				C1591.4,572.1,1591.6,562.6,1586.2,557.4z"/>
			<path class="st6" d="M1585.5,631.9c5.2-5.1,5.3-13.6,0.2-19c-5.1-5.4-13.4-5.7-18.8-0.6c-5.7,5.3-5.9,14.3-0.5,19.6
				C1571.5,636.9,1580.5,636.9,1585.5,631.9z"/>
			<path class="st6" d="M1594.4,584.9c-5.4,5.4-5.2,14.2,0.5,19.4c5.4,4.9,13.9,4.6,18.8-0.7c4.9-5.3,4.6-14-0.5-18.9
				C1608,579.6,1599.6,579.7,1594.4,584.9z"/>
			<path class="st6" d="M1558.3,695.5c-4.6-4.5-12.3-4.8-17.5-1.1c3.2,8.1,6.6,16.1,10.3,24c2.7-0.5,5.3-1.8,7.4-4
				C1563.5,709.2,1563.5,700.6,1558.3,695.5z"/>
			<path class="st6" d="M1567.4,667.3c-5.5,5-5.7,14.5-0.3,19.7c5.2,5.1,13.7,5,19-0.1c5.3-5.2,5.5-13.5,0.3-18.8
				C1581.2,662.8,1572.9,662.4,1567.4,667.3z"/>
			<path class="st6" d="M1612.7,660.2c5.5-4.9,6.2-13.2,1.4-18.7c-4.8-5.6-13-6.4-18.8-1.7c-5.8,4.7-6.5,13.9-1.5,19.5
				C1598.7,664.6,1607.2,665,1612.7,660.2z"/>
			<path class="st6" d="M1566.4,722.8c-5.4,5.4-5.2,14.3,0.5,19.6c5.4,5,13.7,4.7,18.8-0.7c5-5.3,4.9-13.9-0.3-19
				C1580.4,717.8,1571.5,717.8,1566.4,722.8z"/>
			<path class="st6" d="M1594.7,694.7c-5.5,5-5.7,14.3-0.3,19.6c5.2,5.1,13.6,5,18.8-0.1c5.2-5.2,5.4-13.5,0.3-18.8
				C1608.5,690.1,1600.2,689.7,1594.7,694.7z"/>
			<path class="st6" d="M1583.8,776.4c1.8,2.7,3.8,5.3,5.6,7.9c-0.6-2.4-1.5-4.7-3.3-6.4C1585.5,777.2,1584.6,776.9,1583.8,776.4z"
				/>
			<path class="st6" d="M1594.8,750.5c-5.7,5.2-5.8,14-0.3,19.4c5.2,5.1,13.7,5.2,18.9,0.1c5.1-5,5.2-13.8,0.3-19
				C1608.7,745.8,1600.2,745.6,1594.8,750.5z"/>
			<path class="st6" d="M1613.2,805.1c-3-2.8-6.9-3.9-10.7-3.4c4.6,5.8,9.3,11.4,14.1,16.9C1617.9,813.9,1616.9,808.6,1613.2,805.1z
				"/>
			<path class="st6" d="M1558.7,439.3c5.4-5.1,5.7-13.4,0.6-18.8c-5.3-5.7-14.3-5.9-19.6-0.5c-5,5.1-5,14,0,19.1
				C1544.8,444.3,1553.3,444.4,1558.7,439.3z"/>
			<path class="st6" d="M1567.1,392.6c-5.1,5-5.2,13.9-0.3,19.1c5,5.2,13.6,5.5,19,0.5c5.7-5.3,5.9-14,0.3-19.5
				C1580.8,387.6,1572.3,387.5,1567.1,392.6z"/>
			<path class="st6" d="M1595,364.9c-5.1,5.2-5.1,13.6,0,18.9c5.4,5.5,14.1,5.4,19.4-0.3c5-5.4,4.7-13.9-0.5-18.9
				C1608.7,359.7,1600,359.8,1595,364.9z"/>
			<path class="st6" d="M1613.7,328.6c4.9-5.2,4.8-14-0.3-19c-5.2-5.1-13.6-5.1-18.9,0c-5.5,5.4-5.4,14.2,0.3,19.4
				C1600.2,334.1,1608.7,333.9,1613.7,328.6z"/>
			<path class="st6" d="M1586.4,356.1c5-5.1,5-14,0-19.1c-5.1-5.2-13.6-5.3-19-0.2c-5.4,5.1-5.7,13.4-0.6,18.8
				C1572.1,361.3,1581.1,361.5,1586.4,356.1z"/>
			<path class="st6" d="M1558.3,384.3c5.2-5,5.4-13.6,0.4-19c-2-2.1-4.4-3.4-7-4c-3.7,7.9-7.2,16-10.4,24.1
				C1546.4,388.8,1553.7,388.6,1558.3,384.3z"/>
			<path class="st6" d="M1613.6,274.2c3.2-3.3,4.1-7.9,3.2-12.3c-4.6,5.3-9.2,10.7-13.5,16.2C1607,278.4,1610.8,277.1,1613.6,274.2z
				"/>
			<path class="st6" d="M1622.4,502.6c-5.2,5.2-5.1,13.6,0,18.8c5.2,5.2,13.7,5.1,18.8-0.1c5.2-5.2,5.1-13.6-0.1-18.8
				C1636,497.4,1627.5,497.4,1622.4,502.6z"/>
			<path class="st6" d="M1622.6,392.1c-5.3,5.1-5.4,13.5-0.3,18.8c5.1,5.2,13.5,5.4,18.8,0.3c5.3-5.1,5.4-13.5,0.3-18.8
				C1636.3,387.2,1627.8,387,1622.6,392.1z"/>
			<path class="st6" d="M1622.2,613c-5.1,5.3-5,13.7,0.3,18.8c5.2,5.1,13.7,4.9,18.8-0.3c5.1-5.3,5-13.7-0.3-18.8
				C1635.8,607.6,1627.3,607.7,1622.2,613z"/>
			<path class="st6" d="M1640.7,832.9c-3.7-3.9-9.3-5-14.1-3.3c5.5,5.8,11.1,11.5,16.9,17C1645.2,842,1644.3,836.7,1640.7,832.9z"/>
			<path class="st6" d="M1640.4,247c4.1-3.5,5.5-8.9,4.2-13.7c-5.6,5.3-11.1,10.8-16.5,16.4C1632.2,250.8,1636.9,250,1640.4,247z"/>
			<path class="st6" d="M1622.5,723c-5.2,5.1-5.3,13.6-0.2,18.8c5.1,5.2,13.6,5.3,18.8,0.2c5.2-5.1,5.3-13.6,0.1-18.8
				C1636.1,718,1627.7,717.9,1622.5,723z"/>
			<path class="st6" d="M1621.5,778.5c-5,5.3-4.8,13.7,0.4,18.8c5.3,5.1,13.7,4.9,18.8-0.4c5.1-5.3,4.8-13.8-0.4-18.8
				C1635,772.9,1626.6,773.1,1621.5,778.5z"/>
			<path class="st6" d="M1640.4,686.8c5.2-5.1,5.3-13.6,0.2-18.8c-5.2-5.2-13.5-5.3-18.8-0.2c-5.2,5.1-5.3,13.6-0.2,18.8
				C1626.8,691.9,1635.2,692,1640.4,686.8z"/>
			<path class="st6" d="M1640.4,576.6c5.3-5.1,5.4-13.5,0.3-18.8c-5.1-5.3-13.5-5.4-18.8-0.3c-5.2,5.1-5.4,13.5-0.3,18.8
				C1626.7,581.6,1635.1,581.7,1640.4,576.6z"/>
			<path class="st6" d="M1640.7,301.3c5.1-5.2,5-13.7-0.3-18.8c-5.3-5.1-13.7-5-18.8,0.3c-5.1,5.2-5,13.7,0.2,18.8
				C1627.2,306.7,1635.6,306.6,1640.7,301.3z"/>
			<path class="st6" d="M1623.2,337.1c-5.6,4.8-6.3,13.1-1.5,18.7c4.7,5.6,13.2,6.2,18.7,1.5c5.6-4.7,6.2-13.1,1.5-18.7
				C1637.2,333,1628.8,332.3,1623.2,337.1z"/>
			<path class="st6" d="M1622.6,447.8c-5.3,5.1-5.5,13.5-0.5,18.8c5,5.3,13.5,5.5,18.8,0.5c5.3-5.1,5.5-13.5,0.4-18.8
				C1636.4,443,1627.9,442.8,1622.6,447.8z"/>
			<path class="st6" d="M1704.8,695.4c-4.8,4.9-4.9,13.2-0.1,18.2c5.1,5.4,13.5,5.4,18.8,0.1c5.1-5.1,5.1-12.8,0.2-18
				C1718.3,690.2,1709.9,690.1,1704.8,695.4z"/>
			<path class="st6" d="M1705.6,805.1c-5.7,5.1-6.1,13.2-0.9,18.6c4.9,5.2,12.8,5.6,18.1,0.9c5.4-4.8,5.8-13.5,0.9-18.8
				C1718.9,800.7,1710.9,800.4,1705.6,805.1z"/>
			<path class="st6" d="M1694.9,742.2c5.6-5,6.1-13.4,1-18.8c-5-5.3-13.8-5.4-18.9-0.2c-5,5-5,13-0.1,18.2
				C1681.7,746.7,1689.5,747,1694.9,742.2z"/>
			<path class="st6" d="M1649.4,750.6c-4.8,5.1-4.8,13,0.1,18.2c5.1,5.4,13.5,5.6,18.8,0.3c5.3-5.2,5.3-13.6,0-18.8
				C1663,745.1,1654.4,745.3,1649.4,750.6z"/>
			<path class="st6" d="M1668.3,219c2.7-2.7,4-6.1,4-9.6c-5.3,4.2-10.5,8.5-15.6,13C1660.7,223.2,1665.1,222.2,1668.3,219z"/>
			<path class="st6" d="M1650,639.9c-5.4,5.1-5.6,13.5-0.4,18.8c5.1,5.2,13.7,5.3,18.8,0.1c5.2-5.2,5.1-13.7-0.3-18.8
				C1663,635.1,1655.1,635,1650,639.9z"/>
			<path class="st6" d="M1705.9,475.3c-5.4,5.2-5.6,13.6-0.3,18.8c4.9,4.8,13.2,4.9,18.2,0.2c5.4-5.1,5.5-13.5,0.1-18.8
				C1718.8,470.4,1711.1,470.3,1705.9,475.3z"/>
			<path class="st6" d="M1678.3,502.9c-5.7,5.1-6,13.3-0.7,18.8c4.9,5.1,13,5.5,18.2,0.7c5.4-4.9,5.8-13.6,0.7-18.9
				C1691.6,498.4,1683.6,498.1,1678.3,502.9z"/>
			<path class="st6" d="M1649.4,530.1c-4.8,5.1-4.8,13,0.1,18.2c5.1,5.4,13.5,5.6,18.8,0.3c5.3-5.2,5.3-13.6,0-18.8
				C1663.1,524.6,1654.5,524.8,1649.4,530.1z"/>
			<path class="st6" d="M1667.8,274c5.6-5,6-13.4,1-18.8c-4.9-5.4-13.5-5.6-18.8-0.6c-5.4,5.1-5.5,13.5-0.3,18.8
				C1654.7,278.4,1662.5,278.7,1667.8,274z"/>
			<path class="st6" d="M1695.8,245.8c4.9-5.2,4.9-13.2-0.1-18.2c-5.1-5.2-13.9-5.1-18.9,0.2c-5.1,5.4-4.7,13.8,0.9,18.8
				C1683.1,251.4,1690.8,251.1,1695.8,245.8z"/>
			<path class="st6" d="M1723.4,219.6c5.3-4.5,6-12.6,1.5-18c-4.9-6-12.9-6.7-18.6-1.7c-5.4,4.8-6.2,12.5-1.8,18
				C1709.1,223.5,1717.9,224.4,1723.4,219.6z"/>
			<path class="st6" d="M1667.7,715.1c5.6-4.9,6.1-13.3,1.1-18.8c-4.9-5.4-13.5-5.7-18.8-0.7c-5.4,5.1-5.6,13.5-0.4,18.8
				C1654.6,719.5,1662.4,719.8,1667.7,715.1z"/>
			<path class="st6" d="M1677.5,668.1c-4.9,5-4.9,13.2-0.2,18.3c5.1,5.4,13.6,5.4,18.9,0.1c5.1-5.1,5.1-13,0.2-18.2
				C1691.2,662.9,1682.7,662.8,1677.5,668.1z"/>
			<path class="st6" d="M1705.1,640.6c-5.3,5-5.3,13.8-0.2,18.9c5.2,5.2,13.7,4.9,18.8-0.5c4.9-5.3,4.7-12.9-0.5-18
				C1718.1,635.9,1710.2,635.7,1705.1,640.6z"/>
			<path class="st6" d="M1649.4,586c-4.9,5.2-4.8,13.1,0.1,18.2c5.1,5.3,13.7,5.3,18.8,0.2c5.2-5.2,5.2-13.6-0.1-18.8
				C1662.9,580.3,1654.5,580.5,1649.4,586z"/>
			<path class="st6" d="M1677.7,557.9c-5.1,5.1-5.2,12.9-0.3,18.2c5.1,5.5,13.6,5.6,18.9,0.3c4.9-4.9,5-13.2,0.3-18.3
				C1691.5,552.6,1683,552.5,1677.7,557.9z"/>
			<path class="st6" d="M1704.6,531.1c-4.8,5.3-4.6,13,0.7,18c5.1,4.9,13.1,5,18.1,0.1c5.2-5,5.2-13.8,0-18.9
				C1718,525.3,1709.6,525.6,1704.6,531.1z"/>
			<path class="st6" d="M1723.2,438.9c5.2-5,5.5-12.7,0.6-18c-5.1-5.5-13.5-5.9-18.8-0.7c-5.2,5-5.2,13.8,0,18.9
				C1710.1,443.9,1718,443.8,1723.2,438.9z"/>
			<path class="st6" d="M1677.6,447.5c-5.2,5.2-5.1,13.9,0.2,18.9c5.2,4.8,13.1,4.7,18.2-0.3c5.1-5.1,5.3-12.9,0.4-18.1
				C1691.4,442.4,1682.9,442.2,1677.6,447.5z"/>
			<path class="st6" d="M1649.3,475.7c-5,5.4-4.5,13.8,1,18.8c5.3,4.7,13.1,4.4,18.1-0.7c5.2-5.3,5.1-13.7-0.3-18.8
				C1662.8,470.1,1654.2,470.4,1649.3,475.7z"/>
			<path class="st6" d="M1704.3,860.8c-5.1,5.1-5.3,12.9-0.5,18.1c4.9,5.3,13.7,5.5,18.9,0.4c5.2-5.2,5.1-13.6-0.4-18.8
				C1717.1,855.6,1709.5,855.7,1704.3,860.8z"/>
			<path class="st6" d="M1668.3,860.8c-3.6-3.6-8.5-4.7-12.9-3.4c5.4,4.8,11,9.4,16.7,13.9C1672.4,867.5,1671.2,863.7,1668.3,860.8z
				"/>
			<path class="st6" d="M1723.3,274.3c5.3-5,5.3-13.8,0.2-18.9c-5-4.9-12.9-5-18.1-0.1c-5.3,5-5.6,12.6-0.8,18
				C1709.6,279,1717.9,279.4,1723.3,274.3z"/>
			<path class="st6" d="M1650.3,805.7c-5.6,5-6,13.3-1,18.8c4.9,5.4,13.5,5.7,18.8,0.7c5.4-5.1,5.5-13.5,0.3-18.8
				C1663.4,801.2,1655.6,801,1650.3,805.7z"/>
			<path class="st6" d="M1677.8,778.3c-5.1,5.1-5.3,12.9-0.5,18.1c5.1,5.5,13.6,5.7,18.9,0.5c5.2-5.2,5.1-13.9-0.2-18.9
				C1690.8,773.2,1682.9,773.3,1677.8,778.3z"/>
			<path class="st6" d="M1677.5,283c-5.2,5.4-4.9,13.7,0.8,18.8c5.3,4.8,13.3,4.5,18.2-0.7c5.1-5.3,4.7-14.1-0.8-18.9
				C1690.5,277.5,1682.5,277.9,1677.5,283z"/>
			<path class="st6" d="M1668.5,329.2c4.9-5,5-12.9,0.2-18.2c-5.1-5.5-13.4-5.8-18.8-0.6c-5.4,5.1-5.5,13.6-0.3,18.8
				C1654.8,334.4,1663.4,334.4,1668.5,329.2z"/>
			<path class="st6" d="M1705.3,751c-5.3,5-5.6,12.6-0.8,18c5,5.6,13.4,6,18.7,0.9c5.3-5,5.3-13.8,0.2-18.9
				C1718.4,746.1,1710.4,746.1,1705.3,751z"/>
			<path class="st6" d="M1723.2,328.9c5.3-4.9,5.5-13.7,0.3-18.9c-5.2-5.2-13.6-5-18.8,0.4c-4.9,5.2-4.8,12.9,0.3,18
				C1710.1,333.5,1718,333.7,1723.2,328.9z"/>
			<path class="st6" d="M1695.9,356.2c4.8-5.2,4.6-13.2-0.4-18.2c-5.1-5.1-12.9-5.2-18.2-0.3c-5.5,5.2-5.6,13.6-0.3,18.9
				C1682.2,361.7,1691,361.5,1695.9,356.2z"/>
			<path class="st6" d="M1649.8,365.1c-5,5-5.3,12.9-0.6,18.2c4.8,5.5,13.4,5.9,18.8,1c5.5-5,5.7-13.4,0.6-18.8
				C1663.4,360,1655.1,359.8,1649.8,365.1z"/>
			<path class="st6" d="M1722.9,604.1c5.4-4.8,5.8-13.5,0.9-18.8c-4.8-5.1-12.8-5.5-18.1-0.7c-5.7,5.1-6.1,13.2-0.9,18.6
				C1709.7,608.4,1717.6,608.8,1722.9,604.1z"/>
			<path class="st6" d="M1695.4,631.8c5.4-5.1,5.4-13.6,0-18.9c-5.1-5-13-5.1-18.2-0.1c-5.4,5.2-5.5,13.7-0.2,18.9
				C1682.1,636.5,1690.3,636.6,1695.4,631.8z"/>
			<path class="st6" d="M1704.9,365.8c-4.9,4.9-5,13.1-0.3,18.2c5,5.4,13.4,5.5,18.8,0.2c5.1-5.1,5.3-12.8,0.3-18
				C1718.5,360.8,1710.1,360.6,1704.9,365.8z"/>
			<path class="st6" d="M1677.7,392.9c-5.2,5.2-5.1,13.9,0.2,18.9c5.4,5.1,13.8,4.7,18.8-0.9c4.8-5.4,4.4-13.1-0.8-18.1
				C1690.7,387.9,1682.7,388,1677.7,392.9z"/>
			<path class="st6" d="M1650.9,419.6c-5.5,4.8-5.9,13.4-1,18.8c5,5.5,13.4,5.8,18.8,0.7c5.4-5.1,5.6-13.5,0.4-18.8
				C1664.1,415.3,1656.2,415,1650.9,419.6z"/>
			<path class="st6" d="M1677.6,833c-5.6,5-6,13.5-0.9,18.9c5,5.3,13.8,5.4,18.9,0.1c5-5.1,5-13,0.1-18.2
				C1690.7,828.5,1682.9,828.2,1677.6,833z"/>
			<path class="st6" d="M1690.3,884.9c2.1,1.5,4.2,3,6.3,4.5c-0.4-0.5-0.8-1.1-1.3-1.5C1693.8,886.4,1692.1,885.5,1690.3,884.9z"/>
			<path class="st6" d="M1750.5,851.5c5.2-4.9,5.2-13.8,0.1-18.8c-5.2-5.1-13.6-4.8-18.7,0.7c-4.9,5.3-4.6,12.8,0.6,17.9
				C1737.5,856.2,1745.4,856.3,1750.5,851.5z"/>
			<path class="st6" d="M1732.8,173.6c-4.9,5.1-4.9,13,0,18c5,5.1,13.9,5.1,18.8-0.1c5-5.3,4.6-13.6-0.9-18.7
				C1745.3,168,1737.8,168.3,1732.8,173.6z"/>
			<path class="st6" d="M1733.4,447.9c-5.5,5-5.8,13.4-0.7,18.7c5,5.1,13.8,5.1,18.8-0.1c4.8-5.1,4.7-13-0.2-18
				C1746.2,443.3,1738.7,443.1,1733.4,447.9z"/>
			<path class="st6" d="M1733,227.8c-5.3,5.2-5.2,13.7,0.1,18.7c5,4.7,13.3,4.6,18.1-0.2c5.2-5.1,5-13.6-0.3-18.7
				C1745.7,222.6,1738.2,222.7,1733,227.8z"/>
			<path class="st6" d="M1750.7,686.3c5-5.2,5-12.8,0-17.9c-5.2-5.3-13.6-5.3-18.7-0.1c-4.7,4.9-4.7,13.2,0,18.1
				C1737,691.6,1745.5,691.6,1750.7,686.3z"/>
			<path class="st6" d="M1750.1,576.9c5.4-4.7,5.8-13.5,0.9-18.7c-4.7-5.1-12.7-5.4-18-0.8c-5.7,5.1-6.1,13.1-0.9,18.5
				C1736.9,581,1744.8,581.4,1750.1,576.9z"/>
			<path class="st6" d="M1751.3,337.8c-5.1-5-13.9-4.8-18.8,0.4c-4.7,5.2-4.5,13,0.5,18c5.1,5.1,12.7,5.2,17.9,0.2
				C1756.3,351.4,1756.4,343,1751.3,337.8z"/>
			<path class="st6" d="M1731.9,888.8c-4.7,4.9-4.7,13.2,0,18.1c5.1,5.2,13.5,5.2,18.7-0.2c5-5.2,5-12.8,0-17.9
				C1745.4,883.6,1736.9,883.6,1731.9,888.8z"/>
			<path class="st6" d="M1750.5,797c4.9-4.7,5.2-13,0.7-18.1c-4.8-5.4-13.3-5.7-18.7-0.6c-5.2,5-5.5,12.6-0.7,17.9
				C1736.9,801.7,1745.2,802.1,1750.5,797z"/>
			<path class="st6" d="M1733,282.4c-5.7,5.1-6.1,13.1-0.9,18.5c4.9,5.1,12.8,5.5,18,0.9c5.4-4.7,5.8-13.5,0.9-18.7
				C1746.2,278,1738.2,277.7,1733,282.4z"/>
			<path class="st6" d="M1733.2,723.1c-5.4,5.1-5.5,13.6-0.3,18.7c4.9,4.8,13.1,4.9,18.1,0.2c5.3-5,5.4-13.4,0.1-18.7
				C1746,718.2,1738.4,718.1,1733.2,723.1z"/>
			<path class="st6" d="M1733.4,612.4c-5.4,4.8-5.7,13.3-0.6,18.7c5,5.2,12.6,5.5,17.9,0.7c5.5-5,5.9-13.4,0.9-18.7
				C1746.8,608.2,1738.5,607.9,1733.4,612.4z"/>
			<path class="st6" d="M1750.8,521.7c5-5.2,4.7-14-0.6-18.8c-5.2-4.7-13.1-4.4-18,0.7c-5.3,5.4-5,13.4,0.6,18.5
				C1738,526.8,1746,526.6,1750.8,521.7z"/>
			<path class="st6" d="M1731.9,393.3c-4.7,5-4.6,13.3,0.2,18.1c5.1,5.2,13.6,5,18.7-0.3c5-5.2,4.9-12.8-0.2-17.9
				C1745.3,388,1736.9,388,1731.9,393.3z"/>
			<path class="st6" d="M1777.7,824.3c4.9-4.7,5.2-13.1,0.6-18.2c-4.7-5.1-12.8-5.5-18.1-0.8c-5.7,5.1-6,13.2-0.6,18.6
				C1764.5,828.9,1772.6,829.1,1777.7,824.3z"/>
			<path class="st6" d="M1777.9,549c4.8-4.9,4.8-13.3,0.1-18.2c-4.8-5-12.9-5.1-18.1-0.3c-5.3,5-5.6,12.6-0.7,17.9
				C1764.3,553.9,1772.8,554.2,1777.9,549z"/>
			<path class="st6" d="M1777.4,915.8c-5.1-4.9-13.2-4.8-18.1,0.2c-1.9,1.9-2.8,4.4-3.2,7c7.4,3.4,15,6.7,22.6,9.7
				C1782.7,927.5,1782.4,920.5,1777.4,915.8z"/>
			<path class="st6" d="M1760.8,200.2c-5.5,5-5.8,13.5-0.6,18.6c4.8,4.8,13.2,4.8,18.1,0.1c5-4.8,5.1-12.9,0.3-18
				C1773.7,195.7,1766.1,195.4,1760.8,200.2z"/>
			<path class="st6" d="M1760.7,254.8c-5.4,5.1-5.6,13.6-0.3,18.6c4.9,4.7,13.3,4.7,18.1-0.1c4.9-4.8,4.9-13,0.1-18
				C1773.5,250.1,1765.9,249.9,1760.7,254.8z"/>
			<path class="st6" d="M1759.8,696.7c-4.7,5.1-4.4,13.3,0.6,18c5,4.6,13.4,4.4,18.1-0.4c4.8-5,4.7-13-0.3-18
				C1772.9,690.9,1765,691.1,1759.8,696.7z"/>
			<path class="st6" d="M1760.4,310.5c-5.2,5-5.1,13.6,0.2,18.6c5.2,4.9,12.8,4.8,17.9-0.4c4.9-5,4.9-13.1,0-18
				C1773.7,305.9,1765.3,305.9,1760.4,310.5z"/>
			<path class="st6" d="M1760.1,860.8c-4.9,4.9-4.9,13,0,18c5,5.2,12.6,5.4,17.9,0.5c5.4-5.1,5.5-13.6,0.3-18.6
				C1773.4,855.9,1764.9,856,1760.1,860.8z"/>
			<path class="st6" d="M1760.3,640.1c-5.2,5-5.1,13.6,0.3,18.6c5.2,4.9,12.8,4.7,17.9-0.5c4.9-5,4.9-13.1,0-18
				C1773.6,635.5,1765.2,635.4,1760.3,640.1z"/>
			<path class="st6" d="M1760.2,365.2c-5.2,5.1-4.9,13.6,0.5,18.6c5.3,4.9,12.8,4.6,17.8-0.7c4.8-5.1,4.7-13.2-0.2-18
				C1773.5,360.4,1765.1,360.4,1760.2,365.2z"/>
			<path class="st6" d="M1759.9,476.2c-4.7,5.1-4.4,13.3,0.6,18c5,4.6,13.4,4.4,18.1-0.4c4.8-4.9,4.7-13-0.2-18
				C1773,470.3,1765,470.5,1759.9,476.2z"/>
			<path class="st6" d="M1760.7,750.3c-5.5,5-5.7,13.5-0.6,18.6c4.8,4.8,13.2,4.8,18.1,0.1c5-4.8,5.1-12.9,0.3-18
				C1773.6,745.7,1766,745.4,1760.7,750.3z"/>
			<path class="st6" d="M1760,585.9c-5.1,5.2-4.7,13.7,0.9,18.6c5.4,4.8,12.9,4.4,17.8-1c4.7-5.1,4.5-13.3-0.6-18
				C1773.2,580.9,1764.8,581,1760,585.9z"/>
			<path class="st6" d="M1778.9,164c4.5-4.2,4.9-11.4,1.6-16.5c-7.7,3-15.4,6.2-22.9,9.7c0.5,2.2,1.4,4.4,3.2,6.3
				C1765.8,168.4,1773.8,168.7,1778.9,164z"/>
			<path class="st6" d="M1778.9,438.9c4.6-5.2,4.2-13.2-0.9-18c-5.2-4.9-12.8-4.7-17.9,0.5c-4.9,5-4.9,13.1,0,18
				C1765.2,444.4,1774.2,444.2,1778.9,438.9z"/>
			<path class="st6" d="M1815.7,916c-5.2,5-5.4,12.7-0.5,17.8c4.8,5,13,5.3,18,0.6c4.9-4.6,5.1-13.2,0.4-18.1
				C1829,911.3,1820.8,911.2,1815.7,916z"/>
			<path class="st6" d="M1804.9,796.8c5.2-4.3,5.9-12.8,1.3-18c-4.8-5.5-12.5-6.2-17.9-1.5c-5.4,4.7-6.1,12.6-1.6,18
				C1791,800.5,1799.6,801.2,1804.9,796.8z"/>
			<path class="st6" d="M1815.1,750.5c-5.1,4.8-5.4,13-0.7,18c4.5,4.9,13.2,5.2,18.1,0.6c5-4.6,5.2-12.9,0.4-18
				C1828,745.9,1820.3,745.6,1815.1,750.5z"/>
			<path class="st6" d="M1833.4,640.9c-4.9-4.8-13.1-4.6-18,0.4c-5,5.1-4.9,12.8,0.2,17.8c5,4.9,13.2,4.8,18-0.1
				C1838.3,654.2,1838.2,645.6,1833.4,640.9z"/>
			<path class="st6" d="M1788,668.6c-5,5.2-4.8,12.9,0.5,17.9c5.1,4.8,13.4,4.7,18.1-0.4c4.6-5,4.4-13.6-0.5-18.2
				C1801,663.2,1792.8,663.5,1788,668.6z"/>
			<path class="st6" d="M1787.6,833.4c-5,4.8-5.1,13-0.2,18.1c5.1,5.2,12.7,5.4,17.9,0.3c5.1-4.9,5.3-13.1,0.5-18.1
				C1801.1,828.9,1792.5,828.7,1787.6,833.4z"/>
			<path class="st6" d="M1832.9,603.7c4.9-5,4.8-13.3-0.2-18c-4.9-4.7-13.5-4.5-18.1,0.3c-4.8,5-4.6,13.1,0.5,18
				C1820.2,609,1827.8,608.9,1832.9,603.7z"/>
			<path class="st6" d="M1787.1,613.3c-4.7,5.1-4.4,13.3,0.7,18.1c5.2,5,12.9,4.7,17.9-0.6c4.8-5.1,4.6-13.4-0.4-18.1
				C1800.3,608.1,1791.7,608.4,1787.1,613.3z"/>
			<path class="st6" d="M1815.1,806c-4.6,4.9-4.4,13.5,0.4,18.1c5,4.7,13.2,4.4,18-0.6c5-5.2,4.8-12.9-0.4-17.8
				C1828,800.9,1819.8,801,1815.1,806z"/>
			<path class="st6" d="M1787.7,723.4c-5,4.9-5.2,13.1-0.4,18.1c4.7,4.9,13.3,5,18.2,0.3c5-4.8,5-13,0.1-18.1
				C1800.6,718.5,1792.9,718.3,1787.7,723.4z"/>
			<path class="st6" d="M1833.5,695.5c-4.8-4.8-13.1-4.8-18,0.2c-5.1,5.1-5.1,12.8,0,17.8c4.9,4.9,13.2,5,18,0.1
				C1838.3,708.8,1838.3,700.3,1833.5,695.5z"/>
			<path class="st6" d="M1815.3,530.7c-4.8,4.8-4.8,13.4,0,18.1c4.8,4.9,13.1,4.8,18-0.1c5.1-5.1,5.1-12.8,0-17.8
				C1828.4,526,1820.2,525.9,1815.3,530.7z"/>
			<path class="st6" d="M1805.6,576.5c4.9-5,4.9-13.3-0.1-18.1c-4.9-4.7-13.5-4.6-18.2,0.2c-4.8,5-4.6,13.2,0.4,18.1
				C1792.9,581.8,1800.5,581.7,1805.6,576.5z"/>
			<path class="st6" d="M1787.6,887.9c-5,4.8-5.1,13-0.2,18.1c5.1,5.2,12.7,5.4,17.9,0.3c5.1-4.9,5.3-13.1,0.5-18.1
				C1801.1,883.3,1792.5,883.2,1787.6,887.9z"/>
			<path class="st6" d="M1832.7,878.8c4.9-5,4.9-13.2,0-18c-4.8-4.7-13.4-4.7-18.1,0.1c-4.8,4.9-4.7,13.1,0.3,18
				C1820,884,1827.7,883.9,1832.7,878.8z"/>
			<path class="st6" d="M1832.6,494c5-4.7,5.1-12.9,0.3-18c-5-5.2-12.7-5.4-17.8-0.5c-5,4.8-5.3,13-0.6,18
				C1819.1,498.4,1827.7,498.6,1832.6,494z"/>
			<path class="st6" d="M1805.9,520.9c4.8-5,4.5-13.2-0.6-18.1c-5.2-5-12.9-4.8-17.9,0.4c-4.9,5.1-4.7,13.4,0.3,18.1
				C1792.6,526,1801.3,525.8,1805.9,520.9z"/>
			<path class="st6" d="M1788.3,282.7c-4.9,4.6-5.1,13.3-0.4,18.2c4.7,5,13,5.2,18.1,0.3c5.3-5,5.5-12.7,0.5-17.9
				C1801.5,278.2,1793.3,277.9,1788.3,282.7z"/>
			<path class="st6" d="M1815.7,255.4c-4.9,4.6-5.1,13.2-0.5,18.1c4.6,5,12.9,5.2,18,0.4c5.2-5,5.5-12.7,0.6-17.8
				C1828.9,251.1,1820.7,250.7,1815.7,255.4z"/>
			<path class="st6" d="M1833.4,384.2c4.8-4.7,4.9-13.3,0.2-18.1c-4.8-4.9-13-5-18-0.1c-5.1,5-5.3,12.7-0.2,17.8
				C1820.3,388.8,1828.5,389,1833.4,384.2z"/>
			<path class="st6" d="M1788.2,393.4c-5.1,5.2-5,12.8,0.2,17.9c5,4.9,13.3,4.9,18.1-0.1c4.7-4.9,4.6-13.5-0.2-18.2
				C1801.3,388.2,1793.1,388.4,1788.2,393.4z"/>
			<path class="st6" d="M1805.7,356c4.9-5,4.9-13.3-0.1-18.1c-4.9-4.7-13.5-4.6-18.2,0.2c-4.8,5-4.6,13.2,0.4,18.1
				C1792.9,361.3,1800.6,361.2,1805.7,356z"/>
			<path class="st6" d="M1815.2,310.4c-4.6,4.9-4.4,13.5,0.4,18.1c5,4.7,13.2,4.4,18-0.6c5-5.2,4.8-12.9-0.4-17.8
				C1828.1,305.3,1819.8,305.4,1815.2,310.4z"/>
			<path class="st6" d="M1806.2,191.1c4.9-4.7,5.1-13.3,0.4-18.2c-4.7-5-13-5.1-18.1-0.2c-5.3,5.1-5.4,12.7-0.4,17.9
				C1793,195.6,1801.2,195.8,1806.2,191.1z"/>
			<path class="st6" d="M1833.7,163.5c4.7-4.9,4.6-13.4-0.2-18.1c-4.9-4.8-13.1-4.6-18,0.3c-5,5.1-4.9,12.8,0.2,17.8
				C1820.7,168.4,1828.9,168.4,1833.7,163.5z"/>
			<path class="st6" d="M1833.5,438.7c4.8-4.7,4.8-13.3,0.1-18.1c-4.8-4.9-13-4.9-18,0.1c-5.1,5.1-5.2,12.7-0.1,17.8
				C1820.4,443.4,1828.6,443.5,1833.5,438.7z"/>
			<path class="st6" d="M1805.7,466.6c4.9-4.9,4.8-13.1-0.1-18.1c-5.1-5.1-12.8-5.2-17.9,0c-5,5-5.1,13.2-0.2,18.1
				C1792.2,471.4,1800.9,471.4,1805.7,466.6z"/>
			<path class="st6" d="M1833.3,218.3c4.9-4.6,5.1-13.2,0.5-18.1c-4.6-5-12.9-5.2-18-0.4c-5.2,5-5.5,12.7-0.6,17.8
				C1820.1,222.7,1828.3,223,1833.3,218.3z"/>
			<path class="st6" d="M1804.9,246.8c5.2-4.3,5.9-12.8,1.3-18c-4.8-5.5-12.5-6.2-17.9-1.5c-5.4,4.7-6.1,12.6-1.6,18
				C1791.1,250.4,1799.6,251.1,1804.9,246.8z"/>
			<path class="st6" d="M1860.8,190.7c4.8-4.9,4.6-13.6-0.3-18.2c-5-4.7-13.3-4.4-18.1,0.8c-4.6,5-4.5,12.4,0.3,17.3
				C1847.7,195.6,1856,195.6,1860.8,190.7z"/>
			<path class="st6" d="M1887.8,163.5c4.9-4.8,4.9-13.3,0-18.1c-4.9-4.8-13.1-4.7-18,0.4c-4.9,5.1-4.6,13,0.6,17.8
				C1875.4,168.2,1883.2,168.1,1887.8,163.5z"/>
			<path class="st6" d="M1842.5,778.7c-4.8,4.9-4.6,13.6,0.4,18.2c4.8,4.5,12.6,4.4,17.4-0.2c5.2-5,5.3-12.8,0.3-17.9
				C1855.6,773.8,1847.3,773.7,1842.5,778.7z"/>
			<path class="st6" d="M1870.1,769.5c4.7,4.5,12.5,4.5,17.3-0.1c5.2-4.9,5.3-12.7,0.4-17.8c-4.9-5-13.1-5.1-17.9-0.2
				C1865.1,756.3,1865.2,764.8,1870.1,769.5z"/>
			<path class="st6" d="M1860.7,136.4c3.1-3,4-7.6,3.2-11.8c-8.3,1.4-16.4,3-24.5,4.9c0.4,2.3,1.5,4.6,3.3,6.4
				C1847.4,141,1855.7,141.2,1860.7,136.4z"/>
			<path class="st6" d="M1859.3,302c5.7-4.5,6.7-12.3,2.2-17.8c-4.5-5.5-12.4-6.4-17.9-2c-5.3,4.2-6,12.8-1.6,18.1
				C1846.1,305.3,1854.2,306.1,1859.3,302z"/>
			<path class="st6" d="M1870.5,255.3c-4.5,4.7-4.5,12.5,0,17.3c4.9,5.2,12.7,5.4,17.8,0.4c5-4.9,5.1-13.1,0.2-17.9
				C1883.7,250.3,1875.2,250.4,1870.5,255.3z"/>
			<path class="st6" d="M1870.9,475.5c-5,4.7-5.1,13-0.2,17.9c5,5.1,12.8,5,17.8-0.1c4.9-5,4.8-13.2-0.3-17.9
				C1883.5,471,1875.6,471,1870.9,475.5z"/>
			<path class="st6" d="M1843,503.2c-5,4.6-5.2,13.3-0.5,18.2c4.8,5,13.1,5,18,0c5.1-5.1,5-12.9-0.2-17.9
				C1855.6,498.9,1847.8,498.8,1843,503.2z"/>
			<path class="st6" d="M1860.8,631.7c4.8-4.9,4.6-13.6-0.4-18.2c-5.1-4.7-13.3-4.3-18.1,0.8c-4.6,5-4.5,12.4,0.4,17.3
				C1847.7,636.6,1856,636.7,1860.8,631.7z"/>
			<path class="st6" d="M1887.5,548.9c5.2-4.9,5.3-12.8,0.3-17.8c-4.9-5-13.1-5-17.9-0.1c-4.8,4.9-4.6,13.4,0.3,18.1
				C1875,553.5,1882.7,553.4,1887.5,548.9z"/>
			<path class="st6" d="M1842.3,558.4c-4.4,4.8-4.3,12.8,0.2,17.5c4.8,5,13.1,5,18,0c5.1-5.1,5-12.9-0.2-17.9
				C1855.3,553.1,1847,553.3,1842.3,558.4z"/>
			<path class="st6" d="M1843.1,228.1c-4.7,5-4.4,13.3,0.8,18.1c5,4.6,12.4,4.5,17.3-0.3c5-4.9,5.1-13.2,0.1-18
				C1856.4,223,1847.8,223.1,1843.1,228.1z"/>
			<path class="st6" d="M1870.4,200.9c-4.7,5-4.4,13.2,0.8,17.9c5,4.6,12.4,4.4,17.2-0.3c5-4.9,5-13.1,0.1-17.9
				C1883.6,195.8,1875.1,196,1870.4,200.9z"/>
			<path class="st6" d="M1870.3,586.6c-4.4,4.9-4.3,12.7,0.3,17.3c4.8,4.8,13.3,4.8,18.1-0.1c4.8-5,4.5-13.2-0.6-18
				C1882.9,581,1875.1,581.3,1870.3,586.6z"/>
			<path class="st6" d="M1886.9,714.3c5.3-4.2,6-12.6,1.6-18c-4.1-5-12-5.8-17.2-1.7c-5.6,4.4-6.6,12.3-2.2,17.7
				C1873.5,717.8,1881.5,718.7,1886.9,714.3z"/>
			<path class="st6" d="M1843.4,722.4c-5.4,4.8-5.8,12.6-1,17.9c4.8,5.2,13,5.6,18.1,0.8c4.9-4.6,5.1-13.3,0.3-18.2
				C1856.2,718.2,1848.3,718,1843.4,722.4z"/>
			<path class="st6" d="M1844,337.8c-5.3,4.7-5.7,12.9-1.1,18c4.5,5,13.2,5.3,18.2,0.6c5-4.7,5.1-13,0.1-18
				C1856.5,333.5,1849.1,333.2,1844,337.8z"/>
			<path class="st6" d="M1870.4,311.4c-4.5,4.8-4.5,12.6,0.1,17.3c4.7,4.9,13.2,5,18.1,0.1c4.9-4.9,4.7-13.1-0.3-17.9
				C1883.2,306,1875.3,306.2,1870.4,311.4z"/>
			<path class="st6" d="M1842.3,833.5c-4.4,4.8-4.3,12.9,0.3,17.5c4.8,5,13.1,4.9,18-0.1c5.1-5.1,4.9-12.9-0.3-17.9
				C1855.2,828.1,1846.9,828.4,1842.3,833.5z"/>
			<path class="st6" d="M1887.2,824.1c5.3-4.8,5.6-12.7,0.8-17.8c-4.8-5.1-13-5.4-18-0.6c-4.9,4.7-5,13.2-0.1,18.1
				C1874.6,828.4,1882.3,828.6,1887.2,824.1z"/>
			<path class="st6" d="M1860.6,668.2c-5-4.8-13.2-4.5-18.1,0.6c-4.9,5.2-4.6,13,0.8,17.9c4.9,4.5,12.8,4.3,17.4-0.3
				C1865.5,681.5,1865.4,672.9,1860.6,668.2z"/>
			<path class="st6" d="M1887.8,659.1c4.9-4.8,4.9-13.3,0-18.1c-4.6-4.6-12.4-4.7-17.3-0.2c-5.3,4.8-5.6,12.7-0.7,17.8
				C1874.6,663.7,1882.8,663.9,1887.8,659.1z"/>
			<path class="st6" d="M1887.8,438.6c4.9-4.8,4.9-13.3,0.1-18.1c-4.6-4.6-12.4-4.7-17.3-0.2c-5.3,4.8-5.6,12.7-0.7,17.8
				C1874.6,443.2,1882.9,443.4,1887.8,438.6z"/>
			<path class="st6" d="M1860.5,466c4.9-4.6,5.1-13.3,0.3-18.2c-4.8-4.9-13.1-4.9-18,0.2c-4.8,4.9-4.9,12.3-0.3,17.3
				C1847.2,470.4,1855.5,470.8,1860.5,466z"/>
			<path class="st6" d="M1860.5,411.5c4.9-4.7,5.1-13.3,0.3-18.2c-4.6-4.7-12.5-4.9-17.4-0.5c-5.4,4.8-5.8,12.6-0.9,17.9
				C1847.2,415.9,1855.5,416.3,1860.5,411.5z"/>
			<path class="st6" d="M1871.1,365.3c-5.1,4.8-5.4,13-0.6,18c4.7,4.9,13.2,5,18.1,0.1c4.9-4.9,4.7-13.1-0.3-17.9
				C1883.4,360.7,1876,360.6,1871.1,365.3z"/>
			<path class="st6" d="M1842.4,889.4c-4.6,5-4.5,12.4,0.3,17.3c4.9,5,13.2,5.1,18.1,0.2c4.8-4.9,4.6-13.5-0.3-18.2
				C1855.4,883.9,1847.2,884.2,1842.4,889.4z"/>
			<path class="st6" d="M1870.8,861.1c-5,4.9-5,13.1-0.1,17.9c4.9,4.8,13.4,4.6,18.1-0.4c4.7-5,4.3-13.2-0.8-18
				C1883,856.2,1875.6,856.3,1870.8,861.1z"/>
			<path class="st6" d="M1869.9,916.4c-4.7,4.8-4.8,12.3-0.2,17.2c4.8,5.1,13,5.4,18,0.6c4.9-4.7,5-13.2,0.2-18.1
				C1883,911.3,1874.8,911.4,1869.9,916.4z"/>
			<path class="st6" d="M1897.9,393c-4.7,4.8-4.8,12.5-0.2,17.4c4.8,5,13.3,5.1,18.1,0.1c4.6-4.8,4.6-12.5,0-17.3
				C1910.9,387.9,1902.9,387.9,1897.9,393z"/>
			<path class="st6" d="M1898,888.4c-4.7,4.7-4.9,12.5-0.4,17.3c4.7,5.1,13.2,5.2,18.1,0.3c4.7-4.7,4.8-12.5,0.2-17.3
				C1911,883.5,1903,883.4,1898,888.4z"/>
			<path class="st6" d="M1897.9,135.4c4.8,5,13.3,4.9,18.1-0.1c4.3-4.5,4.2-11.3,0.6-16.1c-6.8,0.3-13.5,0.7-20.2,1.3
				C1893.6,125.2,1894,131.3,1897.9,135.4z"/>
			<path class="st6" d="M1898.3,448.2c-5.2,4.7-5.3,13-0.3,18c4.8,4.8,12.3,5,17.3,0.4c5.2-4.8,5.4-13,0.5-18
				C1911.1,443.9,1903.2,443.7,1898.3,448.2z"/>
			<path class="st6" d="M1897.6,613.8c-4.5,4.9-4.3,12.7,0.4,17.3c5,4.9,13.4,4.6,18-0.5c4.5-5,4.2-12.7-0.6-17.3
				C1910.4,608.3,1902.4,608.6,1897.6,613.8z"/>
			<path class="st6" d="M1898.1,558.8c-4.8,4.7-5.1,12.4-0.6,17.3c4.6,5.1,13.1,5.4,18,0.5c4.8-4.6,5-12.4,0.5-17.3
				C1911.2,554.1,1903.2,553.8,1898.1,558.8z"/>
			<path class="st6" d="M1898,669c-4.7,4.7-4.9,12.4-0.4,17.3c4.8,5.2,12.8,5.4,17.9,0.4c4.8-4.7,5-12.4,0.5-17.3
				C1911.4,664.4,1902.9,664.2,1898,669z"/>
			<path class="st6" d="M1898,338.4c-4.7,4.8-4.8,12.5-0.3,17.4c4.7,5,13.2,5.1,18.1,0.2c4.6-4.7,4.7-12.5,0.1-17.3
				C1911,333.4,1903,333.4,1898,338.4z"/>
			<path class="st6" d="M1897.7,834.2c-4.6,4.9-4.5,12.6,0.2,17.3c4.9,4.9,13.4,4.8,18.1-0.3c4.5-4.9,4.4-12.6-0.4-17.3
				C1910.5,828.9,1902.6,829,1897.7,834.2z"/>
			<path class="st6" d="M1898.4,723.2c-5.2,4.7-5.4,12.9-0.5,18c4.8,4.8,12.3,5.1,17.3,0.5c5.2-4.7,5.5-13,0.6-18
				C1911.2,719,1903.3,718.7,1898.4,723.2z"/>
			<path class="st6" d="M1897.9,284.1c-4.6,4.8-4.6,12.6,0,17.3c4.8,5,13.3,4.9,18.1-0.1c4.6-4.8,4.5-12.6-0.2-17.3
				C1910.8,278.9,1902.8,278.9,1897.9,284.1z"/>
			<path class="st6" d="M1914.2,797.1c5.4-4.6,6-12.6,1.2-17.9c-4.5-5-12.1-5.5-17.3-1.2c-5.3,4.4-5.9,12.8-1.2,18
				C1901.3,800.9,1909.1,801.4,1914.2,797.1z"/>
			<path class="st6" d="M1898.3,173.3c-4.8,4.5-5.2,12.3-0.8,17.3c4.7,5.3,12.8,5.7,17.9,0.8c5.1-4.8,5.2-13.1,0.3-18
				C1911,168.8,1903.1,168.7,1898.3,173.3z"/>
			<path class="st6" d="M1915.2,521.1c5.2-4.7,5.5-13,0.6-18c-4.6-4.7-12.5-4.9-17.4-0.5c-5.2,4.7-5.4,12.9-0.5,18
				C1902.7,525.4,1910.2,525.7,1915.2,521.1z"/>
			<path class="st6" d="M1915.6,245.8c4.8-4.7,5-12.4,0.6-17.3c-4.6-5.1-13.1-5.4-18-0.5c-4.8,4.6-5,12.4-0.4,17.3
				C1902.5,250.5,1910.5,250.7,1915.6,245.8z"/>
			<path class="st6" d="M1925.6,641.9c-4.5,5-4.2,12.6,0.8,17.2c4.9,4.6,12.6,4.3,17.3-0.5c4.6-4.8,4.5-12.6-0.2-17.3
				C1938.4,636.3,1930.3,636.6,1925.6,641.9z"/>
			<path class="st6" d="M1942.9,603.5c4.7-4.8,4.7-12.5,0-17.3c-4.7-4.7-12.4-4.9-17.3-0.3c-5.1,4.9-5.1,13,0.1,17.9
				C1930.6,608.5,1938.2,608.4,1942.9,603.5z"/>
			<path class="st6" d="M1943,878.4c4.6-4.9,4.5-12.6-0.3-17.3c-4.8-4.7-12.5-4.7-17.3,0c-5.1,4.9-4.9,13.1,0.3,17.9
				C1930.7,883.6,1938.3,883.3,1943,878.4z"/>
			<path class="st6" d="M1926.3,530.8c-5.1,4.8-5.1,13-0.1,17.9c4.9,4.6,12.5,4.5,17.2-0.3c4.8-4.8,4.8-12.4,0.1-17.2
				C1938.8,526.4,1931.1,526.2,1926.3,530.8z"/>
			<path class="st6" d="M1942.5,218.7c5-4.5,5.3-12.2,0.9-17.2c-4.5-5.1-12.1-5.6-17.2-1.2c-5.1,4.4-5.8,12-1.5,17.2
				C1929,222.9,1937.3,223.5,1942.5,218.7z"/>
			<path class="st6" d="M1942.7,328.6c4.8-4.7,4.9-12.4,0.3-17.2c-4.9-5.1-13.1-5.1-17.9,0c-4.6,4.9-4.4,12.5,0.4,17.2
				C1930.3,333.4,1937.9,333.4,1942.7,328.6z"/>
			<path class="st6" d="M1925.8,750.6c-5,4.5-5.4,12.2-1,17.2c4.6,5.3,12.9,5.6,17.9,0.7c4.8-4.7,5-12.4,0.4-17.3
				C1938.4,746.3,1930.8,746,1925.8,750.6z"/>
			<path class="st6" d="M1943,823.9c4.6-4.9,4.5-12.6-0.3-17.3c-4.8-4.7-12.5-4.7-17.3,0c-5.1,4.9-4.9,13.1,0.3,17.9
				C1930.7,829.1,1938.3,828.8,1943,823.9z"/>
			<path class="st6" d="M1926.3,366c-4.9,4.6-5.3,12.2-0.7,17.2c4.8,5.3,12.9,5.5,17.9,0.5c4.7-4.7,4.7-12.5,0.1-17.3
				C1939,361.6,1931.2,361.5,1926.3,366z"/>
			<path class="st6" d="M1925.6,146.3c-4.5,5-4.2,12.6,0.8,17.2c4.9,4.6,12.6,4.3,17.3-0.5c4.6-4.8,4.5-12.6-0.2-17.3
				C1938.5,140.8,1930.4,141,1925.6,146.3z"/>
			<path class="st6" d="M1943,713.7c4.6-4.9,4.4-12.5-0.4-17.2c-4.8-4.7-12.4-4.7-17.2,0c-4.8,4.7-4.9,12.4-0.3,17.2
				C1930,718.8,1938.2,718.8,1943,713.7z"/>
			<path class="st6" d="M1926.3,916.1c-4.9,4.6-5.3,12.2-0.7,17.2c4.8,5.3,12.9,5.5,17.9,0.5c4.7-4.7,4.8-12.5,0.1-17.3
				C1938.9,911.7,1931.2,911.5,1926.3,916.1z"/>
			<path class="st6" d="M1943,493.2c4.6-4.9,4.5-12.5-0.3-17.2c-4.8-4.8-12.4-4.8-17.2,0c-5.1,5-5,13.1,0.3,17.9
				C1930.7,498.3,1938.4,498,1943,493.2z"/>
			<path class="st6" d="M1926.5,255.5c-5.2,4.7-5.5,12.9-0.5,17.9c4.7,4.8,12.4,4.8,17.3,0.2c4.9-4.7,5.1-12.3,0.5-17.2
				C1939.2,251.5,1931.5,251.1,1926.5,255.5z"/>
			<path class="st6" d="M1943.2,438.5c4.9-4.6,5.2-12.3,0.7-17.3c-4.7-5.3-12.9-5.4-17.9-0.4c-4.8,4.8-4.8,12.4-0.1,17.2
				C1930.6,442.9,1938.3,443.1,1943.2,438.5z"/>
			<path class="st6" d="M1953.2,778.9c-4.7,4.7-4.7,12.6,0,17.3c4.7,4.8,12.4,4.8,17.3-0.1c4.9-4.8,4.9-12.4,0-17.2
				C1965.7,774.2,1958,774.1,1953.2,778.9z"/>
			<path class="st6" d="M1953.2,668.9c-4.7,4.9-4.6,12.5,0.4,17.2c4.9,4.7,12.7,4.5,17.3-0.4c4.6-4.8,4.4-12.7-0.4-17.3
				C1965.5,663.8,1957.9,664,1953.2,668.9z"/>
			<path class="st6" d="M1953.1,448.4c-4.7,5-4.5,12.5,0.5,17.2c5,4.6,12.7,4.4,17.3-0.5c4.5-4.9,4.3-12.8-0.6-17.3
				C1965.5,443.2,1957.8,443.5,1953.1,448.4z"/>
			<path class="st6" d="M1953.3,283.3c-4.7,4.7-4.7,12.6,0,17.3c4.7,4.8,12.4,4.8,17.3,0c4.9-4.8,4.9-12.4,0-17.2
				C1965.8,278.6,1958.1,278.6,1953.3,283.3z"/>
			<path class="st6" d="M1969.7,741.4c4.9-4.6,5.1-12.4,0.4-17.3c-4.7-5-12.3-5.2-17.2-0.4c-5,4.7-5.2,12.4-0.5,17.3
				C1957,745.7,1964.9,745.9,1969.7,741.4z"/>
			<path class="st6" d="M1953.4,339.2c-4.9,4.8-4.8,12.4,0,17.2c4.8,4.8,12.5,4.8,17.3,0c4.7-4.7,4.7-12.6,0-17.3
				C1965.9,334.3,1958.2,334.4,1953.4,339.2z"/>
			<path class="st6" d="M1953.4,889.1c-4.9,4.8-5,12.3-0.2,17.2c4.8,4.9,12.5,5,17.3,0.3c4.8-4.7,4.8-12.6,0.2-17.3
				C1966,884.5,1958.3,884.4,1953.4,889.1z"/>
			<path class="st6" d="M1953.3,135.8c4.8,4.9,12.5,5,17.3,0.3c4.2-4.1,4.5-10.6,1.4-15.4c-6.3-0.6-12.6-1.1-19-1.3
				C1948.8,124.1,1948.8,131.1,1953.3,135.8z"/>
			<path class="st6" d="M1953.3,173.3c-4.8,4.9-4.7,12.5,0.2,17.2c4.9,4.7,12.6,4.6,17.3-0.2c4.6-4.8,4.5-12.7-0.3-17.3
				C1965.7,168.2,1958.1,168.4,1953.3,173.3z"/>
			<path class="st6" d="M1953,229.1c-4.5,4.9-4.3,12.8,0.6,17.3c4.9,4.6,12.5,4.3,17.3-0.7c4.7-5,4.5-12.5-0.6-17.2
				C1965.3,224,1957.6,224.2,1953,229.1z"/>
			<path class="st6" d="M1953.4,393.6c-4.9,4.8-4.9,12.4,0,17.2c4.8,4.8,12.5,4.9,17.3,0.1c4.7-4.7,4.7-12.6,0-17.3
				C1966,388.8,1958.3,388.9,1953.4,393.6z"/>
			<path class="st6" d="M1953.2,614.4c-4.8,4.9-4.7,12.5,0.3,17.2c4.9,4.7,12.6,4.6,17.3-0.2c4.6-4.8,4.5-12.7-0.3-17.3
				C1965.7,609.3,1958,609.5,1953.2,614.4z"/>
			<path class="st6" d="M1970.8,575.4c4.7-5,4.5-12.5-0.5-17.2c-4.9-4.7-12.7-4.5-17.3,0.5c-4.5,4.9-4.3,12.8,0.5,17.3
				C1958.4,580.6,1966,580.4,1970.8,575.4z"/>
			<path class="st6" d="M1953,504.1c-4.6,4.8-4.3,12.8,0.5,17.3c4.9,4.7,12.5,4.4,17.3-0.5c4.7-4.9,4.5-12.5-0.4-17.2
				C1965.4,499,1957.6,499.2,1953,504.1z"/>
			<path class="st6" d="M1969.1,852c5.2-4.4,5.9-12.1,1.7-17.2c-4.2-5.1-12.1-5.8-17.3-1.5c-5.2,4.3-5.9,12-1.5,17.2
				C1956.4,855.7,1963.9,856.4,1969.1,852z"/>
			<path class="st6" d="M1980.9,916.3c-5,4.7-5.2,12.1-0.5,17.1c4.7,5,12.3,5.2,17.2,0.6c4.8-4.5,5-12.5,0.5-17.3
				C1993.5,911.8,1985.8,911.6,1980.9,916.3z"/>
			<path class="st6" d="M2007.6,889.7c-4.5,4.8-4.4,11.7,0.2,16.5c4.8,4.9,12.5,5,17.2,0.2c4.6-4.7,4.5-12.8-0.2-17.3
				C2020,884.4,2012.4,884.7,2007.6,889.7z"/>
			<path class="st6" d="M2008.2,834.7c-4.3,4.8-4.2,12,0.3,16.6c4.7,4.7,12.7,4.6,17.3-0.1c4.7-4.8,4.5-12.5-0.5-17.2
				C2020.2,829.2,2012.9,829.6,2008.2,834.7z"/>
			<path class="st6" d="M1980.8,861.9c-4.9,4.8-5,12.2-0.3,17.1c4.8,4.9,12.4,5,17.2,0.3c4.7-4.6,4.8-12.5,0.3-17.3
				C1993.3,857.3,1985.6,857.2,1980.8,861.9z"/>
			<path class="st6" d="M2008.2,778.6c-4.9,4.4-5.2,12.5-0.7,17.3c4.6,4.9,12.3,5,17.2,0.3c5-4.9,5-12.3,0-17.1
				C2020.2,774.5,2013,774.3,2008.2,778.6z"/>
			<path class="st6" d="M1997.9,823.1c4.7-5,4.5-12.4-0.5-17.1c-4.9-4.6-12.6-4.5-17.2,0.4c-4.5,4.8-4.3,12.7,0.5,17.3
				C1985.6,828.3,1993.2,828.1,1997.9,823.1z"/>
			<path class="st6" d="M2025.5,723.6c-4.8-4.5-12.9-4.2-17.3,0.6c-4.3,4.7-4.2,11.9,0.4,16.6c4.8,5,12.2,5,17.1,0.1
				C2030.4,736,2030.3,728.2,2025.5,723.6z"/>
			<path class="st6" d="M1980.5,751.7c-4.7,4.7-4.7,12.6,0,17.3c4.7,4.8,12.3,4.7,17.2,0c4.9-4.8,4.9-12.3,0-17.1
				C1992.9,747,1985.2,746.9,1980.5,751.7z"/>
			<path class="st6" d="M2025.1,685.9c4.6-4.7,4.5-12.8-0.2-17.3c-4.9-4.7-12.5-4.4-17.2,0.7c-4.5,4.8-4.4,11.7,0.2,16.4
				C2012.7,690.6,2020.3,690.7,2025.1,685.9z"/>
			<path class="st6" d="M1980.5,696.2c-4.8,4.9-4.6,12.4,0.4,17.1c4.9,4.7,12.6,4.5,17.2-0.3c4.5-4.8,4.4-12.7-0.4-17.3
				C1992.8,691.1,1985.3,691.3,1980.5,696.2z"/>
			<path class="st6" d="M2008.3,614c-4.4,4.7-4.4,12,0,16.6c4.6,4.7,12.6,4.9,17.3,0.2c4.8-4.7,4.7-12.4-0.2-17.2
				C2020.5,608.8,2013.1,608.9,2008.3,614z"/>
			<path class="st6" d="M1997,659.5c5.1-4.2,5.8-12.1,1.6-17.2c-4.2-5.2-11.9-5.9-17.1-1.6c-5.3,4.5-6.1,11.8-1.7,17
				C1984.3,663,1991.9,663.7,1997,659.5z"/>
			<path class="st6" d="M2008.3,559.5c-4.7,5-4.4,12.8,0.6,17.2c4.7,4.2,12.2,4,16.7-0.4c4.8-4.7,4.7-12.4-0.2-17.2
				C2020.5,554.3,2013.1,554.4,2008.3,559.5z"/>
			<path class="st6" d="M1981.3,586.4c-4.8,4.8-4.8,12.5-0.1,17.2c4.7,4.7,12.6,4.6,17.3,0c4.7-4.7,4.7-12.4-0.1-17.2
				C1993.5,581.5,1986.1,581.6,1981.3,586.4z"/>
			<path class="st6" d="M2007.7,394.1c-4.5,4.8-4.5,11.7,0.1,16.5c4.8,5,12.4,5.1,17.2,0.3c4.7-4.7,4.6-12.7-0.1-17.3
				C2020.1,388.8,2012.5,389.1,2007.7,394.1z"/>
			<path class="st6" d="M1998,438c4.6-4.8,4.4-12.7-0.3-17.3c-4.8-4.7-12.4-4.5-17.2,0.4c-4.8,4.9-4.7,12.3,0.3,17.1
				C1985.7,442.9,1993.4,442.8,1998,438z"/>
			<path class="st6" d="M2008.8,338.6c-4.9,4.8-5,12.5-0.2,17.2c4.7,4.6,12.8,4.5,17.3-0.3c4.7-4.9,4.4-12.5-0.7-17.2
				C2020.4,333.9,2013.5,334,2008.8,338.6z"/>
			<path class="st6" d="M1997.7,383.8c4.7-4.6,4.9-12.5,0.4-17.3c-4.6-4.8-12.3-5-17.2-0.3c-5,4.8-5.1,12.2-0.3,17.1
				C1985.3,388.3,1992.9,388.5,1997.7,383.8z"/>
			<path class="st6" d="M2025.6,301.4c4.8-4.7,4.8-12.4-0.1-17.2c-4.9-4.9-12.3-4.8-17.1,0.3c-4.4,4.7-4.5,11.9-0.1,16.6
				C2012.8,305.8,2020.9,306,2025.6,301.4z"/>
			<path class="st6" d="M1981.3,311.4c-4.8,4.8-4.8,12.5-0.1,17.2c4.7,4.6,12.6,4.6,17.3,0c4.7-4.7,4.7-12.4-0.1-17.2
				C1993.6,306.5,1986.1,306.5,1981.3,311.4z"/>
			<path class="st6" d="M2008.4,228.4c-4.7,4.9-4.4,12.5,0.7,17.2c4.8,4.5,11.7,4.4,16.5-0.2c4.9-4.8,5-12.5,0.2-17.2
				C2021,223.6,2012.9,223.7,2008.4,228.4z"/>
			<path class="st6" d="M1997.6,273.4c4.9-4.8,5-12.2,0.2-17.1c-4.8-4.9-12.4-5-17.2-0.3c-4.7,4.6-4.8,12.5-0.2,17.3
				C1985.1,278.1,1992.8,278.1,1997.6,273.4z"/>
			<path class="st6" d="M2025.6,190.8c4.8-4.8,4.8-12.6,0-17.2c-4.8-4.6-12.9-4.3-17.3,0.5c-4.3,4.7-4.2,11.9,0.3,16.6
				C2013.3,195.6,2020.7,195.7,2025.6,190.8z"/>
			<path class="st6" d="M1981.2,201c-4.7,4.7-4.7,12.4,0.1,17.2c4.9,4.9,12.3,4.8,17.1,0c4.8-4.8,4.8-12.5,0.1-17.2
				C1993.8,196.3,1985.9,196.3,1981.2,201z"/>
			<path class="st6" d="M2008.2,134.8c4.4,4.8,12.5,5.1,17.3,0.6c1.7-1.6,2.6-3.6,3.1-5.7c-7.7-1.8-15.5-3.4-23.3-4.7
				C2004.8,128.5,2005.6,132,2008.2,134.8z"/>
			<path class="st6" d="M1997.9,163.2c4.7-4.7,4.7-12.6,0.1-17.3c-4.7-4.8-12.3-4.8-17.2,0c-4.9,4.8-4.9,12.2-0.1,17.1
				C1985.5,167.8,1993.1,167.9,1997.9,163.2z"/>
			<path class="st6" d="M2008.2,503.6c-4.3,4.7-4.2,11.9,0.2,16.6c4.8,5,12.2,5.1,17.1,0.2c4.8-4.8,4.8-12.6,0-17.2
				C2020.8,498.6,2012.7,498.8,2008.2,503.6z"/>
			<path class="st6" d="M1997.5,548.6c5-4.7,5.2-12.2,0.4-17.1c-4.7-4.9-12.3-5.2-17.2-0.5c-4.8,4.5-5,12.5-0.4,17.3
				C1984.9,553.1,1992.6,553.2,1997.5,548.6z"/>
			<path class="st6" d="M1981.2,476c-4.7,4.7-4.7,12.4,0.2,17.2c4.9,4.8,12.3,4.8,17.1-0.1c4.8-4.8,4.8-12.5,0-17.2
				C1993.7,471.3,1985.8,471.3,1981.2,476z"/>
			<path class="st6" d="M2009.2,448.2c-4.8,4.1-5.5,11.4-1.6,16.5c4.4,5.5,11.7,6.4,17,2.1c5.3-4.4,6.2-12,1.9-17.2
				C2022.3,444.6,2014.2,443.9,2009.2,448.2z"/>
			<path class="st6" d="M2063.8,173.3c-4.3,4.3-4.4,12.1-0.3,16.6c4.4,4.8,12.3,4.9,17.1,0.2c4.7-4.6,4.8-11.6,0.3-16.3
				C2076.2,168.8,2068.4,168.6,2063.8,173.3z"/>
			<path class="st6" d="M2035.8,696.6c-4.7,4.7-4.6,12.4,0.2,17.1c4.7,4.6,11.5,4.7,16.3,0.2c5-4.7,5.3-12.3,0.7-17.1
				C2048.6,692.1,2040.4,692,2035.8,696.6z"/>
			<path class="st6" d="M2063.7,668.8c-4.3,4.3-4.4,12.1-0.3,16.6c4.4,4.8,12.3,4.9,17.1,0.2c4.7-4.6,4.8-11.6,0.3-16.3
				C2076.1,664.3,2068.4,664.1,2063.7,668.8z"/>
			<path class="st6" d="M2052.4,218.3c5-4.7,5.3-12.3,0.7-17.1c-4.5-4.7-12.6-4.8-17.3-0.2c-4.7,4.7-4.6,12.4,0.2,17.1
				C2040.8,222.7,2047.6,222.8,2052.4,218.3z"/>
			<path class="st6" d="M2036.6,145.8c-4.6,4.5-4.7,12.7-0.1,17.3c4.5,4.5,11.7,4.6,16.5,0.3c5.2-4.7,5.5-11.9,0.7-17
				C2049,141.4,2041.4,141.1,2036.6,145.8z"/>
			<path class="st6" d="M2052.9,492.9c4.7-4.8,4.6-12.6-0.3-17.1c-4.8-4.4-12.9-4.1-17.3,0.7c-4.2,4.7-4,11.9,0.5,16.5
				C2040.7,497.9,2048.1,497.9,2052.9,492.9z"/>
			<path class="st6" d="M2080.2,576c4.3-4.6,4.2-11.9-0.2-16.5c-4.6-4.7-11.5-4.9-16.3-0.6c-5,4.6-5.4,12.3-0.7,17.1
				C2067.5,580.7,2075.8,580.6,2080.2,576z"/>
			<path class="st6" d="M2036.2,586.3c-4.9,4.7-5.2,12.4-0.5,17.1c4.6,4.6,12.7,4.6,17.3,0c4.7-4.8,4.5-12.4-0.5-17.1
				C2047.7,581.8,2040.9,581.8,2036.2,586.3z"/>
			<path class="st6" d="M2035.9,750.9c-4.8,4.5-4.8,12.3-0.1,17.1c4.6,4.7,11.5,4.9,16.3,0.5c5.1-4.6,5.5-12.2,1-17.1
				C2048.8,746.7,2040.7,746.4,2035.9,750.9z"/>
			<path class="st6" d="M2052.8,658.1c4.8-4.6,4.7-12.3-0.1-17.1c-4.9-4.9-12.2-4.8-17,0.2c-4.4,4.7-4.5,11.9-0.2,16.5
				C2039.9,662.4,2048.1,662.6,2052.8,658.1z"/>
			<path class="st6" d="M2080.1,630.6c4.7-4.7,4.4-12.5-0.6-17.1c-4.8-4.5-11.7-4.3-16.3,0.4c-4.5,4.6-4.7,11.8-0.4,16.5
				C2067.2,635.1,2075.5,635.2,2080.1,630.6z"/>
			<path class="st6" d="M2081.1,229.3c-4.4-4.8-12.3-4.9-17.1-0.2c-4.7,4.6-4.8,11.6-0.3,16.3c4.7,5,12.4,5.2,17.1,0.5
				C2085.1,241.7,2085.2,233.9,2081.1,229.3z"/>
			<path class="st6" d="M2036.2,256.8c-4.4,4.8-4.3,11.7,0.3,16.3c4.8,4.8,12.5,4.9,17.1,0.1c4.5-4.7,4.4-12.8-0.4-17.3
				C2048.5,251.3,2040.9,251.7,2036.2,256.8z"/>
			<path class="st6" d="M2052.9,328.5c4.7-4.7,4.6-12.4-0.2-17.1c-5-4.8-12.2-4.7-17,0.4c-4.6,4.9-4.3,12.7,0.6,17.1
				C2040.9,333,2048.5,332.8,2052.9,328.5z"/>
			<path class="st6" d="M2064.2,283.4c-4.8,4.5-5.1,11.5-0.7,16.3c4.6,5.1,12.2,5.5,17.1,0.9c4.7-4.4,4.7-12.8,0.1-17.3
				C2076.2,279,2068.8,279,2064.2,283.4z"/>
			<path class="st6" d="M2036.2,806.8c-5,4.7-5.2,12.3-0.6,17.1c4.5,4.6,12.7,4.7,17.3,0.1c4.4-4.5,4.6-11.7,0.3-16.5
				C2048.5,802.4,2041.2,802.1,2036.2,806.8z"/>
			<path class="st6" d="M2063.8,393.8c-4.3,4.3-4.5,12.1-0.3,16.6c4.4,4.9,12.3,4.9,17.1,0.2c4.7-4.6,4.8-11.5,0.3-16.3
				C2076.2,389.3,2068.4,389.1,2063.8,393.8z"/>
			<path class="st6" d="M2035.8,421.5c-4.7,4.7-4.6,12.4,0.3,17.1c4.7,4.6,11.5,4.7,16.3,0.2c5-4.7,5.3-12.3,0.7-17.1
				C2048.6,417.1,2040.4,417,2035.8,421.5z"/>
			<path class="st6" d="M2063.5,779.6c-4.4,4.8-4.2,11.7,0.5,16.3c4.6,4.5,11.9,4.6,16.5,0.3c4.7-4.4,4.8-12.7,0.2-17.3
				C2075.9,774.4,2068.2,774.6,2063.5,779.6z"/>
			<path class="st6" d="M2080,851.2c4.7-4.7,4.5-12.5-0.5-17.1c-4.8-4.5-11.7-4.3-16.3,0.3c-4.5,4.6-4.7,11.8-0.4,16.5
				C2067.1,855.6,2075.5,855.8,2080,851.2z"/>
			<path class="st6" d="M2035.6,861.8c-4.4,4.7-4.4,11.9-0.1,16.5c4.5,4.7,12.6,4.8,17.3,0.3c4.7-4.6,4.7-12.4-0.2-17.1
				C2047.7,856.6,2040.4,856.8,2035.6,861.8z"/>
			<path class="st6" d="M2063.8,504.3c-4.6,4.7-4.6,11.6-0.1,16.3c4.7,4.9,12.5,5,17.1,0.3c4.2-4.4,4.3-12.2,0.1-16.6
				C2076.5,499.5,2068.6,499.5,2063.8,504.3z"/>
			<path class="st6" d="M2052.7,549.2c4.8-4.5,4.8-12.3,0.1-17.1c-4.6-4.7-11.5-4.9-16.3-0.5c-5.1,4.6-5.5,12.2-1,17.1
				C2039.8,553.4,2048,553.7,2052.7,549.2z"/>
			<path class="st6" d="M2079.9,740.7c4.5-4.6,4.6-11.9,0.3-16.5c-4.4-4.7-12.7-4.8-17.3-0.2c-4.7,4.7-4.4,12.5,0.6,17.1
				C2068.4,745.5,2075.3,745.3,2079.9,740.7z"/>
			<path class="st6" d="M2052.9,383c4.7-4.7,4.6-12.4-0.3-17.1c-5-4.8-12.2-4.6-17,0.5c-4.4,4.7-4.4,11.9,0,16.5
				C2040.1,387.5,2048.3,387.5,2052.9,383z"/>
			<path class="st6" d="M2080.1,355.6c4.7-4.7,4.5-12.4-0.5-17.1c-4.8-4.5-11.7-4.4-16.3,0.3c-4.8,4.8-4.7,12.7,0.2,17.1
				C2068,360.1,2075.8,359.9,2080.1,355.6z"/>
			<path class="st6" d="M2063,889.1c-4.4,4.6-4.4,12,0,16.5c4.5,4.6,12.8,4.5,17.3-0.1c4.6-4.9,4.2-12.5-0.9-17.1
				C2074.5,884,2067.5,884.4,2063,889.1z"/>
			<path class="st6" d="M2035.1,916.9c-4.6,4.7-4.6,11.6-0.1,16.3c4.7,5,12.3,5.2,17.1,0.6c4.6-4.5,4.7-12.7,0.1-17.3
				C2047.5,911.8,2039.8,912,2035.1,916.9z"/>
			<path class="st6" d="M2079.9,465.7c4.8-4.8,4.8-12.7,0-17.1c-4.5-4.2-12.3-4.1-16.6,0.2c-4.7,4.6-4.6,12.4,0.4,17.1
				C2068.3,470.5,2075.2,470.4,2079.9,465.7z"/>
			<path class="st6" d="M2091.6,695.5c-4.9,4.1-5.2,12.7-0.7,17.3c4.3,4.5,11.9,4.6,16.6,0.2c4.8-4.5,5.1-11.6,0.7-16.4
				C2103.8,691.9,2096.5,691.4,2091.6,695.5z"/>
			<path class="st6" d="M2107.6,602.9c4.2-4.7,3.9-12.1-0.8-16.5c-4.8-4.5-11.8-4.4-16.4,0.3c-4.5,4.6-4.5,12.1-0.1,16.5
				C2094.9,607.9,2103.3,607.8,2107.6,602.9z"/>
			<path class="st6" d="M2091.7,201.5c-4.4,4.6-4.4,12.1,0,16.6c4.6,4.6,13.1,4.3,17.3-0.5c4.2-4.8,3.8-12.1-1-16.5
				C2103.3,196.6,2096.3,196.8,2091.7,201.5z"/>
			<path class="st6" d="M2091,862.1c-4.6,4.6-4.4,13,0.4,17.3c4.8,4.2,12.1,3.8,16.5-0.9c4.5-4.8,4.3-11.8-0.4-16.4
				C2103,857.7,2095.5,857.7,2091,862.1z"/>
			<path class="st6" d="M2091,641.6c-4.3,4.3-4.3,12.3-0.1,16.7c4.3,4.5,11.9,4.6,16.6,0.3c4.8-4.5,5.1-11.6,0.7-16.4
				C2103.6,637.2,2095.6,636.9,2091,641.6z"/>
			<path class="st6" d="M2091.4,916.3c-4.3,3.9-4.7,10.9-1.4,15.7c7-2.8,14-5.8,20.8-9c-0.4-2.1-1.2-4.1-2.9-5.9
				C2103.5,912.4,2096.1,912,2091.4,916.3z"/>
			<path class="st6" d="M2091.3,163.2c4.6,4.3,12,4.1,16.5-0.5c1.4-1.4,2.2-3.1,2.8-4.8c-7-3.2-14.1-6.3-21.3-9.2
				C2086.9,153.3,2087.4,159.5,2091.3,163.2z"/>
			<path class="st6" d="M2107.6,823.5c4.8-4.4,4.8-12.9,0.1-17.3c-4.6-4.4-12-4.2-16.5,0.4c-4.6,4.7-4.7,11.7-0.1,16.4
				C2095.6,827.6,2103,827.8,2107.6,823.5z"/>
			<path class="st6" d="M2107.8,768.8c4.6-4.5,4.5-13-0.3-17.3c-4.7-4.2-12.1-3.9-16.5,0.8c-4.5,4.8-4.4,11.8,0.3,16.4
				C2095.9,773.2,2103.3,773.2,2107.8,768.8z"/>
			<path class="st6" d="M2091.1,421c-4.6,4.6-4.4,13,0.4,17.3c4.8,4.2,12.1,3.8,16.5-0.9c4.5-4.8,4.3-11.8-0.4-16.4
				C2103,416.6,2095.5,416.6,2091.1,421z"/>
			<path class="st6" d="M2107.7,273.4c4.8-4.4,4.8-12.9,0.1-17.3c-4.6-4.4-12-4.2-16.5,0.4c-4.6,4.7-4.7,11.7-0.1,16.4
				C2095.7,277.5,2103,277.7,2107.7,273.4z"/>
			<path class="st6" d="M2107.7,548.4c4.7-4.5,4.7-12.9-0.1-17.3c-4.6-4.3-12-4.1-16.5,0.5c-4.6,4.7-4.6,11.7,0.1,16.4
				C2095.7,552.6,2103.1,552.8,2107.7,548.4z"/>
			<path class="st6" d="M2107.9,327.7c4.6-4.6,4.5-13-0.4-17.3c-4.7-4.2-12.1-3.9-16.5,0.8c-4.5,4.8-4.4,11.8,0.3,16.4
				C2095.9,332.1,2103.4,332.1,2107.9,327.7z"/>
			<path class="st6" d="M2091,366.6c-4.3,4.4-4.3,12.3-0.1,16.7c4.6,4.8,12.6,4.6,17.2-0.4c4.4-4.8,4.2-11.9-0.6-16.4
				C2102.9,362.1,2095.4,362.2,2091,366.6z"/>
			<path class="st6" d="M2108.1,493.6c4.2-4.4,4.2-12.4-0.1-16.7c-4.7-4.7-12.6-4.5-17.2,0.6c-4.4,4.8-4.1,11.9,0.7,16.4
				C2096.2,498.2,2103.7,498.1,2108.1,493.6z"/>
			<path class="st6" d="M2119.4,724c-4.6,4.4-5,11.7-0.8,16.4c4.3,4.8,12.6,5,17.2,0.3c4.4-4.5,4.3-11.9-0.1-16.4
				C2131.1,719.6,2124.1,719.5,2119.4,724z"/>
			<path class="st6" d="M2135,614.7c-4.5-4.6-11.8-4.8-16.4-0.5c-4.8,4.4-4.8,12.7,0,17.2c4.6,4.3,11.9,4.1,16.4-0.4
				C2139.6,626.3,2139.6,619.3,2135,614.7z"/>
			<path class="st6" d="M2146.3,586.6c-4.5,4.5-4.4,11.9,0.1,16.5c4.6,4.6,11.8,4.6,16.4,0c4.5-4.5,4.6-12,0.1-16.5
				C2158.5,582.2,2150.7,582.2,2146.3,586.6z"/>
			<path class="st6" d="M2162.3,658.1c4.5-4.7,4.4-11.8-0.3-16.4c-4.6-4.4-12.1-4.3-16.5,0.2c-4.3,4.5-4.2,12.3,0.3,16.6
				C2150.4,662.8,2157.8,662.7,2162.3,658.1z"/>
			<path class="st6" d="M2118.3,669c-4.3,4.3-4.3,12.2-0.1,16.6c4.3,4.5,11.8,4.6,16.4,0.3c4.8-4.5,5.1-11.5,0.7-16.3
				C2130.8,664.5,2122.9,664.3,2118.3,669z"/>
			<path class="st6" d="M2118.7,339.1c-4.2,4.7-3.9,12,0.7,16.4c4.7,4.5,11.7,4.4,16.3-0.2c4.5-4.5,4.6-11.9,0.2-16.4
				C2131.3,334.2,2123,334.3,2118.7,339.1z"/>
			<path class="st6" d="M2163,327.9c4.4-4.6,4.3-12.2-0.2-16.5c-4.5-4.3-12.3-4.1-16.6,0.4c-4.4,4.6-4.2,12,0.4,16.5
				C2151.3,332.7,2158.5,332.6,2163,327.9z"/>
			<path class="st6" d="M2146.4,807.1c-4.5,4.4-4.5,11.9,0,16.5c4.6,4.6,11.7,4.7,16.4,0.1c4.6-4.5,4.7-11.9,0.2-16.5
				C2158.6,802.8,2150.8,802.7,2146.4,807.1z"/>
			<path class="st6" d="M2118.9,834.4c-4.4,4.5-4.3,11.9,0.1,16.4c4.6,4.7,11.6,4.8,16.3,0.3c4.6-4.4,5-11.7,0.8-16.4
				C2131.8,829.9,2123.4,829.7,2118.9,834.4z"/>
			<path class="st6" d="M2135.1,300.4c4.3-4.3,4.5-12.1,0.2-16.6c-4.5-4.8-12.5-4.7-17.1,0.2c-4.5,4.7-4.3,11.8,0.4,16.3
				C2123.2,304.8,2130.7,304.8,2135.1,300.4z"/>
			<path class="st6" d="M2146.5,255.9c-4.5,4.5-4.6,12-0.2,16.5c4.4,4.4,12.1,4.5,16.6,0.1c4.5-4.4,4.5-11.9,0-16.5
				C2158.3,251.3,2151.1,251.3,2146.5,255.9z"/>
			<path class="st6" d="M2134.9,521.1c4.7-4.5,4.7-12.8-0.1-17.2c-4.6-4.3-12-4-16.4,0.5c-4.6,4.7-4.5,11.7,0.1,16.3
				C2123,525.2,2130.3,525.4,2134.9,521.1z"/>
			<path class="st6" d="M2146.2,476.7c-4.4,4.6-4.2,12.2,0.3,16.5c4.5,4.3,12.3,4,16.6-0.5c4.3-4.6,4.1-12-0.5-16.4
				C2157.9,471.8,2150.7,472,2146.2,476.7z"/>
			<path class="st6" d="M2134.8,410.7c4.7-4.5,4.9-11.5,0.5-16.3c-4.6-4.9-12.5-5.1-17.1-0.4c-4.2,4.4-4.2,12.2,0.1,16.6
				C2122.7,415,2130.2,415.1,2134.8,410.7z"/>
			<path class="st6" d="M2146.5,365.9c-4.5,4.3-4.6,11.9-0.2,16.5c4.5,4.7,11.7,4.8,16.4,0.3c4.6-4.5,4.8-11.9,0.4-16.5
				C2158.7,361.7,2151,361.6,2146.5,365.9z"/>
			<path class="st6" d="M2162.8,768c4.5-4.4,4.5-11.9,0.1-16.5c-4.6-4.6-11.7-4.7-16.4-0.2c-4.6,4.5-4.7,11.9-0.3,16.5
				C2150.6,772.3,2158.3,772.4,2162.8,768z"/>
			<path class="st6" d="M2118.7,889.1c-4.8,4.3-5,12.6-0.4,17.2c4.5,4.4,11.9,4.3,16.4-0.1c4.7-4.6,4.8-11.6,0.3-16.3
				C2130.7,885.2,2123.4,884.9,2118.7,889.1z"/>
			<path class="st6" d="M2146.3,861.6c-4.5,4.5-4.4,11.9,0.1,16.5c4.6,4.6,11.8,4.6,16.4,0c4.5-4.5,4.6-12,0.1-16.5
				C2158.5,857.3,2150.7,857.2,2146.3,861.6z"/>
			<path class="st6" d="M2134.7,796.3c4.8-4.3,5-12.6,0.3-17.2c-4.5-4.4-11.9-4.3-16.4,0.1c-4.7,4.6-4.8,11.6-0.3,16.3
				C2122.7,800.2,2130,800.5,2134.7,796.3z"/>
			<path class="st6" d="M2146.6,421.8c-4.6,4.5-4.8,11.9-0.4,16.5c4.3,4.5,12.1,4.6,16.6,0.3c4.5-4.4,4.6-11.9,0.2-16.5
				C2158.4,417.4,2151.2,417.3,2146.6,421.8z"/>
			<path class="st6" d="M2146.2,532.2c-4.4,4.5-4.3,12,0.3,16.5c4.6,4.5,11.8,4.5,16.4-0.2c4.4-4.6,4.4-12.1-0.1-16.5
				C2158.3,527.7,2150.6,527.8,2146.2,532.2z"/>
			<path class="st6" d="M2135.1,575.3c4.3-4.3,4.4-12.2,0.1-16.6c-4.3-4.5-11.8-4.6-16.4-0.3c-4.8,4.5-5.1,11.5-0.7,16.3
				C2122.6,579.8,2130.5,580,2135.1,575.3z"/>
			<path class="st6" d="M2119.1,449.3c-4.4,4.5-4.5,12-0.1,16.4c4.3,4.4,12.1,4.5,16.6,0.3c4.8-4.5,4.7-12.5-0.2-17.1
				C2130.7,444.5,2123.6,444.6,2119.1,449.3z"/>
			<path class="st6" d="M2119.4,173.9c-4.6,4.4-5,11.7-0.8,16.4c4.3,4.8,12.6,5,17.2,0.3c4.4-4.5,4.3-11.9-0.1-16.4
				C2131.2,169.6,2124.1,169.4,2119.4,173.9z"/>
			<path class="st6" d="M2146.4,697.1c-4.5,4.5-4.5,12.1,0,16.5c4.4,4.4,12.2,4.3,16.6-0.1c4.4-4.5,4.3-12-0.2-16.5
				C2158.1,692.4,2150.9,692.4,2146.4,697.1z"/>
			<path class="st6" d="M2135.5,245.5c4.8-4.5,4.7-12.5-0.1-17.1c-4.7-4.5-11.7-4.4-16.3,0.3c-4.5,4.5-4.5,12-0.1,16.4
				C2123.2,249.5,2131,249.7,2135.5,245.5z"/>
			<path class="st6" d="M2162.9,218c4.5-4.4,4.5-11.9,0-16.5c-4.6-4.6-11.7-4.7-16.4-0.1c-4.6,4.5-4.7,11.9-0.2,16.5
				C2150.6,222.3,2158.4,222.3,2162.9,218z"/>
			<path class="st6" d="M2174.2,229.4c-4.4,4.5-4.2,12.1,0.3,16.4c4.5,4.4,11.9,4.2,16.3-0.3c4.5-4.6,4.3-11.8-0.2-16.3
				C2186,224.8,2178.6,224.9,2174.2,229.4z"/>
			<path class="st6" d="M2174.2,394.3c-4.4,4.6-4.3,11.8,0.3,16.3c4.5,4.4,12,4.3,16.3-0.2c4.3-4.5,4.2-12.1-0.3-16.4
				C2186,389.5,2178.7,389.7,2174.2,394.3z"/>
			<path class="st6" d="M2201.7,641.8c-4.6,4.5-4.6,11.8-0.1,16.3c4.5,4.5,12,4.4,16.4-0.2c4.1-4.4,4.2-11.4,0.1-15.8
				C2213.8,637.6,2206.3,637.4,2201.7,641.8z"/>
			<path class="st6" d="M2189.9,686.3c4.5-4.3,4.7-11.8,0.3-16.3c-4.4-4.6-11.6-4.8-16.3-0.4c-4.6,4.4-4.8,11.7-0.4,16.3
				C2177.8,690.5,2185.3,690.6,2189.9,686.3z"/>
			<path class="st6" d="M2173.4,780.3c-4.3,4.6-4,12,0.6,16.3c4.7,4.4,11.9,4.1,16.3-0.5c4.3-4.6,4.1-12.1-0.5-16.3
				C2185.2,775.5,2177.6,775.7,2173.4,780.3z"/>
			<path class="st6" d="M2216.8,713.6c4.7-4.3,5-11.7,0.6-16.4c-4.4-4.6-11.8-4.7-16.3-0.2c-4.5,4.5-4.5,11.9,0,16.4
				C2205.4,717.6,2212.3,717.7,2216.8,713.6z"/>
			<path class="st6" d="M2173.6,724.4c-4.4,4.5-4.3,12,0.2,16.3c4.5,4.4,12,4.2,16.4-0.2c4.4-4.5,4.3-11.9-0.3-16.3
				C2185.3,719.7,2178,719.8,2173.6,724.4z"/>
			<path class="st6" d="M2190,355.2c4.5-4.5,4.5-11.9,0.1-16.3c-4.4-4.4-12-4.4-16.4,0c-4.4,4.4-4.4,11.9,0.1,16.3
				C2178.3,359.8,2185.5,359.8,2190,355.2z"/>
			<path class="st6" d="M2217.5,327.6c4.1-4.4,4-11.4-0.2-15.7c-4.4-4.6-11.8-4.7-16.4-0.2c-4.5,4.5-4.4,11.9,0.2,16.4
				C2205.8,332.5,2213.2,332.3,2217.5,327.6z"/>
			<path class="st6" d="M2209.1,221.6c-3.4-3-6.8-5.9-10.3-8.7c0.4,1.7,1.1,3.4,2.3,4.8C2203.2,220.2,2206.2,221.5,2209.1,221.6z"/>
			<path class="st6" d="M2202.3,366.3c-4.8,4.2-5.3,11.5-1.1,16.3c4.3,4.8,11.6,5.1,16.3,0.8c4.7-4.4,4.9-11.8,0.4-16.4
				C2213.8,362.7,2206.8,362.4,2202.3,366.3z"/>
			<path class="st6" d="M2217.2,548.4c4.8-4.2,5.3-11.6,1-16.3c-4.3-4.8-11.7-5.1-16.3-0.7c-4.7,4.4-4.9,11.8-0.4,16.4
				C2205.7,552.1,2212.7,552.4,2217.2,548.4z"/>
			<path class="st6" d="M2190.2,575.6c4.3-4.6,4.2-12.1-0.4-16.4c-4.5-4.3-12.1-4.1-16.4,0.5c-4.3,4.6-4.1,11.9,0.5,16.3
				C2178.6,580.4,2185.8,580.2,2190.2,575.6z"/>
			<path class="st6" d="M2201.2,861.6c-2.1,1.9-3.2,4.5-3.5,7.2c4.1-3.3,8.1-6.7,12.1-10.2C2206.8,858.3,2203.6,859.3,2201.2,861.6z
				"/>
			<path class="st6" d="M2201.1,257.3c-4,4.6-3.7,11.5,0.7,15.7c4.6,4.4,12,4.3,16.4-0.4c4.4-4.7,4-12-0.7-16.3
				C2212.7,252,2205.3,252.4,2201.1,257.3z"/>
			<path class="st6" d="M2173.5,834.7c-4.4,4.6-4.2,11.9,0.4,16.3c4.6,4.4,11.8,4.3,16.3-0.3c4.4-4.5,4.3-12-0.2-16.3
				C2185.4,830,2177.8,830.1,2173.5,834.7z"/>
			<path class="st6" d="M2201,807.2c-4.3,4.2-4.6,11.2-0.6,15.7c4.2,4.8,11.6,5.3,16.3,1c4.7-4.3,5-11.7,0.7-16.3
				C2213,802.9,2205.6,802.8,2201,807.2z"/>
			<path class="st6" d="M2201.7,477.1c-4.3,4.3-4.6,11.1-0.6,15.7c4.2,4.8,11.6,5.2,16.3,0.9c4.7-4.3,5-11.7,0.6-16.3
				C2213.7,472.8,2206.3,472.6,2201.7,477.1z"/>
			<path class="st6" d="M2174.1,504.5c-4.3,4.5-4.2,12.1,0.3,16.4c4.6,4.4,11.9,4.2,16.3-0.4c4.4-4.6,4.3-11.8-0.3-16.3
				C2185.9,499.8,2178.5,500,2174.1,504.5z"/>
			<path class="st6" d="M2217.3,602.9c4.5-4.5,4.3-12-0.3-16.4c-4.4-4.1-11.4-4.1-15.8,0c-4.6,4.4-4.7,11.8-0.3,16.4
				C2205.4,607.5,2212.8,607.5,2217.3,602.9z"/>
			<path class="st6" d="M2173.8,613.8c-4.5,4.3-4.6,11.8-0.2,16.3c4.4,4.6,11.7,4.7,16.3,0.3c4.6-4.4,4.7-11.8,0.4-16.3
				C2185.9,609.6,2178.3,609.4,2173.8,613.8z"/>
			<path class="st6" d="M2174.5,283.7c-4.5,4.3-4.6,11.9-0.3,16.4c4.3,4.5,11.8,4.6,16.3,0.2c4.6-4.5,4.7-11.7,0.3-16.3
				C2186.4,279.4,2179,279.3,2174.5,283.7z"/>
			<path class="st6" d="M2190.2,465.5c4.4-4.5,4.3-11.9-0.3-16.3c-4.6-4.5-11.8-4.4-16.3,0.2c-4.4,4.5-4.3,12,0.2,16.3
				C2178.3,470.1,2185.8,470,2190.2,465.5z"/>
			<path class="st6" d="M2201.9,421.1c-4.6,4.4-4.8,11.8-0.3,16.3c4.5,4.6,11.9,4.6,16.4,0c4.2-4.3,4.4-11.2,0.3-15.7
				C2214,417.1,2206.5,416.8,2201.9,421.1z"/>
			<path class="st6" d="M2202.3,751.6c-4.6,4-5.3,10.7-1.6,15.6c3.9,5.1,11.2,6,16.2,2c5-4,5.8-11.4,1.7-16.3
				C2214.5,748.1,2207.1,747.5,2202.3,751.6z"/>
			<path class="st6" d="M2228.6,244.8c2.4,2.7,5.7,3.9,9,3.8c-3.8-4-7.8-7.9-11.8-11.8C2225.6,239.6,2226.5,242.5,2228.6,244.8z"/>
			<path class="st6" d="M2229.6,779.1c-4.9,4.4-5.2,11.5-0.7,16.2c4.2,4.4,11.1,4.7,15.6,0.7c4.7-4.2,5-11.7,0.7-16.3
				C2241,775.4,2234.1,775.1,2229.6,779.1z"/>
			<path class="st6" d="M2245.2,355.4c4.2-4.5,4.1-11.2-0.4-15.6c-4.6-4.6-11.9-4.4-16.2,0.3c-4,4.4-3.9,11.5,0.3,15.7
				C2233.5,360.3,2240.9,360.1,2245.2,355.4z"/>
			<path class="st6" d="M2244.9,300.2c4.6-4.3,4.6-11.9,0.1-16.3c-4.3-4.2-11.2-4.2-15.6,0c-4.5,4.3-4.8,10.9-0.7,15.5
				C2232.9,304.2,2240.2,304.6,2244.9,300.2z"/>
			<path class="st6" d="M2229.9,449.3c-4.6,4.5-4.7,11.8-0.1,16.3c4.3,4.1,11.3,4.1,15.7,0c4.6-4.4,4.6-11.8,0-16.3
				C2241,445,2234.3,445,2229.9,449.3z"/>
			<path class="st6" d="M2245.3,409.8c4.2-4.5,4-11.2-0.4-15.6c-4.3-4.3-11.2-4.4-15.6-0.3c-4.6,4.3-4.7,11.9-0.3,16.3
				C2233.5,414.8,2240.9,414.6,2245.3,409.8z"/>
			<path class="st6" d="M2229.3,558.8c-4.5,4.3-4.9,10.9-0.8,15.5c4.3,4.9,11.6,5.3,16.2,0.9c4.6-4.3,4.7-11.9,0.2-16.3
				C2240.7,554.7,2233.8,554.7,2229.3,558.8z"/>
			<path class="st6" d="M2229,834.2c-3,2.7-4.1,6.5-3.6,10.2c4.3-4.2,8.5-8.4,12.7-12.7C2234.9,831.2,2231.6,831.9,2229,834.2z"/>
			<path class="st6" d="M2229,725.2c-4.3,4.4-4.4,11.1-0.2,15.6c4.4,4.7,11.8,4.8,16.3,0.2c4.2-4.3,4.2-11.3,0.2-15.7
				C2240.9,720.6,2233.5,720.6,2229,725.2z"/>
			<path class="st6" d="M2228.8,614.9c-4.1,4.3-4.1,11.4,0,15.7c4.4,4.6,11.8,4.6,16.3,0c4.3-4.4,4.3-11.1,0-15.6
				C2240.6,610.4,2233.2,610.3,2228.8,614.9z"/>
			<path class="st6" d="M2245.4,684.6c4.1-4.7,3.7-11.2-0.9-15.5c-4.5-4.2-11.3-4.1-15.6,0.2c-4.5,4.4-4.4,12,0.2,16.3
				C2233.9,689.9,2241.2,689.5,2245.4,684.6z"/>
			<path class="st6" d="M2229.4,504.4c-4.5,4.3-4.9,10.9-0.8,15.5c4.3,4.9,11.6,5.3,16.2,0.9c4.6-4.3,4.7-11.9,0.2-16.3
				C2240.7,500.2,2233.8,500.2,2229.4,504.4z"/>
			<path class="st6" d="M2256,752.8c-4.2,4.6-4,11.2,0.6,15.6c4.5,4.2,11.4,4.2,15.6-0.1c4.2-4.2,4.2-11.5,0.1-15.7
				C2267.9,747.9,2260.5,748,2256,752.8z"/>
			<path class="st6" d="M2257.6,696.8c-4.9,4.3-5.3,11.7-0.8,16.3c4.2,4.3,11.4,4.4,15.7,0.3c4.4-4.1,4.7-11.1,0.6-15.6
				C2268.9,693.1,2262.3,692.7,2257.6,696.8z"/>
			<path class="st6" d="M2253.1,815.1c3.1-3.6,6.2-7.3,9.2-11.1c-2,0.4-3.9,1.1-5.5,2.6C2254.2,808.9,2253.1,812,2253.1,815.1z"/>
			<path class="st6" d="M2271.5,658.4c5-4.5,5.2-11.5,0.5-16.2c-4.3-4.3-11.3-4.5-15.7-0.3c-4.3,4.1-4.5,11.3-0.5,15.7
				C2260,662.1,2266.9,662.4,2271.5,658.4z"/>
			<path class="st6" d="M2261,275.2c-2.5-3.1-5.1-6.1-7.7-9.2c0.3,2.2,1,4.3,2.7,6.1C2257.4,273.7,2259.2,274.6,2261,275.2z"/>
			<path class="st6" d="M2256.8,312c-4.5,4.6-4.1,12,0.9,16.3c4.7,4.1,11.3,3.7,15.5-1.1c4.1-4.6,3.8-11.5-0.6-15.6
				C2268.2,307.5,2261,307.7,2256.8,312z"/>
			<path class="st6" d="M2272.3,382.6c4.3-4.5,4.2-11.1-0.3-15.6c-4.4-4.3-11.3-4.4-15.7-0.1c-4.3,4.2-4.4,11.4-0.3,15.7
				C2260.4,387.4,2267.8,387.4,2272.3,382.6z"/>
			<path class="st6" d="M2257.3,422.1c-4.5,4.2-4.8,11.2-0.7,15.7c4.2,4.7,12,4.8,16.4,0.3c4.2-4.3,4.2-11.3-0.1-15.7
				C2268.4,417.9,2261.8,417.8,2257.3,422.1z"/>
			<path class="st6" d="M2257.2,476.6c-4.7,4.5-4.7,11.9,0,16.3c4.4,4,11.6,3.9,15.7-0.4c4.2-4.3,4.1-11.3-0.2-15.7
				C2268.3,472.4,2261.7,472.3,2257.2,476.6z"/>
			<path class="st6" d="M2272,548c4.6-4.3,4.6-12.1,0-16.4c-4.4-4.2-11.3-4-15.7,0.4c-4.4,4.5-4.4,11.1,0,15.6
				C2260.6,551.9,2267.6,552.1,2272,548z"/>
			<path class="st6" d="M2257.3,586.5c-4.5,4-4.9,11-0.9,15.6c4.4,5,11.4,5.3,16.2,0.7c4.4-4.3,4.6-11.2,0.4-15.7
				C2269,582.8,2261.8,582.5,2257.3,586.5z"/>
			<path class="st6" d="M2327,602.6c4.4-4.3,4.5-11.3,0.2-15.6c-4.1-4.2-11.5-4.2-15.7-0.1c-4.3,4.2-4.3,11.2,0,15.6
				C2316,607,2322.6,607,2327,602.6z"/>
			<path class="st6" d="M2312.4,642.3c-4.5,4.4-4.5,11-0.1,15.4c4.3,4.4,11.3,4.4,15.6,0.2c4.1-4.1,4.2-11.6,0.1-15.7
				C2323.7,637.9,2316.7,637.9,2312.4,642.3z"/>
			<path class="st6" d="M2284.5,669.9c-4.4,4.3-4.7,11.2-0.7,15.6c4.2,4.6,12,4.7,16.4,0.2c4.2-4.3,4.1-11.3-0.2-15.6
				C2295.6,665.7,2289,665.6,2284.5,669.9z"/>
			<path class="st6" d="M2284.1,724.8c-4.3,4.4-4.3,11.3,0,15.6c4.4,4.5,12.2,4.2,16.4-0.4c4-4.5,3.6-11.4-0.8-15.6
				C2295.1,720,2288.5,720.2,2284.1,724.8z"/>
			<path class="st6" d="M2311.4,697.7c-4.2,4.5-4.1,11.5,0.3,15.6c1.4,1.3,3.2,2,5.1,2.4c2.9-6.4,5.7-12.9,8.3-19.5
				C2320.8,693.2,2315.3,693.6,2311.4,697.7z"/>
			<path class="st6" d="M2284.6,449.3c-4.5,4.2-4.9,11.1-0.9,15.6c4.2,4.7,11.9,4.9,16.4,0.5c4.3-4.3,4.3-11.2,0-15.6
				C2295.8,445.2,2289.1,445,2284.6,449.3z"/>
			<path class="st6" d="M2327.3,437.9c4.2-4.3,4.1-11.3-0.3-15.6c-4.5-4.4-11-4.3-15.4,0.2c-4.3,4.4-4.3,11.4,0,15.6
				C2315.8,442.2,2323.3,442.1,2327.3,437.9z"/>
			<path class="st6" d="M2284.7,338.7c-4.5,4-4.9,11-0.9,15.6c4.4,5.1,11.4,5.4,16.2,0.7c4.4-4.3,4.6-11.2,0.5-15.6
				C2296.4,335.1,2289.1,334.7,2284.7,338.7z"/>
			<path class="st6" d="M2312.2,531.8c-4.1,4.1-4.2,11.5-0.1,15.7c4.2,4.3,11.2,4.3,15.6,0c4.5-4.4,4.6-11,0.2-15.4
				C2323.5,527.7,2316.5,527.6,2312.2,531.8z"/>
			<path class="st6" d="M2299.5,575.9c4.9-4.4,5.1-11.7,0.6-16.3c-4.2-4.2-11.4-4.3-15.7-0.2c-4.4,4.2-4.6,11.1-0.4,15.6
				C2288.2,579.8,2294.8,580.1,2299.5,575.9z"/>
			<path class="st6" d="M2284.3,614.1c-4.6,4.5-4.4,11.9,0.4,16.3c4.6,4.2,11.2,3.9,15.5-0.7c4.2-4.5,4.1-11.4-0.2-15.6
				C2295.7,609.9,2288.5,609.9,2284.3,614.1z"/>
			<path class="st6" d="M2284.2,395.2c-4.3,4.4-4.4,11.3-0.1,15.6c4.4,4.5,12.2,4.4,16.4-0.3c4.1-4.5,3.8-11.4-0.7-15.6
				C2295.2,390.5,2288.7,390.7,2284.2,395.2z"/>
			<path class="st6" d="M2312.6,382.9c3.5,3.3,8.6,3.8,12.6,1.8c-2.7-6.8-5.5-13.4-8.6-20c-1.6,0.6-3.2,1.4-4.5,2.8
				C2307.8,372,2308,378.6,2312.6,382.9z"/>
			<path class="st6" d="M2327.3,492.5c4.2-4.2,4.2-11.2-0.2-15.6c-4.5-4.5-11-4.4-15.4,0c-4.3,4.4-4.4,11.4-0.1,15.6
				C2315.7,496.6,2323.1,496.6,2327.3,492.5z"/>
			<path class="st6" d="M2284.2,504.1c-4.3,4.4-4.4,11.3-0.1,15.6c4.4,4.5,12.2,4.4,16.4-0.3c4.1-4.5,3.8-11.4-0.7-15.6
				C2295.2,499.5,2288.6,499.6,2284.2,504.1z"/>
			<path class="st6" d="M2338.9,465.3c2.5,2.4,6.2,3.1,9.7,2.5c-1.2-7.1-2.6-14.1-4.2-21c-2,0.5-4,1.3-5.6,3
				C2334.6,454.2,2334.7,461.3,2338.9,465.3z"/>
			<path class="st6" d="M2339.4,615.3c-4.3,4.5-4.1,11,0.5,15.3c1.4,1.3,3,2,4.8,2.5c1.6-7,3-14,4.2-21.1
				C2345.4,611.7,2341.9,612.7,2339.4,615.3z"/>
			<path class="st6" d="M2340.2,504c-4.4,3.6-5.1,11-1.5,15.6c3.6,4.5,10.9,5.2,15.4,1.3c0.1-0.1,0.2-0.3,0.3-0.4
				c-0.3-5.6-0.7-11.2-1.2-16.8C2349.3,500.9,2344.1,500.8,2340.2,504z"/>
			<path class="st6" d="M2338.9,559.7c-4.3,4.1-4.3,11.1-0.1,15.5c4.1,4.2,10.1,4.4,14.5,0.7c0.4-5.3,0.9-10.7,1.1-16
				C2350.5,555.8,2343,555.7,2338.9,559.7z"/>
		</g>
	</g>
</g>
</svg>
