<svg xmlns="http://www.w3.org/2000/svg" xmlns:xlink="http://www.w3.org/1999/xlink" viewBox="0 0 2000 530"><defs><clipPath id="a"><rect x="368.47" y="0.4" width="1706.26" height="529.6" style="fill:none"/></clipPath><linearGradient id="b" x1="1219.4" y1="325.56" x2="1490.31" y2="54.64" gradientUnits="userSpaceOnUse"><stop offset="0" stop-color="#662483"/><stop offset="0.18" stop-color="#5e2683"/><stop offset="0.5" stop-color="#462b83"/><stop offset="0.73" stop-color="#2d2e83"/><stop offset="1" stop-color="#195d93"/></linearGradient><linearGradient id="c" x1="1558.81" y1="589.75" x2="1679.37" y2="469.21" gradientTransform="matrix(0.21, -0.98, 0.98, 0.21, 580.35, 1928.23)" xlink:href="#b"/><linearGradient id="d" x1="1982.4" y1="944.47" x2="2075.92" y2="850.95" gradientTransform="translate(-373.5 33.22) rotate(-23.73) scale(0.99)" gradientUnits="userSpaceOnUse"><stop offset="0" stop-color="#662483"/><stop offset="0.18" stop-color="#612c85"/><stop offset="0.5" stop-color="#533e8a"/><stop offset="0.91" stop-color="#2b5892"/><stop offset="1" stop-color="#195d93"/></linearGradient></defs><g style="clip-path:url(#a)"><polygon points="1354.85 -16.02 1413.53 567.43 1503.96 719.03 2240.58 710.88 2240.58 -37.98 1354.85 -16.02" style="fill:#92358b"/><circle cx="1354.85" cy="190.1" r="191.56" style="fill:url(#b)"/><circle cx="1442.69" cy="458.03" r="85.22" style="fill:url(#c)"/><circle cx="1836.15" cy="28.13" r="66.1" style="fill:url(#d)"/><g style="opacity:0.23000000417232513"><path d="M1120.85,193.77l-79.79,149c-.15,2.64-.32,5.25-.32,7.87l86.51-161.47c-2.15,1.51-4.3,3-6.37,4.61" style="fill:#fff"/><path d="M1064.77,259.64a200.06,200.06,0,0,0-14.56,34.52l35.24-65.78a205.65,205.65,0,0,0-20.68,31.24" style="fill:#fff"/><path d="M1152.18,174,1042,379.75c.48,3.82,1,7.64,1.67,11.38l119-222c-3.51,1.58-7,3.18-10.43,4.92" style="fill:#fff"/><path d="M1183.84,161.08,1048.78,413.32c.88,3.1,1.82,6.13,2.86,9.16L1193.07,158.3c-3.1.95-6.2,1.83-9.23,2.78" style="fill:#fff"/><path d="M1242.47,151.06,1072.88,467.65c2.07,3.26,4.22,6.53,6.44,9.71L1254.17,151c-3.9,0-7.8,0-11.7.08" style="fill:#fff"/><path d="M1212.25,154.16,1058.73,440.85c1.74,3.89,3.49,7.71,5.48,11.53l160.68-300c-4.22.48-8.41,1.12-12.64,1.83" style="fill:#fff"/><path d="M1300.3,157.1,1110,512.44c3.42,3.18,7,6.2,10.66,9.14L1313.9,160.84c-4.61-1.35-9.06-2.62-13.6-3.74" style="fill:#fff"/><path d="M1270.55,152,1089.27,490.48c3.1,3.74,6.28,7.4,9.61,11L1285,154c-4.81-.79-9.62-1.51-14.48-2" style="fill:#fff"/><path d="M1328.1,165.86,1132.73,530.65c4.7,3.27,9.47,6.37,14.42,9.31L1343.8,172.7c-5.26-2.47-10.51-4.81-15.76-6.84" style="fill:#fff"/><path d="M1357,179.68,1160.22,547.2c5.17,2.63,10.35,4.93,15.62,7.21l195.76-365.6q-7-4.81-14.55-9.07" style="fill:#fff"/><path d="M1383.75,197.51l-193.83,362a195.68,195.68,0,0,0,20.3,5.65l189.56-354c-5.1-4.68-10.35-9.3-16-13.68" style="fill:#fff"/><path d="M1410.71,222.42l-185.18,345.7a210.27,210.27,0,0,0,22.12,2.23l177.23-330.84c-4.46-5.88-9.16-11.61-14.17-17.09" style="fill:#fff"/><path d="M1455.18,296.86l-143,267a205.42,205.42,0,0,0,33.41-11.69L1464,331.12a207.86,207.86,0,0,0-8.74-34.28" style="fill:#fff"/><path d="M1434.26,253.43,1264.42,570.59a214.51,214.51,0,0,0,28.63-2.71l154.88-289.15a215,215,0,0,0-13.68-25.3" style="fill:#fff"/><path d="M1466.71,357.64l-97.6,182.24a203.68,203.68,0,0,0,64.6-62.6l16.62-31.11a202.76,202.76,0,0,0,16.38-88.53" style="fill:#fff"/></g><g style="opacity:0.20000000298023224"><path d="M1515.79,409.33a12.56,12.56,0,0,0,1.21-17.74l-.38-.42a12.34,12.34,0,0,0-7.95-3.6c-1.85,8-3.51,16.19-4.91,24.42A12.17,12.17,0,0,0,1515.79,409.33Z" style="fill:#fff"/><path d="M1515.69,459.77a12.7,12.7,0,0,0,1.24-17.92c-.07-.08-.14-.17-.22-.25a13.27,13.27,0,0,0-16.65-1.57c-.54,6.38-1,12.86-1.28,19.33A12.31,12.31,0,0,0,1515.69,459.77Z" style="fill:#fff"/><path d="M1516.53,510.88a12.69,12.69,0,0,0-.51-17.95l-.23-.21a12.3,12.3,0,0,0-17.11.28c.28,6.48.74,12.85,1.3,19.24A13,13,0,0,0,1516.53,510.88Z" style="fill:#fff"/><path d="M1592.84,416.46a12.43,12.43,0,1,0-17.45,17.71c.11.11.22.22.34.32a12.76,12.76,0,0,0,17.47-.65,12.29,12.29,0,0,0-.34-17.37Z" style="fill:#fff"/><path d="M1549.64,442.26a12.19,12.19,0,0,0-.33,17.23l.15.15a12.48,12.48,0,0,0,17.48.56,12.85,12.85,0,0,0,.18-18.16A12.58,12.58,0,0,0,1549.64,442.26Z" style="fill:#fff"/><path d="M1541,434.39a12.58,12.58,0,0,0,.84-17.76l-.38-.4a13,13,0,0,0-17.66,0,12.57,12.57,0,0,0-.18,17.58,12.26,12.26,0,0,0,17.33.63Z" style="fill:#fff"/><path d="M1549.55,390.46a13,13,0,0,0-.28,17.67,12.57,12.57,0,0,0,17.78.29l.38-.39a12.26,12.26,0,0,0-.25-17.34l0,0A12.58,12.58,0,0,0,1549.55,390.46Z" style="fill:#fff"/><path d="M1541.6,536.05a12.59,12.59,0,0,0-.1-17.58,12.2,12.2,0,0,0-17.24-.41l-.14.13a12.57,12.57,0,0,0-.74,17.58,12.87,12.87,0,0,0,18.19.3Z" style="fill:#fff"/><path d="M1592.28,383.07a12.39,12.39,0,0,0,.37-17.4,12.58,12.58,0,0,0-17.78-.43l-.26.25a12.88,12.88,0,0,0,.28,17.58,12.29,12.29,0,0,0,17.38,0Z" style="fill:#fff"/><path d="M1524.76,467.13a12.22,12.22,0,0,0-.86,17.26l.12.13a12.57,12.57,0,0,0,17.76.94c.14-.12.27-.25.4-.38a13.08,13.08,0,0,0,.18-17.67A12.77,12.77,0,0,0,1524.76,467.13Z" style="fill:#fff"/><path d="M1575.81,466.58A12.45,12.45,0,1,0,1591.34,486l.38-.32a12.74,12.74,0,0,0,1.48-17.47A12.48,12.48,0,0,0,1575.81,466.58Z" style="fill:#fff"/><path d="M1567.22,492.47a12.69,12.69,0,0,0-17.58.1,12.2,12.2,0,0,0-.4,17.26l.12.13a12.57,12.57,0,0,0,17.48.74,12.79,12.79,0,0,0,.51-18.09Z" style="fill:#fff"/><path d="M1574.79,517.91a12.43,12.43,0,1,0,17.86,17.3,12.73,12.73,0,0,0-.47-17.48A12.35,12.35,0,0,0,1574.79,517.91Z" style="fill:#fff"/><path d="M1541.78,383.25a12.21,12.21,0,0,0,.71-17.24l-.15-.16a12.59,12.59,0,0,0-17.77-.84l-.4.38a13,13,0,0,0,0,17.68A12.59,12.59,0,0,0,1541.78,383.25Z" style="fill:#fff"/><path d="M1549.55,340.05a13,13,0,0,0-.28,17.67,12.67,12.67,0,0,0,17.57.46,12.32,12.32,0,0,0,.89-17.4c-.19-.22-.4-.43-.61-.63A12.68,12.68,0,0,0,1549.55,340.05Z" style="fill:#fff"/><path d="M1575.35,314.47a12.57,12.57,0,0,0,0,17.49,12.31,12.31,0,0,0,17.42.27c.19-.18.36-.36.53-.55a12.56,12.56,0,0,0-.46-17.47A12.75,12.75,0,0,0,1575.35,314.47Z" style="fill:#fff"/><path d="M1592.65,280.86a12.86,12.86,0,0,0-.28-17.58,12.4,12.4,0,1,0,.28,17.58Z" style="fill:#fff"/><path d="M1567.4,306.3a13,13,0,0,0,0-17.68,12.58,12.58,0,0,0-17.57-.18,12.23,12.23,0,0,0-.68,17.28l.12.12a12.57,12.57,0,0,0,17.76.81C1567.16,306.54,1567.28,306.42,1567.4,306.3Z" style="fill:#fff"/><path d="M1541.41,332.38a12.58,12.58,0,0,0-6.1-21.28c-3.42,7.31-6.66,14.8-9.63,22.36A13,13,0,0,0,1541.41,332.38Z" style="fill:#fff"/><path d="M1592.56,230.55a12.49,12.49,0,0,0,3-11.37c-4.19,4.89-8.52,9.89-12.49,15A11.84,11.84,0,0,0,1592.56,230.55Z" style="fill:#fff"/><path d="M1600.69,441.8a12.27,12.27,0,1,0,17.35-.05l0-.05A12.25,12.25,0,0,0,1600.69,441.8Z" style="fill:#fff"/><path d="M1600.89,339.62a12.29,12.29,0,1,0,17.38.28h0a12.29,12.29,0,0,0-17.37-.3Z" style="fill:#fff"/><path d="M1617.35,205.39a12.4,12.4,0,0,0,3.88-12.67c-5.18,4.9-10.27,10-15.26,15.17A12.6,12.6,0,0,0,1617.35,205.39Z" style="fill:#fff"/><path d="M1617.35,510.24A12.29,12.29,0,1,0,1600,510a12.3,12.3,0,0,0,17.4.28Z" style="fill:#fff"/><path d="M1617.62,255.61a11.86,11.86,0,1,0-.09.1Z" style="fill:#fff"/><path d="M1601.43,288.72a12.78,12.78,0,1,0,.09-.07Z" style="fill:#fff"/><path d="M1600.89,391.11a12.3,12.3,0,1,0,17.38.55l-.09-.09A12.37,12.37,0,0,0,1600.89,391.11Z" style="fill:#fff"/><path d="M1643.15,179.49a12.35,12.35,0,0,0,3.7-8.88c-4.9,3.89-9.71,7.87-14.43,12A11.81,11.81,0,0,0,1643.15,179.49Z" style="fill:#fff"/><path d="M1677.92,416.54a12.06,12.06,0,0,0-.62,17l.34.35a12.4,12.4,0,0,0,16.84.19,12,12,0,0,0,.56-16.93l-.46-.47a11.65,11.65,0,0,0-16.48-.35Z" style="fill:#fff"/><path d="M1652.4,442.06a11.84,11.84,0,0,0-1.3,16.69c.21.24.43.48.66.71a12,12,0,0,0,16.83.64,12.3,12.3,0,0,0,.72-17.39l-.08-.09A12,12,0,0,0,1652.4,442.06Z" style="fill:#fff"/><path d="M1625.67,467.23a11.73,11.73,0,1,0,.07-.08Z" style="fill:#fff"/><path d="M1642.69,230.37a12.14,12.14,0,0,0,1.16-17.13l-.24-.27a12.29,12.29,0,0,0-17.36-.59l0,0a12.18,12.18,0,0,0,16.47,18Z" style="fill:#fff"/><path d="M1668.59,204.28a12,12,0,0,0-.1-16.76,12.28,12.28,0,0,0-17.38.09l-.1.09a12.07,12.07,0,0,0,.47,17.06q.18.18.36.33a11.78,11.78,0,0,0,16.66-.71Z" style="fill:#fff"/><path d="M1694.11,180a11.92,11.92,0,0,0,1.4-16.65,11.67,11.67,0,0,0-16.34-2.28c-.3.23-.58.46-.86.72a12,12,0,0,0-1.66,16.65A12.43,12.43,0,0,0,1694.11,180Z" style="fill:#fff"/><path d="M1625.67,518.93a12.08,12.08,0,1,0,17.38-.45h0a12,12,0,0,0-16.91,0C1626,518.6,1625.82,518.76,1625.67,518.93Z" style="fill:#fff"/><path d="M1651.84,493a11.94,11.94,0,0,0-.28,16.76,12.08,12.08,0,0,0,17.06.7l.43-.42a12.41,12.41,0,0,0,.28-16.92,12,12,0,0,0-17-.65Z" style="fill:#fff"/><path d="M1676.78,468.15a11.66,11.66,0,0,0,.46,16.49l.18.16a12,12,0,0,0,16.76.1,12.4,12.4,0,0,0,0-17.49,12.21,12.21,0,0,0-17.27.6A.86.86,0,0,0,1676.78,468.15Z" style="fill:#fff"/><path d="M1693.93,382.93a11.64,11.64,0,0,0,.73-16.44l-.18-.2a12,12,0,0,0-17-1l-.38.35a12.38,12.38,0,0,0,0,17.49A12.21,12.21,0,0,0,1693.93,382.93Z" style="fill:#fff"/><path d="M1651.76,390.83a12.3,12.3,0,0,0,.08,17.39l.1.09a12,12,0,1,0-.25-17.48Z" style="fill:#fff"/><path d="M1625.57,416.92a12.22,12.22,0,0,0,.78,17.25l.15.13a12.21,12.21,0,0,0,16.47-18A12.48,12.48,0,0,0,1625.57,416.92Z" style="fill:#fff"/><path d="M1694,230.65a12.39,12.39,0,0,0,.18-17.48,12,12,0,0,0-16.77-.08,11.64,11.64,0,0,0-.93,16.43l.19.2a11.85,11.85,0,0,0,16.71,1.48C1693.61,231,1693.82,230.84,1694,230.65Z" style="fill:#fff"/><path d="M1651.63,238.68a12.14,12.14,0,1,0,17.17-.41,12.15,12.15,0,0,0-17.17.41Z" style="fill:#fff"/><path d="M1643.33,281.42a12.13,12.13,0,1,0-17.48,0A12.41,12.41,0,0,0,1643.33,281.42Z" style="fill:#fff"/><path d="M1693.93,281.14a12.32,12.32,0,0,0,.34-17.41l-.07-.07a12.13,12.13,0,0,0-17.15.12l-.23.24a11.73,11.73,0,0,0,.2,16.58l.08.08A12,12,0,0,0,1693.93,281.14Z" style="fill:#fff"/><path d="M1668.67,306.38a12.09,12.09,0,0,0-.36-16.76,11.92,11.92,0,0,0-16.76-.28,12.06,12.06,0,0,0-.69,17.05,5.44,5.44,0,0,0,.41.42A12.36,12.36,0,0,0,1668.67,306.38Z" style="fill:#fff"/><path d="M1626,314.62a12.24,12.24,0,1,0,17.39.37,12,12,0,0,0-16.91-.83C1626.35,314.31,1626.19,314.47,1626,314.62Z" style="fill:#fff"/><path d="M1693.65,535.67a12.38,12.38,0,0,0,.83-17.4,11.94,11.94,0,0,0-16.77-.64,11.71,11.71,0,0,0-1.49,16.49c.21.25.43.49.65.72A12,12,0,0,0,1693.65,535.67Z" style="fill:#fff"/><path d="M1677,315.27a12.3,12.3,0,0,0-.28,16.83,12,12,0,0,0,17,.55c.13-.12.25-.24.37-.37a11.65,11.65,0,0,0,.46-16.47l-.18-.18a12.15,12.15,0,0,0-17.16-.59C1677.16,315.12,1677.08,315.19,1677,315.27Z" style="fill:#fff"/><path d="M1651.84,340.33a12.32,12.32,0,0,0,.12,17.41l.07.07a12.07,12.07,0,0,0,17-.46c.11-.12.23-.24.33-.37a11.85,11.85,0,0,0-.73-16.75h0A12.12,12.12,0,0,0,1651.84,340.33Z" style="fill:#fff"/><path d="M1627.05,365a12.28,12.28,0,0,0-1,17.34l0,0a12.21,12.21,0,1,0,17.76-16.76h0A12.31,12.31,0,0,0,1627.05,365Z" style="fill:#fff"/><path d="M1702.8,137.5a11.9,11.9,0,0,0,0,16.64,12.37,12.37,0,0,0,17.4-.08,12.12,12.12,0,0,0-.64-17.12l-.2-.18a11.54,11.54,0,0,0-16.31.48Z" style="fill:#fff"/><path d="M1703.32,391.2a12,12,0,0,0-.94,17c.09.11.19.21.28.31a12.37,12.37,0,0,0,17.4-.08,12,12,0,0,0-.18-16.65,11.63,11.63,0,0,0-16.43-.69A1.59,1.59,0,0,1,1703.32,391.2Z" style="fill:#fff"/><path d="M1703,187.63a12,12,0,0,0-.24,17l.33.33a12.27,12.27,0,0,0,16.77-.19,12.09,12.09,0,0,0-.09-17.1c-.06-.07-.13-.13-.19-.19a11.53,11.53,0,0,0-16.3-.11Z" style="fill:#fff"/><path d="M1718.8,510.51a12.27,12.27,0,0,0,.84-17.3,12,12,0,0,0-16.65-.74,11.59,11.59,0,0,0-1.54,16.33c.22.27.46.53.71.79A12.08,12.08,0,0,0,1718.8,510.51Z" style="fill:#fff"/><path d="M1719.92,289.32a12.47,12.47,0,0,0-17.4.38,12,12,0,0,0,.47,16.64,11.52,11.52,0,0,0,16.29.45l.26-.25a12,12,0,0,0,.62-17Z" style="fill:#fff"/><path d="M1703,238.13a11.58,11.58,0,0,0-1.55,16.31c.23.28.47.54.72.79a12,12,0,0,0,16.64.84,12.26,12.26,0,0,0,.84-17.29A11.9,11.9,0,0,0,1703,238.13Z" style="fill:#fff"/><path d="M1719.46,459.46a12.38,12.38,0,0,0-.56-17.4,11.9,11.9,0,0,0-16.65.66,11.57,11.57,0,0,0-.24,16.36c.25.26.52.51.79.74A12.09,12.09,0,0,0,1719.46,459.46Z" style="fill:#fff"/><path d="M1701.92,340.71a12.26,12.26,0,0,0,.2,16.76,12.1,12.1,0,0,0,17.11-.09l.19-.19a11.54,11.54,0,0,0,.06-16.3l-.26-.25a12.08,12.08,0,0,0-17.09-.14Z" style="fill:#fff"/><path d="M1744.52,484.7a12.37,12.37,0,0,0,.08-16.83,12,12,0,0,0-16.76-.27,11.46,11.46,0,0,0-1,16.17l.36.39a11.93,11.93,0,0,0,16.84,1Q1744.28,484.94,1744.52,484.7Z" style="fill:#fff"/><path d="M1728.71,162.11a11.82,11.82,0,0,0-1,16.7c.15.17.31.33.47.49a12.27,12.27,0,0,0,16.76.1,11.88,11.88,0,0,0,.28-16.65,11.49,11.49,0,0,0-16.24-.87Z" style="fill:#fff"/><path d="M1728.61,212.6a11.83,11.83,0,0,0-.74,16.73c.15.17.3.32.46.48a12.29,12.29,0,0,0,16.76-.1,12,12,0,0,0,.09-16.64,11.54,11.54,0,0,0-16.31-.72Z" style="fill:#fff"/><path d="M1728.33,264.18a12,12,0,0,0-.07,16.95l.25.24a11.55,11.55,0,0,0,16.34-.12l.23-.24a11.9,11.9,0,0,0,0-16.65A12.37,12.37,0,0,0,1728.33,264.18Z" style="fill:#fff"/><path d="M1728.15,314.71a11.93,11.93,0,0,0,.1,16.87l.36.34a11.37,11.37,0,0,0,16.08-.23l.39-.43a12,12,0,0,0-.2-16.64A12.26,12.26,0,0,0,1728.15,314.71Z" style="fill:#fff"/><path d="M1727.87,417.38a12,12,0,0,0,.56,16.64,12.35,12.35,0,0,0,16.76-.37A12,12,0,0,0,1745,417a11.37,11.37,0,0,0-16-.77A11.85,11.85,0,0,0,1727.87,417.38Z" style="fill:#fff"/><path d="M1728,518.83a11.86,11.86,0,0,0,.33,16.77c.16.16.32.3.49.45a11.38,11.38,0,0,0,16.09-.52l.38-.42a11.88,11.88,0,0,0-.56-16.64A12.27,12.27,0,0,0,1728,518.83Z" style="fill:#fff"/><path d="M1745.44,128.66a12.16,12.16,0,0,0,1.48-15.26c-7.12,2.8-14.25,5.73-21.18,9a11.76,11.76,0,0,0,19.7,6.29Z" style="fill:#fff"/><path d="M1745.44,382.93a12,12,0,0,0-.84-16.64,11.52,11.52,0,0,0-16.31.21l-.24.25a11.9,11.9,0,0,0,0,16.65A12.38,12.38,0,0,0,1745.44,382.93Z" style="fill:#fff"/><path d="M1795.39,535.31a11.84,11.84,0,0,0-.18-16.66,12.3,12.3,0,0,0-16.77.28,11.81,11.81,0,0,0,.48,16.64,11.34,11.34,0,0,0,16,.18Z" style="fill:#fff"/><path d="M1779.11,467.78a12.18,12.18,0,0,0,0,16.77,11.88,11.88,0,0,0,16.64-.1,11.33,11.33,0,0,0,.44-16l-.44-.44A12,12,0,0,0,1779.11,467.78Z" style="fill:#fff"/><path d="M1770.14,510.14a11.9,11.9,0,0,0-.1-16.76,12.37,12.37,0,0,0-16.76.18,12,12,0,0,0,.38,16.77,11.38,11.38,0,0,0,16.08.23C1769.88,510.42,1770,510.29,1770.14,510.14Z" style="fill:#fff"/><path d="M1795.11,433.84a11.88,11.88,0,0,0,.28-16.64,11.42,11.42,0,0,0-16.13-.79l-.33.31a12,12,0,0,0-.56,16.66A12.29,12.29,0,0,0,1795.11,433.84Z" style="fill:#fff"/><path d="M1770.38,458.72a11.94,11.94,0,0,0-.54-16.77,11.46,11.46,0,0,0-16.21,0l-.35.37a11.91,11.91,0,0,0,.28,16.76A12.29,12.29,0,0,0,1770.38,458.72Z" style="fill:#fff"/><path d="M1754.13,238.41a12.31,12.31,0,0,0-.36,16.77,11.9,11.9,0,0,0,16.76.28,11.39,11.39,0,0,0,.92-16.08l-.46-.48A12.06,12.06,0,0,0,1754.13,238.41Z" style="fill:#fff"/><path d="M1779.48,213.16a12.28,12.28,0,0,0-.47,16.76,11.9,11.9,0,0,0,16.66.38,11.44,11.44,0,0,0,.83-16.16l-.27-.3A12.13,12.13,0,0,0,1779.48,213.16Z" style="fill:#fff"/><path d="M1795.85,332.28a12.27,12.27,0,0,0,.18-16.76,11.88,11.88,0,0,0-16.64-.1,11.35,11.35,0,0,0-.6,16.05,5.44,5.44,0,0,0,.41.42A11.89,11.89,0,0,0,1795.85,332.28Z" style="fill:#fff"/><path d="M1754.05,340.79a11.37,11.37,0,0,0-.31,16.08l.49.48a11.89,11.89,0,0,0,16.76-.09,12.38,12.38,0,0,0-.18-16.83A12,12,0,0,0,1754.05,340.79Z" style="fill:#fff"/><path d="M1770.23,306.2a11.89,11.89,0,0,0-.09-16.76,12.37,12.37,0,0,0-16.76.18,12,12,0,0,0,.36,16.76,11.36,11.36,0,0,0,16.08.23C1770,306.48,1770.1,306.34,1770.23,306.2Z" style="fill:#fff"/><path d="M1779,264a12.41,12.41,0,0,0,.38,16.77,12,12,0,0,0,16.64-.56,11.36,11.36,0,0,0,.06-16.06c-.13-.14-.28-.28-.42-.41A11.91,11.91,0,0,0,1779,264Z" style="fill:#fff"/><path d="M1770.69,153.68a12.28,12.28,0,0,0,.37-16.76,11.9,11.9,0,0,0-16.76-.18,11.39,11.39,0,0,0-.83,16.08l.45.47A12.09,12.09,0,0,0,1770.69,153.68Z" style="fill:#fff"/><path d="M1796.13,128.16a12.3,12.3,0,0,0-.18-16.77,12,12,0,0,0-16.66.28,11.43,11.43,0,0,0-.12,16.16l.31.3A11.88,11.88,0,0,0,1796.13,128.16Z" style="fill:#fff"/><path d="M1796,382.69a12.3,12.3,0,0,0,.08-16.77,11.78,11.78,0,0,0-16.64.1,11.33,11.33,0,0,0-.53,16c.14.15.28.3.43.44A12,12,0,0,0,1796,382.69Z" style="fill:#fff"/><path d="M1770.23,408.49a12,12,0,0,0-.09-16.76,11.36,11.36,0,0,0-16.07-.48,5.44,5.44,0,0,0-.48.48,11.91,11.91,0,0,0-.2,16.76A12.29,12.29,0,0,0,1770.23,408.49Z" style="fill:#fff"/><path d="M1795.75,178.84a12.28,12.28,0,0,0,.48-16.76,11.9,11.9,0,0,0-16.66-.38,11.46,11.46,0,0,0-.83,16.18l.27.29A12,12,0,0,0,1795.75,178.84Z" style="fill:#fff"/><path d="M1769.49,205.21a11.91,11.91,0,0,0,1.2-16.66,11.51,11.51,0,0,0-16.19-1.7l-.37.31a11.87,11.87,0,0,0-1.48,16.65A12.58,12.58,0,0,0,1769.49,205.21Z" style="fill:#fff"/><path d="M1821.19,153.32a12.2,12.2,0,0,0-.28-16.84,11.94,11.94,0,0,0-16.76.74,11.42,11.42,0,0,0,.28,16A11.91,11.91,0,0,0,1821.19,153.32Z" style="fill:#fff"/><path d="M1846.16,128.16a12,12,0,0,0,0-16.77,11.81,11.81,0,0,0-16.64.37,11.43,11.43,0,0,0,.22,16.16l.34.31A11.73,11.73,0,0,0,1846.16,128.16Z" style="fill:#fff"/><path d="M1821.09,103.09a12,12,0,0,0,3-10.91c-7.67,1.3-15.16,2.8-22.66,4.53a11.16,11.16,0,0,0,3,5.92A11.79,11.79,0,0,0,1821.09,103.09Z" style="fill:#fff"/><path d="M1819.81,256.25a11.45,11.45,0,0,0,2.36-16c-.11-.15-.22-.29-.34-.43a11.77,11.77,0,0,0-16.55-1.86h0c-4.9,3.88-5.59,11.85-1.48,16.76A11.75,11.75,0,0,0,1819.81,256.25Z" style="fill:#fff"/><path d="M1830.16,213.07a11.82,11.82,0,0,0,0,16,11.37,11.37,0,0,0,16,.77l.42-.41a11.69,11.69,0,0,0,.18-16.55A12,12,0,0,0,1830.16,213.07Z" style="fill:#fff"/><path d="M1830.54,416.72a11.7,11.7,0,0,0-.22,16.54l0,0a11.37,11.37,0,0,0,16.06.33c.14-.14.28-.27.41-.42a11.6,11.6,0,0,0-.13-16.41l-.15-.14A11.91,11.91,0,0,0,1830.54,416.72Z" style="fill:#fff"/><path d="M1804.73,442.34a12.22,12.22,0,0,0-.46,16.84,11.72,11.72,0,0,0,16.56.08l.08-.08a11.37,11.37,0,0,0,.31-16.08l-.49-.48A11.84,11.84,0,0,0,1804.73,442.34Z" style="fill:#fff"/><path d="M1845.89,484.62a11.35,11.35,0,0,0,.7-16l-.43-.44a11.69,11.69,0,0,0-16.54-.1h0a12.12,12.12,0,0,0,.28,16.77A11.94,11.94,0,0,0,1845.89,484.62Z" style="fill:#fff"/><path d="M1804.08,493.41a12.15,12.15,0,0,0,.19,16.18,11.72,11.72,0,0,0,16.56.08l.08-.08a11.37,11.37,0,0,0,.31-16.08c-.16-.17-.32-.33-.49-.48a11.73,11.73,0,0,0-16.59.31Z" style="fill:#fff"/><path d="M1804.82,187.91a11.94,11.94,0,0,0,.74,16.76,11.45,11.45,0,0,0,16-.27,11.71,11.71,0,0,0,.16-16.56l-.08-.08A12,12,0,0,0,1804.82,187.91Z" style="fill:#fff"/><path d="M1830.08,162.75a11.69,11.69,0,0,0,.7,16.52l0,0a11.39,11.39,0,0,0,15.9-.28,11.69,11.69,0,0,0,.11-16.53l0,0A12.1,12.1,0,0,0,1830.08,162.75Z" style="fill:#fff"/><path d="M1830,519.49a11.81,11.81,0,0,0,.28,16,12.08,12.08,0,0,0,16.76-.1,11.79,11.79,0,0,0-.56-16.64,11.41,11.41,0,0,0-16.15.38Z" style="fill:#fff"/><path d="M1805.66,289.32a11.83,11.83,0,0,0-1,16.66,12.22,12.22,0,0,0,16.76.56,11.73,11.73,0,0,0,.16-16.58l-.07-.08A11.27,11.27,0,0,0,1805.66,289.32Z" style="fill:#fff"/><path d="M1830.08,265a11.71,11.71,0,0,0,.08,16,12,12,0,0,0,16.77.09,11.71,11.71,0,0,0-.25-16.54l0,0a11.54,11.54,0,0,0-16.32.2A3.45,3.45,0,0,0,1830.08,265Z" style="fill:#fff"/><path d="M1846.16,382.61a12.1,12.1,0,0,0,.09-16.77,11.72,11.72,0,0,0-16-.18,11.35,11.35,0,0,0-1,16l.39.43a11.72,11.72,0,0,0,16.55.49Z" style="fill:#fff"/><path d="M1820.91,407.93a12.17,12.17,0,0,0,.28-16.76,11.72,11.72,0,0,0-16.57.1l-.08.08a11.45,11.45,0,0,0-.27,16A11.8,11.8,0,0,0,1820.91,407.93Z" style="fill:#fff"/><path d="M1820.91,357.53a12.18,12.18,0,0,0,.28-16.77,11.83,11.83,0,0,0-16.09-.47,11.38,11.38,0,0,0-1.28,16c.14.17.3.34.45.5a11.71,11.71,0,0,0,16.56.76Z" style="fill:#fff"/><path d="M1830.72,314.81a11.82,11.82,0,0,0-.56,16.65,12,12,0,0,0,16.77.08,11.7,11.7,0,0,0-.25-16.53l0,0a11.26,11.26,0,0,0-15.92-.2Z" style="fill:#fff"/><path d="M1855.5,340.43a11.65,11.65,0,0,0-.18,16.09,11.84,11.84,0,0,0,16.74.12l0,0a11.61,11.61,0,0,0,0-16,11.31,11.31,0,0,0-16-.79C1855.91,340,1855.7,340.22,1855.5,340.43Z" style="fill:#fff"/><path d="M1855.5,102.12a11.84,11.84,0,0,0,16.74-.07l0,0a11.5,11.5,0,0,0,.56-14.89c-6.29.28-12.49.65-18.68,1.2A11.44,11.44,0,0,0,1855.5,102.12Z" style="fill:#fff"/><path d="M1855.88,391.48a11.55,11.55,0,0,0-.54,16.33l.26.26a11.45,11.45,0,0,0,16,.37,11.64,11.64,0,0,0,.64-16.45l-.18-.19A11.82,11.82,0,0,0,1855.88,391.48Z" style="fill:#fff"/><path d="M1855.69,493.77a11.55,11.55,0,0,0-.55,16,11.73,11.73,0,0,0,16.57.54l.07-.07a11.51,11.51,0,0,0-16.09-16.47Z" style="fill:#fff"/><path d="M1855.6,289.92a11.76,11.76,0,0,0-.28,16.1,11.92,11.92,0,0,0,16.77.18,11.62,11.62,0,0,0,.09-16,11.37,11.37,0,0,0-16.06-.78C1855.94,289.58,1855.77,289.75,1855.6,289.92Z" style="fill:#fff"/><path d="M1855.5,239.7a11.67,11.67,0,0,0,0,16,11.84,11.84,0,0,0,16.74-.07l0,0a11.52,11.52,0,0,0-.18-16,11.37,11.37,0,0,0-16.08-.43Q1855.76,239.43,1855.5,239.7Z" style="fill:#fff"/><path d="M1855.88,137.22a11.62,11.62,0,0,0-.74,16,11.45,11.45,0,0,0,16.16,1.1l.4-.36a11.52,11.52,0,1,0-15.82-16.76Z" style="fill:#fff"/><path d="M1871.5,458.9a11.61,11.61,0,0,0,.76-16.42l-.2-.22a11.82,11.82,0,0,0-16.1-.46,11.64,11.64,0,0,0-.64,16.44l.18.2A11.44,11.44,0,0,0,1871.5,458.9Z" style="fill:#fff"/><path d="M1871.88,204.28a11.52,11.52,0,1,0-16.29-.18,11.51,11.51,0,0,0,16.29.18Z" style="fill:#fff"/><path d="M1897.12,535.11a11.41,11.41,0,1,0-16.14,0l.24.24a11.19,11.19,0,0,0,15.81-.18Z" style="fill:#fff"/><path d="M1881.77,467.87a11.54,11.54,0,0,0-.32,16.32c.08.08.15.16.23.23a11.37,11.37,0,1,0,.09-16.55Z" style="fill:#fff"/><path d="M1896.76,179.22a11.4,11.4,0,1,0-.51.44C1896.43,179.52,1896.6,179.37,1896.76,179.22Z" style="fill:#fff"/><path d="M1896.94,280.86a11.33,11.33,0,0,0,.28-15.9,11.45,11.45,0,0,0-16.18-.38l-.38.38a11.33,11.33,0,0,0,.37,15.9,11.17,11.17,0,0,0,15.8.1Z" style="fill:#fff"/><path d="M1881.77,315.45a11.27,11.27,0,0,0-.65,15.91h0a11.38,11.38,0,0,0,16.07.91,5.11,5.11,0,0,0,.48-.45,11.41,11.41,0,0,0-15.91-16.37Z" style="fill:#fff"/><path d="M1881.13,112.24a11.27,11.27,0,0,0,.73,15.91h0a11.42,11.42,0,1,0-.54-16.14Z" style="fill:#fff"/><path d="M1897.22,433.1a11.33,11.33,0,0,0-.28-15.9,11.17,11.17,0,0,0-15.81-.11l-.1.11a11.31,11.31,0,0,0-.32,16,8.08,8.08,0,0,0,.6.57A11.53,11.53,0,0,0,1897.22,433.1Z" style="fill:#fff"/><path d="M1882,213.25A11.43,11.43,0,0,0,1897.5,230h0a11.27,11.27,0,0,0,.46-15.91A11.55,11.55,0,0,0,1882,213.25Z" style="fill:#fff"/><path d="M1897.4,382.51a11.41,11.41,0,0,0-15.3-16.94c-.21.19-.41.39-.61.59a11.42,11.42,0,0,0,15.91,16.38Z" style="fill:#fff"/><path d="M1906.57,391.66a11.06,11.06,0,0,0,.2,15.66,3.07,3.07,0,0,0,.26.25,11.29,11.29,0,1,0-.42-16Z" style="fill:#fff"/><path d="M1906.75,239a11.45,11.45,0,0,0,0,16,11.28,11.28,0,0,0,16,0l0,0a11,11,0,0,0,.33-15.59c-.11-.11-.21-.22-.33-.32A11.34,11.34,0,0,0,1906.75,239Z" style="fill:#fff"/><path d="M1906.83,290.72a11.19,11.19,0,0,0-.11,15.81l.11.1a11.31,11.31,0,0,0,16,0l0,0a11.45,11.45,0,0,0,0-16,11.3,11.3,0,0,0-16,.07Z" style="fill:#fff"/><path d="M1906.75,102.54a11.18,11.18,0,0,0,17.29-14c-5.82-.55-11.65-1-17.57-1.2A11,11,0,0,0,1906.75,102.54Z" style="fill:#fff"/><path d="M1906.75,137.22a11.09,11.09,0,0,0,0,15.69c.07.08.15.15.23.23a11.29,11.29,0,0,0,15.9-16l-.17-.16a11.08,11.08,0,0,0-15.67,0Z" style="fill:#fff"/><path d="M1906.47,188.83a11.44,11.44,0,0,0,.56,16,11.29,11.29,0,0,0,16-.6l0,0a11,11,0,0,0-.21-15.59l-.35-.33A11.45,11.45,0,0,0,1906.47,188.83Z" style="fill:#fff"/><path d="M1906.83,341a11,11,0,0,0-.33,15.59l.33.33a11.31,11.31,0,0,0,16,.12l0,0a11.32,11.32,0,1,0-16-16Z" style="fill:#fff"/><path d="M1922.93,509.12a11.29,11.29,0,0,0-16.46-15.45,11.53,11.53,0,0,0,.46,16,11.29,11.29,0,0,0,16-.51Z" style="fill:#fff"/><path d="M1906.47,443.18a11.44,11.44,0,0,0,.46,16,11.32,11.32,0,1,0-.46-16Z" style="fill:#fff"/><path d="M1957.59,494.41a11.09,11.09,0,0,0,.31,15.69l.25.23a11.47,11.47,0,0,0,15.36-.37,11.09,11.09,0,0,0,0-15.69l-.23-.22A10.83,10.83,0,0,0,1958,494Z" style="fill:#fff"/><path d="M1932.64,519.29a11.27,11.27,0,0,0-.09,15.92,11.53,11.53,0,0,0,16,0,11.27,11.27,0,0,0-.09-15.92,11,11,0,0,0-15.56-.26Z" style="fill:#fff"/><path d="M1957.06,341.45a10.78,10.78,0,0,0,.09,15.25h0a11,11,0,0,0,15.58.61l.34-.33a11.46,11.46,0,0,0-.11-16,11,11,0,0,0-15.61.13C1957.25,341.24,1957.15,341.34,1957.06,341.45Z" style="fill:#fff"/><path d="M1948.09,382.05a11.54,11.54,0,0,0-.28-16,11.19,11.19,0,0,0-15.81.25l-.1.11a10.9,10.9,0,0,0-.12,15.43l.39.39a11.26,11.26,0,0,0,15.91-.17Z" style="fill:#fff"/><path d="M1958.08,290.11a11.08,11.08,0,0,0-.41,15.68l.22.23a11.45,11.45,0,0,0,16-.28,11,11,0,0,0-.31-15.61l-.33-.3A10.77,10.77,0,0,0,1958.08,290.11Z" style="fill:#fff"/><path d="M1947.81,331.92a11.64,11.64,0,0,0,.38-16,11.12,11.12,0,1,0-.38,16Z" style="fill:#fff"/><path d="M1973.61,255.71a11.1,11.1,0,0,0,.15-15.69l-.23-.22a10.74,10.74,0,0,0-15.19-.37c-.22.21-.43.42-.63.65a11.16,11.16,0,0,0-.09,15.36A11.53,11.53,0,0,0,1973.61,255.71Z" style="fill:#fff"/><path d="M1932.64,265a11.24,11.24,0,0,0-.09,15.9,11.61,11.61,0,0,0,16,0,11.24,11.24,0,0,0-.09-15.9,10.9,10.9,0,0,0-15.4-.43A5.66,5.66,0,0,0,1932.64,265Z" style="fill:#fff"/><path d="M1957.71,188.19a11,11,0,0,0,.26,15.55l.39.35a10.79,10.79,0,0,0,15.25-.18h0a11.09,11.09,0,0,0,.43-15.67l-.25-.25A11.65,11.65,0,0,0,1957.71,188.19Z" style="fill:#fff"/><path d="M1947.72,229.81a11,11,0,0,0,.47-15.52l-.28-.3a11.18,11.18,0,0,0-15.81-.38l-.11.1a11.54,11.54,0,0,0-.18,16,11.26,11.26,0,0,0,15.91.11Z" style="fill:#fff"/><path d="M1973.61,153.4a11.17,11.17,0,0,0,.09-15.8l-.09-.1a11.43,11.43,0,0,0-16,.46,11.17,11.17,0,0,0,.27,15.37,10.79,10.79,0,0,0,15.25.54C1973.3,153.72,1973.46,153.56,1973.61,153.4Z" style="fill:#fff"/><path d="M1932.55,162.85a11.24,11.24,0,0,0,.09,15.9,11,11,0,0,0,15.52.3l.3-.3a11.24,11.24,0,0,0,.09-15.9A11.44,11.44,0,0,0,1932.55,162.85Z" style="fill:#fff"/><path d="M1957.59,101.61a11.54,11.54,0,0,0,16,.56,10.29,10.29,0,0,0,2.79-5.28c-7.12-1.66-14.33-3.14-21.56-4.34A10.7,10.7,0,0,0,1957.59,101.61Z" style="fill:#fff"/><path d="M1948,127.88a11.51,11.51,0,0,0,.1-16,11.17,11.17,0,0,0-15.81-.11l-.11.11a11,11,0,0,0-.37,15.52l.29.29a11.17,11.17,0,0,0,15.8.26Z" style="fill:#fff"/><path d="M1957.59,442.72a11.28,11.28,0,0,0,.19,15.37,10.84,10.84,0,0,0,15.3.69c.18-.17.35-.33.52-.51a11.17,11.17,0,0,0,.1-15.8l-.1-.11A11.47,11.47,0,0,0,1957.59,442.72Z" style="fill:#fff"/><path d="M1947.63,484.34a10.9,10.9,0,0,0,.76-15.39,5.33,5.33,0,0,0-.4-.42,11.18,11.18,0,0,0-15.8-.56l-.1.09a11.25,11.25,0,0,0,15.54,16.28Z" style="fill:#fff"/><path d="M1932.55,417.2a11.17,11.17,0,0,0,.09,15.8l.09.1a11,11,0,0,0,15.53.2l.29-.29a11.18,11.18,0,0,0,.11-15.8l-.11-.11A11.52,11.52,0,0,0,1932.55,417.2Z" style="fill:#fff"/><path d="M1958.45,391.48a11.17,11.17,0,0,0-1.48,15.25,10.89,10.89,0,0,0,15.22,2.34c.17-.13.34-.26.5-.4a11.24,11.24,0,0,0,1.84-15.79l-.08-.1A11.55,11.55,0,0,0,1958.45,391.48Z" style="fill:#fff"/><path d="M1998.4,178.84a11.08,11.08,0,0,0,.81-15.64l-.16-.17a11.53,11.53,0,0,0-16-.18,11.17,11.17,0,0,0,.19,15.8h0a10.68,10.68,0,0,0,15.11.23Z" style="fill:#fff"/><path d="M1983.78,111.78a11.64,11.64,0,0,0-.08,16,11.05,11.05,0,0,0,15.25.28,10.68,10.68,0,0,0,1.3-15c-.2-.24-.42-.47-.64-.69a11,11,0,0,0-15.55-.82Z" style="fill:#fff"/><path d="M1998.87,432.82a11.07,11.07,0,0,0-.11-15.65c0-.06-.11-.11-.17-.17a11.65,11.65,0,0,0-16,.66,11.17,11.17,0,0,0,.46,15.25,10.84,10.84,0,0,0,15.33.41C1998.54,433.16,1998.71,433,1998.87,432.82Z" style="fill:#fff"/><path d="M1983.42,519.21a11.07,11.07,0,0,0-.63,15.64l.17.18a11.64,11.64,0,0,0,16,0,11,11,0,0,0-.15-15.53c-.1-.1-.2-.2-.31-.29A10.66,10.66,0,0,0,1983.42,519.21Z" style="fill:#fff"/><path d="M1983.42,214.45a10.66,10.66,0,0,0,.28,15.08h0a11.06,11.06,0,0,0,15.64.26l.17-.16a11.54,11.54,0,0,0-.37-16,10.9,10.9,0,0,0-15.41.49Z" style="fill:#fff"/><path d="M1998.87,280.77a11.18,11.18,0,0,0-.18-15.8h0a10.71,10.71,0,0,0-15.14-.25c-.2.2-.4.4-.58.61a11.18,11.18,0,0,0,.54,15.8l0,0A11.58,11.58,0,0,0,1998.87,280.77Z" style="fill:#fff"/><path d="M1983.06,366.78a11.06,11.06,0,0,0,.07,15.64l.19.19a10.59,10.59,0,0,0,15,.28l.11-.1a11.09,11.09,0,0,0,.81-15.65l-.16-.17A11.71,11.71,0,0,0,1983.06,366.78Z" style="fill:#fff"/><path d="M1998.68,484.91a11.17,11.17,0,0,0,.1-15.8h0a10.57,10.57,0,0,0-14.94-.6l-.13.12a11.08,11.08,0,0,0-1.09,15.63l.17.19A11.49,11.49,0,0,0,1998.68,484.91Z" style="fill:#fff"/><path d="M1998.87,331.24a11.07,11.07,0,0,0-.11-15.65c0-.06-.11-.11-.17-.17a10.73,10.73,0,0,0-15.17-.13c-.2.19-.38.39-.56.59a11.06,11.06,0,0,0,0,15.26A11.73,11.73,0,0,0,1998.87,331.24Z" style="fill:#fff"/></g></g></svg>