<svg xmlns="http://www.w3.org/2000/svg" xmlns:xlink="http://www.w3.org/1999/xlink" viewBox="0 0 2000 400"><defs><clipPath id="a"><rect x="338.47" y="0.4" width="1661.53" height="399.6" style="fill:none"/></clipPath><linearGradient id="b" x1="1090.9" y1="108.47" x2="1332.07" y2="349.65" gradientTransform="matrix(1, 0, 0, -1, 0, 400)" gradientUnits="userSpaceOnUse"><stop offset="0" stop-color="#662483"/><stop offset="0.18" stop-color="#5e2683"/><stop offset="0.5" stop-color="#462b83"/><stop offset="0.73" stop-color="#2d2e83"/><stop offset="1" stop-color="#195d93"/></linearGradient><linearGradient id="c" x1="1605.03" y1="6.6" x2="1688.28" y2="89.84" gradientTransform="matrix(0.21, -0.98, -0.98, -0.21, 972.35, 2012.23)" xlink:href="#b"/><linearGradient id="d" x1="1803.23" y1="-452.73" x2="1886.48" y2="-369.48" gradientTransform="matrix(0.91, -0.4, -0.4, -0.91, -213.5, 397.22)" gradientUnits="userSpaceOnUse"><stop offset="0" stop-color="#662483"/><stop offset="0.18" stop-color="#612c85"/><stop offset="0.5" stop-color="#533e8a"/><stop offset="0.91" stop-color="#2b5892"/><stop offset="1" stop-color="#195d93"/></linearGradient></defs><g style="clip-path:url(#a)"><polygon points="1211.48 -18.2 1263.72 351.27 1344.22 447.27 2000 442.11 2000 -32.11 1211.48 -18.2" style="fill:#92358b"/><circle cx="1211.48" cy="170.94" r="170.54" style="fill:url(#b)"/><circle cx="1272.66" cy="392.45" r="58.85" style="fill:url(#c)"/><circle cx="1639.95" cy="26.75" r="58.85" style="fill:url(#d)"/><g style="opacity:0.23000000417232513"><path d="M998.51,171.73l-66.4,124c-.13,2.19-.27,4.37-.27,6.55l72-134.39c-1.79,1.26-3.58,2.52-5.3,3.84" style="fill:#fff"/><path d="M951.84,226.55a166.42,166.42,0,0,0-12.12,28.73l29.33-54.75a171.71,171.71,0,0,0-17.21,26" style="fill:#fff"/><path d="M1024.59,155.31,932.9,326.51c.4,3.18.86,6.36,1.39,9.47l99-184.77c-2.92,1.32-5.83,2.65-8.68,4.1" style="fill:#fff"/><path d="M1050.94,144.52,938.53,354.45c.73,2.58,1.52,5.1,2.38,7.62l117.71-219.86c-2.58.79-5.16,1.52-7.68,2.31" style="fill:#fff"/><path d="M1099.73,136.18,958.59,399.67c1.72,2.71,3.51,5.43,5.36,8.08l145.52-271.63c-3.25,0-6.49,0-9.74.06" style="fill:#fff"/><path d="M1074.58,138.76,946.81,377.36c1.45,3.24,2.91,6.42,4.56,9.6L1085.1,137.24c-3.51.4-7,.93-10.52,1.52" style="fill:#fff"/><path d="M1147.86,141.21,989.51,436.94c2.84,2.65,5.82,5.16,8.87,7.61l160.8-300.23c-3.84-1.12-7.54-2.18-11.32-3.11" style="fill:#fff"/><path d="M1123.1,137,972.23,418.67c2.58,3.11,5.23,6.16,8,9.14l154.91-289.18c-4-.66-8-1.26-12.05-1.65" style="fill:#fff"/><path d="M1171,148.5l-162.6,303.6c3.91,2.72,7.88,5.3,12,7.75l163.66-305.66c-4.37-2.05-8.74-4-13.11-5.69" style="fill:#fff"/><path d="M1195.07,160,1031.28,465.87c4.3,2.19,8.61,4.11,13,6l162.92-304.27q-5.85-4-12.11-7.55" style="fill:#fff"/><path d="M1217.31,174.84,1056,476.13a164.7,164.7,0,0,0,16.89,4.7l157.76-294.6c-4.24-3.9-8.61-7.74-13.31-11.39" style="fill:#fff"/><path d="M1239.75,195.57,1085.63,483.28a173.93,173.93,0,0,0,18.41,1.86l147.5-275.34c-3.71-4.9-7.62-9.67-11.79-14.23" style="fill:#fff"/><path d="M1276.76,257.53l-119,222.24a170.52,170.52,0,0,0,27.8-9.73l98.51-184a172.55,172.55,0,0,0-7.28-28.53" style="fill:#fff"/><path d="M1259.35,221.38,1118,485.34a179.11,179.11,0,0,0,23.83-2.26l128.9-240.64a180.28,180.28,0,0,0-11.39-21.06" style="fill:#fff"/><path d="M1286.36,308.11l-81.23,151.67a169.55,169.55,0,0,0,53.76-52.1l13.83-25.89a168.73,168.73,0,0,0,13.64-73.68" style="fill:#fff"/></g><g style="opacity:0.20000000298023224"><path d="M1351.77,309.9a9,9,0,0,0,.59-13,8.88,8.88,0,0,0-5.69-2.58c-1.32,5.76-2.51,11.59-3.51,17.48A8.71,8.71,0,0,0,1351.77,309.9Z" style="fill:#fff"/><path d="M1351.7,346a9.09,9.09,0,0,0,.73-13,9.5,9.5,0,0,0-11.92-1.13c-.39,4.57-.72,9.21-.92,13.84A8.82,8.82,0,0,0,1351.7,346Z" style="fill:#fff"/><path d="M1352.3,382.59a9.09,9.09,0,0,0-.53-13,8.81,8.81,0,0,0-12.25.2c.2,4.64.53,9.2.93,13.77A9.31,9.31,0,0,0,1352.3,382.59Z" style="fill:#fff"/><path d="M1406.92,315a8.9,8.9,0,1,0-12.25,12.91,9.14,9.14,0,0,0,12.51-.47A8.79,8.79,0,0,0,1406.92,315Z" style="fill:#fff"/><path d="M1376,333.47a8.72,8.72,0,0,0-.13,12.44,8.93,8.93,0,0,0,12.51.4,9.2,9.2,0,0,0,.13-13A9,9,0,0,0,1376,333.47Z" style="fill:#fff"/><path d="M1369.84,327.84a9,9,0,0,0,.33-13,9.29,9.29,0,0,0-12.64,0,9,9,0,0,0-.13,12.58A8.78,8.78,0,0,0,1369.84,327.84Z" style="fill:#fff"/><path d="M1375.93,296.39a9.31,9.31,0,0,0-.2,12.65,9,9,0,0,0,13-.07,8.78,8.78,0,0,0-.2-12.44A9,9,0,0,0,1375.93,296.39Z" style="fill:#fff"/><path d="M1370.24,400.6a9,9,0,0,0-.07-12.58,8.73,8.73,0,0,0-12.44-.2,9,9,0,0,0-.53,12.58A9.21,9.21,0,0,0,1370.24,400.6Z" style="fill:#fff"/><path d="M1406.52,291.1a8.86,8.86,0,0,0,.26-12.45,9,9,0,0,0-12.91-.13,9.22,9.22,0,0,0,.2,12.58A8.8,8.8,0,0,0,1406.52,291.1Z" style="fill:#fff"/><path d="M1358.19,351.27a8.75,8.75,0,0,0-.53,12.45,9,9,0,0,0,13,.4,9.37,9.37,0,0,0,.13-12.65A9.15,9.15,0,0,0,1358.19,351.27Z" style="fill:#fff"/><path d="M1394.73,350.88a8.91,8.91,0,1,0,11.39,13.7,9.13,9.13,0,0,0,1.06-12.51A8.94,8.94,0,0,0,1394.73,350.88Z" style="fill:#fff"/><path d="M1388.58,369.41a9.08,9.08,0,0,0-12.58.07,8.74,8.74,0,0,0-.2,12.45,9,9,0,0,0,12.51.53A9.16,9.16,0,0,0,1388.58,369.41Z" style="fill:#fff"/><path d="M1394,387.62A8.89,8.89,0,1,0,1406.78,400a9.11,9.11,0,0,0-.33-12.51A8.84,8.84,0,0,0,1394,387.62Z" style="fill:#fff"/><path d="M1370.37,291.23a8.73,8.73,0,0,0,.4-12.45,9,9,0,0,0-13-.33,9.3,9.3,0,0,0,0,12.65A9,9,0,0,0,1370.37,291.23Z" style="fill:#fff"/><path d="M1375.93,260.31a9.31,9.31,0,0,0-.2,12.65,9.08,9.08,0,0,0,12.58.33,8.82,8.82,0,0,0,.2-12.91A9.08,9.08,0,0,0,1375.93,260.31Z" style="fill:#fff"/><path d="M1394.4,242a9,9,0,0,0,0,12.52,8.82,8.82,0,0,0,12.85-.2,9,9,0,0,0-.33-12.51A9.13,9.13,0,0,0,1394.4,242Z" style="fill:#fff"/><path d="M1406.78,217.94a9.2,9.2,0,0,0-.2-12.58,9,9,0,0,0-12.51,0,8.94,8.94,0,1,0,12.71,12.58Z" style="fill:#fff"/><path d="M1388.71,236.15a9.3,9.3,0,0,0,0-12.65,9,9,0,0,0-12.58-.13,8.75,8.75,0,0,0-.4,12.45A9,9,0,0,0,1388.71,236.15Z" style="fill:#fff"/><path d="M1370.11,254.82a9,9,0,0,0-4.37-15.23c-2.45,5.23-4.77,10.59-6.89,16A9.28,9.28,0,0,0,1370.11,254.82Z" style="fill:#fff"/><path d="M1406.72,181.93a8.94,8.94,0,0,0,2.12-8.14c-3,3.5-6.1,7.08-8.94,10.72A8.49,8.49,0,0,0,1406.72,181.93Z" style="fill:#fff"/><path d="M1412.54,333.14a8.78,8.78,0,1,0,12.38-.07A8.76,8.76,0,0,0,1412.54,333.14Z" style="fill:#fff"/><path d="M1412.68,260a8.8,8.8,0,1,0,12.44.2A8.79,8.79,0,0,0,1412.68,260Z" style="fill:#fff"/><path d="M1424.46,163.92a8.87,8.87,0,0,0,2.78-9.07c-3.71,3.51-7.35,7.15-10.92,10.86A9,9,0,0,0,1424.46,163.92Z" style="fill:#fff"/><path d="M1424.46,382.13a8.8,8.8,0,1,0-12.45-.2A8.8,8.8,0,0,0,1424.46,382.13Z" style="fill:#fff"/><path d="M1424.66,199.87a8.8,8.8,0,1,0-12.51.2A8.8,8.8,0,0,0,1424.66,199.87Z" style="fill:#fff"/><path d="M1413.07,223.57a8.78,8.78,0,1,0,12.38,1A8.74,8.74,0,0,0,1413.07,223.57Z" style="fill:#fff"/><path d="M1412.68,296.86a8.8,8.8,0,1,0,12.38.33A8.85,8.85,0,0,0,1412.68,296.86Z" style="fill:#fff"/><path d="M1442.93,145.38a8.83,8.83,0,0,0,2.65-6.35c-3.51,2.78-6.95,5.63-10.33,8.6A8.43,8.43,0,0,0,1442.93,145.38Z" style="fill:#fff"/><path d="M1467.82,315.06a8.63,8.63,0,0,0-.2,12.45,8.87,8.87,0,0,0,12.05.13,8.57,8.57,0,0,0,.07-12.45A8.34,8.34,0,0,0,1467.82,315.06Z" style="fill:#fff"/><path d="M1449.55,333.33a8.47,8.47,0,0,0-.46,12.45,8.62,8.62,0,0,0,12.05.46,8.81,8.81,0,0,0,.46-12.51A8.62,8.62,0,0,0,1449.55,333.33Z" style="fill:#fff"/><path d="M1430.42,351.34a8.74,8.74,0,0,0,.06,12.05,8.73,8.73,0,1,0,12.45-12.25A8.81,8.81,0,0,0,1430.42,351.34Z" style="fill:#fff"/><path d="M1442.6,181.8a8.69,8.69,0,0,0,.66-12.45,8.79,8.79,0,0,0-12.45-.4,8.72,8.72,0,0,0,11.79,12.85Z" style="fill:#fff"/><path d="M1461.14,163.13a8.62,8.62,0,0,0-.07-12,8.8,8.8,0,0,0-12.51.13,8.64,8.64,0,0,0,.59,12.45A8.44,8.44,0,0,0,1461.14,163.13Z" style="fill:#fff"/><path d="M1479.41,145.78a8.54,8.54,0,0,0,1-11.92,8.35,8.35,0,0,0-12.31-1.12,8.56,8.56,0,0,0-1.19,11.92A8.91,8.91,0,0,0,1479.41,145.78Z" style="fill:#fff"/><path d="M1430.42,388.35a8.67,8.67,0,0,0,.06,12,8.73,8.73,0,1,0,12.38-12.32A8.56,8.56,0,0,0,1430.42,388.35Z" style="fill:#fff"/><path d="M1449.15,369.75a8.55,8.55,0,0,0-.2,12,8.64,8.64,0,0,0,12.52.2,8.89,8.89,0,0,0,.2-12.11A8.59,8.59,0,0,0,1449.15,369.75Z" style="fill:#fff"/><path d="M1467,352a8.35,8.35,0,0,0,.46,11.92,8.61,8.61,0,0,0,12,.07,8.88,8.88,0,0,0,0-12.52A8.75,8.75,0,0,0,1467,352Z" style="fill:#fff"/><path d="M1479.28,291a8.33,8.33,0,0,0,.39-11.91,8.62,8.62,0,0,0-12.44-.47,8.87,8.87,0,0,0,0,12.52A8.74,8.74,0,0,0,1479.28,291Z" style="fill:#fff"/><path d="M1449.09,296.66a8.8,8.8,0,0,0,.13,12.51,8.68,8.68,0,0,0,12-.2,8.66,8.66,0,0,0-12.18-12.31Z" style="fill:#fff"/><path d="M1430.35,315.33a8.74,8.74,0,0,0,.66,12.44,8.74,8.74,0,0,0,11.79-12.91A8.93,8.93,0,0,0,1430.35,315.33Z" style="fill:#fff"/><path d="M1479.34,182a8.86,8.86,0,0,0,.13-12.51,8.59,8.59,0,0,0-12-.06,8.33,8.33,0,0,0-.53,11.91A8.49,8.49,0,0,0,1479.34,182Z" style="fill:#fff"/><path d="M1449,187.75a8.69,8.69,0,0,0,12.58,12,8.69,8.69,0,1,0-12.58-12Z" style="fill:#fff"/><path d="M1443.06,218.34a8.73,8.73,0,0,0,.13-12.05,8.73,8.73,0,1,0-12.64,12.05A8.87,8.87,0,0,0,1443.06,218.34Z" style="fill:#fff"/><path d="M1479.28,218.14a8.81,8.81,0,0,0,.19-12.51,8.68,8.68,0,0,0-12.44.26,8.39,8.39,0,0,0,.2,11.92A8.61,8.61,0,0,0,1479.28,218.14Z" style="fill:#fff"/><path d="M1461.2,236.21a8.66,8.66,0,0,0-.26-12,8.54,8.54,0,0,0-12-.2,8.64,8.64,0,0,0-.2,12.51A8.86,8.86,0,0,0,1461.2,236.21Z" style="fill:#fff"/><path d="M1430.68,242.11a8.76,8.76,0,1,0,12.45.26A8.57,8.57,0,0,0,1430.68,242.11Z" style="fill:#fff"/><path d="M1479.08,400.33a8.86,8.86,0,0,0,.59-12.45,8.54,8.54,0,0,0-12-.46,8.38,8.38,0,0,0-.6,12.32A8.56,8.56,0,0,0,1479.08,400.33Z" style="fill:#fff"/><path d="M1467.16,242.57a8.81,8.81,0,0,0-.2,12.05,8.62,8.62,0,0,0,12.45.13,8.34,8.34,0,0,0,.2-11.92A8.69,8.69,0,0,0,1467.16,242.57Z" style="fill:#fff"/><path d="M1449.15,260.51a8.81,8.81,0,0,0,.14,12.51,8.63,8.63,0,0,0,12.44-.59,8.49,8.49,0,0,0-.53-12A8.68,8.68,0,0,0,1449.15,260.51Z" style="fill:#fff"/><path d="M1431.41,278.19a8.79,8.79,0,0,0-.66,12.44,8.73,8.73,0,1,0,12.71-12A8.81,8.81,0,0,0,1431.41,278.19Z" style="fill:#fff"/><path d="M1485.63,115.33a8.51,8.51,0,0,0,0,11.91,8.85,8.85,0,0,0,12.45-.06,8.67,8.67,0,0,0-.6-12.38A8.26,8.26,0,0,0,1485.63,115.33Z" style="fill:#fff"/><path d="M1486,296.92a8.61,8.61,0,0,0-.47,12.38,8.85,8.85,0,0,0,12.45-.06,8.58,8.58,0,0,0-.13-11.92A8.32,8.32,0,0,0,1486,296.92Z" style="fill:#fff"/><path d="M1485.76,151.21a8.59,8.59,0,0,0,.07,12.38,8.78,8.78,0,0,0,12-.13,8.66,8.66,0,0,0-.2-12.38A8.25,8.25,0,0,0,1485.76,151.21Z" style="fill:#fff"/><path d="M1497.08,382.32a8.78,8.78,0,0,0,.6-12.38,8.59,8.59,0,0,0-11.92-.53,8.3,8.3,0,0,0-.59,12.25A8.64,8.64,0,0,0,1497.08,382.32Z" style="fill:#fff"/><path d="M1497.88,224a8.92,8.92,0,0,0-12.45.27,8.57,8.57,0,0,0,.33,11.91,8.25,8.25,0,0,0,11.85.14A8.59,8.59,0,0,0,1497.88,224Z" style="fill:#fff"/><path d="M1485.76,187.36a8.29,8.29,0,0,0-.59,12.24,8.58,8.58,0,0,0,11.91.6,8.78,8.78,0,0,0,.6-12.38A8.52,8.52,0,0,0,1485.76,187.36Z" style="fill:#fff"/><path d="M1497.55,345.78a8.86,8.86,0,0,0-.4-12.45,8.52,8.52,0,0,0-11.92.47,8.28,8.28,0,0,0,.4,12.24A8.64,8.64,0,0,0,1497.55,345.78Z" style="fill:#fff"/><path d="M1485,260.78a8.78,8.78,0,0,0,.14,12,8.66,8.66,0,0,0,12.38-.2,8.25,8.25,0,0,0-.14-11.85A8.65,8.65,0,0,0,1485,260.78Z" style="fill:#fff"/><path d="M1515.49,363.85a8.86,8.86,0,0,0,.06-12.05,8.59,8.59,0,0,0-12-.19,8.2,8.2,0,0,0-.46,11.85A8.54,8.54,0,0,0,1515.49,363.85Z" style="fill:#fff"/><path d="M1504.17,132.94a8.47,8.47,0,0,0-.4,12.31,8.79,8.79,0,0,0,12,.07,8.51,8.51,0,0,0,.2-11.92A8.23,8.23,0,0,0,1504.17,132.94Z" style="fill:#fff"/><path d="M1504.1,169.08a8.48,8.48,0,0,0-.2,12.32,8.8,8.8,0,0,0,12-.07,8.57,8.57,0,0,0,.06-11.91A8.26,8.26,0,0,0,1504.1,169.08Z" style="fill:#fff"/><path d="M1503.9,206a8.58,8.58,0,0,0,.13,12.31,8.27,8.27,0,0,0,11.86-.26,8.52,8.52,0,0,0,0-11.92A8.86,8.86,0,0,0,1503.9,206Z" style="fill:#fff"/><path d="M1503.77,242.17a8.54,8.54,0,0,0,.33,12.32,8.14,8.14,0,0,0,11.79-.47,8.57,8.57,0,0,0-.14-11.91A8.78,8.78,0,0,0,1503.77,242.17Z" style="fill:#fff"/><path d="M1503.57,315.66a8.57,8.57,0,0,0,.4,11.91,8.85,8.85,0,0,0,12-.26,8.58,8.58,0,0,0-.13-11.92A8.13,8.13,0,0,0,1503.57,315.66Z" style="fill:#fff"/><path d="M1503.64,388.28a8.49,8.49,0,0,0,.59,12.32,8.15,8.15,0,0,0,11.79-.67,8.51,8.51,0,0,0-.4-11.91A8.79,8.79,0,0,0,1503.64,388.28Z" style="fill:#fff"/><path d="M1516.15,109a8.7,8.7,0,0,0,1.06-10.92c-5.1,2-10.2,4.1-15.16,6.42a8.42,8.42,0,0,0,14.1,4.5Z" style="fill:#fff"/><path d="M1516.15,291a8.57,8.57,0,0,0-.6-11.91,8.26,8.26,0,0,0-11.85.33,8.52,8.52,0,0,0,0,11.92A8.86,8.86,0,0,0,1516.15,291Z" style="fill:#fff"/><path d="M1551.9,400.07a8.46,8.46,0,0,0-.13-11.92,8.8,8.8,0,0,0-12,.2,8.45,8.45,0,0,0,.34,11.91A8.12,8.12,0,0,0,1551.9,400.07Z" style="fill:#fff"/><path d="M1540.25,351.74a8.71,8.71,0,0,0,0,12,8.5,8.5,0,0,0,11.91-.07,8.11,8.11,0,0,0,0-11.78A8.57,8.57,0,0,0,1540.25,351.74Z" style="fill:#fff"/><path d="M1533.83,382.06a8.53,8.53,0,0,0-.07-12,8.86,8.86,0,0,0-12,.13,8.59,8.59,0,0,0,.27,12A8.14,8.14,0,0,0,1533.83,382.06Z" style="fill:#fff"/><path d="M1551.7,327.44a8.5,8.5,0,0,0,.2-11.91,8.17,8.17,0,0,0-11.78-.34,8.59,8.59,0,0,0-.4,11.92A8.79,8.79,0,0,0,1551.7,327.44Z" style="fill:#fff"/><path d="M1534,345.25a8.54,8.54,0,0,0-.39-12,8.2,8.2,0,0,0-11.85.26,8.53,8.53,0,0,0,.2,12A8.8,8.8,0,0,0,1534,345.25Z" style="fill:#fff"/><path d="M1522.37,187.56a8.8,8.8,0,0,0-.26,12,8.52,8.52,0,0,0,12,.2,8.15,8.15,0,0,0,.33-11.85A8.63,8.63,0,0,0,1522.37,187.56Z" style="fill:#fff"/><path d="M1540.51,169.48a8.8,8.8,0,0,0-.33,12,8.51,8.51,0,0,0,11.92.27,8.19,8.19,0,0,0,.4-11.78A8.68,8.68,0,0,0,1540.51,169.48Z" style="fill:#fff"/><path d="M1552.23,254.75a8.79,8.79,0,0,0,.13-12,8.5,8.5,0,0,0-11.91-.07,8.13,8.13,0,0,0-.14,11.79A8.52,8.52,0,0,0,1552.23,254.75Z" style="fill:#fff"/><path d="M1522.31,260.84a8.14,8.14,0,0,0,.13,11.85,8.52,8.52,0,0,0,12-.06,8.87,8.87,0,0,0-.13-12.05A8.59,8.59,0,0,0,1522.31,260.84Z" style="fill:#fff"/><path d="M1533.89,236.08a8.52,8.52,0,0,0-.06-12,8.87,8.87,0,0,0-12,.13,8.59,8.59,0,0,0,.26,12A8.14,8.14,0,0,0,1533.89,236.08Z" style="fill:#fff"/><path d="M1540.18,205.89a8.87,8.87,0,0,0,.27,12,8.58,8.58,0,0,0,11.91-.4,8.13,8.13,0,0,0-.26-11.79A8.52,8.52,0,0,0,1540.18,205.89Z" style="fill:#fff"/><path d="M1534.22,126.91a8.8,8.8,0,0,0,.27-12,8.53,8.53,0,0,0-12-.13,8.15,8.15,0,0,0-.27,11.85A8.65,8.65,0,0,0,1534.22,126.91Z" style="fill:#fff"/><path d="M1552.43,108.64a8.8,8.8,0,0,0-.13-12,8.57,8.57,0,0,0-11.92.2,8.18,8.18,0,0,0,.13,11.78A8.5,8.5,0,0,0,1552.43,108.64Z" style="fill:#fff"/><path d="M1552.3,290.83a8.8,8.8,0,0,0,.06-12,8.43,8.43,0,0,0-11.91.07,8.11,8.11,0,0,0-.07,11.78A8.58,8.58,0,0,0,1552.3,290.83Z" style="fill:#fff"/><path d="M1533.89,309.3a8.59,8.59,0,0,0-.06-12,8.14,8.14,0,0,0-11.85,0,8.53,8.53,0,0,0-.14,12A8.8,8.8,0,0,0,1533.89,309.3Z" style="fill:#fff"/><path d="M1552.16,144.92a8.79,8.79,0,0,0,.34-12,8.52,8.52,0,0,0-11.92-.27,8.2,8.2,0,0,0-.4,11.79A8.61,8.61,0,0,0,1552.16,144.92Z" style="fill:#fff"/><path d="M1533.36,163.79a8.52,8.52,0,0,0,.86-11.92,8.24,8.24,0,0,0-11.85-1,8.5,8.5,0,0,0-1.06,11.92A9,9,0,0,0,1533.36,163.79Z" style="fill:#fff"/><path d="M1570.37,126.65a8.73,8.73,0,0,0-.2-12.05,8.55,8.55,0,0,0-12,.53,8.18,8.18,0,0,0,.2,11.45A8.53,8.53,0,0,0,1570.37,126.65Z" style="fill:#fff"/><path d="M1588.24,108.64a8.58,8.58,0,0,0,0-12,8.45,8.45,0,0,0-11.91.26,8.18,8.18,0,0,0,.4,11.79A8.39,8.39,0,0,0,1588.24,108.64Z" style="fill:#fff"/><path d="M1570.3,90.7a8.57,8.57,0,0,0,2.12-7.81c-5.49.93-10.85,2-16.22,3.24a8,8,0,0,0,2.19,4.24A8.44,8.44,0,0,0,1570.3,90.7Z" style="fill:#fff"/><path d="M1569.38,200.33a8.2,8.2,0,0,0,1.45-11.78,8.43,8.43,0,0,0-11.85-1.33c-3.51,2.78-4,8.48-1.06,12A8.42,8.42,0,0,0,1569.38,200.33Z" style="fill:#fff"/><path d="M1576.79,169.42a8.45,8.45,0,0,0,0,11.45,8.13,8.13,0,0,0,11.79.26,8.38,8.38,0,0,0,.13-11.85A8.58,8.58,0,0,0,1576.79,169.42Z" style="fill:#fff"/><path d="M1577.06,315.19a8.37,8.37,0,0,0-.14,11.85,8.13,8.13,0,0,0,11.79-.06,8.31,8.31,0,0,0-.2-11.85A8.53,8.53,0,0,0,1577.06,315.19Z" style="fill:#fff"/><path d="M1558.59,333.53a8.74,8.74,0,0,0-.33,12.05,8.38,8.38,0,0,0,11.91,0,8.14,8.14,0,0,0-.13-11.85A8.46,8.46,0,0,0,1558.59,333.53Z" style="fill:#fff"/><path d="M1588.05,363.79a8.12,8.12,0,0,0,.19-11.79,8.37,8.37,0,0,0-11.85-.06,8.67,8.67,0,0,0,.2,12A8.54,8.54,0,0,0,1588.05,363.79Z" style="fill:#fff"/><path d="M1558.12,370.08a8.69,8.69,0,0,0,.14,11.58,8.38,8.38,0,0,0,11.91,0,8.14,8.14,0,0,0-.13-11.85A8.4,8.4,0,0,0,1558.12,370.08Z" style="fill:#fff"/><path d="M1558.65,151.41a8.55,8.55,0,0,0,.53,12,8.2,8.2,0,0,0,11.46-.2,8.38,8.38,0,0,0,.06-11.91A8.61,8.61,0,0,0,1558.65,151.41Z" style="fill:#fff"/><path d="M1576.73,133.4a8.37,8.37,0,0,0,.53,11.85,8.16,8.16,0,0,0,11.38-.2,8.37,8.37,0,0,0,.07-11.85A8.67,8.67,0,0,0,1576.73,133.4Z" style="fill:#fff"/><path d="M1576.66,388.75a8.45,8.45,0,0,0,.2,11.45,8.65,8.65,0,0,0,12-.07,8.44,8.44,0,0,0-.4-11.91A8.18,8.18,0,0,0,1576.66,388.75Z" style="fill:#fff"/><path d="M1559.25,224a8.47,8.47,0,0,0-.73,11.92,8.74,8.74,0,0,0,12,.4,8.39,8.39,0,0,0,.06-11.92A8.06,8.06,0,0,0,1559.25,224Z" style="fill:#fff"/><path d="M1576.73,206.56a8.39,8.39,0,0,0,.06,11.45,8.59,8.59,0,0,0,12,.06,8.37,8.37,0,0,0-.19-11.85A8.26,8.26,0,0,0,1576.73,206.56Z" style="fill:#fff"/><path d="M1588.24,290.77a8.66,8.66,0,0,0,.07-12,8.39,8.39,0,0,0-11.45-.13,8.13,8.13,0,0,0-.47,11.78A8.38,8.38,0,0,0,1588.24,290.77Z" style="fill:#fff"/><path d="M1570.17,308.9a8.72,8.72,0,0,0,.2-12,8.39,8.39,0,0,0-11.92.13,8.19,8.19,0,0,0-.19,11.45A8.45,8.45,0,0,0,1570.17,308.9Z" style="fill:#fff"/><path d="M1570.17,272.82a8.72,8.72,0,0,0,.2-12,8.47,8.47,0,0,0-11.52-.34,8.15,8.15,0,0,0-.59,11.85A8.39,8.39,0,0,0,1570.17,272.82Z" style="fill:#fff"/><path d="M1577.19,242.24a8.46,8.46,0,0,0-.4,11.92,8.59,8.59,0,0,0,12,.06,8.37,8.37,0,0,0-.19-11.85A8.06,8.06,0,0,0,1577.19,242.24Z" style="fill:#fff"/><path d="M1594.93,260.58a8.34,8.34,0,0,0-.13,11.52,8.47,8.47,0,0,0,12,.06,8.31,8.31,0,0,0,0-11.45A8.09,8.09,0,0,0,1594.93,260.58Z" style="fill:#fff"/><path d="M1594.93,90a8.47,8.47,0,0,0,12-.07,8.23,8.23,0,0,0,.4-10.66c-4.5.2-8.94.47-13.37.86A8.19,8.19,0,0,0,1594.93,90Z" style="fill:#fff"/><path d="M1595.2,297.12A8.27,8.27,0,0,0,1595,309a8.19,8.19,0,0,0,11.45.26,8.33,8.33,0,0,0,.33-11.91A8.47,8.47,0,0,0,1595.2,297.12Z" style="fill:#fff"/><path d="M1595.06,370.34a8.27,8.27,0,0,0-.39,11.45,8.39,8.39,0,0,0,11.91.34,8.24,8.24,0,1,0-11.52-11.79Z" style="fill:#fff"/><path d="M1595,224.43a8.41,8.41,0,0,0-.2,11.52,8.52,8.52,0,0,0,12,.13,8.32,8.32,0,0,0,.07-11.45A8.14,8.14,0,0,0,1595,224.43Z" style="fill:#fff"/><path d="M1594.93,188.48a8.34,8.34,0,0,0,0,11.46,8.47,8.47,0,0,0,12-.07,8.25,8.25,0,0,0-.13-11.45A8.14,8.14,0,0,0,1594.93,188.48Z" style="fill:#fff"/><path d="M1595.2,115.13a8.31,8.31,0,0,0-.53,11.45,8.2,8.2,0,0,0,11.85.53,8.24,8.24,0,1,0-11.32-12Z" style="fill:#fff"/><path d="M1606.38,345.38a8.32,8.32,0,0,0,.4-11.91,8.46,8.46,0,0,0-11.52-.33,8.33,8.33,0,0,0-.33,11.91A8.19,8.19,0,0,0,1606.38,345.38Z" style="fill:#fff"/><path d="M1606.65,163.13a8.24,8.24,0,1,0-11.52-11.79,8.24,8.24,0,0,0,11.52,11.79Z" style="fill:#fff"/><path d="M1624.72,399.93a8.17,8.17,0,1,0-11.38.2A8,8,0,0,0,1624.72,399.93Z" style="fill:#fff"/><path d="M1613.73,351.8a8.26,8.26,0,0,0-.06,11.85,8.14,8.14,0,1,0,.06-11.85Z" style="fill:#fff"/><path d="M1624.46,145.19a8.14,8.14,0,1,0-11.79-.8A8.12,8.12,0,0,0,1624.46,145.19Z" style="fill:#fff"/><path d="M1624.59,217.94a8.11,8.11,0,0,0,.2-11.38,8.19,8.19,0,0,0-11.85,0,8.11,8.11,0,0,0,.26,11.38A8,8,0,0,0,1624.59,217.94Z" style="fill:#fff"/><path d="M1613.73,242.7a8.06,8.06,0,0,0-.46,11.39,8.15,8.15,0,0,0,11.85.33,8.17,8.17,0,0,0-11.39-11.72Z" style="fill:#fff"/><path d="M1613.27,97.25a8.06,8.06,0,0,0,.53,11.39,8.17,8.17,0,1,0-.53-11.39Z" style="fill:#fff"/><path d="M1624.79,326.91a8.11,8.11,0,0,0-.2-11.38,8,8,0,0,0-11.39,0,8.09,8.09,0,0,0,.2,11.85A8.25,8.25,0,0,0,1624.79,326.91Z" style="fill:#fff"/><path d="M1613.87,169.55a8.17,8.17,0,1,0,11.12,12,8.07,8.07,0,0,0,.33-11.39A8.27,8.27,0,0,0,1613.87,169.55Z" style="fill:#fff"/><path d="M1624.92,290.7A8.17,8.17,0,1,0,1613.53,279a8.17,8.17,0,0,0,11.39,11.72Z" style="fill:#fff"/><path d="M1631.48,297.25a7.93,7.93,0,0,0,.33,11.39,8.08,8.08,0,1,0-.33-11.39Z" style="fill:#fff"/><path d="M1631.61,188a8.2,8.2,0,0,0,0,11.46,8.08,8.08,0,0,0,11.45,0,7.89,7.89,0,0,0,0-11.39A8.13,8.13,0,0,0,1631.61,188Z" style="fill:#fff"/><path d="M1631.67,225a8,8,0,0,0,0,11.39,8.09,8.09,0,0,0,11.46,0,8.2,8.2,0,0,0,0-11.46A8.09,8.09,0,0,0,1631.67,225Z" style="fill:#fff"/><path d="M1631.61,90.3a8,8,0,0,0,12.38-10c-4.17-.4-8.34-.73-12.58-.86A7.9,7.9,0,0,0,1631.61,90.3Z" style="fill:#fff"/><path d="M1631.61,115.13a7.94,7.94,0,0,0,.13,11.39A8.08,8.08,0,1,0,1643,114.93,7.93,7.93,0,0,0,1631.61,115.13Z" style="fill:#fff"/><path d="M1631.41,152.07a8.19,8.19,0,0,0,.4,11.45,8.08,8.08,0,0,0,11.45-.46,7.89,7.89,0,0,0-.4-11.39A8.2,8.2,0,0,0,1631.41,152.07Z" style="fill:#fff"/><path d="M1631.67,261a7.89,7.89,0,0,0,0,11.39,8.09,8.09,0,0,0,11.46.07A8.1,8.1,0,0,0,1631.67,261Z" style="fill:#fff"/><path d="M1643.19,381.33a8.08,8.08,0,0,0-11.78-11.06,8.26,8.26,0,0,0,.33,11.46A8.08,8.08,0,0,0,1643.19,381.33Z" style="fill:#fff"/><path d="M1631.41,334.13a8.19,8.19,0,0,0,.33,11.45,8.1,8.1,0,1,0-.33-11.45Z" style="fill:#fff"/><path d="M1668,370.8a7.94,7.94,0,0,0,.4,11.39,8.22,8.22,0,0,0,11-.26,7.94,7.94,0,0,0-.13-11.39A7.75,7.75,0,0,0,1668,370.8Z" style="fill:#fff"/><path d="M1650.14,388.61a8.06,8.06,0,0,0-.06,11.39,8.25,8.25,0,0,0,11.45,0,8.06,8.06,0,0,0-.06-11.39A7.88,7.88,0,0,0,1650.14,388.61Z" style="fill:#fff"/><path d="M1667.62,261.31a7.72,7.72,0,0,0,.07,10.92,7.89,7.89,0,0,0,11.39.2A8.2,8.2,0,0,0,1679,261,7.9,7.9,0,0,0,1667.62,261.31Z" style="fill:#fff"/><path d="M1661.2,290.37a8.25,8.25,0,0,0-.2-11.45,8,8,0,0,0-11.39.26,7.81,7.81,0,0,0,.2,11.32A8.05,8.05,0,0,0,1661.2,290.37Z" style="fill:#fff"/><path d="M1668.35,224.56a7.94,7.94,0,0,0-.13,11.39,8.19,8.19,0,0,0,11.45-.2,7.9,7.9,0,0,0-.46-11.39A7.72,7.72,0,0,0,1668.35,224.56Z" style="fill:#fff"/><path d="M1661,254.49a8.33,8.33,0,0,0,.27-11.46,8.06,8.06,0,0,0-11.39-.2A8.06,8.06,0,0,0,1661,254.49Z" style="fill:#fff"/><path d="M1679.47,199.94a7.94,7.94,0,0,0-.06-11.39,7.69,7.69,0,0,0-11.32.2,8,8,0,0,0-.07,11A8.26,8.26,0,0,0,1679.47,199.94Z" style="fill:#fff"/><path d="M1650.14,206.56a8.05,8.05,0,0,0-.06,11.38,8.31,8.31,0,0,0,11.45,0,8.05,8.05,0,0,0-.06-11.38A7.8,7.8,0,0,0,1650.14,206.56Z" style="fill:#fff"/><path d="M1668.09,151.61a7.87,7.87,0,0,0,.46,11.38,7.72,7.72,0,0,0,10.92-.13,7.93,7.93,0,0,0,.13-11.39A8.33,8.33,0,0,0,1668.09,151.61Z" style="fill:#fff"/><path d="M1660.94,181.4a7.86,7.86,0,0,0,.13-11.32,8,8,0,0,0-11.39-.2,8.25,8.25,0,0,0-.13,11.45A8.05,8.05,0,0,0,1660.94,181.4Z" style="fill:#fff"/><path d="M1679.47,126.71a8,8,0,0,0,0-11.38,8.18,8.18,0,0,0-11.45.33,8,8,0,0,0,.2,11A7.72,7.72,0,0,0,1679.47,126.71Z" style="fill:#fff"/><path d="M1650.08,133.47a8.05,8.05,0,0,0,.06,11.38,7.86,7.86,0,0,0,11.33,0,8.05,8.05,0,0,0,.06-11.38A8.19,8.19,0,0,0,1650.08,133.47Z" style="fill:#fff"/><path d="M1668,89.64a8.27,8.27,0,0,0,11.46.4,7.36,7.36,0,0,0,2-3.78c-5.1-1.19-10.26-2.25-15.43-3.11A7.67,7.67,0,0,0,1668,89.64Z" style="fill:#fff"/><path d="M1661.13,108.44A8.24,8.24,0,0,0,1661.2,97a8,8,0,0,0-11.39,0,7.86,7.86,0,0,0-.06,11.32A8,8,0,0,0,1661.13,108.44Z" style="fill:#fff"/><path d="M1668,333.8a8.07,8.07,0,0,0,.14,11,7.75,7.75,0,0,0,11.32.13,8,8,0,0,0,0-11.39A8.21,8.21,0,0,0,1668,333.8Z" style="fill:#fff"/><path d="M1660.87,363.59a7.8,7.8,0,0,0,.26-11.32,8,8,0,0,0-11.38-.33,8.05,8.05,0,1,0,11.12,11.65Z" style="fill:#fff"/><path d="M1650.08,315.53a8,8,0,0,0,.13,11.38,7.86,7.86,0,0,0,11.32-.06,8,8,0,0,0,0-11.39A8.24,8.24,0,0,0,1650.08,315.53Z" style="fill:#fff"/><path d="M1668.62,297.12a8,8,0,0,0-1.06,10.92,7.79,7.79,0,0,0,11.25,1.39,8.05,8.05,0,0,0,1.26-11.38A8.27,8.27,0,0,0,1668.62,297.12Z" style="fill:#fff"/><path d="M1704.76,115.13a8.3,8.3,0,0,0-.2,11,8,8,0,0,0,11.32.13,7.51,7.51,0,0,0,.2-10.79A7.87,7.87,0,0,0,1704.76,115.13Z" style="fill:#fff"/><path d="M1697.21,144.92a7.93,7.93,0,0,0,.47-11.32,8.26,8.26,0,0,0-11.46-.13,8,8,0,0,0,.14,11.32A7.65,7.65,0,0,0,1697.21,144.92Z" style="fill:#fff"/><path d="M1686.75,96.92a8.33,8.33,0,0,0-.06,11.46,7.92,7.92,0,0,0,10.92.2,7.64,7.64,0,0,0,.47-11.26A7.88,7.88,0,0,0,1686.75,96.92Z" style="fill:#fff"/><path d="M1697.55,326.71a7.92,7.92,0,0,0-.2-11.32,8.34,8.34,0,0,0-11.46.47,8,8,0,0,0,.33,10.92A7.76,7.76,0,0,0,1697.55,326.71Z" style="fill:#fff"/><path d="M1715.62,381.73a8,8,0,0,0-.13-10.93,7.64,7.64,0,0,0-10.79-.39,7.87,7.87,0,0,0-.47,11.32A8.18,8.18,0,0,0,1715.62,381.73Z" style="fill:#fff"/><path d="M1686.49,388.55a7.92,7.92,0,0,0-.33,11.32,8.33,8.33,0,0,0,11.45,0,7.86,7.86,0,0,0-.33-11.32A7.63,7.63,0,0,0,1686.49,388.55Z" style="fill:#fff"/><path d="M1716.21,152.2a8,8,0,0,0-11.32-.13,7.52,7.52,0,0,0-.19,10.79,7.86,7.86,0,0,0,11.32.33A8.28,8.28,0,0,0,1716.21,152.2Z" style="fill:#fff"/><path d="M1686.49,170.41a7.63,7.63,0,0,0,.2,10.79,7.92,7.92,0,0,0,11.32.07,8.26,8.26,0,0,0-.27-11.46A7.8,7.8,0,0,0,1686.49,170.41Z" style="fill:#fff"/><path d="M1697.55,217.88a8,8,0,0,0-.14-11.32,7.66,7.66,0,0,0-11.25.26,8,8,0,0,0,.4,11.32A8.29,8.29,0,0,0,1697.55,217.88Z" style="fill:#fff"/><path d="M1705,188a7.52,7.52,0,0,0-.47,10.79,7.87,7.87,0,0,0,11.32.6A8.25,8.25,0,0,0,1716,188,8,8,0,0,0,1705,188Z" style="fill:#fff"/><path d="M1704.76,261.11a8.22,8.22,0,0,0-.2,11,7.92,7.92,0,0,0,11.32.13,7.51,7.51,0,0,0,.2-10.79A7.87,7.87,0,0,0,1704.76,261.11Z" style="fill:#fff"/><path d="M1686.23,279.44a7.92,7.92,0,0,0,.19,11.33,7.58,7.58,0,0,0,10.79.13,7.93,7.93,0,0,0,.47-11.32A8.39,8.39,0,0,0,1686.23,279.44Z" style="fill:#fff"/><path d="M1704.76,334.26a7.58,7.58,0,0,0-.06,10.79,7.91,7.91,0,0,0,11.32.2,8.28,8.28,0,0,0,.06-11A7.91,7.91,0,0,0,1704.76,334.26Z" style="fill:#fff"/><path d="M1697.41,364a8,8,0,0,0,.07-11.32,7.57,7.57,0,0,0-10.79-.34,7.93,7.93,0,0,0-.66,11.32A8.23,8.23,0,0,0,1697.41,364Z" style="fill:#fff"/><path d="M1697.55,254a7.92,7.92,0,0,0-.2-11.32,7.68,7.68,0,0,0-11.26.33,7.92,7.92,0,0,0,0,10.92A8.39,8.39,0,0,0,1697.55,254Z" style="fill:#fff"/><path d="M1715.55,235.82a7.86,7.86,0,0,0-.33-11.32,7.51,7.51,0,0,0-10.79.2,7.86,7.86,0,0,0,.13,11.32A8.22,8.22,0,0,0,1715.55,235.82Z" style="fill:#fff"/><path d="M1715.42,308.71a7.91,7.91,0,0,0,0-11.32,8.21,8.21,0,0,0-11,.13,7.86,7.86,0,0,0,.27,11.32A7.38,7.38,0,0,0,1715.42,308.71Z" style="fill:#fff"/><path d="M1733.76,399.54a7.88,7.88,0,0,0-.53-10.93,7.6,7.6,0,0,0-10.86.2,7.86,7.86,0,0,0-.06,10.93A8.07,8.07,0,0,0,1733.76,399.54Z" style="fill:#fff"/><path d="M1723.23,133.8a8,8,0,0,0,0,11,8.21,8.21,0,0,0,11.46-.33,7.82,7.82,0,0,0-.67-10.93A7.52,7.52,0,0,0,1723.23,133.8Z" style="fill:#fff"/><path d="M1723,108.44a7.85,7.85,0,0,0,10.92-.33,8,8,0,0,0,1.85-3.18c-4.63-2.11-9.33-4.17-14.1-6.09A8.22,8.22,0,0,0,1723,108.44Z" style="fill:#fff"/><path d="M1722.84,279.11a8.2,8.2,0,0,0,.26,11.46A7.87,7.87,0,0,0,1734,290a7.6,7.6,0,0,0-.26-10.86A7.92,7.92,0,0,0,1722.84,279.11Z" style="fill:#fff"/><path d="M1733.82,181.4a8.13,8.13,0,0,0,.07-11.45,7.78,7.78,0,0,0-10.92.26,7.6,7.6,0,0,0-.07,10.86A7.86,7.86,0,0,0,1733.82,181.4Z" style="fill:#fff"/><path d="M1733.82,363.46a8.13,8.13,0,0,0-.06-11.46,7.87,7.87,0,0,0-10.92.33,7.54,7.54,0,0,0,.06,10.86A7.79,7.79,0,0,0,1733.82,363.46Z" style="fill:#fff"/><path d="M1734,217.35a8.14,8.14,0,0,0-.27-11.46,7.87,7.87,0,0,0-10.92.53,7.6,7.6,0,0,0,.2,10.86A7.94,7.94,0,0,0,1734,217.35Z" style="fill:#fff"/><path d="M1722.77,243.1a8.3,8.3,0,0,0-.07,11.06,7.89,7.89,0,0,0,11.39-.27,7.6,7.6,0,0,0-.4-10.86A7.92,7.92,0,0,0,1722.77,243.1Z" style="fill:#fff"/><path d="M1734.09,327.18a8.3,8.3,0,0,0-.07-11.06,7.88,7.88,0,0,0-11.38.4,7.6,7.6,0,0,0,.46,10.86A8,8,0,0,0,1734.09,327.18Z" style="fill:#fff"/><path d="M1759.38,388.75a7.79,7.79,0,0,0,.07,10.92,7.59,7.59,0,0,0,10.85,0,7.79,7.79,0,0,0,.07-10.92A8,8,0,0,0,1759.38,388.75Z" style="fill:#fff"/><path d="M1741.11,224.89a7.85,7.85,0,0,0,.46,10.86,7.58,7.58,0,0,0,10.79-.13,7.77,7.77,0,0,0,.13-10.86A8.05,8.05,0,0,0,1741.11,224.89Z" style="fill:#fff"/><path d="M1770.43,217.48a7.84,7.84,0,0,0-.13-10.92,8,8,0,0,0-11,.26,7.79,7.79,0,0,0,.27,10.92A7.64,7.64,0,0,0,1770.43,217.48Z" style="fill:#fff"/><path d="M1752,199.27a8.14,8.14,0,0,0,.14-11,7.86,7.86,0,0,0-11.32.14,7.52,7.52,0,0,0,.26,10.79A7.84,7.84,0,0,0,1752,199.27Z" style="fill:#fff"/><path d="M1759.51,169.81a7.87,7.87,0,0,0-.13,10.93,8,8,0,0,0,11,.06,7.79,7.79,0,0,0,0-10.92A7.55,7.55,0,0,0,1759.51,169.81Z" style="fill:#fff"/><path d="M1751.83,345.38a8.05,8.05,0,0,0-.06-11.38,7.84,7.84,0,0,0-10.86.33,7.51,7.51,0,0,0,.06,10.79A7.84,7.84,0,0,0,1751.83,345.38Z" style="fill:#fff"/><path d="M1759.31,316a7.85,7.85,0,0,0,.2,10.92,8,8,0,0,0,11-.33,7.77,7.77,0,0,0-.33-10.86A7.6,7.6,0,0,0,1759.31,316Z" style="fill:#fff"/><path d="M1751.77,272.29a7.58,7.58,0,0,0,.33-10.79,7.92,7.92,0,0,0-11.32-.26,8.22,8.22,0,0,0,.06,11A7.92,7.92,0,0,0,1751.77,272.29Z" style="fill:#fff"/><path d="M1759.51,242.64a7.85,7.85,0,0,0-.13,10.92,7.6,7.6,0,0,0,10.86.2,7.81,7.81,0,0,0,.26-10.93A8,8,0,0,0,1759.51,242.64Z" style="fill:#fff"/><path d="M1759.58,279.64a7.8,7.8,0,0,0-.27,10.93,8,8,0,0,0,11,.2,7.87,7.87,0,0,0,.14-10.93A7.6,7.6,0,0,0,1759.58,279.64Z" style="fill:#fff"/><path d="M1759.31,352.73a7.8,7.8,0,0,0,.2,10.92,7.6,7.6,0,0,0,10.86-.13,7.85,7.85,0,0,0-.07-10.92A8.07,8.07,0,0,0,1759.31,352.73Z" style="fill:#fff"/><path d="M1752,381.26a8.13,8.13,0,0,0,.07-11,7.85,7.85,0,0,0-10.86-.19,7.53,7.53,0,0,0-.46,10.79A7.73,7.73,0,0,0,1752,381.26Z" style="fill:#fff"/><path d="M1741.37,297.85a7.84,7.84,0,0,0-.06,10.86,8.13,8.13,0,0,0,11,.19,7.86,7.86,0,0,0-.14-11.32A7.58,7.58,0,0,0,1741.37,297.85Z" style="fill:#fff"/><path d="M1741.57,115.53a7.85,7.85,0,0,0-.53,10.85,8.05,8.05,0,0,0,11.39.2,7.83,7.83,0,0,0-.07-10.85A7.57,7.57,0,0,0,1741.57,115.53Z" style="fill:#fff"/><path d="M1752.23,162.93a7.91,7.91,0,0,0-.07-11.32,7.51,7.51,0,0,0-10.79.2,7.76,7.76,0,0,0-.06,10.85A8,8,0,0,0,1752.23,162.93Z" style="fill:#fff"/><path d="M1770.37,144.72a7.79,7.79,0,0,0,0-10.92,7.6,7.6,0,0,0-10.86-.07,7.74,7.74,0,0,0-.13,10.93A8.07,8.07,0,0,0,1770.37,144.72Z" style="fill:#fff"/><path d="M1777.85,152.27a7.78,7.78,0,0,0,.2,10.86,7.66,7.66,0,1,0-.2-10.86Z" style="fill:#fff"/><path d="M1777.85,261.44a7.66,7.66,0,0,0,11,10.66,7.84,7.84,0,0,0-.2-10.86A7.57,7.57,0,0,0,1777.85,261.44Z" style="fill:#fff"/><path d="M1788.31,235.55a7.69,7.69,0,0,0,.07-10.79,7.85,7.85,0,0,0-10.86,0,7.69,7.69,0,0,0,.07,10.79A7.42,7.42,0,0,0,1788.31,235.55Z" style="fill:#fff"/><path d="M1806.52,217.28a7.61,7.61,0,1,0-10.86.33A7.58,7.58,0,0,0,1806.52,217.28Z" style="fill:#fff"/><path d="M1801,147.11c-2.25-2-4.5-3.91-6.81-5.76a7.2,7.2,0,0,0,6.81,5.76Z" style="fill:#fff"/><path d="M1796.45,242.9a7.58,7.58,0,1,0,10.33.46A7.65,7.65,0,0,0,1796.45,242.9Z" style="fill:#fff"/><path d="M1806.32,363.46a7.57,7.57,0,1,0-10.4-.4A7.59,7.59,0,0,0,1806.32,363.46Z" style="fill:#fff"/><path d="M1788.44,381.46a7.65,7.65,0,1,0-10.79.27A7.63,7.63,0,0,0,1788.44,381.46Z" style="fill:#fff"/><path d="M1795.66,170.74a7.52,7.52,0,0,0,.46,10.39,7.59,7.59,0,1,0-.46-10.39Z" style="fill:#fff"/><path d="M1796.06,316.25a7.56,7.56,0,1,0,10.79.2A7.59,7.59,0,0,0,1796.06,316.25Z" style="fill:#fff"/><path d="M1777.78,334.39a7.85,7.85,0,0,0,.2,10.86,7.66,7.66,0,1,0-.2-10.86Z" style="fill:#fff"/><path d="M1806.38,399.54a7.65,7.65,0,0,0-.2-10.86,7.61,7.61,0,0,0-10.65,10.86A7.59,7.59,0,0,0,1806.38,399.54Z" style="fill:#fff"/><path d="M1778.05,188.22a7.82,7.82,0,0,0-.2,10.85,7.65,7.65,0,1,0,.2-10.85Z" style="fill:#fff"/><path d="M1788.44,308.57a7.65,7.65,0,1,0-10.86.14A7.78,7.78,0,0,0,1788.44,308.57Z" style="fill:#fff"/><path d="M1796.19,279.18a7.59,7.59,0,1,0,10.86.4A7.78,7.78,0,0,0,1796.19,279.18Z" style="fill:#fff"/><path d="M1813.86,162.46a7.55,7.55,0,0,0,6,2.52c-2.51-2.65-5.16-5.23-7.81-7.81A7.07,7.07,0,0,0,1813.86,162.46Z" style="fill:#fff"/><path d="M1824.85,235.68a7.25,7.25,0,0,0-.26-10.32,7.38,7.38,0,0,0-10.73.2,7.66,7.66,0,0,0,.2,10.39A7.51,7.51,0,0,0,1824.85,235.68Z" style="fill:#fff"/><path d="M1824.66,199.14a7.58,7.58,0,0,0,.06-10.79,7.44,7.44,0,0,0-10.33,0,7.24,7.24,0,0,0-.46,10.26A7.45,7.45,0,0,0,1824.66,199.14Z" style="fill:#fff"/><path d="M1814.72,297.85a7.51,7.51,0,0,0-.06,10.79,7.66,7.66,0,0,0,10.39,0,7.51,7.51,0,0,0,0-10.79A7.31,7.31,0,0,0,1814.72,297.85Z" style="fill:#fff"/><path d="M1824.92,271.7a7.32,7.32,0,0,0-.26-10.33,7.44,7.44,0,0,0-10.33-.2,7.63,7.63,0,0,0-.2,10.79A7.4,7.4,0,0,0,1824.92,271.7Z" style="fill:#fff"/><path d="M1814.33,370.34a7.24,7.24,0,0,0-.53,10.26,7.39,7.39,0,0,0,10.72.6,7.45,7.45,0,1,0-10.19-10.86Z" style="fill:#fff"/><path d="M1814.39,334.33a7.25,7.25,0,0,0-.53,10.26,7.4,7.4,0,0,0,10.73.59,7.58,7.58,0,0,0,.13-10.79A7.38,7.38,0,0,0,1814.39,334.33Z" style="fill:#fff"/><path d="M1835.31,182.59c-1.65-2.05-3.37-4-5.09-6.09a6.94,6.94,0,0,0,1.78,4A7.37,7.37,0,0,0,1835.31,182.59Z" style="fill:#fff"/><path d="M1832.53,207a7.37,7.37,0,0,0,.6,10.79,7.08,7.08,0,0,0,10.26-.72,7.37,7.37,0,0,0-.4-10.33A7.6,7.6,0,0,0,1832.53,207Z" style="fill:#fff"/><path d="M1842.79,253.69a7.2,7.2,0,0,0-.19-10.33,7.4,7.4,0,0,0-10.4-.06,7.53,7.53,0,0,0-.2,10.39A7.29,7.29,0,0,0,1842.79,253.69Z" style="fill:#fff"/><path d="M1832.86,279.84a7.42,7.42,0,0,0-.46,10.4,7.6,7.6,0,0,0,10.86.19,7.45,7.45,0,0,0-.07-10.39A7.21,7.21,0,0,0,1832.86,279.84Z" style="fill:#fff"/><path d="M1832.8,315.92a7.41,7.41,0,0,0,0,10.79,7.57,7.57,0,0,0,10.39-.26,7.46,7.46,0,0,0-.13-10.4A7.18,7.18,0,0,0,1832.8,315.92Z" style="fill:#fff"/><path d="M1842.6,363.19a7.61,7.61,0,0,0,0-10.86,7.41,7.41,0,0,0-10.4.27,7.2,7.2,0,0,0,0,10.33A7.53,7.53,0,0,0,1842.6,363.19Z" style="fill:#fff"/><path d="M1832.86,388.68a7.39,7.39,0,0,0-.59,10.33,7.22,7.22,0,0,0,10.72.46,7.38,7.38,0,0,0,.27-10.39A7.59,7.59,0,0,0,1832.86,388.68Z" style="fill:#fff"/><path d="M1879,399.34a7.26,7.26,0,0,0,.13-10.33,7.58,7.58,0,0,0-10.39-.07,7.31,7.31,0,0,0,0,10.33A7.06,7.06,0,0,0,1879,399.34Z" style="fill:#fff"/><path d="M1850.94,297.85a7.39,7.39,0,0,0-.6,10.33,7.66,7.66,0,0,0,10.86.33,7.31,7.31,0,0,0,0-10.33A7.06,7.06,0,0,0,1850.94,297.85Z" style="fill:#fff"/><path d="M1879.21,290.3A7.32,7.32,0,0,0,1879,280a7,7,0,0,0-10.2.14,7.31,7.31,0,0,0,0,10.32A7.59,7.59,0,0,0,1879.21,290.3Z" style="fill:#fff"/><path d="M1851,224.63a7.38,7.38,0,0,0-.59,10.33,7.13,7.13,0,0,0,10.72.46,7.37,7.37,0,0,0,.33-10.33A7.68,7.68,0,0,0,1851,224.63Z" style="fill:#fff"/><path d="M1869.21,352.47a7.66,7.66,0,0,0-.07,10.39,7.31,7.31,0,0,0,10.33,0,7,7,0,0,0,.13-10.19A7.39,7.39,0,0,0,1869.21,352.47Z" style="fill:#fff"/><path d="M1860.8,381.66a7.4,7.4,0,0,0,.4-10.79,7.57,7.57,0,0,0-10.39-.13,7.31,7.31,0,0,0-.27,10.33A7,7,0,0,0,1860.8,381.66Z" style="fill:#fff"/><path d="M1850.67,262a7.32,7.32,0,0,0-.06,10.33,7.59,7.59,0,0,0,10.85-.2,7.32,7.32,0,0,0-.46-10.33A7.15,7.15,0,0,0,1850.67,262Z" style="fill:#fff"/><path d="M1869.47,253.89a7.38,7.38,0,0,0,8.35,1.19c-1.79-4.5-3.65-8.87-5.7-13.24a7.5,7.5,0,0,0-3,1.86A7,7,0,0,0,1869.47,253.89Z" style="fill:#fff"/><path d="M1879.21,326.45a7.31,7.31,0,0,0-.14-10.33,7,7,0,0,0-10.19,0,7.32,7.32,0,0,0-.07,10.33A7.67,7.67,0,0,0,1879.21,326.45Z" style="fill:#fff"/><path d="M1850.67,334.13a7.32,7.32,0,0,0-.06,10.33,7.59,7.59,0,0,0,10.85-.2,7.32,7.32,0,0,0-.46-10.33A7.2,7.2,0,0,0,1850.67,334.13Z" style="fill:#fff"/><path d="M1886.89,308.44a7.42,7.42,0,0,0,6.42,1.66q-1.2-7.05-2.78-13.91a7.22,7.22,0,0,0-3.64,12.25Z" style="fill:#fff"/><path d="M1887.75,334.06a7.73,7.73,0,0,0-1,10.33,7.3,7.3,0,0,0,10.2.86,2.56,2.56,0,0,1,.2-.26q-.3-5.57-.8-11.13A7,7,0,0,0,1887.75,334.06Z" style="fill:#fff"/><path d="M1886.89,370.94a7.29,7.29,0,0,0-.07,10.26,6.86,6.86,0,0,0,9.6.46c.26-3.51.59-7.08.73-10.59A7.55,7.55,0,0,0,1886.89,370.94Z" style="fill:#fff"/></g></g></svg>