<svg xmlns="http://www.w3.org/2000/svg" viewBox="0 0 85.8 71.1" enable-background="new 0 0 85.8 71.1"><path d="M36.9 12.7c-.4.8-.8 1.1-.7 1.7s.7.9.9 1.5c.3-.7.7-1.1.7-1.7l-.9-1.5m9.9 0c1.2 2.5.5 1.8-.3 3.2-.3-.7-.7-1.1-.7-1.7.2-.3.8-1.1 1-1.5m-15.5-.4c.4 0 .7-.3.7-.7 0-.9-1.3-.9-1.3 0-.1.5.2.7.6.7m.4 1c0-.9-1.3-.9-1.3 0s1.3.8 1.3 0m.3 1.6c0-.9-1.3-.9-1.3 0s1.3.9 1.3 0m3-5.7c.9 0 .9-1.3 0-1.3s-.9 1.3 0 1.3m-1.7.5c.9 0 .9-1.3 0-1.3s-.9 1.3 0 1.3m-1.3 1.1c.9 0 .9-1.3 0-1.3-.8 0-.8 1.3 0 1.3m4.7-1.5c.9 0 .9-1.3 0-1.3s-.9 1.3 0 1.3m1.7.5c.9 0 .9-1.3 0-1.3-1 0-.9 1.3 0 1.3m1.5.7c.9 0 .9-1.3 0-1.3s-.9 1.3 0 1.3m11.9 1.2c0 .9 1.3.9 1.3 0s-1.3-.9-1.3 0m.8.9c-.9 0-.9 1.3 0 1.3.4 0 .7-.3.7-.7 0-.3-.3-.6-.7-.6m-.3 1.6c-.9 0-.9 1.3 0 1.3.4 0 .7-.3.7-.7 0-.3-.3-.6-.7-.6m-3.6-5c.9 0 .9-1.3 0-1.3-.4 0-.7.3-.7.7 0 .2.3.6.7.6m1.7.5c.9 0 .9-1.3 0-1.3s-.9 1.3 0 1.3m1.3 1.1c.9 0 .9-1.3 0-1.3-.4 0-.7.3-.7.7s.4.6.7.6m-4.7-1.5c.9 0 .9-1.3 0-1.3s-.8 1.3 0 1.3m-1.6.5c.9 0 .9-1.3 0-1.3-1 0-1 1.3 0 1.3m-2.3.1c0 .4.3.7.7.7.9 0 .9-1.3 0-1.3-.4-.1-.7.2-.7.6M40.7 13.5h.8v-2.8c-.3 0-.5-.1-.8-.2v3zm2.3-3.1c-.2.1-.5.2-.8.2v2.8h.8v-3zm-1.6-3.2v-1.6c-.9.2-1.5.9-1.6 1.7l1.6-.1zm.9 0h1.6c-.2-.9-.8-1.5-1.6-1.7v1.7zm-2.5.9c.5 2.2 3.6 2.2 4.1 0h-4.1zm3.2-2.8c-.5-.4-.9-.9-.9-1.5.6.1 1.1.5 1.5.9v-2.2c-.4.5-.9.9-1.5.9.1-.6.4-1 .9-1.6h-2.2c.5.6.9 1 .9 1.6-.7-.1-1.2-.4-1.6-.9v2.3c.4-.5.9-.9 1.5-.9-.1.6-.5 1.1-.9 1.5-.1-.1 2.3-.1 2.3-.1zm0 47.8c-1 0-1-1.6 0-1.6 1.2-.1 1.2 1.6 0 1.6m-3.9-1.3c-1.1 0-1.1-1.8 0-1.8 1.3 0 1.3 1.8 0 1.8m-1.3-4c-.9-.8-1.1-.5-2.1.6.9.8.7 1.7-.7.9-.9 1.4-.9 1.4.7 2.3-.9.6-3.1-.4-1.4-3l-.4-.7c.3 0 .5.1.8.2 2.7-2.9 4 .5 3.1-.3m7.7 3.2c-2.1-.6-4.6-1.4-6.9-2.5.1-1.2-.9-2.1-1.8-2.1-.6 0-.5.5-1.6-.9-.9-1-1.6-2.3-2.1-3.6-.3-.8-.5-1.5-.6-2.4-.1.7-.9 1.6-2.2 1.6.2-1.2-.3.5-2.2-.1.2.9.5 1.8.8 2.8.7 1.9 1.7 3.6 3 5 .4.5.9.9 1.3 1.3v.3c0 .9 1.4 2.5 2.8 1.4 2.3 1.2 5.7 2.1 8 2.1 1 0 2.4-.5 3.7-1.3.6-.4 1-.8 1.5-1.2-1 .2-2.5-.1-3.7-.4m-.7 8.5c-.2-.3-.4-.5-.6-.5-.9 0-.5 2.3-1.5 2.3-.5 0-.7-.3-.7-.6l.2-.7c0-.5-.9-.5-.9 0l.2.7c0 .3-.3.6-.7.6-1 0-.7-2.3-1.5-2.3-.2 0-.4.2-.6.5-.6-1.1 0-1.9.8-1.9 1.1 0 .9 1.5 1.4 1.5.3 0 .4-.2.4-.4 0-.9-2.1-1.1.4-3.1 2.5 2 .4 2.2.4 3.1 0 .2.2.4.4.4.6 0 .3-1.5 1.4-1.5.7 0 .9.6.9.9.3.3.2.6 0 1m-2.9 3.1c-.8 0-.8-1.1 0-1.1.7 0 .7 1.1 0 1.1m2.3-5.5c-.2 0-.3 0-.4.1v-2.5c-1.1 0-2.4-.2-3.7-.6v3c-1.3-.5-2.8 1.1-1.1 2.9.9-2.3.6 1.4 2.1 1.5 0 .1-.1.2-.1.4 0 1.5 2.5 1.1 1.9-.4 1.5-.1.9-3.8 2.1-1.5.3-.4.7-.9.7-1.6-.1-.5-.7-1.3-1.5-1.3m29.4 3.1c-.1-.1-.2-.2-.3-.2-6.5 1.9-18.6-14.3-22.5-5-1.3 3.2-3.7 4.3.8 6.5.6.3.9.5 1 .8-4.3 1.9-11.7 2.3-17 1.3-6.4-1.1-4.3-1.7-2.8-2.5 3.8-2 1.6-2.8.3-6.1-2.5-5.9-9.7-.7-12.3 1.1-3.5 2.4-7.1 4.7-10.1 3.9-.3-.1-.5.4-.2.5 4.5 2 3.6 6.1 12.7-.1 2.3-1.6 4.7-3.2 7-3.4-3.2 3.3-1.9 1.9-.1 8.4.9 3.7 8.1 3.9 12 3.9 4.7 0 8-.5 9.9-1.5 2.8-1.4 1.6-2.7 3.3-6 1.5-2.8.1-3.3-1.4-4.8 4.7.4 9.7 6.7 14.1 6.7 1.9 0 3.4-2.3 5.6-3.2v-.3m-31.3-22.8v-11c5.3.3 9 5.3 9.1 11h-9.1zm-.4-15.6c-3.1 0-5.3.9-6.5 1.7-.8-.5-1-.9-1-1.3 0-1.8 5-1.9 7.6-1.9s7.6.2 7.6 1.9c0 .5-.3.9-1 1.3-1.5-.8-3.6-1.7-6.7-1.7m-.2 15.6h-9.4c.1-6 4.2-10.9 9.4-11v11zm14.2-.7c-.3-.3-.9-.8-1.1-1.3-2.2-4.6-2.8-4.6-2-5.6l.9-.9c-1-1.7-2.7-3.6-4.7-4.9.6-.4 1.1-.9 1.1-1.8 0-.5-.2-.9-.6-1.2.6-1.9 1.6-4.2 2.6-5.1l-1.9-.8c.5.8.6 1.6.4 2.1-.5-.4-.9-.9-1-1.4-.1.6-.4 1.5-.7 2.1.6-.3.9-.4 1.5-.2-1.1 1.5-3.7.7-3.7-.3 0-.3.3-.7.7-.7.4 0 .5.7.3.9.6-.3 1.1-1.9.3-2.1-.7-.2-1.2.8-1.5 1.4-.5-2.9-2.7-1.2-1.4.5.1-.6.4-.9.7-.9.2 0 .6.2.5.7s-.8.9-1.6.9-2.2-.3-2.4-1.8c.5.1 1.3.5 1.7 1-.5-4.1.8-2-1.6-1.5.2-.7.7-1.3 1.3-1.8h-3.4c.7.4 1.2 1.1 1.3 1.8-.5-.1-1.2-.4-1.6-1 .5 4.2-.9 2.1 1.6 1.5-.1 1.5-1.5 1.8-2.3 1.8-1.9 0-2-1.4-1.1-1.5.3 0 .6.3.6.9 1.3-1.7-.9-3.4-1.4-.5-.2-.7-.9-1.6-1.5-1.4-.9.2-.3 1.8.3 2.1-.5-1 .9-1.3.9-.3 0 .5-.7.9-1.3 1-2.1.5-3.2-1.8-.9-.7-.3-.6-.6-1.5-.7-2.1-.2.7-.6 1.1-1 1.4-.1-.5-.1-1.4.4-2.2l-1.9.8c.9.9 2 3.2 2.6 5.1-.4.3-.6.8-.6 1.2 0 .9.6 1.4 1.1 1.8-1 .7-2 1.5-2.8 2.5-1.3 1.4-2.3 3.1-3 5 .3.3 1.4 1.5 1.6 1.8 1.3 1.7.2 1.9 1.4 3.4.1.2.4.9.4 1.2h9.5v10.2c-.4 0-.8.1-1 .5 4.5 1.8 2.6 1.1 3.7-.4 0 0-1.3-.1-2.1-.2v-9.7h9.1c-.3 8.9-6.5 8.7-6.8 12.1.5.1.7.2 1 .3 4.2 1 4.2.9 6.2-1.5 1.3-1.4 2.3-3.1 3-5 .7-2.4 1-5.1.9-7.2m-8.5-5.8c-.1.1-.1.2-.1.3s.1.2.3.2c-.1.1-.2.2-.2.4.2 0 .3 0 .5-.1 0 .2 0 .3.1.3h.3c.7 1.1 1.1 2.4 1.3 3.7-.1-.1-.2-.1-.4-.1 0 .2.1.3.2.4h-2.3c0-.2-.1-.3-.2-.3s-.2 0-.3.1c0-.1-.1-.3-.2-.4-.1.1-.2.3-.2.4-.1-.1-.2-.2-.3-.1-.1 0-.2.2-.2.3h-2c.1-.1.1-.2.1-.4-.2 0-.3.1-.4.2v-3.1c.2 0 .3-.1.3-.2s0-.2-.1-.3c.1 0 .3-.1.4-.2-.1-.1-.3-.2-.4-.2.1-.1.1-.2.1-.3 0-.1-.2-.2-.3-.2v-2.7c.1.1.2.1.4.1 0-.2 0-.3-.1-.4 1.5.5 2.7 1.4 3.7 2.6m2.5 4.7c.2.1.1.4-.1.4-.2-1.6-.9-3.3-1.8-4.7.2-.2.4-.1.4-.5-.3 0-.5.1-.6.3-1-1.4-2.6-2.7-4.4-3.1 0-.2.3-.2.4-.1 0-.4-.5-.6-.6-.2-.3-.4-.7-.2-.3.2l-.2.1c-.1.1 0 .4.3.5-.1-.1-.1-.4.1-.3v3.6c-.2-.1-.4 0-.6.2.2.2.4.2.6.2v3.8c-.2 0-.3-.2-.1-.3-.5 0-.5.6-.1.6-.1.1-.2.2-.2.4.2 0 .3-.1.4-.2 0 .2.1.3.2.3.1.1.4-.1.4-.4-.1.2-.4.1-.4-.1h2.7c-.1.2 0 .4.2.6.2-.2.2-.4.2-.6h3c0 .2-.2.3-.3.1 0 .3.3.4.4.4s.2-.1.1-.3c.1.1.2.2.4.2 0-.2-.1-.3-.2-.4.2 0 .3-.1.3-.2.3-.2.1-.5-.2-.5M48.3 34.6l.3-.2h-.3c.1-.1.2 0 .1-.2s-.2-.2-.3-.1c-.1.1-.9 0-.9-.6.1.1.2.2.3.2h.5c.2 0 .3-.1.3-.3 0-.3-.3-.5-.6-.7l-.3-.3c-.1-.2 0-.4-.3-.8 0-.1 0-.2-.1-.4-.2.3-.2.8.2 1.1.3.4.9.7.9.9 0 .1-.1.1-.2.2h-.2s-.1 0-.1-.1c-.1 0-.2-.1-.2-.2-.3-.3-.5-.7-.7-.9-.3-.4-.2-.8-.1-1 .2-.3-.1-.9-.3-1v-.3h-.2v.1c-.1 0-.1-.1-.1-.2-.1.1-.1.1-.2.1h-.2c-.1.1-.1.1-.2.1s-.1.1-.1.2 0 .2.1.2l.1.1.1-.1c.1-.1.2-.1.3.1 0 .1 0 .1-.1.1h-.3c-.1 0-.1.1-.1.2s.1.1.2.1c.2 0 .4-.1.4.1 0 .3-.4.3-.5.7-.1-.1-.2-.1-.2-.2-.1-.1-.2-.2-.3-.4-.1-.1-.2-.2-.3-.2-.2-.1-.2-.1-.2-.3 0-.1.1-.2 0-.3v-.1c0-.1-.1-.1-.2-.1l.1.1-.1.1v.2c0-.1-.1-.2-.1-.2h-.1c0-.1-.1-.2-.2-.1h.1v.1c0 .1.1.1.2.1-.2-.1-.2 0-.2.1v.1c-.1 0-.1.1 0 .2v-.1h.1c-.1.1-.1.2 0 .2-.1.1-.2.1-.2-.1-.1.2.1.4.3.3v.2s0 .1.1.1v-.1l.1.1c.1.2.3.6.7.7-.2.1-.3.3-.5.5-.1.1-.3.2-.4.2l-.1-.1h-.1c-.1 0-.2 0-.2.1h.1v.1s0 .1.2.1h-.1c-.1 0-.1-.1-.2 0v.1c-.1 0-.2.2-.1.3 0 0 0-.1.1-.1.1.1.1.1.3-.1 0 .1-.1.2 0 .3h.1c0 .1.2.1.2.1l-.1-.1h.1c.1-.1 0-.2 0-.2s.1.1.2.1l.1-.1c0-.3.2-.3.3-.3 0-.1.1-.2.2-.2h.3c0-.1.1-.2.2-.3 0 .6.8.6.9.9-.2-.1-.5-.2-.7-.1-.2 0-.5.2-.6.4 0 .2.2.5.4.6h-.5c-.2 0-.2-.3-.4-.2h-.1c-.1 0-.2.1-.2.2l.1-.1s0 .1.1.1h.1c0 .1-.3 0-.2.2v.1c0 .1 0 .1.2.1 0 0-.1 0-.1-.1h.1v.2c0 .1.1.2.2.1 0 0-.1 0-.1-.1h.1v-.1h.1s.1.1.2.1c0 0 .1 0 .1-.1 0 0 .1 0 .1.1 0-.1 0-.2.2 0l.1-.1s.2.1.2 0c.1-.1.1-.1.1-.2-.1-.2-.1-.2-.2-.3-.1-.3.4-.5.6-.4 0 .2.3.7.8.8.3.1.4-.2.5-.2v.4c0 .1-.2 0-.3 0h-.1c-.1 0-.2.1-.2.2 0 0 .1-.1.2-.1 0 .1.1.2.2.1-.1 0-.2.2-.1.2h.1c0 .1 0 .1.1.2v-.1h.1l.1-.2v.2h.1c0 .1.1.1.2.1 0 0-.1 0-.1-.1l.1-.1c.1-.2-.1-.2-.1-.3s.1-.1.2-.3c0 0 .1-.1.1-.2 0 .2-.1.2-.1.2zm-8.5 5.1c-.7-.1-.6.6-.2.6h.1c0 .2-.2 1.1-.2 1.4l-1.4-2c1.4-.5 1.9-1 1.7 0m-.5 3.5l-2.2-3.1c.3-.1.5-.1.7-.2l1.6 2.4-.1.9m-.3 1.4l-3-4.5h.8l2.5 3.6-.3.9m-3.5-4.4l3.4 4.9c-1.8-.8-3.6-2.4-3.4-4.9m5.1-.4h-.2c.1-2.7-2.8.7-5.6-.9l-.2.4c0-.2-.1-.4-.4-.4-.8 0-.2 1.1.3.6l-.2.4.2.1c-.2 2.2 1.4 4.9 4.2 5.7.4-.1.9-.1.9.4 0 .6-.7.5-.7.2 0-.2.3-.1.4-.2 0-.2-.1-.3-.3-.3-.8 0-.7 1 .2 1 .3 0 .9-.2.9-.9.2 0 .3 0 .4-.2v-.5h-.2l.1-4.9c.7.1.6-.5.2-.5m-2.4-10.5l.1-.2s-.2.1 0-.1c0 0 .4.1.3.2 0 0 0-.1-.1-.1v.1l-.2.3c-.2-.1-.2-.1-.1-.2m.2-.4c0 .1-.1.1 0 0l-.2-.2c0 .2.2.2.2.2m.1.1l.2.1c-.1 0-.1.1-.1.1-.1-.1-.1-.2-.1-.2m-.5 0l2.1.8c.7 0 1-.2 1-.4 0-.7-2.5-.4-1.7-.9.9 0 .9-.8 1.6-.9-.8-.1-.9.5-1.2.6.2-.1.3-.3.2-.4-.1.2-1 .5-1 .9 0 .7 1.9.2 1.9.8 0 .6-1.7.1-2.2.2 0-.6.5-.4.1-.8 0-.1 0-.1-.2-.2h-.4c-.1-.1-.2 0-.2.1 0 0-.2.2 0 .2-.1 0-.1.1 0 0v.2c-.1.2-.1.4-.1.4-.2-.2-.3-.1-.2-.4 0-.2.1-.1.1-.4h-.2c-.1.1 0 .1 0 .2-.1.2.1-.2-.2-.2 0-.1 0-.2-.2-.1h.1v.1c0 .1.2.1.2.1 0 .1-.2-.1-.2.1 0 .1-.1.1 0 .2v-.1h.2c.1.1-.2.2.1.2 0 .2-.3.1-.2 0-.2.2 0 .3.2.2 0 0 0 .1.1.1 0 0 0 .1.1.1 0-.2.1.1.2.2-.1.1-1.1.3-1.1.2 0-.1 0-.2-.1-.2-.4-.1-.2 0-.1 0-.1.1-.1.1.1.2 0 0 0 .1-.1 0s0-.1-.2-.1c-.1 0-.2.1-.2.2 0 0 0-.1.1-.1.1.1.1.2.3.1-.1.2-.2.1 0 .2-.1.1 0 .2.1.2 0 0-.1-.1-.1-.2h.1c.1 0 .1-.3.1-.2 0 .3.4 0 .3 0h.1v.2l.2-.2h.2v.1-.1s0 .1.1.2c0-.3.5-.3.3-.2.2 0 .2-.1.3-.2.1 0 .2 0 .2-.1v.1c.2 0 .4-.2.4-.2.4-.1-.2-.3.5-.3.1 0 .2 0 .2-.1-.1.1-.1.3.1.4.1 0 .2.1.2.1h-.2l-.4-.2c-.1 0-.2.1-.2.2.2-.2.1 0 .2 0h.1c0 .1-.2 0-.2.2 0 .1.1.2.2.1v-.1c0-.3 0 .4.2.2v-.1c0-.1.2.1.2.1l.2-.2c.4.1.4-.2.2-.3l-.3-.2c.1 0 .2.1.4.1.3 0 0-.3.5-.1.1 0 .1.2 0 .3 0 .1-.1 0-.2 0h-.1c-.1 0-.1.1-.1.2l.1-.1c0 .1.1.2.2.1-.1 0-.2.1-.1.2l.1.2v-.1c.2 0 0-.1.1-.2 0 .2 0 .2.1.2 0 .1.1.1.2 0 0 0-.1 0-.1-.1.2-.2 0-.1 0-.3 0-.1.1 0 .1-.2 0-.1-.1-.1-.1-.1v-.2s.1-.1 0-.2c0 0-.2.1-.2 0-.1.7-.9.5-.8.5m-3.6 2.4c.1-.2.3-.1.1-.3.1 0 .1 0 .1-.1-.1 0-.2.1 0-.1l.3.1c.1 0 .1.1 0 .1 0 0 0-.1-.1-.1v.1c-.2 0-.2 0-.1.1v.1c-.1.4-.4.3-.3.1m.3-.5c0 .1-.1.1-.2.1l-.1-.2.3.1m.1.1s.2.1.3.1l-.3.1v-.2m-1 1c-.1-.1 0-.1 0 0m5-.4c0-.9-3 .2-3-.5 0-.2.3-.2.7-.2.3.4 2-.1 2.5 0-.6-.5-1.1 0-1.7-.1.4 0 .5-.1.5-.2l-1.2.1c-.3.2-.9-.2-.9.4 0 .7 1.7.3 2.3.3s.7.1.7.2c0 .4-3.2 0-3.6.1.1-.1.2-.3.2-.5.2-.1.2-.2 0-.3 0-.1-.1-.3-.3-.4-.2-.1-.4 0-.3 0h-.1c-.2-.2-.2 0-.2.2-.1 0-.3.2-.2.3-.1.2-.2.4 0 .4v.3c-.1 0-.3-.1-.2-.1h-.1c-.7-.6-.4-.3-.4-.9 0-.2-.1-.2-.2-.2.1.1.1.1 0 .2v.2c0-.1-.1-.3-.2-.2 0-.1-.1-.2-.2-.1s0 .2.1.2c0 0 .1.1 0 .1-.3-.1-.3.2-.2.3v-.1h.1s.1-.1.1 0c0 0 .1 0 0 .1s-.1.2 0 .2c0 .2-.3.2-.3 0-.2.2.1.4.3.3 0 0 0 .1.1.1 0 .1 0 .1.1.1l.3.2c.1.1.2.2.3.1 0 .1.1.3.1.3h-.5c-.5.2-.5 0-.5-.2l-.1-.1h-.1c-.1-.1-.2-.1-.2 0 0 0 .1 0 .1.1v.1c-.1.2.3.2.2.2h-.1c-.1-.1-.1-.2-.2-.1h-.1c-.1 0-.2.1-.2.2 0 0 0-.1.1-.1v.1c0 .1.1.2.3 0-.1.1-.2.2-.1.2 0 .1.1.2.2.2 0 0-.1-.1-.1-.2l.2-.2c0 .1 0 .2.2.2.1 0 .2-.2.2-.2h.1v.2s.2-.1.2-.2l.1.1h.3v.1-.1s0 .1.1.2c0-.3.2-.2.4-.3 0 0 0 .1-.1.1.4.1.5-.5.8-.4.6.1.2-.5 1.1-.4.1 0 .2-.1.2-.1-.1.1-.1.4.1.4.1 0 .2 0 .2.1 0 0-.1 0-.2.1-.2.2-.2-.4-.5-.2-.1 0-.2.1-.2.2.2-.2.1 0 .2 0 0 0 .1-.1.1 0s-.3 0-.2.2c0 .1.1.2.2.2v-.1c0 .3.1.3.2.2 0 0-.1 0-.1-.1l.2-.1.2.1c.1 0 0-.3.2-.2h.1c0-.1 0-.3-.1-.3l-.1-.2c.3.1.7.2.9 0 .2-.1.3 0 .4 0 0 0 .1 0 .1.1v.3c0 .1-.2 0-.3 0h-.1c-.1 0-.2.1-.2.2l.1-.1c0 .1.1.2.2.1-.1 0-.2.2-.1.2h.2c0 .1 0 .1.1.1v-.1h.1l.1-.2v.2h.1c0 .1.1.1.2.1 0 0-.1 0-.1-.1v-.1c0-.2-.1-.2-.1-.2 0-.1.2 0 .2-.2 0 0 0-.1-.1-.1 0 0 .1 0 .1-.1-.1 0-.1-.1-.1-.2 0 0 .1-.1.1-.2 0 .1-.2.1-.2 0 0 0 0-.1-.1-.1-.2 0-.4 0-.8-.1.9.2 1.4.1 1.4-.1m-5.2 2.7l.1-.2s.1 0 0-.1c0 0-.2.1 0-.1.1-.1.5.2.3.2 0 0 0-.1-.1-.1v.1c-.2-.1-.1.1-.1.2h-.2m.3-.5c0 .1-.1.1-.2 0l-.1-.2c.1.2.2.2.3.2m.1 0s.2.1.3.1c-.2.1-.3.2-.3-.1m4.5.6c0-.9-3.4.3-3.4-.5 0-.2.7-.1 1.1-.1.2.4 1.9-.2 2.4 0-.5-.4-1 0-1.6-.1.4 0 .8-.1.8-.2-.3.2-1-.1-1.4.1-.4.2-1.3-.2-1.3.3 0 .7 2.2.3 2.8.3s.6.1.6.2c-.1.2-.6.2-.9.2-.5 0-2.6-.3-3.3 0 .1-.3.5-.7.1-.7l-.1-.2c-.5-.4-.2-.1-.5-.2h-.1l-.1-.1v.2c-.1 0-.2.2-.2.2.1.3-.1.3 0 .4v.2h-.1c-.4 0-.7-.4-.7-.6 0-.2.1-.2 0-.4 0-.1-.1-.1-.2-.1 0 0 .1 0 .1.1-.1.1-.1.1 0 .2v.1c0 .1 0-.2-.2-.2 0-.1-.1-.1-.2 0h.1c0 .1 0 .2.1.2v.1c-.2-.1-.2 0-.2.1-.1 0-.1.1 0 .2v-.1h.2c-.1.1-.1.2 0 .2 0 .2-.3.1-.2 0-.1.2.1.4.3.3 0 0 0 .1.1.1 0 0 .1-.1.1 0s0 .1.1.1v-.1s.2.3.4.4c.1 0 .1 0 .2-.1 0 0 .2.3.1.3h-.5c-.1.1-.4.2-.5 0-.1-.1 0-.2-.2-.2-.4-.1-.2 0-.2.1v.1c-.1.2.3.2.2.2-.3 0-.3-.2-.4-.2h-.1c-.1 0-.2.1-.2.2 0 0 0-.1.1-.1.1.1 0 .3.3.1.1-.1-.2.2-.1.2v.1c0 .1.1.2.2.2 0 0-.1-.1-.1-.2.2.1.1-.1.2-.2 0 .3.4.1.3 0h.1v.2l.2-.1h.3c0 .2 0 .1.1.1 0 0 0 .1.1.2 0-.3.4-.1.6-.3.1 0 0 .1-.1.1.1 0 .2 0 .2-.1l.3-.1c0-.1 0-.1.1-.1-.1.1.2-.1.2-.1 1 .1.5-.5 1.6-.3.1 0 .1 0 .1-.1-.1.1-.1.3.1.3s.2.1.2.1h-.2l-.4-.2c-.1 0-.3.1-.2.2.1-.2.1 0 .1 0 0 .1.1 0 .2 0 0 .1-.3 0-.2.2 0 .1.1.2.2.2 0 0-.1 0-.1-.1h.1v.1c0 .2.1.2.2.2-.2 0-.1-.1-.1-.1v-.1h.1c0 .1.1.1.2.1l.1-.2c.1 0 .3.1.4 0 0-.1 0-.2-.1-.3l-.1-.2c.3.1.6.2.9 0 .1-.1.4-.1.4 0-.1.3.1.3-.3.2-.1 0-.3.1-.3.2l.1-.1c0 .1.1.2.2.1s-.2.2-.1.2l.2.2v-.1l.2-.2c.1-.1-.1.2 0 .2s.1.2.2.1c0 0-.1 0-.1-.1v-.1c0-.2-.1-.2-.1-.2 0-.1.2 0 .2-.2 0-.1-.1-.1-.1-.1.3 0-.1-.2 0-.2 0 0 .1-.1.1-.2 0 .1-.2.1-.2 0 0 0 0-.1-.1-.1-.2 0-.3 0-.7-.1.8.1 1.3 0 1.3-.2m3.9 3.5v.3-.3zm.1.3c.1-.1.1-.1.2-.1 0 0 0-.1-.1-.1 0 0 .1 0 0-.1h-.1v-.1h.1l.2.1v.2s0-.1-.1-.1v.1l-.2.1v.2-.2m.3-.6c0 .1-.1.1-.2.1l-.1-.2c.1 0 .3.1.3.1m.1.1s.2.1.3.1l-.2.1s-.1-.1-.1-.2m4.6 1.2s.1-.1.1-.2c0 .1-.2.1-.2 0 0 0 0-.1-.1-.1-.2 0-.4 0-.8-.1 1.5-.1 1.1-.7.2-.7-.7 0-2.6.2-2.6-.1 0-.2.7-.1 1.1-.1l.1.1c.8.2 1.7-.4 2.2-.2-.7-.2-1 .2-1.6 0 .4 0 .8-.1.8-.2-.3.2-1-.1-1.4.1h-.1c-.6 0-1.3-.1-1.3.3 0 .7 2.2.3 2.7.3.6 0 .7.1.7.2 0 .2-.5.2-.9.2-.5 0-2.6-.3-3.3 0 0-.1.3-.4.2-.5.1 0 .1-.1.1-.2 0 0-.1-.1-.2-.1v-.2s-.1-.1-.2-.1-.2 0-.2-.1h-.1s-.1 0-.1.1c0 0-.1-.1-.2-.1v.2c-.1 0-.2.2-.2.2 0 .1.1.1.1.1-.1.1-.1.3-.2.3 0 .1.1.1.1.1v.2h-.3l-.4-.3c-.2-.2 0-.3 0-.6 0-.2-.1-.2-.2-.2 0 0 .1 0 .1.1 0 0 0 .1-.1.1v.2c-.1-.2-.1-.2-.2-.2 0-.1-.1-.2-.2-.1h.1v.1c0 .1.2.1.2.1-.2-.1-.2 0-.2.1-.1 0-.1.1 0 .2v-.1h.2s.1 0 0 .1-.1.2 0 .2c0 .2-.3.1-.2 0-.1.2.1.4.3.3 0 0 0 .1.1.1 0 0 0 .1.1.1v-.1s.2.3.4.4c0 0 .1-.1.2-.1 0 .1 0 .1.1.1 0 .1.1.3.1.3h-.4c-.1.1-.4.2-.5.1 0-.1 0-.1-.1-.2l-.1-.1h-.1s-.2-.1-.2 0c0 0 .1 0 .1.1v.1s0 .1.2.2h-.1c-.1-.1-.1-.1-.2-.1h-.1c-.1 0-.2.1-.2.2 0 0 0-.1.1-.1v.1c0 .1.1.2.3 0l-.1.1c0 .1.1.2.2.2 0 0-.1-.1-.1-.2h.1c.1 0 .1-.2.1-.2s0 .2.1.1c.1 0 .2-.1.1-.2l.1.1s.1 0 .1-.1v.2s.2-.1.2-.2v.1h.2v.1-.1s0 .1.1.2c0-.3.2-.2.4-.3 0 0 0 .1-.1.1.1.1.3-.1.3-.2 0 0 .1 0 .2-.1.2 0 .2-.1.2-.1 1 .1.5-.5 1.6-.3.1 0 .1-.1.1-.1-.1.1-.1.4.1.4.1 0 .2 0 .2.1h-.2l-.4-.2h-.1c-.1 0-.2.1-.2.2l.1-.1s0 .1.1.1h.1c0 .1-.3 0-.2.2v.1c0 .1 0 .1.2.1 0 0-.1 0-.1-.1v.1c0 .1.1.2.2.1 0 0-.1 0-.1-.1h.1v-.1h.1s.1.1.2.1l.1-.2h.4c0-.1 0-.2-.1-.3l-.1-.2c.1.1.2.1.4.1.3 0 .4 0 .5-.1.2-.1.3 0 .4 0 0 0 .1 0 0 .1v.2c0 .1-.2 0-.2 0h-.1c-.3.1-.3.2-.3.3v-.1c0 .1.1.1.2.1-.1 0-.2.1-.1.2 0 .1 0 .1.1.1v-.1h.1l.1-.2c0 .1-.1.2 0 .2.1.1.1.1.2.1 0 0-.1 0-.1-.1l.1-.1c.1-.2-.1-.2-.1-.2 0-.1.2 0 .2-.2 0-.1-.1-.1-.1-.1h.1c.8.2.9.1.9 0m-4.6 2.1c-.1 0-.1-.1-.1-.2l.1.2c.1-.1.1 0 0 0m-.1.1c-.1-.1-.1 0 0 0h-.2v.2l-.1.1c-.1 0-.1-.1 0-.2 0 0 0-.1.1-.1h.2c-.1-.1-.1-.1-.2-.1 0 0 .1 0 0-.1h-.1v-.1h.1l.2.1v.2m-.1-.4c0 .1-.1.1-.2 0 0-.1 0-.1-.1-.2.1.2.3.2.3.2m1.9.1c.9.3 1.7-.3 2.2-.1h-1.5c.4 0 .7-.1.8-.2l-1.3.1c-.4 0-.8 0-.8.3 0 .6 1.6.3 2.1.3s.5.1.5.2-.6.2-.9.2c-.5 0-1.7-.2-2.6-.1.1-.1.2-.3.1-.4.1 0 .1-.1.1-.2 0 0-.1-.1-.2-.1v-.2s-.1-.1-.2-.1-.1 0-.2-.1h-.2l-.1-.1v.2l-.2.2c0 .1 0 .1.1.1l-.2.3s0 .1.1.1v.2h-.1c-.1 0-.2 0-.3-.1-.1-.1-.1-.1-.1-.3 0-.1.1-.2 0-.3v-.1c0-.1-.1-.1-.2-.1 0 0 .1 0 .1.1v.2c0-.1-.1-.2-.1-.2 0-.1-.1-.1-.2-.1h.1v.1c0 .1.1.1.1.1-.1-.1-.2 0-.2.1v.1c-.1 0-.1.1 0 .2v-.1h.1c-.1.1-.1.2 0 .2 0 .2-.2.1-.2 0-.1.2.1.4.3.3 0 0 0 .1.1.1 0 0 0 .1.1.1v-.1s0-.1.2 0c0 0 0 .1.1.1h.2v.3h-.3c-.1.1-.4.2-.5 0 0 0 0-.1-.1-.1l-.1-.1h-.1c0-.1-.2-.1-.2 0 0 0 .1 0 .1.1v.1s0 .1.2.2h-.1c-.1-.1-.1-.1-.2-.1h-.1c-.1 0-.2.1-.1.2 0 0 0-.1.1-.1 0 .1.1.2.2 0l-.1.2c0 .1.1.2.2.2 0 0-.1-.1-.1-.2h.1l.1-.2s0 .1.1.1.2-.1.1-.2l.1.1s.1 0 .1-.1v.2s.2-.1.2-.2v.1h.2v.1-.1s0 .1.1.2c0-.3.2-.2.4-.3 0 0 0 .1-.1.1.2.1.4-.1.4-.3v-.1.1c.2 0 .2-.1.2-.1.5 0 .1-.5.9-.3.1 0 .2 0 .2-.1-.1.1-.1.4.1.4.1 0 .2 0 .2.1h-.2l-.4-.2h-.1c-.1 0-.2.1-.2.2l.1-.1s0 .1.1.1h.1c0 .1-.2 0-.2.2v.1c0 .1 0 .1.2.1 0 0-.1 0-.1-.1v.1c0 .1.1.2.2.1 0 0-.1 0-.1-.1h.1v-.1c0 .1.1.1.2.1l.1-.2h.4c0-.1 0-.2-.1-.3l-.1-.2c.1.1.2.1.4.1.3 0 .4 0 .6-.1h.4s.1 0 0 .1l-.1.2c0 .1-.2 0-.2 0h-.1c-.1 0-.2.1-.2.2l.1-.1c0 .1.1.1.2.1-.1 0-.2.1-.1.2l.1.2v-.1h.1c.1 0 .1-.1.1-.2-.1.2 0 .2 0 .2 0 .1.1.1.2.1 0 0-.1 0-.1-.1l.1-.1c.1-.2 0-.2 0-.2 0-.1.2 0 .2-.2v-.1s.1 0 .1-.1c-.1 0-.1-.1-.1-.1s.1-.1.1-.2c0 .1-.2.1-.2 0 0 0 0-.1-.1-.1-.2 0-.5 0-.8-.1.4 0 1-.1 1-.3s0-.3-.7-.3c-.6 0-1.9.2-1.9-.1.6.3.8.3 1.1.3m-2.4 3.2c.1-.1.1-.2 0-.2 0 0 .1 0 0-.1h-.1v-.1h.1l.2.1v.3-.1l-.2.1v.2-.2m.2-.5s-.1.1-.2 0c0 0 0-.1-.1-.2.2.1.3.2.3.2m.2.1l.2.1c-.1 0-.1.1-.1.1-.1-.1-.2-.2-.1-.2m1.5-.1c.9.3 1.7-.3 2.2-.1h-1.5c.4 0 .7-.1.8-.2l-1.3.1-.2.2c-.2 0-.5.1-.5.3 0 .5 2 .1 2 .3 0 .5-2.4.1-2.8.2.1-.2.3-.4.2-.5.1 0 .1-.1.1-.1l-.2-.1v-.2s-.1-.1-.2-.1-.1 0-.2-.1h-.2l-.1-.1v.2l-.2.2c0 .1 0 .1.1.1-.1.1-.1.2-.2.2l.1.1c0 .2-.1.4 0 .5l-.4-.5c-.1-.1-.1-.1-.1-.2v-.4c0-.1-.1-.1-.2-.1 0 0 .1 0 .1.1v.2c0-.1-.1-.2-.1-.2 0-.1-.1-.1-.2 0h.1v.1c0 .1.1.1.1.1-.1-.1-.2 0-.2.1v.1s-.1.1 0 .2v-.1h.1c-.1.1-.1.2 0 .2 0 .2-.2.1-.2 0-.1.2.1.3.3.2 0 0 0 .1.1.1 0 0 0 .1.1.1v-.1s0 .3.2.4c0 .1.2.2.3.2 0 .1.1.2.1.2h-.4l-.3.1h-.2s0-.1-.1-.1l-.1-.1h-.1s-.1-.1-.2 0c0 0 .1 0 .1.1v.1s0 .1.2.2h-.1c0-.2 0-.2-.1-.2h-.1c-.1 0-.2.1-.1.2 0 0 0-.1.1-.1v.1c0 .1.1.2.2 0 0 .1-.2.1-.1.2 0 .1.1.2.2.2 0 0-.1-.1-.1-.2h.1l.1-.2s0 .1.1.1l.1-.1.1.1s.1 0 .1-.1v.2l.2-.2v.1h.2v.1-.1s0 .1.1.2c0-.3.2-.2.3-.3 0 0 0 .1-.1.1.1 0 .2-.1.2-.2 0 0 .1-.1.2-.5h.1l.5-.2c-.1.1-.1.2-.1.3l.2.3h-.2l-.4-.2h-.1c-.1 0-.2.1-.2.2l.1-.1s0 .1.1.1h.1c0 .1-.2 0-.2.2v.1c0 .1 0 .1.1.1 0 0-.1 0 0-.1v.1c0 .1.1.1.2.1h-.1.1v-.1l.1.1.1-.2h.3s0-.2-.1-.3c-.1 0 .1-.4-.2-.6.1 0 .6.1.7 0 .1 0 .3.1.3.2v.1c-.1.1-.1.1-.2.1l-.1-.1h-.1c-.1 0-.2 0-.2.1h.1v.1c-.1 0-.2 0-.2.1v.1s-.1.1 0 .2l.1-.1s.1-.1.2 0c-.1 0-.1.1-.1.1s0 .1.1.2v-.1h.1c.1-.1.1-.2.1-.2s.1.1.2 0v-.1s.1.1.1 0c-.1-.1 0-.1 0-.2 0 0 .1 0 .2-.1-.1 0-.2-.1-.1-.1s.2-.1.1-.2-.4-.1-.4-.2c.4 0 1.2 0 1.2-.4 0-.5-2 0-2-.3.7-.2.8-.3 1-.3m-32-34.4c0-.7-.9-.7-.9 0s.9.6.9 0m-.2-1.3c0-.6-1-.6-1 0s1 .7 1 0m.3-.5c.7 0 .7-.9 0-.9s-.7.9 0 .9m1.2-.1c.3 0 .5-.2.5-.5 0-.7-.9-.7-.9 0-.1.3.2.5.4.5m5.5-.9c.5.5 1.1-.2.7-.7s-1.2.3-.7.7m-.1-1c.5-.5-.2-1.1-.7-.7s.2 1.2.7.7m-1.3-.2c.5-.5-.2-1.1-.7-.7s.2 1.2.7.7m-1.1.8c.2-.2.2-.5 0-.7-.5-.5-1.1.2-.7.7.3.1.5.1.7 0M15.5 6l.4.9.5-.6c.1.1.1.9.1 1 0 .4.3.6.6.6.7 0 .9-.9.3-1.1-.1-.1-.7-.6-.7-.7l.9.1-.3-.9-.6.5v-.9l-.9.3.6.7v.1h-.9zm5.5 1.5c.5.8.3.9-.2.2l.1 1.1c.8-1.1.3.6-.2.7-.9.2-.7-1.2-.1-.6.1-.7-.5-.7-.8-.4.3-.7.2-1-.4-1.4-.4.6-.2 1 .3 1.4-.5-.2-.9.2-.5.7.1-.5.5-.4.6 0 .2.7-1.2 1.4-1.8.2.2-.1.5-.1.9.2l-.3-1c-.3.7-.9 1.1-.5-.3l-1.3.6c1.3.7.6.8-.1.5l.6 1c.1-.5.4-.8.5-.8.5 1.2-1 1.7-1.4 1-.2-.3 0-.7.4-.4-.1-.7-.6-.7-.8-.2 0-.7-.2-1-.9-1.2-.2.7.1 1 .7 1.3-.4 0-.8.3-.3.8 0-.9 1 0 .4.5-.4.3-1.9-.7-.6-.4l-.7-.9c.1.8-.1.9-.3 0l-.6.5c.5.3 1.1.8 1.8 1.8 1.5-.9 4.2-2.1 6.1-2.5-.2-1.1-.1-1.9.1-2.5.1.1-.7.1-.7.1zm1.5 6.4c-.7.6-1.5 0-2-.7.9-.4 2-.8 2.7-1.2-.6 1-.1 1.4-.7 1.9m-.2 6.9c-1.3.6-2.3-1.5-1.8-2 .4-.4.5-.7.3-1.1-.3-.6-.9-.3-1.4-.1.3-.5.3-.9-.1-.9-.5.1-.5.8-.8.7-.3-.1-.1-.5-.1-.8 0-.6 1.2-.9 2.9-1.5.3-.1.6-.2.8 0 .2.2.6.4.5.6-.1.3-.7-.3-1 0-.3.2 0 .5.5.7-.6.3-1.1.6-.9 1 .2.5.5.6.9.6.3 0 .5.4.8.9.3.7.4 1.5-.6 1.9m-4.7-5c-.7.1-.7-.6-1.8-.9.9-.2 1.9-.6 2.8-.9.2.7-.2 1.7-1 1.8m13.9 22.2c.2-.5-.8-1-.9-1.8-.4-2.9-.5-1.4-5.4-7.4.2 0 .8-.1 1.2.4 2.9 2.7-.1 1.2 5.1-4-.5.2-1.2.3-1.7.6 0-.9 0-1.5-.6-2.1.2-1.1 0-2.6-2.6-4.4 1.3.3 2.2 1.5 3.1.6-.9 0-.9-2.1-4.3-3.7 1.2 0 2.3 2 3.8.9-1.4-.2-1.9-2.7-4.4-3.4.9.1 1.8.6 2.5-.5-.9.2-1.4-.6-2.3-.7.4-1 .3-1.7-.1-2.6-.7 0-1.3.3-1.8.7-.1-.6-.7-.7-1.2-.6 0 .3.2.7-.1.7-1.8.4-4.2 1.2-6 2.5-.2.2-.5-.2-.6-.4-.4.4-.8.8-.5 1.2-.7.1-1.3.2-2 .7 0 .8.7 1.4 1.5 1.9-1.2 1.4.2 2.9-1.2 4.2 1.9.1 1.6-2.6 2.6-2.9-.1 1.9-1.1 2.2-1.1 4.3 0 1 .7 2.3.1 2.9 1.6-.5 1.1-4 2.2-5 .2.6.1 1.2-.1 1.8-.6 1.6.1 3.9-.9 4.7 1.6-.2 1.8-2.8 3.2-3.8-1.1 2.4-2.4 7.4-4.1 10-2.8 3.8-4.5 8.4-7 8.4-1.1 0-2-.7-2-2.1 0-4.3 7.3-7.2 7.3-11.8 0-2.4-2.6-3.9-4.9-1.9-3.5-1.4-2.6 4.5-5 4.5.9.5 2.5-.5 3.3-1.8-.4 3-4.7 2.2-4.4 5.9.6-2.8 10.4-3.5 7-8 .6-.4 1-.5 1.4-.5.9 0 1.6.7 1.6 1.8 0 4.2-10.2 8.9-6.7 13.8-.5.2-1 .1-1.5-.4 0 1.2 1.7 2 2.8 1.3l.8.2c-.3.9-1.4 1.1-2 1.1 1.8 1.4 4.9-.5 4.7-2 2.2-1.8 3.5-5.8 3.2-3.5-1 1.9-2 3.6-2.3 6.1-.2 2.1-1.3 4-2.8 4-.3 0-.9-.4-1.1-.2-.5.4 0 .9 0 1.2 0 .6-1.1 1.2-1.1 3 0 .9.5 1.8.3 2.4.5-.3 1.1-1 1.3-2.1.5 2.5-1 2.4.1 4.5.2-1.3 2.1-1.1 1.2.1-.2.2-.6 1.8.9 1.7-.3-.2-.3-.6.5-.8 1-.2 1.3.3 2.4.3.7 0 .9-.9 1.4-.9s.6.4.4.8c.9-.2 1-.7 1-1.1s-.4-.8-.1-.9c.3-.2 1.3 0 .9.9 1.2-.2 1-2.3-.6-2-.1-.4-.7-.6-1.2-.6-1.2 0-1 .9-1.8.9-1.3 0-2.6-1.7-2.6-4.6 0-2.6 4.4-1.6 7.3-6.3.9-1.6 1-3.4.9-5.5 2.2 1.3 2.5 4.5.6 5.4-.5.2-.6.1-.7.4-.1.3.2.5.4.7.6.3.5.9.7 1.5.2.7.8 1.6 1.6 2.3.1-.4.1-1 0-1.8 1.2.7.3 3.2 2.8 3.2-.5-.3-.4-.9-.1-1 .3-.1.6.2 1 .9.5.7.4.6 1.5.6s.7-.4 1.2-.4c.7 0 .6.8.3 1.2 1-.3 1.3-1.1 1-1.9.9-.5 1.4.2 1.5.7.9-.9 0-2-.8-2.1.1-.8-1-.8-1.8-.8l-1.1.7c-1.5 0-4.7-2.8-4.7-4 0-1.2 2.9-2 2.9-3.8 0-2.5-2.4-3.3-4.5-4.8.8-.9 2.8-1 4.1-.4.1-.7.6-.5.8-1.7.5 1 0 1.9.4 2.4.4-.5 1.2-.5 1.1-1.7.3.8-.4 2 .3 2.6.1-1 1.2-1 1.2-.2 0 .9-1.2.6-1.2 1.6 0 .5.6.7.6.9s-.5.8-1 .4c.6 1.3 2 .9 2.5-.2.3.7.1 1.5-.5 1.6.6.3 1.8 0 1.6-1.6.8.1 1.1.6.7 1.5.6-.2 1.1-.5 1.1-1-.2-1.2-.7-1.4-.5-1.9m47.3 11.7c0-2 3-2 3 0 .1 2.1-3 2.1-3 0m-.5 0c0 1.1.9 2.1 2.1 2.1 2.8 0 2.8-4.1 0-4.1-1.2 0-2.1.9-2.1 2m-6.8 3.8c-.6-.1-1-.6-.9-.9 0-.2.2-.4.3-.5.3-.2.6-.2.9-.2 1.4.3 1.1 1.8-.3 1.6m-.9-1.9c-.3.2-.5.5-.5.8-.1.4 0 .8.3 1 .9.9 2.7.7 2.8-.5.3-1.2-1.4-2-2.6-1.3m-11.4-27.7c0-1 1.8-1.4 1.7-.4-.2 1-1.7 1.3-1.7.4m0-1.2c-1.5 1.1-.2 3.2 1.5 2 1.5-1.3.1-3.2-1.5-2zm9.7 27.9c-1 0-1-2.2 0-2.2 1.2 0 1.1 2.2 0 2.2m-.7-2.4c-.9.9-.5 2.8.8 2.8 2.4.2 1.1-4.7-.8-2.8m-9.7-14.6c-1-.5-.8-1.5-.3-1.5.7-.2 1.5.3 1.6.8 0 .1.1.3 0 .5s-.3.3-.4.3c-.2.1-.6 0-.9-.1m-.4-2.1c-1.8.6 0 3.3 1.5 2.6 1.7-.6.5-3.1-1.5-2.6m14.9 9.4c-.4.5-.9.7-1.3.4-.9-.7.3-2.4 1.2-1.7.4.3.5.8.1 1.3m-2.4 3.9c-.9 1.1-2.2.2-1.3-.9.4-.5.9-.7 1.3-.4.3.3.3.8 0 1.3m-8.3-21.1l.9-2.7.9.4c-.3.1-.6.4-.9.7.2.1.6.1.9-.1l-.4 1c-.7-1.2-1.1.1 0 .7 1.6.9 1.3-.9.4-.5-.1-.9.9-1 1-.2 0-.8.3-1.4 1-1.6.3.8.1 1.3-.6 1.9.9-.4 1.2.6.5.9-.2-.9-1.8-.1-.3.8 1.2.7 2-1.1.6-.2l.7-1.1c0 .2.1.5.4.7.1-.3.2-.8 0-1.1l1.3.8c-.8.1-1.3 1-.2.6l-.6 1c0-.4-.1-.7-.3-.9-.7 1.2 1.1 2.1 1.5 1.5.2-.3-.1-.9-.7-.7 0-.9.9-1 1.1-.1.2-.8.6-1.2 1.3-1.4.2.8-.2 1.3-.9 1.7.9-.3 1.1.7.4 1-.1-.5-.7-.7-.9-.3-.3.5 1.1 1.7 2 .9-.2-.2-.6-.3-.8-.3l.7-.8c0 .3.2.7.4.8.1-.4.2-.8.1-1.1l.8.7s-1.2 1.3-1.9 2.1c.2-.1-8.4-5.1-8.4-5.1zm10 11.5c0-1.6 2.8.1 1.7 1.1-.5.5-1.7-.1-1.7-1.1m3.7 17c.2-.9 1.5-1.3 1.9-.7.8 1.2-2.1 2.3-1.9.7m-17.5-25.6c0 1.4-1.5 1.1-1.2 0 0-1.2 1.2-1.2 1.2 0m5.4-11.1c.3-.6 0-1.4 1-1.4.5 0 .9.5 1.5.7-.9 0-1.8.2-2.5.7m15.8 13.9c.7 1.8 2 2.5 3 2-2.3-.3-.5-4.2-3.3-4.2-1 0-.8-.7-2.4-.7-1.2 0-3.4 1.2-3.4 3.7 0 5.3 6.2 5.8 6.2 10.5 0 1.4-1 2.3-2.2 2.3-1.7 0-2-2.3-5-6.3 1 .7 2.2.1 2.2-.9 0-2.3-3.7-2.4-2.8 0-3.4-4.4-2.9-4.6-1.3-6.8l.3.1c.3-.3 1.9-1.9 2.1-2.3l.3-.3-.8-.5.5-1.3c.2.9.7 1.4 1.2 1.2-.4-.9.4-2.1-.1-4.3.5.9 1.2 1.2 1.8 1.1-1.3-1.2.4-2.9-1.4-5.5.6.2.9.1 1.2-.2-1.6-.2-.9-2.3-3.7-3 .7-.1 1.1-.6 1-.9-.8.6-1.4-1-3.9-.9-.2-.9-1-1.9-2-2.4.2.8 0 1.3-.2 1.9l-8.1-7.9c-3-2.8 7.3 9.9 6.5 8.9-1.4.5-2.2.5-2.2 1.4-1.3.7-2.4 1.4-2.9 1.9-.5.4-.8.5-.4 1.3.2.3-.3 1.1.7.6 2.7-1.6 3.1-.6 1.2.1-.5.2-1 .6-.9.8l.5.2c0 .2.2.5.4.5s.5-.4.7-.3c.2.1-.1 1-.3 1.3.8-.1 1.3-.9 1.3-1.4s.2-.8.3-.9c.1-.1.3.7.1 1 .4-.1.9-.7.8-1.6 1-.9.9.5 2.1.5 1.7 0 2.8-1.8 2-2.8.5.4.7 1 .7 1.5 0 2-3.3 2.8-5 4.4l-1.6-.7c-.2.8-.8 2.4-.9 3l-.1.3.1.2c-.9 1.2-1.7 2.7-1.9 4.2-.4-.4-.8-.8-1.1-1 0-.1.1-.3.1-.5.1-1.2-1-2-1.9-1.2-.2.2-.1.2-.3 0-1.6-1.2-2.1-2.3-3.7-1.2-1.1 1-1.1.4 0 1.7.1-.1.2-.2.3-.2.9-.9 1.4.8 3.8 3.4-.6.2-.9.4-2.3.3-.5 0-.6-.2-.9.4-1.2 1.9-.4.4 1.7 5.4.7 1.7 2.4 1.3 3.8 2.7l.1-.8c-.4-.4-2.2-.8-1.2-.8.3 0 1.2.3 1.9.6-.2-.8-.9-1.5-1.3-2-.6-.2-1.1-.2-1.3 0 0 .6-.8.4-.6 0 .1-.2.4-.3.3-.7s-.6-.5-.9-.5c-3.1-4.3-.6-2.4 3.7-2.4.6 5.7 5.3 3.1 6.7 6.8-5.3-.1-6.2 2-6.2 3.9 0 2.2 1.9 2.1 1.9 3.8 0 1.4-4.5 2.1-5.8 2.3-1.1.2-1.8.4-2.4.9-.6.6-1.1 1-2.1 2.1 0 0 .4.1.9.1l.8-.9c.2-.3.4-.6.6-.6s.1.3-.1.7l-.7 1c2.7.2 2.8-.8 2.8-1.2 0-.4-.7-.7-.3-.9.4-.3.7-.1.9.3.3.4.4.7 1.1.4 0 0 5.7-2.4 6.5-2.7.7-.3.5-.6.1-.9-.4-.4-.5-.9-.5-1.5 0-1.7 1-2.3 2.8-2.2-.4 3.7 4.1 6.2 5 6.2.5 0 1.1-.4 1.2 1.2.1 2.5.8 4.1-1.4 5.6-.9.6-1.6 2.4-2 2.8.4.3.8.3 1-.6.3-.8.6-1.2.9-1.4-.3.9-.6 2-.7 2.4 1 .2 2.8-.8 2.8-1.5 0-.8-.6-.7-.6-1.1 0-.7 1.2-.6 1.3 0 .5-.3.8-.7.8-1.8l.9-.6c.9.1 1.9-.8 1.9-1.7 0-1.6-2.6-1.5-3 .1-.1-1.4-.2-2.8-.2-3.4.1-.9.1-1.2-.2-1.3-.3-.1-.6.4-.9.4s-1.6-1.1-1.6-2.3 1.2-2.7 1.2-4.3c0-.5.3-.8.5-.3.3.6.6 1.2 1.1 1.9-.4 2 1.9 4 3.7 2.5-.9.1-1.5-.7-1.9-1.4h.8c.7.8 2.7.8 3.1-1.2-.4.4-1 .8-1.6.7.8-.6 1.1-1.5 1.1-2.6 0-5-6.2-5.7-6.2-10.2 0-2 2.2-3.5 3.5-2.5-.4.4-.6 1-.6 1.8.2 3.6 6.1 3.5 6.2 5.2 1-3.2-3.5-2.4-3.7-6"/></svg>