<?xml version="1.0" encoding="utf-8"?><svg width="244" height="199" viewBox="0 0 244 199" xmlns="http://www.w3.org/2000/svg" xmlns:xlink="http://www.w3.org/1999/xlink"><view id="icons--caret-bottom" viewBox="52 0 52 36"/><svg width="52" height="36" viewBox="-10.62 -10.62 55.25 38.25" x="52"><title>caret-bottom</title><path d="M.41.066L16.803 16.46 33.196.065H.41z"/></svg><view id="icons--caret-left" viewBox="156 0 36 52"/><svg width="36" height="52" viewBox="-10.62 -10.62 38.25 55.25" x="156"><title>caret-left</title><path d="M16.934.87L.54 17.26l16.394 16.393V.868z"/></svg><view id="icons--caret-right" viewBox="0 42.59 36 52"/><svg width="36" height="52" viewBox="-10.62 -10.62 38.25 55.25" y="42.59"><title>caret-right</title><path d="M.475.87v32.786l16.393-16.393L.475.87z"/></svg><view id="icons--caret-top" viewBox="36 42.59 52 36.48"/><svg width="52" height="36.48" viewBox="-10.31 -10.31 53.63 37.63" x="36" y="42.59"><title>caret-top</title><path d="M16.607.066L.214 16.46H33L16.61.065z"/></svg><view id="icons--check" viewBox="104 0 52 45.41"/><svg width="52" height="45.41" viewBox="-10.62 -10.62 55.25 48.25" x="104"><title>check</title><path d="M27.205.803l-2.828 2.95-11.393 11.394-3.32-3.197L6.714 9l-5.78 5.778 2.95 2.95 6.15 6.15 2.827 2.95 2.952-2.95L30.156 9.532l2.95-2.95-5.9-5.78z"/></svg><view id="icons--chevron-bottom" viewBox="104 45.41 52 42.59"/><svg width="52" height="42.59" viewBox="-10.62 -10.62 55.25 45.25" x="104" y="45.41"><title>chevron-bottom</title><path d="M16.934 23.098L33.327 6.705 27.18.557 16.932 10.803 6.687.557.54 6.705 16.93 23.098h.002z" fill="#000" fill-rule="evenodd"/></svg><view id="icons--chevron-down" viewBox="140 146.59 49 37"/><svg width="49" height="37" viewBox="-10 -10 49 37" x="140" y="146.59"><title>Rectangle 1</title><path d="M14.31 12.013L2.387.09.167 2.31 13.2 15.342l1.11 1.11L28.452 2.31 26.232.09 14.31 12.013z" fill="#4A4A4A" fill-rule="evenodd"/></svg><view id="icons--chevron-left" viewBox="39.39 94.59 42.59 52"/><svg width="42.59" height="52" viewBox="-10.62 -10.62 45.25 55.25" x="39.39" y="94.59"><title>chevron-left</title><path d="M17.295.803L.902 17.196 17.295 33.59l6.148-6.15-10.246-10.245L23.443 6.95 17.295.8z"/></svg><view id="icons--chevron-right" viewBox="81.98 94.59 42.59 52"/><svg width="42.59" height="52" viewBox="-10.62 -10.62 45.25 55.25" x="81.98" y="94.59"><title>chevron-right</title><path d="M6.984.803L.836 6.95l10.246 10.247L.836 27.443l6.148 6.148L23.377 17.2 6.984.805z"/></svg><view id="icons--chevron-top" viewBox="0 0 52 42.59"/><svg width="52" height="42.59" viewBox="-10.62 -10.62 55.25 45.25"><title>chevron-top</title><path d="M17.066.902L.673 17.295l6.148 6.148 10.247-10.246 10.246 10.246 6.148-6.148L17.07.902z"/></svg><view id="icons--circle-check" viewBox="192 0 52 52"/><svg width="52" height="52" viewBox="-10.62 -10.62 55.25 55.25" x="192"><title>circle-check</title><path d="M17 .803C7.943.803.607 8.14.607 17.196S7.943 33.59 17 33.59s16.393-7.337 16.393-16.394S26.057.803 17 .803zm8.197 7.295l2.95 2.95-13.196 13.198-7.048-7.05 2.95-2.95 4.1 4.098L25.196 8.098z"/></svg><view id="icons--circle-x" viewBox="192 52 52 52"/><svg width="52" height="52" viewBox="-10.62 -10.62 55.25 55.25" x="192" y="52"><title>circle-x</title><path d="M16.934.803C7.877.803.54 8.14.54 17.196S7.878 33.59 16.935 33.59s16.393-7.337 16.393-16.394S25.99.803 16.934.803zm-6.148 7.295l6.148 6.148 6.148-6.148 2.95 2.95-6.147 6.15 6.148 6.147-2.95 2.95-6.15-6.147-6.147 6.148-2.95-2.95 6.147-6.15-6.148-6.147 2.95-2.952z"/></svg><view id="icons--external-link" viewBox="0 146.59 51.06 52"/><svg width="51.06" height="52" viewBox="-10.62 -10.62 54.25 55.25" y="146.59"><title>external-link</title><path d="M0 .607v32.787h32.787v-8.197H28.69v4.098H4.1V4.705h4.097V.607H0zm16.393 0l6.148 6.148L12.296 17l4.098 4.1L26.64 10.852 32.786 17V.61H16.394z"/></svg><view id="icons--info" viewBox="51.06 146.59 36.94 52"/><svg width="36.94" height="52" viewBox="-10.62 -10.62 39.25 55.25" x="51.06" y="146.59"><title>info</title><path d="M13.164.54a4.11 4.11 0 0 0-4.098 4.1 4.11 4.11 0 0 0 4.098 4.097 4.11 4.11 0 0 0 4.098-4.098 4.11 4.11 0 0 0-4.098-4.1zM7.016 10.788a6.14 6.14 0 0 0-6.148 6.148h4.098a2.03 2.03 0 0 1 2.05-2.05 2.03 2.03 0 0 1 2.048 2.05c0 1.148-4.098 6.72-4.098 10.246 0 3.526 2.746 6.15 6.148 6.15a6.14 6.14 0 0 0 6.148-6.15h-4.098a2.03 2.03 0 0 1-2.05 2.05 2.03 2.03 0 0 1-2.048-2.05c0-1.474 4.098-7.54 4.098-10.245 0-3.32-2.746-6.148-6.148-6.148z"/></svg><view id="icons--info-circle" viewBox="88 146.59 52 52"/><svg viewBox="-31.25 -31.25 162.5 162.5" width="52" height="52" x="88" y="146.59"><title>info copy</title><path d="M50 94c24.3 0 44-19.7 44-44S74.3 6 50 6 6 25.7 6 50s19.7 44 44 44zm0-8c19.882 0 36-16.118 36-36S69.882 14 50 14 14 30.118 14 50s16.118 36 36 36zm7-54.987c0 1.658-.57 3.072-1.714 4.235C54.146 36.418 52.77 37 51.16 37c-1.613 0-2.992-.583-4.147-1.752-1.152-1.163-1.73-2.577-1.73-4.235 0-1.654.578-3.07 1.73-4.25C48.165 25.587 49.547 25 51.16 25c1.61 0 2.985.59 4.126 1.764C56.43 27.942 57 29.36 57 31.014zm-.573 39.453a99.712 99.712 0 0 1-4.113 1.886c-1.023.433-2.213.648-3.568.648-2.08 0-3.7-.62-4.854-1.85-1.154-1.237-1.73-2.805-1.73-4.705 0-.736.04-1.493.128-2.264.087-.77.226-1.64.417-2.613l2.15-9.246c.19-.884.353-1.724.482-2.518.13-.788.195-1.513.195-2.167 0-1.18-.2-2.006-.6-2.47-.402-.465-1.165-.7-2.298-.7-.556 0-1.127.11-1.71.318-.583.21-.927-2.25-.927-2.25a48.22 48.22 0 0 1 4.04-1.788c1.285-.496 2.5-.745 3.65-.745 2.067 0 3.662.608 4.78 1.823 1.12 1.215 1.68 2.79 1.68 4.735 0 .4-.036 1.11-.114 2.12a16.992 16.992 0 0 1-.43 2.79l-2.14 9.21a29.24 29.24 0 0 0-.47 2.537c-.14.946-.21 1.668-.21 2.153 0 1.223.225 2.057.675 2.502.453.444 1.233.665 2.34.665.52 0 1.112-.112 1.77-.333.657-.22.857 2.264.857 2.264z" fill="#000" fill-rule="evenodd"/></svg><view id="icons--phone" viewBox="156 52 36 36"/><svg width="36" height="36" viewBox="-10 -10 36 36" x="156" y="52"><title>phone</title><path d="M16 13.332c0-.302-3.58-2.557-3.89-2.557-.308 0-1.347 1.247-1.628 1.385-.28.14-2.03.09-3.98-1.86C4.55 8.35 3.883 6.104 3.883 5.75c0-.353 1.627-1.44 1.672-1.697C5.6 3.8 3.41 0 3.056 0 2.7 0 0 3.28 0 3.555c0 .273.247 3.79 4.7 8.244 4.455 4.452 7.39 4.196 7.745 4.198.357 0 3.555-2.364 3.555-2.666z" fill="#000" fill-rule="evenodd"/></svg><view id="icons--right-arrow" viewBox="0 94.59 39.39 52"/><svg width="39.39" height="52" viewBox="-10.31 -10.31 40.63 53.63" y="94.59"><title>right-arrow</title><path d="M.392 3.438l13.144 13.144L.392 29.726l3.25 3.25 16.393-16.393L3.642.19.392 3.44z"/></svg><view id="logo" viewBox="192 104 52 26.35"/><svg width="52" height="26.35" viewBox="-74.06 -74.06 385.13 195.13" x="192" y="104"><title>logo</title><defs><path id="ra" d="M0 .737h236.997V47H0V.737z"/><path id="rc" d="M0 .737h236.997V47H0"/><path id="re" d="M0 .737h236.997V47H0V.737z"/></defs><g fill="none" fill-rule="evenodd"><path d="M.014 28.77c3.253-6.73 2.34-1.604.004-11.09-.002 3.826-.004 7.9-.004 11.09" fill="#A8BD39"/><mask id="rb" fill="#fff"><use xlink:href="#ra"/></mask><path d="M4.353.736C-2.92.716.54 16.296 3.165 23.04c2.426-3.824 5.33-7.298 8.872-10.324 7.014-6 16.46-10.155 29.276-11.98H4.353z" fill="#A8BD39" mask="url(#rb)"/><path d="M8.465 34.722a37.378 37.378 0 0 1-4.363-6.358c-1.57 2.97-2.905 6.16-4.077 9.538v9.022l29.3.053c-9.14-2.19-15.986-6.55-20.86-12.255" fill="#033E58"/><mask id="rd" fill="#fff"><use xlink:href="#rc"/></mask><path d="M46.15 3.663C31.487 5.06 21.475 9.24 14.303 15.36c-3.848 3.29-6.9 7.168-9.4 11.55C12.025 40.714 26.29 46.975 40.88 47c0 0 5.498.184 5.498-5.923V3.617c-.073.018-.15.038-.228.046" fill="#033E58" mask="url(#rd)"/><path d="M64.103 19.94c-3.417 0-4.485-3.594-4.485-6.864 0-3.316 1.174-6.935 4.485-6.935 3.308 0 4.462 3.62 4.462 6.936 0 3.27-1.024 6.865-4.462 6.865m0-15.1c-4.485 0-6.492 3.76-6.492 8.282 0 4.568 2.008 8.28 6.493 8.28 4.483 0 6.47-3.712 6.47-8.28 0-4.523-1.987-8.28-6.47-8.28M74.334 21.1h1.814V9.712h2.606V8.6h-2.606c0-2.085-.363-4.547 2.606-4.547v-1.16c-4.998-.5-4.42 4.43-4.42 5.706h-1.857V9.71h1.857V21.1zM86.25 8.6h-2.605c0-2.525-.193-4.547 2.606-4.547v-1.16c-5-.503-4.42 4.422-4.42 5.706h-1.857V9.71h1.858v11.39h1.815V9.71h2.606V8.6zM89.243 6.21c1.548 0 1.505-2.248 0-2.248-1.507 0-1.546 2.248 0 2.248" fill="#08446A"/><mask id="rf" fill="#fff"><use xlink:href="#re"/></mask><path d="M88.325 21.1h1.836V8.6h-1.835v12.5zM100.604 19.336a3.974 3.974 0 0 1-2.22.674c-4.972 0-5.216-10.414.064-10.414 1.003 0 1.77.372 2.177.673l.47-1.114c-.534-.442-1.538-.858-3.054-.858-7.19 0-7.026 13.104-.06 13.104 1.513 0 2.58-.418 3.115-.86l-.49-1.206zM107.695 9.48c2.008 0 3.396 1.206 3.396 4.106l-7.11.974c-.02-3.504 1.686-5.08 3.715-5.08m-3.63 6.123l8.82-1.182c0-4.174-1.944-6.122-5.126-6.122-3.14 0-5.446 2.227-5.446 6.516 0 8.18 7.954 6.912 10.08 5.73l-.535-1.276c-2.344 1.272-7.376 1.62-7.795-3.665M127.11 8.6h-2.605c0-2.6-.164-4.547 2.605-4.547v-1.16c-4.995-.5-4.42 4.414-4.42 5.706h-1.86V9.71h1.86v11.39h1.815V9.71h2.605V8.6zM133.75 20.08c-2.667 0-3.523-2.645-3.523-5.22 0-2.573.79-5.334 3.524-5.334 2.735 0 3.524 2.76 3.524 5.335s-.79 5.22-3.523 5.22m0-11.782c-3.694 0-5.38 2.875-5.38 6.563 0 3.69 1.686 6.542 5.38 6.542 3.696 0 5.362-2.853 5.362-6.54 0-3.69-1.666-6.564-5.36-6.564M141.526 9.156V21.1h1.837V9.99c.79-.487 2.477-.533 3.63-.23l.47-1.44c-.905-.104-3.723-.095-5.937.836M68.245 42.362h-.043c-.442-.96-.507-.987-7.666-11.922H57.91v15.956h2.327c0-11.242.02-11.31-.064-12.546h.043c.485 1.024.376.786 8.007 12.546h2.285V30.44H68.16c0 10.656-.028 10.734.085 11.922M80.462 44.797c-1.248.615-5.168.988-5.168-1.995 0-2.413 2.072-2.992 5.168-3.317v5.312zm-6.897-10.322l.62 1.532c.79-.372 2.178-.72 3.394-.72 3.1 0 2.882 1.748 2.882 2.947-4.186.37-7.708 1.275-7.708 4.636 0 2.39 1.73 3.852 5.402 3.852 2.073 0 3.758-.37 4.826-.906v-7.908c0-5.5-6.46-4.68-9.417-3.433zM89.282 30.348l-2.67.742v2.806h-1.75v1.623h1.75v7.768c0 1.694 1.004 3.386 3.63 3.386.685 0 1.218-.14 1.475-.255v-1.647c-1.515.41-2.435-.382-2.435-1.624v-7.63h2.435v-1.624h-2.435v-3.548zM93.81 46.396h2.69v-12.5h-2.69v12.5zM95.156 28.956c-2.06 0-2.058 2.784 0 2.784s2.062-2.784 0-2.784M104.53 44.888c-2.263 0-2.99-2.32-2.99-4.754 0-2.435.686-4.848 2.99-4.848 2.307 0 2.99 2.413 2.99 4.848s-.683 4.754-2.99 4.754m0-11.317c-3.822 0-5.72 2.855-5.72 6.587 0 3.734 1.898 6.565 5.72 6.565 3.825 0 5.703-2.83 5.703-6.565 0-3.732-1.878-6.586-5.702-6.586M112.436 34.475v11.922h2.668V35.634c1.515-.616 5.062-.753 5.062 1.833v8.93h2.69V37.42c0-5.093-7.83-4.07-10.42-2.945M132.68 44.797c-1.256.62-5.168.983-5.168-1.995 0-2.413 2.072-2.992 5.168-3.317v5.312zm-6.896-10.322l.62 1.532c1.456-.686 6.276-1.748 6.276 1.507v.72c-4.186.37-7.708 1.275-7.708 4.636 0 2.39 1.73 3.852 5.403 3.852 2.07 0 3.76-.37 4.827-.906v-7.908c0-5.5-6.468-4.68-9.418-3.433zM137.958 46.396h2.67V28.19h-2.67v18.206zM152.14 34.544c0-2.722 3.418-3.13 5.658-1.785l.683-1.74c-3.55-2.095-9.14-.64-9.14 3.825 0 4.965 6.644 3.62 6.644 7.122 0 1.577-1.324 2.667-3.182 2.667-1.24 0-2.434-.394-3.075-.766l-.747 1.948c.875.487 2.434.906 4.354.906 3.268 0 5.594-2.11 5.594-4.942 0-5.288-6.788-3.802-6.788-7.236M164.742 30.348l-2.67.742v2.806h-1.75v1.623h1.75v7.768c0 1.694 1.004 3.386 3.63 3.386.683 0 1.218-.14 1.473-.255v-1.647a2.62 2.62 0 0 1-.726.115c-1.13 0-1.708-.764-1.708-1.74v-7.63h2.433v-1.622h-2.433v-3.548zM176.337 44.797c-.467.232-1.217.418-2.092.418-1.878 0-3.074-.72-3.074-2.413 0-2.413 2.07-2.992 5.167-3.317v5.312zm-2.39-11.226c-1.986 0-3.63.536-4.508.905l.62 1.532c.79-.372 2.177-.72 3.394-.72 3.1 0 2.883 1.75 2.883 2.947-4.184.37-7.708 1.275-7.708 4.636 0 2.39 1.728 3.852 5.4 3.852 2.073 0 3.758-.37 4.828-.906v-7.908c0-3.2-2.136-4.337-4.912-4.337zM185.158 30.348l-2.67.742v2.806h-1.75v1.623h1.75v7.768c0 1.694 1.005 3.386 3.63 3.386.685 0 1.22-.14 1.473-.255v-1.647c-1.504.41-2.432-.378-2.432-1.624v-7.63h2.433v-1.624h-2.432v-3.548zM191.03 28.956c-2.056 0-2.06 2.784 0 2.784 2.063 0 2.062-2.784 0-2.784M189.686 46.396h2.692v-12.5h-2.692v12.5zM197.502 37.095c0-1.727 2.523-2.432 4.528-1.067l.704-1.553c-3.197-1.91-7.9-.712-7.9 2.76 0 4.082 5.49 2.69 5.49 5.66 0 2.162-3.424 2.437-5.192 1.204l-.705 1.716c.747.464 2.223.905 3.78.905 2.99 0 4.89-1.9 4.89-3.896 0-4.174-5.595-2.945-5.595-5.73M208.932 30.348l-2.67.742v2.806h-1.75v1.623h1.75v7.768c0 1.694 1.006 3.386 3.63 3.386.683 0 1.218-.14 1.473-.255v-1.647c-1.507.41-2.433-.378-2.433-1.624v-7.63h2.433v-1.624h-2.433v-3.548zM214.806 28.956c-2.06 0-2.062 2.784 0 2.784 2.06 0 2.064-2.784 0-2.784M213.46 46.396h2.69v-12.5h-2.69v12.5zM224.5 44.797c-4.317 0-4.512-9.417.043-9.417.897 0 1.58.324 1.965.602l.598-1.507c-.598-.462-1.644-.904-3.203-.904-7.305 0-7.27 13.152-.02 13.152 1.6 0 2.69-.442 3.244-.906l-.662-1.646c-.47.324-1.11.627-1.964.627M231.4 37.095c0-1.735 2.536-2.427 4.527-1.067l.706-1.553c-.855-.51-1.986-.905-3.523-.905-2.714 0-4.378 1.81-4.378 3.666 0 4.08 5.487 2.69 5.487 5.66 0 2.16-3.42 2.435-5.19 1.203l-.705 1.716c.747.464 2.22.905 3.78.905 2.99 0 4.89-1.9 4.89-3.896 0-4.174-5.595-2.945-5.595-5.73" fill="#08446A" mask="url(#rf)"/></g></svg></svg>