<?xml version="1.0" encoding="utf-8"?><svg id="ayLayer_1" xmlns="http://www.w3.org/2000/svg" viewBox="-74.06 -74.06 385.13 195.13" width="52" height="26.35"><style>.ayst0{fill:#a8bd39}.st2{fill:#fff}.ayst3{fill:#a8bd39}.ayst4{fill:#033e58}.ayst5{fill:#08446a}</style><path id="ayFill-1" class="ayst0" d="M0 28.8c3.3-6.7 2.3-1.6 0-11.1v11.1"/><path id="ayFill-3" class="ayst3" d="M4.4.7C-2.9.7.6 16.3 3.2 23c2.4-3.8 5.3-7.3 8.9-10.3 7-6 16.5-10.2 29.3-12h-37z"/><path id="ayFill-6" class="ayst4" d="M8.5 34.7c-1.7-2-3.1-4.1-4.4-6.4-1.6 3-2.9 6.2-4.1 9.5v9l29.3.2c-9.1-2.2-16-6.6-20.8-12.3"/><path id="ayFill-8" class="ayst4" d="M46.1 3.7C31.5 5.1 21.5 9.2 14.3 15.4c-3.8 3.3-6.9 7.2-9.4 11.5C12 40.7 26.3 47 40.9 47c0 0 5.5.2 5.5-5.9V3.6c-.1 0-.2.1-.3.1"/><path id="ayFill-11" class="ayst5" d="M64.1 19.9c-3.4 0-4.5-3.6-4.5-6.9 0-3.3 1.2-6.9 4.5-6.9s4.5 3.6 4.5 6.9c0 3.3-1.1 6.9-4.5 6.9m0-15.1c-4.5 0-6.5 3.8-6.5 8.3 0 4.6 2 8.3 6.5 8.3s6.5-3.7 6.5-8.3c0-4.5-2-8.3-6.5-8.3"/><path id="ayFill-13" class="ayst5" d="M74.3 21.1h1.8V9.7h2.6V8.6h-2.6c0-2.1-.4-4.5 2.6-4.5V2.9c-5-.5-4.4 4.4-4.4 5.7h-1.9v1.1h1.9v11.4z"/><path id="ayFill-15" class="ayst5" d="M86.3 8.6h-2.6c0-2.5-.2-4.5 2.6-4.5V2.9c-5-.5-4.4 4.4-4.4 5.7H80v1.1h1.9v11.4h1.8V9.7h2.6V8.6z"/><path id="ayFill-17" class="ayst5" d="M89.2 6.2c1.5 0 1.5-2.2 0-2.2s-1.5 2.2 0 2.2"/><path id="ayFill-19" class="ayst5" d="M88.3 21.1h1.9V8.6h-1.9z"/><path id="ayFill-21" class="ayst5" d="M100.6 19.3c-.5.3-1.3.7-2.2.7-5 0-5.2-10.4.1-10.4 1 0 1.8.4 2.2.7l.5-1.1c-.5-.4-1.5-.9-3.1-.9-7.2 0-7 13.1-.1 13.1 1.5 0 2.6-.4 3.1-.9l-.5-1.2z"/><path id="ayFill-22" class="ayst5" d="M107.7 9.5c2 0 3.4 1.2 3.4 4.1l-7.1 1c0-3.5 1.7-5.1 3.7-5.1m-3.6 6.1l8.8-1.2c0-4.2-1.9-6.1-5.1-6.1-3.1 0-5.4 2.2-5.4 6.5 0 8.2 8 6.9 10.1 5.7l-.5-1.3c-2.5 1.3-7.5 1.7-7.9-3.6"/><path id="ayFill-23" class="ayst5" d="M127.1 8.6h-2.6c0-2.6-.2-4.5 2.6-4.5V2.9c-5-.5-4.4 4.4-4.4 5.7h-1.9v1.1h1.9v11.4h1.8V9.7h2.6V8.6z"/><path id="ayFill-24" class="ayst5" d="M133.8 20.1c-2.7 0-3.5-2.6-3.5-5.2s.8-5.3 3.5-5.3 3.5 2.8 3.5 5.3-.8 5.2-3.5 5.2m0-11.8c-3.7 0-5.4 2.9-5.4 6.6 0 3.7 1.7 6.5 5.4 6.5s5.4-2.9 5.4-6.5c-.1-3.7-1.8-6.6-5.4-6.6"/><path id="ayFill-25" class="ayst5" d="M141.5 9.2v11.9h1.8V10c.8-.5 2.5-.5 3.6-.2l.5-1.4c-.8-.2-3.7-.2-5.9.8"/><path id="ayFill-26" class="ayst5" d="M68.2 42.4c-.5-1-.6-1-7.7-11.9h-2.6v16h2.3c0-11.2 0-11.3-.1-12.5.5 1 .4.8 8 12.5h2.3v-16h-2.3c.1 10.6 0 10.7.1 11.9"/><path id="ayFill-27" class="ayst5" d="M80.5 44.8c-1.2.6-5.2 1-5.2-2 0-2.4 2.1-3 5.2-3.3v5.3zm-6.9-10.3l.6 1.5c.8-.4 2.2-.7 3.4-.7 3.1 0 2.9 1.7 2.9 2.9-4.2.4-7.7 1.3-7.7 4.6 0 2.4 1.7 3.9 5.4 3.9 2.1 0 3.8-.4 4.8-.9v-7.9c0-5.5-6.5-4.7-9.4-3.4z"/><path id="ayFill-28" class="ayst5" d="M89.3 30.3l-2.7.7v2.8h-1.8v1.6h1.8v7.8c0 1.7 1 3.4 3.6 3.4.7 0 1.2-.1 1.5-.3v-1.6c-1.5.4-2.4-.4-2.4-1.6v-7.6h2.4v-1.6h-2.4v-3.6z"/><path id="ayFill-29" class="ayst5" d="M93.8 46.4h2.7V33.9h-2.7z"/><path id="ayFill-30" class="ayst5" d="M95.2 29c-2.1 0-2.1 2.8 0 2.8 2-.1 2-2.8 0-2.8"/><path id="ayFill-31" class="ayst5" d="M104.5 44.9c-2.3 0-3-2.3-3-4.8 0-2.4.7-4.8 3-4.8s3 2.4 3 4.8c0 2.5-.7 4.8-3 4.8m0-11.3c-3.8 0-5.7 2.9-5.7 6.6 0 3.7 1.9 6.6 5.7 6.6 3.8 0 5.7-2.8 5.7-6.6s-1.8-6.6-5.7-6.6"/><path id="ayFill-32" class="ayst5" d="M112.4 34.5v11.9h2.7V35.6c1.5-.6 5.1-.8 5.1 1.8v8.9h2.7v-9c0-5-7.9-4-10.5-2.8"/><path id="ayFill-33" class="ayst5" d="M132.7 44.8c-1.3.6-5.2 1-5.2-2 0-2.4 2.1-3 5.2-3.3v5.3zm-6.9-10.3l.6 1.5c1.5-.7 6.3-1.7 6.3 1.5v.7c-4.2.4-7.7 1.3-7.7 4.6 0 2.4 1.7 3.9 5.4 3.9 2.1 0 3.8-.4 4.8-.9v-7.9c0-5.5-6.5-4.7-9.4-3.4z"/><path id="ayFill-34" class="ayst5" d="M138 46.4h2.6V28.2H138z"/><path id="ayFill-35" class="ayst5" d="M152.1 34.5c0-2.7 3.4-3.1 5.7-1.8l.7-1.7c-3.6-2.1-9.1-.6-9.1 3.8 0 5 6.6 3.6 6.6 7.1 0 1.6-1.3 2.7-3.2 2.7-1.2 0-2.4-.4-3.1-.8l-.7 1.9c.9.5 2.4.9 4.4.9 3.3 0 5.6-2.1 5.6-4.9-.1-5.2-6.9-3.7-6.9-7.2"/><path id="ayFill-36" class="ayst5" d="M164.7 30.3l-2.7.7v2.8h-1.7v1.6h1.7v7.8c0 1.7 1 3.4 3.6 3.4.7 0 1.2-.1 1.5-.3v-1.6c-.3.1-.5.1-.7.1-1.1 0-1.7-.8-1.7-1.7v-7.6h2.4v-1.6h-2.4v-3.6z"/><path id="ayFill-37" class="ayst5" d="M176.3 44.8c-.5.2-1.2.4-2.1.4-1.9 0-3.1-.7-3.1-2.4 0-2.4 2.1-3 5.2-3.3v5.3zm-2.4-11.2c-2 0-3.6.5-4.5.9l.6 1.5c.8-.4 2.2-.7 3.4-.7 3.1 0 2.9 1.7 2.9 2.9-4.2.4-7.7 1.3-7.7 4.6 0 2.4 1.7 3.9 5.4 3.9 2.1 0 3.8-.4 4.8-.9v-7.9c.1-3.2-2.1-4.3-4.9-4.3z"/><path id="ayFill-38" class="ayst5" d="M185.2 30.3l-2.7.7v2.8h-1.7v1.6h1.7v7.8c0 1.7 1 3.4 3.6 3.4.7 0 1.2-.1 1.5-.3v-1.6c-1.5.4-2.4-.4-2.4-1.6v-7.6h2.4v-1.6h-2.4v-3.6z"/><path id="ayFill-39" class="ayst5" d="M191 29c-2.1 0-2.1 2.8 0 2.8 2.1-.1 2.1-2.8 0-2.8"/><path id="ayFill-40" class="ayst5" d="M189.7 46.4h2.7V33.9h-2.7z"/><path id="ayFill-41" class="ayst5" d="M197.5 37.1c0-1.7 2.5-2.4 4.5-1.1l.7-1.6c-3.2-1.9-7.9-.7-7.9 2.8 0 4.1 5.5 2.7 5.5 5.7 0 2.2-3.4 2.4-5.2 1.2l-.7 1.7c.7.5 2.2.9 3.8.9 3 0 4.9-1.9 4.9-3.9 0-4.1-5.6-2.9-5.6-5.7"/><path id="ayFill-42" class="ayst5" d="M208.9 30.3l-2.7.7v2.8h-1.8v1.6h1.8v7.8c0 1.7 1 3.4 3.6 3.4.7 0 1.2-.1 1.5-.3v-1.6c-1.5.4-2.4-.4-2.4-1.6v-7.6h2.4v-1.6h-2.4v-3.6z"/><path id="ayFill-43" class="ayst5" d="M214.8 29c-2.1 0-2.1 2.8 0 2.8 2.1-.1 2.1-2.8 0-2.8"/><path id="ayFill-44" class="ayst5" d="M213.5 46.4h2.7V33.9h-2.7z"/><path id="ayFill-45" class="ayst5" d="M224.5 44.8c-4.3 0-4.5-9.4 0-9.4.9 0 1.6.3 2 .6l.6-1.5c-.6-.5-1.6-.9-3.2-.9-7.3 0-7.3 13.2 0 13.2 1.6 0 2.7-.4 3.2-.9l-.7-1.6c-.4.2-1 .5-1.9.5"/><path id="ayFill-46" class="ayst5" d="M231.4 37.1c0-1.7 2.5-2.4 4.5-1.1l.7-1.6c-.9-.5-2-.9-3.5-.9-2.7 0-4.4 1.8-4.4 3.7 0 4.1 5.5 2.7 5.5 5.7 0 2.2-3.4 2.4-5.2 1.2l-.7 1.7c.7.5 2.2.9 3.8.9 3 0 4.9-1.9 4.9-3.9 0-4.1-5.6-2.9-5.6-5.7"/></svg>