<?xml version="1.0" encoding="UTF-8"?><svg width="52" height="34.42" viewBox="-56.87 -56.87 295.75 195.75" xmlns="http://www.w3.org/2000/svg"><title>Untitled</title><g fill="#FFF" fill-rule="evenodd"><path d="M.3 38.9h37c4.3 0 9.8-4 9.8-10.6 0-2.6 1-4.4-2.1-7.9l-4.7-5.6c-2.7-2.5.3-2.5 2.6-2.5h15.6v26.6h12.4V12.2h16.7V.9H33.5c-6.6 0-9.8 6.3-9.6 9.6.2 3.3.8 7.4 6.3 12.4 5 4.5-2.5 3.3-3.2 3.3H.3v12.7zM115 .9H95L83.8 38.8h12.5l2-5.3h13.2l2 5.3h12.2L115 .9zm-13.9 23.5l4.3-13.9 4 13.9h-8.3zM165.1 26.2c-4.8 0-4.8-1.8-4.8-1.8 4.1 0 7.8-6 7.8-12.1S162.1.9 157.3.9h-26.9v37.9H144V26.2s5.8 6.8 8.9 9.6c3 2.8 3.3 3 7.4 3h21.5V26.2h-16.7zm-12.4-8.9H144v-6.8h8.7c4 0 4.7 6.8 0 6.8zM.3 43.6h14l3.6 12.7 3.2-12.7h14.7l3.8 12.7 3.8-12.7h12.2l-11.2 38H33.3l-4.9-18-5.5 18H11.5zM84.2 43.8h-20l-11.1 38h12.5l2-5.3h13.2l2 5.3H95l-10.8-38zM70.3 67.4l4.3-13.9 4 13.9h-8.3zM181.8 55V43.6h-25.6c-6.6 0-9.4 6.6-9.2 9.9.2 3.3.8 7.4 6.3 12.4 5 4.5-2.5 3.3-3.2 3.3h-14.7c-3 0-4.8-1.8-4.8-1.8 4.1 0 7.8-6 7.8-12.1s-6-11.4-10.8-11.4h-26.9v37.9h13.7V69.1s5.8 6.8 8.9 9.6c3 2.8 3.3 3 7.4 3l29.9-.2c4.3 0 10.8-4 10.8-10.6 0-2.6.1-4.1-3.1-7.6l-4.7-5.6c-2.7-2.5-.2-2.8 2-2.8h16.2v.1zm-59 5.3h-8.7v-6.8h8.7c4-.1 4.7 6.8 0 6.8z"/></g></svg>