<?xml version="1.0" encoding="utf-8"?><svg width="52" height="27.38" viewBox="-69.06 -69.06 359.13 189.13" xmlns="http://www.w3.org/2000/svg"><title>logo-english</title><defs><linearGradient x1=".006%" y1="49.995%" x2="100.031%" y2="49.995%" id="baa"><stop stop-color="#783D8F" offset="0%"/><stop stop-color="#682782" offset="100%"/></linearGradient><linearGradient x1="38.301%" y1="-29.909%" x2="51.468%" y2="58.898%" id="bab"><stop stop-color="#fff" offset="0%"/><stop stop-color="#fff" stop-opacity=".8" offset="100%"/></linearGradient><linearGradient x1="34.287%" y1="7.026%" x2="68.227%" y2="63.417%" id="bac"><stop stop-color="#fff" offset="0%"/><stop stop-color="#fff" stop-opacity=".8" offset="100%"/></linearGradient><linearGradient x1="63.636%" y1="68.75%" x2="35.364%" y2="29.593%" id="bad"><stop stop-color="#fff" offset="0%"/><stop stop-color="#fff" stop-opacity=".8" offset="100%"/></linearGradient><linearGradient x1="82.829%" y1="49.905%" x2="1.319%" y2="49.905%" id="bae"><stop stop-color="#fff" offset="0%"/><stop stop-color="#fff" stop-opacity=".5" offset="100%"/></linearGradient><linearGradient x1="50.059%" y1="1.862%" x2="50.059%" y2="97.165%" id="baf"><stop stop-color="#1E1E1C" offset="0%"/><stop stop-color="#1E1E1C" stop-opacity="0" offset="100%"/></linearGradient><linearGradient x1="-.889%" y1="49.88%" x2="99.653%" y2="49.88%" id="bag"><stop stop-color="#fff" offset="0%"/><stop stop-color="#fff" stop-opacity=".8" offset="100%"/></linearGradient><linearGradient x1="2.944%" y1="49.922%" x2="97.95%" y2="49.922%" id="bah"><stop stop-color="#1E1E1C" offset="0%"/><stop stop-color="#1E1E1C" stop-opacity="0" offset="100%"/></linearGradient></defs><g fill="none"><path d="M67.968 31.968a1.045 1.045 0 0 1 .752.32l2.144 2.256a8.902 8.902 0 0 1-3.528 2.776c-1.413.624-3.085.936-5.016.936-1.771 0-3.357-.301-4.76-.904-1.403-.603-2.592-1.435-3.568-2.496s-1.725-2.32-2.248-3.776c-.523-1.456-.784-3.037-.784-4.744 0-1.739.283-3.336.848-4.792s1.36-2.712 2.384-3.768c1.024-1.056 2.251-1.877 3.68-2.464 1.429-.587 3.003-.88 4.72-.88.875 0 1.699.077 2.472.232.773.155 1.496.368 2.168.64a9.893 9.893 0 0 1 3.36 2.232l-1.824 2.448a2.334 2.334 0 0 1-.416.408c-.16.123-.384.184-.672.184-.192 0-.373-.043-.544-.128a5.815 5.815 0 0 1-.544-.312l-.632-.4a4.85 4.85 0 0 0-.816-.4 6.697 6.697 0 0 0-1.104-.312 7.559 7.559 0 0 0-1.48-.128c-.896 0-1.715.165-2.456.496a5.359 5.359 0 0 0-1.92 1.448c-.539.635-.955 1.413-1.248 2.336-.293.923-.44 1.976-.44 3.16 0 1.195.163 2.256.488 3.184.325.928.768 1.709 1.328 2.344a5.632 5.632 0 0 0 1.96 1.448 5.857 5.857 0 0 0 2.4.496c.491 0 .939-.024 1.344-.072a6.118 6.118 0 0 0 1.136-.24c.352-.112.683-.261.992-.448.309-.187.624-.424.944-.712.128-.107.267-.195.416-.264.149-.069.304-.104.464-.104zm14.886-4.256c0-.395-.051-.779-.152-1.152a2.793 2.793 0 0 0-.496-1 2.524 2.524 0 0 0-.904-.712c-.373-.181-.827-.272-1.36-.272-.939 0-1.675.269-2.208.808-.533.539-.885 1.315-1.056 2.328h6.176zm-6.24 2.88c.16 1.387.581 2.392 1.264 3.016.683.624 1.563.936 2.64.936.576 0 1.072-.069 1.488-.208a7.492 7.492 0 0 0 1.112-.464l.896-.464c.272-.139.557-.208.856-.208.395 0 .693.144.896.432l1.44 1.776a7.364 7.364 0 0 1-1.656 1.432c-.592.368-1.2.656-1.824.864a9.887 9.887 0 0 1-1.872.432c-.624.08-1.219.12-1.784.12a9.308 9.308 0 0 1-3.272-.568A7.519 7.519 0 0 1 74.126 36c-.763-.747-1.365-1.675-1.808-2.784-.443-1.109-.664-2.4-.664-3.872 0-1.109.189-2.16.568-3.152a7.777 7.777 0 0 1 1.632-2.608 7.757 7.757 0 0 1 2.576-1.776c1.008-.437 2.147-.656 3.416-.656 1.099 0 2.104.171 3.016.512a6.547 6.547 0 0 1 2.352 1.488c.656.651 1.168 1.448 1.536 2.392.368.944.552 2.013.552 3.208 0 .373-.016.677-.048.912s-.091.421-.176.56a.666.666 0 0 1-.344.288 1.62 1.62 0 0 1-.552.08h-9.568zM94.588 23.2c.32-.299.651-.576.992-.832a5.81 5.81 0 0 1 1.096-.648 6.483 6.483 0 0 1 1.264-.416 6.803 6.803 0 0 1 1.48-.152c.907 0 1.709.157 2.408.472.699.315 1.288.752 1.768 1.312s.843 1.227 1.088 2a8.3 8.3 0 0 1 .368 2.52V38h-4.96V27.456c0-.811-.187-1.443-.56-1.896-.373-.453-.923-.68-1.648-.68-.544 0-1.053.115-1.528.344a6.119 6.119 0 0 0-1.384.936V38h-4.96V21.408h3.072c.619 0 1.024.277 1.216.832l.288.96zm24.438 1.84c-.128.203-.264.347-.408.432a1.074 1.074 0 0 1-.552.128 1.77 1.77 0 0 1-.704-.152l-.76-.328a8.305 8.305 0 0 0-.92-.328 4.119 4.119 0 0 0-1.168-.152c-.629 0-1.112.12-1.448.36-.336.24-.504.573-.504 1 0 .309.109.565.328.768.219.203.509.381.872.536.363.155.773.301 1.232.44.459.139.928.293 1.408.464.48.171.949.371 1.408.6.459.229.869.512 1.232.848.363.336.653.744.872 1.224.219.48.328 1.056.328 1.728 0 .821-.149 1.579-.448 2.272a4.828 4.828 0 0 1-1.336 1.792c-.592.501-1.323.891-2.192 1.168-.869.277-1.869.416-3 .416a9.1 9.1 0 0 1-1.696-.16 11.853 11.853 0 0 1-1.64-.432 8.878 8.878 0 0 1-1.464-.648 6.366 6.366 0 0 1-1.152-.808l1.152-1.824c.128-.213.291-.381.488-.504s.451-.184.76-.184c.288 0 .547.064.776.192l.744.416c.267.149.579.288.936.416.357.128.808.192 1.352.192.384 0 .709-.04.976-.12.267-.08.48-.189.64-.328.16-.139.277-.293.352-.464.075-.171.112-.347.112-.528 0-.331-.112-.603-.336-.816a2.936 2.936 0 0 0-.88-.552 10.626 10.626 0 0 0-1.24-.432 23.595 23.595 0 0 1-1.416-.456c-.48-.171-.952-.376-1.416-.616-.464-.24-.877-.544-1.24-.912s-.656-.819-.88-1.352c-.224-.533-.336-1.179-.336-1.936 0-.704.136-1.373.408-2.008a4.66 4.66 0 0 1 1.224-1.672c.544-.48 1.227-.861 2.048-1.144.821-.283 1.781-.424 2.88-.424.597 0 1.176.053 1.736.16.56.107 1.085.256 1.576.448.491.192.939.419 1.344.68.405.261.763.547 1.072.856l-1.12 1.744zm18.822-3.632V38h-3.072c-.619 0-1.024-.277-1.216-.832l-.288-.96c-.32.309-.651.589-.992.84a6.052 6.052 0 0 1-1.096.64 6.483 6.483 0 0 1-1.264.416 6.803 6.803 0 0 1-1.48.152c-.907 0-1.709-.157-2.408-.472a4.96 4.96 0 0 1-1.768-1.32 5.749 5.749 0 0 1-1.088-2c-.245-.768-.368-1.611-.368-2.528V21.408h4.96v10.528c0 .821.187 1.456.56 1.904.373.448.923.672 1.648.672.544 0 1.053-.115 1.528-.344a6.119 6.119 0 0 0 1.384-.936V21.408h4.96zm14.134 3.632c-.128.203-.264.347-.408.432a1.074 1.074 0 0 1-.552.128 1.77 1.77 0 0 1-.704-.152l-.76-.328a8.305 8.305 0 0 0-.92-.328 4.119 4.119 0 0 0-1.168-.152c-.629 0-1.112.12-1.448.36-.336.24-.504.573-.504 1 0 .309.109.565.328.768.219.203.509.381.872.536.363.155.773.301 1.232.44.459.139.928.293 1.408.464.48.171.949.371 1.408.6.459.229.869.512 1.232.848.363.336.653.744.872 1.224.219.48.328 1.056.328 1.728 0 .821-.149 1.579-.448 2.272a4.828 4.828 0 0 1-1.336 1.792c-.592.501-1.323.891-2.192 1.168-.869.277-1.869.416-3 .416a9.1 9.1 0 0 1-1.696-.16 11.853 11.853 0 0 1-1.64-.432 8.878 8.878 0 0 1-1.464-.648 6.366 6.366 0 0 1-1.152-.808l1.152-1.824c.128-.213.291-.381.488-.504s.451-.184.76-.184c.288 0 .547.064.776.192l.744.416c.267.149.579.288.936.416.357.128.808.192 1.352.192.384 0 .709-.04.976-.12.267-.08.48-.189.64-.328.16-.139.277-.293.352-.464.075-.171.112-.347.112-.528 0-.331-.112-.603-.336-.816a2.936 2.936 0 0 0-.88-.552 10.626 10.626 0 0 0-1.24-.432 23.595 23.595 0 0 1-1.416-.456c-.48-.171-.952-.376-1.416-.616-.464-.24-.877-.544-1.24-.912s-.656-.819-.88-1.352c-.224-.533-.336-1.179-.336-1.936 0-.704.136-1.373.408-2.008a4.66 4.66 0 0 1 1.224-1.672c.544-.48 1.227-.861 2.048-1.144.821-.283 1.781-.424 2.88-.424.597 0 1.176.053 1.736.16.56.107 1.085.256 1.576.448.491.192.939.419 1.344.68.405.261.763.547 1.072.856l-1.12 1.744zm27.916-6.064h-6.56V38h-5.408V18.976h-6.56v-4.288h18.528v4.288zm8.918 8.736c0-.395-.051-.779-.152-1.152a2.793 2.793 0 0 0-.496-1 2.524 2.524 0 0 0-.904-.712c-.373-.181-.827-.272-1.36-.272-.939 0-1.675.269-2.208.808-.533.539-.885 1.315-1.056 2.328h6.176zm-6.24 2.88c.16 1.387.581 2.392 1.264 3.016.683.624 1.563.936 2.64.936.576 0 1.072-.069 1.488-.208a7.492 7.492 0 0 0 1.112-.464l.896-.464c.272-.139.557-.208.856-.208.395 0 .693.144.896.432l1.44 1.776a7.364 7.364 0 0 1-1.656 1.432c-.592.368-1.2.656-1.824.864a9.887 9.887 0 0 1-1.872.432c-.624.08-1.219.12-1.784.12a9.308 9.308 0 0 1-3.272-.568A7.519 7.519 0 0 1 180.088 36c-.763-.747-1.365-1.675-1.808-2.784-.443-1.109-.664-2.4-.664-3.872 0-1.109.189-2.16.568-3.152a7.777 7.777 0 0 1 1.632-2.608 7.757 7.757 0 0 1 2.576-1.776c1.008-.437 2.147-.656 3.416-.656 1.099 0 2.104.171 3.016.512a6.547 6.547 0 0 1 2.352 1.488c.656.651 1.168 1.448 1.536 2.392.368.944.552 2.013.552 3.208 0 .373-.016.677-.048.912s-.091.421-.176.56a.666.666 0 0 1-.344.288 1.62 1.62 0 0 1-.552.08h-9.568zm23.942-5.552c-.128.203-.264.347-.408.432a1.074 1.074 0 0 1-.552.128 1.77 1.77 0 0 1-.704-.152l-.76-.328a8.305 8.305 0 0 0-.92-.328 4.119 4.119 0 0 0-1.168-.152c-.629 0-1.112.12-1.448.36-.336.24-.504.573-.504 1 0 .309.109.565.328.768.219.203.509.381.872.536.363.155.773.301 1.232.44.459.139.928.293 1.408.464.48.171.949.371 1.408.6.459.229.869.512 1.232.848.363.336.653.744.872 1.224.219.48.328 1.056.328 1.728 0 .821-.149 1.579-.448 2.272a4.828 4.828 0 0 1-1.336 1.792c-.592.501-1.323.891-2.192 1.168-.869.277-1.869.416-3 .416a9.1 9.1 0 0 1-1.696-.16 11.853 11.853 0 0 1-1.64-.432 8.878 8.878 0 0 1-1.464-.648 6.366 6.366 0 0 1-1.152-.808l1.152-1.824c.128-.213.291-.381.488-.504s.451-.184.76-.184c.288 0 .547.064.776.192l.744.416c.267.149.579.288.936.416.357.128.808.192 1.352.192.384 0 .709-.04.976-.12.267-.08.48-.189.64-.328.16-.139.277-.293.352-.464.075-.171.112-.347.112-.528 0-.331-.112-.603-.336-.816a2.936 2.936 0 0 0-.88-.552 10.626 10.626 0 0 0-1.24-.432 23.595 23.595 0 0 1-1.416-.456c-.48-.171-.952-.376-1.416-.616-.464-.24-.877-.544-1.24-.912s-.656-.819-.88-1.352c-.224-.533-.336-1.179-.336-1.936 0-.704.136-1.373.408-2.008a4.66 4.66 0 0 1 1.224-1.672c.544-.48 1.227-.861 2.048-1.144.821-.283 1.781-.424 2.88-.424.597 0 1.176.053 1.736.16.56.107 1.085.256 1.576.448.491.192.939.419 1.344.68.405.261.763.547 1.072.856l-1.12 1.744zm9.878 13.216c-.789 0-1.485-.115-2.088-.344a4.147 4.147 0 0 1-1.52-.976 4.152 4.152 0 0 1-.936-1.528c-.213-.597-.32-1.264-.32-2v-8.576h-1.408a.94.94 0 0 1-.656-.248c-.181-.165-.272-.408-.272-.728V21.92l2.64-.512.976-4.048c.128-.512.491-.768 1.088-.768h2.592v4.848h4.112v3.392h-4.112v8.24c0 .384.093.701.28.952.187.251.456.376.808.376a1.603 1.603 0 0 0 .776-.184l.256-.128a.66.66 0 0 1 .28-.056.58.58 0 0 1 .36.104c.091.069.184.179.28.328l1.504 2.352c-.64.48-1.36.84-2.16 1.08-.8.24-1.627.36-2.48.36z" fill="#fff"/><path d="M25.197 32.744v5.1h-12.16V12.75h12.102v5.1h12.628v-5.158L25.139.232h-12.16C12.044 1.159.877 12.287.41 12.75v25.21l12.628 12.46v-.058H25.14l12.628-12.518h.058v-5.1H25.198z" opacity=".61" fill="url(#baa)"/><path fill="url(#bab)" d="M25.255 32.686h12.628v5.1H25.255z"/><path fill="url(#bac)" d="M.468 37.844l12.628 12.518v-37.67H.468z"/><path fill="url(#bad)" d="M37.825 37.786L25.197 50.304H13.095V37.786z"/><path fill="url(#bae)" d="M25.197 17.792h12.628v-5.216L25.197.174z"/><path d="M25.197 12.692H.409c6.138 2.26 18.006 2.55 24.788 0z" opacity=".47" fill="url(#baf)"/><path fill="url(#bag)" d="M25.197.174h-12.16L.468 12.692h24.788z"/><path d="M14.44 32.223c-.234-5.448-.643-11.069-1.345-15.416v33.556c.877-6.549 1.578-13.156 1.345-18.14z" opacity=".47" fill="url(#bah)"/><path d="M5.482 36.77c-.457-.484-.8-1.038-.8-1.453 0-.346.194-.646.629-.646.503 0 .8.254 1.326.715l2.675 2.387h1.154V32.4H8.923v2.675l-1.589-1.43c-.754-.68-1.395-1.015-2.24-1.015-1.28 0-2.138.807-2.138 2.387 0 1.049.514 2.064 1.257 2.813l1.269-1.061zm-2.526-7.593c0 1.695 1.143 2.848 3.795 2.848 2.64 0 3.818-.911 3.818-2.779 0-1.81-1.109-2.837-3.852-2.837-2.64 0-3.761 1.038-3.761 2.767zm6.104.046c0 .519-.549.865-2.195.865-1.829 0-2.355-.334-2.355-.888 0-.519.492-.865 2.229-.865 1.84 0 2.32.369 2.32.888zm-.034-4.077h1.44v-4.393h-1.44v1.199H4.511l-1.406-.115v1.603l1.44 2.375 1.257-.715-.606-1.211h3.829v1.257zm-4.355-4.918v-2.767c1.772 1.695 3.681 1.868 4.984 1.868h.812V17.3h-.72c-.994 0-3.532-.035-5.384-2.329H3.106v5.258h1.566z" fill="#752590"/></g></svg>