<?xml version="1.0" encoding="UTF-8"?><svg width="38" height="38" viewBox="-10 -10 38 38" xmlns="http://www.w3.org/2000/svg"><title>Untitled</title><path d="M3.053 12.526c2.07-.842 4.052-1.263 5.947-1.263 1.895 0 3.868.412 5.921 1.237 2.053.825 3.079 1.904 3.079 3.237V18H0v-2.263c0-1.333 1.018-2.404 3.053-3.21zm9.105-4.842C11.28 8.561 10.228 9 9 9s-2.28-.439-3.158-1.316c-.877-.877-1.316-1.93-1.316-3.158s.439-2.29 1.316-3.184C6.72.447 7.772 0 9 0s2.28.447 3.158 1.342c.877.895 1.316 1.956 1.316 3.184 0 1.228-.439 2.281-1.316 3.158z" fill="#222" fill-rule="evenodd"/></svg>