<?xml version="1.0" encoding="UTF-8"?><svg width="38" height="42" viewBox="-10 -10 38 42" xmlns="http://www.w3.org/2000/svg"><title>Untitled</title><path d="M12.094 8.016V6c0-.844-.305-1.57-.914-2.18-.61-.61-1.336-.914-2.18-.914-.844 0-1.57.305-2.18.914-.61.61-.914 1.336-.914 2.18v2.016h6.188zm-4.5 8.39c.406.407.875.61 1.406.61.531 0 1-.203 1.406-.61.407-.406.61-.875.61-1.406 0-.531-.203-1-.61-1.406-.406-.407-.875-.61-1.406-.61-.531 0-1 .203-1.406.61-.407.406-.61.875-.61 1.406 0 .531.203 1 .61 1.406zM15 8.016c.531 0 1 .195 1.406.586.407.39.61.851.61 1.382v10.032c0 .53-.203.992-.61 1.382-.406.391-.875.586-1.406.586H3c-.531 0-1-.195-1.406-.586-.407-.39-.61-.851-.61-1.382V9.984c0-.53.203-.992.61-1.382C2 8.21 2.469 8.016 3 8.016h.984V6c0-1.375.493-2.555 1.477-3.54C6.445 1.478 7.625.985 9 .985s2.555.493 3.54 1.477c.983.984 1.476 2.164 1.476 3.539v2.016H15z" fill="#000" fill-rule="evenodd"/></svg>