<?xml version="1.0" encoding="UTF-8"?><svg width="36" height="36" viewBox="-10 -10 36 36" xmlns="http://www.w3.org/2000/svg"><title>download</title><path d="M12.308 12.924a.62.62 0 0 0-.615-.616.62.62 0 0 0-.615.616.62.62 0 0 0 .615.615.62.62 0 0 0 .615-.615zm2.462 0a.62.62 0 0 0-.615-.616.62.62 0 0 0-.616.616.62.62 0 0 0 .616.615.62.62 0 0 0 .615-.615zM16 10.77v3.077c0 .51-.413.923-.922.923H.923A.923.923 0 0 1 0 13.847V10.77c0-.51.413-.923.923-.923h4.472l1.298 1.307c.355.347.817.539 1.307.539s.952-.192 1.308-.539l1.308-1.307h4.462c.51 0 .923.413.923.923zm-3.124-5.472c.096.231.048.5-.135.673L8.433 10.28a.59.59 0 0 1-.433.183.59.59 0 0 1-.432-.183L3.26 5.971a.605.605 0 0 1-.135-.673.623.623 0 0 1 .568-.375h2.461V.615A.62.62 0 0 1 6.77 0H9.23a.62.62 0 0 1 .616.615v4.308h2.461c.25 0 .472.154.568.375z" fill="#000" fill-rule="evenodd"/></svg>