<?xml version="1.0" encoding="UTF-8"?><svg width="44" height="44" xmlns="http://www.w3.org/2000/svg" viewBox="-10 -10 44 44"><path d="M17.376 19.245a.875.875 0 0 0-.868-.869.875.875 0 0 0-.87.87c0 .474.395.868.87.868a.875.875 0 0 0 .868-.869zm3.476 0a.875.875 0 0 0-.87-.869.875.875 0 0 0-.868.87c0 .474.394.868.869.868a.875.875 0 0 0 .869-.869zm1.737-3.04v4.344c0 .719-.583 1.303-1.303 1.303H1.303c-.72 0-1.303-.584-1.303-1.303v-4.345c0-.72.584-1.303 1.303-1.303h6.313l1.832 1.846c.503.49 1.154.76 1.847.76.692 0 1.344-.27 1.846-.76l1.846-1.846h6.3c.719 0 1.302.584 1.302 1.303zM18.177 8.48a.854.854 0 0 1-.19.95l-6.081 6.082a.832.832 0 0 1-.611.258.832.832 0 0 1-.611-.258L4.602 9.43a.854.854 0 0 1-.19-.95.88.88 0 0 1 .8-.53h3.476V1.87c0-.475.394-.869.87-.869h3.474c.475 0 .87.394.87.869V7.95h3.474a.88.88 0 0 1 .801.529z" fill-rule="nonzero" fill="#000"/></svg>