<?xml version="1.0" encoding="UTF-8"?><svg width="44" height="44" viewBox="-10 -10 44 44" xmlns="http://www.w3.org/2000/svg"><title>clock</title><path d="M14 6.5v7c0 .281-.219.5-.5.5h-5a.494.494 0 0 1-.5-.5v-1c0-.281.219-.5.5-.5H12V6.5c0-.281.219-.5.5-.5h1c.281 0 .5.219.5.5zm6.5 5.5c0-4.688-3.813-8.5-8.5-8.5-4.688 0-8.5 3.813-8.5 8.5 0 4.688 3.813 8.5 8.5 8.5 4.688 0 8.5-3.813 8.5-8.5zm3.5 0c0 6.625-5.375 12-12 12S0 18.625 0 12 5.375 0 12 0s12 5.375 12 12z" fill="#333" fill-rule="evenodd"/></svg>