<?xml version="1.0" encoding="UTF-8"?><svg width="44" height="44" viewBox="-10 -10 44 44" xmlns="http://www.w3.org/2000/svg"><title>calculator</title><path d="M5.143 20.571c0-.95-.764-1.714-1.714-1.714-.951 0-1.715.764-1.715 1.714 0 .951.764 1.715 1.715 1.715.95 0 1.714-.764 1.714-1.715zm5.143 0c0-.95-.764-1.714-1.715-1.714-.95 0-1.714.764-1.714 1.714 0 .951.764 1.715 1.714 1.715.951 0 1.715-.764 1.715-1.715zM5.143 15.43c0-.951-.764-1.715-1.714-1.715-.951 0-1.715.764-1.715 1.715 0 .95.764 1.714 1.715 1.714.95 0 1.714-.764 1.714-1.714zm10.286 5.142c0-.95-.764-1.714-1.715-1.714-.95 0-1.714.764-1.714 1.714 0 .951.763 1.715 1.714 1.715s1.715-.764 1.715-1.715zm-5.143-5.142c0-.951-.764-1.715-1.715-1.715-.95 0-1.714.764-1.714 1.715 0 .95.764 1.714 1.714 1.714.951 0 1.715-.764 1.715-1.714zm-5.143-5.143c0-.951-.764-1.715-1.714-1.715-.951 0-1.715.764-1.715 1.715 0 .95.764 1.714 1.715 1.714.95 0 1.714-.763 1.714-1.714zm10.286 5.143c0-.951-.764-1.715-1.715-1.715-.95 0-1.714.764-1.714 1.715 0 .95.763 1.714 1.714 1.714s1.715-.764 1.715-1.714zm-5.143-5.143c0-.951-.764-1.715-1.715-1.715-.95 0-1.714.764-1.714 1.715 0 .95.764 1.714 1.714 1.714.951 0 1.715-.763 1.715-1.714zM20.57 20.57V15.43c0-.938-.776-1.715-1.714-1.715-.937 0-1.714.777-1.714 1.715v5.142c0 .938.777 1.715 1.714 1.715.938 0 1.714-.777 1.714-1.715zM15.43 10.286c0-.951-.764-1.715-1.715-1.715-.95 0-1.714.764-1.714 1.715 0 .95.763 1.714 1.714 1.714s1.715-.763 1.715-1.714zM20.57 6V2.571a.863.863 0 0 0-.857-.857H2.571a.863.863 0 0 0-.857.857V6c0 .469.389.857.857.857h17.143A.863.863 0 0 0 20.571 6zm0 4.286c0-.951-.763-1.715-1.714-1.715-.95 0-1.714.764-1.714 1.715 0 .95.763 1.714 1.714 1.714s1.714-.763 1.714-1.714zm1.715-8.572v20.572c0 .937-.777 1.714-1.715 1.714H1.714A1.726 1.726 0 0 1 0 22.286V1.714C0 .777.777 0 1.714 0h18.857c.938 0 1.715.777 1.715 1.714z" fill="#333" fill-rule="evenodd"/></svg>