<?xml version="1.0" encoding="utf-8"?><svg xmlns="http://www.w3.org/2000/svg" viewBox="-69.06 -69.06 359.13 189.13" width="52" height="27.38"><style>.best0{fill:#752590}.best1{opacity:.61;fill:url(#beShape_7_);enable-background:new}.best2{fill:url(#beShape_8_)}.best3{fill:url(#beShape_9_)}.best4{fill:url(#beShape_10_)}.best5{fill:url(#beShape_11_)}.best6{fill:url(#beShape_12_)}.best7{fill:url(#beShape_13_)}.best8{opacity:.71;fill:url(#beSVGID_1_)}.best9{fill:#fff}</style><title>logo-english</title><path class="best0" d="M68.4 32c.3.1 2.3 2.2 2.5 2.5-4.4 5.7-16 5.3-19.1-3.5-4.9-13.4 10.8-21.7 18.8-13.5-3.9 5.3-2.3 2.4-6.6 1.5-10.6-2.1-9.9 18 1.1 14.5.4-.1.7-.3 1-.4.5-.3 1.1-.8 1.4-1 .3-.2.6-.2.9-.1zm14.3-5.4c-.7-2.6-5.3-3.1-6 1.2 6.7-.1 6.4.3 6-1.2zm-6.1 4c.4 3.4 2.8 5.2 7.4 2.8.3-.1.6-.2.9-.2.4 0 .7.1.9.4l1.4 1.8c-3.4 3.9-12.2 4.4-14.9-2.2-5.4-13.6 16.7-16.8 14.9-3.6 0 .4-.2.7-.5.8-.1.1-.3.1-.6.1.1.1-9.5.1-9.5.1zm18-7.4c1.2-1.1 2.5-2 4.8-2 7.2 0 5.6 8 5.6 16.8h-5c0-10.7.3-11.4-.6-12.4-.7-.8-2.5-1.2-4.6.6V38h-5V21.4h3.1c.6 0 1 .3 1.2.8.2 0 .5 1 .5 1zM119 25c-.9 1.4-2.2-.4-4.5-.4-2.2 0-2.7 1.8-.8 2.7 2.3 1 6.5 1.3 6.5 5.3 0 6.6-9.3 6.8-12.9 3.6 2.4-3.8 1.9-2.6 4.9-1.5 2.5.9 4.3-.9 3.1-2.1-1.2-1.1-9.7-1.9-7-8.3 1.7-4 8.7-4.3 11.9-1.1-.1.1-1.2 1.8-1.2 1.8zm18.8-3.6V38h-3.1c-1.1 0-1.2-.8-1.5-1.8-.6.6-1.3 1.1-2.1 1.5-.9.4-1.8.6-2.7.6-7.4 0-5.6-9.2-5.6-16.8h5c0 6.1-1.5 17.7 5.1 11.8V21.4h4.9zM152 25c-.7 1.2-1.8.2-3.3-.2-2.6-.8-3.8 1-2.8 2 1.3 1.2 5.7 1.2 7 4.1 2.9 6.3-7.4 10-12.6 5.3 3-4.8 2.6-1.3 6.2-1.3 2.1 0 2.5-1.5 1.7-2.3-.7-.7-1.9-.9-3.5-1.4-5.2-1.8-4.5-6.5-2.2-8.5 2.6-2.3 8-2.1 10.7.6L152 25zm27.9-6h-6.6v19h-5.4V19h-6.6v-4.3h18.5c.1 0 .1 4.3.1 4.3zm8.9 8.7c0-4.2-5.5-4.2-6.2 0h6.2zm-6.2 2.9c.8 6.8 7.3 2.6 8.3 2.6.4 0 .7.1.9.4l1.4 1.8c-.9 1-2 1.8-3.5 2.3-12.1 4-16.4-12-7.3-15.9 9.5-4.1 13.6 8.8 9.8 8.8h-9.6zm23.9-5.6c-1.1 1.8-3.7-1.6-6 0-.6.4-.7 1.3-.2 1.8 1.4 1.3 9.6 1.8 6.9 8.1-1.9 4.4-9.4 4.1-12.5 1.3 1.3-2.1 1.4-2.5 2.4-2.5.6 0 1 .3 1.5.6 3.4 1.9 6.1-1 3.2-2.2-1.1-.5-2.5-.7-4.1-1.5-4.2-2.2-3.3-9.4 4.1-9.4 2.1 0 4.3.7 5.7 2.1l-1 1.7zm9.9 13.3c-.8 0-1.5-.1-2.1-.3-3.5-1.3-2.8-4.7-2.8-13.1-2.7 0-2.3 0-2.3-2.9l2.6-.5c1.3-5.6.4-4.8 4.7-4.8v4.8h4.1v3.4h-4.1v8.2c0 .4.1.7.3 1s.5.4.8.4c.2 0 .3 0 .5-.1s.2-.1.3-.1l.3-.1.3-.1c.1 0 .3 0 .4.1l.3.3 1.5 2.4c-.6.5-1.4.8-2.2 1.1s-1.8.3-2.6.3z"/><linearGradient id="beShape_7_" gradientUnits="userSpaceOnUse" x1="-472.038" y1="438.52" x2="-471.038" y2="438.52" gradientTransform="matrix(37.416 0 0 -50.188 17662.17 22033.748)"><stop offset="0" stop-color="#783D8F"/><stop offset="1" stop-color="#682782"/></linearGradient><path id="beShape" class="best1" d="M25.2 32.7v5.1H13V12.7h12.1v5.1h12.6v-5.2L25.1.2H13C12 1.2.9 12.3.4 12.7V38L13 50.4v-.1h12.1l12.6-12.5h.1v-5.1H25.2z"/><linearGradient id="beShape_8_" gradientUnits="userSpaceOnUse" x1="36.571" y1="39.692" x2="28.355" y2="32.373"><stop offset="0" stop-color="#6E298D"/><stop offset="1" stop-color="#8D63A7"/></linearGradient><path id="beShape_1_" class="best2" d="M25.3 32.7h12.6v5.1H25.3v-5.1z"/><linearGradient id="beShape_9_" gradientUnits="userSpaceOnUse" x1="-446.252" y1="436.333" x2="-445.912" y2="435.769" gradientTransform="matrix(12.628 0 0 -37.67 5640.048 16452.037)"><stop offset="0" stop-color="#783E95"/><stop offset="1" stop-color="#794096" stop-opacity=".8"/></linearGradient><path id="beShape_2_" class="best3" d="M.5 37.8l12.6 12.5V12.7H.5v25.1z"/><linearGradient id="beShape_10_" gradientUnits="userSpaceOnUse" x1="-464.752" y1="414.647" x2="-465.035" y2="415.039" gradientTransform="matrix(24.73 0 0 -12.518 11522.145 5236.956)"><stop offset="0" stop-color="#8D63A7" stop-opacity=".8"/><stop offset=".187" stop-color="#926AAB" stop-opacity=".837"/><stop offset="1" stop-color="#A686BB"/></linearGradient><path id="beShape_3_" class="best4" d="M37.8 37.8L25.2 50.3H13.1V37.8h24.7z"/><linearGradient id="beShape_11_" gradientUnits="userSpaceOnUse" x1="-445.765" y1="423.97" x2="-446.58" y2="423.97" gradientTransform="matrix(12.628 0 0 -17.618 5664.777 7478.482)"><stop offset="0" stop-color="#824F9E" stop-opacity=".5"/><stop offset=".627" stop-color="#773A95" stop-opacity=".813"/><stop offset="1" stop-color="#6F2B8E"/></linearGradient><path id="beShape_4_" class="best5" d="M25.2 17.8h12.6v-5.2L25.2.2v17.6z"/><linearGradient id="beShape_12_" gradientUnits="userSpaceOnUse" x1="12.803" y1="10.47" x2="12.803" y2="14.644"><stop offset="0" stop-color="#613A71"/><stop offset=".311" stop-color="#663C76" stop-opacity=".689"/><stop offset=".68" stop-color="#744284" stop-opacity=".32"/><stop offset="1" stop-color="#874996" stop-opacity="0"/></linearGradient><path id="beShape_5_" class="best6" d="M25.2 12.7H.4c6.1 2.3 18 2.5 24.8 0z"/><linearGradient id="beShape_13_" gradientUnits="userSpaceOnUse" x1="-465.443" y1="414.835" x2="-464.438" y2="414.835" gradientTransform="matrix(24.788 0 0 -12.518 11537.648 5199.343)"><stop offset="0" stop-color="#CCBBDB"/><stop offset="1" stop-color="#9973B1" stop-opacity=".8"/></linearGradient><path id="beShape_6_" class="best7" d="M25.2.2H13L.5 12.7h24.8L25.2.2z"/><linearGradient id="beSVGID_1_" gradientUnits="userSpaceOnUse" x1="-136.727" y1="434.619" x2="-134.217" y2="434.619" gradientTransform="matrix(1.39 0 0 -33.556 202.337 14617.647)"><stop offset="0" stop-color="#834F9D"/><stop offset="1" stop-color="#874996" stop-opacity="0"/></linearGradient><path class="best8" d="M14.4 32.2c-.2-5.4-.6-11.1-1.3-15.4v33.6c.9-6.6 1.6-13.2 1.3-18.2z"/><path class="best9" d="M5.5 36.8c-.5-.5-.8-1-.8-1.5 0-.3.2-.6.6-.6.5 0 .8.3 1.3.7l2.7 2.4h1.2v-5.4H8.9v2.7l-1.6-1.4c-.8-.7-1.4-1-2.2-1-1.3-.1-2.1.7-2.1 2.3 0 1 .5 2.1 1.3 2.8l1.2-1zM3 29.2C3 30.9 4.1 32 6.8 32c2.6 0 3.8-.9 3.8-2.8 0-1.8-1.1-2.8-3.9-2.8-2.6 0-3.7 1-3.7 2.8zm6.1 0c0 .5-.5.9-2.2.9-1.8 0-2.4-.3-2.4-.9 0-.5.5-.9 2.2-.9 1.9 0 2.4.4 2.4.9zM9 25.1h1.4v-4.4H9V22H4.5l-1.4-.1v1.6l1.4 2.4 1.3-.7-.6-1.2H9v1.1zm-4.3-4.9v-2.8c1.8 1.7 3.7 1.9 5 1.9h.8v-2h-.8c-1 0-3.5 0-5.4-2.3H3.1v5.3l1.6-.1z"/></svg>