<?xml version="1.0" encoding="UTF-8"?><svg width="52" height="22.82" viewBox="-127.5 -127.5 663 291" xmlns="http://www.w3.org/2000/svg"><title>PageTemplates/Elements/ONSLogoBlack Copy</title><g fill-rule="nonzero" fill="#000"><g transform="translate(45.8 5.4)"><path d="M9.18 24.84C3.24 24.84.54 19.8.54 13.68S3.24 2.52 9.18 2.52s8.64 5.04 8.64 11.16-2.7 11.16-8.64 11.16zm0-20.52c-4.5 0-5.94 4.86-5.94 9.36 0 4.32 1.44 9.18 5.94 9.18 4.68 0 5.94-4.86 5.94-9.18 0-4.5-1.44-9.36-5.94-9.36zM25.38 9.18v15.3h-2.34V9.18h-2.52V7.74h2.52V5.4c0-3.06 1.8-5.22 5.4-5.22h.54V1.8h-.36c-1.62 0-3.24 1.08-3.24 3.42v2.7h3.42v1.44h-3.42v-.18zM35.28 9.18v15.3h-2.34V9.18h-2.52V7.74h2.52V5.4c0-3.06 1.8-5.22 5.4-5.22h.54V1.8h-.36c-1.62 0-3.24 1.08-3.24 3.42v2.7h3.42v1.44h-3.42v-.18zM42.84 4.5c-.9 0-1.62-.72-1.62-1.44s.72-1.44 1.62-1.44c.9 0 1.62.72 1.62 1.44s-.72 1.44-1.62 1.44zm-1.26 19.98V7.74h2.52v16.74h-2.52zM54.54 24.84c-3.96 0-7.02-3.42-7.02-8.82s3.06-8.82 7.2-8.82c1.98 0 3.42.54 4.14 1.08l-.54 1.44c-.54-.36-1.62-.9-2.88-.9-3.42 0-5.22 2.88-5.22 6.84 0 4.14 1.98 7.02 5.04 7.02 1.26 0 2.34-.36 2.88-.9l.72 1.62c-.9.9-2.34 1.44-4.32 1.44zM62.64 17.1c.36 3.96 2.52 5.94 5.94 5.94 1.98 0 3.6-.54 4.5-1.08l.72 1.62c-1.08.54-3.06 1.08-5.4 1.08-4.68 0-8.1-2.88-8.1-8.82 0-5.76 3.06-8.64 7.2-8.64 4.32 0 6.84 2.52 6.84 8.28l-11.7 1.62zm4.86-8.28c-2.7 0-5.04 2.16-5.04 6.84L72 14.4c0-3.96-1.8-5.58-4.5-5.58zM86.22 9.18v15.3h-2.34V9.18h-2.52V7.74h2.52V5.4c0-3.06 1.8-5.22 5.4-5.22h.54V1.8h-.36c-1.62 0-3.24 1.08-3.24 3.42v2.7h3.42v1.44h-3.42v-.18zM98.64 24.84c-4.86 0-7.2-3.78-7.2-8.82 0-4.86 2.34-8.82 7.2-8.82s7.2 3.78 7.2 8.82c0 5.04-2.34 8.82-7.2 8.82zm0-15.84c-3.6 0-4.68 3.78-4.68 7.2 0 3.42 1.08 7.02 4.68 7.02 3.6 0 4.68-3.6 4.68-7.02 0-3.6-1.08-7.2-4.68-7.2zM116.28 9.18c-1.62-.36-3.78-.36-4.86.36v14.94h-2.52V8.46c1.8-.72 3.6-1.08 6.66-1.08h1.26l-.54 1.8zM138.42 24.66l-9.54-14.58c-.72-1.08-1.26-2.16-1.26-2.16V24.66h-3.06V3.24h3.6l9 13.68c.72 1.26 1.26 2.16 1.26 2.16s-.18-1.26-.18-2.52V3.06h3.06v21.42h-2.88v.18zM151.74 25.02c-4.86 0-7.2-1.98-7.2-5.22 0-4.5 4.68-5.76 10.26-6.12V12.6c0-2.34-1.62-3.06-3.78-3.06-1.62 0-3.42.54-4.5.9l-.9-1.98c1.26-.54 3.42-1.26 5.94-1.26 3.78 0 6.66 1.44 6.66 5.76v10.62c-1.44.9-3.78 1.44-6.48 1.44zm3.06-9.72c-4.14.36-6.84 1.26-6.84 4.5 0 2.34 1.62 3.24 4.14 3.24 1.26 0 2.16-.18 2.88-.54v-7.2h-.18zM167.76 25.02c-3.6 0-4.86-2.34-4.86-4.5V10.08h-2.34V7.92h2.34V4.14l3.6-1.08v4.68h3.24V9.9h-3.24v10.26c0 1.26.72 2.34 2.34 2.34.36 0 .54 0 .9-.18v2.16c-.36.36-1.08.54-1.98.54zM174.42 4.86c-1.08 0-2.16-.9-2.16-1.8 0-1.08.9-1.8 2.16-1.8 1.08 0 2.16.9 2.16 1.8 0 1.08-1.08 1.8-2.16 1.8zm-1.8 19.8V7.92h3.6v16.74h-3.6zM187.02 25.02c-5.04 0-7.74-3.78-7.74-8.82 0-5.04 2.52-8.82 7.74-8.82 5.04 0 7.56 3.78 7.56 8.82 0 5.04-2.52 8.82-7.56 8.82zm0-15.3c-3.06 0-3.96 3.24-3.96 6.48s.9 6.3 3.96 6.3 3.96-3.06 3.96-6.3c0-3.24-.9-6.48-3.96-6.48zM207.9 24.66V12.6c0-2.16-1.8-2.88-3.96-2.88-1.08 0-2.16.18-2.88.54v14.4h-3.6V8.64c1.62-.72 3.96-1.26 6.66-1.26 4.32 0 7.2 1.44 7.2 5.22v12.06h-3.42zM221.58 25.02c-4.86 0-7.2-1.98-7.2-5.22 0-4.5 4.68-5.76 10.26-6.12V12.6c0-2.34-1.62-3.06-3.78-3.06-1.62 0-3.42.54-4.5.9l-.9-1.98c1.08-.54 3.42-1.26 5.94-1.26 3.78 0 6.66 1.44 6.66 5.76v10.62c-1.44.9-3.78 1.44-6.48 1.44zm3.06-9.72c-4.14.36-6.84 1.26-6.84 4.5 0 2.34 1.62 3.24 4.14 3.24 1.08 0 2.16-.18 2.88-.54v-7.2h-.18zM231.66 24.66V.18h3.6V24.48h-3.6zM249.48 25.02c-2.52 0-4.68-.54-5.76-1.26l1.08-2.7c.9.54 2.52 1.08 4.14 1.08 2.52 0 4.32-1.44 4.32-3.6 0-4.68-8.82-2.88-8.82-9.54 0-3.42 2.7-6.3 7.02-6.3 2.34 0 4.14.54 5.22 1.26l-.9 2.34c-.72-.54-2.34-1.08-3.78-1.08-2.34 0-3.78 1.44-3.78 3.42 0 4.68 9 2.52 9 9.72-.36 3.78-3.42 6.66-7.74 6.66zM266.04 25.02c-3.6 0-4.86-2.34-4.86-4.5V10.08h-2.34V7.92h2.34V4.14l3.6-1.08v4.68h3.24V9.9h-3.42v10.26c0 1.26.72 2.34 2.34 2.34.36 0 .54 0 .9-.18v2.16c-.18.36-.9.54-1.8.54zM277.02 25.02c-4.86 0-7.2-1.98-7.2-5.22 0-4.5 4.68-5.76 10.26-6.12V12.6c0-2.34-1.62-3.06-3.78-3.06-1.62 0-3.42.54-4.5.9l-.9-1.98c1.26-.54 3.42-1.26 5.94-1.26 3.78 0 6.48 1.44 6.48 5.76v10.62c-1.26.9-3.42 1.44-6.3 1.44zm3.24-9.72c-4.14.36-6.84 1.26-6.84 4.5 0 2.34 1.62 3.24 4.14 3.24 1.26 0 2.16-.18 2.88-.54v-7.2h-.18zM293.22 25.02c-3.6 0-4.86-2.34-4.86-4.5V10.08h-2.34V7.92h2.34V4.14l3.6-1.08v4.68h3.24V9.9h-3.24v10.26c0 1.26.72 2.34 2.34 2.34.36 0 .54 0 .9-.18v2.16c-.36.36-1.08.54-1.98.54zM299.88 4.86c-1.08 0-2.16-.9-2.16-1.8 0-1.08.9-1.8 2.16-1.8 1.08 0 2.16.9 2.16 1.8-.18 1.08-1.08 1.8-2.16 1.8zm-1.8 19.8V7.92h3.6v16.74h-3.6zM309.42 25.02c-2.16 0-4.14-.54-5.04-1.26l.9-2.34c.72.54 2.16 1.08 3.6 1.08 1.8 0 3.24-1.26 3.24-2.52 0-3.96-7.38-2.16-7.38-7.56 0-2.52 2.16-4.86 5.94-4.86 1.98 0 3.6.54 4.68 1.26l-.9 2.16c-.54-.36-1.62-.9-3.06-.9-1.8 0-3.06 1.08-3.06 2.34 0 3.78 7.56 2.16 7.56 7.74 0 2.34-2.52 4.86-6.48 4.86zM325.08 25.02c-3.6 0-4.86-2.34-4.86-4.5V10.08h-2.34V7.92h2.34V4.14l3.6-1.08v4.68h3.24V9.9h-3.24v10.26c0 1.26.72 2.34 2.34 2.34.36 0 .54 0 .9-.18v2.16c-.36.36-1.08.54-1.98.54zM331.56 4.86c-1.08 0-2.16-.9-2.16-1.8 0-1.08.9-1.8 2.16-1.8 1.08 0 2.16.9 2.16 1.8 0 1.08-.9 1.8-2.16 1.8zm-1.8 19.8V7.92h3.6v16.74h-3.6zM343.8 25.02c-4.14 0-7.2-3.42-7.2-8.82 0-5.58 3.24-8.82 7.2-8.82 2.16 0 3.42.54 4.32 1.26l-.72 1.98c-.54-.36-1.44-.72-2.7-.72-2.88 0-4.5 2.52-4.5 6.3s1.8 6.3 4.32 6.3c1.08 0 1.98-.36 2.7-.9l.9 2.16c-.72.72-2.16 1.26-4.32 1.26zM354.78 25.02c-2.16 0-4.14-.54-5.04-1.26l.9-2.34c.72.54 2.16 1.08 3.6 1.08 1.8 0 3.24-1.26 3.24-2.52 0-3.96-7.38-2.16-7.38-7.56 0-2.52 2.16-4.86 5.94-4.86 1.98 0 3.6.54 4.68 1.26l-.9 2.16c-.54-.36-1.62-.9-3.06-.9-1.8 0-3.06 1.08-3.06 2.34 0 3.78 7.56 2.16 7.56 7.74 0 2.34-2.52 4.86-6.48 4.86z"/></g><path d="M.26 20.88c.54-1.08.9-1.98 1.62-3.06C1.16 16.2.8 15.3.26 13.5v7.38zM3.68 0S.44 0 .44 4.14v.72c.36 3.78 1.44 7.56 2.88 10.98 1.8-2.88 3.6-4.86 6.3-7.02 5.4-4.68 11.7-7.38 21.6-8.64H3.68V0z"/><path d="M35.72 2.16c-11.34 1.08-18.9 4.32-24.48 9-2.88 2.52-4.86 4.68-6.66 7.92C8.9 27.54 17.72 34.56 31.4 35.46h.18s4.14.18 4.14-4.5V2.16c.18 0 0 0 0 0zM6.74 26.1c-1.26-1.44-2.34-3.24-3.42-4.86-1.26 2.34-2.16 4.68-3.06 7.38v7.02h20.7c-6.48-2.16-10.44-5.22-14.22-9.54z"/></g></svg>