<svg xmlns="http://www.w3.org/2000/svg" viewBox="0 0 716.1 354" width="430">
  <defs>
    <clipPath id="a">
      <path fill="none" d="M206.1 195.4H221v12.2h-14.9z"/>
    </clipPath>
    <clipPath id="b">
      <path fill="none" d="M206.2 226.3h15.3v12h-15.3z"/>
    </clipPath>
    <linearGradient id="c" x1="102.19" x2="476.69" y1="116.1" y2="116.1" gradientTransform="translate(0 66)" gradientUnits="userSpaceOnUse">
      <stop offset="0" stop-color="#fff" stop-opacity="0"/>
      <stop offset="1" stop-opacity=".37"/>
    </linearGradient>
  </defs>
  <path fill="#fff" d="M1 1h250.3v352H1z"/>
  <path fill="#979797" d="M250.3 2v350H2V2h248.3m2-2H0v354h252.3z"/>
  <path fill="#f4f3fa" d="M2 161.7h248.3v88.4H2z"/>
  <path fill="#fff" d="M47.9 210.6h115.7a.9.9 0 01.9.9v10.8a.9.9 0 01-.9.9H47.9a.9.9 0 01-.9-.9v-10.8a.9.9 0 01.9-.9z"/>
  <path fill="#1d1d1b" d="M66.8 219.2h-1v-3.7l-.3.3-.5.4-.5-.6 1.5-1.2h.8zM61.5 219.2l-.3-1.1h-1.7l-.3 1.1H58l1.7-4.8h1.2l1.7 4.8zm-.6-2l-.5-1.7-.1-.3q-.15.45-.6 2.1h1.2zM72.8 219.2h-3.3v-.7l1.2-1.2c.3-.4.6-.6.7-.8a.52.52 0 00.2-.4c0-.1.1-.2.1-.4s0-.3-.2-.4a.6.6 0 00-.4-.1.75.75 0 00-.5.1 1 1 0 00-.5.4l-.6-.6a2.09 2.09 0 01.6-.4c.2-.1.3-.1.5-.2a1.27 1.27 0 01.6-.1 2.35 2.35 0 01.8.2 1.21 1.21 0 01.5.5 1.45 1.45 0 01.2.7 1.27 1.27 0 01-.1.6 2.09 2.09 0 01-.4.6c-.3.3-.5.6-.8.9l-.6.6h2.1v.7zM75 214.4h1.5a4 4 0 011.5.3 1.05 1.05 0 01.5.9 1.85 1.85 0 01-.2.7.55.55 0 01-.5.3 1 1 0 01.7.4 1.85 1.85 0 01.2.7 1.23 1.23 0 01-.5 1 2 2 0 01-1.3.4H75zm1 1.9h.6a1.27 1.27 0 00.6-.1.76.76 0 00.2-.4.52.52 0 00-.2-.4 1.27 1.27 0 00-.6-.1H76zm0 .8v1.2h.7a.73.73 0 00.6-.2.76.76 0 00.2-.5c0-.4-.3-.6-.8-.6H76zM85.9 215.2a1.09 1.09 0 00-.9.4 2.66 2.66 0 00-.3 1.2c0 1.1.4 1.6 1.2 1.6a5 5 0 001.2-.2v.8a3 3 0 01-1.3.2 2.27 2.27 0 01-1.6-.6 3 3 0 01-.6-1.8 3.08 3.08 0 01.3-1.3 2.28 2.28 0 01.8-.9 2.66 2.66 0 011.2-.3 3.19 3.19 0 011.4.3l-.3.8-.5-.2zM92.2 215.5a1.33 1.33 0 01-.3.8 1.23 1.23 0 01-.8.4 1.22 1.22 0 01.9.4 1.08 1.08 0 01.3.7 1.61 1.61 0 01-.5 1.1 2.3 2.3 0 01-1.4.4 6.75 6.75 0 01-1.4-.2v-.9a1.42 1.42 0 00.6.2 1.48 1.48 0 00.7.1.84.84 0 00.7-.2c.2-.1.2-.3.2-.5a.55.55 0 00-.3-.5 1.41 1.41 0 00-.9-.1h-.4v-.8h.4a2.2 2.2 0 00.8-.1.55.55 0 00.3-.5c0-.4-.2-.5-.7-.5a.9.9 0 00-.5.1 2.19 2.19 0 00-.5.3l-.5-.7a3 3 0 011.6-.5 2.66 2.66 0 011.2.3c.4.1.6.4.5.7zM98.5 216.8a2.41 2.41 0 01-.7 1.8 2.21 2.21 0 01-1.9.6h-1.3v-4.8H96a2.79 2.79 0 011.8.6 2.41 2.41 0 01.7 1.8zm-1 0c0-1-.5-1.5-1.3-1.5h-.5v3.1h.3c1 0 1.5-.5 1.5-1.6zM103.9 218.2h-.6v1h-1v-1h-2v-.7l2.1-3.1h.9v3h.6zm-1.5-.8v-1.8a2.19 2.19 0 01-.3.5l-.9 1.3zM111.7 219.2H109v-4.8h2.7v.8H110v1h1.6v.8H110v1.2h1.7zM115.4 216.2a1.38 1.38 0 011.5 1.5 1.35 1.35 0 01-.5 1.2 1.79 1.79 0 01-1.4.4 5.85 5.85 0 01-1.3-.2v-.9a1.42 1.42 0 00.6.2 1.27 1.27 0 00.6.1c.6 0 .9-.2.9-.8s-.3-.7-1-.7h-.4l-.3.1-.4-.2.2-2.4h2.6v.9h-1.7l-.1.9h.1a1.49 1.49 0 01.6-.1zM120.1 219.2h-1v-4.8h2.7v.8h-1.7v1.2h1.6v.8h-1.6zM123.8 217.2a3.22 3.22 0 01.6-2.1 2.41 2.41 0 011.8-.7 1.27 1.27 0 01.6.1v.8c-.2 0-.4-.1-.6-.1a1.08 1.08 0 00-.8.2 1.21 1.21 0 00-.5.5 2.92 2.92 0 00-.2.9 1.1 1.1 0 011-.6 1.28 1.28 0 011 .4 1.5 1.5 0 01.4 1.1 1.75 1.75 0 01-.4 1.2 1.29 1.29 0 01-1.2.4 2.92 2.92 0 01-.9-.2 1.34 1.34 0 01-.6-.7 1.8 1.8 0 01-.2-1.2zm1.7 1.3a.76.76 0 00.5-.2 1.42 1.42 0 00.2-.6.73.73 0 00-.2-.6.7.7 0 00-1.2.5 1.07 1.07 0 00.2.6.55.55 0 00.5.3zM134.1 216.5h1.9v2.5a2.92 2.92 0 01-.9.2c-.3 0-.6.1-.8.1a2.27 2.27 0 01-1.6-.6 3 3 0 01-.6-1.8 2.79 2.79 0 01.6-1.8 2.47 2.47 0 011.8-.6 3.19 3.19 0 011.4.3l-.3.8a2 2 0 00-1.1-.3 1.78 1.78 0 00-1 .4 1.59 1.59 0 00-.4 1.2 2.66 2.66 0 00.3 1.2 1.09 1.09 0 00.9.4 1.27 1.27 0 00.6-.1v-1h-.9zM138.6 219.2l1.8-3.9H138v-.8h3.4v.6l-1.8 4.1zM147.4 219.2h-1v-2h-1.9v2h-1v-4.8h1v1.9h1.9v-1.9h1zM152.9 216.5a3.22 3.22 0 01-.6 2.1 2.41 2.41 0 01-1.8.7h-.6v-.8c.2 0 .4.1.6.1a2 2 0 00.8-.1 1.21 1.21 0 00.5-.5 2.92 2.92 0 00.2-.9.78.78 0 01-.4.4 1.27 1.27 0 01-.6.1 1.28 1.28 0 01-1-.4 1.81 1.81 0 01.1-2.3 1.29 1.29 0 011.2-.4 2.92 2.92 0 01.9.2 1.34 1.34 0 01.6.7 2 2 0 01.1 1.1zm-1.7-1.3a.76.76 0 00-.5.2 1.42 1.42 0 00-.2.6.73.73 0 00.2.6.7.7 0 001.2-.5 1.07 1.07 0 00-.2-.6.55.55 0 00-.5-.3z"/>
  <path fill="none" stroke="#1d1d1b" d="M47.9 210.6h115.7a.9.9 0 01.9.9v10.8a.9.9 0 01-.9.9H47.9a.9.9 0 01-.9-.9v-10.8a.9.9 0 01.9-.9z"/>
  <path fill="none" stroke="#3c388d" stroke-width=".5" d="M35.8 183.8v43.3"/>
  <path fill="#00a4ac" d="M35.8 189.7a5.9 5.9 0 10-5.9-5.9 5.91 5.91 0 005.9 5.9"/>
  <path fill="#3c388d" d="M35.8 206.4a5.9 5.9 0 10-5.9-5.9 5.85 5.85 0 005.9 5.9M35.8 237.2a5.9 5.9 0 10-5.9-5.9 5.91 5.91 0 005.9 5.9"/>
  <g clip-path="url(#a)">
    <path fill="#3c388d" d="M219.4 195.4h-11.7a.47.47 0 00-.5.5v8a.47.47 0 00.5.5h11.7a.47.47 0 00.5-.5v-8a.47.47 0 00-.5-.5M206.1 204.6a1.32 1.32 0 001.3 1.3h12.2a1.32 1.32 0 001.3-1.3h-14.8z"/>
    <path fill="#fff" d="M208 196.2h11.1v7.4H208z"/>
    <path fill="#3c388d" d="M215.2 207.5h-5a.43.43 0 01-.4-.4v-6.6a.43.43 0 01.4-.4h5a.43.43 0 01.4.4v6.6c0 .3-.1.4-.4.4"/>
    <path fill="#fff" d="M210.4 200.7h4.8v5.8h-4.8z"/>
    <path fill="#3c388d" d="M208.9 207.6h-2.4a.43.43 0 01-.4-.4v-4.5a.43.43 0 01.4-.4h2.4a.43.43 0 01.4.4v4.5a.43.43 0 01-.4.4"/>
    <path fill="#fff" d="M206.6 202.8h2.1v3.7h-2.1z"/>
  </g>
  <path fill="#fff" d="M207 229.2h13.4v8.2H207z"/>
  <path fill="#0a8243" d="M207.7 231.2h12v4h-12z"/>
  <g clip-path="url(#b)">
    <path fill="#3c388d" d="M219.8 226.3h-12.2a1.37 1.37 0 00-1.4 1.4v9.2a1.37 1.37 0 001.4 1.4h12.2a1.37 1.37 0 001.4-1.4v-9.2a1.37 1.37 0 00-1.4-1.4m.6 10.8a.32.32 0 01-.3.3h-12.7a.32.32 0 01-.3-.3v-7.8h13.4z"/>
  </g>
  <path fill="#8f1f81" d="M2 161.7h4.7v88.4H2z"/>
  <text fill="#1d1d1b" font-family="OpenSans,Open Sans" font-size="4.9885001" style="isolation:isolate" transform="translate(38.09 245.17)">
    <tspan></tspan>
  </text>
  <path fill="#00a4ac" d="M211.9 188.3a1.14 1.14 0 01-.8-.3l-2.5-2.5a1.21 1.21 0 010-1.6 1.21 1.21 0 011.6 0l1.7 1.7 6.2-6.2a1.21 1.21 0 011.6 0 1.21 1.21 0 010 1.6l-7 7a1.14 1.14 0 01-.8.3"/>
  <path fill="#1d1d1b" d="M47.3 182.6h129.8v2.3H47.3zM47.3 199.2h105.3v2.3H47.3zM47.3 230.1h117.4v2.3H47.3z" opacity=".6" style="isolation:isolate"/>
  <path fill="#3c388d" d="M31 168.2h107.5v3.2H31zM31 259.7h70.8v3.2H31z"/>
  <path fill="url(#c)" d="M450.3 24.5L96.1 215.3l374.5 124.4-20.3-315.2z"/>
  <path fill="#2d2d2b" d="M208.5 27.7c-.1.2-.2.3-.2.5s.2.3.3.4c.1-.2.2-.3.2-.5s-.3-.3-.3-.4M211.4 27.7a.76.76 0 01.2.5c0 .2-.2.3-.3.4-.1-.2-.2-.3-.2-.5s.2-.3.3-.4M206.9 27.6a.2.2 0 000-.4.22.22 0 00-.2.2.22.22 0 00.2.2M207 27.9a.2.2 0 10-.2.2.22.22 0 00.2-.2M207.1 28.3a.22.22 0 00-.2-.2.22.22 0 00-.2.2.2.2 0 10.4 0M207.9 26.7a.22.22 0 00.2-.2.2.2 0 10-.2.2"/>
  <path fill="#2d2d2b" d="M207.5 26.8a.2.2 0 10-.2-.2c0 .1 0 .2.2.2M207.1 27.1a.2.2 0 100-.4.22.22 0 00-.2.2c0 .2.1.2.2.2M208.4 26.7a.2.2 0 100-.4.22.22 0 00-.2.2.22.22 0 00.2.2M208.9 26.9a.22.22 0 00.2-.2.22.22 0 00-.2-.2.22.22 0 00-.2.2c0 .1.1.1.2.2M209.4 27.1a.22.22 0 00.2-.2.2.2 0 10-.2.2M212.8 27.4a.2.2 0 10.4 0c0-.1 0-.2-.2-.2s-.2 0-.2.2M213 27.7a.22.22 0 00-.2.2.2.2 0 10.2-.2"/>
  <path fill="#2d2d2b" d="M213 28.1a.22.22 0 00-.2.2.2.2 0 10.2-.2M211.9 26.7a.22.22 0 00.2-.2.2.2 0 10-.2.2M212.4 26.8a.2.2 0 10-.2-.2.22.22 0 00.2.2M212.8 27.1c.1 0 .2 0 .2-.1a.22.22 0 00-.2-.2.22.22 0 00-.2.2c0 .1.1.2.2.1M211.4 26.7a.22.22 0 00.2-.2.22.22 0 00-.2-.2.22.22 0 00-.2.2.22.22 0 00.2.2M210.9 26.9a.2.2 0 10-.2-.2c.1.1.1.2.2.2M210.3 26.9a.2.2 0 10.2-.2.22.22 0 00-.2.2M209.6 27.9h.2v-.8c-.1 0-.1 0-.2-.1zM210.2 27c-.1 0-.1.1-.2.1v.8h.2zM209.8 26.1v-.5a.82.82 0 00-.5.5zM210.1 26.1h.5c0-.2-.2-.4-.5-.5zM209.3 26.3a.75.75 0 00.7.5.82.82 0 00.5-.5zM210.3 25.5a1.38 1.38 0 01-.3-.4c.2 0 .3.1.4.3v-.7c-.1.1-.3.2-.4.3 0-.2.1-.3.3-.5h-.6a.76.76 0 01.2.5c-.2 0-.3-.1-.4-.3v.7c.1-.1.3-.2.4-.3 0 .2-.1.3-.3.4zM211 38.7a11.76 11.76 0 01-2-.7c0-.2 0-.3-.1-.4a.52.52 0 00-.4-.2h-.2l-.3-.3a2.07 2.07 0 01-.6-1c-.1-.2-.1-.5-.2-.7a.63.63 0 01-.6.5v-.2c-.1.2-.4.2-.6.1.1.3.1.5.2.8a6 6 0 00.9 1.5l.4.4v.1a.85.85 0 00.3.5c.2.1.4.1.5-.1a3.58 3.58 0 001.1.4 5 5 0 001.2.2 2.46 2.46 0 001.1-.4c.1-.1.3-.2.4-.3a2.15 2.15 0 01-1.1-.2m-2.2-.8a.3.3 0 00-.4 0c-.1 0-.1.1-.1.2l-.1.1h.1a.37.37 0 01.1.3h-.1c-.1 0-.2 0-.2-.1 0 .1-.1.1-.1.2a.1.1 0 00.1.1l.2.1a.19.19 0 01-.3 0 1.38 1.38 0 01-.3-.4.76.76 0 01.2-.5c0-.1-.1-.1-.1-.2h.2a.6.6 0 01.6-.3c.1 0 .2.1.3.1a.31.31 0 01.1.2h-.2m.4 1.2a.3.3 0 11.3-.3.32.32 0 01-.3.3m1.1.4a.2.2 0 110-.4.22.22 0 01.2.2c.1.1 0 .2-.2.2M210.6 40.5h-.1v-.7a4.25 4.25 0 01-1.1-.2v.9h-.1a.43.43 0 00-.4.4c0 .2.1.3.2.5.1-.1.1-.2.2-.2s.1.6.4.6v.1a.3.3 0 00.6 0v-.1c.4 0 .3-.6.4-.6s.1.1.2.2a.76.76 0 00.2-.5c-.1-.2-.2-.4-.5-.4m-.6 1.6a.2.2 0 11.2-.2c-.1.1-.1.2-.2.2m.8-.9c0-.1-.1-.1-.2-.1s-.1.7-.4.7a.22.22 0 01-.2-.2c0-.1.1-.1.1-.2a.1.1 0 00-.2 0c0 .1.1.1.1.2a.22.22 0 01-.2.2c-.3 0-.2-.7-.4-.7a.31.31 0 00-.2.1.35.35 0 00-.1-.2.27.27 0 01.3-.3c.3 0 .2.5.4.5s.1 0 .1-.1-.2-.2-.2-.4.2-.3.4-.5a.66.66 0 01.4.5c0 .2-.2.3-.2.4s0 .1.1.1c.2 0 .1-.5.4-.5a.27.27 0 01.3.3c-.2 0-.2.1-.3.2"/>
  <path fill="#2d2d2b" d="M219.1 41.4s-.1-.1-.1 0c-.8.2-1.9-.5-2.9-1.1a4.42 4.42 0 00-2.4-1.1 1.85 1.85 0 00-.7.2 1.47 1.47 0 00-.5.6l-.3.6a.6.6 0 000 .9c.1.1.3.2.4.3l.1.1c.2.1.3.1.3.2a5 5 0 01-1.3.4 16.25 16.25 0 01-3.6 0 6.47 6.47 0 01-1.3-.4q0-.15.3-.3l.1-.1a1.38 1.38 0 00.4-.3.52.52 0 00.2-.4c0-.2-.1-.3-.2-.5l-.3-.6a1 1 0 00-.5-.6 1.45 1.45 0 00-.7-.2 5.28 5.28 0 00-2.4 1.1c-1 .7-2.1 1.4-2.9 1.1h-.1v.1a1.79 1.79 0 01.7.5 2.62 2.62 0 00.9.5 1.69 1.69 0 001-.3 6.07 6.07 0 001-.7 5.38 5.38 0 012-1l-.2.2c-.2.1-.3.4-.4.6a1.42 1.42 0 00.2.6l.1.2a.9.9 0 01.1.5.37.37 0 00.1.3 1.06 1.06 0 00.6.7 7 7 0 002.9.4 7.28 7.28 0 002.9-.4 1.06 1.06 0 00.6-.7c0-.1.1-.2.1-.3s.1-.3.1-.5.1-.2.1-.3a1.42 1.42 0 00.2-.6.68.68 0 00-.4-.6l-.2-.2a5.38 5.38 0 012 1c.3.2.7.5 1 .7a1.69 1.69 0 001 .3 1.62 1.62 0 00.9-.5c.2-.2.5-.3.7-.5v-.1M214 34.6c-.1-.1-.3-.2-.3-.4a10.91 10.91 0 00-.6-1.1.35.35 0 00-.1-.2c0-.1 0-.2.1-.2l.2-.2.1-.1a3 3 0 00-.5-.7 2.7 2.7 0 00-.8-.7.55.55 0 00.3-.5.76.76 0 00-.2-.4 10.09 10.09 0 01.7-1.5l-.5-.2a.66.66 0 01.1.6c-.2-.1-.3-.2-.3-.4a1.42 1.42 0 01-.2.6.3.3 0 01.4 0 .62.62 0 01-.7.2c-.2 0-.4-.1-.4-.3a.22.22 0 01.2-.2c.1 0 .1.2.1.3.1-.1.3-.5.1-.6s-.4.2-.4.4c0-.2-.1-.5-.3-.5s-.2.5-.1.6c0-.2.1-.2.2-.2s.1 0 .1.2-.2.2-.5.2a.75.75 0 01-.7-.5.55.55 0 01.5.3v-.7a.55.55 0 01-.5.3 1 1 0 01.4-.5h-1a1 1 0 01.4.5.55.55 0 01-.5-.3v.7a.85.85 0 01.5-.3.54.54 0 01-.7.5.76.76 0 01-.5-.2c-.1-.1.1-.2.1-.2s.2.1.2.2c.1-.1.2-.6-.1-.6s-.3.2-.3.5c-.1-.2-.2-.5-.4-.4s-.1.5.1.6c0-.1 0-.3.1-.3a.22.22 0 01.2.2c0 .1-.2.2-.4.3a.62.62 0 01-.7-.2.3.3 0 01.4 0 1.42 1.42 0 01-.2-.6c0 .2-.2.3-.3.4a1.27 1.27 0 01.1-.6l-.5.2a5.07 5.07 0 01.7 1.5.52.52 0 00-.2.4.55.55 0 00.3.5 2.7 2.7 0 00-.8.7 4.19 4.19 0 00-.9 1.4l.5.5a.76.76 0 01.2.5.76.76 0 00.2.5c.1.1.1.2.1.4h2.7v2.9c-.1 0-.2.1-.3.2l.9.3a.52.52 0 01.2-.4l-.6-.1V35h2.6a5 5 0 01-.2 1.2 2.07 2.07 0 01-.6 1 2.18 2.18 0 01-.9.7.1.1 0 00-.1.1.31.31 0 00-.1.2.37.37 0 01-.1.3l.3.1c.9.2 1.2.2 1.2.1.2-.2.4-.3.6-.5a3.77 3.77 0 00.9-1.5 5.66 5.66 0 00.3-1.8l.2-.3m-4.2.2h-2.7a5 5 0 01.2-1.2 2.07 2.07 0 01.6-1 2.18 2.18 0 01.9-.7 1.8 1.8 0 011-.2zm.1-4.5a4.14 4.14 0 00-1.9.5c-.2-.1-.3-.2-.3-.4 0-.5 1.4-.6 2.2-.6.7 0 2.2 0 2.2.6a.54.54 0 01-.3.4 4.14 4.14 0 00-1.9-.5m.1 4.5v-3.2a3.55 3.55 0 011 .2 5.5 5.5 0 01.9.7 2.07 2.07 0 01.6 1 5 5 0 01.2 1.2z"/>
  <path fill="#2d2d2b" d="M212.3 34.3a3.08 3.08 0 00-.5-1.2.1.1 0 00.1-.1c-.1 0-.1 0-.2.1l-.1-.1a2.65 2.65 0 00-.6-.5l-.6-.3a.1.1 0 01.1-.1c.1 0 .1 0 .1.1a.1.1 0 00-.1-.1v.1l-.1-.1v.1h-.1c0 .1 0 .1.1.1v2s-.1-.1 0-.1-.1.1-.1.1h.1a.1.1 0 10.1.1v.1a.1.1 0 00.1-.1c0-.1-.1 0-.1 0h.8c0 .1 0 .1.1.2v-.2h.9m-.3-.1l.1.1v-.1h.1a.1.1 0 00-.1-.1h.1a.1.1 0 00-.1-.1m-.7-1.4c0 .1 0 .1.1.1l-.1.1h.1v.1h.1a3.58 3.58 0 01.4 1.1h-.1a.1.1 0 00.1.1h-.7v-.1h-.1V34l-.1.1h-.1v.1h-.6v-.1h-.1v-.7h.1v-.2h-.1v-.8h.1v-.1c.2.1.4.1.5.2a1.21 1.21 0 01.5.5"/>
  <path fill="#2d2d2b" d="M211.8 34c.1-.1 0-.1 0 0 0-.1.1-.1 0 0-.1 0-.3-.1-.3-.2l.1.1h.2a.1.1 0 00.1-.1c0-.1-.1-.1-.2-.2l-.1-.1c0-.1 0-.1-.1-.2v-.1c-.1.1 0 .2.1.3s.3.2.3.3h-.1c-.1-.1-.1-.2-.2-.2a.19.19 0 010-.3c.1-.1 0-.2-.1-.3v-.1h-.4a.1.1 0 00-.1.1.1.1 0 01-.1-.1.1.1 0 00-.1-.1l-.1-.1V32.4h-.1v.1c0 .1-.1 0-.1 0a.1.1 0 00.1.1c.1 0 0 .1 0 .1a.22.22 0 00.2.2.1.1 0 00-.1.1s-.1.1-.1 0h-.2v.1h.1v.1h.1v-.1m.2.1h.1l.1-.1h.1V33c0 .2.2.2.3.3h-.2c-.1 0-.1.1-.2.1s0 .1.1.2h-.1c-.1 0-.1-.1-.1 0h-.2m0 .1h.1v-.2c0-.1.1-.1.2-.1a.22.22 0 00.2.2h.1v.1h-.2m.2.1l.1-.1-.1.1zM209.6 35.5c0-.1-.1-.3-.2-.3h-.1a2.92 2.92 0 01-.9.2.76.76 0 01-.5-.2v.1c0-.1 0-.1-.1-.1s-.1 0-.1.1a.1.1 0 00.1.1h.1l-.1.1h.1a1.84 1.84 0 001.2 1.7c.1 0 .2 0 .2.1s0 .1-.1.1-.1 0-.1-.1.1 0 .1-.1 0-.1-.1-.1-.1 0-.1.1a.22.22 0 00.2.2c.1 0 .2-.1.3-.2v-.1h.1v-1.5c.1 0 .1 0 .1-.1s0-.1-.1-.1m-1.5.3l1 1.4a1.41 1.41 0 01-1-1.4m1 1.3l-.9-1.3h.2l.7 1a.19.19 0 010 .3m.2-.4l-.6-.9c.1 0 .1 0 .2-.1l.5.7a.37.37 0 00-.1.3m.1-1a.1.1 0 00-.1.1c0 .1 0 .1.1.1a.76.76 0 01-.1.4l-.4-.6c.1-.1.3-.1.4-.2s.1 0 .1.2M209.4 32.6a.44.44 0 00.3-.1s-.5-.1-.5-.2v-.1c.3 0 .3-.2.5-.2-.2 0-.3.1-.4.1l.1-.1c0 .1-.1.1-.2.1v.1c0 .2.5.1.5.2s-.1.1-.3.2c-.2-.1-.2-.2-.4-.1 0 0 .1-.1 0-.1h-.2v.2-.2h-.2m.1 0c0 .1 0 .1.1.1h-.3v.1m-.1 0c.1 0 .1.1 0 0 .1.1.1 0 0 0 .1.1.1 0 .1 0h.1m.1 0h.1s-.1-.1.1-.1h.1v.1s0-.1-.1 0v-.1h.2v.1c0 .1 0 0-.1 0h-.3M209.7 33.3c0-.1-.1-.1-.2-.1s-.6.1-.6 0 .1 0 .2 0c.1.1.4 0 .6.1-.2-.2-.3-.1-.5-.1.1 0 .1 0 .1-.1s-.2 0-.3 0c-.1 0-.2 0-.2.1s.5.1.7.1.1.1.2 0a.37.37 0 01-.3.1h-.8s.1-.1 0-.1h-.2v.1s0 .1-.1 0a.1.1 0 01-.1.1v.1l-.1-.1V33.2h-.1v.1h-.1v.1h.1l.1.1c.1.1.1 0 .1 0v.1h-.4s-.1 0 0 .1v.1-.1h.2v.1c0 .1.1-.1.1-.1.1 0 .1 0 .2-.1h.1c.2 0 .1-.1.3-.1h.1v.1h.3a.1.1 0 01-.1-.1h.1v-.2h.3v.1c0 .1 0 0-.1 0m.1-.1l.1-.1h-.2c.1 0 .3 0 .3-.1M209.6 34.2c0-.1-.1-.1-.2-.1s-.7.1-.7 0 .2 0 .3 0c.2 0 .4-.1.6.1-.1-.2-.3-.1-.5-.1h-.2c-.2 0-.4 0-.4.1s.6.1.8.1.2-.1.3-.1a.37.37 0 01-.3.1h-1s.1-.1 0-.1h-.2v.1s0 .1-.1 0a.1.1 0 01-.1.1l-.1-.1c-.1-.1 0 0 0-.1v-.1m0-.1c-.1.1-.1.2 0 .1l.1.1v.1h-.3s-.1 0 0 .1h.1s-.1 0 0 .1h.3a.1.1 0 00.1-.1h.3c.3 0 .1-.1.5-.1v.1h.2s0-.1-.1 0h-.2m0 0c.1-.1.1-.1.1-.2h.3v.1c0 .1 0 0-.1 0v-.1c0-.1.1 0 .1 0h-.3c.1 0 .3 0 .3-.1m-.8 0M212.1 35.5c.1-.2 0-.2-.2-.2s-.7.1-.7 0 .2 0 .3 0c.2.1.5-.1.6-.1-.2-.1-.3 0-.5 0h-.2c-.2 0-.4 0-.4.1s.6.1.8.1a.44.44 0 01.3.1c0-.1-.1 0-.2 0h-1s.1-.1 0-.1h-.2v.1h-.1v.1h-.1a.1.1 0 01-.1-.1V35.2h-.1v.1c0 .1-.1 0-.1 0v.1h.1l.1.1v.1h-.2s-.1 0 0 .1h.1v-.1.1l.1-.1h.1a.1.1 0 00.1-.1.1.1 0 00.1-.1h.2c.3 0 .1-.1.5-.1v.1a.1.1 0 01-.1-.1h-.2m.1.2l.1-.1v-.1h.3v.1c0 .1 0 0-.1 0M210.4 35.1zm.2.2M211.3 36c.2.1.5-.1.6-.1-.2-.1-.3 0-.4 0h.2s-.3 0-.4.1c-.1-.1-.2-.1-.2 0s.4.1.6.1h-.8s.1-.1 0-.1h-.2v.1h-.1v.2h-.1v-.2h-.1m.1 0c-.1.1-.1.2 0 .2h.1v.1h-.2s-.1 0 0 .1h.1v.2a.1.1 0 00.1-.1h.1a.1.1 0 00.1-.1.1.1 0 00.1-.1h.1c.1 0 0-.1.3-.1h.1v.1c-.1 0-.1-.1-.1 0m-.3-.1l.1-.1h.4v.1c0 .1 0 0-.1 0h-.1v-.1c0-.1.1 0 .1 0h-.2c.1 0 .3 0 .3-.1s0-.1-.2-.1-.6.1-.6 0 .1 0 .2 0m-.4.2"/>
  <path fill="#2d2d2b" d="M211.2 36.8c.2.1.5-.1.6-.1-.2-.1-.3 0-.4 0h.2c-.2.1-.4 0-.4.1 0-.1-.1-.1-.1 0s.6 0 .6.1-.1.1-.3.1h-.6l.1-.1h-.2v.1h-.1a.1.1 0 01-.1.1v.1l-.1-.1v-.2h-.2v.1h-.1m.3-.1a.1.1 0 00.1.1h.1v.1h-.2m-.1 0c.1.1.1.1.1 0l.1-.1h.1v-.1h.1v.2c-.1 0-.1-.1-.1 0m0-.1c.1 0 .1-.1 0 0 .1-.1.1-.2 0-.2h.3m-.1-.1l.1-.1c-.1 0-.1 0-.1-.1h.1c.2 0 .3 0 .3-.1s-.6 0-.6-.1 0 0 .1-.1M201.9 26.9a.1.1 0 00-.2 0l.1.1c.1 0 .1 0 .1-.1M201.9 26.5a.1.1 0 10-.1.1.1.1 0 00.1-.1M202 26.4a.1.1 0 100-.2l-.1.1a.1.1 0 00.1.1M202.3 26.3a.1.1 0 00.1-.1c0-.1 0-.1-.1-.1a.1.1 0 000 .2M203.9 26.1c.1.1.1.1.2 0s.1-.1 0-.2-.1-.1-.2 0-.1.1 0 .2M203.9 25.8c.1 0 .1-.1 0-.2h-.2c-.1.1-.1.1 0 .2h.2M203.5 25.7c.1-.1.1-.1 0-.2s-.1-.1-.2 0-.1.1 0 .2.2.1.2 0M203.2 26c.1 0 .1-.1 0-.2h-.2c-.1 0-.1.1 0 .2h.2M202.3 25.8l.1.2.1-.2v.3a.2.2 0 00.4 0c0-.1 0-.1-.1-.2l-.2-.2h.2l-.1-.2-.2.1v-.2l-.2.1.2.2z"/>
  <path fill="#2d2d2b" d="M203.9 26.2c0 .1.1.1.1.2-.1-.1-.1-.1-.1-.2l-.1.4a.1.1 0 01.1-.1c0 .2-.1.3-.2.3s-.1 0-.2-.1a.1.1 0 01.1-.1c0-.2-.1-.2-.2-.1a.25.25 0 00-.1-.4.25.25 0 00.1.4c-.1-.1-.2 0-.1.2 0-.1.1-.1.2 0s-.1.2-.2.2-.3-.1-.3-.2.1 0 .3 0l-.1-.3a.22.22 0 01-.2.2.37.37 0 01.1-.3l-.4.2a.35.35 0 01.2.1h-.3l.1.3a.35.35 0 01.1-.2.22.22 0 01-.1.3.19.19 0 01-.3 0c-.1-.1 0-.2.1-.1 0-.2-.2-.2-.2 0 0-.2 0-.3-.2-.4 0 .2 0 .3.2.4-.1 0-.2.1-.1.2 0-.1.1-.1.1 0s.1.1 0 .2a.37.37 0 01-.3-.1h.2l-.2-.2v.2c-.1-.1-.1-.1-.1-.2l-.2.1a1.21 1.21 0 01.5.5 3 3 0 01.8-.4l.9-.3v-.7zM206.9 35c.1-.2-.2-.3-.2-.5a1.45 1.45 0 00-.2-.7 17.88 17.88 0 00-1.3-1.4.6.6 0 01.4.1l.4.4a4.19 4.19 0 01.9-1.4l.1-.2c-.2 0-.3.1-.5.2a.73.73 0 00-.2-.6c.1-.3 0-.8-.8-1.3.4.1.6.5.9.2-.3 0-.3-.6-1.2-1.1.4 0 .7.6 1.1.2-.4 0-.5-.8-1.3-1 .2 0 .5.1.7-.1-.2.1-.4-.2-.7-.2a.85.85 0 000-.7.76.76 0 00-.5.2c0-.2-.2-.2-.4-.2v.2l-.9.3a5.94 5.94 0 00-.8.4c-.1 0-.1-.1-.2-.1s-.2.2-.1.4a1.42 1.42 0 00-.6.2.46.46 0 00.4.5c-.4.5 0 .9-.4 1.2.6 0 .5-.8.7-.9 0 .5-.3.6-.3 1.2 0 .3.2.6 0 .9.5-.1.3-1.1.6-1.5a.45.45 0 010 .5c-.2.5 0 1.1-.2 1.3.5 0 .5-.8.9-1.1a17.8 17.8 0 01-1.2 2.9c-.8 1.1-1.3 2.4-2 2.4a.56.56 0 01-.6-.5v-.1c0-1.2 2.1-2.1 2.1-3.4a.79.79 0 00-.8-.8.71.71 0 00-.6.3.35.35 0 01-.2-.1c-.8 0-.6 1.4-1.2 1.3a1 1 0 001-.5c-.1.9-1.4.6-1.3 1.7.2-.8 2.2-.7 2.2-1.9a.76.76 0 00-.2-.4.6.6 0 01.4-.1.47.47 0 01.5.5v.1c0 1.1-2.1 2-2.1 3.4a1.42 1.42 0 00.2.6c-.2.1-.3 0-.4-.1a.57.57 0 00.8.4h.2a.6.6 0 01-.6.3 1 1 0 001.4-.6 6.42 6.42 0 001-1.3.37.37 0 01-.1.3 5.08 5.08 0 00-.9 1.8c-.1.6-.4 1.2-.8 1.2-.1 0-.2-.1-.3-.1s0 .2 0 .3a1.67 1.67 0 00-.3.9c0 .2.1.5.1.7.2-.1.3-.4.4-.6.1.7-.3.7 0 1.3 0-.1.1-.2.3-.2h.1c.1.1.1.1 0 .2s-.2.6.2.5c-.1 0-.1-.2.1-.2s.4.1.7.1.2-.2.4-.2.1.1.1.2q.3-.15.3-.3c0-.1-.1-.2 0-.3s.4 0 .3.2c.1 0 .2-.2.2-.3s-.2-.3-.4-.2c0-.1-.2-.2-.4-.2-.4 0-.3.3-.5.3-.4 0-.8-.5-.8-1.3 0-.4.5-.6.8-.7a2.76 2.76 0 001.3-1.1 2.85 2.85 0 00.2-1.6.88.88 0 01.5 1 .71.71 0 01-.3.6c-.1.1-.2 0-.2.1s0 .1.1.2.1.2.2.4a1.79 1.79 0 00.5.7v-.5c.4.2.1.9.8.9a.19.19 0 010-.3c.1 0 .2 0 .3.2s.1.2.4.2.2-.1.4-.1.2.2.1.4c.2 0 .4-.2.3-.4v-.1a.25.25 0 01.4.1v.1a.45.45 0 000-.5c-.1-.1-.1-.1-.2-.1a.22.22 0 00-.2-.2h-.3c-.1 0-.2.2-.3.2a2 2 0 01-1.3-1.2c0-.3.8-.6.8-1.1 0-.7-.7-1-1.3-1.4a1.26 1.26 0 011.2-.1c0-.2.2-.2.2-.5.1.3 0 .6.1.7.1-.1.4-.1.3-.5.1.2-.1.6.1.7 0-.2.1-.2.2-.2s.1.1.1.2c0 .3-.4.2-.4.5 0 .1.2.2.2.3a.22.22 0 01-.2.2h-.1c.1.1.2.2.3.2s.3-.1.4-.3a.44.44 0 01-.1.5c.1.1.5 0 .5-.5.2 0 .3.2.2.4a.27.27 0 00.3-.3c0-.2.1-.5.1-.7m-3.9-6.4c-.2 0-.2-.2-.5-.2.3-.1.5-.2.8-.3a.55.55 0 01-.3.5m1.3 1.4a.37.37 0 01-.5-.2c0-.1-.1-.3 0-.3s.1-.2.1-.3-.2-.1-.4 0c.1-.1.1-.2 0-.2s-.1.2-.2.2 0-.1 0-.2.1-.1.1-.2l.7-.3h.2s.2.1.1.2-.2-.1-.3 0 0 .1.1.2c-.1.1-.3.1-.3.3s.1.2.3.2.1.1.2.3a.44.44 0 01-.1.5c.1-.2.1-.2 0-.2m.1-2c-.2.1-.4.1-.5-.1a3 3 0 00.8-.4c-.3.3-.2.4-.3.5M220.4 38.4a.56.56 0 00.5.6.65.65 0 00.6-.6.65.65 0 00-.6-.6.65.65 0 00-.5.6m.2 0c0-.2.3-.4.5-.4s.3.2.4.4-.3.4-.5.4a.37.37 0 01-.4-.4M218.2 38.9c-.1 0-.1.1-.1.2a.37.37 0 00.1.3.47.47 0 00.6.1.22.22 0 00.2-.2.66.66 0 00-.4-.5.6.6 0 00-.4.1m.3.6a.32.32 0 01-.3-.3c0-.1 0-.1.1-.1h.3q.15 0 .3.3c-.1 0-.3.1-.4.1M214.9 30.6a.35.35 0 00-.1.5.37.37 0 00.6 0c.1-.1.2-.2.2-.3s0-.2-.1-.2-.1-.1-.2-.1-.3 0-.4.1m0 .3a.35.35 0 01.1-.2c.1 0 .1-.1.2-.1a.1.1 0 01.1.1v.1a.35.35 0 01-.1.2c0 .1-.2.1-.3-.1M217.5 37.9a.37.37 0 00-.1.3c0 .1 0 .3.1.3s.1.1.2.1.2 0 .2-.1.1-.2.1-.4-.1-.2-.1-.3-.2-.1-.3-.2a.44.44 0 01-.1.3m.2.7c-.1 0-.1 0-.1-.1a.31.31 0 01-.1-.2c0-.1 0-.2.1-.2l.1-.1c.1 0 .2.1.2.3s0 .2-.1.2 0 .1-.1.1zM214.6 33.1a.22.22 0 00-.2.2.34.34 0 00.3.5.3.3 0 00.4 0 .22.22 0 00.2-.2v-.3q0-.15-.3-.3a.6.6 0 01-.4.1m.1.6c-.1-.1-.2-.2-.2-.3l.1-.1h.3a.22.22 0 01.2.2v.2l-.1.1a.37.37 0 00-.3-.1"/>
  <path fill="#2d2d2b" d="M220.9 32.5c.2.5.6.7.9.6-.6-.1-.1-1.2-1-1.2h-.1a.85.85 0 00-.6-.2 1 1 0 00-1 1.1c0 1.5 1.8 1.7 1.8 3a.65.65 0 01-.6.6c-.3 0-.5-.3-.8-.9a3.59 3.59 0 00-.7-1 .37.37 0 00.3.1c.1 0 .2 0 .2-.1s.1-.1.1-.2a1 1 0 00-.1-.3.52.52 0 00-.4-.2c-.1 0-.2 0-.2.1a.31.31 0 00-.1.2v.2a3.29 3.29 0 01-.7-1.3 1 1 0 01.4-.7h.1v-.1l.5-.6.1-.1-.2-.1a.6.6 0 00.1-.4c.1.2.2.4.4.4-.1-.3.1-.6 0-1.2.1.2.4.4.5.3-.4-.4.1-.8-.4-1.6.1.1.3 0 .4-.1-.5-.1-.3-.7-1.1-.9a.27.27 0 00.3-.3c-.2.2-.4-.3-1.1-.3a1.06 1.06 0 00-.6-.7.75.75 0 01-.1.5l-2.3-2.3-.1-.1v.1l2 2.5-.4.2c-.1 0-.2.1-.2.3a4.7 4.7 0 00-.9.6c-.1.1-.2.1-.1.4s-.1.3.2.2.6-.4.7-.2-.2.2-.3.2-.3.2-.3.2h.1l.1.1a.35.35 0 01.2-.1c.1 0 0 .3-.1.4a.43.43 0 00.4-.4c0-.2.1-.2.1-.2s.1.2 0 .3c.1 0 .2-.2.2-.5a.35.35 0 01.2-.1c.1 0 .2.2.4.2a.56.56 0 00.6-.5v-.3a.76.76 0 01.2.4c0 .6-1 .8-1.4 1.2h-.4v.2l-.2.7v.4a2.73 2.73 0 00-.6 1.2l-.3-.3v-.1a.37.37 0 00-.1-.3c0-.1-.1-.1-.2-.1s-.2 0-.2.1h-.1a1.76 1.76 0 01-.5-.4c0-.1-.1-.1-.2-.1h-.2c-.1 0-.1.1-.2.1l-.3.2.2.2.1.1.1-.1c.1 0 .1-.1.2 0a.35.35 0 01.2.1c.2.3.5.6.7.9h-.7c-.1 0-.2 0-.2.1l-.1.2c0 .1-.1.1 0 .3.2.4.4.7.6 1.1a.66.66 0 00.5.4l.6.3v-.1c-.1-.1-.2-.1-.4-.2s-.1-.1 0-.1a.76.76 0 01.5.2 2.09 2.09 0 00-.4-.6.3.3 0 00-.4 0 .1.1 0 01-.1.1.1.1 0 01-.1-.1c0-.1.1-.1.1-.2s-.2-.1-.3-.2a3.11 3.11 0 00-.4-.6.14.14 0 010-.2 3.75 3.75 0 01.8.1h.6a1.36 1.36 0 001.1 1.3 1.6 1.6 0 01.9.7c-1.5 0-1.8.6-1.8 1.1s.5.6.5 1.1-1.3.6-1.7.6a.91.91 0 00-.7.3l-.6.6h.2l.2-.3a.31.31 0 00.1-.2v.2l-.2.3c.8 0 .8-.2.8-.3s-.2-.2-.1-.3.2 0 .3.1.1.2.3.1l1.9-.8c.2-.1.1-.2 0-.3s-.2-.3-.1-.4c0-.5.3-.7.8-.6v.2c0 .8 1.2 1.5 1.5 1.5.1 0 .3-.1.4.4v1a.68.68 0 01-.4.6c-.2.2-.5.7-.6.8.1.1.2.1.3-.2a.52.52 0 01.2-.4 2.54 2.54 0 00-.2.7c.3 0 .8-.2.8-.4s-.2-.2-.2-.3.1-.1.2-.1a.35.35 0 01.2.1.59.59 0 00.2-.5v-.4c.1.1.2.1.3.2a.37.37 0 00.3-.1c.1-.1.2-.2.2-.3v-.1c0-.1 0-.1-.1-.2s-.1-.1-.2-.1a.6.6 0 00-.4.1c-.1.1-.2.2-.2.3a3.28 3.28 0 010-1c.1-.2 0-.3-.1-.4s-.2.1-.3.1c-.3-.1-.4-.4-.5-.7s.4-.8.4-1.2c0-.2.1-.2.1-.1a2.19 2.19 0 00.3.5.62.62 0 00.5.8.66.66 0 00.6-.1c-.3 0-.4-.2-.6-.4h.2a.53.53 0 00.8-.1.37.37 0 00.1-.3.76.76 0 01-.5.2 1.08 1.08 0 00.3-.7c0-1.5-1.8-1.6-1.8-3a.77.77 0 01.7-.8.37.37 0 01.3.1.76.76 0 00-.2.5c0 1.1 1.8 1 1.8 1.5.9-.7-.4-.5-.5-1.4m-4.5-4.1c.1-.2 0-.4.3-.4a.76.76 0 01.4.2 1.85 1.85 0 00-.7.2m-1.6 3.2c0 .1 0 .2-.1.2h-.1c-.1 0-.2-.1-.2-.3 0-.1 0-.2.1-.2h.1a.1.1 0 01.1.1.31.31 0 01.1.2m5.1 7.5a.22.22 0 01.2-.2h.3c.1 0 .1 0 .1.1v.1a.22.22 0 01-.2.2.3.3 0 01-.4 0v-.2m-1.1-4.9c0-.1 0-.1.1-.1h.1c.1 0 .2 0 .2.1a.31.31 0 01.1.2c0 .1 0 .1-.1.1h-.1a.35.35 0 01-.3-.3m-2.9-3.3l.2-.8.3.1c-.1 0-.2.1-.3.2h.2l-.1.3a.35.35 0 00-.2-.1.4.4 0 00.2.4q.3.15.3 0a.22.22 0 00-.2-.2.35.35 0 01.1-.2l.2.2a.55.55 0 01.3-.5.44.44 0 01-.1.5c.1-.1.2-.1.2 0s0 .2-.1.2-.1-.1-.2-.1a.1.1 0 00-.1.1c-.1.1 0 .2.2.3s.3 0 .4-.1h-.2l.2-.3c0 .1 0 .2.1.2v-.3l.4.2c-.1 0-.2.1-.3.2h.2l-.2.3c0-.1 0-.2-.1-.2a.25.25 0 00.1.4c.1.1.3.1.3 0s0-.2-.1-.2h-.1a.22.22 0 01.2-.2c.1 0 .1.1.1.2a.43.43 0 01.4-.4.55.55 0 01-.3.5c.1 0 .2 0 .2.1s0 .2-.1.2a.1.1 0 00-.1-.1h-.1c0 .1 0 .2.2.3a.3.3 0 00.4 0c-.1 0-.1-.1-.2-.1l.2-.2c0 .1 0 .2.1.2v-.3l.2.2-.5.6zm2.4 6.1c-.1.1-.2.2-.4.1a.3.3 0 010-.4c.1-.1.2-.2.4-.1a.3.3 0 010 .4m.7-1.1c-.1.1-.2.2-.4.1a.3.3 0 010-.4c.1-.1.2-.2.4-.1a.3.3 0 010 .4"/>
  <path fill="#1d1d1b" d="M31.1 66.8h47.1v1.4H31.1zM31.1 74.2h47.1v1.4H31.1zM31.1 81.6h47.1V83H31.1zM31.1 88.9h47.1v1.4H31.1zM31.1 126.4h47.1v1.4H31.1zM31.1 133.7H222v1.4H31.1zM31.1 141.1H222v1.4H31.1zM31.1 148.5H222v1.4H31.1zM160.8 66.8H222v1.8h-61.2zM160.8 74.7H222v1.8h-61.2zM160.8 82.5H222v1.8h-61.2zM160.8 90.3H222v1.8h-61.2zM160.8 98.1H222v1.8h-61.2zM31.1 274.2h181.4v1.4H31.1zM31.1 284.3h181.4v1.4H31.1zM31.1 294.3h181.4v1.4H31.1zM31 311.1h81.3v1.4H31zM31.1 327.7h190.4v.2H31.1z" opacity=".6" style="isolation:isolate"/>
  <circle cx="539.5" cy="176.98" r="174.1" fill="#fff" transform="rotate(-45 539.4985104 176.9824001)"/>
  <path d="M539.5 5.4a171.54 171.54 0 01121.3 292.9c-67 67-175.7 67-242.7 0s-67-175.7 0-242.7A170.89 170.89 0 01539.5 5.4m0-5C442 .4 362.9 79.5 362.9 177S442 353.6 539.5 353.6 716.1 274.5 716.1 177 637 .4 539.5.4z"/>
  <path fill="none" d="M539.5.4A176.19 176.19 0 00409.9 57H669A176 176 0 00539.5.4zM409.9 297c66.3 71.5 178 75.8 249.5 9.6q5-4.65 9.6-9.6zM716.1 177c0-5.7-.3-11.3-.8-16.8v33.7c.5-5.6.8-11.2.8-16.9z"/>
  <path fill="#f4f3fa" d="M715.3 193.8v-33.7A176 176 0 00669 57H409.9a176.62 176.62 0 000 240H669a176 176 0 0046.3-103.2z"/>
  <path fill="#fff" d="M383.7 154.7c-1.3 0-2.3 1.4-2.3 3.1V196c0 1.7 1 3.1 2.3 3.1h304.7c1.3 0 2.3-1.4 2.3-3.1v-38.2c0-1.7-1-3.1-2.3-3.1z"/>
  <path fill="#1d1d1b" d="M418.8 183.9h-3v-11.2a8.79 8.79 0 00-1 1l-1.6 1.3-1.5-1.8 4.6-3.7h2.5zM402.9 183.9l-1-3.4h-5.2l-1 3.4h-3.3l5-14.4h3.7l5.1 14.4zm-1.7-6c-1-3.1-1.5-4.8-1.6-5.2s-.2-.7-.3-1c-.2.9-.9 3-1.9 6.3zM453.6 183.9h-10v-2.1l3.6-3.6a16.43 16.43 0 002.1-2.3 4.73 4.73 0 00.7-1.2 4.25 4.25 0 00.2-1.1 1.66 1.66 0 00-.5-1.3 2 2 0 00-1.3-.4 2.93 2.93 0 00-1.6.4 9.06 9.06 0 00-1.6 1.1l-1.7-1.9a8.32 8.32 0 011.8-1.3 9.38 9.38 0 011.5-.6 11 11 0 011.8-.2 5.19 5.19 0 012.4.5 3.81 3.81 0 012.2 3.4 4.33 4.33 0 01-.4 1.9 8.71 8.71 0 01-1.1 1.8 31.89 31.89 0 01-2.6 2.6l-1.8 1.7v.1h6.2zM426.7 169.6h4.5a8.32 8.32 0 014.4.9 3.13 3.13 0 011.4 2.8 3.94 3.94 0 01-.6 2.1 2.75 2.75 0 01-1.6 1v.1a3.09 3.09 0 012 1.1 4.28 4.28 0 01-.8 5.3 6 6 0 01-3.9 1.1h-5.4zm3 5.7h1.8a3 3 0 001.8-.4 1.61 1.61 0 00.6-1.3 1.43 1.43 0 00-.6-1.2 4.06 4.06 0 00-1.9-.4h-1.6v3.3zm0 2.4v3.7h2a3.2 3.2 0 001.9-.5 2 2 0 00.6-1.5c0-1.2-.9-1.8-2.5-1.8zM476.2 171.9a3.35 3.35 0 00-2.7 1.3 5.72 5.72 0 00-.9 3.6q0 4.8 3.6 4.8a9 9 0 003.6-.8v2.5a9 9 0 01-3.9.7 6.12 6.12 0 01-4.8-1.9 7.67 7.67 0 01-1.6-5.4 8.81 8.81 0 01.8-3.9 5.82 5.82 0 012.3-2.6 7.4 7.4 0 013.6-.9 10 10 0 014.2 1l-1 2.5a11.11 11.11 0 00-1.6-.7 7.77 7.77 0 00-1.6-.2zM495.4 172.8a4 4 0 01-.8 2.3 4.1 4.1 0 01-2.3 1.3v.1a4.09 4.09 0 012.6 1.1 3.17 3.17 0 01.9 2.3 3.56 3.56 0 01-1.5 3.2 7.3 7.3 0 01-4.3 1.1 9.68 9.68 0 01-4.1-.8v-2.6a13.36 13.36 0 001.8.7 6.93 6.93 0 002 .3 3.42 3.42 0 002.2-.5 1.73 1.73 0 00.7-1.6 1.49 1.49 0 00-.8-1.4 5.69 5.69 0 00-2.6-.4h-1.1v-2.3h1.1a4.88 4.88 0 002.4-.4 1.76 1.76 0 00.8-1.5c0-1.1-.7-1.6-2-1.6a5.9 5.9 0 00-1.4.2 8 8 0 00-1.6.8L486 171a7.25 7.25 0 014.7-1.4 5.43 5.43 0 013.5.9 2.45 2.45 0 011.2 2.3zM514.2 176.6a7.15 7.15 0 01-2 5.4 8.15 8.15 0 01-5.8 1.9h-4.1v-14.3h4.5a7.21 7.21 0 015.4 1.9 5.89 5.89 0 012 5.1zm-3.1.1c0-3.1-1.4-4.6-4.1-4.6h-1.6v9.3h1.3c2.9 0 4.4-1.5 4.4-4.7zM530.5 181h-1.7v3h-3v-3h-6.1v-2.1l6.3-9.2h2.8v9h1.7zm-4.6-2.4v-4.2a8.87 8.87 0 01.1-1.3h-.1a6.47 6.47 0 01-.9 1.6l-2.6 4zM554.1 183.9h-8.2v-14.3h8.2v2.5h-5.2v3.1h4.8v2.5h-4.8v3.7h5.2zM565.3 174.8a4.51 4.51 0 013.3 1.2 4.14 4.14 0 011.2 3.2 4.63 4.63 0 01-1.5 3.7 6.37 6.37 0 01-4.2 1.3 7.62 7.62 0 01-3.9-.8v-2.6a8.19 8.19 0 003.8.9c1.8 0 2.8-.8 2.8-2.3s-1-2.2-2.9-2.2a3.75 3.75 0 00-1.1.1 3.55 3.55 0 00-1 .2l-1.2-.6.5-7.3h7.8v2.6h-5.1l-.3 2.8.3-.1a7.57 7.57 0 011.5-.1zM579.5 183.9h-3v-14.3h8.2v2.5h-5.2v3.7h4.9v2.5h-4.9zM590.4 177.9q0-4.2 1.8-6.3a6.87 6.87 0 015.4-2.1 12.1 12.1 0 011.9.1v2.4a9.85 9.85 0 00-1.7-.2 5.34 5.34 0 00-2.5.5 3.39 3.39 0 00-1.5 1.4 5.83 5.83 0 00-.6 2.6h.1a3.45 3.45 0 013.1-1.7 3.85 3.85 0 013 1.2 4.43 4.43 0 011.1 3.3 4.5 4.5 0 01-4.9 4.9 5.55 5.55 0 01-2.8-.7 5.2 5.2 0 01-1.8-2.1 9.19 9.19 0 01-.6-3.3zm5.2 3.8a2 2 0 001.5-.6 2.51 2.51 0 00.5-1.9 2.2 2.2 0 00-.5-1.6 2 2 0 00-1.5-.6 2.45 2.45 0 00-1.6.6 2.35 2.35 0 00-.7 1.4 3.61 3.61 0 00.6 2 2.84 2.84 0 001.7.7zM621.6 175.9h5.7v7.4a11 11 0 01-2.6.6 21.05 21.05 0 01-2.5.2 6.55 6.55 0 01-5-1.9 8.21 8.21 0 01-1.7-5.5 7.15 7.15 0 012-5.4 7 7 0 015.5-1.9 9.9 9.9 0 014.2.9l-1 2.4a7.31 7.31 0 00-3.3-.8 3.89 3.89 0 00-3.2 1.3 6.45 6.45 0 00-.2 7.2 3.33 3.33 0 002.8 1.2 12.25 12.25 0 001.9-.2v-3h-2.7zM635.1 183.9l5.4-11.8h-7.1v-2.6h10.3v1.9l-5.4 12.4zM661.8 183.9h-3v-6.2h-5.7v6.2h-3v-14.3h3v5.6h5.7v-5.6h3zM678.4 175.7q0 4.2-1.8 6.3a6.87 6.87 0 01-5.4 2.1 12.1 12.1 0 01-1.9-.1v-2.4a9.85 9.85 0 001.7.2 6.9 6.9 0 002.5-.4 3.39 3.39 0 001.5-1.4 5.83 5.83 0 00.6-2.6h-.1a3.32 3.32 0 01-3.2 1.7 3.85 3.85 0 01-3-1.2 4.43 4.43 0 01-1.1-3.3 4.88 4.88 0 011.3-3.6 4.6 4.6 0 013.6-1.3 5.55 5.55 0 012.8.7 4.89 4.89 0 011.8 2.2 6.17 6.17 0 01.7 3.1zm-5.2-3.8a2 2 0 00-1.5.6 2.51 2.51 0 00-.5 1.9 2.2 2.2 0 00.5 1.6 2 2 0 001.5.6 2.27 2.27 0 001.6-.6 2.1 2.1 0 00.7-1.4 3.61 3.61 0 00-.6-2 2.84 2.84 0 00-1.7-.7z"/>
  <path fill="none" stroke="#1d1d1b" stroke-width="3" d="M383.7 154.7c-1.3 0-2.3 1.4-2.3 3.1V196c0 1.7 1 3.1 2.3 3.1h304.7c1.3 0 2.3-1.4 2.3-3.1v-38.2c0-1.7-1-3.1-2.3-3.1z"/>
  <path d="M539.5 5.4a171.54 171.54 0 01121.3 292.9c-67 67-175.7 67-242.7 0s-67-175.7 0-242.7A170.89 170.89 0 01539.5 5.4m0-5C442 .4 362.9 79.5 362.9 177S442 353.6 539.5 353.6 716.1 274.5 716.1 177 637 .4 539.5.4z"/>
  <path fill="#a8bd3a" d="M31.1 339.84a6.1 6.1 0 01.29-.57 4.8 4.8 0 01-.29-.83v1.4m.63-3.94s-.63 0-.63.78v.12a7.92 7.92 0 00.53 2.09 5.43 5.43 0 011.19-1.34 7.4 7.4 0 014.08-1.65z"/>
  <path fill="#003c57" d="M37.8 336.33a7.94 7.94 0 00-4.63 1.7 5.24 5.24 0 00-1.26 1.51 5.85 5.85 0 005.09 3.09.78.78 0 00.8-.86v-5.45m-5.47 4.51a4.88 4.88 0 01-.64-.92 10 10 0 00-.59 1.39v1.32H35a5.21 5.21 0 01-2.69-1.78M40.79 341.63a2.14 2.14 0 01-1-.21l.14-.35a1.85 1.85 0 00.8.19.85.85 0 00.94-.8c0-1-1.79-.59-1.79-1.87a1.17 1.17 0 011.26-1.14 2 2 0 01.92.22l-.14.32a1.52 1.52 0 00-.72-.19.75.75 0 00-.83.75c0 1 1.81.54 1.81 1.88a1.24 1.24 0 01-1.39 1.2zM45.91 341.56h-.42l-.71-2.32a3 3 0 01-.09-.38 2.87 2.87 0 01-.08.38l-.74 2.32h-.42l-1-3.15H43l.65 2.31c0 .13.06.27.08.4a2.83 2.83 0 01.08-.4l.72-2.31h.43l.69 2.31a2.88 2.88 0 01.09.4 2.83 2.83 0 01.08-.4l.66-2.31h.43zM48.3 342.81h-.51l.56-1.25-1.16-3.15h.51l.76 2.32a3.2 3.2 0 01.1.42 3.7 3.7 0 01.11-.42l.78-2.32h.43zM51.72 341.63a1.4 1.4 0 01-1.5-1.59 1.5 1.5 0 011.5-1.69 2.87 2.87 0 01.58.07V337h.46v4.45a2.18 2.18 0 01-1.04.18zm.58-2.95a2 2 0 00-.49-.05c-.82 0-1.12.68-1.12 1.37s.31 1.33 1.06 1.33a1.24 1.24 0 00.56-.13zM54.86 341.63a1.4 1.4 0 01-1.49-1.63 1.49 1.49 0 011.49-1.69 2.88 2.88 0 01.59.07V337h.46v4.45a2.25 2.25 0 01-1.05.18zm.59-2.95a2 2 0 00-.49-.05c-.82 0-1.12.68-1.12 1.37s.3 1.33 1 1.33a1.18 1.18 0 00.56-.13zM57.38 338.69v2.86h-.46v-2.86h-.46v-.28h.46V338a.92.92 0 011-1H58v.29a.58.58 0 00-.6.64v.51h.6v.28zM59.56 341.63c-.88 0-1.27-.37-1.27-.93 0-.85.88-1.09 2-1.19v-.2c0-.51-.35-.66-.81-.66a1.92 1.92 0 00-.82.18l-.12-.28a2.4 2.4 0 011-.22c.64 0 1.16.26 1.16 1v2.07a2.5 2.5 0 01-1.14.23zm.68-1.88c-.91.11-1.51.26-1.51.94 0 .47.35.67.87.67a1.55 1.55 0 00.64-.12zM64.5 339.81v1.75h-.71v-1.75l-1.23-2.27h.75l.85 1.71.88-1.71h.68zM66.87 341.64a1.86 1.86 0 01-1-.23l.18-.43a1.25 1.25 0 00.68.19.57.57 0 00.63-.5c0-.75-1.39-.4-1.39-1.43a1 1 0 011.11-.92 1.65 1.65 0 01.89.23l-.18.39a1.06 1.06 0 00-.58-.17c-.35 0-.56.21-.56.45 0 .7 1.4.39 1.4 1.44a1.1 1.1 0 01-1.18.98zM69.82 341.63a.82.82 0 01-.92-.85v-2h-.44v-.41h.44v-.71l.67-.18v.89h.62v.41h-.62v1.92a.41.41 0 00.38.44H70a.57.57 0 00.18 0v.42a1 1 0 01-.36.07zM71.91 341.64c-.92 0-1.36-.37-1.36-1 0-.85.89-1.07 2-1.17v-.18c0-.43-.3-.56-.73-.56a2.14 2.14 0 00-.86.18l-.15-.38a2.93 2.93 0 011.13-.23c.7 0 1.24.28 1.24 1.09v2a2.68 2.68 0 01-1.27.25zm.59-1.82c-.78.08-1.31.23-1.31.83 0 .43.3.61.78.61a1.39 1.39 0 00.53-.1zM75.26 341.64a1.44 1.44 0 01-1.57-1.64 1.51 1.51 0 011.49-1.68 2.6 2.6 0 01.56.06V337h.67v4.44a2.4 2.4 0 01-1.15.2zm.48-2.87a1.75 1.75 0 00-.4 0c-.69 0-1 .58-1 1.26s.27 1.22.91 1.22a1.09 1.09 0 00.46-.1zM77.62 340.23a.93.93 0 001 .94 2.25 2.25 0 00.89-.18l.16.42a2.51 2.51 0 01-1.11.23A1.48 1.48 0 0177 340a1.45 1.45 0 011.45-1.65c.87 0 1.36.55 1.36 1.61zm.77-1.5c-.46 0-.83.37-.81 1.15l1.55-.21c0-.65-.3-.93-.74-.93zM81.54 342.9a3 3 0 01-1.18-.22l.18-.44a2.34 2.34 0 00.9.19c.59 0 .85-.31.85-.75v-.2a1.67 1.67 0 01-.7.12 1.38 1.38 0 01-1.37-1.55 1.55 1.55 0 011.64-1.73 2.4 2.4 0 011.09.23v3.07a1.25 1.25 0 01-1.41 1.28zm.75-4.08a1.1 1.1 0 00-.47-.1c-.61 0-.91.5-.91 1.3s.3 1.2.88 1.2a1.07 1.07 0 00.5-.1zM84.85 341.64c-.93 0-1.36-.37-1.36-1 0-.85.88-1.07 1.94-1.17v-.18c0-.43-.3-.56-.73-.56a2.09 2.09 0 00-.85.18l-.15-.38a2.93 2.93 0 011.13-.23c.7 0 1.24.28 1.24 1.09v2a2.71 2.71 0 01-1.22.25zm.58-1.82c-.78.08-1.3.23-1.3.83 0 .43.3.61.77.61a1.39 1.39 0 00.53-.1zM88 341.64c-.9 0-1.29-.41-1.29-1.09v-2.14h.67v2.18a.57.57 0 00.65.59 1.24 1.24 0 00.57-.11v-2.66h.68v3a3 3 0 01-1.28.23zM93.4 341.64a1.88 1.88 0 01-1.94-2.12 1.91 1.91 0 012-2.07 2.28 2.28 0 011.1.23l-.18.43a1.93 1.93 0 00-.82-.15c-.77 0-1.34.48-1.34 1.59s.53 1.6 1.19 1.6a1.3 1.3 0 00.55-.09v-1.37h-.7v-.42h1.38v2.14a2.61 2.61 0 01-1.24.23zM98.75 341.56h-.62l-.62-2.06a1.86 1.86 0 01-.08-.41c0 .14 0 .28-.08.41l-.64 2.06h-.63l-1-3.15h.7l.56 2.1a3.21 3.21 0 01.07.43 3.29 3.29 0 01.09-.43l.63-2.1h.59l.61 2.1a3.29 3.29 0 01.09.43 3.21 3.21 0 01.07-.43l.57-2.1h.63zM100.21 341.56V337h.67v4.59zM102.8 341.64c-.92 0-1.36-.37-1.36-1 0-.85.89-1.07 1.94-1.17v-.18c0-.43-.29-.56-.72-.56a2.11 2.11 0 00-.86.18l-.16-.38a3 3 0 011.14-.23c.7 0 1.23.28 1.23 1.09v2a2.64 2.64 0 01-1.21.25zm.59-1.82c-.78.08-1.3.23-1.3.83 0 .43.3.61.77.61a1.39 1.39 0 00.53-.1zM106.15 341.64a1.45 1.45 0 01-1.58-1.61 1.51 1.51 0 011.5-1.68 2.67 2.67 0 01.56.06V337h.67v4.44a2.42 2.42 0 01-1.15.2zm.48-2.87a1.81 1.81 0 00-.4 0c-.7 0-1 .58-1 1.25s.27 1.23.91 1.23a1 1 0 00.46-.1zM109.3 341.64c-1 0-1.44-.71-1.44-1.65s.48-1.66 1.44-1.66 1.44.72 1.44 1.66-.48 1.65-1.44 1.65zm0-2.88c-.58 0-.75.61-.75 1.22s.19 1.2.75 1.2.75-.58.75-1.2-.17-1.22-.75-1.22zM111.32 341.56V337h.68v4.59z"/>
  <path fill="#902082" d="M78.49 30.41A2.17 2.17 0 0182 28.74v3.33a2.16 2.16 0 01-3.5-1.66m4.41-7.24a.89.89 0 00-.91.88v2.69a4 4 0 00-1.34-.23 3.91 3.91 0 100 7.82 4 4 0 002.89-1.25.86.86 0 00.24-.57v-8.45a.87.87 0 00-.88-.89M35.06 28.24a2.16 2.16 0 011.58.68.9.9 0 001.27 0 .88.88 0 000-1.25 4 4 0 00-2.89-1.25A3.91 3.91 0 1038 33a.88.88 0 000-1.25.91.91 0 00-1.27 0 2.15 2.15 0 11-1.58-3.59M57.91 26.48a.9.9 0 00-.91.89v6a.91.91 0 001.81 0v-6a.89.89 0 00-.9-.89M50.35 27.13h-.66v-.25a2.15 2.15 0 011.53-2 .88.88 0 00.6-1.1.9.9 0 00-1.11-.6 4 4 0 00-2.85 3.75v6.45a.9.9 0 001.8 0v-4.46h.67a.89.89 0 00.9-.89.91.91 0 00-.91-.9M70 30.36a2.16 2.16 0 013.66-1.52v3.06A2.16 2.16 0 0170 30.36m4.57-3.87a.89.89 0 00-.72.35 3.92 3.92 0 10-1.69 7.43 3.85 3.85 0 001.68-.37.92.92 0 00.73.37.89.89 0 00.9-.89v-6a.89.89 0 00-.9-.88M57.92 23.7a.9.9 0 10.9.89.89.89 0 00-.9-.89M66.28 26.48a.89.89 0 00-.9.89v6a.91.91 0 001.81 0v-6a.91.91 0 00-.91-.89M66.29 23.7a.9.9 0 10.9.9.9.9 0 00-.9-.9M54.74 26.62a3.93 3.93 0 00-2.84 3.75v3a.9.9 0 001.8 0v-3a2.15 2.15 0 011.54-2 .87.87 0 00.6-1.1.92.92 0 00-1.12-.6M46.45 27.38a.91.91 0 00-1.81 0v3a1.87 1.87 0 11-3.71 0v-3a.9.9 0 00-1.8 0v3a3.68 3.68 0 003.65 3.91 3.56 3.56 0 001.86-.5v.05a2.14 2.14 0 01-1.54 2c-.48.14-.3.64-.16 1.11a.9.9 0 001.12.59c1.64-.47 2.4-2 2.4-3.75v-6.41zM63.3 23.14a3.91 3.91 0 00-2.84 3.75v6.45a.9.9 0 001.8 0v-4.42h.67a.89.89 0 100-1.77h-.67v-.25a2.15 2.15 0 011.54-2 .88.88 0 00.61-1.1.91.91 0 00-1.13-.6"/>
  <path fill="#902082" d="M31.71 45.69v-.29c0-1.55 1.2-2.24 2.34-2.79s1.88-.87 1.88-1.68-.58-1.25-1.54-1.25a1.78 1.78 0 00-1.84 1.45s-.79 0-.79-.58a1.69 1.69 0 01.68-1.24 3.19 3.19 0 012-.65c1.64 0 2.63.85 2.63 2.25S36 42.8 34.89 43.32s-1.81.87-2 1.66a2 2 0 000 .34h3.82c.4 0 .58.16.58.47v.07c0 .31-.17.49-.58.49h-4.2c-.58-.01-.8-.18-.8-.66zM38.07 43v-.8c0-2.18 1.2-3.54 3.13-3.54s3.15 1.35 3.15 3.53V43c0 2.17-1.2 3.55-3.15 3.55s-3.13-1.4-3.13-3.55zm5.08 0v-.84c0-1.59-.73-2.52-1.95-2.52s-1.93.91-1.93 2.49V43c0 1.59.71 2.49 1.93 2.49s1.95-.9 1.95-2.49zm2.2 2.69v-.29c0-1.55 1.2-2.24 2.33-2.79s1.88-.87 1.88-1.68S49 39.68 48 39.68a1.79 1.79 0 00-1.84 1.45s-.79 0-.79-.58a1.67 1.67 0 01.69-1.24 3.17 3.17 0 012-.65c1.64 0 2.63.85 2.63 2.25s-1.08 1.89-2.22 2.41-1.8.87-2 1.66a1.33 1.33 0 00-.05.34h3.88c.39 0 .57.16.57.47v.07c0 .31-.17.49-.57.49h-4.2c-.53 0-.75-.17-.75-.66zm7 .2v-.06c0-.34.19-.49.55-.49h1.26V40c-.46.36-.64.58-.87.75a.92.92 0 01-.62.25.65.65 0 01-.62-.73l2.26-1.47h.41a.48.48 0 01.53.54v6h1c.36 0 .55.14.55.49v.06c0 .33-.19.46-.55.46H53c-.41 0-.6-.13-.6-.46z" opacity=".7" style="isolation:isolate"/>
</svg>
