<svg xmlns="http://www.w3.org/2000/svg" viewBox="0 0 716.07 353.98">
  <defs>
    <clipPath id="a">
      <path fill="none" d="M206.09 195.36h14.86v12.19h-14.86z"/>
    </clipPath>
    <clipPath id="b">
      <path fill="none" d="M206.2 226.26h15.26v11.99H206.2z"/>
    </clipPath>
    <clipPath id="d">
      <path fill="none" d="M31.59 337.26h55.13v4.82H31.59z"/>
    </clipPath>
    <linearGradient id="c" x1="102.19" x2="476.71" y1="182.11" y2="182.11" gradientUnits="userSpaceOnUse">
      <stop offset="0" stop-color="#fff" stop-opacity="0"/>
      <stop offset="1" stop-opacity=".37"/>
    </linearGradient>
  </defs>
  <path fill="#fff" d="M1 1h250.3v351.98H1z"/>
  <path fill="#979797" d="M250.3 2v350H2V2h248.3m2-2H0v354h252.3V0z"/>
  <path fill="#f4f3fa" d="M2.03 161.67H250.3v88.38H2.03z"/>
  <rect width="117.42" height="12.55" x="47.02" y="210.56" fill="#fff" rx=".88"/>
  <path fill="#1d1d1b" d="M61 219.2h-1v-3.7l-.35.33-.55.44-.48-.6 1.53-1.22H61zM66.91 219.2l-.34-1.13h-1.73l-.35 1.13h-1.08l1.67-4.77h1.23L68 219.2zm-.58-2l-.54-1.73-.09-.32c-.07.27-.27 1-.61 2.05zM72.91 219.2h-3.32v-.7l1.19-1.21q.52-.54.69-.75a1.36 1.36 0 00.23-.39.9.9 0 00.07-.37.54.54 0 00-.15-.42.64.64 0 00-.42-.14 1.13 1.13 0 00-.54.13 2.53 2.53 0 00-.54.36l-.55-.65a3.77 3.77 0 01.58-.42 2.23 2.23 0 01.51-.19 2.27 2.27 0 01.61-.07 1.9 1.9 0 01.78.16 1.2 1.2 0 01.53.46 1.17 1.17 0 01.19.67 1.74 1.74 0 01-.11.61 2.53 2.53 0 01-.36.59 9.22 9.22 0 01-.85.86l-.61.58h2.07zM75 214.45h1.48a2.83 2.83 0 011.46.29 1 1 0 01.46.91 1.18 1.18 0 01-.2.7.81.81 0 01-.53.33 1 1 0 01.65.38 1.24 1.24 0 01.2.73 1.21 1.21 0 01-.47 1 2 2 0 01-1.28.37H75zm1 1.88h.59a1 1 0 00.59-.13.47.47 0 00.19-.42.43.43 0 00-.2-.39 1.32 1.32 0 00-.64-.12H76zm0 .8v1.24h.66a1 1 0 00.61-.16.58.58 0 00.2-.49c0-.39-.28-.59-.84-.59zM85.9 215.22a1 1 0 00-.88.43 2 2 0 00-.31 1.19c0 1.06.39 1.58 1.19 1.58a3.67 3.67 0 001.21-.25v.83a3.4 3.4 0 01-1.31.24 2 2 0 01-1.58-.63 2.64 2.64 0 01-.55-1.8 3 3 0 01.27-1.3 2 2 0 01.77-.85 2.31 2.31 0 011.19-.3 3.13 3.13 0 011.39.34l-.33.81-.53-.22a1.69 1.69 0 00-.53-.07zM92.25 215.51a1.12 1.12 0 01-.27.76 1.43 1.43 0 01-.76.43 1.45 1.45 0 01.87.35 1 1 0 01.3.74 1.27 1.27 0 01-.5 1.07 2.26 2.26 0 01-1.42.38 3.45 3.45 0 01-1.37-.24v-.86a3.36 3.36 0 00.61.23 2.48 2.48 0 00.65.09 1.33 1.33 0 00.74-.17.64.64 0 00.23-.54.49.49 0 00-.27-.48 2.05 2.05 0 00-.87-.14h-.36v-.77h.37a1.76 1.76 0 00.8-.14.53.53 0 00.26-.5c0-.36-.23-.54-.68-.54a1.6 1.6 0 00-.47.08 2.26 2.26 0 00-.54.27l-.46-.69a2.59 2.59 0 011.55-.47 2 2 0 011.16.3 1 1 0 01.43.84zM98.5 216.78a2.33 2.33 0 01-.66 1.79 2.72 2.72 0 01-1.93.63h-1.35v-4.75h1.49a2.51 2.51 0 011.81.61 2.26 2.26 0 01.64 1.72zm-1 0q0-1.53-1.35-1.53h-.54v3.1H96c1 .02 1.46-.5 1.46-1.55zM103.91 218.21h-.58v1h-1v-1h-2v-.69l2.08-3.07h.92v3h.58zm-1.56-.78v-.8-.59a4 4 0 010-.44 3.81 3.81 0 01-.29.52l-.87 1.31zM111.72 219.2H109v-4.75h2.74v.82H110v1h1.61v.82H110v1.23h1.73zM115.43 216.16a1.5 1.5 0 011.09.39 1.36 1.36 0 01.41 1.06 1.51 1.51 0 01-.49 1.22 2 2 0 01-1.4.43 2.75 2.75 0 01-1.28-.25v-.87a2.79 2.79 0 00.6.22 2.47 2.47 0 00.64.09c.61 0 .92-.25.92-.76s-.32-.71-1-.71h-.38l-.34.07-.4-.21.18-2.42h2.58v.85h-1.7l-.09.93h.12a2.17 2.17 0 01.54-.04zM120.14 219.2h-1v-4.75h2.72v.82h-1.73v1.23h1.61v.82h-1.61zM123.76 217.18a3.13 3.13 0 01.6-2.1 2.23 2.23 0 011.78-.69 3.44 3.44 0 01.64.05v.8a2.76 2.76 0 00-.57-.06 1.9 1.9 0 00-.85.16 1 1 0 00-.48.46 2.05 2.05 0 00-.2.86 1.1 1.1 0 011-.55 1.29 1.29 0 011 .4 1.61 1.61 0 01.36 1.11 1.65 1.65 0 01-.43 1.2 1.58 1.58 0 01-1.18.44 1.73 1.73 0 01-.92-.24 1.64 1.64 0 01-.61-.71 2.75 2.75 0 01-.14-1.13zm1.72 1.28a.57.57 0 00.49-.22.91.91 0 00.17-.61.84.84 0 00-.16-.55.6.6 0 00-.48-.2.78.78 0 00-.53.2.62.62 0 00-.21.46 1 1 0 00.2.65.63.63 0 00.52.27zM134.1 216.53h1.9V219a5.11 5.11 0 01-.86.21 5.59 5.59 0 01-.83.06 2.1 2.1 0 01-1.64-.63 2.65 2.65 0 01-.56-1.81 2.44 2.44 0 01.65-1.8 2.55 2.55 0 011.83-.64 3.67 3.67 0 011.41.29l-.34.81a2.39 2.39 0 00-1.08-.26 1.3 1.3 0 00-1 .44 1.66 1.66 0 00-.4 1.18 1.91 1.91 0 00.32 1.18 1.1 1.1 0 00.92.4 3.55 3.55 0 00.64-.06v-1h-.9zM138.58 219.2l1.78-3.9H138v-.84h3.4v.63l-1.79 4.11zM147.45 219.2h-1v-2h-1.88v2h-1v-4.75h1v1.86h1.88v-1.86h1zM152.94 216.48a3.18 3.18 0 01-.59 2.09 2.24 2.24 0 01-1.79.69 3.46 3.46 0 01-.64 0v-.81a2.12 2.12 0 00.57.07 2 2 0 00.83-.15 1 1 0 00.49-.46 1.86 1.86 0 00.2-.87 1.07 1.07 0 01-.43.42 1.29 1.29 0 01-.62.13 1.25 1.25 0 01-1-.4 1.91 1.91 0 01.08-2.31 1.56 1.56 0 011.18-.45 1.73 1.73 0 01.92.25 1.55 1.55 0 01.61.72 2.7 2.7 0 01.19 1.08zm-1.72-1.28a.61.61 0 00-.49.21 1 1 0 00-.17.62.86.86 0 00.16.55.57.57 0 00.48.2.75.75 0 00.52-.2.61.61 0 00.22-.46 1 1 0 00-.2-.65.63.63 0 00-.52-.27z"/>
  <rect width="117.42" height="12.55" x="47.02" y="210.56" fill="none" stroke="#1d1d1b" rx=".88"/>
  <path fill="none" stroke="#3c388d" stroke-width=".5" d="M35.78 183.77v43.37"/>
  <path fill="#00a4ac" d="M35.78 189.66a5.9 5.9 0 10-5.89-5.89 5.89 5.89 0 005.89 5.89"/>
  <path fill="#3c388d" d="M35.78 206.42a5.9 5.9 0 10-5.89-5.9 5.89 5.89 0 005.89 5.9M35.78 237.16a5.9 5.9 0 10-5.89-5.89 5.89 5.89 0 005.89 5.89"/>
  <g clip-path="url(#a)">
    <path fill="#3c388d" d="M219.36 195.36H207.7a.53.53 0 00-.53.53v8a.53.53 0 00.53.53h11.66a.53.53 0 00.53-.53v-8a.53.53 0 00-.53-.53M206.11 204.63a1.34 1.34 0 001.33 1.33h12.18a1.33 1.33 0 001.33-1.33z"/>
    <path fill="#fff" d="M207.97 196.16h11.13v7.42h-11.13z"/>
    <path fill="#3c388d" d="M215.25 207.54h-5a.39.39 0 01-.39-.4v-6.62a.39.39 0 01.39-.4h5a.4.4 0 01.4.4v6.62a.4.4 0 01-.4.4"/>
    <path fill="#fff" d="M210.35 200.67h4.77v5.83h-4.77z"/>
    <path fill="#3c388d" d="M208.87 207.55h-2.38a.4.4 0 01-.4-.4v-4.5a.4.4 0 01.4-.4h2.38a.4.4 0 01.4.4v4.5a.4.4 0 01-.4.4"/>
    <path fill="#fff" d="M206.62 202.79h2.12v3.71h-2.12z"/>
  </g>
  <path fill="#fff" d="M207.03 229.21h13.38v8.22h-13.38z"/>
  <path fill="#0a8243" d="M207.71 231.24h12.02v3.97h-12.02z"/>
  <g clip-path="url(#b)">
    <path fill="#3c388d" d="M219.83 226.26h-12.21a1.42 1.42 0 00-1.42 1.41v9.16a1.42 1.42 0 001.42 1.41h12.21a1.41 1.41 0 001.41-1.41v-9.16a1.41 1.41 0 00-1.41-1.41m.58 10.82a.34.34 0 01-.34.34h-12.7a.34.34 0 01-.34-.34v-7.82h13.38z"/>
  </g>
  <path fill="#8f1f81" d="M2.03 161.71H6.7v88.38H2.03z"/>
  <text fill="#1d1d1b" font-family="OpenSans,Open Sans" font-size="4.9885139" transform="translate(38.09 245.17)">
    <tspan></tspan>
  </text>
  <text fill="#1d1d1b" font-family="OpenSans,Open Sans" font-size="4.9885139" transform="translate(40.69 245.17)">
    
  </text>
  <path fill="#00a4ac" d="M211.87 188.32a1.13 1.13 0 01-.8-.33l-2.5-2.5a1.12 1.12 0 010-1.59 1.11 1.11 0 011.58 0l1.72 1.71 6.24-6.23a1.11 1.11 0 011.58 0 1.12 1.12 0 010 1.59l-7 7a1.12 1.12 0 01-.79.33"/>
  <path fill="#1d1d1b" d="M47.3 182.55h129.83v2.28H47.3zM47.3 199.24h105.28v2.28H47.3zM47.3 230.13h117.45v2.28H47.3z" opacity=".6"/>
  <path fill="#3c388d" d="M30.98 168.2h107.51v3.19H30.98zM30.98 259.73h70.83v3.19H30.98z"/>
  <path fill="url(#c)" d="M450.26 24.55L96.11 215.27l374.52 124.4-20.37-315.12z"/>
  <path fill="#8f1f81" d="M42.79 33.38a3.91 3.91 0 113.9-3.9.88.88 0 01-.88.88h-5a2.13 2.13 0 001.94 1.25.89.89 0 110 1.77m-1.94-4.79h3.88a2.13 2.13 0 00-3.88 0M54.46 33.33a.89.89 0 01-.89-.89v-3a2.13 2.13 0 00-4.26 0v3a.89.89 0 01-1.78 0v-3a3.91 3.91 0 017.82 0v3a.89.89 0 01-.89.89M67.3 33.33a3.92 3.92 0 01-3.91-3.91v-3a.89.89 0 111.78 0v3a2.13 2.13 0 104.26 0v-3a.89.89 0 011.78 0v3a3.92 3.92 0 01-3.91 3.91M60 28.75c-1.26-.26-1.76-.37-1.76-.83s.64-.7 1.35-.7a2.94 2.94 0 011 .2 1.17 1.17 0 00.37.08.83.83 0 00.83-.83.85.85 0 00-.58-.81 4.86 4.86 0 00-1.64-.29c-2 0-3.2 1.16-3.2 2.32 0 1.41 1.28 2 2.76 2.35 1.13.24 1.47.33 1.47.82s-.64.67-1.41.67a3.58 3.58 0 01-1.67-.51.93.93 0 00-.33-.07.84.84 0 00-.37 1.59 4.79 4.79 0 002.43.64c1.9 0 3.25-1 3.25-2.29 0-1.54-1-2-2.52-2.34M75.73 28.75c-1.26-.26-1.76-.37-1.76-.83s.64-.7 1.35-.7a2.94 2.94 0 011 .2 1 1 0 00.37.08.83.83 0 00.83-.83.86.86 0 00-.58-.81 4.86 4.86 0 00-1.64-.29c-2 0-3.2 1.16-3.2 2.32 0 1.41 1.29 2 2.76 2.35 1.13.24 1.47.33 1.47.82s-.64.67-1.41.67a3.62 3.62 0 01-1.68-.52.87.87 0 00-.32-.06.84.84 0 00-.84.84.85.85 0 00.47.75 4.79 4.79 0 002.43.64c1.9 0 3.25-1 3.25-2.29 0-1.54-1-2-2.52-2.34M35 33.38a3.91 3.91 0 112.86-6.57.9.9 0 01-.05 1.26.89.89 0 01-1.23-.07 2.1 2.1 0 00-1.58-.66 2.14 2.14 0 000 4.27 2.11 2.11 0 001.56-.69.89.89 0 011.3 1.21A3.9 3.9 0 0135 33.38"/>
  <path fill="#ad65a5" d="M47.94 36.26a3.19 3.19 0 00-2 .64 1.67 1.67 0 00-.68 1.23c0 .49.5.58.7.58H46a1.76 1.76 0 011.82-1.43c1 0 1.52.46 1.52 1.24s-.88 1.17-1.86 1.65-2.3 1.24-2.3 2.77v.29c0 .47.22.64.74.64h4.18c.4 0 .57-.17.57-.48v-.07c0-.3-.17-.46-.57-.46h-3.77a1.66 1.66 0 010-.33c.2-.8 1-1.21 2-1.65s2.19-1 2.19-2.39-1-2.22-2.6-2.22M41.12 43c-1.2 0-1.9-.9-1.9-2.46v-.84c0-1.56.69-2.46 1.9-2.46s1.88.92 1.88 2.49v.83c0 1.56-.69 2.45-1.92 2.45m13.41-6.66h-.4l-2.19 1.46c0 .4.22.73.61.73a1 1 0 00.61-.25c.22-.18.41-.38.86-.74v5.31h-1.25c-.36 0-.54.15-.54.48v.06c0 .32.18.46.54.46h3.32c.36 0 .54-.14.54-.46v-.06c0-.33-.18-.48-.54-.48h-1v-6a.49.49 0 00-.53-.54m-20.07-.09a3.19 3.19 0 00-2 .64 1.69 1.69 0 00-.67 1.23c0 .49.49.58.69.58h.09a1.76 1.76 0 011.82-1.43c1 0 1.52.46 1.52 1.24s-.9 1.19-1.9 1.67-2.3 1.24-2.3 2.77v.29c0 .47.22.64.74.64h4.15c.39 0 .56-.17.56-.48v-.07c0-.3-.17-.46-.56-.46h-3.74a1.66 1.66 0 010-.33c.2-.8 1-1.21 2-1.65 1.13-.52 2.19-1 2.19-2.39s-1-2.22-2.6-2.22m6.66 0c-1.91 0-3.1 1.35-3.1 3.5v.76c0 2.16 1.16 3.49 3.1 3.49s3.11-1.36 3.11-3.51v-.75c0-2.15-1.18-3.49-3.11-3.49"/>
  <path fill="#2d2d2b" d="M208.51 27.7c-.11.21-.21.34-.19.5s.18.28.26.44c.08-.19.2-.33.19-.48s-.22-.35-.26-.46M211.35 27.7a1 1 0 01.19.5c0 .16-.19.28-.27.44-.07-.19-.19-.33-.18-.48s.22-.35.26-.46M206.88 27.58a.2.2 0 00.19-.19.19.19 0 00-.19-.19.19.19 0 00-.2.19.2.2 0 00.2.19M207 27.85a.19.19 0 10-.38 0 .19.19 0 00.38 0M207.1 28.32a.19.19 0 00-.2-.19.19.19 0 00-.19.19.2.2 0 00.19.19.2.2 0 00.2-.19M207.94 26.66a.19.19 0 00.19-.19.2.2 0 00-.19-.19.2.2 0 00-.2.19.19.19 0 00.2.19M207.46 26.81a.19.19 0 10-.19-.19.18.18 0 00.19.19M207.09 27.14a.2.2 0 00.19-.19.19.19 0 00-.19-.19.19.19 0 00-.2.19.2.2 0 00.2.19M208.44 26.71a.2.2 0 00.19-.19.19.19 0 00-.19-.19.18.18 0 00-.19.19.19.19 0 00.19.19M208.91 26.85a.19.19 0 00.19-.19.19.19 0 00-.19-.2.2.2 0 00-.19.2.2.2 0 00.19.19M209.36 27.06a.19.19 0 00.19-.19.19.19 0 10-.38 0 .19.19 0 00.19.19M212.78 27.39a.2.2 0 00.2.19.2.2 0 00.19-.19.2.2 0 10-.39 0M213 27.66a.19.19 0 00-.19.19.19.19 0 00.38 0 .19.19 0 00-.19-.19M213 28.13a.19.19 0 00-.2.19.2.2 0 00.2.19.2.2 0 00.19-.19.19.19 0 00-.19-.19M211.91 26.66a.19.19 0 00.2-.19.2.2 0 00-.2-.19.2.2 0 00-.19.19.19.19 0 00.19.19M212.39 26.81a.19.19 0 000-.38.19.19 0 000 .38M212.77 27.14A.2.2 0 00213 27a.19.19 0 00-.19-.19.19.19 0 00-.2.19.2.2 0 00.2.19M211.41 26.71a.19.19 0 00.19-.19.18.18 0 00-.19-.19.19.19 0 00-.19.19.2.2 0 00.19.19M210.94 26.85a.2.2 0 00.19-.19.2.2 0 00-.19-.2.19.19 0 00-.19.2.19.19 0 00.19.19M210.3 26.87a.19.19 0 10.38 0 .19.19 0 10-.38 0M209.6 27.9h.21v-.82a.73.73 0 01-.21-.06zM210.25 27a.73.73 0 01-.21.06v.82h.21zM209.8 26.11v-.49a.61.61 0 00-.47.49zM210.05 26.11h.47a.61.61 0 00-.47-.49zM209.34 26.34a.6.6 0 001.17 0zM210.26 25.54a.65.65 0 01-.27-.42.75.75 0 01.44.28v-.66a.73.73 0 01-.43.26 1 1 0 01.26-.47h-.64a1 1 0 01.25.47.73.73 0 01-.44-.27v.66a.75.75 0 01.44-.28.65.65 0 01-.27.42zM211 38.72a12.64 12.64 0 01-2-.71.51.51 0 00-.14-.41.49.49 0 00-.38-.18.57.57 0 00-.18 0 3.7 3.7 0 01-.28-.28 3.5 3.5 0 01-.59-1 3.88 3.88 0 01-.18-.69.61.61 0 01-.63.46v-.15a.47.47 0 01-.59.11 5.45 5.45 0 00.22.79 4.83 4.83 0 00.87 1.45 3.59 3.59 0 00.39.39.19.19 0 000 .08.63.63 0 00.33.46.46.46 0 00.5-.06 5.43 5.43 0 001.07.42 5.06 5.06 0 001.23.19 2.17 2.17 0 001.06-.38 2.91 2.91 0 00.41-.3 3.54 3.54 0 01-1.12-.14m-2.21-.91h-.06a.22.22 0 00-.32 0 1 1 0 00-.14.15l-.07.07h.05c.12.1.14.21.1.27a.1.1 0 01-.06.05.4.4 0 01-.24-.06v.05a.49.49 0 00-.08.22.2.2 0 00.12.12l.19.12a.35.35 0 01-.33 0 .52.52 0 01-.27-.36 1 1 0 01.18-.51 1.3 1.3 0 01-.08-.17h.19a.92.92 0 01.56-.33.41.41 0 01.3.14.48.48 0 01.11.24l-.11-.09m.39 1.15a.26.26 0 11.26-.25.26.26 0 01-.26.25m1.13.35a.23.23 0 01-.23-.23.23.23 0 01.23-.24.24.24 0 01.24.24.23.23 0 01-.24.23M210.58 40.51h-.12v-.71a4.71 4.71 0 01-1.05-.16v.89a.3.3 0 00-.13 0 .41.41 0 00-.41.41.78.78 0 00.2.46c.05-.11.09-.2.16-.2s.06.62.43.64a.36.36 0 000 .1.29.29 0 00.58 0 .36.36 0 000-.1c.37 0 .31-.64.43-.64s.11.08.16.2a.73.73 0 00.21-.46.41.41 0 00-.42-.41m-.65 1.57a.16.16 0 11.16-.16.16.16 0 01-.16.16m.86-.91a.2.2 0 00-.16-.13c-.25 0-.15.65-.44.65a.18.18 0 01-.2-.17c0-.09.06-.12.06-.19s-.05-.1-.12-.1-.12 0-.12.1.06.1.06.19a.17.17 0 01-.19.17c-.3 0-.2-.65-.45-.65 0 0-.11.05-.16.13a.53.53 0 01-.07-.25.29.29 0 01.28-.29c.33 0 .25.45.41.45a.11.11 0 00.12-.11c0-.13-.23-.25-.23-.43s.17-.34.35-.48c.19.14.35.3.35.48s-.23.3-.23.43a.11.11 0 00.12.11c.16 0 .09-.45.41-.45a.29.29 0 01.29.29.56.56 0 01-.08.25"/>
  <path fill="#2d2d2b" d="M219.07 41.38a.09.09 0 00-.1-.05c-.84.24-1.89-.46-2.91-1.13a5.06 5.06 0 00-2.35-1.11 1.48 1.48 0 00-.68.16 1.21 1.21 0 00-.54.63 4.38 4.38 0 01-.33.63.91.91 0 00-.16.49.52.52 0 00.18.38 1.93 1.93 0 00.44.31l.13.06c.17.08.27.14.29.23a5.46 5.46 0 01-1.26.36 11.24 11.24 0 01-1.8.14 11.46 11.46 0 01-1.81-.14 5.78 5.78 0 01-1.26-.36c0-.14.12-.2.3-.28l.13-.07a2.82 2.82 0 00.44-.27.46.46 0 00.17-.36.89.89 0 00-.2-.48 3.56 3.56 0 01-.33-.63 1.21 1.21 0 00-.54-.63 1.51 1.51 0 00-.68-.16 5.06 5.06 0 00-2.35 1.11c-1 .68-2.07 1.38-2.92 1.13a.07.07 0 00-.09.05.07.07 0 000 .09 3.36 3.36 0 01.71.47 1.65 1.65 0 00.91.46 2.24 2.24 0 001-.3 11.83 11.83 0 001-.65 4.83 4.83 0 012-1 1.17 1.17 0 01-.2.19.79.79 0 00-.36.63 1.41 1.41 0 00.2.64l.11.24a3.23 3.23 0 01.15.47c0 .07 0 .16.06.26a1 1 0 00.6.7 7 7 0 002.86.42 6.87 6.87 0 002.85-.42 1 1 0 00.6-.7c0-.1.05-.19.07-.26a3.23 3.23 0 01.15-.47 2.09 2.09 0 01.15-.3 1.12 1.12 0 00.18-.56.84.84 0 00-.38-.64c-.06-.06-.13-.12-.2-.2a4.92 4.92 0 012 1 10 10 0 001 .66 2.24 2.24 0 001 .3 1.61 1.61 0 00.91-.47 3.76 3.76 0 01.71-.46.08.08 0 000-.09M214 34.6a1.05 1.05 0 01-.33-.38c-.1-.2-.52-1-.59-1.14a.52.52 0 01-.08-.25.4.4 0 01.09-.21s.13-.14.16-.19l.07-.1a3.73 3.73 0 00-.51-.69 4.27 4.27 0 00-.82-.71.57.57 0 00.33-.5.45.45 0 00-.17-.36 4.7 4.7 0 01.73-1.49l-.54-.22a.85.85 0 01.12.61.67.67 0 01-.31-.41 2 2 0 01-.2.59.48.48 0 01.45 0 .68.68 0 01-.69.23c-.19-.05-.38-.15-.37-.3a.18.18 0 01.19-.19c.12 0 .12.19.09.27.15-.08.31-.54.07-.61s-.37.21-.43.41c0-.24-.14-.47-.33-.46s-.17.48-.08.6c0-.16.1-.25.18-.24s.15.05.14.19-.23.24-.47.24a.59.59 0 01-.67-.51.84.84 0 01.48.29 3.05 3.05 0 010-.74.72.72 0 01-.47.29.88.88 0 01.39-.51h-1a.88.88 0 01.39.51.8.8 0 01-.47-.29 3.05 3.05 0 010 .74.84.84 0 01.48-.29.6.6 0 01-.67.51c-.24 0-.45-.09-.47-.24s.07-.19.14-.19.16.08.18.24c.08-.12.17-.58-.08-.6s-.3.22-.33.46c-.07-.2-.24-.46-.43-.41s-.08.53.07.61c0-.08 0-.26.09-.27a.18.18 0 01.19.19c0 .15-.18.25-.38.3a.67.67 0 01-.68-.23.48.48 0 01.45 0 2.74 2.74 0 01-.2-.59.67.67 0 01-.31.41.86.86 0 01.12-.61l-.54.22a4.81 4.81 0 01.73 1.49.44.44 0 00-.16.36.58.58 0 00.32.5 4.59 4.59 0 00-.82.71 4.83 4.83 0 00-.87 1.45c.08.08.4.43.48.53a1 1 0 01.22.47.71.71 0 00.19.51 1 1 0 01.11.36h2.69v2.94a.45.45 0 00-.31.15c.32.12.61.24.91.33a.8.8 0 01.17-.43l-.64-.05V35h2.64a3.79 3.79 0 01-.21 1.17 3.32 3.32 0 01-.6 1 2.74 2.74 0 01-.87.69c-.05 0-.05.06-.11.08a1 1 0 00-.13.24 1.56 1.56 0 00-.06.27l.31.09c.93.23 1.16.16 1.21.12a3.75 3.75 0 00.58-.55 4.45 4.45 0 00.87-1.45 5.15 5.15 0 00.32-1.79v-.27m-4.11.21h-2.7a3.76 3.76 0 01.22-1.21 3.38 3.38 0 01.59-1 2.71 2.71 0 01.87-.69 2.33 2.33 0 011-.25zm.05-4.5a3.37 3.37 0 00-1.88.5c-.21-.12-.3-.24-.3-.38 0-.52 1.45-.56 2.18-.56.74 0 2.18 0 2.18.56 0 .14-.09.26-.3.38a3.37 3.37 0 00-1.88-.5m.11 4.5v-3.18a2.48 2.48 0 011 .25 2.61 2.61 0 01.87.69 3.21 3.21 0 01.6 1 3.75 3.75 0 01.21 1.21z"/>
  <path fill="#2d2d2b" d="M212.26 34.29c.05 0 0 .1 0 .09a3.09 3.09 0 00-.51-1.34.17.17 0 00.11-.14.18.18 0 00-.17.07l-.06-.07a2.9 2.9 0 00-.57-.54 2.3 2.3 0 00-.64-.29.05.05 0 01.1 0c0-.09-.06-.13-.11-.11a.07.07 0 000 .06.23.23 0 00-.12-.06.18.18 0 000 .13.09.09 0 00-.07 0 .1.1 0 00.1.13v-.1 1a.17.17 0 00-.17 0 .17.17 0 00.17 0v1.12s-.07-.06 0-.09-.12.07-.1.11 0 .05.08 0a.07.07 0 10.08.08.06.06 0 000 .08s.11 0 .11-.1-.09 0-.09 0h.77a.2.2 0 00.05.17.17.17 0 000-.17h.78a.08.08 0 00.11.09.06.06 0 000-.08.21.21 0 00.12 0 .17.17 0 00-.05-.12h.09c.01 0 0-.12-.11-.11m-.74-1.37a.06.06 0 000 .07l.08.06a.17.17 0 00-.06.11.21.21 0 00.12 0 .08.08 0 000 .09h.07a2.89 2.89 0 01.4 1.07.17.17 0 00-.1 0 .17.17 0 00.05.13h-.66v-.09a.07.07 0 00-.09 0 .21.21 0 000-.12.16.16 0 00-.05.12.07.07 0 00-.09 0v.09h-.56a.21.21 0 000-.12.13.13 0 00-.11 0v-.74a.08.08 0 00.09 0 .09.09 0 000-.09.18.18 0 00.11-.05.14.14 0 00-.11 0 .09.09 0 000-.09.09.09 0 00-.09 0v-.77a.13.13 0 00.09 0 .14.14 0 000-.11 2.4 2.4 0 01.51.25 2.6 2.6 0 01.52.48"/>
  <path fill="#2d2d2b" d="M211.8 34a.11.11 0 00.07-.06h-.07c-.01 0 .06 0 0 0s-.06-.05-.09 0-.24 0-.24-.16a.2.2 0 00.07.06h.06a.07.07 0 00.06 0s.08 0 .08-.08-.07-.13-.17-.2a.59.59 0 00-.08-.08c0-.06 0-.12-.09-.23a.22.22 0 000-.1.3.3 0 00.05.33c.09.09.28.19.27.27a.13.13 0 01-.06-.05 2 2 0 01-.2-.24c-.09-.11-.05-.21 0-.31s0-.25-.1-.29a.23.23 0 000-.09H211h-.06c-.06 0 0 0 0 0v.05h.07c.01 0 0 0 0 0h-.08.18s-.11.09-.13.21a.16.16 0 01-.07-.07.3.3 0 00-.08-.09l-.08-.07v-.08-.09-.06H210.63h.07v.06c0 .06-.07 0-.06 0s0 .1.07.08 0 .06 0 .06a.36.36 0 00.19.21.55.55 0 00-.14.12s-.07.07-.1 0h-.12H210.55v.07h.08v.07a.05.05 0 00.07 0v-.06h.16c.03 0 0 0 .06-.06a.07.07 0 01.07 0 .13.13 0 010-.07c0 .16.22.16.27.26a.35.35 0 00-.18 0c-.06 0-.15.06-.16.12a.24.24 0 00.09.18h-.14c-.05 0-.06-.08-.12-.05s-.06 0-.05.05-.08 0-.06.05h.19c.02 0 0 0 0-.06v-.09c0-.09.1-.13.16-.12a.35.35 0 00.21.23c.08 0 .11-.05.13 0s0 .07 0 .09-.05 0-.08 0a.05.05 0 00-.05.05h.07V33.83h.06v-.07-.06h.05-.06zM209.58 35.49h-.05a.24.24 0 00-.26-.28 4.08 4.08 0 01-.85.2 1.07 1.07 0 01-.51-.17v.13a.11.11 0 00-.1-.11.11.11 0 00-.11.11.11.11 0 00.11.1.08.08 0 00.07 0l-.05.12h.06a1.68 1.68 0 001.21 1.66c.12 0 .24 0 .24.12a.1.1 0 01-.11.11c-.05 0-.08 0-.08-.06s.09 0 .1-.06 0-.07-.07-.07a.13.13 0 00-.14.13.18.18 0 00.18.18.24.24 0 00.26-.27h.1v-1.56c.05 0 .1 0 .1-.08s0-.08-.08-.09m-1.47.11l1 1.42a1.4 1.4 0 01-1-1.42m1 1.29l-.89-1.3h.22l.72 1v.27m.07-.41l-.63-.92a.76.76 0 00.2-.06l.48.69c0 .09 0 .19-.05.29m.15-1s-.1 0-.1.07 0 .09.09.1c0 .07 0 .21-.06.36l-.4-.57a1.81 1.81 0 01.42-.16c.06 0 .08 0 .06.16M209.41 32.62c.19 0 .28-.06.28-.12s-.53-.08-.53-.21v-.06c.27 0 .27-.21.46-.24-.23 0-.26.14-.36.15a.14.14 0 00.07-.11c0 .06-.15.07-.21.14a.1.1 0 000 .08c0 .2.53.06.53.21s-.09.08-.24.08-.19-.08-.39 0c0 0 .07-.1 0-.13h-.07-.06c-.06 0 0 0 0 0v.06a1 1 0 010 .12v-.07-.07h-.05a.08.08 0 000-.05h-.05-.12c.01 0 0 .09.06.06s0 0 .05.06h-.21s-.1.05-.13 0 0 0-.05 0-.06 0 0 0h.06v.11a.11.11 0 010 .05.05.05 0 000-.05h.06v.05c0 .05 0-.05.09-.08s.06 0 .06 0h.06s.1-.05.12-.05-.06-.09.14-.08h.06v.09h.05-.05s0-.07-.1 0-.06 0-.05.05 0 0 0-.05a.1.1 0 00.08 0v-.08-.05h.1c.07 0 0 0 0 0a.12.12 0 01.08 0v.06c0 .06 0 0-.07 0s0 0 0 .05v0h-.05c-.05 0 0 0 0 0h-.16M208.42 32.33h.06c.06 0 0 0 0 0m0 0h.06m-.06.13h.05M209.67 33.34c0-.06-.06-.09-.25-.09s-.61.07-.61 0 .08-.05.18 0c.24.07.53-.06.68 0-.18-.14-.32 0-.51 0 .11 0 .15 0 .15-.06s-.24 0-.34 0c-.13 0-.24 0-.24.08s.51.08.67.08.19 0 .19.05-.16 0-.25 0a4 4 0 00-.8 0s.06-.09 0-.12h-.15a.08.08 0 000 .07s0 .06-.07 0 0 .08-.05.08a.19.19 0 010 .08l-.08-.07v-.08a.29.29 0 000-.09v-.06s0-.05-.05 0-.06 0-.06 0H208v.06h-.07a.06.06 0 00.08.08l.08.07c.08.07.06.05.08 0s0 .08 0 .08h-.13s-.12.05-.15 0v-.05h-.05c-.05 0 0 0 0 0h.05c.05 0 0 0 0 0h-.1s0 .05.08 0-.05.05 0 .07a.05.05 0 00.05.06v-.06h.13v.06c0 .06.05-.06.11-.09a.19.19 0 00.16-.11h.06c.16 0 .05-.14.31-.1a.11.11 0 00.07 0v.12H209c-.05 0-.05-.08-.11-.06s-.06 0-.05 0h-.06H208.9c.05 0 0 0 0 0h.11v-.09-.07a.21.21 0 00.12 0h.14a.23.23 0 01.11 0v.07c0 .07 0 0-.07 0h.05s-.05 0 0 .05 0 0 .05 0 0 0 0-.06v-.06a.07.07 0 000-.05.83.83 0 01-.2 0c.12 0 .3 0 .3-.1M208.34 32.87h.07m-.05 0v-.05h.06m-.07.15H208.36c-.05 0 0 0 0 0m.16.33M209.59 34.17c0-.06-.06-.09-.24-.09s-.73.07-.73 0 .18 0 .32 0c.23.06.47-.09.64 0-.13-.12-.3 0-.48 0H208.92c-.17 0-.37 0-.37.07s.62.08.78.08h.18s-.15.06-.24.06a4.31 4.31 0 00-1 0s.07-.1 0-.13h-.14a.07.07 0 000 .06s0 .06-.06 0 0 .07-.05.07H208s0-.05-.1-.08 0 0 0-.07v-.09c0-.03 0 0 0 0h-.11.06v.06c0 .05-.07 0-.07 0s0 .1.08.07a.72.72 0 00.12.11v.07h-.15s-.11.05-.14 0 0 0-.06 0h0s-.06 0 0 .06 0 0 .07 0-.05.05 0 .07 0 .06 0 .05v-.05s0 .05 0 0a.08.08 0 00.05 0h.25v.05c0 .05.1 0 .15-.07a.11.11 0 00.07 0H208.37c.29 0 .12-.13.47-.09s0 .09 0 .1a.07.07 0 01.06 0h.1s0-.08-.11-.05-.06 0-.05 0h-.05.15v-.09-.06a.35.35 0 00.11 0 .19.19 0 00.14 0 .19.19 0 01.1 0v.07c0 .07 0 0-.06 0s0 0 0 .05-.05 0 0 0 0 0 0-.06.05 0 .05-.05-.05 0-.05 0a1.58 1.58 0 01-.19 0c.1 0 .29 0 .29-.1m-1.06-.19h.08m0 0h.06m-.06.14h.06M212.14 35.55a.82.82 0 01-.21 0s.29 0 .29-.09-.06-.09-.24-.09-.73.07-.73 0 .19 0 .33 0c.23.06.49-.11.63-.07-.18-.06-.3 0-.47 0H211.56c-.17 0-.38 0-.38.08s.63.07.78.07h.19s-.15.05-.24.05a4.32 4.32 0 00-1 0s.07-.1 0-.13H210.79a.08.08 0 000 .07h-.07v.07h-.09s-.05 0-.09-.07 0 0 0-.08v-.09c0-.03 0 0 0 0v-.06h-.12v.05c0 .05 0 0 0 0h.06v.06c0 .06-.07 0-.07 0a.06.06 0 00.08.08.32.32 0 00.11.12v.07H210.29v.05c0 .05 0 0 0 0v.05c0 .05 0 0 0 0s0 .05.07 0-.05 0 0 .06a.05.05 0 00.05.05v-.05-.06.06a.1.1 0 00.05-.06h.07s.05 0 .1-.08.09 0 .09-.06h.11c.3 0 .13-.13.48-.09s0 .1 0 .1h.06-.05c-.05 0-.06-.08-.11-.06a.06.06 0 00-.05.05h-.06.11v-.05a.1.1 0 00.08 0 .07.07 0 000-.09v-.06a.18.18 0 00.11 0 .28.28 0 00.15 0 .09.09 0 01.1 0v.06c0 .06 0 0-.07 0h.05s-.06 0 0 .06 0 0 0-.05V35.4c0-.07 0 0 0 0v-.05m-1.29-.33h.07v-.05m0 0h-.05c-.05 0 0 0 0-.05h.07m-.07.14h.06m-.05-.08zm.26.36M211.34 36c.22.07.47-.1.6-.06-.17-.06-.28 0-.45 0h-.17c-.13 0-.22 0-.22.07s.45.07.6.07h.12s-.16.05-.24.05a3.32 3.32 0 00-.73 0s.06-.09 0-.11h-.13a.06.06 0 000 .06s-.05.05-.06 0 0 .06 0 .06a.17.17 0 000 .07.13.13 0 01-.09 0v-.07-.08a.05.05 0 00-.05 0h-.11v.05h.06v.05h-.06s0 .1.08.07 0 0 .07 0 0 .09 0 .09a.33.33 0 00-.1 0H210.25h.05c.05 0 0 0 0 0s-.06 0 0 .06 0 0 .07 0 0 0 0 .06a.07.07 0 010 .06s.05 0 .05-.06h.07s.07 0 .12-.09.1 0 .12-.08 0 0 .07 0 0-.13.27-.09h.06c.01 0 0 .1 0 .1h.05-.05c-.05 0-.05-.07-.1 0v.05h-.06.14c.01 0 0-.06 0-.08v-.06a.17.17 0 00.1 0 .32.32 0 00.16 0 .08.08 0 01.09 0v.06c0 .06 0 0-.06 0h-.05s-.06 0 0 .05v-.06c0-.01.05 0 .06 0h-.23c.1 0 .3 0 .3-.09s0-.08-.18-.08-.56.06-.56 0 .08 0 .17 0m-.56 0h.06m0 .11h.06m0 0v-.05h.07"/>
  <path fill="#2d2d2b" d="M211.16 36.8c.22.06.47-.1.6-.07-.17-.06-.28.05-.45 0a.39.39 0 00.21 0c-.08.05-.29 0-.38 0s-.12 0-.12.1.56 0 .56.08-.11.07-.26.07a1.57 1.57 0 00-.55 0s.07-.11.05-.14h-.1a.06.06 0 000 .06h-.06c-.06 0 0 0 0 0s0 .06-.05.06a.23.23 0 000 .14s-.09-.12-.13-.14 0 0 0-.07v-.07a.05.05 0 00-.05 0v-.05h-.11.06v.06h-.06l.07.06s0 .07.07.11a.07.07 0 00.08 0v.06h-.18-.05s-.06 0 0 .05 0 .05.06 0a.08.08 0 00.05 0l.09-.07s.07 0 .07-.05a.21.21 0 000-.12c.06 0 .09-.05.15-.05a.13.13 0 000 .09v.08c-.05 0-.05-.07-.1-.05v.05h.05-.06.07v-.08c0-.01 0-.12-.06-.17s.16 0 .18 0h.03s-.06 0 0 0h.05v-.06c0-.01 0 0 .06 0s-.06 0 0 0 .05 0 0-.05-.09 0-.09-.09h.06c.19 0 .31-.05.3-.11s-.57 0-.57-.09 0 0 .08-.06m-.42 0h.07m0 0h.06m-.06.13M201.94 26.88a.14.14 0 10-.14.14.14.14 0 00.14-.14M201.89 26.51a.14.14 0 00-.14-.14.15.15 0 00-.14.14.14.14 0 00.14.14.14.14 0 00.14-.14M202 26.35a.14.14 0 000-.28.14.14 0 000 .28M202.34 26.32a.13.13 0 00.13-.13.13.13 0 00-.13-.14.14.14 0 00-.14.14.13.13 0 00.14.13M203.9 26.07a.14.14 0 100-.2.15.15 0 000 .2M203.87 25.77a.12.12 0 000-.19.14.14 0 00-.19 0 .13.13 0 00.19.19M203.51 25.72a.14.14 0 10-.2 0 .15.15 0 00.2 0M203.19 26a.13.13 0 000-.2.14.14 0 00-.19 0 .13.13 0 000 .2.14.14 0 00.19 0M202.31 25.76l.12.24.13-.17v.3a.18.18 0 00.17.17.18.18 0 00.18-.17.19.19 0 00-.09-.16 1.16 1.16 0 01-.2-.18h.23l-.09-.25-.17.15v-.25l-.25.09.17.19zM203.91 26.19a.34.34 0 01.08.19.52.52 0 01-.15-.13v.32a.28.28 0 01.12-.12c0 .21-.1.3-.17.31a.13.13 0 01-.16-.11c0-.09.06-.15.14-.06 0-.2-.14-.19-.21-.11a.28.28 0 00-.11-.41.29.29 0 00.07.42c-.13-.07-.24 0-.13.19 0-.13.13-.1.16 0s-.06.19-.2.23-.26-.06-.31-.17.14 0 .26.05l-.1-.31a.3.3 0 01-.19.19 1.38 1.38 0 01.06-.28l-.38.16a.92.92 0 01.24.15.32.32 0 01-.27 0l.15.29c0-.13.1-.21.15-.22s.08.25-.1.34a.23.23 0 01-.31 0c-.05-.08 0-.18.11-.11 0-.18-.17-.18-.22 0 0-.19 0-.3-.24-.35 0 .18 0 .29.2.37-.1 0-.22.1-.07.22 0-.11.1-.13.15-.05a.13.13 0 010 .19c-.07 0-.19 0-.34-.1a.29.29 0 01.16 0l-.2-.25a.36.36 0 010 .19.31.31 0 01-.1-.22l-.16.14a1.78 1.78 0 01.53.52 5.07 5.07 0 01.84-.42 6.15 6.15 0 01.89-.29 1.82 1.82 0 010-.73z"/>
  <path fill="#2d2d2b" d="M206.94 35c.05-.15-.22-.32-.25-.53a1 1 0 00-.25-.7c-.23-.27-1.06-1.16-1.31-1.44a.4.4 0 01.36.11l.43.41a4.47 4.47 0 01.88-1.41l.15-.16a2.16 2.16 0 00-.49.16c0-.24 0-.44-.16-.59.07-.34 0-.75-.75-1.26.39.1.62.45.92.18-.27 0-.27-.59-1.24-1.07.37 0 .66.58 1.08.25-.4-.05-.53-.77-1.26-1 .25 0 .51.15.73-.14-.25.06-.4-.17-.67-.19a.89.89 0 000-.74.87.87 0 00-.52.19c0-.18-.2-.19-.36-.17v.19a7.43 7.43 0 00-.89.27 4.6 4.6 0 00-.82.44c-.07 0-.13-.06-.17-.11s-.23.23-.15.36a1 1 0 00-.56.2.64.64 0 00.44.54c-.44.45 0 .86-.43 1.24.55 0 .46-.75.73-.85 0 .54-.33.64-.33 1.22 0 .31.19.65 0 .86.47-.13.34-1.15.63-1.46a.85.85 0 010 .52c-.16.48 0 1.13-.23 1.34.47-.05.53-.8.92-1.08a24.77 24.77 0 01-1.18 2.86c-.8 1.09-1.28 2.41-2 2.41a.55.55 0 01-.57-.61c0-1.23 2.12-2.08 2.12-3.4a.79.79 0 00-.78-.81 1.05 1.05 0 00-.64.27.65.65 0 00-.25-.06c-.75 0-.55 1.35-1.21 1.34.26.14.71-.14 1-.52-.11.88-1.36.64-1.27 1.69.18-.82 2.18-.7 2.18-1.94a.47.47 0 00-.17-.35.75.75 0 01.42-.14.47.47 0 01.46.53c0 1.11-2.11 2-2.11 3.39a.94.94 0 00.18.57.37.37 0 01-.43-.11c0 .34.49.56.8.39a.78.78 0 00.22 0 .61.61 0 01-.59.33c.52.4 1.42-.13 1.37-.59a7.64 7.64 0 001-1.27 2.38 2.38 0 00-.05.26 4.33 4.33 0 00-.87 1.78c-.07.61-.38 1.15-.8 1.15-.09 0-.25-.12-.32-.06s0 .24 0 .35-.33.34-.33.88c0 .24.14.52.09.68a1 1 0 00.39-.59c.14.7-.3.67 0 1.29a.25.25 0 01.37-.2c.13.08.07.14 0 .24s-.17.56.25.53c-.08 0-.08-.18.13-.22s.38.07.69.07.24-.25.4-.25.15.12.1.21c.24-.07.29-.2.29-.34s-.11-.23 0-.28.37 0 .26.24a.28.28 0 00.23-.31c0-.18-.21-.29-.4-.25 0-.12-.2-.18-.35-.18-.35 0-.3.27-.53.27-.38 0-.75-.49-.75-1.32 0-.44.48-.56.82-.7a3 3 0 001.29-1.11 2.69 2.69 0 00.25-1.59 1 1 0 01.53 1 .59.59 0 01-.34.59c-.13.06-.17 0-.19.11a.17.17 0 00.1.18c.18.09.14.25.19.43a1.45 1.45 0 00.47.67 2.08 2.08 0 000-.52c.37.18.07.92.78.92a.19.19 0 010-.3c.08 0 .17.05.31.24s.1.18.44.18.19-.12.36-.12.17.21.07.36a.39.39 0 00.29-.56.29.29 0 01.45.21.35.35 0 00-.21-.6.21.21 0 00-.19-.21h-.34c-.12 0-.19.18-.33.18a2 2 0 01-1.33-1.16c0-.35.84-.56.84-1.1 0-.71-.7-1-1.28-1.41a1.15 1.15 0 011.16-.12c0-.2.17-.15.22-.49.12.3 0 .56.12.68.1-.14.35-.12.33-.49.08.23-.09.59.08.74 0-.19.15-.23.22-.23s.13.06.13.17c0 .28-.35.15-.35.47 0 .14.17.18.17.27a.19.19 0 01-.31.11.37.37 0 00.32.23.46.46 0 00.38-.28c.08.2 0 .42-.12.45.15.08.52 0 .48-.46.2 0 .31.17.19.42.17 0 .32-.12.32-.3s-.15-.18-.08-.36m-4-6.4c-.2 0-.19-.17-.53-.25a6.4 6.4 0 00.81-.27.4.4 0 01-.28.52M204.3 30a.37.37 0 01-.48-.26c0-.15-.09-.27 0-.33s.14-.19.07-.32-.23-.08-.41 0c.08-.15.09-.25 0-.24s-.14.23-.21.21 0-.15 0-.22.06-.12.15-.16l.72-.27c.09 0 .16-.05.22 0s.16.11.13.18-.19-.09-.3 0 0 .13.15.18c-.15.09-.32.15-.26.31s.12.18.27.18.14.12.21.26a.36.36 0 01-.18.51m0-2a.4.4 0 01-.57-.18 5.68 5.68 0 00.78-.36c-.19.29-.06.42-.21.54M220.44 38.37a.58.58 0 00.56.63.59.59 0 00.6-.59.6.6 0 00-.6-.6.59.59 0 00-.59.6m.15 0a.45.45 0 01.89 0 .45.45 0 01-.89 0M218.22 38.92a.31.31 0 00-.15.22.35.35 0 00.09.3.54.54 0 00.63.11.32.32 0 00.19-.25.43.43 0 00-.39-.46.52.52 0 00-.37.08m.27.53c-.18 0-.29-.16-.27-.28a.24.24 0 01.08-.13.4.4 0 01.27 0 .31.31 0 01.27.26.28.28 0 01-.34.17M214.94 30.56a.4.4 0 00-.13.54.39.39 0 00.55 0 .5.5 0 00.18-.3.34.34 0 00-.06-.24.4.4 0 00-.21-.12.52.52 0 00-.34.1m0 .35a.34.34 0 01.13-.23.32.32 0 01.23-.06.14.14 0 01.11.06.19.19 0 010 .12.32.32 0 01-.13.2.26.26 0 01-.34 0 .17.17 0 010-.1M217.52 37.93a.51.51 0 00-.15.35.54.54 0 00.13.35.35.35 0 00.24.11.39.39 0 00.25-.1.56.56 0 00.15-.36.55.55 0 00-.14-.28.35.35 0 00-.28-.15.33.33 0 00-.24.1m.23.67a.2.2 0 01-.14-.06.4.4 0 01-.09-.25.4.4 0 01.1-.25.2.2 0 01.14-.06c.13 0 .23.14.22.32a.36.36 0 01-.1.25.16.16 0 01-.13.05m0 .16zM214.6 33.12a.34.34 0 00-.2.17.44.44 0 00.26.55.5.5 0 00.38 0 .35.35 0 00.2-.18.33.33 0 000-.26.51.51 0 00-.26-.28.53.53 0 00-.39 0m.12.58a.29.29 0 01-.18-.34.25.25 0 01.11-.1.33.33 0 01.27 0 .35.35 0 01.19.19.2.2 0 010 .15.16.16 0 01-.11.09.37.37 0 01-.27 0"/>
  <path fill="#2d2d2b" d="M220.86 32.51c.19.53.58.72.87.58-.65-.07-.12-1.2-1-1.2h-.13a.71.71 0 00-.55-.22 1.06 1.06 0 00-1 1.06c0 1.54 1.79 1.67 1.79 3a.62.62 0 01-.64.64c-.3 0-.54-.33-.79-.86a6.42 6.42 0 00-.66-1 .46.46 0 00.27.09.34.34 0 00.24-.09.32.32 0 00.11-.24.48.48 0 00-.15-.34.53.53 0 00-.35-.17.34.34 0 00-.24.09.36.36 0 00-.11.25.5.5 0 000 .16 3.37 3.37 0 01-.74-1.27 1.2 1.2 0 01.37-.7h.07v-.06l.53-.57.07-.08-.19-.15a3.37 3.37 0 00.13-.38c.06.25.18.41.36.36-.12-.26.12-.6 0-1.22.15.24.36.36.51.32-.4-.35.12-.84-.4-1.6a.3.3 0 00.36-.06c-.47-.06-.26-.66-1.08-.88.2 0 .32-.15.29-.26-.21.16-.41-.29-1.12-.28a1 1 0 00-.57-.68 1 1 0 01-.05.54l-2.33-2.28c-.07-.06-.1-.08-.12-.06s0 .07 0 .12l2 2.5-.45.17a.28.28 0 00-.18.26 4.13 4.13 0 00-.85.56c-.13.11-.22.14-.12.39s-.08.33.21.16.62-.35.68-.2-.18.18-.33.23-.3.17-.28.23.14 0 .15.05.05.13.11.13.14-.12.18-.08 0 .31-.07.38a.45.45 0 00.38-.41c0-.17.05-.21.09-.23s.07.18 0 .3c.12 0 .24-.18.22-.47a.31.31 0 01.17-.09c.08 0 .23.21.44.21a.65.65 0 00.64-.47.46.46 0 000-.33.54.54 0 01.18.43c0 .56-1 .82-1.39 1.21H216v.1a.27.27 0 010 .09l-.21.68v.08a2.67 2.67 0 00-.55 1.2c-.11-.11-.21-.21-.33-.31a.51.51 0 000-.13.41.41 0 00-.11-.32.26.26 0 00-.21-.11.3.3 0 00-.23.08h-.05a4.49 4.49 0 01-.46-.39.22.22 0 00-.2-.08h-.2c-.07 0-.11.06-.19.13l-.26.2.16.18.09.11.08-.06a.29.29 0 01.18-.05.28.28 0 01.2.13 10.2 10.2 0 00.73.9h-.1a1.82 1.82 0 01-.57 0c-.13 0-.16 0-.25.1l-.12.17c0 .06-.08.12 0 .28a10.72 10.72 0 01.59 1.12.64.64 0 00.47.4 5 5 0 01.63.35v-.15a1.42 1.42 0 00-.35-.17c-.08 0-.1-.06 0-.06a2.26 2.26 0 01.54.17 1.63 1.63 0 00-.38-.56.49.49 0 00-.38 0 .08.08 0 01-.08.1.09.09 0 01-.09-.11c0-.06.12-.08.1-.2s-.17-.14-.26-.15c-.14-.19-.29-.47-.36-.58s0-.18 0-.22.35 0 .82.08h.59a1.3 1.3 0 001.05 1.26 1.31 1.31 0 01.89.73c-1.53 0-1.77.56-1.77 1.13s.54.6.54 1.08-1.29.59-1.67.64a1.16 1.16 0 00-.68.28l-.6.6a.84.84 0 00.24 0l.22-.28c.06-.09.11-.17.15-.16s0 .07 0 .18l-.18.3c.76 0 .81-.23.81-.35s-.19-.19-.08-.26.2 0 .29.08.11.18.32.1l1.85-.77c.19-.09.13-.17 0-.26a.54.54 0 01-.14-.44c0-.49.3-.65.83-.64a2.32 2.32 0 000 .24c0 .78 1.18 1.54 1.49 1.54.15 0 .34-.11.35.36a4 4 0 010 1 .73.73 0 01-.41.63c-.24.17-.46.69-.56.8.1.07.22.08.3-.18a.82.82 0 01.25-.41c-.09.23-.16.58-.2.68.3.05.78-.22.78-.43s-.16-.2-.16-.34a.16.16 0 01.16-.13.25.25 0 01.22.14c.14-.07.22-.2.22-.51v-.38.05a.34.34 0 00.27.15.56.56 0 00.33-.08.54.54 0 00.22-.32.17.17 0 000-.07.41.41 0 00-.05-.19.37.37 0 00-.22-.14.47.47 0 00-.38.08.49.49 0 00-.22.29c0-.43-.06-.82 0-1s0-.35-.06-.38-.16.09-.28.09a.77.77 0 01-.46-.65c0-.33.36-.77.35-1.22 0-.15.08-.22.14-.09a2 2 0 00.33.54.68.68 0 001.06.72c-.26 0-.44-.19-.55-.42h.21a.56.56 0 00.92-.35.61.61 0 01-.46.18.92.92 0 00.33-.74c0-1.47-1.77-1.64-1.77-3a.82.82 0 01.73-.81.4.4 0 01.27.09.66.66 0 00-.16.5c0 1.06 1.76 1 1.78 1.51.2-.76-1.08-.53-1.13-1.55m-4.57-4c.08-.16 0-.4.29-.4.14 0 .27.14.44.2a1.64 1.64 0 00-.73.2m-1.57 3.22a.37.37 0 01-.09.22.21.21 0 01-.12 0 .24.24 0 01-.18-.26.27.27 0 01.09-.21.16.16 0 01.11 0 .14.14 0 01.11.06.3.3 0 01.07.21m5.07 7.39a.42.42 0 01.16-.22.35.35 0 01.26 0 .19.19 0 01.13.08.18.18 0 010 .14.37.37 0 01-.16.22.28.28 0 01-.38 0 .17.17 0 010-.15m-1.07-4.9a.33.33 0 01.06-.14.16.16 0 01.14 0 .34.34 0 01.24.11.4.4 0 01.11.25.18.18 0 01-.06.14.2.2 0 01-.14 0 .37.37 0 01-.24-.12.38.38 0 01-.11-.25m-2.91-3.31l.24-.77.27.11a.94.94 0 00-.26.18.28.28 0 00.25 0l-.11.27s-.1-.14-.18-.15a.29.29 0 00.18.35c.17.08.27.09.32 0s-.06-.22-.19-.17c0-.14.06-.21.15-.21s.14.06.16.16a.44.44 0 01.3-.48.46.46 0 01-.15.54.19.19 0 01.23 0c0 .08 0 .18-.09.25a.14.14 0 00-.25-.06c-.05.09 0 .18.18.27a.28.28 0 00.41-.12.31.31 0 00-.25.05l.18-.33a.29.29 0 00.11.2.41.41 0 000-.33l.39.22a.41.41 0 00-.28.18.35.35 0 00.23 0l-.2.33a.36.36 0 00-.09-.25.29.29 0 00.11.42c.15.09.27.11.32 0a.14.14 0 00-.18-.19c0-.14.08-.21.18-.2s.13.09.14.18a.44.44 0 01.39-.4.46.46 0 01-.26.5.16.16 0 01.21.06c.05.08 0 .18-.11.24a.14.14 0 00-.24-.09c0 .08 0 .17.18.27a.28.28 0 00.4 0 .36.36 0 00-.23-.07l.18-.23a.28.28 0 00.11.22 1.23 1.23 0 000-.32l.22.18-.54.6zm2.41 6.07a.3.3 0 01-.38.11.3.3 0 010-.39.28.28 0 01.38-.11.3.3 0 010 .39m.7-1.11a.27.27 0 01-.37.11.28.28 0 010-.39.27.27 0 01.37-.11.28.28 0 010 .39"/>
  <path fill="#1d1d1b" d="M31.12 66.83h47.13v1.37H31.12zM31.12 74.2h47.13v1.37H31.12zM31.12 81.56h47.13v1.37H31.12zM31.12 88.93h47.13v1.37H31.12zM31.12 126.37h47.13v1.37H31.12zM31.12 133.74h190.9v1.37H31.12zM31.12 141.11h190.9v1.37H31.12zM31.12 148.47h190.9v1.37H31.12zM160.83 66.83h61.18v1.77h-61.18zM160.83 74.65h61.18v1.77h-61.18zM160.83 82.48h61.18v1.77h-61.18zM160.83 90.3h61.18v1.77h-61.18zM160.83 98.13h61.18v1.77h-61.18zM31.13 274.24h181.43v1.37H31.13zM31.13 284.29h181.43v1.37H31.13zM31.13 294.33h181.43v1.37H31.13zM30.98 315.11h81.32v1.37H30.98zM31.12 330.7h190.35v.23H31.12z" opacity=".6"/>
  <g clip-path="url(#d)">
    <path fill="#003b61" d="M39 341.35c-.81 0-1.18-.67-1.18-1.5s.37-1.5 1.18-1.5 1.17.68 1.17 1.5-.36 1.5-1.17 1.5m0-2.77c-.6 0-.81.66-.81 1.26s.19 1.25.81 1.25.81-.66.81-1.25-.21-1.26-.81-1.26M41.17 339.23v2.07h-.33v-2.07h-.33V339h.33v-.33a.67.67 0 01.73-.71h.07v.21a.42.42 0 00-.43.46v.37h.47v.2zM42.53 339.23v2.07h-.33v-2.07h-.34V339h.34v-.33a.66.66 0 01.72-.71H43v.21a.42.42 0 00-.43.46v.37H43v.2zM43.54 338.6a.21.21 0 110-.41.2.2 0 01.21.2.21.21 0 01-.21.21m-.16.43h.33v2.27h-.33zM45.13 341.35c-.54 0-1-.46-1-1.19s.42-1.19 1-1.19a.87.87 0 01.55.16l-.08.2a.76.76 0 00-.4-.12c-.46 0-.7.4-.7.94s.28 1 .69 1a.73.73 0 00.4-.12l.09.21a.91.91 0 01-.56.16M46.23 340.3a.76.76 0 00.8.8 1.27 1.27 0 00.61-.14l.1.23a1.63 1.63 0 01-.74.16 1 1 0 01-1.09-1.19c0-.78.42-1.19 1-1.19s.93.36.93 1.11zm.66-1.11c-.37 0-.68.28-.68.92l1.29-.18c0-.52-.25-.74-.61-.74M49.43 339.23v2.07h-.33v-2.07h-.34V339h.34v-.33a.66.66 0 01.72-.71h.08v.21a.42.42 0 00-.43.46v.37h.47v.2zM51.1 341.35c-.67 0-1-.52-1-1.19s.3-1.19 1-1.19 1 .53 1 1.19-.3 1.19-1 1.19m0-2.15c-.49 0-.64.5-.64 1s.16.95.64.95.64-.48.64-.95-.14-1-.64-1M53.5 339.24a1 1 0 00-.66 0v2h-.33v-2.17a2.15 2.15 0 01.91-.16h.17zM56.49 341.32l-1.29-2c-.09-.15-.16-.3-.16-.3v2.28h-.42v-2.9h.47l1.22 1.87a1.94 1.94 0 01.17.3v-2.17h.42v2.9zM58.29 341.38c-.67 0-1-.27-1-.7 0-.61.64-.78 1.39-.84v-.13c0-.31-.21-.41-.52-.41a1.72 1.72 0 00-.61.13l-.12-.27a2.11 2.11 0 01.82-.17c.5 0 .89.21.89.79v1.43a2 2 0 01-.87.17m.41-1.32c-.56.06-.93.17-.93.61s.22.43.56.43a.9.9 0 00.37-.07zM60.48 341.37a.59.59 0 01-.66-.62v-1.41h-.32v-.29h.32v-.51l.48-.13v.64h.44v.29h-.44v1.39a.29.29 0 00.31.31.27.27 0 00.13 0v.3a.65.65 0 01-.26.05M61.37 338.66a.27.27 0 01-.29-.25.29.29 0 01.57 0 .27.27 0 01-.28.25m-.25.39h.49v2.27h-.49zM63.06 341.38c-.69 0-1-.52-1-1.19s.34-1.2 1-1.2 1 .52 1 1.2-.34 1.19-1 1.19m0-2.08c-.41 0-.54.44-.54.88s.13.86.54.86.55-.42.55-.86-.13-.88-.55-.88M65.9 341.32v-1.62c0-.29-.25-.4-.53-.4a1 1 0 00-.39.07v1.95h-.48v-2.16a2.22 2.22 0 01.9-.17c.59 0 1 .2 1 .7v1.63zM67.75 341.38c-.67 0-1-.27-1-.7 0-.61.64-.78 1.39-.84v-.13c0-.31-.21-.41-.52-.41a1.72 1.72 0 00-.61.13l-.11-.27a2 2 0 01.81-.17c.5 0 .89.21.89.79v1.43a2 2 0 01-.87.17m.41-1.32c-.56.06-.93.17-.93.61s.22.43.56.43a.9.9 0 00.37-.07zM69.12 341.32v-3.31h.48v3.31h-.48zM71.53 341.38a1.69 1.69 0 01-.79-.17l.13-.35a1.21 1.21 0 00.56.14.52.52 0 00.58-.49c0-.63-1.21-.39-1.21-1.29a.89.89 0 011-.86 1.42 1.42 0 01.7.17l-.12.31a1.15 1.15 0 00-.51-.13.46.46 0 00-.52.46c0 .62 1.23.35 1.23 1.31a.93.93 0 01-1 .9M73.77 341.37a.59.59 0 01-.66-.62v-1.41h-.32v-.29h.32v-.51l.48-.13v.64H74v.29h-.44v1.39a.29.29 0 00.31.31.27.27 0 00.13 0v.3a.65.65 0 01-.26.05M75.28 341.38c-.67 0-1-.27-1-.7 0-.61.64-.78 1.39-.84v-.13c0-.31-.21-.41-.52-.41a1.72 1.72 0 00-.61.13l-.12-.27a2.11 2.11 0 01.82-.17c.5 0 .89.21.89.79v1.43a2 2 0 01-.87.17m.41-1.32c-.56.06-.93.17-.93.61s.21.43.55.43a.92.92 0 00.38-.07zM77.47 341.37a.59.59 0 01-.66-.62v-1.41h-.32v-.29h.32v-.51l.48-.13v.64h.44v.29h-.44v1.39a.29.29 0 00.31.31.27.27 0 00.13 0v.3a.65.65 0 01-.26.05M78.36 338.66a.27.27 0 01-.29-.25.29.29 0 01.57 0 .27.27 0 01-.28.25m-.25.39h.49v2.27h-.49zM79.66 341.38a1.37 1.37 0 01-.69-.17l.13-.31a.92.92 0 00.49.14.41.41 0 00.45-.36c0-.54-1-.28-1-1a.73.73 0 01.8-.67 1.16 1.16 0 01.64.17l-.13.28a.8.8 0 00-.42-.13c-.25 0-.4.15-.4.32 0 .51 1 .28 1 1a.8.8 0 01-.88.71M81.77 341.37a.6.6 0 01-.66-.62v-1.41h-.31v-.29h.31v-.51l.49-.13v.64h.4v.29h-.4v1.39a.28.28 0 00.31.31.32.32 0 00.13 0v.3a.71.71 0 01-.27.05M82.66 338.66a.27.27 0 01-.28-.25.29.29 0 01.57 0 .27.27 0 01-.29.25m-.24.39h.49v2.27h-.49zM84.31 341.38c-.56 0-1-.46-1-1.2s.44-1.19 1-1.19a.91.91 0 01.58.17l-.11.27a.6.6 0 00-.35-.11c-.4 0-.6.34-.6.85s.23.86.59.86a.64.64 0 00.36-.12l.11.3a.87.87 0 01-.58.17"/>
    <path fill="#c1c600" d="M31.59 340.08c.07-.15.13-.27.21-.41a3.19 3.19 0 01-.21-.59v1m.45-2.82s-.45 0-.45.56v.09a5.35 5.35 0 00.41 1.49 3.69 3.69 0 01.85-1 5.3 5.3 0 012.92-1.18z"/>
    <path fill="#003b61" d="M36.39 337.56a5.78 5.78 0 00-3.32 1.22 3.74 3.74 0 00-.9 1.08 4.2 4.2 0 003.63 2.22.57.57 0 00.57-.62v-3.9m-3.92 3.24a4.12 4.12 0 01-.46-.66 6.85 6.85 0 00-.42 1v.94h2.83a3.78 3.78 0 01-1.93-1.27M85.83 341.38a1.4 1.4 0 01-.69-.17l.13-.31a.93.93 0 00.5.14.41.41 0 00.44-.36c0-.54-1-.28-1-1A.72.72 0 0186 339a1.16 1.16 0 01.64.17l-.13.28a.73.73 0 00-.41-.13c-.25 0-.41.15-.41.32 0 .51 1 .28 1 1a.81.81 0 01-.89.71"/>
  </g>
  <circle cx="539.47" cy="176.99" r="174.1" fill="#fff" transform="rotate(-45 539.4693683 176.9844712)"/>
  <path d="M539.47 5.39a171.6 171.6 0 01121.34 292.94A171.6 171.6 0 01418.13 55.65 170.49 170.49 0 01539.47 5.39m0-5A176.6 176.6 0 10716.07 177 176.6 176.6 0 00539.47.39z"/>
  <path fill="none" d="M539.47.39A176.12 176.12 0 00409.9 57H669A176.1 176.1 0 00539.47.39zM409.9 297a176.56 176.56 0 00259.1 0zM716.07 177c0-5.68-.28-11.29-.8-16.83v33.66c.52-5.55.8-11.16.8-16.83z"/>
  <path fill="#f4f3fa" d="M715.27 193.82v-33.66A175.93 175.93 0 00669 57H409.9a176.56 176.56 0 000 240H669a175.9 175.9 0 0046.27-103.18z"/>
  <path fill="#fff" d="M383.7 154.74c-1.28 0-2.33 1.4-2.33 3.13v38.24c0 1.73 1.05 3.13 2.33 3.13h304.66c1.28 0 2.32-1.4 2.32-3.13v-38.24c0-1.73-1-3.13-2.32-3.13z"/>
  <path fill="#1d1d1b" d="M401.26 183.93h-3V174.29l.05-1.49q-.76.75-1.05 1l-1.65 1.32-1.46-1.82 4.62-3.68h2.48zM419 183.93l-1-3.41h-5.22l-1 3.41h-3.27l5.05-14.37h3.71l5.08 14.37zm-1.76-6q-1.44-4.64-1.62-5.24c-.12-.41-.21-.73-.26-1Q415 173 413.49 178zM437.06 183.93h-10v-2.1l3.59-3.64c1.07-1.09 1.76-1.84 2.09-2.26a4.68 4.68 0 00.7-1.17 2.9 2.9 0 00.22-1.12 1.62 1.62 0 00-.48-1.28 1.81 1.81 0 00-1.26-.42 3.57 3.57 0 00-1.62.38 7.9 7.9 0 00-1.63 1.08l-1.67-1.94a11.41 11.41 0 011.75-1.28 6.28 6.28 0 011.52-.57 8 8 0 011.84-.2 5.37 5.37 0 012.37.49 3.78 3.78 0 011.6 1.37 3.64 3.64 0 01.57 2 4.91 4.91 0 01-.35 1.85 7 7 0 01-1.08 1.78 25.68 25.68 0 01-2.57 2.6l-1.84 1.73v.14h6.24zM443.49 169.61h4.45a8.54 8.54 0 014.42.87 3 3 0 011.38 2.76 3.46 3.46 0 01-.6 2.1 2.41 2.41 0 01-1.6 1v.1a3.13 3.13 0 012 1.14 4.15 4.15 0 01-.81 5.27 6.16 6.16 0 01-3.85 1.09h-5.35zm3 5.67h1.77a3.16 3.16 0 001.78-.38 1.41 1.41 0 00.56-1.26 1.25 1.25 0 00-.61-1.18 3.82 3.82 0 00-1.9-.36h-1.6zm0 2.41v3.74h2a3 3 0 001.85-.48 1.77 1.77 0 00.6-1.47c0-1.19-.85-1.79-2.55-1.79zM476.24 171.94a3.11 3.11 0 00-2.66 1.28 6 6 0 00-.94 3.59c0 3.2 1.2 4.79 3.6 4.79a11.43 11.43 0 003.65-.75v2.54a10.17 10.17 0 01-3.94.74 6 6 0 01-4.78-1.9 8 8 0 01-1.65-5.44 8.9 8.9 0 01.81-3.91 5.79 5.79 0 012.34-2.57 6.86 6.86 0 013.57-.9 9.69 9.69 0 014.19 1l-1 2.47a15.85 15.85 0 00-1.62-.67 4.76 4.76 0 00-1.57-.27zM495.38 172.82a3.39 3.39 0 01-.82 2.28 4.15 4.15 0 01-2.28 1.29v.06a4.61 4.61 0 012.63 1.05 3 3 0 01.89 2.26 3.83 3.83 0 01-1.5 3.22 7 7 0 01-4.28 1.15 10.31 10.31 0 01-4.13-.78v-2.57a8.79 8.79 0 001.83.68 7.5 7.5 0 002 .27 3.86 3.86 0 002.21-.51 1.87 1.87 0 00.71-1.64 1.48 1.48 0 00-.82-1.43 6.09 6.09 0 00-2.62-.42h-1.09v-2.32h1.11a5.14 5.14 0 002.43-.43 1.58 1.58 0 00.77-1.5q0-1.62-2-1.62a4.8 4.8 0 00-1.43.23 6.85 6.85 0 00-1.62.82l-1.4-2.09a7.76 7.76 0 014.67-1.41 6 6 0 013.51.9 2.89 2.89 0 011.23 2.51zM514.24 176.64a7 7 0 01-2 5.41 8.17 8.17 0 01-5.81 1.88h-4.06v-14.32h4.5a7.53 7.53 0 015.44 1.86 6.76 6.76 0 011.93 5.17zm-3.15.07q0-4.61-4.07-4.61h-1.62v9.33h1.3c2.93 0 4.39-1.58 4.39-4.72zM530.53 181h-1.72v3h-3v-3h-6.11v-2.1l6.28-9.25h2.79v9h1.72zm-4.68-2.35v-2.42-1.77c0-.77.06-1.21.08-1.34h-.08a10.55 10.55 0 01-.87 1.57l-2.62 4zM554.09 183.93h-8.25v-14.32h8.25v2.49h-5.21v3.15h4.84v2.48h-4.84v3.7h5.21zM565.28 174.79a4.58 4.58 0 013.3 1.16 4.19 4.19 0 011.23 3.19 4.66 4.66 0 01-1.48 3.7 6.26 6.26 0 01-4.23 1.29 8.25 8.25 0 01-3.86-.78v-2.61a8.7 8.7 0 003.75.93c1.85 0 2.77-.76 2.77-2.27s-1-2.17-2.87-2.17a7 7 0 00-1.14.11 6.74 6.74 0 00-1 .22l-1.2-.65.53-7.3h7.77v2.57h-5.11l-.27 2.81.35-.07a6.82 6.82 0 011.46-.13zM579.49 183.93h-3v-14.32h8.21v2.49h-5.22v3.69h4.86v2.48h-4.86zM590.4 177.85q0-4.24 1.8-6.33a6.74 6.74 0 015.38-2.07 9.52 9.52 0 011.92.15v2.4a7.81 7.81 0 00-1.72-.19 5.94 5.94 0 00-2.54.47 3.17 3.17 0 00-1.48 1.39 6.32 6.32 0 00-.57 2.61h.12a3.33 3.33 0 013.11-1.66 3.83 3.83 0 013 1.2 4.79 4.79 0 011.09 3.33 5 5 0 01-1.29 3.63 4.77 4.77 0 01-3.59 1.34 5.11 5.11 0 01-2.76-.74 4.69 4.69 0 01-1.82-2.14 8.12 8.12 0 01-.65-3.39zm5.18 3.86a1.79 1.79 0 001.48-.65 2.9 2.9 0 00.52-1.86 2.57 2.57 0 00-.48-1.65 1.77 1.77 0 00-1.47-.6 2.25 2.25 0 00-1.57.6 1.85 1.85 0 00-.65 1.39 3.23 3.23 0 00.61 2 1.9 1.9 0 001.56.77zM621.58 175.89h5.68v7.43a16 16 0 01-2.6.63 17.21 17.21 0 01-2.5.18 6.31 6.31 0 01-4.95-1.91 7.92 7.92 0 01-1.71-5.47 7.21 7.21 0 012-5.4 7.53 7.53 0 015.5-1.94 10.61 10.61 0 014.25.88l-1 2.43a7.24 7.24 0 00-3.26-.78 4 4 0 00-3.16 1.32 5.11 5.11 0 00-1.18 3.55 5.74 5.74 0 001 3.56 3.32 3.32 0 002.78 1.23 9.86 9.86 0 001.93-.19v-3h-2.71zM635.08 183.93l5.37-11.75h-7.06v-2.55h10.27v1.9l-5.41 12.4zM661.83 183.93h-3v-6.18h-5.67v6.18h-3v-14.32h3v5.62h5.67v-5.62h3zM678.38 175.73q0 4.23-1.78 6.31a6.72 6.72 0 01-5.4 2.09 10.22 10.22 0 01-1.93-.14v-2.43a7 7 0 001.73.21 6 6 0 002.5-.45 3.07 3.07 0 001.49-1.4 6 6 0 00.6-2.63h-.12a3.32 3.32 0 01-1.31 1.3 4.28 4.28 0 01-1.86.37 3.76 3.76 0 01-2.95-1.2 4.81 4.81 0 01-1.08-3.34 5 5 0 011.31-3.63 4.72 4.72 0 013.56-1.34 5.18 5.18 0 012.78.74 4.88 4.88 0 011.83 2.16 8.29 8.29 0 01.63 3.38zm-5.18-3.85a1.79 1.79 0 00-1.47.64 2.88 2.88 0 00-.53 1.86 2.59 2.59 0 00.48 1.65 1.77 1.77 0 001.46.61 2.22 2.22 0 001.58-.61 1.81 1.81 0 00.65-1.38 3.15 3.15 0 00-.61-2 1.87 1.87 0 00-1.56-.77z"/>
  <path fill="none" stroke="#1d1d1b" stroke-width="3" d="M383.7 154.74c-1.28 0-2.33 1.4-2.33 3.13v38.24c0 1.73 1.05 3.13 2.33 3.13h304.66c1.28 0 2.32-1.4 2.32-3.13v-38.24c0-1.73-1-3.13-2.32-3.13z"/>
  <path d="M539.47 5.39a171.6 171.6 0 01121.34 292.94A171.6 171.6 0 01418.13 55.65 170.49 170.49 0 01539.47 5.39m0-5A176.6 176.6 0 10716.07 177 176.6 176.6 0 00539.47.39z"/>
</svg>
