<svg xmlns="http://www.w3.org/2000/svg" xmlns:xlink="http://www.w3.org/1999/xlink" viewBox="0 0 716.07 354"><defs><clipPath id="a"><rect x="206.09" y="195.36" width="14.86" height="12.19" style="fill:none"/></clipPath><clipPath id="b"><rect x="206.2" y="226.26" width="15.26" height="11.99" style="fill:none"/></clipPath><linearGradient id="c" x1="102.19" y1="171.89" x2="476.71" y2="171.89" gradientTransform="matrix(1, 0, 0, -1, 0, 354)" gradientUnits="userSpaceOnUse"><stop offset="0" stop-color="#fff" stop-opacity="0"/><stop offset="1" stop-opacity="0.37"/></linearGradient></defs><rect x="1" y="1" width="250.3" height="351.98" style="fill:#fff"/><path d="M250.3,2V352H2V2H250.3m2-2H0V354H252.3Z" style="fill:#979797"/><rect x="2.03" y="161.67" width="248.27" height="88.38" style="fill:#f4f3fa"/><rect x="47.02" y="210.56" width="117.42" height="12.55" rx="0.88" style="fill:#fff"/><path d="M61,219.2H60v-3.7l-.35.33-.55.44-.48-.6,1.53-1.22H61Z" style="fill:#1d1d1b"/><path d="M66.91,219.2l-.34-1.13H64.84l-.35,1.13H63.41l1.67-4.77h1.23L68,219.2Zm-.58-2-.54-1.73-.09-.32c-.07.27-.27,1-.61,2Z" style="fill:#1d1d1b"/><path d="M72.91,219.2H69.59v-.7l1.19-1.21q.52-.54.69-.75a1.29,1.29,0,0,0,.23-.39.94.94,0,0,0,.07-.37.53.53,0,0,0-.15-.42.65.65,0,0,0-.42-.14,1.13,1.13,0,0,0-.54.13,2.82,2.82,0,0,0-.54.36l-.55-.65a3.43,3.43,0,0,1,.58-.42,2.23,2.23,0,0,1,.51-.19,2.48,2.48,0,0,1,.61-.07,1.91,1.91,0,0,1,.78.16,1.25,1.25,0,0,1,.53.46,1.14,1.14,0,0,1,.19.67,1.83,1.83,0,0,1-.11.61,2.39,2.39,0,0,1-.36.59,9.85,9.85,0,0,1-.85.86l-.61.58h2.07Z" style="fill:#1d1d1b"/><path d="M75,214.45h1.48a2.74,2.74,0,0,1,1.46.29,1,1,0,0,1,.46.91,1.17,1.17,0,0,1-.2.7.8.8,0,0,1-.53.33h0a1,1,0,0,1,.65.38,1.26,1.26,0,0,1,.2.73,1.22,1.22,0,0,1-.47,1,2,2,0,0,1-1.28.37H75Zm1,1.88h.59a1,1,0,0,0,.59-.13.49.49,0,0,0,.19-.42.43.43,0,0,0-.2-.39,1.41,1.41,0,0,0-.64-.12H76Zm0,.8v1.24h.66a1,1,0,0,0,.61-.16.57.57,0,0,0,.2-.49c0-.39-.28-.59-.84-.59Z" style="fill:#1d1d1b"/><path d="M85.9,215.22a1,1,0,0,0-.88.43,2,2,0,0,0-.31,1.19c0,1.06.39,1.58,1.19,1.58a3.63,3.63,0,0,0,1.21-.25V219a3.27,3.27,0,0,1-1.31.24,2,2,0,0,1-1.58-.63,2.64,2.64,0,0,1-.55-1.8,2.92,2.92,0,0,1,.27-1.3,2,2,0,0,1,.77-.85,2.24,2.24,0,0,1,1.19-.3,3.07,3.07,0,0,1,1.39.34l-.33.81-.53-.22A1.88,1.88,0,0,0,85.9,215.22Z" style="fill:#1d1d1b"/><path d="M92.25,215.51a1.11,1.11,0,0,1-.27.76,1.42,1.42,0,0,1-.76.43h0a1.46,1.46,0,0,1,.87.35,1,1,0,0,1,.3.74,1.27,1.27,0,0,1-.5,1.07,2.25,2.25,0,0,1-1.42.38A3.57,3.57,0,0,1,89.1,219v-.86a3.47,3.47,0,0,0,.61.23,2.37,2.37,0,0,0,.65.09,1.27,1.27,0,0,0,.74-.17.62.62,0,0,0,.23-.54.49.49,0,0,0-.27-.48,2,2,0,0,0-.87-.14h-.36v-.77h.37a1.7,1.7,0,0,0,.8-.14.52.52,0,0,0,.26-.5c0-.36-.23-.54-.68-.54a1.5,1.5,0,0,0-.47.08,2.73,2.73,0,0,0-.54.27l-.46-.69a2.6,2.6,0,0,1,1.55-.47,2,2,0,0,1,1.16.3A1,1,0,0,1,92.25,215.51Z" style="fill:#1d1d1b"/><path d="M98.5,216.78a2.31,2.31,0,0,1-.66,1.79,2.72,2.72,0,0,1-1.93.63H94.56v-4.75h1.49a2.54,2.54,0,0,1,1.81.61A2.25,2.25,0,0,1,98.5,216.78Zm-1,0q0-1.53-1.35-1.53h-.54v3.1H96c1,0,1.46-.5,1.46-1.55Z" style="fill:#1d1d1b"/><path d="M103.91,218.21h-.58v1h-1v-1h-2v-.69l2.08-3.07h.92v3h.58Zm-1.56-.78V216a3.23,3.23,0,0,1,0-.44h0a3.81,3.81,0,0,1-.29.52l-.87,1.31Z" style="fill:#1d1d1b"/><path d="M111.72,219.2H109v-4.75h2.74v.82H110v1h1.61v.82H110v1.23h1.73Z" style="fill:#1d1d1b"/><path d="M115.43,216.16a1.51,1.51,0,0,1,1.09.39,1.39,1.39,0,0,1,.41,1.06,1.52,1.52,0,0,1-.49,1.22,2,2,0,0,1-1.4.43,2.82,2.82,0,0,1-1.28-.25v-.87a2.54,2.54,0,0,0,.6.22,2.3,2.3,0,0,0,.64.09c.61,0,.92-.25.92-.76s-.32-.71-1-.71h-.38l-.34.07-.4-.21.18-2.42h2.58v.85h-1.7l-.09.93h.12A2,2,0,0,1,115.43,216.16Z" style="fill:#1d1d1b"/><path d="M120.14,219.2h-1v-4.75h2.72v.82h-1.73v1.23h1.61v.82h-1.61Z" style="fill:#1d1d1b"/><path d="M123.76,217.18a3.11,3.11,0,0,1,.6-2.1,2.21,2.21,0,0,1,1.78-.69,3.45,3.45,0,0,1,.64.05v.8a2.76,2.76,0,0,0-.57-.06,1.92,1.92,0,0,0-.85.16,1,1,0,0,0-.48.46,2,2,0,0,0-.2.86h0a1.08,1.08,0,0,1,1-.55,1.29,1.29,0,0,1,1,.4,1.89,1.89,0,0,1-.07,2.31,1.61,1.61,0,0,1-1.18.44,1.76,1.76,0,0,1-.92-.24,1.62,1.62,0,0,1-.61-.71A2.88,2.88,0,0,1,123.76,217.18Zm1.72,1.28a.58.58,0,0,0,.49-.22.89.89,0,0,0,.17-.61.83.83,0,0,0-.16-.55.59.59,0,0,0-.48-.2.79.79,0,0,0-.53.2.62.62,0,0,0-.21.46,1,1,0,0,0,.2.65.63.63,0,0,0,.52.27Z" style="fill:#1d1d1b"/><path d="M134.1,216.53H136V219a5.14,5.14,0,0,1-.86.21,5.69,5.69,0,0,1-.83.06,2.1,2.1,0,0,1-1.64-.63,2.68,2.68,0,0,1-.56-1.81,2.45,2.45,0,0,1,.65-1.8,2.51,2.51,0,0,1,1.83-.64,3.63,3.63,0,0,1,1.41.29l-.34.81a2.36,2.36,0,0,0-1.08-.26,1.28,1.28,0,0,0-1,.44,1.7,1.7,0,0,0-.4,1.18,1.9,1.9,0,0,0,.32,1.18,1.12,1.12,0,0,0,.92.4,3.47,3.47,0,0,0,.64-.06v-1h-.9Z" style="fill:#1d1d1b"/><path d="M138.58,219.2l1.78-3.9H138v-.84h3.4v.63l-1.79,4.11Z" style="fill:#1d1d1b"/><path d="M147.45,219.2h-1v-2h-1.88v2h-1v-4.75h1v1.86h1.88v-1.86h1Z" style="fill:#1d1d1b"/><path d="M152.94,216.48a3.2,3.2,0,0,1-.59,2.09,2.23,2.23,0,0,1-1.79.69,3.42,3.42,0,0,1-.64,0v-.81a2.22,2.22,0,0,0,.57.07,2,2,0,0,0,.83-.15,1,1,0,0,0,.49-.46,1.88,1.88,0,0,0,.2-.87h0a1.09,1.09,0,0,1-.43.42,1.33,1.33,0,0,1-.62.13,1.26,1.26,0,0,1-1-.4,1.91,1.91,0,0,1,.08-2.31,1.57,1.57,0,0,1,1.18-.45,1.77,1.77,0,0,1,.92.25,1.53,1.53,0,0,1,.61.72A2.65,2.65,0,0,1,152.94,216.48Zm-1.72-1.28a.6.6,0,0,0-.49.21,1,1,0,0,0-.17.62.89.89,0,0,0,.16.55.59.59,0,0,0,.48.2.77.77,0,0,0,.52-.2.58.58,0,0,0,.22-.46,1,1,0,0,0-.2-.65A.63.63,0,0,0,151.22,215.2Z" style="fill:#1d1d1b"/><rect x="47.02" y="210.56" width="117.42" height="12.55" rx="0.88" style="fill:none;stroke:#1d1d1b"/><line x1="35.78" y1="183.77" x2="35.78" y2="227.14" style="fill:none;stroke:#3c388d;stroke-width:0.5px"/><path d="M35.78,189.66a5.9,5.9,0,1,0-5.89-5.91v0a5.89,5.89,0,0,0,5.89,5.89" style="fill:#00a4ac"/><path d="M35.78,206.42a5.9,5.9,0,1,0-5.89-5.91h0a5.89,5.89,0,0,0,5.88,5.9h0" style="fill:#3c388d"/><path d="M35.78,237.16a5.9,5.9,0,1,0-5.89-5.91v0a5.89,5.89,0,0,0,5.89,5.89" style="fill:#3c388d"/><g style="clip-path:url(#a)"><path d="M219.36,195.36H207.7a.53.53,0,0,0-.53.53v8a.53.53,0,0,0,.53.53h11.66a.53.53,0,0,0,.53-.53v-8a.53.53,0,0,0-.53-.53" style="fill:#3c388d"/><path d="M206.11,204.63h0a1.35,1.35,0,0,0,1.33,1.33h12.18a1.34,1.34,0,0,0,1.33-1.33H206.11Z" style="fill:#3c388d"/><rect x="207.97" y="196.16" width="11.13" height="7.42" style="fill:#fff"/><path d="M215.25,207.54h-5a.38.38,0,0,1-.39-.39h0v-6.62a.38.38,0,0,1,.38-.4h5a.4.4,0,0,1,.4.4v6.62a.4.4,0,0,1-.4.4" style="fill:#3c388d"/><rect x="210.35" y="200.67" width="4.77" height="5.83" style="fill:#fff"/><path d="M208.87,207.55h-2.38a.4.4,0,0,1-.4-.4v-4.5a.4.4,0,0,1,.4-.4h2.38a.4.4,0,0,1,.4.4v4.5a.4.4,0,0,1-.4.4" style="fill:#3c388d"/><rect x="206.62" y="202.79" width="2.12" height="3.71" style="fill:#fff"/></g><rect x="207.03" y="229.21" width="13.38" height="8.22" style="fill:#fff"/><rect x="207.71" y="231.24" width="12.02" height="3.97" style="fill:#0a8243"/><g style="clip-path:url(#b)"><path d="M219.83,226.26H207.62a1.42,1.42,0,0,0-1.42,1.41v9.16a1.42,1.42,0,0,0,1.42,1.41h12.21a1.41,1.41,0,0,0,1.41-1.41h0v-9.16a1.41,1.41,0,0,0-1.41-1.41h0m.58,10.82a.34.34,0,0,1-.34.34h-12.7a.34.34,0,0,1-.34-.34v-7.82h13.38Z" style="fill:#3c388d"/></g><rect x="2.03" y="161.71" width="4.67" height="88.38" style="fill:#8f1f81"/><g style="isolation:isolate"><text transform="translate(38.09 245.17)" style="isolation:isolate;font-size:4.988513946533203px;fill:#1d1d1b;font-family:OpenSans, Open Sans"><tspan xml:space="preserve">  </tspan></text></g><path d="M211.87,188.32a1.14,1.14,0,0,1-.8-.33l-2.5-2.5a1.12,1.12,0,0,1,0-1.58h0a1.11,1.11,0,0,1,1.57,0h0l1.72,1.71,6.24-6.23a1.11,1.11,0,0,1,1.57,0h0a1.12,1.12,0,0,1,0,1.58h0l-7,7a1.11,1.11,0,0,1-.79.33" style="fill:#00a4ac"/><rect x="47.3" y="182.55" width="129.83" height="2.28" style="fill:#1d1d1b;opacity:0.6000000238418579;isolation:isolate"/><rect x="47.3" y="199.24" width="105.28" height="2.28" style="fill:#1d1d1b;opacity:0.6000000238418579;isolation:isolate"/><rect x="47.3" y="230.13" width="117.45" height="2.28" style="fill:#1d1d1b;opacity:0.6000000238418579;isolation:isolate"/><rect x="30.98" y="168.2" width="107.51" height="3.19" style="fill:#3c388d"/><rect x="30.98" y="259.73" width="70.83" height="3.19" style="fill:#3c388d"/><polygon points="450.26 24.55 96.11 215.27 470.63 339.67 450.26 24.55" style="fill:url(#c)"/><path d="M42.79,33.38a3.91,3.91,0,1,1,3.9-3.92v0a.87.87,0,0,1-.88.88h-5a2.13,2.13,0,0,0,1.94,1.25.89.89,0,0,1,.19,1.77h-.19m-1.94-4.79h3.88a2.13,2.13,0,0,0-2.82-1.06,2.11,2.11,0,0,0-1.06,1.06" style="fill:#8f1f81"/><path d="M54.46,33.33a.89.89,0,0,1-.89-.89v-3a2.13,2.13,0,1,0-4.26,0h0v3a.89.89,0,0,1-1.78,0v-3a3.91,3.91,0,0,1,7.82,0v3a.89.89,0,0,1-.89.89" style="fill:#8f1f81"/><path d="M67.3,33.33a3.92,3.92,0,0,1-3.91-3.91v-3a.89.89,0,1,1,1.78,0h0v3a2.13,2.13,0,0,0,4.26,0v-3a.89.89,0,0,1,1.78,0v3a3.92,3.92,0,0,1-3.91,3.91" style="fill:#8f1f81"/><path d="M60,28.75c-1.26-.26-1.76-.37-1.76-.83s.64-.7,1.35-.7a3.12,3.12,0,0,1,1,.2,1.17,1.17,0,0,0,.37.08.83.83,0,0,0,.83-.83h0a.85.85,0,0,0-.58-.81,4.84,4.84,0,0,0-1.64-.29c-2,0-3.2,1.16-3.2,2.32,0,1.41,1.28,2,2.76,2.35,1.13.24,1.47.33,1.47.82s-.64.67-1.41.67a3.55,3.55,0,0,1-1.67-.51.93.93,0,0,0-.33-.07.84.84,0,0,0-.37,1.59,4.73,4.73,0,0,0,2.43.64c1.9,0,3.25-1,3.25-2.29,0-1.54-1-2-2.52-2.34" style="fill:#8f1f81"/><path d="M75.73,28.75c-1.26-.26-1.76-.37-1.76-.83s.64-.7,1.35-.7a3.12,3.12,0,0,1,1,.2,1,1,0,0,0,.37.08.83.83,0,0,0,.83-.83h0a.85.85,0,0,0-.58-.81,4.84,4.84,0,0,0-1.64-.29c-2,0-3.2,1.16-3.2,2.32,0,1.41,1.29,2,2.76,2.35,1.13.24,1.47.33,1.47.82s-.64.67-1.41.67a3.6,3.6,0,0,1-1.68-.52.87.87,0,0,0-.32-.06.84.84,0,0,0-.37,1.59,4.73,4.73,0,0,0,2.43.64c1.9,0,3.25-1,3.25-2.29,0-1.54-1-2-2.52-2.34" style="fill:#8f1f81"/><path d="M35,33.38a3.91,3.91,0,1,1,2.86-6.57A.87.87,0,1,1,36.58,28a2.16,2.16,0,1,0,0,2.92.89.89,0,0,1,1.3,1.21A3.88,3.88,0,0,1,35,33.38" style="fill:#8f1f81"/><path d="M47.94,36.26a3.21,3.21,0,0,0-2,.64,1.64,1.64,0,0,0-.68,1.23c0,.49.5.58.7.58h0a1.76,1.76,0,0,1,1.82-1.43c1,0,1.52.46,1.52,1.24s-.88,1.17-1.86,1.65-2.3,1.24-2.3,2.77v.29c0,.47.22.64.74.64H50.1c.4,0,.57-.17.57-.48v-.07c0-.3-.17-.46-.57-.46H46.33a1.82,1.82,0,0,1,0-.33c.2-.8,1-1.21,2-1.65s2.19-1,2.19-2.39-1-2.22-2.6-2.22M41.12,43c-1.2,0-1.9-.9-1.9-2.46V39.7c0-1.56.69-2.46,1.9-2.46S43,38.16,43,39.73v.83c0,1.56-.69,2.45-1.92,2.45m13.41-6.66h-.4L51.9,37.81c0,.4.22.73.61.73a1,1,0,0,0,.61-.25c.22-.18.41-.38.86-.74v5.31H52.73c-.36,0-.54.15-.54.48v.06c0,.32.18.46.54.46h3.32c.36,0,.54-.14.54-.46v-.06c0-.33-.18-.48-.54-.48h-1v-6a.49.49,0,0,0-.44-.54h-.09m-20.07-.09a3.21,3.21,0,0,0-2,.64,1.67,1.67,0,0,0-.67,1.23c0,.49.49.58.69.58h.09a1.76,1.76,0,0,1,1.82-1.43c1,0,1.52.46,1.52,1.24S35,39.68,34,40.16s-2.3,1.24-2.3,2.77v.29c0,.47.22.64.74.64h4.15c.39,0,.56-.17.56-.48v-.07c0-.3-.17-.46-.56-.46H32.85a1.82,1.82,0,0,1,0-.33c.2-.8,1-1.21,2-1.65s2.19-1,2.19-2.39-1-2.22-2.6-2.22m6.66,0c-1.91,0-3.1,1.35-3.1,3.5v.76C38,42.68,39.16,44,41.1,44s3.11-1.36,3.11-3.51v-.75c0-2.15-1.18-3.49-3.11-3.49" style="fill:#ad65a5"/><path d="M208.51,27.7c-.11.21-.21.34-.19.5s.18.28.26.44c.08-.19.2-.33.19-.48s-.22-.35-.26-.46" style="fill:#2d2d2b"/><path d="M211.35,27.7a1,1,0,0,1,.19.5c0,.16-.19.28-.27.44-.07-.19-.19-.33-.18-.48s.22-.35.26-.46" style="fill:#2d2d2b"/><path d="M206.88,27.58a.21.21,0,0,0,.19-.19.2.2,0,0,0-.19-.19h0a.19.19,0,0,0-.2.18h0a.2.2,0,0,0,.2.19" style="fill:#2d2d2b"/><path d="M207,27.85a.19.19,0,1,0-.19.19.2.2,0,0,0,.19-.19" style="fill:#2d2d2b"/><path d="M207.1,28.32a.19.19,0,0,0-.19-.19h0a.2.2,0,0,0-.19.19h0a.21.21,0,0,0,.19.19.2.2,0,0,0,.2-.19" style="fill:#2d2d2b"/><path d="M207.94,26.66a.2.2,0,0,0,.19-.19h0a.21.21,0,0,0-.19-.19.2.2,0,0,0-.2.19.19.19,0,0,0,.19.19h0" style="fill:#2d2d2b"/><path d="M207.46,26.81a.19.19,0,1,0-.19-.19.18.18,0,0,0,.17.19h0" style="fill:#2d2d2b"/><path d="M207.09,27.14a.21.21,0,0,0,.19-.19.2.2,0,0,0-.19-.19h0a.19.19,0,0,0-.2.18h0a.2.2,0,0,0,.2.19" style="fill:#2d2d2b"/><path d="M208.44,26.71a.21.21,0,0,0,.19-.19.2.2,0,0,0-.19-.19h0a.18.18,0,0,0-.19.17v0a.2.2,0,0,0,.19.19h0" style="fill:#2d2d2b"/><path d="M208.91,26.85a.2.2,0,0,0,.19-.19h0a.19.19,0,0,0-.18-.2h0a.2.2,0,0,0-.19.2.21.21,0,0,0,.19.19" style="fill:#2d2d2b"/><path d="M209.36,27.06a.2.2,0,0,0,.19-.19h0a.19.19,0,1,0-.19.19h0" style="fill:#2d2d2b"/><path d="M212.78,27.39a.2.2,0,0,0,.2.19.21.21,0,0,0,.19-.19.2.2,0,0,0-.15-.24.2.2,0,0,0-.24.15.14.14,0,0,0,0,.09" style="fill:#2d2d2b"/><path d="M213,27.66a.2.2,0,0,0-.19.19h0a.19.19,0,1,0,.19-.19h0" style="fill:#2d2d2b"/><path d="M213,28.13a.19.19,0,0,0-.2.18h0a.2.2,0,0,0,.2.19.21.21,0,0,0,.19-.19.2.2,0,0,0-.19-.19h0" style="fill:#2d2d2b"/><path d="M211.91,26.66a.19.19,0,0,0,.2-.18h0a.2.2,0,0,0-.2-.19.21.21,0,0,0-.19.19.2.2,0,0,0,.19.19h0" style="fill:#2d2d2b"/><path d="M212.39,26.81a.2.2,0,0,0,.19-.19.19.19,0,0,0-.19-.19.2.2,0,0,0-.19.19.19.19,0,0,0,.19.19" style="fill:#2d2d2b"/><path d="M212.77,27.14A.2.2,0,0,0,213,27a.2.2,0,0,0-.19-.19h0a.19.19,0,0,0-.2.18h0a.2.2,0,0,0,.2.19" style="fill:#2d2d2b"/><path d="M211.41,26.71a.2.2,0,0,0,.19-.19h0a.18.18,0,0,0-.17-.19h0a.2.2,0,0,0-.19.19h0a.21.21,0,0,0,.19.19" style="fill:#2d2d2b"/><path d="M210.94,26.85a.21.21,0,0,0,.19-.19.2.2,0,0,0-.19-.2.19.19,0,0,0-.19.19h0a.2.2,0,0,0,.19.19h0" style="fill:#2d2d2b"/><path d="M210.3,26.87a.19.19,0,1,0,.19-.19.2.2,0,0,0-.19.19" style="fill:#2d2d2b"/><path d="M209.6,27.9h.21v-.82a.83.83,0,0,1-.21-.06Z" style="fill:#2d2d2b"/><path d="M210.25,27a.83.83,0,0,1-.21.06v.82h.21Z" style="fill:#2d2d2b"/><path d="M209.8,26.11v-.49a.61.61,0,0,0-.47.49Z" style="fill:#2d2d2b"/><path d="M210.05,26.11h.47a.61.61,0,0,0-.47-.49Z" style="fill:#2d2d2b"/><path d="M209.34,26.34a.6.6,0,0,0,.72.45.61.61,0,0,0,.45-.45Z" style="fill:#2d2d2b"/><path d="M210.26,25.54a.66.66,0,0,1-.27-.42.77.77,0,0,1,.44.28v-.66A.74.74,0,0,1,210,25a1,1,0,0,1,.26-.47h-.64a1,1,0,0,1,.25.47.73.73,0,0,1-.44-.27v.66a.77.77,0,0,1,.44-.28.66.66,0,0,1-.27.42Z" style="fill:#2d2d2b"/><path d="M211,38.72a12.85,12.85,0,0,1-2-.71h0a.49.49,0,0,0-.14-.41.49.49,0,0,0-.38-.18.54.54,0,0,0-.18,0,3.7,3.7,0,0,1-.28-.28,3.61,3.61,0,0,1-.59-1,3.88,3.88,0,0,1-.18-.69.6.6,0,0,1-.63.46v-.15a.47.47,0,0,1-.59.11,5.45,5.45,0,0,0,.22.79,4.87,4.87,0,0,0,.87,1.45,3.59,3.59,0,0,0,.39.39.11.11,0,0,0,0,.08.61.61,0,0,0,.33.46.46.46,0,0,0,.5-.06,5.17,5.17,0,0,0,1.07.42,5.09,5.09,0,0,0,1.23.19,2.13,2.13,0,0,0,1.06-.38,3.08,3.08,0,0,0,.41-.3h0a3.52,3.52,0,0,1-1.12-.14m-2.21-.91h-.06a.22.22,0,0,0-.31,0h0l-.14.15-.07.07h.05c.12.1.14.21.1.27a.1.1,0,0,1-.06,0,.41.41,0,0,1-.24-.06h0v0h0a.58.58,0,0,0-.08.22h0a.18.18,0,0,0,.12.12h0l.19.12a.32.32,0,0,1-.33,0,.52.52,0,0,1-.27-.36,1,1,0,0,1,.18-.51h0a.89.89,0,0,1-.08-.17H208a1,1,0,0,1,.56-.33.39.39,0,0,1,.3.14.44.44,0,0,1,.11.24l-.11-.09m.39,1.15a.26.26,0,1,1,.26-.26h0a.26.26,0,0,1-.26.25m1.13.35a.24.24,0,0,1,0-.47h0a.24.24,0,0,1,.24.24h0a.23.23,0,0,1-.23.23h0" style="fill:#2d2d2b"/><path d="M210.58,40.51h-.12V39.8a4.68,4.68,0,0,1-1.05-.16v.89h-.13a.41.41,0,0,0-.41.41h0a.74.74,0,0,0,.2.46c.05-.11.09-.2.16-.2s.06.62.43.64v.1a.29.29,0,1,0,.58,0v-.1c.37,0,.31-.64.43-.64s.11.08.16.2a.73.73,0,0,0,.21-.46.41.41,0,0,0-.41-.41h0M210,42.1a.16.16,0,1,1,.16-.16.16.16,0,0,1-.16.16h0m.86-.91a.21.21,0,0,0-.16-.13c-.25,0-.15.65-.44.65a.18.18,0,0,1-.2-.16h0c0-.09.06-.12.06-.19s-.05-.1-.12-.1-.12,0-.12.1.06.1.06.19a.17.17,0,0,1-.17.17h0c-.3,0-.2-.65-.45-.65a.42.42,0,0,0-.16.13.55.55,0,0,1-.07-.25.29.29,0,0,1,.28-.29c.33,0,.25.45.41.45a.11.11,0,0,0,.12-.1h0c0-.13-.23-.25-.23-.43s.17-.34.35-.48c.19.14.35.3.35.48s-.23.3-.23.43a.11.11,0,0,0,.11.11h0c.16,0,.09-.45.41-.45a.29.29,0,0,1,.29.29.57.57,0,0,1-.08.25" style="fill:#2d2d2b"/><path d="M219.07,41.38a.09.09,0,0,0-.1-.05c-.84.24-1.89-.46-2.91-1.13a5,5,0,0,0-2.35-1.11,1.45,1.45,0,0,0-.68.16,1.19,1.19,0,0,0-.54.63,3.78,3.78,0,0,1-.33.63A.84.84,0,0,0,212,41a.51.51,0,0,0,.18.38,1.94,1.94,0,0,0,.44.31l.13.06c.17.08.27.14.29.23a5.5,5.5,0,0,1-1.26.36,11.71,11.71,0,0,1-3.61,0,5.65,5.65,0,0,1-1.26-.36c0-.14.12-.2.3-.28l.13-.07a4,4,0,0,0,.44-.27A.46.46,0,0,0,208,41a.93.93,0,0,0-.2-.48,3.78,3.78,0,0,1-.33-.63,1.19,1.19,0,0,0-.54-.63,1.45,1.45,0,0,0-.68-.16,5,5,0,0,0-2.35,1.11c-1,.68-2.07,1.38-2.92,1.13a.08.08,0,0,0-.09,0h0a.07.07,0,0,0,0,.09,3.36,3.36,0,0,1,.71.47,1.62,1.62,0,0,0,.91.46,2.24,2.24,0,0,0,1-.3c.34-.2.68-.42,1-.65a4.73,4.73,0,0,1,2-1,1.8,1.8,0,0,1-.2.19.77.77,0,0,0-.36.63,1.3,1.3,0,0,0,.2.64l.11.24a3.68,3.68,0,0,1,.15.47.46.46,0,0,0,.06.26,1,1,0,0,0,.6.7,9.91,9.91,0,0,0,5.71,0,1,1,0,0,0,.6-.7.89.89,0,0,1,.07-.26,3.68,3.68,0,0,1,.15-.47,2.1,2.1,0,0,1,.15-.3,1.12,1.12,0,0,0,.18-.56.84.84,0,0,0-.38-.64c-.06-.06-.13-.12-.2-.2a5,5,0,0,1,2,1,9.6,9.6,0,0,0,1,.66,2.24,2.24,0,0,0,1,.3,1.58,1.58,0,0,0,.91-.47,4.1,4.1,0,0,1,.71-.46.07.07,0,0,0,0-.09" style="fill:#2d2d2b"/><path d="M214,34.6a1.1,1.1,0,0,1-.33-.38l-.59-1.14a.46.46,0,0,1-.08-.25.4.4,0,0,1,.09-.21,2.16,2.16,0,0,0,.16-.19l.07-.1a3.42,3.42,0,0,0-.51-.69,4.27,4.27,0,0,0-.82-.71.56.56,0,0,0,.33-.5.46.46,0,0,0-.17-.36,4.6,4.6,0,0,1,.73-1.49l-.54-.22a.82.82,0,0,1,.12.61.67.67,0,0,1-.31-.41,2.06,2.06,0,0,1-.2.59.51.51,0,0,1,.45,0,.69.69,0,0,1-.69.23c-.19-.05-.38-.15-.37-.3a.18.18,0,0,1,.17-.19h0c.12,0,.12.19.09.27.15-.08.31-.54.07-.61s-.37.21-.43.41c0-.24-.14-.47-.33-.46s-.17.48-.08.6c0-.16.1-.25.18-.24s.15.05.14.19-.23.24-.47.24a.59.59,0,0,1-.67-.5h0a.83.83,0,0,1,.48.29,3.05,3.05,0,0,1,0-.74.69.69,0,0,1-.47.29.87.87,0,0,1,.39-.51h-1a.87.87,0,0,1,.39.51.8.8,0,0,1-.47-.29,3.05,3.05,0,0,1,0,.74.83.83,0,0,1,.48-.29.6.6,0,0,1-.67.51c-.24,0-.45-.09-.47-.24s.07-.19.14-.19.16.08.18.24c.08-.12.17-.58-.08-.6s-.3.22-.33.46c-.07-.2-.24-.46-.43-.41s-.08.53.07.61c0-.08,0-.26.09-.27a.18.18,0,0,1,.19.17v0c0,.15-.18.25-.38.3a.68.68,0,0,1-.68-.23.51.51,0,0,1,.45,0,2.57,2.57,0,0,1-.2-.59.67.67,0,0,1-.31.41.87.87,0,0,1,.12-.61l-.54.22a4.81,4.81,0,0,1,.73,1.49.42.42,0,0,0-.16.36.6.6,0,0,0,.32.5,4.27,4.27,0,0,0-.82.71,4.87,4.87,0,0,0-.87,1.45c.08.08.4.43.48.53a1,1,0,0,1,.22.47.69.69,0,0,0,.19.51.89.89,0,0,1,.11.36h2.69V37.9a.46.46,0,0,0-.31.15c.32.12.61.24.91.33a.74.74,0,0,1,.17-.43L210,37.9V35h2.64a3.89,3.89,0,0,1-.21,1.17,3.29,3.29,0,0,1-.6,1,2.77,2.77,0,0,1-.87.69c-.05,0-.05.06-.11.08a.92.92,0,0,0-.13.24,1.31,1.31,0,0,0-.06.27l.31.09c.93.23,1.16.16,1.21.12h0a3.78,3.78,0,0,0,.58-.55,4.38,4.38,0,0,0,.87-1.45,5.2,5.2,0,0,0,.32-1.79V34.6m-4.11.21h-2.7a3.86,3.86,0,0,1,.22-1.21,3.61,3.61,0,0,1,.59-1,2.77,2.77,0,0,1,.87-.69,2.31,2.31,0,0,1,1-.25Zm0-4.5a3.36,3.36,0,0,0-1.88.5c-.21-.12-.3-.24-.3-.38,0-.52,1.45-.56,2.18-.56h0c.74,0,2.18,0,2.18.56,0,.14-.09.26-.3.38a3.36,3.36,0,0,0-1.88-.5m.11,4.5V31.63a2.46,2.46,0,0,1,1,.25,2.54,2.54,0,0,1,.87.69,3.17,3.17,0,0,1,.6,1,3.58,3.58,0,0,1,.21,1.21Z" style="fill:#2d2d2b"/><path d="M212.26,34.29c.05,0,0,.1,0,.09a3.09,3.09,0,0,0-.51-1.34h0a.18.18,0,0,0,.11-.14.18.18,0,0,0-.17.07l-.06-.07a2.65,2.65,0,0,0-.57-.54,2.18,2.18,0,0,0-.64-.29,0,0,0,0,1,.1,0c0-.09-.06-.13-.11-.11a.06.06,0,0,0,0,.06.23.23,0,0,0-.12-.06.15.15,0,0,0,0,.13.09.09,0,0,0-.07,0,.1.1,0,0,0,.07.13h0v.9a.17.17,0,0,0-.17,0,.17.17,0,0,0,.17,0v1.12s-.07-.06,0-.09-.12.07-.1.11,0,.05.08,0a.07.07,0,1,0,0,.14s.06,0,.06-.06a.06.06,0,0,0,0,.08s.11,0,.11-.1-.09,0-.09,0h.77a.22.22,0,0,0,.05.17.17.17,0,0,0,0-.17h.87m-.09,0a.07.07,0,0,0,.06.09,0,0,0,0,0,.05,0,.06.06,0,0,0,0-.08.24.24,0,0,0,.12,0,.17.17,0,0,0,0-.12h.09a.1.1,0,0,0-.11-.11m-.74-1.37a0,0,0,0,0,0,.07l.08.06a.24.24,0,0,0-.06.11h.12a.08.08,0,0,0,0,.09h.07a3,3,0,0,1,.4,1.07.17.17,0,0,0-.1,0,.19.19,0,0,0,0,.13h-.66v-.09a.07.07,0,0,0-.09,0,.24.24,0,0,0,0-.12.17.17,0,0,0,0,.12.07.07,0,0,0-.09,0v.09h-.56a.24.24,0,0,0,0-.12.11.11,0,0,0-.11,0V33.4a.06.06,0,0,0,.09-.09.16.16,0,0,0,.11-.05.11.11,0,0,0-.11,0,.06.06,0,0,0-.09-.09V32.4h.09a.11.11,0,0,0,0-.11,2.41,2.41,0,0,1,.51.25,3,3,0,0,1,.52.48" style="fill:#2d2d2b"/><path d="M211.8,34a.11.11,0,0,0,.07-.06h-.07c-.06,0-.06,0-.09,0s-.24,0-.24-.16a.13.13,0,0,0,.07.06h.12a.08.08,0,0,0,.08-.08c0-.08-.07-.13-.17-.2a.44.44,0,0,1-.17-.31.17.17,0,0,0,0-.1.31.31,0,0,0,0,.33c.09.09.28.19.27.27h0a.15.15,0,0,1-.06,0,1.59,1.59,0,0,1-.2-.24.25.25,0,0,1,0-.31.22.22,0,0,0-.1-.29.14.14,0,0,0,0-.09h-.42v0h.17A.4.4,0,0,0,211,33l-.07-.07a.24.24,0,0,0-.08-.09l-.08-.07v-.17h0v-.06h-.05v.06c0,.06-.07,0-.06,0s0,.1.07.08,0,.06,0,.06h0a.36.36,0,0,0,.19.21.53.53,0,0,0-.14.12s-.07.07-.1,0h-.11v.07h.08v.07h0a0,0,0,0,0,.07,0h0v-.06h0m.05,0h.11s0,0,.06-.06H211a.09.09,0,0,1,0-.07c0,.16.22.16.27.26a.28.28,0,0,0-.18,0,.19.19,0,0,0-.16.12.24.24,0,0,0,.09.18h-.14c-.05,0-.06-.08-.12,0h0s-.06,0-.05,0h0s-.08,0-.06,0h0m.06,0h.13s0,0,0-.06v-.09a.14.14,0,0,1,.16-.12.35.35,0,0,0,.21.23c.08,0,.11,0,.13,0h0v.09s-.05,0-.08,0h0a0,0,0,0,0-.05,0h0m.07,0h0v.06h0v0h0v.06h.06V33.7h0Z" style="fill:#2d2d2b"/><path d="M209.58,35.49h-.05a.24.24,0,0,0-.2-.28h-.06a4.2,4.2,0,0,1-.85.2,1,1,0,0,1-.51-.17v.13h0a.11.11,0,0,0-.1-.11.11.11,0,0,0-.11.11h0a.11.11,0,0,0,.11.1h.07l0,.12h.06a1.69,1.69,0,0,0,1.21,1.66c.12,0,.24,0,.24.12a.1.1,0,0,1-.09.11h0s-.08,0-.08-.06.09,0,.1-.06,0-.07-.07-.07a.13.13,0,0,0-.14.12h0a.18.18,0,0,0,.18.18.24.24,0,0,0,.26-.22v-.05h.1V37.2h0V35.77h0s.1,0,.1-.08,0-.08-.08-.09m-1.47.11,1,1.42a1.39,1.39,0,0,1-1-1.42m1,1.29-.89-1.3h.22l.72,1V37m.07-.41-.63-.92a.66.66,0,0,0,.2-.06l.48.69a.61.61,0,0,1-.05.29m.15-1h0s-.1,0-.1.07,0,.09.09.1h0a.94.94,0,0,1-.06.36l-.4-.57a1.92,1.92,0,0,1,.42-.16c.06,0,.08,0,.06.16" style="fill:#2d2d2b"/><path d="M209.41,32.62c.19,0,.28-.06.28-.12s-.53-.08-.53-.21v-.06h0c.27,0,.27-.21.46-.24-.23,0-.26.14-.36.15a.12.12,0,0,0,.07-.11c0,.06-.15.07-.21.14h0a.11.11,0,0,0,0,.08c0,.2.53.06.53.21s-.09.08-.24.08-.19-.08-.39,0c0,0,.07-.1,0-.13h-.13v.06h0v.12h0v-.14h0a0,0,0,0,0,0-.05h-.05m-.06,0h-.06s0,.09.06.06h0l.05.06h-.21s-.1,0-.13,0h0v.06h0m0,.05h0v0a0,0,0,0,0,0,0h.06v0s0,0,.09-.08h.06m.06,0h0l.12-.05s-.06-.09.14-.08H209v.09h0s0-.07-.1,0h0s-.06,0-.05,0h0v0H209v-.13h.18v.06c0,.06,0,0-.07,0h0v0h0v.05h0v-.05h-.21m-.59-.21h0m.14,0h.06m0,0h.06m-.06.13h.05" style="fill:#2d2d2b"/><path d="M209.67,33.34c0-.06-.06-.09-.25-.09s-.61.07-.61,0,.08,0,.18,0h0c.24.07.53-.06.68,0-.18-.14-.32,0-.51,0,.11,0,.15,0,.15-.06s-.24,0-.34,0h0c-.13,0-.24,0-.24.08s.51.08.67.08.19,0,.19,0-.16,0-.25,0a3.57,3.57,0,0,0-.8,0s.06-.09,0-.12h-.15a.09.09,0,0,0,0,.07s0,.06-.07,0h0s0,.08,0,.08h0a.11.11,0,0,1,0,.08h0l-.08-.07v-.17h0v-.06h0s0-.05-.05,0H208v.06h-.07a.06.06,0,0,0,0,.08h0l.08.07c.08.07.06,0,.08,0s0,.08,0,.08H208s-.12,0-.15,0v0h-.1s0,0,.08,0h0s-.05,0,0,.07h0s0,0,0,.06h0v-.06h.13v.06c0,.06,0-.06.11-.09h0a.19.19,0,0,0,.16-.11h.06c.16,0,.05-.14.31-.1h.07v.12H209c-.05,0-.05-.08-.11-.06H209v-.16h.37v.07c0,.07,0,0-.07,0h0m.05,0h0s-.05,0,0,0h0v-.12h0a0,0,0,0,0,0,0h-.2c.12,0,.3,0,.3-.1m-1.47.11h0m.3-.27h.07m0,0h0v0h.06m-.07.15h0m.16.33h0" style="fill:#2d2d2b"/><path d="M209.59,34.17c0-.06-.06-.09-.24-.09s-.73.07-.73,0,.18,0,.32,0h0c.23.06.47-.09.64,0-.13-.12-.3,0-.48,0h-.18c-.17,0-.37,0-.37.07s.62.08.78.08h.18a.87.87,0,0,1-.24.06,4.18,4.18,0,0,0-1,0s.07-.1,0-.13h-.14a.06.06,0,0,0,0,.06s0,.06-.06,0h0s0,.07,0,.07h0s0,0-.1-.08,0,0,0-.07v-.09h0m-.05,0h0v.06h0s-.07,0-.07,0,0,.1.08.07h0l.12.11h0v.07h-.15s-.11,0-.14,0h-.06s-.06,0,0,.06h.07s0,0,0,.07h0v0h0v0h.3v0c0,.05.1,0,.15-.07h.22c.29,0,.12-.13.47-.09h0v.1H209s0-.08-.11,0h-.1m.06,0h.09v-.15h.11a.17.17,0,0,0,.14,0h.1v.07c0,.07,0,0-.06,0h0v0h0v-.06c0-.06.05,0,.05-.05H209c.1,0,.29,0,.29-.1M208.27,34h.08m0,0h.06m-.06.14h.06" style="fill:#2d2d2b"/><path d="M212.14,35.55h0a.74.74,0,0,1-.21,0h0s.29,0,.29-.09-.06-.09-.24-.09-.73.07-.73,0,.19,0,.33,0h0c.23.06.49-.11.63-.07a1.24,1.24,0,0,0-.47,0h-.18c-.17,0-.38,0-.38.08s.63.07.78.07h.19a1,1,0,0,1-.24,0,4.18,4.18,0,0,0-1,0s.07-.1,0-.13h-.12a.09.09,0,0,0,0,.07h-.07v.07h-.09s0,0-.09-.07,0,0,0-.08v-.09h0v-.06h-.12v0h.06v.06h0c0,.06-.07,0-.07,0a.06.06,0,0,0,0,.08h.05a.32.32,0,0,0,.11.12h0v.07h-.31v0h0v0h0s0,.05.07,0h0s-.05,0,0,.06h0a0,0,0,0,0,0,0h0v0h0v-.06h0v.06a.1.1,0,0,0,.05-.06h.07s.05,0,.1-.08h0s.09,0,.09-.06h.11c.3,0,.13-.13.48-.09h0v.1h0s-.06-.08-.11-.06h0a0,0,0,0,0-.05,0h-.06m.05,0h0m.06,0h0v0h.08a.08.08,0,0,0,0-.09v-.06h.26a.09.09,0,0,1,.1,0h0v.06c0,.06,0,0-.07,0h0m0,0h0s-.06,0,0,.06h0v0h0v0h0V35.4h0v0M210.34,35h.07V35m0,0h0c-.05,0,0,0,0,0h.07m-.07.14Zm0-.14h0m.26.42h0" style="fill:#2d2d2b"/><path d="M211.34,36h0c.22.07.47-.1.6-.06-.17-.06-.28,0-.45,0h-.17c-.13,0-.22,0-.22.07s.45.07.6.07h.12a1.16,1.16,0,0,1-.24.05,3,3,0,0,0-.73,0s.06-.09,0-.11h-.13a.06.06,0,0,0,0,.06s-.05.05-.06,0h0v.06h0v.07h-.09v-.15h0a0,0,0,0,0,0,0h0m-.05,0h-.06v0h.06v0h-.06s0,.1.08.07h.07v.09h-.26s-.06,0,0,.06h.07v.06h0a.06.06,0,0,1,0,.06.05.05,0,0,0,0-.06h.07a.15.15,0,0,0,.12-.09h0s.1,0,.12-.08h.07c.07,0,0-.13.27-.09h.06s0,.1,0,.1h0s0-.07-.1,0h0m0,0H211m.06,0h.08s0-.06,0-.08v-.06a.17.17,0,0,0,.1,0,.43.43,0,0,0,.16,0,.07.07,0,0,1,.09,0h0v.06c0,.06,0,0-.06,0h-.05s-.06,0,0,0h0v-.06s.05,0,.06,0h-.23c.1,0,.3,0,.3-.09s0-.08-.18-.08-.56.06-.56,0,.08,0,.17,0m-.56,0h.06m0,.11h.06m0,0v0h.07" style="fill:#2d2d2b"/><path d="M211.16,36.8h0c.22.06.47-.1.6-.07-.17-.06-.28.05-.45,0a.37.37,0,0,0,.21,0c-.08.05-.29,0-.38,0h0s-.12,0-.12.1.56,0,.56.08-.11.07-.26.07a1.69,1.69,0,0,0-.55,0h0s.07-.11,0-.14h-.1a.06.06,0,0,0,0,.06h-.06s0,.06,0,.06h0a.33.33,0,0,0,0,.14.76.76,0,0,0-.13-.14s0,0,0-.07v-.07h0v0h-.05v.06h-.06m.07.06h0a.14.14,0,0,0,.07.11.06.06,0,0,0,.08,0v.06h-.18m-.05,0h0s-.06,0,0,0h0s0,0,.06,0h0l.09-.07h0s.07,0,.07,0a.24.24,0,0,0,0-.12h0c.06,0,.09,0,.15,0a.14.14,0,0,0,0,.09V37h0s0-.07-.1-.05h0m0,.05h.06v-.08a.25.25,0,0,0-.06-.17c-.06-.05.16,0,.18,0h.09m-.06,0h0v-.06H211c.06,0,.05,0,0,0s-.09,0-.09-.09h.06c.19,0,.31,0,.3-.11s-.57,0-.57-.09,0,0,.08-.06m-.42,0h.07m0,0h.06m-.06.13h0" style="fill:#2d2d2b"/><path d="M201.94,26.88a.14.14,0,1,0-.14.14h0a.14.14,0,0,0,.14-.14" style="fill:#2d2d2b"/><path d="M201.89,26.51a.14.14,0,1,0-.14.14.14.14,0,0,0,.14-.14" style="fill:#2d2d2b"/><path d="M202,26.35a.14.14,0,1,0-.14-.14.14.14,0,0,0,.14.14" style="fill:#2d2d2b"/><path d="M202.34,26.32a.13.13,0,0,0,.13-.13h0a.13.13,0,0,0-.12-.14h0a.14.14,0,0,0-.14.14.13.13,0,0,0,.13.13h0" style="fill:#2d2d2b"/><path d="M203.9,26.07a.14.14,0,1,0,0-.2.15.15,0,0,0,0,.2" style="fill:#2d2d2b"/><path d="M203.87,25.77a.12.12,0,0,0,0-.17s0,0,0,0a.13.13,0,1,0,0,.19" style="fill:#2d2d2b"/><path d="M203.51,25.72a.14.14,0,1,0-.2,0,.15.15,0,0,0,.2,0" style="fill:#2d2d2b"/><path d="M203.19,26a.13.13,0,0,0,0-.18l0,0a.14.14,0,0,0-.19,0,.13.13,0,0,0,0,.18l0,0a.14.14,0,0,0,.19,0" style="fill:#2d2d2b"/><path d="M202.31,25.76l.12.24.13-.17h0v.3a.18.18,0,0,0,.17.17.18.18,0,0,0,.18-.17.17.17,0,0,0-.09-.16,1.12,1.12,0,0,1-.2-.18h.23l-.09-.25-.17.15h0v-.25l-.25.09.17.19h0Z" style="fill:#2d2d2b"/><path d="M203.91,26.19a.33.33,0,0,1,.08.19.47.47,0,0,1-.15-.13v.32a.34.34,0,0,1,.12-.12c0,.21-.1.3-.17.31a.13.13,0,0,1-.16-.1h0c0-.09.06-.15.14-.06,0-.2-.14-.19-.21-.11a.28.28,0,0,0-.07-.39l0,0a.3.3,0,0,0,.05.41h0c-.13-.07-.24,0-.13.19,0-.13.13-.1.16,0s-.06.19-.2.23a.27.27,0,0,1-.31-.17c0-.11.14,0,.26.05l-.1-.31a.3.3,0,0,1-.19.19,1.27,1.27,0,0,1,.06-.28l-.38.16a1,1,0,0,1,.24.15.32.32,0,0,1-.27,0l.15.29a.23.23,0,0,1,.15-.22s.08.25-.1.34a.23.23,0,0,1-.31,0c-.05-.08,0-.18.11-.11,0-.18-.17-.18-.22,0,0-.19,0-.3-.24-.35,0,.18,0,.29.2.37-.1,0-.22.1-.07.22,0-.11.1-.13.15,0a.13.13,0,0,1,0,.18h0a.56.56,0,0,1-.34-.1.22.22,0,0,1,.16,0l-.2-.25a.31.31,0,0,1,0,.19A.32.32,0,0,1,202,27l-.16.14a1.75,1.75,0,0,1,.53.52,4.71,4.71,0,0,1,.84-.42,5.78,5.78,0,0,1,.89-.29,1.8,1.8,0,0,1,0-.73Z" style="fill:#2d2d2b"/><path d="M206.94,35c.05-.15-.22-.32-.25-.53a1,1,0,0,0-.25-.7c-.23-.27-1.06-1.16-1.31-1.44a.4.4,0,0,1,.36.11l.43.41a4.4,4.4,0,0,1,.88-1.41l.15-.16a2.16,2.16,0,0,0-.49.16.73.73,0,0,0-.16-.59c.07-.34,0-.75-.75-1.26.39.1.62.45.92.18-.27,0-.27-.59-1.24-1.07.37,0,.66.58,1.08.25-.4-.05-.53-.77-1.26-1,.25,0,.51.15.73-.14-.25.06-.4-.17-.67-.19a.87.87,0,0,0,0-.74.89.89,0,0,0-.52.19c0-.18-.2-.19-.36-.17v.19a7,7,0,0,0-.89.27,5,5,0,0,0-.82.44.25.25,0,0,1-.17-.11c0-.05-.23.23-.15.36a1,1,0,0,0-.56.2.65.65,0,0,0,.44.54c-.44.45,0,.86-.43,1.24.55,0,.46-.75.73-.85,0,.54-.33.64-.33,1.22,0,.31.19.65,0,.86.47-.13.34-1.15.63-1.46a.92.92,0,0,1,0,.52c-.16.48,0,1.13-.23,1.34.47-.05.53-.8.92-1.08a24.57,24.57,0,0,1-1.18,2.86c-.8,1.09-1.28,2.41-2,2.41a.55.55,0,0,1-.57-.53v-.08c0-1.23,2.12-2.08,2.12-3.4A.79.79,0,0,0,201,31h0a1,1,0,0,0-.64.27.54.54,0,0,0-.25-.06c-.75,0-.55,1.35-1.21,1.34.26.14.71-.14,1-.52-.11.88-1.36.64-1.27,1.69.18-.82,2.18-.7,2.18-1.94a.47.47,0,0,0-.17-.35.71.71,0,0,1,.42-.14.46.46,0,0,1,.46.48v.05c0,1.11-2.11,2-2.11,3.39a1,1,0,0,0,.18.57.37.37,0,0,1-.43-.11c0,.34.49.56.8.39h.22a.6.6,0,0,1-.59.33c.52.4,1.42-.13,1.37-.59a7.66,7.66,0,0,0,1-1.27,2.38,2.38,0,0,0,0,.26A4.42,4.42,0,0,0,201,36.6c-.07.61-.38,1.15-.8,1.15-.09,0-.25-.12-.32-.06s0,.24,0,.35-.33.34-.33.88c0,.24.14.52.09.68A1,1,0,0,0,200,39c.14.7-.3.67,0,1.29a.25.25,0,0,1,.27-.23.19.19,0,0,1,.1,0c.13.08.07.14,0,.24s-.17.56.25.53c-.08,0-.08-.18.13-.22s.38.07.69.07.24-.25.4-.25.15.12.1.21c.24-.07.29-.2.29-.34s-.11-.23,0-.28.37,0,.26.24a.28.28,0,0,0,.23-.31c0-.18-.21-.29-.4-.25,0-.12-.2-.18-.35-.18-.35,0-.3.27-.53.27-.38,0-.75-.49-.75-1.32,0-.44.48-.56.82-.7a3,3,0,0,0,1.29-1.11,2.73,2.73,0,0,0,.25-1.59,1,1,0,0,1,.53,1,.58.58,0,0,1-.34.59c-.13.06-.17,0-.19.11a.17.17,0,0,0,.1.18c.18.09.14.25.19.43a1.44,1.44,0,0,0,.47.67,2.26,2.26,0,0,0,0-.52c.37.18.07.92.78.92a.19.19,0,0,1,0-.27l0,0c.08,0,.17.05.31.24s.1.18.44.18.19-.12.36-.12.17.21.07.36a.39.39,0,0,0,.33-.44.56.56,0,0,0,0-.12.29.29,0,0,1,.4.08.29.29,0,0,1,0,.13.35.35,0,0,0,0-.49.39.39,0,0,0-.22-.11.21.21,0,0,0-.19-.21h-.34c-.12,0-.19.18-.33.18a2,2,0,0,1-1.33-1.16c0-.35.84-.56.84-1.1,0-.71-.7-1-1.28-1.41a1.15,1.15,0,0,1,1.16-.12c0-.2.17-.15.22-.49.12.3,0,.56.12.68.1-.14.35-.12.33-.49.08.23-.09.59.08.74a.21.21,0,0,1,.22-.23c.07,0,.13.06.13.17,0,.28-.35.15-.35.47,0,.14.17.18.17.27a.19.19,0,0,1-.22.15.18.18,0,0,1-.09,0,.37.37,0,0,0,.32.23.46.46,0,0,0,.38-.28c.08.2,0,.42-.12.45.15.08.52,0,.48-.46.2,0,.31.17.19.42a.31.31,0,0,0,.32-.3c0-.18-.15-.18-.08-.36m-4-6.4c-.2,0-.19-.17-.53-.25a5.5,5.5,0,0,0,.81-.27.4.4,0,0,1-.25.51h0M204.3,30a.37.37,0,0,1-.47-.23v0c0-.15-.09-.27,0-.33a.24.24,0,0,0,.07-.32c-.07-.13-.23-.08-.41,0,.08-.15.09-.25,0-.24s-.14.23-.21.21,0-.15,0-.22.06-.12.15-.16l.72-.27c.09,0,.16-.05.22,0s.16.11.13.18-.19-.09-.3,0,0,.13.15.18c-.15.09-.32.15-.26.31s.12.18.27.18.14.12.21.26a.35.35,0,0,1-.14.49l0,0m0-2a.4.4,0,0,1-.55-.14s0,0,0,0a5.51,5.51,0,0,0,.78-.36c-.19.29-.06.42-.21.54" style="fill:#2d2d2b"/><path d="M220.44,38.37A.58.58,0,0,0,221,39h0a.58.58,0,0,0,.6-.58h0a.6.6,0,0,0-.6-.6h0a.58.58,0,0,0-.59.59h0m.15,0a.45.45,0,1,1,.38.38.45.45,0,0,1-.38-.38" style="fill:#2d2d2b"/><path d="M218.22,38.92a.31.31,0,0,0-.15.22.33.33,0,0,0,.09.3.53.53,0,0,0,.63.11.33.33,0,0,0,.19-.25.43.43,0,0,0-.39-.46.54.54,0,0,0-.37.08m.27.53a.26.26,0,0,1-.27-.28.22.22,0,0,1,.08-.13.42.42,0,0,1,.27,0,.31.31,0,0,1,.27.26h0a.28.28,0,0,1-.34.17" style="fill:#2d2d2b"/><path d="M214.94,30.56a.4.4,0,0,0-.13.54h0a.39.39,0,0,0,.55,0,.52.52,0,0,0,.18-.3.35.35,0,0,0-.06-.24.45.45,0,0,0-.21-.12.52.52,0,0,0-.34.1m0,.35a.36.36,0,0,1,.13-.23.32.32,0,0,1,.23-.06.14.14,0,0,1,.11.06.24.24,0,0,1,0,.12.34.34,0,0,1-.13.2.27.27,0,0,1-.34,0,.17.17,0,0,1,0-.1" style="fill:#2d2d2b"/><path d="M217.52,37.93a.51.51,0,0,0-.15.35h0a.56.56,0,0,0,.13.35.32.32,0,0,0,.24.11.39.39,0,0,0,.25-.1.61.61,0,0,0,.15-.36A.62.62,0,0,0,218,38a.34.34,0,0,0-.52,0m.23.67h0a.2.2,0,0,1-.14-.06.38.38,0,0,1-.09-.25.39.39,0,0,1,.1-.25.2.2,0,0,1,.14-.06c.13,0,.23.14.22.32a.39.39,0,0,1-.1.25A.15.15,0,0,1,217.71,38.62Z" style="fill:#2d2d2b"/><path d="M214.6,33.12a.34.34,0,0,0-.2.17.44.44,0,0,0,.26.55.5.5,0,0,0,.38,0,.35.35,0,0,0,.2-.18.3.3,0,0,0,0-.26.55.55,0,0,0-.26-.28.53.53,0,0,0-.39,0m.12.58a.29.29,0,0,1-.18-.34.27.27,0,0,1,.11-.1.32.32,0,0,1,.27,0,.35.35,0,0,1,.19.19.19.19,0,0,1,0,.15.14.14,0,0,1-.11.09.42.42,0,0,1-.27,0" style="fill:#2d2d2b"/><path d="M220.86,32.51c.19.53.58.72.87.58-.65-.07-.12-1.2-1-1.2h-.13a.7.7,0,0,0-.55-.22,1.06,1.06,0,0,0-1,1.06c0,1.54,1.79,1.67,1.79,3a.62.62,0,0,1-.6.64h0c-.3,0-.54-.33-.79-.86a6.65,6.65,0,0,0-.66-1,.44.44,0,0,0,.27.09.36.36,0,0,0,.24-.09.32.32,0,0,0,.11-.24h0a.49.49,0,0,0-.15-.34.53.53,0,0,0-.35-.17.34.34,0,0,0-.35.34h0a.43.43,0,0,0,0,.16,3.32,3.32,0,0,1-.74-1.27,1.17,1.17,0,0,1,.37-.7h.07v-.06l.53-.57h0l.07-.08-.19-.15c.05-.12.09-.25.13-.38.06.25.18.41.36.36-.12-.26.12-.6,0-1.22.15.24.36.36.51.32-.4-.35.12-.84-.4-1.6a.3.3,0,0,0,.36-.06c-.47-.06-.26-.66-1.08-.88.2,0,.32-.15.29-.26-.21.16-.41-.29-1.12-.28a1,1,0,0,0-.57-.68,1,1,0,0,1-.05.54L214.73,25c-.07-.06-.1-.08-.12-.06s0,.07,0,.12l2,2.5-.45.17A.27.27,0,0,0,216,28a4,4,0,0,0-.85.56c-.13.11-.22.14-.12.39s-.08.33.21.16.62-.35.68-.2-.18.18-.33.23-.3.17-.28.23.14,0,.15.05.05.13.11.13.14-.12.18-.08a.5.5,0,0,1-.07.38.45.45,0,0,0,.38-.41c0-.17.05-.21.09-.23s.07.18,0,.3c.12,0,.24-.18.22-.47a.32.32,0,0,1,.17-.09c.08,0,.23.21.44.21a.65.65,0,0,0,.64-.47.47.47,0,0,0,0-.33.55.55,0,0,1,.18.43c0,.56-1,.82-1.39,1.21H216v.1a.14.14,0,0,1,0,.09l-.21.68V31h0a2.69,2.69,0,0,0-.55,1.2c-.11-.11-.21-.21-.33-.31a.29.29,0,0,0,0-.13.42.42,0,0,0-.11-.32.26.26,0,0,0-.21-.11.29.29,0,0,0-.23.08h-.05a4.31,4.31,0,0,1-.46-.39.22.22,0,0,0-.2-.08h-.2c-.07,0-.11.06-.19.13l-.26.2.16.18.09.11.08-.06a.29.29,0,0,1,.18-.05.28.28,0,0,1,.2.13c.23.31.47.61.73.9h-.1a1.82,1.82,0,0,1-.57,0c-.13,0-.16,0-.25.1l-.12.17c0,.06-.08.12,0,.28A10,10,0,0,1,214,34.1a.63.63,0,0,0,.47.4,4.82,4.82,0,0,1,.63.35V34.7a1.62,1.62,0,0,0-.35-.17c-.08,0-.1-.06,0-.06a2,2,0,0,1,.54.17,1.79,1.79,0,0,0-.38-.56.5.5,0,0,0-.38,0,.08.08,0,0,1-.06.1h0a.09.09,0,0,1-.09-.09v0c0-.06.12-.08.1-.2s-.17-.14-.26-.15c-.14-.19-.29-.47-.36-.58s0-.18,0-.22a2.5,2.5,0,0,1,.82.08h.59a1.3,1.3,0,0,0,1,1.26,1.31,1.31,0,0,1,.89.73c-1.53,0-1.77.56-1.77,1.13s.54.6.54,1.08-1.29.59-1.67.64a1.21,1.21,0,0,0-.68.28l-.6.6h.24l.22-.28c.06-.09.11-.17.15-.16s0,.07,0,.18l-.18.3c.76,0,.81-.23.81-.35s-.19-.19-.08-.26.2,0,.29.08.11.18.32.1l1.85-.77c.19-.09.13-.17,0-.26a.55.55,0,0,1-.14-.44c0-.49.3-.65.83-.64v.24c0,.78,1.18,1.54,1.49,1.54.15,0,.34-.11.35.36a4.18,4.18,0,0,1,0,1,.74.74,0,0,1-.41.63c-.24.17-.46.69-.56.8.1.07.22.08.3-.18a.83.83,0,0,1,.25-.41c-.09.23-.16.58-.2.68.3,0,.78-.22.78-.43s-.16-.2-.16-.34a.15.15,0,0,1,.16-.13.26.26,0,0,1,.22.14c.14-.07.22-.2.22-.51v-.33a.33.33,0,0,0,.27.15.54.54,0,0,0,.33-.08.55.55,0,0,0,.22-.32V39a.41.41,0,0,0,0-.19.37.37,0,0,0-.22-.14.47.47,0,0,0-.38.08.46.46,0,0,0-.22.29,5.37,5.37,0,0,1,0-1,.36.36,0,0,0-.06-.38c-.06,0-.16.09-.28.09a.76.76,0,0,1-.46-.65c0-.33.36-.77.35-1.22,0-.15.08-.22.14-.09a1.87,1.87,0,0,0,.33.54.68.68,0,0,0,1.06.72.63.63,0,0,1-.55-.42h.21a.57.57,0,0,0,.79-.06.51.51,0,0,0,.13-.29.61.61,0,0,1-.46.18.92.92,0,0,0,.33-.74c0-1.47-1.77-1.64-1.77-3a.82.82,0,0,1,.73-.81.44.44,0,0,1,.27.09.66.66,0,0,0-.16.5c0,1.06,1.76,1,1.78,1.51.2-.76-1.08-.53-1.13-1.55m-4.57-4c.08-.16,0-.4.29-.4s.27.14.44.2a1.66,1.66,0,0,0-.73.2m-1.57,3.22a.43.43,0,0,1-.09.22.24.24,0,0,1-.12,0,.24.24,0,0,1-.18-.26h0a.27.27,0,0,1,.09-.21.21.21,0,0,1,.11,0,.14.14,0,0,1,.11.06.31.31,0,0,1,.07.21m5.07,7.39a.4.4,0,0,1,.16-.22.39.39,0,0,1,.26,0,.22.22,0,0,1,.13.08h0a.17.17,0,0,1,0,.14.36.36,0,0,1-.16.22.28.28,0,0,1-.38,0,.2.2,0,0,1,0-.15m-1.07-4.9a.35.35,0,0,1,.06-.14.17.17,0,0,1,.14,0,.32.32,0,0,1,.24.11.47.47,0,0,1,.11.25.2.2,0,0,1-.06.14h0a.17.17,0,0,1-.14,0,.37.37,0,0,1-.24-.12.36.36,0,0,1-.11-.25M215.9,30.9l.24-.77.27.11a.93.93,0,0,0-.26.18.28.28,0,0,0,.25,0l-.11.27s-.1-.14-.18-.15a.29.29,0,0,0,.18.35c.17.08.27.09.32,0s-.06-.22-.19-.17c0-.14.06-.21.15-.21s.14.06.16.16a.45.45,0,0,1,.3-.48.46.46,0,0,1-.15.54.2.2,0,0,1,.23,0A.28.28,0,0,1,217,31a.13.13,0,0,0-.16-.11.11.11,0,0,0-.09.05c-.05.09,0,.18.18.27a.28.28,0,0,0,.39-.08s0,0,0,0a.31.31,0,0,0-.25.05l.18-.33a.31.31,0,0,0,.11.2.38.38,0,0,0,0-.33l.39.22a.41.41,0,0,0-.28.18.31.31,0,0,0,.23,0l-.2.33a.38.38,0,0,0-.09-.25.29.29,0,0,0,.08.4l0,0c.15.09.27.11.32,0a.15.15,0,0,0-.07-.19.14.14,0,0,0-.11,0c0-.14.08-.21.18-.2s.13.09.14.18a.44.44,0,0,1,.39-.4.46.46,0,0,1-.26.5.16.16,0,0,1,.21.06c0,.08,0,.18-.11.24a.13.13,0,0,0-.15-.13.11.11,0,0,0-.09,0c0,.08,0,.17.18.27a.28.28,0,0,0,.4,0h0a.39.39,0,0,0-.23-.07l.18-.23a.27.27,0,0,0,.11.22,1.71,1.71,0,0,0,0-.32l.22.18-.54.6ZM218.31,37a.3.3,0,0,1-.38.11.29.29,0,0,1,0-.39.28.28,0,0,1,.38-.11.29.29,0,0,1,0,.39m.7-1.11a.27.27,0,0,1-.36.11h0a.27.27,0,0,1,0-.39.27.27,0,0,1,.36-.11h0a.27.27,0,0,1,0,.39" style="fill:#2d2d2b"/><rect x="31.12" y="66.83" width="47.13" height="1.37" style="fill:#1d1d1b;opacity:0.6000000238418579;isolation:isolate"/><rect x="31.12" y="74.2" width="47.13" height="1.37" style="fill:#1d1d1b;opacity:0.6000000238418579;isolation:isolate"/><rect x="31.12" y="81.56" width="47.13" height="1.37" style="fill:#1d1d1b;opacity:0.6000000238418579;isolation:isolate"/><rect x="31.12" y="88.93" width="47.13" height="1.37" style="fill:#1d1d1b;opacity:0.6000000238418579;isolation:isolate"/><rect x="31.12" y="126.37" width="47.13" height="1.37" style="fill:#1d1d1b;opacity:0.6000000238418579;isolation:isolate"/><rect x="31.12" y="133.74" width="190.9" height="1.37" style="fill:#1d1d1b;opacity:0.6000000238418579;isolation:isolate"/><rect x="31.12" y="141.11" width="190.9" height="1.37" style="fill:#1d1d1b;opacity:0.6000000238418579;isolation:isolate"/><rect x="31.12" y="148.47" width="190.9" height="1.37" style="fill:#1d1d1b;opacity:0.6000000238418579;isolation:isolate"/><rect x="160.83" y="66.83" width="61.18" height="1.77" style="fill:#1d1d1b;opacity:0.6000000238418579;isolation:isolate"/><rect x="160.83" y="74.65" width="61.18" height="1.77" style="fill:#1d1d1b;opacity:0.6000000238418579;isolation:isolate"/><rect x="160.83" y="82.48" width="61.18" height="1.77" style="fill:#1d1d1b;opacity:0.6000000238418579;isolation:isolate"/><rect x="160.83" y="90.3" width="61.18" height="1.77" style="fill:#1d1d1b;opacity:0.6000000238418579;isolation:isolate"/><rect x="160.83" y="98.13" width="61.18" height="1.77" style="fill:#1d1d1b;opacity:0.6000000238418579;isolation:isolate"/><rect x="31.13" y="274.24" width="181.43" height="1.37" style="fill:#1d1d1b;opacity:0.6000000238418579;isolation:isolate"/><rect x="31.13" y="284.29" width="181.43" height="1.37" style="fill:#1d1d1b;opacity:0.6000000238418579;isolation:isolate"/><rect x="31.13" y="294.33" width="181.43" height="1.37" style="fill:#1d1d1b;opacity:0.6000000238418579;isolation:isolate"/><rect x="30.98" y="315.11" width="81.32" height="1.37" style="fill:#1d1d1b;opacity:0.6000000238418579;isolation:isolate"/><rect x="31.12" y="327.7" width="190.35" height="0.23" style="fill:#1d1d1b;opacity:0.6000000238418579;isolation:isolate"/><circle cx="539.47" cy="176.99" r="174.1" transform="translate(32.86 433.3) rotate(-45)" style="fill:#fff"/><path d="M539.47,5.39A171.6,171.6,0,1,1,418.13,55.65h0A170.47,170.47,0,0,1,539.47,5.39m0-5A176.6,176.6,0,1,0,716.07,177,176.6,176.6,0,0,0,539.47.39Z"/><path d="M539.47.39A176.12,176.12,0,0,0,409.9,57H669A176.1,176.1,0,0,0,539.47.39Z" style="fill:none"/><path d="M409.9,297a176.56,176.56,0,0,0,249.51,9.59q5-4.6,9.59-9.59Z" style="fill:none"/><path d="M716.07,177c0-5.68-.28-11.29-.8-16.83v33.66C715.79,188.28,716.07,182.67,716.07,177Z" style="fill:none"/><path d="M715.27,193.82V160.16A175.94,175.94,0,0,0,669,57H409.9a176.56,176.56,0,0,0,0,240H669A175.9,175.9,0,0,0,715.27,193.82Z" style="fill:#f4f3fa"/><path d="M383.7,154.74c-1.28,0-2.33,1.4-2.33,3.13v38.24c0,1.73,1.05,3.13,2.33,3.13H688.36c1.28,0,2.32-1.4,2.32-3.13V157.87c0-1.73-1-3.13-2.32-3.13Z" style="fill:#fff"/><path d="M418.85,183.93h-3v-9.64l0-1.49c-.51.5-.86.83-1,1l-1.65,1.32-1.46-1.82,4.62-3.68h2.48Z" style="fill:#1d1d1b"/><path d="M401.28,183.93l-1-3.41h-5.22l-1,3.41h-3.27l5-14.37h3.71l5.07,14.37Zm-1.76-6q-1.44-4.63-1.62-5.24c-.12-.41-.21-.73-.26-1-.24.87-.87,3-1.87,6.31Z" style="fill:#1d1d1b"/><path d="M453.58,183.93h-10v-2.1l3.59-3.64c1.07-1.09,1.76-1.84,2.09-2.26a4.78,4.78,0,0,0,.7-1.17,3.1,3.1,0,0,0,.22-1.12,1.64,1.64,0,0,0-.48-1.28,1.85,1.85,0,0,0-1.26-.42,3.64,3.64,0,0,0-1.62.38,7.44,7.44,0,0,0-1.63,1.08l-1.67-1.94a11.55,11.55,0,0,1,1.75-1.28,6.33,6.33,0,0,1,1.52-.57,8.11,8.11,0,0,1,1.84-.2,5.39,5.39,0,0,1,2.37.49,3.8,3.8,0,0,1,1.6,1.37,3.63,3.63,0,0,1,.57,2,5.11,5.11,0,0,1-.35,1.85,7.36,7.36,0,0,1-1.08,1.78,25.24,25.24,0,0,1-2.57,2.6l-1.84,1.73v.14h6.24Z" style="fill:#1d1d1b"/><path d="M426.7,169.61h4.45a8.52,8.52,0,0,1,4.42.87,3,3,0,0,1,1.38,2.76,3.35,3.35,0,0,1-.6,2.1,2.37,2.37,0,0,1-1.6,1v.1a3.1,3.1,0,0,1,2,1.14,4.13,4.13,0,0,1-.81,5.27,6.13,6.13,0,0,1-3.85,1.09h-5.35Zm3,5.67h1.77a3.14,3.14,0,0,0,1.78-.38,1.38,1.38,0,0,0,.56-1.26,1.23,1.23,0,0,0-.61-1.18,3.87,3.87,0,0,0-1.9-.36h-1.6Zm0,2.41v3.74h2a2.93,2.93,0,0,0,1.85-.48,1.72,1.72,0,0,0,.6-1.47c0-1.19-.85-1.79-2.55-1.79Z" style="fill:#1d1d1b"/><path d="M476.24,171.94a3.09,3.09,0,0,0-2.66,1.28,6.06,6.06,0,0,0-.94,3.59c0,3.2,1.2,4.79,3.6,4.79a11.42,11.42,0,0,0,3.65-.75v2.54a10,10,0,0,1-3.94.74,6,6,0,0,1-4.78-1.9,8,8,0,0,1-1.65-5.44,8.94,8.94,0,0,1,.81-3.91,5.82,5.82,0,0,1,2.34-2.57,6.88,6.88,0,0,1,3.57-.9,9.67,9.67,0,0,1,4.19,1l-1,2.47a16.25,16.25,0,0,0-1.62-.67A4.67,4.67,0,0,0,476.24,171.94Z" style="fill:#1d1d1b"/><path d="M495.38,172.82a3.38,3.38,0,0,1-.82,2.28,4.16,4.16,0,0,1-2.28,1.29v.06a4.6,4.6,0,0,1,2.63,1.05,3,3,0,0,1,.89,2.26,3.82,3.82,0,0,1-1.5,3.22,7,7,0,0,1-4.28,1.15,10.25,10.25,0,0,1-4.13-.78v-2.57a9.15,9.15,0,0,0,1.83.68,7.48,7.48,0,0,0,2,.27,3.81,3.81,0,0,0,2.21-.51,1.86,1.86,0,0,0,.71-1.64,1.48,1.48,0,0,0-.82-1.43,6.17,6.17,0,0,0-2.62-.42h-1.09v-2.32h1.11a5.08,5.08,0,0,0,2.43-.43,1.59,1.59,0,0,0,.77-1.5c0-1.08-.67-1.62-2-1.62a4.6,4.6,0,0,0-1.43.23,7.05,7.05,0,0,0-1.62.82l-1.4-2.09a7.77,7.77,0,0,1,4.67-1.41,6,6,0,0,1,3.51.9A2.9,2.9,0,0,1,495.38,172.82Z" style="fill:#1d1d1b"/><path d="M514.24,176.64a7,7,0,0,1-2,5.41,8.17,8.17,0,0,1-5.81,1.88h-4.06V169.61h4.5a7.53,7.53,0,0,1,5.44,1.86A6.76,6.76,0,0,1,514.24,176.64Zm-3.15.07q0-4.61-4.07-4.61H505.4v9.33h1.3C509.63,181.43,511.09,179.85,511.09,176.71Z" style="fill:#1d1d1b"/><path d="M530.53,181h-1.72v3h-3v-3H519.7v-2.1l6.28-9.25h2.79v9h1.72Zm-4.68-2.35v-4.19a9,9,0,0,1,.08-1.34h-.08a10.45,10.45,0,0,1-.87,1.57l-2.62,4Z" style="fill:#1d1d1b"/><path d="M554.09,183.93h-8.25V169.61h8.25v2.49h-5.21v3.15h4.84v2.48h-4.84v3.7h5.21Z" style="fill:#1d1d1b"/><path d="M565.28,174.79a4.55,4.55,0,0,1,3.3,1.16,4.22,4.22,0,0,1,1.23,3.19,4.66,4.66,0,0,1-1.48,3.7,6.26,6.26,0,0,1-4.23,1.29,8.16,8.16,0,0,1-3.86-.78v-2.61a8.73,8.73,0,0,0,3.75.93c1.85,0,2.77-.76,2.77-2.27s-1-2.17-2.87-2.17a7.33,7.33,0,0,0-1.14.11,6.86,6.86,0,0,0-1,.22l-1.2-.65.53-7.3h7.77v2.57h-5.11l-.27,2.81.35-.07A6.5,6.5,0,0,1,565.28,174.79Z" style="fill:#1d1d1b"/><path d="M579.49,183.93h-3V169.61h8.21v2.49h-5.22v3.69h4.86v2.48h-4.86Z" style="fill:#1d1d1b"/><path d="M590.4,177.85q0-4.24,1.8-6.33a6.74,6.74,0,0,1,5.38-2.07,9.51,9.51,0,0,1,1.92.15V172a7.62,7.62,0,0,0-1.72-.19,6,6,0,0,0-2.54.47,3.22,3.22,0,0,0-1.48,1.39,6.36,6.36,0,0,0-.57,2.61h.12a3.32,3.32,0,0,1,3.11-1.66,3.84,3.84,0,0,1,3,1.2,4.79,4.79,0,0,1,1.09,3.33,5,5,0,0,1-1.29,3.63,4.79,4.79,0,0,1-3.59,1.34,5.16,5.16,0,0,1-2.76-.74,4.68,4.68,0,0,1-1.82-2.14A8.07,8.07,0,0,1,590.4,177.85Zm5.18,3.86a1.79,1.79,0,0,0,1.48-.65,2.93,2.93,0,0,0,.52-1.86,2.62,2.62,0,0,0-.48-1.65,1.78,1.78,0,0,0-1.47-.6,2.24,2.24,0,0,0-1.57.6,1.86,1.86,0,0,0-.65,1.39,3.24,3.24,0,0,0,.61,2A1.92,1.92,0,0,0,595.58,181.71Z" style="fill:#1d1d1b"/><path d="M621.58,175.89h5.68v7.43a16.69,16.69,0,0,1-2.6.63,17.41,17.41,0,0,1-2.5.18,6.33,6.33,0,0,1-4.95-1.91,8,8,0,0,1-1.71-5.47,7.2,7.2,0,0,1,2-5.4,7.52,7.52,0,0,1,5.5-1.94,10.71,10.71,0,0,1,4.25.88l-1,2.43a7.25,7.25,0,0,0-3.26-.78,4,4,0,0,0-3.16,1.32,5.1,5.1,0,0,0-1.18,3.55,5.71,5.71,0,0,0,1,3.56,3.31,3.31,0,0,0,2.78,1.23,9.64,9.64,0,0,0,1.93-.19v-3h-2.71Z" style="fill:#1d1d1b"/><path d="M635.08,183.93l5.37-11.75h-7.06v-2.55h10.27v1.9l-5.41,12.4Z" style="fill:#1d1d1b"/><path d="M661.83,183.93h-3v-6.18h-5.67v6.18h-3V169.61h3v5.62h5.67v-5.62h3Z" style="fill:#1d1d1b"/><path d="M678.38,175.73q0,4.23-1.78,6.31a6.72,6.72,0,0,1-5.4,2.09,10.39,10.39,0,0,1-1.93-.14v-2.43a7.25,7.25,0,0,0,1.73.21,5.93,5.93,0,0,0,2.5-.45,3.07,3.07,0,0,0,1.49-1.4,6,6,0,0,0,.6-2.63h-.12a3.34,3.34,0,0,1-1.31,1.3,4.24,4.24,0,0,1-1.86.37,3.75,3.75,0,0,1-2.95-1.2,4.82,4.82,0,0,1-1.08-3.34,5,5,0,0,1,1.31-3.63,4.72,4.72,0,0,1,3.56-1.34,5.22,5.22,0,0,1,2.78.74,4.87,4.87,0,0,1,1.83,2.16A8.32,8.32,0,0,1,678.38,175.73Zm-5.18-3.85a1.8,1.8,0,0,0-1.47.64,2.88,2.88,0,0,0-.53,1.86,2.62,2.62,0,0,0,.48,1.65,1.76,1.76,0,0,0,1.46.61,2.26,2.26,0,0,0,1.58-.61,1.8,1.8,0,0,0,.65-1.38,3.12,3.12,0,0,0-.61-2,1.84,1.84,0,0,0-1.56-.77Z" style="fill:#1d1d1b"/><path d="M383.7,154.74c-1.28,0-2.33,1.4-2.33,3.13v38.24c0,1.73,1.05,3.13,2.33,3.13H688.36c1.28,0,2.32-1.4,2.32-3.13V157.87c0-1.73-1-3.13-2.32-3.13Z" style="fill:none;stroke:#1d1d1b;stroke-width:3px"/><path d="M539.47,5.39A171.6,171.6,0,1,1,418.13,55.65h0A170.47,170.47,0,0,1,539.47,5.39m0-5A176.6,176.6,0,1,0,716.07,177,176.6,176.6,0,0,0,539.47.39Z"/><path d="M31,341.71a5.64,5.64,0,0,0,2.22,2.22,5.89,5.89,0,0,0,3,.82,6,6,0,0,0,3.94-1.46l.19-.16a6.42,6.42,0,0,0,1.13-1.42l-3.13-1.81-.24-.14-1.77-1-.12-.08-.1.06L32.29,341l-.22.13-1.09.63Z" style="fill:#3d7cc9"/><path d="M38.46,335.12l-.25-.08a6.1,6.1,0,0,0-1.87-.29v3.72l1.87,1.09.25.14,3.12,1.81.2.12-.12.21a6.4,6.4,0,0,1-1.11,1.41l1,.6a5.84,5.84,0,0,0,.8-3,6,6,0,0,0-3.92-5.71Z" style="fill:#cddb00"/><path d="M32.25,340.71l3.87-2.24v-4h.24a6.14,6.14,0,0,1,1.87.29v-1.15a5.67,5.67,0,0,0-3,.82A6,6,0,0,0,32.25,340.71Zm18.14,2.87-.2,0c-.09,0-.15,0-.15-.1s.06-.11.17-.11.16.09.16.11l.19,0a.37.37,0,0,0-.37-.23c-.31,0-.35.21-.35.31a.27.27,0,0,0,.28.27l.17,0a.11.11,0,0,1,.1.1c0,.1-.14.12-.2.12S50,344,50,343.89l-.16,0a.36.36,0,0,0,.39.23c.12,0,.41,0,.41-.31A.25.25,0,0,0,50.39,343.58Zm-.68.12c0-.26-.12-.51-.43-.51a.44.44,0,0,0-.43.49.45.45,0,0,0,.43.5.4.4,0,0,0,.41-.29l-.18,0a.21.21,0,0,1-.21.14.19.19,0,0,1-.18-.08.28.28,0,0,1,0-.21Zm-.59-.26a.18.18,0,0,1,.16-.08.23.23,0,0,1,.17.08.22.22,0,0,1,0,.14h-.41A.51.51,0,0,1,49.12,343.44Zm12.38.39-.22-.62h-.23l.33.88,0,.07a.27.27,0,0,1-.06.14s-.08,0-.21,0v.17h.13c.08,0,.18,0,.24-.21l.37-1.07h-.16Zm-9.9-.13c0-.26-.12-.51-.43-.51a.44.44,0,0,0-.43.49.45.45,0,0,0,.43.5.4.4,0,0,0,.41-.29l-.18,0a.21.21,0,0,1-.21.14.19.19,0,0,1-.18-.08.28.28,0,0,1,0-.21Zm-.59-.26a.18.18,0,0,1,.16-.08.23.23,0,0,1,.17.08.22.22,0,0,1,0,.14H51A.51.51,0,0,1,51,343.44Zm9.63-.06a.16.16,0,0,1,.17.18l.18,0a.36.36,0,0,0-.37-.33c-.27,0-.41.23-.41.49s.1.5.39.5a.39.39,0,0,0,.39-.35l-.18,0a.2.2,0,0,1-.19.18c-.18,0-.18-.24-.18-.29a.62.62,0,0,1,0-.18A.2.2,0,0,1,60.64,343.38Zm-15.88.16h0a.36.36,0,0,0-.12-.27.43.43,0,0,0-.29-.06c-.18,0-.39.06-.43.27l.21,0s0-.14.22-.14.21,0,.21.14v.06c-.21,0-.64,0-.64.33a.29.29,0,0,0,.31.29.29.29,0,0,0,.31-.21.31.31,0,0,0,0,.19h.2s0-.11,0-.19Zm-.47.47a.14.14,0,0,1-.16-.14c0-.12.1-.14.14-.17a.73.73,0,0,1,.25,0v.09h0A.23.23,0,0,1,44.29,344Zm2.34-.68a.24.24,0,0,0-.24-.16c-.29,0-.37.31-.37.49s0,.5.35.5a.27.27,0,0,0,.26-.21v.19h.21v-1.26h-.21Zm0,.44a.23.23,0,0,1-.2.24c-.19,0-.19-.24-.19-.31s0-.32.21-.32a.18.18,0,0,1,.18.22Zm-1.15-.56c-.18,0-.24.17-.29.23v-.23H45v1h.23v-.43c0-.33.16-.33.2-.33s.14,0,.14.22v.56h.21v-.56C45.77,343.5,45.77,343.21,45.46,343.21Zm7.15.33a.28.28,0,0,0-.1-.27.45.45,0,0,0-.29-.06c-.18,0-.39.06-.43.27l.18,0s0-.14.23-.14.2,0,.2.14v.06c-.2,0-.63,0-.63.33a.31.31,0,0,0,.61.08.26.26,0,0,0,0,.19h.2s0-.11,0-.19Zm-.47.47c-.15,0-.17-.1-.17-.14s.11-.14.15-.17a.69.69,0,0,1,.24,0v.09h0A.23.23,0,0,1,52.14,344Zm-3.47-.74a.28.28,0,0,0-.13-.26c-.06-.09-.14-.13-.31-.13h-.55v1.28h.23v-.52h.32l.21.52h.23l-.23-.56A.33.33,0,0,0,48.67,343.27Zm-.48.19h-.28v-.39h.3c.17,0,.23.08.23.18S48.32,343.46,48.19,343.46Zm9.66-.37a.17.17,0,0,0-.08.14l-.19,0c-.33,0-.39.19-.39.29a.22.22,0,0,0,.12.2.27.27,0,0,0-.14.21.2.2,0,0,0,.08.14c-.06,0-.14.09-.14.19s.2.25.45.25.49-.19.49-.31-.08-.25-.32-.25h-.25c-.12,0-.15-.06-.15-.1a.08.08,0,0,1,.07-.08.5.5,0,0,0,.18,0c.23,0,.39-.13.39-.29a.3.3,0,0,0-.1-.21c0-.06.06-.08.14-.08h.06v-.14H58A.29.29,0,0,0,57.85,343.09Zm-.49,1a.56.56,0,0,0,.22,0h.15c.06,0,.14,0,.14.1s-.14.12-.25.12a.69.69,0,0,1-.18,0c-.06,0-.13-.08-.13-.14S57.33,344.14,57.36,344.09Zm.32-.49a.21.21,0,0,1-.12,0,.14.14,0,0,1-.16-.14.17.17,0,0,1,.18-.17c.15,0,.17.09.17.15A.11.11,0,0,1,57.68,343.6Zm1.34.1c0-.26-.12-.51-.43-.51a.44.44,0,0,0-.43.49.45.45,0,0,0,.43.5.4.4,0,0,0,.41-.29l-.19,0a.21.21,0,0,1-.2.14.21.21,0,0,1-.19-.08.28.28,0,0,1,0-.21Zm-.66-.12a.51.51,0,0,1,0-.14.2.2,0,0,1,.17-.08.25.25,0,0,1,.16.08.22.22,0,0,1,0,.14Zm-4.46-.2c.09,0,.17,0,.17.18l.18,0a.36.36,0,0,0-.37-.33.44.44,0,0,0-.41.49c0,.21.11.5.39.5a.39.39,0,0,0,.39-.35l-.18,0a.19.19,0,0,1-.19.18c-.18,0-.18-.24-.18-.29a.62.62,0,0,1,0-.18A.2.2,0,0,1,53.9,343.38Zm5.78-.17c-.19,0-.25.17-.29.23v-.23H59.2v1h.23v-.43c0-.33.16-.33.21-.33s.14,0,.14.22v.56H60v-.56C60,343.5,60,343.21,59.68,343.21Zm-4.79,0a.28.28,0,0,0-.27.21v-.52h-.2v1.28h.2v-.46a.47.47,0,0,1,0-.24.19.19,0,0,1,.17-.1c.14,0,.14.14.14.22v.58h.21v-.6C55.18,343.29,55.1,343.19,54.89,343.19Zm1.44-.31-.43,1.28h.2l.1-.31h.5l.1.31h.25l-.43-1.28Zm-.06.78.18-.57.19.57Zm-3.21-.24v-.23h-.18v1h.2v-.39a.66.66,0,0,1,.06-.29.25.25,0,0,1,.21-.08v-.23A.31.31,0,0,0,53.06,343.42Zm11.55-1.93c.08,0,.16,0,.16.18l.19,0a.37.37,0,0,0-.37-.33c-.27,0-.41.23-.41.49s.1.5.39.5A.4.4,0,0,0,65,342l-.19,0c0,.1-.08.18-.18.18s-.19-.24-.19-.29a.62.62,0,0,1,0-.18A.2.2,0,0,1,64.61,341.49Zm-.87.78H64v-.95h-.21Zm-4.19,0a.33.33,0,0,0,.21.08.34.34,0,0,0,.14,0v-.19h-.08c-.1,0-.14,0-.14-.14v-.45h.18v-.17h-.18v-.26l-.17,0,0,.24h-.12v.17h.12V342A.3.3,0,0,0,59.55,342.23Zm-14.79-.33a1.11,1.11,0,0,0-.08-.15l-.45-.74H44v1.26h.19v-.95a.39.39,0,0,1,.06.15l.49.8h.21V341h-.17Zm18.59.06v-.45h.19v-.17h-.19v-.26l-.16,0,0,.24H63v.17h.13V342a.3.3,0,0,0,.06.23.31.31,0,0,0,.21.08.34.34,0,0,0,.14,0v-.19H63.5C63.39,342.1,63.35,342.08,63.35,342Zm-13.68-.64v.95h.21v-.37a.66.66,0,0,1,.06-.29.23.23,0,0,1,.21-.08v-.23a.31.31,0,0,0-.29.25v-.23Zm7.83.95V341h-.21v.45a.24.24,0,0,0-.24-.16c-.29,0-.37.31-.37.49s0,.5.35.5a.27.27,0,0,0,.26-.21v.21Zm-.41-.15c-.19,0-.19-.24-.19-.31s0-.32.21-.32a.18.18,0,0,1,.18.22v.17A.23.23,0,0,1,57.09,342.12Zm-4.89.15V341H52v1.28Zm1.75-.43c0-.27-.13-.52-.44-.52a.44.44,0,0,0-.43.49.45.45,0,0,0,.43.5.39.39,0,0,0,.41-.29l-.18,0a.21.21,0,0,1-.21.14.19.19,0,0,1-.18-.08.26.26,0,0,1,0-.2Zm-.66-.15a.51.51,0,0,1,0-.14.18.18,0,0,1,.16-.08.21.21,0,0,1,.17.08.22.22,0,0,1,0,.14Zm-7.07-.37v.95h.21v-.37a.66.66,0,0,1,.06-.29.22.22,0,0,1,.2-.08v-.23c-.2,0-.26.19-.28.25v-.23Zm17.52-.1H64V341h-.21Zm-2,1H62v-.95h-.21Zm-.59-.27a.3.3,0,0,0,.06.23.31.31,0,0,0,.2.08.39.39,0,0,0,.15,0v-.19h-.09c-.1,0-.14,0-.14-.14v-.45h.19v-.17h-.19v-.26l-.16,0,0,.24H61v.17h.13Zm-15.57-.7a.44.44,0,0,0-.44.47.47.47,0,0,0,.44.5c.22,0,.43-.15.43-.48A.45.45,0,0,0,45.59,341.3Zm0,.82c-.21,0-.21-.26-.21-.31s0-.3.21-.3.2.12.2.28S45.77,342.12,45.59,342.12Zm15,0a.31.31,0,0,0,0,.19h.21s0-.11,0-.19v-.43h0a.27.27,0,0,0-.11-.27.42.42,0,0,0-.28-.06c-.19,0-.39.06-.43.27l.18,0s0-.14.23-.14.2,0,.2.14v.06c-.2,0-.63,0-.63.33a.29.29,0,0,0,.3.29A.29.29,0,0,0,60.62,342.08Zm-.39-.1c0-.12.1-.14.14-.17a.79.79,0,0,1,.25,0v.09h0a.23.23,0,0,1-.24.24C60.25,342.12,60.23,342,60.23,342Zm-6.08.29h.21V341h-.21Zm4.77-.74-.21-.06c-.06,0-.18-.07-.18-.15s0-.16.22-.16.23.1.23.14l.22-.06a.29.29,0,0,0-.1-.16.49.49,0,0,0-.35-.11.41.41,0,0,0-.45.37.31.31,0,0,0,.27.33l.28.08c.07,0,.17,0,.17.17s0,.16-.25.16a.5.5,0,0,1-.16,0c-.12,0-.15-.12-.15-.16l-.24.06a.36.36,0,0,0,.12.2.59.59,0,0,0,.39.13c.29,0,.52-.15.52-.39S59,341.57,58.92,341.53Zm-3.52.12a.28.28,0,0,0-.1-.27.43.43,0,0,0-.29-.06c-.18,0-.39.06-.43.27l.19,0s0-.14.22-.14.21,0,.21.14v.06c-.21,0-.64,0-.64.33a.29.29,0,0,0,.31.29.29.29,0,0,0,.31-.21.31.31,0,0,0,0,.19h.2s0-.11,0-.19Zm-.45.47a.14.14,0,0,1-.16-.14c0-.12.1-.14.14-.17a.73.73,0,0,1,.25,0v.09h0A.23.23,0,0,1,55,342.12Zm1.13-.61s.15,0,.15.22v.54h.2v-.56c0-.12,0-.41-.31-.41s-.24.17-.28.23v-.23h-.19v1h.23v-.43C55.88,341.51,56,341.51,56.08,341.51ZM53,341.3a.31.31,0,0,0-.29.25v-.23h-.18v.95h.2v-.37a.66.66,0,0,1,.06-.29.25.25,0,0,1,.21-.08Zm8.79-.08H62V341h-.21ZM47.21,342v-.45h.18v-.17h-.18v-.26l-.17,0,0,.22h-.12v.17H47V342c0,.1,0,.16.06.22a.31.31,0,0,0,.21.09.34.34,0,0,0,.14,0v-.17h-.06C47.25,342.1,47.21,342.08,47.21,342Zm15.49-.25-.21,0c-.08,0-.14,0-.14-.1s.06-.1.16-.1.17.08.17.1l.18,0a.36.36,0,0,0-.37-.23c-.31,0-.35.21-.35.31a.27.27,0,0,0,.29.27l.16,0a.12.12,0,0,1,.11.1c0,.1-.15.12-.21.12s-.18-.06-.2-.12l-.17,0a.37.37,0,0,0,.39.23c.12,0,.41,0,.41-.31A.25.25,0,0,0,62.7,341.71Zm-14.9.1a.47.47,0,0,1,0-.24.21.21,0,0,1,.17-.1c.14,0,.14.14.14.22v.58h.21v-.6c0-.27-.08-.37-.29-.37a.28.28,0,0,0-.27.21V341h-.2v1.26h.2Zm1.63.21-.19,0a.21.21,0,0,1-.2.14.2.2,0,0,1-.19-.08.26.26,0,0,1,0-.2h.64c0-.27-.13-.52-.43-.52a.45.45,0,0,0-.44.49.46.46,0,0,0,.44.5A.4.4,0,0,0,49.43,342Zm-.58-.47a.19.19,0,0,1,.17-.08.25.25,0,0,1,.16.08.22.22,0,0,1,0,.14h-.41A.51.51,0,0,1,48.85,341.55Zm16.74.16-.2,0c-.09,0-.15,0-.15-.1s.06-.1.17-.1.16.08.16.1l.19,0a.36.36,0,0,0-.37-.23c-.31,0-.35.21-.35.31a.27.27,0,0,0,.29.27l.16,0a.11.11,0,0,1,.1.1c0,.1-.14.12-.2.12s-.19-.06-.21-.12l-.16,0a.36.36,0,0,0,.39.23c.12,0,.41,0,.41-.31A.25.25,0,0,0,65.59,341.71Zm-14.68,0v.54h.2v-.56c0-.12,0-.41-.31-.41s-.24.17-.29.23v-.23h-.18v1h.23v-.43c0-.33.16-.33.2-.33S50.91,341.51,50.91,341.73Zm11.21-3h2.14l.45,1.34h1.07l-1.87-5.59H62.68l-1.85,5.59h.86Zm1.07-3.28.82,2.48H62.37Zm-10,3.88a2.48,2.48,0,0,1-.69-.1,1,1,0,0,1-.66-.72l-1,.2a1.76,1.76,0,0,0,.56.91,2.65,2.65,0,0,0,1.72.53c1.28,0,2.22-.64,2.22-1.75a1.6,1.6,0,0,0-1.44-1.58L53,336.6c-.29-.09-.78-.23-.78-.68,0-.29.18-.7,1-.7s1,.45,1,.64l.95-.25a1.29,1.29,0,0,0-.48-.72,2.4,2.4,0,0,0-1.54-.49c-1.13,0-2,.62-2,1.66a1.48,1.48,0,0,0,1.21,1.5l1.26.31a.75.75,0,0,1,.67.72C54.27,338.84,54.09,339.33,53.16,339.33Zm4-1.56h1.42l.86,2.3h1.07v0l-1-2.47a1.47,1.47,0,0,0,1-1.48,1.66,1.66,0,0,0-.49-1.21,2,2,0,0,0-1.46-.43H56.12v5.59h1v-2.28Zm0-2.49h1.33c.72,0,1,.41,1,.82,0,.7-.57.87-1.07.87H57.13Zm-12.41.6a5.81,5.81,0,0,0,.31.61l2.18,3.56h.92v-5.57h-.8v3.95c-.18-.37-.33-.62-.35-.66L45,334.48H43.92v5.59h.8Zm5.55-1.4h-1v5.59h1Z" style="fill:#00205c"/></svg>