<svg xmlns="http://www.w3.org/2000/svg" viewBox="0 0 716.07 354" width="430">
  <defs>
    <clipPath id="a">
      <path fill="none" d="M206.09 195.36h14.86v12.19h-14.86z"/>
    </clipPath>
    <clipPath id="b">
      <path fill="none" d="M206.2 226.26h15.26v11.99H206.2z"/>
    </clipPath>
    <linearGradient id="c" x1="102.19" x2="476.71" y1="171.89" y2="171.89" gradientTransform="matrix(1 0 0 -1 0 354)" gradientUnits="userSpaceOnUse">
      <stop offset="0" stop-color="#fff" stop-opacity="0"/>
      <stop offset="1" stop-opacity=".37"/>
    </linearGradient>
  </defs>
  <path fill="#fff" d="M1 1h250.3v351.98H1z"/>
  <path fill="#979797" d="M250.3 2v350H2V2h248.3m2-2H0v354h252.3z"/>
  <path fill="#f4f3fa" d="M2.03 161.67H250.3v88.38H2.03z"/>
  <rect width="117.42" height="12.55" x="47.02" y="210.56" fill="#fff" rx=".88"/>
  <path fill="#1d1d1b" d="M66.76 219.2h-1v-3.7l-.35.33-.55.44-.48-.6 1.53-1.22h.85zM61.48 219.2l-.34-1.13h-1.73l-.35 1.13H58l1.67-4.77h1.23l1.69 4.77zm-.58-2l-.54-1.73-.09-.32c-.07.27-.27 1-.61 2zM72.83 219.2h-3.32v-.7l1.19-1.21q.52-.54.69-.75a1.29 1.29 0 00.23-.39.79.79 0 00.07-.37.5.5 0 00-.15-.42.61.61 0 00-.42-.14 1.16 1.16 0 00-.54.13 3.17 3.17 0 00-.54.36l-.55-.65a3.88 3.88 0 01.58-.42 2.64 2.64 0 01.51-.19 2.54 2.54 0 01.61-.07 1.88 1.88 0 01.78.16 1.19 1.19 0 01.53.46 1.14 1.14 0 01.19.67 1.61 1.61 0 01-.11.61 2.39 2.39 0 01-.36.59 8.61 8.61 0 01-.85.86l-.61.58h2.07zM75 214.45h1.48a2.72 2.72 0 011.46.29 1 1 0 01.46.91 1.17 1.17 0 01-.2.7.75.75 0 01-.53.33 1 1 0 01.65.38 1.26 1.26 0 01.2.73 1.22 1.22 0 01-.47 1 2 2 0 01-1.28.37H75zm1 1.88h.59a1 1 0 00.59-.13.47.47 0 00.19-.42.43.43 0 00-.2-.39 1.41 1.41 0 00-.64-.12H76zm0 .8v1.24h.66a1 1 0 00.61-.16.57.57 0 00.2-.49c0-.39-.28-.59-.84-.59zM85.9 215.22a1 1 0 00-.88.43 2 2 0 00-.31 1.19c0 1.06.39 1.58 1.19 1.58a3.63 3.63 0 001.21-.25v.83a3.27 3.27 0 01-1.31.24 2 2 0 01-1.58-.63 2.64 2.64 0 01-.55-1.8 2.92 2.92 0 01.27-1.3 2 2 0 01.77-.85 2.24 2.24 0 011.19-.3 3.07 3.07 0 011.39.34l-.33.81-.53-.22a1.88 1.88 0 00-.53-.07zM92.25 215.51a1.11 1.11 0 01-.27.76 1.42 1.42 0 01-.76.43 1.46 1.46 0 01.87.35 1 1 0 01.3.74 1.27 1.27 0 01-.5 1.07 2.25 2.25 0 01-1.42.38 3.57 3.57 0 01-1.37-.24v-.86a3.47 3.47 0 00.61.23 2.37 2.37 0 00.65.09 1.27 1.27 0 00.74-.17.62.62 0 00.23-.54.49.49 0 00-.27-.48 2 2 0 00-.87-.14h-.36v-.77h.37a1.7 1.7 0 00.8-.14.52.52 0 00.26-.5c0-.36-.23-.54-.68-.54a1.5 1.5 0 00-.47.08 2.73 2.73 0 00-.54.27l-.46-.69a2.6 2.6 0 011.55-.47 2 2 0 011.16.3 1 1 0 01.43.84zM98.5 216.78a2.31 2.31 0 01-.66 1.79 2.72 2.72 0 01-1.93.63h-1.35v-4.75h1.49a2.54 2.54 0 011.81.61 2.25 2.25 0 01.64 1.72zm-1 0q0-1.53-1.35-1.53h-.54v3.1H96c1 0 1.46-.5 1.46-1.55zM103.91 218.21h-.58v1h-1v-1h-2v-.69l2.08-3.07h.92v3h.58zm-1.56-.78V216a3.23 3.23 0 010-.44 3.81 3.81 0 01-.29.52l-.87 1.31zM111.72 219.2H109v-4.75h2.74v.82H110v1h1.61v.82H110v1.23h1.73zM115.43 216.16a1.51 1.51 0 011.09.39 1.39 1.39 0 01.41 1.06 1.52 1.52 0 01-.49 1.22 2 2 0 01-1.4.43 2.82 2.82 0 01-1.28-.25v-.87a2.54 2.54 0 00.6.22 2.3 2.3 0 00.64.09c.61 0 .92-.25.92-.76s-.32-.71-1-.71h-.38l-.34.07-.4-.21.18-2.42h2.58v.85h-1.7l-.09.93h.12a2 2 0 01.54-.04zM120.14 219.2h-1v-4.75h2.72v.82h-1.73v1.23h1.61v.82h-1.61zM123.76 217.18a3.11 3.11 0 01.6-2.1 2.21 2.21 0 011.78-.69 3.45 3.45 0 01.64.05v.8a2.76 2.76 0 00-.57-.06 1.92 1.92 0 00-.85.16 1 1 0 00-.48.46 2 2 0 00-.2.86 1.08 1.08 0 011-.55 1.29 1.29 0 011 .4 1.89 1.89 0 01-.07 2.31 1.61 1.61 0 01-1.18.44 1.76 1.76 0 01-.92-.24 1.62 1.62 0 01-.61-.71 2.88 2.88 0 01-.14-1.13zm1.72 1.28a.58.58 0 00.49-.22.89.89 0 00.17-.61.83.83 0 00-.16-.55.59.59 0 00-.48-.2.79.79 0 00-.53.2.62.62 0 00-.21.46 1 1 0 00.2.65.63.63 0 00.52.27zM134.1 216.53h1.9V219a5.14 5.14 0 01-.86.21 5.69 5.69 0 01-.83.06 2.1 2.1 0 01-1.64-.63 2.68 2.68 0 01-.56-1.81 2.45 2.45 0 01.65-1.8 2.51 2.51 0 011.83-.64 3.63 3.63 0 011.41.29l-.34.81a2.36 2.36 0 00-1.08-.26 1.28 1.28 0 00-1 .44 1.7 1.7 0 00-.4 1.18 1.9 1.9 0 00.32 1.18 1.12 1.12 0 00.92.4 3.47 3.47 0 00.64-.06v-1h-.9zM138.58 219.2l1.78-3.9H138v-.84h3.4v.63l-1.79 4.11zM147.45 219.2h-1v-2h-1.88v2h-1v-4.75h1v1.86h1.88v-1.86h1zM152.94 216.48a3.2 3.2 0 01-.59 2.09 2.23 2.23 0 01-1.79.69 3.42 3.42 0 01-.64 0v-.81a2.22 2.22 0 00.57.07 2 2 0 00.83-.15 1 1 0 00.49-.46 1.88 1.88 0 00.2-.87 1.09 1.09 0 01-.43.42 1.33 1.33 0 01-.62.13 1.26 1.26 0 01-1-.4 1.91 1.91 0 01.08-2.31 1.57 1.57 0 011.18-.45 1.77 1.77 0 01.92.25 1.53 1.53 0 01.61.72 2.65 2.65 0 01.19 1.08zm-1.72-1.28a.6.6 0 00-.49.21 1 1 0 00-.17.62.89.89 0 00.16.55.59.59 0 00.48.2.77.77 0 00.52-.2.58.58 0 00.22-.46 1 1 0 00-.2-.65.63.63 0 00-.52-.27z"/>
  <rect width="117.42" height="12.55" x="47.02" y="210.56" fill="none" stroke="#1d1d1b" rx=".88"/>
  <path fill="none" stroke="#3c388d" stroke-width=".5" d="M35.78 183.77v43.37"/>
  <path fill="#00a4ac" d="M35.78 189.66a5.9 5.9 0 10-5.89-5.91 5.89 5.89 0 005.89 5.89"/>
  <path fill="#3c388d" d="M35.78 206.42a5.9 5.9 0 10-5.89-5.91 5.89 5.89 0 005.88 5.9M35.78 237.16a5.9 5.9 0 10-5.89-5.91 5.89 5.89 0 005.89 5.89"/>
  <g clip-path="url(#a)">
    <path fill="#3c388d" d="M219.36 195.36H207.7a.53.53 0 00-.53.53v8a.53.53 0 00.53.53h11.66a.53.53 0 00.53-.53v-8a.53.53 0 00-.53-.53M206.11 204.63a1.35 1.35 0 001.33 1.33h12.18a1.34 1.34 0 001.33-1.33h-14.84z"/>
    <path fill="#fff" d="M207.97 196.16h11.13v7.42h-11.13z"/>
    <path fill="#3c388d" d="M215.25 207.54h-5a.38.38 0 01-.39-.39v-6.62a.38.38 0 01.38-.4h5a.4.4 0 01.4.4v6.62a.4.4 0 01-.4.4"/>
    <path fill="#fff" d="M210.35 200.67h4.77v5.83h-4.77z"/>
    <path fill="#3c388d" d="M208.87 207.55h-2.38a.4.4 0 01-.4-.4v-4.5a.4.4 0 01.4-.4h2.38a.4.4 0 01.4.4v4.5a.4.4 0 01-.4.4"/>
    <path fill="#fff" d="M206.62 202.79h2.12v3.71h-2.12z"/>
  </g>
  <path fill="#fff" d="M207.03 229.21h13.38v8.22h-13.38z"/>
  <path fill="#0a8243" d="M207.71 231.24h12.02v3.97h-12.02z"/>
  <g clip-path="url(#b)">
    <path fill="#3c388d" d="M219.83 226.26h-12.21a1.42 1.42 0 00-1.42 1.41v9.16a1.42 1.42 0 001.42 1.41h12.21a1.41 1.41 0 001.41-1.41v-9.16a1.41 1.41 0 00-1.41-1.41m.58 10.82a.34.34 0 01-.34.34h-12.7a.34.34 0 01-.34-.34v-7.82h13.38z"/>
  </g>
  <path fill="#8f1f81" d="M2.03 161.71H6.7v88.38H2.03z"/>
  <path fill="#00a4ac" d="M211.87 188.32a1.14 1.14 0 01-.8-.33l-2.5-2.5a1.12 1.12 0 010-1.58 1.11 1.11 0 011.57 0l1.72 1.71 6.24-6.23a1.11 1.11 0 011.57 0 1.12 1.12 0 010 1.58l-7 7a1.11 1.11 0 01-.79.33"/>
  <path fill="#1d1d1b" d="M47.3 182.55h129.83v2.28H47.3zM47.3 199.24h105.28v2.28H47.3zM47.3 230.13h117.45v2.28H47.3z" opacity=".6" style="isolation:isolate"/>
  <path fill="#3c388d" d="M30.98 168.2h107.51v3.19H30.98zM30.98 259.73h70.83v3.19H30.98z"/>
  <path fill="url(#c)" d="M450.26 24.55L96.11 215.27l374.52 124.4-20.37-315.12z"/>
  <path fill="#8f1f81" d="M42.79 33.38a3.91 3.91 0 113.9-3.92.87.87 0 01-.88.88h-5a2.13 2.13 0 001.94 1.25.89.89 0 01.19 1.77h-.19m-1.94-4.79h3.88a2.13 2.13 0 00-2.82-1.06 2.11 2.11 0 00-1.06 1.06M54.46 33.33a.89.89 0 01-.89-.89v-3a2.13 2.13 0 10-4.26 0v3a.89.89 0 01-1.78 0v-3a3.91 3.91 0 017.82 0v3a.89.89 0 01-.89.89M67.3 33.33a3.92 3.92 0 01-3.91-3.91v-3a.89.89 0 111.78 0v3a2.13 2.13 0 004.26 0v-3a.89.89 0 011.78 0v3a3.92 3.92 0 01-3.91 3.91M60 28.75c-1.26-.26-1.76-.37-1.76-.83s.64-.7 1.35-.7a3.12 3.12 0 011 .2 1.17 1.17 0 00.37.08.83.83 0 00.83-.83.85.85 0 00-.58-.81 4.84 4.84 0 00-1.64-.29c-2 0-3.2 1.16-3.2 2.32 0 1.41 1.28 2 2.76 2.35 1.13.24 1.47.33 1.47.82s-.64.67-1.41.67a3.55 3.55 0 01-1.67-.51.93.93 0 00-.33-.07.84.84 0 00-.37 1.59 4.73 4.73 0 002.43.64c1.9 0 3.25-1 3.25-2.29 0-1.54-1-2-2.52-2.34M75.73 28.75c-1.26-.26-1.76-.37-1.76-.83s.64-.7 1.35-.7a3.12 3.12 0 011 .2 1 1 0 00.37.08.83.83 0 00.83-.83.85.85 0 00-.58-.81 4.84 4.84 0 00-1.64-.29c-2 0-3.2 1.16-3.2 2.32 0 1.41 1.29 2 2.76 2.35 1.13.24 1.47.33 1.47.82s-.64.67-1.41.67a3.6 3.6 0 01-1.68-.52.87.87 0 00-.32-.06.84.84 0 00-.37 1.59 4.73 4.73 0 002.43.64c1.9 0 3.25-1 3.25-2.29 0-1.54-1-2-2.52-2.34M35 33.38a3.91 3.91 0 112.86-6.57.87.87 0 11-1.28 1.19 2.16 2.16 0 100 2.92.89.89 0 011.3 1.21A3.88 3.88 0 0135 33.38"/>
  <path fill="#ad65a5" d="M47.94 36.26a3.21 3.21 0 00-2 .64 1.64 1.64 0 00-.68 1.23c0 .49.5.58.7.58a1.76 1.76 0 011.82-1.43c1 0 1.52.46 1.52 1.24s-.88 1.17-1.86 1.65-2.3 1.24-2.3 2.77v.29c0 .47.22.64.74.64h4.22c.4 0 .57-.17.57-.48v-.07c0-.3-.17-.46-.57-.46h-3.77a1.82 1.82 0 010-.33c.2-.8 1-1.21 2-1.65s2.19-1 2.19-2.39-1-2.22-2.6-2.22M41.12 43c-1.2 0-1.9-.9-1.9-2.46v-.84c0-1.56.69-2.46 1.9-2.46s1.88.92 1.88 2.49v.83c0 1.56-.69 2.45-1.92 2.45m13.41-6.66h-.4l-2.19 1.46c0 .4.22.73.61.73a1 1 0 00.61-.25c.22-.18.41-.38.86-.74v5.31h-1.25c-.36 0-.54.15-.54.48v.06c0 .32.18.46.54.46h3.32c.36 0 .54-.14.54-.46v-.06c0-.33-.18-.48-.54-.48h-1v-6a.49.49 0 00-.44-.54h-.09m-20.07-.09a3.21 3.21 0 00-2 .64 1.67 1.67 0 00-.67 1.23c0 .49.49.58.69.58h.09a1.76 1.76 0 011.82-1.43c1 0 1.52.46 1.52 1.24s-.9 1.19-1.9 1.67-2.3 1.24-2.3 2.77v.29c0 .47.22.64.74.64h4.15c.39 0 .56-.17.56-.48v-.07c0-.3-.17-.46-.56-.46h-3.74a1.82 1.82 0 010-.33c.2-.8 1-1.21 2-1.65s2.19-1 2.19-2.39-1-2.22-2.6-2.22m6.66 0c-1.91 0-3.1 1.35-3.1 3.5v.76c0 2.16 1.16 3.48 3.1 3.48s3.11-1.36 3.11-3.51v-.75c0-2.15-1.18-3.49-3.11-3.49"/>
  <path fill="#2d2d2b" d="M208.51 27.7c-.11.21-.21.34-.19.5s.18.28.26.44c.08-.19.2-.33.19-.48s-.22-.35-.26-.46M211.35 27.7a1 1 0 01.19.5c0 .16-.19.28-.27.44-.07-.19-.19-.33-.18-.48s.22-.35.26-.46M206.88 27.58a.21.21 0 00.19-.19.2.2 0 00-.19-.19.19.19 0 00-.2.18.2.2 0 00.2.19M207 27.85a.19.19 0 10-.19.19.2.2 0 00.19-.19M207.1 28.32a.19.19 0 00-.19-.19.2.2 0 00-.19.19.21.21 0 00.19.19.2.2 0 00.2-.19M207.94 26.66a.2.2 0 00.19-.19.21.21 0 00-.19-.19.2.2 0 00-.2.19.19.19 0 00.19.19M207.46 26.81a.19.19 0 10-.19-.19.18.18 0 00.17.19M207.09 27.14a.21.21 0 00.19-.19.2.2 0 00-.19-.19.19.19 0 00-.2.18.2.2 0 00.2.19M208.44 26.71a.21.21 0 00.19-.19.2.2 0 00-.19-.19.18.18 0 00-.19.17.2.2 0 00.19.19M208.91 26.85a.2.2 0 00.19-.19.19.19 0 00-.18-.2.2.2 0 00-.19.2.21.21 0 00.19.19M209.36 27.06a.2.2 0 00.19-.19.19.19 0 10-.19.19M212.78 27.39a.2.2 0 00.2.19.21.21 0 00.19-.19.2.2 0 00-.15-.24.2.2 0 00-.24.15.14.14 0 000 .09M213 27.66a.2.2 0 00-.19.19.19.19 0 10.19-.19M213 28.13a.19.19 0 00-.2.18.2.2 0 00.2.19.21.21 0 00.19-.19.2.2 0 00-.19-.19M211.91 26.66a.19.19 0 00.2-.18.2.2 0 00-.2-.19.21.21 0 00-.19.19.2.2 0 00.19.19M212.39 26.81a.2.2 0 00.19-.19.19.19 0 00-.19-.19.2.2 0 00-.19.19.19.19 0 00.19.19M212.77 27.14A.2.2 0 00213 27a.2.2 0 00-.19-.19.19.19 0 00-.2.18.2.2 0 00.2.19M211.41 26.71a.2.2 0 00.19-.19.18.18 0 00-.17-.19.2.2 0 00-.19.19.21.21 0 00.19.19M210.94 26.85a.21.21 0 00.19-.19.2.2 0 00-.19-.2.19.19 0 00-.19.19.2.2 0 00.19.19M210.3 26.87a.19.19 0 10.19-.19.2.2 0 00-.19.19M209.6 27.9h.21v-.82a.83.83 0 01-.21-.06zM210.25 27a.83.83 0 01-.21.06v.82h.21zM209.8 26.11v-.49a.61.61 0 00-.47.49zM210.05 26.11h.47a.61.61 0 00-.47-.49zM209.34 26.34a.6.6 0 00.72.45.61.61 0 00.45-.45zM210.26 25.54a.66.66 0 01-.27-.42.77.77 0 01.44.28v-.66a.74.74 0 01-.43.26 1 1 0 01.26-.47h-.64a1 1 0 01.25.47.73.73 0 01-.44-.27v.66a.77.77 0 01.44-.28.66.66 0 01-.27.42zM211 38.72a12.85 12.85 0 01-2-.71.49.49 0 00-.14-.41.49.49 0 00-.38-.18.54.54 0 00-.18 0 3.7 3.7 0 01-.28-.28 3.61 3.61 0 01-.59-1 3.88 3.88 0 01-.18-.69.6.6 0 01-.63.46v-.15a.47.47 0 01-.59.11 5.45 5.45 0 00.22.79 4.87 4.87 0 00.87 1.45 3.59 3.59 0 00.39.39.11.11 0 000 .08.61.61 0 00.33.46.46.46 0 00.5-.06 5.17 5.17 0 001.07.42 5.09 5.09 0 001.23.19 2.13 2.13 0 001.06-.38 3.08 3.08 0 00.41-.3 3.52 3.52 0 01-1.12-.14m-2.21-.91h-.06a.22.22 0 00-.31 0l-.14.15-.07.07h.05c.12.1.14.21.1.27a.1.1 0 01-.06 0 .41.41 0 01-.24-.06.58.58 0 00-.08.22.18.18 0 00.12.12l.19.12a.32.32 0 01-.33 0 .52.52 0 01-.27-.36 1 1 0 01.18-.51.89.89 0 01-.08-.17h.22a1 1 0 01.56-.33.39.39 0 01.3.14.44.44 0 01.11.24l-.11-.09m.39 1.15a.26.26 0 11.26-.26.26.26 0 01-.26.25m1.13.35a.24.24 0 010-.47.24.24 0 01.24.24.23.23 0 01-.23.23M210.58 40.51h-.12v-.71a4.68 4.68 0 01-1.05-.16v.89h-.13a.41.41 0 00-.41.41.74.74 0 00.2.46c.05-.11.09-.2.16-.2s.06.62.43.64v.1a.29.29 0 10.58 0v-.1c.37 0 .31-.64.43-.64s.11.08.16.2a.73.73 0 00.21-.46.41.41 0 00-.41-.41M210 42.1a.16.16 0 11.16-.16.16.16 0 01-.16.16m.86-.91a.21.21 0 00-.16-.13c-.25 0-.15.65-.44.65a.18.18 0 01-.2-.16c0-.09.06-.12.06-.19s-.05-.1-.12-.1-.12 0-.12.1.06.1.06.19a.17.17 0 01-.17.17c-.3 0-.2-.65-.45-.65a.42.42 0 00-.16.13.55.55 0 01-.07-.25.29.29 0 01.28-.29c.33 0 .25.45.41.45a.11.11 0 00.12-.1c0-.13-.23-.25-.23-.43s.17-.34.35-.48c.19.14.35.3.35.48s-.23.3-.23.43a.11.11 0 00.11.11c.16 0 .09-.45.41-.45a.29.29 0 01.29.29.57.57 0 01-.08.25"/>
  <path fill="#2d2d2b" d="M219.07 41.38a.09.09 0 00-.1-.05c-.84.24-1.89-.46-2.91-1.13a5 5 0 00-2.35-1.11 1.45 1.45 0 00-.68.16 1.19 1.19 0 00-.54.63 3.78 3.78 0 01-.33.63.84.84 0 00-.16.49.51.51 0 00.18.38 1.94 1.94 0 00.44.31l.13.06c.17.08.27.14.29.23a5.5 5.5 0 01-1.26.36 11.71 11.71 0 01-3.61 0 5.65 5.65 0 01-1.26-.36c0-.14.12-.2.3-.28l.13-.07a4 4 0 00.44-.27.46.46 0 00.22-.36.93.93 0 00-.2-.48 3.78 3.78 0 01-.33-.63 1.19 1.19 0 00-.54-.63 1.45 1.45 0 00-.68-.16 5 5 0 00-2.35 1.11c-1 .68-2.07 1.38-2.92 1.13a.08.08 0 00-.09 0 .07.07 0 000 .09 3.36 3.36 0 01.71.47 1.62 1.62 0 00.91.46 2.24 2.24 0 001-.3c.34-.2.68-.42 1-.65a4.73 4.73 0 012-1 1.8 1.8 0 01-.2.19.77.77 0 00-.36.63 1.3 1.3 0 00.2.64l.11.24a3.68 3.68 0 01.15.47.46.46 0 00.06.26 1 1 0 00.6.7 9.91 9.91 0 005.71 0 1 1 0 00.6-.7.89.89 0 01.07-.26 3.68 3.68 0 01.15-.47 2.1 2.1 0 01.15-.3 1.12 1.12 0 00.18-.56.84.84 0 00-.38-.64c-.06-.06-.13-.12-.2-.2a5 5 0 012 1 9.6 9.6 0 001 .66 2.24 2.24 0 001 .3 1.58 1.58 0 00.91-.47 4.1 4.1 0 01.71-.46.07.07 0 000-.09M214 34.6a1.1 1.1 0 01-.33-.38l-.59-1.14a.46.46 0 01-.08-.25.4.4 0 01.09-.21 2.16 2.16 0 00.16-.19l.07-.1a3.42 3.42 0 00-.51-.69 4.27 4.27 0 00-.82-.71.56.56 0 00.33-.5.46.46 0 00-.17-.36 4.6 4.6 0 01.73-1.49l-.54-.22a.82.82 0 01.12.61.67.67 0 01-.31-.41 2.06 2.06 0 01-.2.59.51.51 0 01.45 0 .69.69 0 01-.69.23c-.19-.05-.38-.15-.37-.3a.18.18 0 01.17-.19c.12 0 .12.19.09.27.15-.08.31-.54.07-.61s-.37.21-.43.41c0-.24-.14-.47-.33-.46s-.17.48-.08.6c0-.16.1-.25.18-.24s.15.05.14.19-.23.24-.47.24a.59.59 0 01-.67-.5.83.83 0 01.48.29 3.05 3.05 0 010-.74.69.69 0 01-.47.29.87.87 0 01.39-.51h-1a.87.87 0 01.39.51.8.8 0 01-.47-.29 3.05 3.05 0 010 .74.83.83 0 01.48-.29.6.6 0 01-.67.51c-.24 0-.45-.09-.47-.24s.07-.19.14-.19.16.08.18.24c.08-.12.17-.58-.08-.6s-.3.22-.33.46c-.07-.2-.24-.46-.43-.41s-.08.53.07.61c0-.08 0-.26.09-.27a.18.18 0 01.19.17c0 .15-.18.25-.38.3a.68.68 0 01-.68-.23.51.51 0 01.45 0 2.57 2.57 0 01-.2-.59.67.67 0 01-.31.41.87.87 0 01.12-.61l-.54.22a4.81 4.81 0 01.73 1.49.42.42 0 00-.16.36.6.6 0 00.32.5 4.27 4.27 0 00-.82.71 4.87 4.87 0 00-.87 1.45c.08.08.4.43.48.53a1 1 0 01.22.47.69.69 0 00.19.51.89.89 0 01.11.36h2.69v2.95a.46.46 0 00-.31.15c.32.12.61.24.91.33a.74.74 0 01.17-.43l-.62-.05V35h2.64a3.89 3.89 0 01-.21 1.17 3.29 3.29 0 01-.6 1 2.77 2.77 0 01-.87.69c-.05 0-.05.06-.11.08a.92.92 0 00-.13.24 1.31 1.31 0 00-.06.27l.31.09c.93.23 1.16.16 1.21.12a3.78 3.78 0 00.58-.55 4.38 4.38 0 00.87-1.45 5.2 5.2 0 00.32-1.79v-.27m-4.11.21h-2.7a3.86 3.86 0 01.22-1.21 3.61 3.61 0 01.59-1 2.77 2.77 0 01.87-.69 2.31 2.31 0 011-.25zm0-4.5a3.36 3.36 0 00-1.88.5c-.21-.12-.3-.24-.3-.38 0-.52 1.45-.56 2.18-.56.74 0 2.18 0 2.18.56 0 .14-.09.26-.3.38a3.36 3.36 0 00-1.88-.5m.11 4.5v-3.18a2.46 2.46 0 011 .25 2.54 2.54 0 01.87.69 3.17 3.17 0 01.6 1 3.58 3.58 0 01.21 1.21z"/>
  <path fill="#2d2d2b" d="M212.26 34.29c.05 0 0 .1 0 .09a3.09 3.09 0 00-.51-1.34.18.18 0 00.11-.14.18.18 0 00-.17.07l-.06-.07a2.65 2.65 0 00-.57-.54 2.18 2.18 0 00-.64-.29h.1c0-.09-.06-.13-.11-.11a.06.06 0 000 .06.23.23 0 00-.12-.06.15.15 0 000 .13.09.09 0 00-.07 0 .1.1 0 00.07.13v.9a.17.17 0 00-.17 0 .17.17 0 00.17 0v1.12s-.07-.06 0-.09-.12.07-.1.11 0 .05.08 0a.07.07 0 100 .14s.06 0 .06-.06a.06.06 0 000 .08s.11 0 .11-.1-.09 0-.09 0h.77a.22.22 0 00.05.17.17.17 0 000-.17h.87m-.09 0a.07.07 0 00.06.09h.05a.06.06 0 000-.08.24.24 0 00.12 0 .17.17 0 000-.12h.09a.1.1 0 00-.11-.11m-.74-1.37v.07l.08.06a.24.24 0 00-.06.11h.12a.08.08 0 000 .09h.07a3 3 0 01.4 1.07.17.17 0 00-.1 0 .19.19 0 000 .13h-.66v-.09a.07.07 0 00-.09 0 .24.24 0 000-.12.17.17 0 000 .12.07.07 0 00-.09 0v.09h-.56a.24.24 0 000-.12.11.11 0 00-.11 0v-.74a.06.06 0 00.09-.09.16.16 0 00.11-.05.11.11 0 00-.11 0 .06.06 0 00-.09-.09v-.77h.09a.11.11 0 000-.11 2.41 2.41 0 01.51.25 3 3 0 01.52.48"/>
  <path fill="#2d2d2b" d="M211.8 34a.11.11 0 00.07-.06h-.16c-.03 0-.24 0-.24-.16a.13.13 0 00.07.06h.12a.08.08 0 00.08-.08c0-.08-.07-.13-.17-.2a.44.44 0 01-.17-.31.17.17 0 000-.1.31.31 0 000 .33c.09.09.28.19.27.27a.15.15 0 01-.06 0 1.59 1.59 0 01-.2-.24.25.25 0 010-.31.22.22 0 00-.1-.29.14.14 0 000-.09h-.42.17a.4.4 0 00-.06.18l-.07-.07a.24.24 0 00-.08-.09l-.08-.07v-.23h-.05v.06c0 .06-.07 0-.06 0s0 .1.07.08 0 .06 0 .06a.36.36 0 00.19.21.53.53 0 00-.14.12s-.07.07-.1 0h-.11v.07h.08v.07h.07v-.06m.05 0h.11l.06-.06h.06a.09.09 0 010-.07c0 .16.22.16.27.26a.28.28 0 00-.18 0 .19.19 0 00-.16.12.24.24 0 00.09.18h-.14c-.05 0-.06-.08-.12 0s-.06 0-.05 0h-.06m.06 0h.13v-.15a.14.14 0 01.16-.12.35.35 0 00.21.23h.13v.09h-.08-.05m.07 0v.12h.06v-.05zM209.58 35.49h-.05a.24.24 0 00-.2-.28h-.06a4.2 4.2 0 01-.85.2 1 1 0 01-.51-.17v.13a.11.11 0 00-.1-.11.11.11 0 00-.11.11.11.11 0 00.11.1h.07v.12h.06a1.69 1.69 0 001.21 1.66c.12 0 .24 0 .24.12a.1.1 0 01-.09.11s-.08 0-.08-.06.09 0 .1-.06 0-.07-.07-.07a.13.13 0 00-.14.12.18.18 0 00.18.18.24.24 0 00.26-.22v-.05h.1V35.77s.1 0 .1-.08 0-.08-.08-.09m-1.47.11l1 1.42a1.39 1.39 0 01-1-1.42m1 1.29l-.89-1.3h.22l.72 1v.3m.07-.41l-.63-.92a.66.66 0 00.2-.06l.48.69a.61.61 0 01-.05.29m.15-1s-.1 0-.1.07 0 .09.09.1a.94.94 0 01-.06.36l-.4-.57a1.92 1.92 0 01.42-.16c.06 0 .08 0 .06.16M209.41 32.62c.19 0 .28-.06.28-.12s-.53-.08-.53-.21v-.06c.27 0 .27-.21.46-.24-.23 0-.26.14-.36.15a.12.12 0 00.07-.11c0 .06-.15.07-.21.14a.11.11 0 000 .08c0 .2.53.06.53.21s-.09.08-.24.08-.19-.08-.39 0c0 0 .07-.1 0-.13h-.13v.18-.14-.05h-.05m-.06 0h-.06s0 .09.06.06l.05.06H208.49v.06m0 .05h.06l.09-.08h.06m.06 0l.12-.05s-.06-.09.14-.08H209v.09s0-.07-.1 0-.06 0-.05 0h.15v-.13h.18v.06c0 .06 0 0-.07 0v.05-.05h-.21M208.45 32.23h.06m0 0h.06m-.06.13h.05M209.67 33.34c0-.06-.06-.09-.25-.09s-.61.07-.61 0 .08 0 .18 0c.24.07.53-.06.68 0-.18-.14-.32 0-.51 0 .11 0 .15 0 .15-.06s-.24 0-.34 0c-.13 0-.24 0-.24.08s.51.08.67.08h-.06a3.57 3.57 0 00-.8 0s.06-.09 0-.12h-.15a.09.09 0 000 .07s0 .06-.07 0 0 .08 0 .08a.11.11 0 010 .08l-.08-.07v-.23s0-.05-.05 0H208v.06h-.07a.06.06 0 000 .08l.08.07c.08.07.06 0 .08 0s0 .08 0 .08H207.75h.08s-.05 0 0 .07 0 0 0 .06v-.06h.13v.06c0 .06 0-.06.11-.09a.19.19 0 00.16-.11h.06c.16 0 .05-.14.31-.1h.07v.12h.33c-.05 0-.05-.08-.11-.06h.11v-.16h.37v.07c0 .07 0 0-.07 0m.05 0s-.05 0 0 0v-.12h-.2c.12 0 .3 0 .3-.1M208.28 32.87h.07m0 0h.06m.09.48M209.59 34.17c0-.06-.06-.09-.24-.09s-.73.07-.73 0 .18 0 .32 0c.23.06.47-.09.64 0-.13-.12-.3 0-.48 0h-.18c-.17 0-.37 0-.37.07s.62.08.78.08h.18a.87.87 0 01-.24.06 4.18 4.18 0 00-1 0s.07-.1 0-.13h-.14a.06.06 0 000 .06s0 .06-.06 0 0 .07 0 .07l-.1-.08c-.1-.08 0 0 0-.07v-.09m-.05 0v.06h-.07s0 .1.08.07l.12.11v.07H207.7s-.06 0 0 .06h.07v.07h.3c0 .05.1 0 .15-.07h.22c.29 0 .12-.13.47-.09v.1h.09s0-.08-.11 0h-.1m.06 0h.09v-.15h.11a.17.17 0 00.14 0h.1v.07c0 .07 0 0-.06 0v-.06c0-.06.05 0 .05-.05H209c.1 0 .29 0 .29-.1m-1.02-.14h.08m0 0h.06m-.06.14h.06M212.14 35.55a.74.74 0 01-.21 0s.29 0 .29-.09-.06-.09-.24-.09-.73.07-.73 0 .19 0 .33 0c.23.06.49-.11.63-.07a1.24 1.24 0 00-.47 0h-.18c-.17 0-.38 0-.38.08s.63.07.78.07h.19a1 1 0 01-.24 0 4.18 4.18 0 00-1 0s.07-.1 0-.13h-.12a.09.09 0 000 .07h-.07v.07h-.09l-.09-.07c-.09-.07 0 0 0-.08v-.15h-.12.06v.06c0 .06-.07 0-.07 0a.06.06 0 000 .08h.05a.32.32 0 00.11.12v.07h-.31s0 .05.07 0-.05 0 0 .06v-.06.06a.1.1 0 00.05-.06h.07s.05 0 .1-.08.09 0 .09-.06h.11c.3 0 .13-.13.48-.09v.1s-.06-.08-.11-.06h-.11m.11 0h.08a.08.08 0 000-.09v-.06h.26a.09.09 0 01.1 0v.06c0 .06 0 0-.07 0m0 0s-.06 0 0 .06v.13m-1.15-.4h.07m0 0c-.05 0 0 0 0 0h.07m-.07.14zM211.34 36c.22.07.47-.1.6-.06-.17-.06-.28 0-.45 0h-.17c-.13 0-.22 0-.22.07s.45.07.6.07h.12a1.16 1.16 0 01-.24.05 3 3 0 00-.73 0s.06-.09 0-.11h-.13a.06.06 0 000 .06s-.05.05-.06 0v.13h-.09v-.15m-.05 0h-.06.06-.06s0 .1.08.07h.07v.09h-.26s-.06 0 0 .06h.07v.06a.06.06 0 010 .06.05.05 0 000-.06h.07a.15.15 0 00.12-.09s.1 0 .12-.08h.07c.07 0 0-.13.27-.09h.06v.1s0-.07-.1 0m0 0H211m.06 0h.08v-.14a.17.17 0 00.1 0 .43.43 0 00.16 0 .07.07 0 01.09 0v.06c0 .06 0 0-.06 0h-.05s-.06 0 0 0v-.06h.06-.23c.1 0 .3 0 .3-.09s0-.08-.18-.08-.56.06-.56 0 .08 0 .17 0m-.56 0h.06m0 .11h.06m0 0h.07M211.16 36.8c.22.06.47-.1.6-.07-.17-.06-.28.05-.45 0a.37.37 0 00.21 0c-.08.05-.29 0-.38 0s-.12 0-.12.1.56 0 .56.08-.11.07-.26.07a1.69 1.69 0 00-.55 0s.07-.11 0-.14h-.1a.06.06 0 000 .06h-.06v.06a.33.33 0 000 .14.76.76 0 00-.13-.14v-.14h-.05v.06h-.06m.07.06a.14.14 0 00.07.11.06.06 0 00.08 0v.06h-.18m-.05 0s-.06 0 0 0h.06l.09-.07h.07a.24.24 0 000-.12h.15a.14.14 0 000 .09V37s0-.07-.1-.05m0 .05h.06v-.08a.25.25 0 00-.06-.17c-.06-.05.16 0 .18 0h.09m-.06 0v-.06h.16c.06 0 .05 0 0 0s-.09 0-.09-.09h.06c.19 0 .31 0 .3-.11s-.57 0-.57-.09 0 0 .08-.06m-.42 0h.07m0 0h.06m-.06.13M201.94 26.88a.14.14 0 10-.14.14.14.14 0 00.14-.14M201.89 26.51a.14.14 0 10-.14.14.14.14 0 00.14-.14M202 26.35a.14.14 0 10-.14-.14.14.14 0 00.14.14M202.34 26.32a.13.13 0 00.13-.13.13.13 0 00-.12-.14.14.14 0 00-.14.14.13.13 0 00.13.13M203.9 26.07a.14.14 0 100-.2.15.15 0 000 .2M203.87 25.77a.12.12 0 000-.17.13.13 0 100 .19M203.51 25.72a.14.14 0 10-.2 0 .15.15 0 00.2 0M203.19 26a.13.13 0 000-.18.14.14 0 00-.19 0 .13.13 0 000 .18.14.14 0 00.19 0M202.31 25.76l.12.24.13-.17v.3a.18.18 0 00.17.17.18.18 0 00.18-.17.17.17 0 00-.09-.16 1.12 1.12 0 01-.2-.18h.23l-.09-.25-.17.15v-.25l-.25.09.17.19zM203.91 26.19a.33.33 0 01.08.19.47.47 0 01-.15-.13v.32a.34.34 0 01.12-.12c0 .21-.1.3-.17.31a.13.13 0 01-.16-.1c0-.09.06-.15.14-.06 0-.2-.14-.19-.21-.11a.28.28 0 00-.07-.39.3.3 0 00.05.41c-.13-.07-.24 0-.13.19 0-.13.13-.1.16 0s-.06.19-.2.23a.27.27 0 01-.31-.17c0-.11.14 0 .26.05l-.1-.31a.3.3 0 01-.19.19 1.27 1.27 0 01.06-.28l-.38.16a1 1 0 01.24.15.32.32 0 01-.27 0l.15.29a.23.23 0 01.15-.22s.08.25-.1.34a.23.23 0 01-.31 0c-.05-.08 0-.18.11-.11 0-.18-.17-.18-.22 0 0-.19 0-.3-.24-.35 0 .18 0 .29.2.37-.1 0-.22.1-.07.22 0-.11.1-.13.15 0a.13.13 0 010 .18.56.56 0 01-.34-.1.22.22 0 01.16 0l-.2-.25a.31.31 0 010 .19.32.32 0 01-.12-.28l-.16.14a1.75 1.75 0 01.53.52 4.71 4.71 0 01.84-.42 5.78 5.78 0 01.89-.29 1.8 1.8 0 010-.73z"/>
  <path fill="#2d2d2b" d="M206.94 35c.05-.15-.22-.32-.25-.53a1 1 0 00-.25-.7c-.23-.27-1.06-1.16-1.31-1.44a.4.4 0 01.36.11l.43.41a4.4 4.4 0 01.88-1.41l.15-.16a2.16 2.16 0 00-.49.16.73.73 0 00-.16-.59c.07-.34 0-.75-.75-1.26.39.1.62.45.92.18-.27 0-.27-.59-1.24-1.07.37 0 .66.58 1.08.25-.4-.05-.53-.77-1.26-1 .25 0 .51.15.73-.14-.25.06-.4-.17-.67-.19a.87.87 0 000-.74.89.89 0 00-.52.19c0-.18-.2-.19-.36-.17v.19a7 7 0 00-.89.27 5 5 0 00-.82.44.25.25 0 01-.17-.11c0-.05-.23.23-.15.36a1 1 0 00-.56.2.65.65 0 00.44.54c-.44.45 0 .86-.43 1.24.55 0 .46-.75.73-.85 0 .54-.33.64-.33 1.22 0 .31.19.65 0 .86.47-.13.34-1.15.63-1.46a.92.92 0 010 .52c-.16.48 0 1.13-.23 1.34.47-.05.53-.8.92-1.08a24.57 24.57 0 01-1.18 2.86c-.8 1.09-1.28 2.41-2 2.41a.55.55 0 01-.57-.53v-.08c0-1.23 2.12-2.08 2.12-3.4A.79.79 0 00201 31a1 1 0 00-.64.27.54.54 0 00-.25-.06c-.75 0-.55 1.35-1.21 1.34.26.14.71-.14 1-.52-.11.88-1.36.64-1.27 1.69.18-.82 2.18-.7 2.18-1.94a.47.47 0 00-.17-.35.71.71 0 01.42-.14.46.46 0 01.46.48v.05c0 1.11-2.11 2-2.11 3.39a1 1 0 00.18.57.37.37 0 01-.43-.11c0 .34.49.56.8.39h.22a.6.6 0 01-.59.33c.52.4 1.42-.13 1.37-.59a7.66 7.66 0 001-1.27 2.38 2.38 0 000 .26 4.42 4.42 0 00-.96 1.81c-.07.61-.38 1.15-.8 1.15-.09 0-.25-.12-.32-.06s0 .24 0 .35-.33.34-.33.88c0 .24.14.52.09.68a1 1 0 00.36-.6c.14.7-.3.67 0 1.29a.25.25 0 01.27-.23.19.19 0 01.1 0c.13.08.07.14 0 .24s-.17.56.25.53c-.08 0-.08-.18.13-.22s.38.07.69.07.24-.25.4-.25.15.12.1.21c.24-.07.29-.2.29-.34s-.11-.23 0-.28.37 0 .26.24a.28.28 0 00.23-.31c0-.18-.21-.29-.4-.25 0-.12-.2-.18-.35-.18-.35 0-.3.27-.53.27-.38 0-.75-.49-.75-1.32 0-.44.48-.56.82-.7a3 3 0 001.29-1.11 2.73 2.73 0 00.25-1.59 1 1 0 01.53 1 .58.58 0 01-.34.59c-.13.06-.17 0-.19.11a.17.17 0 00.1.18c.18.09.14.25.19.43a1.44 1.44 0 00.47.67 2.26 2.26 0 000-.52c.37.18.07.92.78.92a.19.19 0 010-.27c.08 0 .17.05.31.24s.1.18.44.18.19-.12.36-.12.17.21.07.36a.39.39 0 00.33-.44.56.56 0 000-.12.29.29 0 01.4.08.29.29 0 010 .13.35.35 0 000-.49.39.39 0 00-.22-.11.21.21 0 00-.19-.21h-.34c-.12 0-.19.18-.33.18a2 2 0 01-1.33-1.16c0-.35.84-.56.84-1.1 0-.71-.7-1-1.28-1.41a1.15 1.15 0 011.16-.12c0-.2.17-.15.22-.49.12.3 0 .56.12.68.1-.14.35-.12.33-.49.08.23-.09.59.08.74a.21.21 0 01.22-.23c.07 0 .13.06.13.17 0 .28-.35.15-.35.47 0 .14.17.18.17.27a.19.19 0 01-.22.15.18.18 0 01-.09 0 .37.37 0 00.32.23.46.46 0 00.38-.28c.08.2 0 .42-.12.45.15.08.52 0 .48-.46.2 0 .31.17.19.42a.31.31 0 00.32-.3c0-.18-.15-.18-.08-.36m-4-6.4c-.2 0-.19-.17-.53-.25a5.5 5.5 0 00.81-.27.4.4 0 01-.25.51M204.3 30a.37.37 0 01-.47-.23c0-.15-.09-.27 0-.33a.24.24 0 00.07-.32c-.07-.13-.23-.08-.41 0 .08-.15.09-.25 0-.24s-.14.23-.21.21 0-.15 0-.22.06-.12.15-.16l.72-.27c.09 0 .16-.05.22 0s.16.11.13.18-.19-.09-.3 0 0 .13.15.18c-.15.09-.32.15-.26.31s.12.18.27.18.14.12.21.26a.35.35 0 01-.14.49m0-2a.4.4 0 01-.55-.14 5.51 5.51 0 00.78-.36c-.19.29-.06.42-.21.54M220.44 38.37a.58.58 0 00.56.63.58.58 0 00.6-.58.6.6 0 00-.6-.6.58.58 0 00-.59.59m.15 0a.45.45 0 11.38.38.45.45 0 01-.38-.38M218.22 38.92a.31.31 0 00-.15.22.33.33 0 00.09.3.53.53 0 00.63.11.33.33 0 00.19-.25.43.43 0 00-.39-.46.54.54 0 00-.37.08m.27.53a.26.26 0 01-.27-.28.22.22 0 01.08-.13.42.42 0 01.27 0 .31.31 0 01.27.26.28.28 0 01-.34.17M214.94 30.56a.4.4 0 00-.13.54.39.39 0 00.55 0 .52.52 0 00.18-.3.35.35 0 00-.06-.24.45.45 0 00-.21-.12.52.52 0 00-.34.1m0 .35a.36.36 0 01.13-.23.32.32 0 01.23-.06.14.14 0 01.11.06.24.24 0 010 .12.34.34 0 01-.13.2.27.27 0 01-.34 0 .17.17 0 010-.1M217.52 37.93a.51.51 0 00-.15.35.56.56 0 00.13.35.32.32 0 00.24.11.39.39 0 00.25-.1.61.61 0 00.15-.36.62.62 0 00-.14-.28.34.34 0 00-.52 0m.23.67a.2.2 0 01-.14-.06.38.38 0 01-.09-.25.39.39 0 01.1-.25.2.2 0 01.14-.06c.13 0 .23.14.22.32a.39.39 0 01-.1.25.15.15 0 01-.13 0zM214.6 33.12a.34.34 0 00-.2.17.44.44 0 00.26.55.5.5 0 00.38 0 .35.35 0 00.2-.18.3.3 0 000-.26.55.55 0 00-.26-.28.53.53 0 00-.39 0m.12.58a.29.29 0 01-.18-.34.27.27 0 01.11-.1.32.32 0 01.27 0 .35.35 0 01.19.19.19.19 0 010 .15.14.14 0 01-.11.09.42.42 0 01-.27 0"/>
  <path fill="#2d2d2b" d="M220.86 32.51c.19.53.58.72.87.58-.65-.07-.12-1.2-1-1.2h-.13a.7.7 0 00-.55-.22 1.06 1.06 0 00-1 1.06c0 1.54 1.79 1.67 1.79 3a.62.62 0 01-.6.64c-.3 0-.54-.33-.79-.86a6.65 6.65 0 00-.66-1 .44.44 0 00.27.09.36.36 0 00.24-.09.32.32 0 00.11-.24.49.49 0 00-.15-.34.53.53 0 00-.35-.17.34.34 0 00-.35.34.43.43 0 000 .16 3.32 3.32 0 01-.74-1.27 1.17 1.17 0 01.37-.7h.07v-.06l.53-.57.07-.08-.19-.15c.05-.12.09-.25.13-.38.06.25.18.41.36.36-.12-.26.12-.6 0-1.22.15.24.36.36.51.32-.4-.35.12-.84-.4-1.6a.3.3 0 00.36-.06c-.47-.06-.26-.66-1.08-.88.2 0 .32-.15.29-.26-.21.16-.41-.29-1.12-.28a1 1 0 00-.57-.68 1 1 0 01-.05.54L214.73 25c-.07-.06-.1-.08-.12-.06s0 .07 0 .12l2 2.5-.45.17a.27.27 0 00-.16.27 4 4 0 00-.85.56c-.13.11-.22.14-.12.39s-.08.33.21.16.62-.35.68-.2-.18.18-.33.23-.3.17-.28.23.14 0 .15.05.05.13.11.13.14-.12.18-.08a.5.5 0 01-.07.38.45.45 0 00.38-.41c0-.17.05-.21.09-.23s.07.18 0 .3c.12 0 .24-.18.22-.47a.32.32 0 01.17-.09c.08 0 .23.21.44.21a.65.65 0 00.64-.47.47.47 0 000-.33.55.55 0 01.18.43c0 .56-1 .82-1.39 1.21H216v.1a.14.14 0 010 .09l-.21.68V31a2.69 2.69 0 00-.55 1.2c-.11-.11-.21-.21-.33-.31a.29.29 0 000-.13.42.42 0 00-.11-.32.26.26 0 00-.21-.11.29.29 0 00-.23.08h-.05a4.31 4.31 0 01-.46-.39.22.22 0 00-.2-.08h-.2c-.07 0-.11.06-.19.13l-.26.2.16.18.09.11.08-.06a.29.29 0 01.18-.05.28.28 0 01.2.13c.23.31.47.61.73.9h-.1a1.82 1.82 0 01-.57 0c-.13 0-.16 0-.25.1l-.12.17c0 .06-.08.12 0 .28a10 10 0 01.6 1.07.63.63 0 00.47.4 4.82 4.82 0 01.63.35v-.15a1.62 1.62 0 00-.35-.17c-.08 0-.1-.06 0-.06a2 2 0 01.54.17 1.79 1.79 0 00-.38-.56.5.5 0 00-.38 0 .08.08 0 01-.06.1.09.09 0 01-.09-.09c0-.06.12-.08.1-.2s-.17-.14-.26-.15c-.14-.19-.29-.47-.36-.58s0-.18 0-.22a2.5 2.5 0 01.82.08h.59a1.3 1.3 0 001 1.26 1.31 1.31 0 01.89.73c-1.53 0-1.77.56-1.77 1.13s.54.6.54 1.08-1.29.59-1.67.64a1.21 1.21 0 00-.68.28l-.6.6h.24l.22-.28c.06-.09.11-.17.15-.16s0 .07 0 .18l-.18.3c.76 0 .81-.23.81-.35s-.19-.19-.08-.26.2 0 .29.08.11.18.32.1l1.85-.77c.19-.09.13-.17 0-.26a.55.55 0 01-.14-.44c0-.49.3-.65.83-.64v.24c0 .78 1.18 1.54 1.49 1.54.15 0 .34-.11.35.36a4.18 4.18 0 010 1 .74.74 0 01-.41.63c-.24.17-.46.69-.56.8.1.07.22.08.3-.18a.83.83 0 01.25-.41c-.09.23-.16.58-.2.68.3 0 .78-.22.78-.43s-.16-.2-.16-.34a.15.15 0 01.16-.13.26.26 0 01.22.14c.14-.07.22-.2.22-.51v-.33a.33.33 0 00.27.15.54.54 0 00.33-.08.55.55 0 00.22-.32V39a.41.41 0 000-.19.37.37 0 00-.22-.14.47.47 0 00-.38.08.46.46 0 00-.22.29 5.37 5.37 0 010-1 .36.36 0 00-.06-.38c-.06 0-.16.09-.28.09a.76.76 0 01-.46-.65c0-.33.36-.77.35-1.22 0-.15.08-.22.14-.09a1.87 1.87 0 00.33.54.68.68 0 001.06.72.63.63 0 01-.55-.42h.21a.57.57 0 00.79-.06.51.51 0 00.13-.29.61.61 0 01-.46.18.92.92 0 00.33-.74c0-1.47-1.77-1.64-1.77-3a.82.82 0 01.73-.81.44.44 0 01.27.09.66.66 0 00-.16.5c0 1.06 1.76 1 1.78 1.51.2-.76-1.08-.53-1.13-1.55m-4.57-4c.08-.16 0-.4.29-.4s.27.14.44.2a1.66 1.66 0 00-.73.2m-1.57 3.22a.43.43 0 01-.09.22.24.24 0 01-.12 0 .24.24 0 01-.18-.26.27.27 0 01.09-.21.21.21 0 01.11 0 .14.14 0 01.11.06.31.31 0 01.07.21m5.07 7.39a.4.4 0 01.16-.22.39.39 0 01.26 0 .22.22 0 01.13.08.17.17 0 010 .14.36.36 0 01-.16.22.28.28 0 01-.38 0 .2.2 0 010-.15m-1.07-4.9a.35.35 0 01.06-.14.17.17 0 01.14 0 .32.32 0 01.24.11.47.47 0 01.11.25.2.2 0 01-.06.14.17.17 0 01-.14 0 .37.37 0 01-.24-.12.36.36 0 01-.11-.25m-2.94-3.35l.24-.77.27.11a.93.93 0 00-.26.18.28.28 0 00.25 0l-.11.27s-.1-.14-.18-.15a.29.29 0 00.18.35c.17.08.27.09.32 0s-.06-.22-.19-.17c0-.14.06-.21.15-.21s.14.06.16.16a.45.45 0 01.3-.48.46.46 0 01-.15.54.2.2 0 01.23 0 .28.28 0 01-.11.27.13.13 0 00-.16-.11.11.11 0 00-.09.05c-.05.09 0 .18.18.27a.28.28 0 00.39-.08.31.31 0 00-.25.05l.18-.33a.31.31 0 00.11.2.38.38 0 000-.33l.39.22a.41.41 0 00-.28.18.31.31 0 00.23 0l-.2.33a.38.38 0 00-.09-.25.29.29 0 00.08.4c.15.09.27.11.32 0a.15.15 0 00-.07-.19.14.14 0 00-.11 0c0-.14.08-.21.18-.2s.13.09.14.18a.44.44 0 01.39-.4.46.46 0 01-.26.5.16.16 0 01.21.06c0 .08 0 .18-.11.24a.13.13 0 00-.15-.13.11.11 0 00-.09 0c0 .08 0 .17.18.27a.28.28 0 00.4 0 .39.39 0 00-.23-.07l.18-.23a.27.27 0 00.11.22 1.71 1.71 0 000-.32l.22.18-.54.6zm2.41 6.1a.3.3 0 01-.38.11.29.29 0 010-.39.28.28 0 01.38-.11.29.29 0 010 .39m.7-1.11a.27.27 0 01-.36.11.27.27 0 010-.39.27.27 0 01.36-.11.27.27 0 010 .39"/>
  <path fill="#1d1d1b" d="M31.12 66.83h47.13v1.37H31.12zM31.12 74.2h47.13v1.37H31.12zM31.12 81.56h47.13v1.37H31.12zM31.12 88.93h47.13v1.37H31.12zM31.12 126.37h47.13v1.37H31.12zM31.12 133.74h190.9v1.37H31.12zM31.12 141.11h190.9v1.37H31.12zM31.12 148.47h190.9v1.37H31.12zM160.83 66.83h61.18v1.77h-61.18zM160.83 74.65h61.18v1.77h-61.18zM160.83 82.48h61.18v1.77h-61.18zM160.83 90.3h61.18v1.77h-61.18zM160.83 98.13h61.18v1.77h-61.18zM31.13 274.24h181.43v1.37H31.13zM31.13 284.29h181.43v1.37H31.13zM31.13 294.33h181.43v1.37H31.13zM30.98 311.11h81.32v1.37H30.98zM31.12 327.7h190.35v.23H31.12z" opacity=".6" style="isolation:isolate"/>
  <circle cx="539.47" cy="176.99" r="174.1" fill="#fff" transform="rotate(-45 539.4693683 176.9844712)"/>
  <path d="M539.47 5.39a171.6 171.6 0 11-121.34 50.26A170.47 170.47 0 01539.47 5.39m0-5A176.6 176.6 0 10716.07 177 176.6 176.6 0 00539.47.39z"/>
  <path fill="none" d="M539.47.39A176.12 176.12 0 00409.9 57H669A176.1 176.1 0 00539.47.39zM409.9 297a176.56 176.56 0 00249.51 9.59q5-4.6 9.59-9.59zM716.07 177c0-5.68-.28-11.29-.8-16.83v33.66c.52-5.55.8-11.16.8-16.83z"/>
  <path fill="#f4f3fa" d="M715.27 193.82v-33.66A175.94 175.94 0 00669 57H409.9a176.56 176.56 0 000 240H669a175.9 175.9 0 0046.27-103.18z"/>
  <path fill="#fff" d="M383.7 154.74c-1.28 0-2.33 1.4-2.33 3.13v38.24c0 1.73 1.05 3.13 2.33 3.13h304.66c1.28 0 2.32-1.4 2.32-3.13v-38.24c0-1.73-1-3.13-2.32-3.13z"/>
  <path fill="#1d1d1b" d="M418.85 183.93h-3V172.8c-.51.5-.86.83-1 1l-1.65 1.32-1.46-1.82 4.62-3.68h2.48zM402.93 183.93l-1-3.41h-5.22l-1 3.41h-3.27l5.05-14.37h3.71l5.08 14.37zm-1.76-6q-1.44-4.63-1.62-5.24c-.12-.41-.21-.73-.26-1-.24.87-.87 3-1.87 6.31zM453.58 183.93h-10v-2.1l3.59-3.64c1.07-1.09 1.76-1.84 2.09-2.26a4.78 4.78 0 00.7-1.17 3.1 3.1 0 00.22-1.12 1.64 1.64 0 00-.48-1.28 1.85 1.85 0 00-1.26-.42 3.64 3.64 0 00-1.62.38 7.44 7.44 0 00-1.63 1.08l-1.67-1.94a11.55 11.55 0 011.75-1.28 6.33 6.33 0 011.52-.57 8.11 8.11 0 011.84-.2 5.39 5.39 0 012.37.49 3.8 3.8 0 011.6 1.37 3.63 3.63 0 01.57 2 5.11 5.11 0 01-.35 1.85 7.36 7.36 0 01-1.08 1.78 25.24 25.24 0 01-2.57 2.6l-1.84 1.73v.14h6.24zM426.7 169.61h4.45a8.52 8.52 0 014.42.87 3 3 0 011.38 2.76 3.35 3.35 0 01-.6 2.1 2.37 2.37 0 01-1.6 1v.1a3.1 3.1 0 012 1.14 4.13 4.13 0 01-.81 5.27 6.13 6.13 0 01-3.85 1.09h-5.35zm3 5.67h1.77a3.14 3.14 0 001.78-.38 1.38 1.38 0 00.56-1.26 1.23 1.23 0 00-.61-1.18 3.87 3.87 0 00-1.9-.36h-1.6zm0 2.41v3.74h2a2.93 2.93 0 001.85-.48 1.72 1.72 0 00.6-1.47c0-1.19-.85-1.79-2.55-1.79zM476.24 171.94a3.09 3.09 0 00-2.66 1.28 6.06 6.06 0 00-.94 3.59c0 3.2 1.2 4.79 3.6 4.79a11.42 11.42 0 003.65-.75v2.54a10 10 0 01-3.94.74 6 6 0 01-4.78-1.9 8 8 0 01-1.65-5.44 8.94 8.94 0 01.81-3.91 5.82 5.82 0 012.34-2.57 6.88 6.88 0 013.57-.9 9.67 9.67 0 014.19 1l-1 2.47a16.25 16.25 0 00-1.62-.67 4.67 4.67 0 00-1.57-.27zM495.38 172.82a3.38 3.38 0 01-.82 2.28 4.16 4.16 0 01-2.28 1.29v.06a4.6 4.6 0 012.63 1.05 3 3 0 01.89 2.26 3.82 3.82 0 01-1.5 3.22 7 7 0 01-4.28 1.15 10.25 10.25 0 01-4.13-.78v-2.57a9.15 9.15 0 001.83.68 7.48 7.48 0 002 .27 3.81 3.81 0 002.21-.51 1.86 1.86 0 00.71-1.64 1.48 1.48 0 00-.82-1.43 6.17 6.17 0 00-2.62-.42h-1.09v-2.32h1.11a5.08 5.08 0 002.43-.43 1.59 1.59 0 00.77-1.5c0-1.08-.67-1.62-2-1.62a4.6 4.6 0 00-1.43.23 7.05 7.05 0 00-1.62.82l-1.4-2.09a7.77 7.77 0 014.67-1.41 6 6 0 013.51.9 2.9 2.9 0 011.23 2.51zM514.24 176.64a7 7 0 01-2 5.41 8.17 8.17 0 01-5.81 1.88h-4.06v-14.32h4.5a7.53 7.53 0 015.44 1.86 6.76 6.76 0 011.93 5.17zm-3.15.07q0-4.61-4.07-4.61h-1.62v9.33h1.3c2.93 0 4.39-1.58 4.39-4.72zM530.53 181h-1.72v3h-3v-3h-6.11v-2.1l6.28-9.25h2.79v9h1.72zm-4.68-2.35v-4.19a9 9 0 01.08-1.34h-.08a10.45 10.45 0 01-.87 1.57l-2.62 4zM554.09 183.93h-8.25v-14.32h8.25v2.49h-5.21v3.15h4.84v2.48h-4.84v3.7h5.21zM565.28 174.79a4.55 4.55 0 013.3 1.16 4.22 4.22 0 011.23 3.19 4.66 4.66 0 01-1.48 3.7 6.26 6.26 0 01-4.23 1.29 8.16 8.16 0 01-3.86-.78v-2.61a8.73 8.73 0 003.75.93c1.85 0 2.77-.76 2.77-2.27s-1-2.17-2.87-2.17a7.33 7.33 0 00-1.14.11 6.86 6.86 0 00-1 .22l-1.2-.65.53-7.3h7.77v2.57h-5.11l-.27 2.81.35-.07a6.5 6.5 0 011.46-.13zM579.49 183.93h-3v-14.32h8.21v2.49h-5.22v3.69h4.86v2.48h-4.86zM590.4 177.85q0-4.24 1.8-6.33a6.74 6.74 0 015.38-2.07 9.51 9.51 0 011.92.15v2.4a7.62 7.62 0 00-1.72-.19 6 6 0 00-2.54.47 3.22 3.22 0 00-1.48 1.39 6.36 6.36 0 00-.57 2.61h.12a3.32 3.32 0 013.11-1.66 3.84 3.84 0 013 1.2 4.79 4.79 0 011.09 3.33 5 5 0 01-1.29 3.63 4.79 4.79 0 01-3.59 1.34 5.16 5.16 0 01-2.76-.74 4.68 4.68 0 01-1.82-2.14 8.07 8.07 0 01-.65-3.39zm5.18 3.86a1.79 1.79 0 001.48-.65 2.93 2.93 0 00.52-1.86 2.62 2.62 0 00-.48-1.65 1.78 1.78 0 00-1.47-.6 2.24 2.24 0 00-1.57.6 1.86 1.86 0 00-.65 1.39 3.24 3.24 0 00.61 2 1.92 1.92 0 001.56.77zM621.58 175.89h5.68v7.43a16.69 16.69 0 01-2.6.63 17.41 17.41 0 01-2.5.18 6.33 6.33 0 01-4.95-1.91 8 8 0 01-1.71-5.47 7.2 7.2 0 012-5.4 7.52 7.52 0 015.5-1.94 10.71 10.71 0 014.25.88l-1 2.43a7.25 7.25 0 00-3.26-.78 4 4 0 00-3.16 1.32 5.1 5.1 0 00-1.18 3.55 5.71 5.71 0 001 3.56 3.31 3.31 0 002.78 1.23 9.64 9.64 0 001.93-.19v-3h-2.71zM635.08 183.93l5.37-11.75h-7.06v-2.55h10.27v1.9l-5.41 12.4zM661.83 183.93h-3v-6.18h-5.67v6.18h-3v-14.32h3v5.62h5.67v-5.62h3zM678.38 175.73q0 4.23-1.78 6.31a6.72 6.72 0 01-5.4 2.09 10.39 10.39 0 01-1.93-.14v-2.43a7.25 7.25 0 001.73.21 5.93 5.93 0 002.5-.45 3.07 3.07 0 001.49-1.4 6 6 0 00.6-2.63h-.12a3.34 3.34 0 01-1.31 1.3 4.24 4.24 0 01-1.86.37 3.75 3.75 0 01-2.95-1.2 4.82 4.82 0 01-1.08-3.34 5 5 0 011.31-3.63 4.72 4.72 0 013.56-1.34 5.22 5.22 0 012.78.74 4.87 4.87 0 011.83 2.16 8.32 8.32 0 01.63 3.38zm-5.18-3.85a1.8 1.8 0 00-1.47.64 2.88 2.88 0 00-.53 1.86 2.62 2.62 0 00.48 1.65 1.76 1.76 0 001.46.61 2.26 2.26 0 001.58-.61 1.8 1.8 0 00.65-1.38 3.12 3.12 0 00-.61-2 1.84 1.84 0 00-1.56-.77z"/>
  <path fill="none" stroke="#1d1d1b" stroke-width="3" d="M383.7 154.74c-1.28 0-2.33 1.4-2.33 3.13v38.24c0 1.73 1.05 3.13 2.33 3.13h304.66c1.28 0 2.32-1.4 2.32-3.13v-38.24c0-1.73-1-3.13-2.32-3.13z"/>
  <path d="M539.47 5.39a171.6 171.6 0 11-121.34 50.26A170.47 170.47 0 01539.47 5.39m0-5A176.6 176.6 0 10716.07 177 176.6 176.6 0 00539.47.39z"/>
  <path fill="#a8bd3a" d="M31.12 340c.1-.22.18-.39.3-.6a5.15 5.15 0 01-.3-.86V340m.65-4.11s-.65 0-.65.81v.13a7.85 7.85 0 00.55 2.18 5.64 5.64 0 011.22-1.4 7.59 7.59 0 014.2-1.72z"/>
  <path fill="#003c57" d="M38 336.31a8.17 8.17 0 00-4.77 1.78 5.4 5.4 0 00-1.23 1.58 6.21 6.21 0 005.24 3.23h.05a.81.81 0 00.82-.9v-5.7m-5.72 4.7a5.92 5.92 0 01-.66-1 11.43 11.43 0 00-.61 1.45v1.37h4a5.42 5.42 0 01-2.73-1.82M41.79 341.66c-1.18 0-1.71-1-1.71-2.19s.53-2.17 1.71-2.17 1.71 1 1.71 2.18-.52 2.18-1.71 2.18m0-4c-.87 0-1.18 1-1.18 1.83s.28 1.81 1.18 1.81 1.17-.95 1.17-1.81-.3-1.82-1.17-1.82M45 338.58v3h-.47v-3H44v-.3h.49v-.47a1 1 0 011-1h.11v.3h-.06a.61.61 0 00-.63.67v.53h.69v.3zM46.94 338.58v3h-.48v-3H46v-.3h.49v-.47a1 1 0 011-1h.11v.3a.61.61 0 00-.63.67v.53h.68v.3zM48.41 337.65a.29.29 0 01-.3-.29.3.3 0 01.32-.28.31.31 0 01.29.28.31.31 0 01-.3.3m-.25.62h.48v3.3h-.48zM50.71 341.66c-.78 0-1.38-.67-1.38-1.73s.6-1.72 1.4-1.72a1.21 1.21 0 01.8.23l-.13.29a1 1 0 00-.57-.18c-.67 0-1 .58-1 1.37s.39 1.38 1 1.38a1 1 0 00.59-.18l.13.32a1.32 1.32 0 01-.82.22M52.31 340.13c.07.78.49 1.17 1.16 1.17a1.88 1.88 0 00.9-.2l.14.34a2.47 2.47 0 01-1.07.22 1.51 1.51 0 01-1.59-1.73c0-1.14.61-1.72 1.44-1.72s1.34.51 1.34 1.61zm1-1.62c-.53 0-1 .42-1 1.34l1.87-.26c0-.76-.36-1.08-.89-1.08M57 338.58v3h-.47v-3H56v-.3h.49v-.47a1 1 0 011-1h.11v.3h-.06a.61.61 0 00-.63.67v.53h.69v.3zM59.4 341.66c-1 0-1.42-.75-1.42-1.73s.45-1.72 1.42-1.72 1.41.76 1.41 1.73-.44 1.72-1.41 1.72m0-3.12c-.72 0-.93.73-.93 1.41s.23 1.37.93 1.37.93-.69.93-1.37-.21-1.41-.93-1.41M62.89 338.59a1.46 1.46 0 00-1 .06v2.93h-.48v-3.15a3 3 0 011.31-.23H63zM67.23 341.61l-1.87-2.88a3.62 3.62 0 01-.24-.43v3.31h-.61v-4.21h.69l1.8 2.71a2.76 2.76 0 01.25.44V337.4h.61v4.21zM69.84 341.7c-1 0-1.42-.39-1.42-1 0-.88.93-1.12 2-1.22v-.19c0-.45-.31-.59-.76-.59a2.26 2.26 0 00-.89.19l-.17-.4a3 3 0 011.19-.24c.73 0 1.29.3 1.29 1.14v2.09a2.77 2.77 0 01-1.27.24m.61-1.91c-.82.09-1.36.24-1.36.88 0 .44.31.63.81.63a1.15 1.15 0 00.55-.11zM73 341.68a.86.86 0 01-1-.89v-2.05h-.46v-.42H72v-.75l.71-.19v.94h.64v.42h-.65v2a.42.42 0 00.39.46h.06a.58.58 0 00.19 0v.44a1 1 0 01-.39.06M74.32 337.75a.4.4 0 01-.41-.37.41.41 0 01.82 0 .4.4 0 01-.41.37m-.36.57h.71v3.29H74zM76.79 341.7c-1 0-1.51-.75-1.51-1.73s.5-1.74 1.51-1.74 1.5.75 1.5 1.74-.49 1.73-1.5 1.73m0-3c-.61 0-.79.64-.79 1.28s.19 1.25.79 1.25.79-.61.79-1.25-.18-1.28-.79-1.28M80.91 341.61v-2.36c0-.42-.36-.58-.77-.58a1.59 1.59 0 00-.57.1v2.84h-.7v-3.14a3.66 3.66 0 011.31-.24c.86 0 1.43.29 1.43 1v2.36zM83.59 341.7c-1 0-1.42-.39-1.42-1 0-.88.93-1.12 2-1.22v-.19c0-.45-.31-.59-.76-.59a2.29 2.29 0 00-.89.19l-.16-.4a3 3 0 011.18-.24c.73 0 1.3.3 1.3 1.14v2.09a2.84 2.84 0 01-1.28.24m.61-1.91c-.81.09-1.36.24-1.36.88 0 .44.32.63.81.63a1.15 1.15 0 00.55-.11zM85.59 341.61v-4.8h.7v4.8h-.7zM89.09 341.7a2.53 2.53 0 01-1.15-.24l.2-.52a1.76 1.76 0 00.81.2c.49 0 .84-.28.84-.7 0-.92-1.75-.57-1.75-1.88a1.29 1.29 0 011.39-1.24 2 2 0 011 .24l-.18.46a1.43 1.43 0 00-.73-.2.68.68 0 00-.76.67c0 .91 1.79.51 1.79 1.91a1.35 1.35 0 01-1.47 1.3M92.35 341.68a.85.85 0 01-1-.89v-2.05h-.46v-.42h.46v-.75l.7-.19v.94h.64v.42h-.64v2a.43.43 0 00.39.46h.26v.44a1.06 1.06 0 01-.39.06M94.54 341.7c-1 0-1.42-.39-1.42-1 0-.88.92-1.12 2-1.22v-.19c0-.45-.31-.59-.76-.59a2.34 2.34 0 00-.9.19l-.16-.4a3 3 0 011.19-.24c.73 0 1.29.3 1.29 1.14v2.09a2.77 2.77 0 01-1.27.24m.62-1.91c-.82.09-1.37.24-1.37.88 0 .44.32.63.81.63a1.22 1.22 0 00.56-.11zM97.72 341.68a.85.85 0 01-1-.89v-2.05h-.46v-.42h.46v-.75l.7-.19v.94h.64v.42h-.64v2a.42.42 0 00.39.46h.06a.58.58 0 00.19 0v.44a1 1 0 01-.39.06M99 337.75a.39.39 0 01-.41-.37.41.41 0 01.45-.37.42.42 0 01.37.37.4.4 0 01-.41.37m-.36.57h.71v3.29h-.71zM100.91 341.7a2.17 2.17 0 01-1-.24l.19-.45a1.41 1.41 0 00.72.19.59.59 0 00.65-.51c0-.78-1.44-.42-1.44-1.49a1 1 0 011.15-1 1.76 1.76 0 01.92.24l-.19.41a1.07 1.07 0 00-.6-.19.53.53 0 00-.59.47c0 .74 1.47.41 1.47 1.51a1.16 1.16 0 01-1.28 1M104 341.68a.85.85 0 01-1-.89v-2.05h-.46v-.42h.46v-.75l.7-.19v.94h.64v.42h-.64v2a.43.43 0 00.39.46h.06a.58.58 0 00.19 0v.44a1 1 0 01-.39.06M105.28 337.75a.39.39 0 01-.41-.37.41.41 0 01.45-.37.42.42 0 01.37.37.4.4 0 01-.41.37m-.36.57h.71v3.29h-.71zM107.67 341.7c-.81 0-1.43-.66-1.43-1.74s.63-1.73 1.43-1.73a1.36 1.36 0 01.85.24l-.16.39a.89.89 0 00-.52-.16c-.57 0-.87.5-.87 1.24s.34 1.25.86 1.25a.9.9 0 00.52-.17l.17.44a1.28 1.28 0 01-.85.24M109.88 341.7a2.17 2.17 0 01-1-.24l.18-.45a1.32 1.32 0 00.72.19.6.6 0 00.66-.51c0-.78-1.45-.42-1.45-1.49a1.05 1.05 0 011.15-1 1.77 1.77 0 01.93.24l-.19.41a1.09 1.09 0 00-.6-.19c-.37 0-.59.22-.59.47 0 .74 1.47.41 1.47 1.51a1.16 1.16 0 01-1.28 1"/>
</svg>
