<svg xmlns="http://www.w3.org/2000/svg" xmlns:xlink="http://www.w3.org/1999/xlink" viewBox="0 0 400 327.04"><defs><clipPath id="a" transform="translate(-50 -86.48)"><rect x="50" y="86.48" width="400" height="327.04" style="fill:none"/></clipPath></defs><g style="clip-path:url(#a)"><path d="M56.8,239.8s0,0,0,0a.08.08,0,0,0,0,0" transform="translate(-50 -86.48)"/><path d="M286.78,252.87a54.64,54.64,0,0,0-9-23.26,3.16,3.16,0,0,0,1.34-2.17,3.16,3.16,0,0,0-2.43.66c-.31-.42-.63-.87-1-1.28-5.88-7.39-13.32-12.59-21.28-14.89a1.63,1.63,0,0,0-1.92-1.6,1.19,1.19,0,0,0-.82.93,1.8,1.8,0,0,0-.39-.08,3.33,3.33,0,0,0-1.85-.8,3.17,3.17,0,0,0,.59,2.13v.16a1.32,1.32,0,0,0-1.17.64,1.63,1.63,0,0,0,1.17,2.14V232.5a3.26,3.26,0,0,0-2.07.93,3.11,3.11,0,0,0,2.07.93v18.45a1.61,1.61,0,0,0-1.25,2,1.31,1.31,0,0,0,1.25.75V256a3.22,3.22,0,0,0-.52,1.73,3.48,3.48,0,0,0,1.66-.45h.49a1.28,1.28,0,0,0,.75,1.16,1.57,1.57,0,0,0,2-1.16h12.34a3.18,3.18,0,0,0,.94,2.14,3.21,3.21,0,0,0,.93-2.14h14.05a1.61,1.61,0,0,0,2.08,1.32,1.33,1.33,0,0,0,.73-1.32h.29a3.4,3.4,0,0,0,1.86.52,3.35,3.35,0,0,0-.5-1.64,4.28,4.28,0,0,0-.05-.49,1.32,1.32,0,0,0,1.2-.76,1.63,1.63,0,0,0-1.49-2m-12-25.34A53.09,53.09,0,0,1,286,256.1H251.17V212.34c8.83,1.7,17.2,7.09,23.61,15.19" transform="translate(-50 -86.48)"/><path d="M285.11,254.79A52.3,52.3,0,0,0,274.24,228a43.84,43.84,0,0,0-10-9.37,36.56,36.56,0,0,0-11.64-5.22l-.73-.18v42.22h33.34ZM272.86,228.1a1.3,1.3,0,0,0-.24,1.1,1.4,1.4,0,0,0,1.42.94,3.13,3.13,0,0,0-1.11,2,3.09,3.09,0,0,0,2.24-.51,1.37,1.37,0,0,0,.53,1.63,1.19,1.19,0,0,0,.94.12,52.09,52.09,0,0,1,7.05,19.4,3.17,3.17,0,0,0-1.57-.36,3.14,3.14,0,0,0,.65,1.85H271a1.29,1.29,0,0,0-2.42-.68,3.25,3.25,0,0,0-.93-2.11,3.18,3.18,0,0,0-.95,2.11,1.28,1.28,0,0,0-2.41.68h-10a3.33,3.33,0,0,0,.54-1.8,3.21,3.21,0,0,0-1.83.57V236.79a1.48,1.48,0,0,0,1.43-.81,1.41,1.41,0,0,0-.59-1.61,3.21,3.21,0,0,0,2.11-.94,3.22,3.22,0,0,0-2.11-.92,1.46,1.46,0,0,0,.59-1.64,1.51,1.51,0,0,0-1.43-.81V216.27a3.49,3.49,0,0,0,1.53.56,3.22,3.22,0,0,0-.34-1.8,39.87,39.87,0,0,1,18.66,13.07" transform="translate(-50 -86.48)"/><path d="M278.54,248.12v-.05a2.75,2.75,0,0,0,1.37-1.29,1.64,1.64,0,0,1-1.43-.18c.51-.29,1.12,0,.54-.89s-1-1-1.61-.31-4.6-.16-4.6-3.16c0,0,0,0,0,0a2.82,2.82,0,0,0,1.29,1.1c1.94,1.17,3.82.44,4-1.15s-1.41-2.43-3.15-3.86c-.75-.63-1.31-1.16-1.74-1.6-.55-1.17,0-2.22-1.58-4.34a7.61,7.61,0,0,0-.5-1.87,5.5,5.5,0,0,0,.94,6.35c1.67,1.81,5.24,3.58,5.11,5.15a1,1,0,0,1-1,.83,4.19,4.19,0,0,1-2.38-1.18c-.12-.1-.24-.23-.34-.33h0a38.66,38.66,0,0,1-3.71-4.55c-1.65-2.13-.89-4.17-.64-5.93,1.17-1.63-.71-4.92-1.81-5.71a3,3,0,0,0-.08-1.72c-.22.21-.73.16-1,.14-.31-.61-.43-.74-.84-.81-.71-.12-.69-.53-.77-.8-.42.37-.56.74-1,.77-.6,0-.83,0-1.07.19a1.52,1.52,0,0,1-1.25.45c-.66,0-.66.38-.59.86,0,.32.06.79.48,1l.2.08.52.62.38-.67h0c.27-.26,1.17-.34,1.33.3.11.43.18.55-.36.61a11.89,11.89,0,0,1-1.44.1c-.39,0-.36.5-.36.83s.45.58,1.25.38,2.22-.34,2.22.34c0,1.79-2.15,1.64-2.58,3.8a3.77,3.77,0,0,1-1.18-1.13,6.9,6.9,0,0,0-1.54-1.89,7.18,7.18,0,0,0-1.5-1.24c-.73-.42-.73-.76-.73-1.49s.28-1.22.24-1.79a2.66,2.66,0,0,0-.17-.56,1,1,0,0,0-.95-.61.84.84,0,0,1,.38.62,2.08,2.08,0,0,0-.28.34.46.46,0,0,0,0,.64c0,.05.05.07.05.1a2.19,2.19,0,0,1-.05.31c0,.12-.06.06-.08,0-.16-.45-.37-1.09-.76-1.11a2.85,2.85,0,0,0-.31,0s0-.06,0-.09c0-.45-.52-.83-1.07-.28.11,0,.34.07.43.19a3.55,3.55,0,0,0-.11.48c0,.48.31.65.82.67.1,0,.14,0,.15.09a.76.76,0,0,1,.06.18c0,.11,0,.1-.07.07-.82-.37-1.18,0-1.19.38a2.12,2.12,0,0,0,0,.34c-.27.2-.35.62.18,1,0-.13,0-.45.18-.52a.17.17,0,0,0,.12-.05.81.81,0,0,0,.22.21c.06,0,.2,0,.47-.16a.13.13,0,0,1,.19,0l.24.16c.06,0,.05.1,0,.15-.53.52-.44,1,.24,1.18-.3.6-1.28.32-1.23-.55-.7,1.1.46,2,1.42,1.54,0,.42,0,1.17.16,1.18a.22.22,0,0,1,.21-.23c.07,0,.08.06.08.11,0,.27.11.62.49.65-.06-.17,0-.35.09-.39.17.29.35.57.51.85.44.79,1.38,2.95,3.53,3.85a10,10,0,0,0-2.53,2.42c-.59.58-1.46,1.19-2,.86-.25-.16-.3-.37-.63-.61a.79.79,0,0,0-.68-.19,1.66,1.66,0,0,0-.36.14.92.92,0,0,0-1.08.36.77.77,0,0,1,.75.11c0,.14,0,.34,0,.38,0,.26.17.54,1.29.47.07,0,.19,0,.13.11a.59.59,0,0,1-.58.18c-.5-.15-.73-.53-1.07-.08l-.24.3a.15.15,0,0,0-.13,0c-.43.14-.85,1-.34,1.33a.82.82,0,0,1,.33-.68,1.6,1.6,0,0,0,.22.25c.33.48.69.75,1.42-.35.07-.12.1,0,.09,0-.05.51-.54,1.24.13,1.33l.31.08a.45.45,0,0,0,0,.12,1,1,0,0,0,1.25.59,1.13,1.13,0,0,1-.68-.72c.15,0,.3,0,.32-.06.4-.39-.08-.88.1-1.17.06-.1.14-.08.16,0a.77.77,0,0,0,1.06.4.91.91,0,0,0,.47-.72,3,3,0,0,1,1.94-.35c-.12-.38.34-.93,1.13-1.15a1.25,1.25,0,0,1,1.4.28,3.68,3.68,0,0,1,.81-1.39c-.08,3.14,4.13,3.07,5.13,4.91a7.32,7.32,0,0,0-3.48-.62c-1,.19-2.84,1.14-3.07,2.35-.19.95.8,2.67,1.83,3.36-1.24.22-1.64-.19-2.79.13l-.1,0c-1,.11-1.11-1.6-2.24-1.16a1.53,1.53,0,0,0-.34.24c-.43,0-1.06.52-.95,1a1.25,1.25,0,0,1,.73-.4c0,.1,0,.23,0,.25s.06.36.43.36.29-.11.46-.11a.12.12,0,0,1,.12.13c0,.43-1.42-.25-1.17,1,0,0,.15.25.23.35-.05.37.25.72.89.53-.12-.08-.37-.25-.31-.45l.28,0c.06,0,.13-.05.16-.2s0,0,.06,0,.12.06.12.11-.08.13-.08.26a1.23,1.23,0,0,0,.11.38c0,.43.58.88,1.21.45-.17,0-.57-.1-.62-.33a.84.84,0,0,0,.29-.12.5.5,0,0,0,.14-.42c0-.12.07-.12.11-.12a1.57,1.57,0,0,1,.32,0c.14,0,.17,0,.18.08a.77.77,0,0,0,.9.39.63.63,0,0,0,.4-.33,4.68,4.68,0,0,1,.49.33c-.14-.47.2-.82,1.19-.16l.7-.55s1,.38,1.3,0c.59-.55.28-.57.28-1.06-.42-.95-.66-.84-.84-1.76-.32-1.56,1.84-2.45,3.1-2.22a7.08,7.08,0,0,0,4,4.41c1.45.51,2-1.09,2.5-.86a.49.49,0,0,1,.25.35,10.59,10.59,0,0,1-.13,1.79c-.17.35-1,.06-1.47,0a.69.69,0,0,0-.56.22c-.45.1-1,.49-.93,1a1.75,1.75,0,0,1,.8-.4c0,.09,0,.18,0,.2a.67.67,0,0,0,1.16.41c0-.07.23,0,.12.08-.35.27-1,.86-.45,1.09,0,0,.18.09.32.15a.76.76,0,0,0,.58.8c-.12-.19-.16-.3,0-.72h.32c.4,0,.21-.76.65-1,0,0,.1,0,.08,0-.14.43-.22,1,.18,1.1,0,0,.17.05.32.07a.75.75,0,0,0,1.1.31c-.14-.06-.43-.19-.49-.36.11-.14.27-.37.29-.4.27-.93-.53-1-.53-1.35s.93-.15.93-1.08a.47.47,0,0,0,0-.15c.45-.25.9-.55.93-.9a2.9,2.9,0,0,1-1.19-.19" transform="translate(-50 -86.48)"/><path d="M262.27,225.28h0" transform="translate(-50 -86.48)"/><path d="M239.09,272.34l-.83-.06v-.8c.13-2.9-1.6-5.07-4.75-5.07-2.8,0-8.18,3.62-15.75,3.62-3.21,0-7-1.56-9.44-2.94l-.94,2.24a.86.86,0,0,0,0-.22,1.88,1.88,0,1,0-.4,1.15l-.94,2.27c.31.13.63.28,1,.4-1.1,11.43,7.09,25.94,22,30.39,2.21-.6,4.74-.2,4.74,2.22a1.88,1.88,0,0,1-2.08,2.16c-.89,0-1.47-.52-1.47-1.11,0-1,1.76-.42,2-1.1.22-.92-.37-1.32-1.41-1.32a2.48,2.48,0,0,0-2.61,2.42,3.24,3.24,0,0,0,3.4,3.25c1.66,0,5.18-.92,4.68-5,.8,0,1.71-.08,1.9-.87l.17-2.34-.79-.09.62-26.21.58.05a1.53,1.53,0,1,0,.31-3M212,274.39l18.18,26.13C220.52,297,210.83,288,212,274.39M230.78,298l-16.57-23.8c.56,0,1,0,1.51,0a18.26,18.26,0,0,0,2.56-.19l13.29,19.07c-.3,1.84-.58,3.53-.79,4.88m-10.47-24.31a31.07,31.07,0,0,0,3.73-1.12l8.78,12.59c-.27,1.74-.55,3.55-.83,5.29ZM234.8,272l-.65-.07a1.6,1.6,0,0,0-1.86,1.36,1.54,1.54,0,0,0,1.63,1.68l.48,0-1.15,7.47-7.4-10.6c3.46-1.38,6.26-2.87,7.75-2.87,1.2,0,1.47.56,1.2,3" transform="translate(-50 -86.48)"/><path d="M233.09,216.47h0" transform="translate(-50 -86.48)"/><path d="M237,223.93c3.66,0,5.5-1.17,5.5-2.33,0-4.09-10.11-1.57-10.11-4a1.49,1.49,0,0,1,.75-1.09h0c5.09-.36,5.3-4,8.93-4.7-4.38-.61-5,2.83-6.88,3a2.35,2.35,0,0,0,1.3-2.12c-.91,1.21-2.87,1.31-3.95,2.69a.82.82,0,0,0-.19.71c-.66.42-1.08.89-1.08,1.48,0,3.87,10.27,1.23,10.27,4,0,1-1.77,1.64-4.58,1.64-2.12,0-3.63-1.52-7.56-.5,0-.67,1.31-1.9.81-2.51a1,1,0,0,0,.66-.79,1.38,1.38,0,0,0-.77-.33c.13-.19,0-.39-.19-.55s-.11-.47-.22-.55a4.06,4.06,0,0,0-.89-.6,3,3,0,0,0-.92-.26c-.13,0-.52.1-.58.08-.22,0-.48,0-.51.24a1.22,1.22,0,0,0-.72-.32,1.47,1.47,0,0,0-.09,1.11c-.37,0-.77,1-1.11.87.13.25.24.37.34.38-.29.56-.42,1.2-.77,1.24a.45.45,0,0,0,.27.3,10.55,10.55,0,0,0-.54,2.33h0a3.75,3.75,0,0,0-.8-.64c-.58-.35-.56-.64-.48-1.23a13.49,13.49,0,0,0,.48-1.44,2,2,0,0,0-.1-.44.73.73,0,0,0-.78-.53.53.53,0,0,1,.26.53,2.44,2.44,0,0,0-.29.25c-.14.14-.23.34-.06.51a.11.11,0,0,1,0,.11.6.6,0,0,1-.08.24c0,.08-.06,0-.07,0-.08-.38-.2-.9-.54-.93h-.27a.13.13,0,0,0,0-.08c.07-.38-.35-.68-.91-.24.1,0,.3,0,.36.16a2,2,0,0,0-.17.38c-.08.38.21.54.65.55.09,0,.13,0,.14.08a.9.9,0,0,0,0,.16c0,.07,0,.05-.08.05-.69-.31-1.06,0-1.12.28,0,0,0,.2,0,.27-.27.16-.4.51,0,.8,0-.12,0-.38.23-.41a.19.19,0,0,1,.1-.05c0,.08.17.15.17.17s.19,0,.45-.11a.12.12,0,0,1,.18,0,1.16,1.16,0,0,1,.2.12s0,.07,0,.12c-.58.42-.57.85.09,1,.08,0,.08.07.08.12-.19.82-1.39.65-1.2-.16-.8.91.27,1.66,1.23,1.19.07,0,.09,0,.1,0s.08.27.26.29a.23.23,0,0,1,.22-.16c.06,0,.06,0,.06.08,0,.23,0,.49.34.54,0-.16.06-.32.18-.32s.4.68.93,1.27a12.5,12.5,0,0,1-2.28.68,5.33,5.33,0,0,0-1.79.08c-.58.31-2,.83-2.42.25-.12-.2-.09-.42-.27-.71a.76.76,0,0,0-.48-.38h-.32a.82.82,0,0,0-1-.12.67.67,0,0,1,.54.36,1.36,1.36,0,0,0-.15.3c-.12.18,0,.47.85.79,0,0,.13.11.05.14a.47.47,0,0,1-.5-.06c-.36-.27-.4-.67-.83-.42l-.27.14a.2.2,0,0,0-.11,0c-.39,0-1,.45-.72.9a.73.73,0,0,1,.47-.41,2.51,2.51,0,0,1,.09.29c.1.46.29.82,1.25.19.08-.07.08,0,.06.07-.22.39-.86.79-.37,1.1a2.65,2.65,0,0,1,.23.16s-.05.06-.05.08a.85.85,0,0,0,.79.91.93.93,0,0,1-.28-.8,1.05,1.05,0,0,0,.24.07c.47-.18.26-.73.51-.92.09,0,.12,0,.13.07,0,.22.13.73.69.68a.73.73,0,0,0,.7-.76c0-.05,0-.05,0-.05a.54.54,0,0,1,.25.6.9.9,0,0,0,.4-.4.76.76,0,0,1-.21.93,1.29,1.29,0,0,0,.87-.9.73.73,0,0,1,.2.28l0,0a1.81,1.81,0,0,0,1.08,0c.06,0,.08,0,.06.07a.66.66,0,0,0,.07.55c0-.08.14-.28.22-.28s0,.53.31.85c.12-1.37.87-.83,1.72-1.37.09-.08.11,0,.08.05a.8.8,0,0,1-.37.44c.33,0,1.06-.31,1.06-.79,0-.11.27-.29.57-.47a.93.93,0,0,0,.95-.44c.06.14.19.54,0,.66.91,0,1.85-1,2.2-1.06,1.93-.4-1.22-1.78,2.75-1.56a1.89,1.89,0,0,0,1.13-.41c-.3.57-.33,1.77.29,1.85a2.75,2.75,0,0,1,1,.44c0,.06,0,.1-.05.1a3.43,3.43,0,0,0-.83.21c-.93.63-1-1.38-1.94-1a2.78,2.78,0,0,0-.27.19c-.39,0-.91.46-.81.86a1,1,0,0,1,.63-.35,2.07,2.07,0,0,0,0,.21c0,.14,0,.32.35.32s.24-.11.39-.11a.11.11,0,0,1,.11.12c0,.39-1.22-.21-1,.8a.94.94,0,0,0,.17.33c0,.31.21.61.75.44-.1-.08-.28-.21-.25-.37a1.09,1.09,0,0,1,.24,0s.1,0,.13-.17,0-.05.06-.05a.12.12,0,0,1,.1.11s-.08.11-.08.2a2.22,2.22,0,0,0,.1.31c0,.4.51.77,1,.4-.13,0-.5-.08-.52-.26l.24-.12c.09,0,.11-.19.11-.37a.09.09,0,0,1,.1-.08,1.23,1.23,0,0,0,.27,0c.12,0,.16,0,.17.08a.62.62,0,0,0,.78.3c.65-.24.09-.8.61-.92a.9.9,0,0,1,.4,0c.51.13,1.29.12,1.42-.14a1.42,1.42,0,0,0-.49-1.51c-.33-.14,0-.54-.29-1a5,5,0,0,0,1.94.47c1.42,0,.07-.22.7-.59a2.22,2.22,0,0,1,1.71-.18c.18,0,.32.11.28.36-.17.74.07.8-.09,1.12s-.75.06-1.16,0a.5.5,0,0,0-.44.19.9.9,0,0,0-.75.8,1.47,1.47,0,0,1,.64-.33,1,1,0,0,1,0,.16.55.55,0,0,0,.93.34c0-.07.17,0,.09,0-.27.22-.8.72-.37.89,0,0,.14.08.26.14a.66.66,0,0,0,.45.66c-.1-.15-.11-.28,0-.61h.26c.28,0,.15-.62.5-.81,0,0,.09,0,.06,0-.12.37-.19.78.15.89l.25.06a.56.56,0,0,0,.85.27c-.08,0-.32-.16-.37-.32a1.32,1.32,0,0,0,.22-.33c.21-.75-.42-.76-.42-1.08s.74-.13.74-.89a.48.48,0,0,0-.32-.46,0,0,0,0,1,0-.05h0c.2,0,.42.07.54-.24-.56,0-.4-.43-.46-.74,0,0,0-.08,0-.13s.33-.34.26-.81c-.19.26-.8.55-.87,0,0,0-.05-.38-.6-.29-.93.09-1.4-.4-3.17-.55-.09,0-.19-.1,0-.13m-9.35-5.15c-.16.27-.49.49-.75.24s0-.33-.29-.83a4.84,4.84,0,0,0,1,.59m.65,1.88c-.1,0-.09-.31-.28-.32s-.14.11,0,.35c-.24-.09-.47-.21-.57,0a.37.37,0,0,0,.07.49c.07.09,0,.28-.06.49s-.36.56-.71.35a.54.54,0,0,1-.19-.77c.1-.22.19-.39.3-.39s.33,0,.4-.23-.14-.35-.35-.5c.21-.06.34-.18.21-.26s-.35.08-.4,0,.13-.18.19-.25.19-.07.31,0l1,.47c.11.06.19.1.19.26s0,.27-.06.32m.53-.7c-.34,0-.5-.48-.43-.79a5.56,5.56,0,0,0,1.22.47c-.57.12-.42.33-.79.32" transform="translate(-50 -86.48)"/><path d="M214.82,236.14a12.75,12.75,0,0,0-1.49-1.3c-.67-.37-.67-.72-.62-1.41s.33-1.14.33-1.71c0,0-.09-.35-.14-.5a.88.88,0,0,0-.88-.6.72.72,0,0,1,.33.6,3.6,3.6,0,0,1-.3.32.46.46,0,0,0,0,.6.11.11,0,0,1,0,.12.89.89,0,0,1-.07.27c0,.1-.05.06-.08,0-.11-.42-.28-1-.66-1.05a.83.83,0,0,0-.28,0,.19.19,0,0,0,0-.09c0-.44-.45-.78-1-.27.11,0,.33.05.4.19a3.21,3.21,0,0,0-.13.43c-.05.47.26.64.73.64.1,0,.14,0,.15.08a.65.65,0,0,1,0,.19c0,.1,0,.08-.06.06-.77-.33-1.12,0-1.15.36a1.69,1.69,0,0,0,0,.32c-.3.19-.39.6.11.92,0-.14,0-.41.21-.49l.1,0a1.26,1.26,0,0,0,.21.18s.19,0,.45-.15a.19.19,0,0,1,.18,0l.22.16c.06,0,0,.09,0,.14-.56.51-.49,1,.19,1.12a.14.14,0,0,1,.11.16.65.65,0,1,1-1.27-.18c-.75,1.11.45,1.93,1.41,1.4.08-.05.09,0,.11,0s.13.33.3.35a.22.22,0,0,1,.22-.21c.07,0,.07,0,.07.1,0,.25.07.58.42.61,0-.18,0-.37.14-.37s.6.72,1.37,1.18c.65.27,1.08,1,1.5.53-.07.66.56,1.43.4,1.43a8.4,8.4,0,0,0-2.4.11c-.63.35-2.23.91-2.68.25-.17-.22-.11-.45-.33-.78a.79.79,0,0,0-.5-.42l-.37,0a1,1,0,0,0-1.08-.11.81.81,0,0,1,.61.4,2.52,2.52,0,0,0-.18.32c-.13.21-.06.55,1,.89,0,0,.14.11,0,.17A.52.52,0,0,1,210,241c-.39-.29-.44-.75-.92-.46l-.31.14a.45.45,0,0,0-.11,0c-.44,0-1.11.5-.81,1a.73.73,0,0,1,.54-.45c0,.12.07.26.09.32.11.51.32.9,1.38.2.11-.07.11,0,.07.07-.24.44-.94.86-.39,1.2a1.15,1.15,0,0,0,.24.21.07.07,0,0,0-.05.08.93.93,0,0,0,.87,1,1,1,0,0,1-.32-.89.63.63,0,0,0,.29.08c.5-.2.28-.81.55-1,.09-.05.14,0,.14.07,0,.25.14.82.77.76a.8.8,0,0,0,.77-.84c0-.06,0-.06.06-.06a.59.59,0,0,1,.28.65,1.21,1.21,0,0,0,.44-.44.89.89,0,0,1-.24,1,1.51,1.51,0,0,0,1-1,1,1,0,0,1,.2.33l.06-.05a2,2,0,0,0,1.19,0c.07,0,.07,0,.07.08a.69.69,0,0,0,.07.6c0-.08.15-.32.24-.32s0,.6.34,1c.13-1.52,1-.91,1.92-1.53.11-.05.11,0,.08.06a.78.78,0,0,1-.41.5c1.06.24,2.7-1.36,2.94-2a5.69,5.69,0,0,1,1-.09c3,.27.91-2.7,5.74-1.86a2,2,0,0,0,1.17-.54c-.35.64-.37,2,.31,2.08a2.45,2.45,0,0,1,1.13.46c.07.07,0,.1,0,.12a3.92,3.92,0,0,0-.94.21c-1,.7-1.05-1.52-2.13-1.11a1.08,1.08,0,0,0-.31.24c-.43,0-1,.49-.92,1a1.43,1.43,0,0,1,.71-.41c0,.12,0,.22,0,.24,0,.17,0,.37.41.37.21,0,.26-.13.41-.13a.13.13,0,0,1,.13.13c0,.41-1.35-.23-1.11.89l.2.37c0,.33.25.69.84.47-.11-.06-.33-.22-.27-.39l.25,0c.07,0,.13,0,.16-.18s0-.05.07-.05a.09.09,0,0,1,.09.09c0,.07-.06.14-.06.23s0,.33.1.36c-.06.43.55.87,1.15.44-.17,0-.55-.11-.6-.3l.29-.1a.61.61,0,0,0,.13-.43.09.09,0,0,1,.1-.1,1.46,1.46,0,0,0,.29,0,.22.22,0,0,1,.21.07.65.65,0,0,0,.84.36c.73-.25.11-.89.7-1a.78.78,0,0,1,.43,0c.57.14,1.42.11,1.56-.14a1.54,1.54,0,0,0-.54-1.69c-.36-.17,0-.62-.32-1.14a5.25,5.25,0,0,0,2.17.52,3.8,3.8,0,0,0,2.66-.66,2.6,2.6,0,0,1,1.89-.19c.2,0,.36.11.3.39-.17.81.09.9-.1,1.27s-.82,0-1.28,0a.5.5,0,0,0-.47.21,1,1,0,0,0-.84.89,1.47,1.47,0,0,1,.72-.38c0,.06,0,.17,0,.18a.59.59,0,0,0,1,.37s.2,0,.1.08c-.3.24-.88.78-.4,1a.92.92,0,0,0,.29.16.7.7,0,0,0,.5.74c-.1-.18-.13-.3,0-.69h.26c.34,0,.18-.67.57-.89.06,0,.09,0,.07,0-.13.41-.2.89.15,1a2.73,2.73,0,0,1,.29.07.66.66,0,0,0,1,.29c-.1-.05-.37-.19-.43-.35a2.15,2.15,0,0,0,.26-.37c.24-.82-.46-.84-.46-1.21s.81-.12.81-1a.55.55,0,0,0-.37-.51s0,0,0,0h0c.22,0,.47.05.59-.28-.61.05-.43-.47-.52-.81a.12.12,0,0,1,0-.14.86.86,0,0,0,.27-.9c-.19.28-.88.61-1,0,0,0,0-.46-.67-.33a22.82,22.82,0,0,1-3.72-.29c2.25,0,5.56-.58,5.56-1.85,0-1.07-1.16-1.73-4.59-1.73s-11.15,1.27-11.15-.65c0-1,1.51-.88,3.32-.77a1.34,1.34,0,0,0,.74.4c4.41,1.28,9.62-1,12.29-.28-3.14-2.38-5.76.09-9.12-.64,2,0,2.63-.58,2.74-1.1-1.54,1-4.43-.5-6.22.61a1.4,1.4,0,0,0-.29.23c-2.43-.07-4.4-.07-4.4,1.55,0,3.43,9.18,1.43,12.06,1.43s3.49.28,3.49.83c0,.8-2.87,1-4.48,1-2.5,0-10-1.3-14.56-.39.37-.74,1.18-1.7.73-2.24a1.11,1.11,0,0,0,.73-.87A1.61,1.61,0,0,0,222,233c.13-.2,0-.43-.21-.61,0,0-.14-.51-.24-.59a5.27,5.27,0,0,0-1-.68,3.4,3.4,0,0,0-1-.3,4,4,0,0,0-.61.11c-.24,0-.54,0-.58.24a1.4,1.4,0,0,0-.8-.33,1.74,1.74,0,0,0-.1,1.23c-.41,0-.85,1.08-1.21.95.14.29.27.4.37.43-.33.61-.48,1.34-.86,1.36.24.32.42.48.55.5-.05.47-.06.94-.09,1.33l-.72-.27Zm5.37-3.09a6.15,6.15,0,0,0,1.34.52c-.61.13-.47.36-.86.36s-.53-.54-.48-.88m-.83-.44c-.16.31-.54.56-.84.27s0-.37-.32-.92a5.08,5.08,0,0,0,1.16.65m-1.26,2.77c.12-.23.22-.42.35-.42a.39.39,0,0,0,.43-.27c.11-.27-.15-.39-.38-.55.24-.07.37-.18.24-.29s-.4.08-.45,0,.14-.19.22-.27.18-.07.34,0l1.08.5c.14.07.22.14.22.29s0,.32-.08.36-.09-.32-.29-.36-.18.16-.06.38c-.27-.06-.5-.2-.64,0a.43.43,0,0,0,.09.54c.09.1,0,.3-.08.55s-.4.59-.77.39a.6.6,0,0,1-.22-.86m2.81,6s0,0,0,0,0,0,0,0" transform="translate(-50 -86.48)"/><path d="M217,256.05l.53-.11s-.05.19-.06.19c1,.06.87-.89,1.27-.83,5.61.75,2.39-2.41,9-1.77.3,0,.44-.16.72-.39-.34.63-.36,1.69.31,1.82a2.44,2.44,0,0,1,1.14.5c.06.06,0,.09,0,.09a3,3,0,0,0-.93.24c-1,.67-1-1.54-2.13-1.1a2.9,2.9,0,0,0-.31.19c-.44,0-1,.53-.91,1a1.11,1.11,0,0,1,.7-.4,2.13,2.13,0,0,0,0,.22c0,.18,0,.37.4.37.21,0,.27-.13.42-.13a.12.12,0,0,1,.12.13c0,.41-1.34-.24-1.09.91a2.27,2.27,0,0,0,.21.34c-.05.35.22.67.83.49-.11-.07-.33-.22-.28-.41h.26c.07,0,.12,0,.14-.17a.07.07,0,0,1,.07-.05c.06,0,.12.05.12.1s-.08.12-.08.25a1.64,1.64,0,0,0,.09.35c-.06.42.55.85,1.17.44-.17,0-.56-.1-.6-.31l.28-.11a.52.52,0,0,0,.13-.42c0-.09.07-.09.11-.09a2.58,2.58,0,0,1,.29,0,.16.16,0,0,1,.19.09.66.66,0,0,0,.85.35c.73-.25.11-.89.69-1a.69.69,0,0,1,.45,0c.58.13,1.42.1,1.58-.16a1.59,1.59,0,0,0-.56-1.68c-.34-.16,0-.61-.32-1.15a5.24,5.24,0,0,0,2.15.54,3.93,3.93,0,0,0,2.67-.66,2.68,2.68,0,0,1,1.89-.2c.2,0,.37.14.3.4-.16.83.09.91-.08,1.26s-.83.07-1.3,0a.52.52,0,0,0-.47.22,1,1,0,0,0-.84.9,1.45,1.45,0,0,1,.71-.38c0,.08,0,.16,0,.17a.57.57,0,0,0,1,.36c.06,0,.2,0,.11.08-.29.24-.88.78-.41,1a2.28,2.28,0,0,1,.28.14.74.74,0,0,0,.51.74c-.09-.18-.13-.3,0-.66h.29c.34,0,.18-.69.56-.92,0,0,.08,0,.07,0-.12.4-.2.89.16,1a2.19,2.19,0,0,0,.28.08.64.64,0,0,0,1,.27c-.12-.05-.37-.18-.42-.34a3.21,3.21,0,0,0,.24-.35c.24-.85-.47-.87-.47-1.2s.82-.15.82-1a.52.52,0,0,0-.35-.5.08.08,0,0,1,0-.06h0c.24,0,.48.06.61-.27-.63,0-.42-.48-.52-.82,0-.06,0-.1,0-.15a.87.87,0,0,0,.27-.89c-.19.29-.87.62-1,0,0,0,0-.44-.67-.33a21.76,21.76,0,0,1-3.73-.29c2-.16,5.57-.56,5.57-1.85,0-1-1.17-1.72-4.6-1.72s-14,1.26-14-.65c0-1.23,3.57-.75,6.18-.67a1.35,1.35,0,0,0,.77.49c4.41,1.24,9-1.71,12.22-.65-2.52-2.26-5.76.25-9.09-.45,1.94,0,4-.4,4.12-.94-1.52,1-5.83-.68-7.62.46a1.05,1.05,0,0,0-.3.25c-3.24,0-7.22-.46-7.22,1.51,0,3.42,12,1.41,14.89,1.41s3.49.29,3.49.84c0,.83-2.87,1-4.48,1-2.68,0-13.9-1.48-18.38-.13.26-.76,1.34-1.89.84-2.48a1.08,1.08,0,0,0,.72-.88,1.58,1.58,0,0,0-.83-.39c.12-.19,0-.43-.21-.61-.05,0-.13-.5-.25-.59a4.8,4.8,0,0,0-1-.68,3.35,3.35,0,0,0-1-.28c-.12,0-.57.11-.63.09-.24,0-.54,0-.57.26a1.29,1.29,0,0,0-.8-.34,1.6,1.6,0,0,0-.11,1.22c-.4,0-.84,1.06-1.21.94.15.3.26.43.37.45-.32.6-.46,1.33-.85,1.35a1.72,1.72,0,0,0,.36.41,6.14,6.14,0,0,0-.12,1l-.36-.14a3.22,3.22,0,0,1-.54,0l-.56-.09c-.53,0-.93-.92-1.87-1.46-.66-.37-.69-.73-.69-1.42s.28-1.13.24-1.7c0-.05-.1-.34-.16-.51a.93.93,0,0,0-.92-.6.74.74,0,0,1,.36.61c-.1.12-.26.27-.26.32a.41.41,0,0,0,0,.59.17.17,0,0,1,.06.12.69.69,0,0,1-.06.26c0,.13-.07.06-.08,0-.15-.42-.34-1-.73-1.05a2,2,0,0,0-.26,0s0-.06,0-.09c0-.43-.48-.77-1-.27.12,0,.33.06.41.19a3.07,3.07,0,0,0-.11.45c0,.45.3.63.79.63a.2.2,0,0,1,.14.07,1.66,1.66,0,0,0,.06.21c0,.06,0,.06-.06,0-.8-.34-1.13,0-1.14.37a1.05,1.05,0,0,0,0,.3c-.28.21-.34.62.17.92,0-.12,0-.41.16-.46a.45.45,0,0,0,.12-.06c.07.09.19.18.21.21s.19,0,.45-.16a.13.13,0,0,1,.18,0l.23.14c.06,0,0,.08,0,.13-.53.51-.44,1,.26,1.12a.15.15,0,0,1,.09.16c-.05,1-1.32.79-1.27-.18-.68,1.11.56,1.93,1.51,1.39,0,0,.08,0,.09,0s.15.34.32.35a.21.21,0,0,1,.21-.19c.06,0,.06,0,.07.1a.6.6,0,0,0,.46.63c-.06-.22,0-.4.12-.4a11.41,11.41,0,0,0,2.28,2.08c.24-.08.64-.08.77-.41a.59.59,0,0,0,.3.33c0,.64.48,1.43.34,1.43a11.49,11.49,0,0,0-2.85.16c-.64.32-2.21.91-2.67.24-.16-.23-.11-.43-.31-.77a.92.92,0,0,0-.52-.41h-.37a.93.93,0,0,0-1.08-.14.89.89,0,0,1,.61.4c-.07.13-.16.29-.17.32-.14.21-.06.55.94.9.05,0,.14.11.07.15a.55.55,0,0,1-.57-.06c-.38-.32-.44-.74-.91-.47l-.31.14a.5.5,0,0,0-.13,0c-.43,0-1.09.5-.81,1a.79.79,0,0,1,.55-.47c0,.13.1.25.11.31.07.52.31.92,1.36.21.1,0,.1,0,.07.07-.23.42-1,.88-.4,1.22l.24.18s0,.08,0,.09a.93.93,0,0,0,.87,1,1,1,0,0,1-.31-.91c.11.06.25.13.28.09.51-.19.27-.8.56-1,.08-.05.13,0,.13.08,0,.25.15.81.77.75a.79.79,0,0,0,.76-.85s0-.06.07,0a.59.59,0,0,1,.29.62,1,1,0,0,0,.43-.43.87.87,0,0,1-.26,1,1.36,1.36,0,0,0,1-1,.87.87,0,0,1,.21.32l0,0a2.41,2.41,0,0,0,1.2,0c.06,0,.08,0,.07.05a.71.71,0,0,0,.07.61c0-.05.15-.29.26-.29s0,.59.32.93c.14-1.52,1.92-.74,2.88-1.36.1-.08.11,0,.09,0a1,1,0,0,1-.41.5,2.32,2.32,0,0,0,1.07-.37c.64-.26,1.76-.75,1.68-1.15m-1.86-9.1c-.17.29-.55.54-.83.25s0-.35-.34-.91a8.08,8.08,0,0,0,1.17.66m.71,2.06c-.11,0-.09-.32-.29-.37s-.17.15-.06.4c-.26-.08-.51-.21-.64,0a.45.45,0,0,0,.08.56c.09.08,0,.28-.07.54s-.4.6-.77.4a.63.63,0,0,1-.23-.87c.12-.23.22-.42.34-.42a.37.37,0,0,0,.45-.27c.1-.27-.16-.39-.39-.54.25-.07.39-.18.25-.32s-.4.1-.45,0,.13-.2.21-.28.2-.06.34,0l1.08.52c.13.07.22.12.22.26s.05.33-.07.37m.61-.76c-.4,0-.56-.53-.48-.88a5.19,5.19,0,0,0,1.34.52c-.62.14-.47.38-.86.36" transform="translate(-50 -86.48)"/><path d="M285.05,274.38c0-.06,0-.12,0-.15a.92.92,0,0,0,.36-.9c-.22.29-.94.62-1,.05,0,0,0-.46-.65-.33a24.82,24.82,0,0,1-4-.31c-.13,0-.22-.09,0-.11,2.37-.16,5.56-.45,5.56-1.72,0-1.07-1.17-1.73-4.6-1.73s-14,1.25-14-.67c0-1.22,3.54-.72,6.17-.65a1.22,1.22,0,0,0,.78.47c4.4,1.26,9.44-2,12.12-1.28-3.48-1.21-5.67.9-9,.18,2,0,4-.39,4.12-.9-1.53,1-5.81-.69-7.62.43a1.11,1.11,0,0,0-.29.28c-3.26-.06-7.24-.46-7.24,1.47,0,3.42,12,1.42,14.91,1.42s3.49.31,3.49.86c0,.8-2.86,1-4.48,1-2.68,0-13.91-1.5-18.38-.15.26-.75,1.35-1.9.84-2.48a1.12,1.12,0,0,0,.73-.88,1.59,1.59,0,0,0-.85-.38c.13-.21,0-.43-.21-.61s-.14-.51-.24-.58a4.48,4.48,0,0,0-1-.69,3.18,3.18,0,0,0-1-.29,3.27,3.27,0,0,0-.63.09c-.25,0-.54,0-.58.27a1.34,1.34,0,0,0-.79-.36,1.71,1.71,0,0,0-.11,1.24c-.4,0-.83,1.06-1.21.95.15.29.26.4.36.43-.32.61-.46,1.34-.84,1.36.23.32.4.48.55.51-.05.34-.06.69-.08,1l-.59-.2a3.43,3.43,0,0,1-.54,0,3.7,3.7,0,0,0-.57-.1c-.54,0-.94-.94-1.86-1.45-.67-.4-.69-.73-.69-1.44s.28-1.13.24-1.67a4.06,4.06,0,0,0-.19-.55.92.92,0,0,0-.9-.59.77.77,0,0,1,.37.6,2.78,2.78,0,0,0-.27.32.42.42,0,0,0,0,.58.17.17,0,0,1,0,.14,1.57,1.57,0,0,1,0,.27c0,.1-.06.06-.08,0-.14-.43-.35-1-.72-1.06a.88.88,0,0,0-.29,0,.19.19,0,0,0,0-.08c0-.43-.48-.79-1-.27.13,0,.34,0,.41.19s-.1.41-.11.45c0,.44.3.62.77.62.1,0,.15,0,.16.1s0,.13,0,.16,0,.08-.06.08c-.79-.35-1.12,0-1.14.37V268c-.26.18-.33.59.19.91,0-.12,0-.41.16-.49a.18.18,0,0,0,.11,0,1.65,1.65,0,0,0,.21.2c.07,0,.18,0,.47-.17a.17.17,0,0,1,.17,0,.76.76,0,0,0,.23.15.09.09,0,0,1,0,.15c-.53.5-.44,1,.25,1.12.09,0,.11.08.11.16-.05,1-1.35.78-1.28-.18-.7,1.11.56,1.94,1.48,1.37a.08.08,0,0,1,.12.05c0,.17.16.34.32.35a.2.2,0,0,1,.2-.2c.07,0,.07,0,.07.09,0,.27.11.58.48.63-.07-.2,0-.38.11-.38s.8,1.41,2.19,2.19c0-.13.55-.36.86-.51a.84.84,0,0,0,.47.63l.24-.14c-.1.66.69,1.33.54,1.33a5.56,5.56,0,0,0-2,.08c-.66.35-2.21.92-2.69.26-.15-.23-.12-.45-.31-.79a.77.77,0,0,0-.52-.42h-.36a1,1,0,0,0-1.09-.11.73.73,0,0,1,.61.4l-.17.31c-.13.21-.05.54.94.9.05,0,.16.1.07.15a.55.55,0,0,1-.57-.07c-.39-.29-.44-.75-.91-.46l-.3.14-.12,0c-.44,0-1.11.51-.81,1a.74.74,0,0,1,.54-.44,2.49,2.49,0,0,1,.09.3c.11.54.32.91,1.37.22.13-.08.11,0,.08.07-.25.43-.94.87-.4,1.2a1.68,1.68,0,0,0,.23.17c0,.05,0,.08,0,.13a1,1,0,0,0,.87,1,1.23,1.23,0,0,1-.32-.9,1.06,1.06,0,0,0,.3.09c.5-.21.27-.82.56-1,.08-.06.12,0,.13.07,0,.26.15.82.75.76a.81.81,0,0,0,.79-.84c0-.06,0-.07,0-.06a.6.6,0,0,1,.3.64,1.08,1.08,0,0,0,.43-.43.9.9,0,0,1-.24,1,1.48,1.48,0,0,0,1-1,1,1,0,0,1,.21.34l.05,0a2.32,2.32,0,0,0,1.19,0c.06,0,.09,0,.07.05a.83.83,0,0,0,.07.62c0-.08.17-.33.25-.33s0,.6.35.95c.13-1.52.95-.9,1.9-1.53.11-.07.12,0,.09.06a.91.91,0,0,1-.42.51c.35.27,1.75-.61,1.75-1.16,0-.16.53-.21,1-.29,1,.05.85-.73,1.25-.67,5.61.75,2.39-2.42,9-1.79.33,0,.47-.35.75-.61-.35.62-.36,1.95.3,2.07a2.68,2.68,0,0,1,1.15.46c.05.08,0,.11,0,.13a2.38,2.38,0,0,0-.93.24c-1,.67-1.06-1.55-2.14-1.14a1.23,1.23,0,0,0-.29.24c-.45,0-1,.5-.91.93a1.19,1.19,0,0,1,.68-.38c0,.11,0,.22,0,.22,0,.18.06.35.41.35s.26-.11.42-.11.11.06.11.14c0,.42-1.34-.24-1.09.89a1.62,1.62,0,0,0,.21.36c-.05.34.23.67.84.5-.12-.1-.33-.23-.29-.43l.27,0c.05,0,.11-.05.14-.2s0,0,.07,0,.11,0,.11.09-.08.14-.08.25.06.32.11.35c-.06.41.55.86,1.16.43-.17,0-.55-.09-.61-.29l.28-.11a.51.51,0,0,0,.14-.41c0-.11.06-.13.11-.13h.28c.14,0,.18.05.2.09a.69.69,0,0,0,.86.35c.72-.26.09-.88.68-1a1.3,1.3,0,0,1,.44,0c.58.14,1.42.12,1.57-.15a1.52,1.52,0,0,0-.55-1.66c-.35-.18,0-.62-.3-1.15a5.07,5.07,0,0,0,2.14.53,4.5,4.5,0,0,0,2.8-.66,2.75,2.75,0,0,1,1.93-.21c.18.05.33.13.26.4-.24.82,0,.9-.19,1.27s-.83.05-1.31,0a.57.57,0,0,0-.5.22,1.06,1.06,0,0,0-.89.88,1.51,1.51,0,0,1,.73-.37v.16a.55.55,0,0,0,1,.37c.06-.05.22,0,.13.09-.35.23-1,.75-.5,1l.27.15a.61.61,0,0,0,.43.72c-.08-.17-.09-.28.09-.65h.29c.34,0,.23-.68.64-.9.06,0,.09,0,.07,0-.17.39-.28.89.07,1l.27.06c.08.3.45.54.95.29-.12,0-.37-.18-.4-.33a2.7,2.7,0,0,0,.28-.37c.32-.85-.4-.87-.36-1.21s.82-.14.9-1a.49.49,0,0,0-.31-.5l0,0h0c.25,0,.47,0,.62-.28-.62,0-.37-.47-.43-.81M260.3,268a7,7,0,0,0,1.34.52c-.61.13-.46.37-.86.36s-.55-.55-.48-.88m-.83-.43c-.18.3-.53.55-.84.27s0-.38-.32-.95a5,5,0,0,0,1.16.68m-1.27,2.75c.11-.24.21-.41.35-.41s.37-.06.43-.3-.14-.36-.38-.52c.25-.08.38-.19.25-.3s-.4.09-.46,0,.13-.21.23-.28.18-.08.33,0L260,269c.14.07.23.14.23.29s0,.31-.08.35-.1-.31-.3-.36-.16.15,0,.4c-.28-.09-.52-.21-.66,0a.45.45,0,0,0,.1.54c.08.09,0,.3-.08.55s-.41.59-.78.38a.62.62,0,0,1-.22-.86" transform="translate(-50 -86.48)"/><path d="M269.86,281.51a1.14,1.14,0,0,0,.79.54c4.2,1.21,9-1.95,11.55-1.21-3.32-1.17-5.4.84-8.58.16,1.85,0,3.83-.36,3.92-.87-1.43.94-5.53-.65-7.25.42a.74.74,0,0,0-.25.21c-1.76,0-4.22-.09-4.22,1.48,0,3.25,8.75,1.35,11.48,1.35,2.1,0,2.43.27,2.43.8,0,.77-3.14,1-4.68,1-2.37,0-9.53-1.22-13.87-.37.35-.71,1.12-1.62.7-2.13a1,1,0,0,0,.69-.84,1.37,1.37,0,0,0-.81-.35c.13-.2,0-.42-.18-.59s-.14-.49-.23-.57a5,5,0,0,0-1-.63,3.47,3.47,0,0,0-1-.28,4,4,0,0,0-.6.08c-.24,0-.51,0-.54.26a1.36,1.36,0,0,0-.76-.34,1.58,1.58,0,0,0-.11,1.17c-.4,0-.8,1-1.15.91.13.27.24.39.35.41-.32.59-.45,1.28-.82,1.3a1.83,1.83,0,0,0,.33.37,6,6,0,0,0-.2,1.24l-.38-.13-.18,0a2.77,2.77,0,0,1-1.69-.5c-.66-.35-.68-.68-.68-1.34s.28-1.08.23-1.62a4.14,4.14,0,0,0-.14-.5.88.88,0,0,0-.88-.56.7.7,0,0,1,.34.58,1.52,1.52,0,0,0-.25.28.45.45,0,0,0,0,.58.12.12,0,0,1,.08.12,1.18,1.18,0,0,1-.07.27c0,.1,0,0-.06,0-.13-.41-.32-1-.7-1a1,1,0,0,0-.26,0s0-.05,0-.1c0-.41-.45-.74-1-.22a.53.53,0,0,1,.38.17c0,.12-.1.37-.1.42,0,.42.3.59.74.61a.15.15,0,0,1,.15.07.49.49,0,0,0,.07.19c0,.08,0,.07-.08,0-.75-.32-1.07,0-1.08.35a1.53,1.53,0,0,0,0,.29c-.25.2-.31.58.16.9,0-.15,0-.42.16-.48l.11,0c.06.06.19.15.2.17s.19,0,.42-.16h.19a1.73,1.73,0,0,0,.2.15c.07,0,.06.09,0,.13-.51.48-.43,1,.24,1.08a.14.14,0,0,1,.11.16c-.06.9-1.29.73-1.22-.18-.66,1.06.52,1.84,1.43,1.32.05,0,.07,0,.08,0,.06.19.14.34.32.35,0-.05.06-.21.18-.21s.08.07.08.11a.54.54,0,0,0,.44.59c0-.18,0-.37.12-.37s.14-.4,1.27.21a.74.74,0,0,0,.4.45l.84-.14c-.1.63.08,1.6-.06,1.6a5.22,5.22,0,0,0-1.86.07c-.63.33-2.13.87-2.56.24-.17-.22-.11-.41-.31-.74a.77.77,0,0,0-.48-.39h-.36a.89.89,0,0,0-1-.12.77.77,0,0,1,.58.37,2.2,2.2,0,0,1-.17.31c-.1.22-.06.51.92.86,0,0,.11.11,0,.14a.48.48,0,0,1-.52-.06c-.37-.29-.44-.7-.88-.46l-.3.15a.28.28,0,0,0-.11,0c-.41,0-1.06.49-.77,1a.75.75,0,0,1,.53-.43c0,.11.08.25.09.29.1.5.29.89,1.3.22.1-.08.1,0,.08,0-.24.41-.9.83-.4,1.16a1.57,1.57,0,0,0,.24.17.33.33,0,0,0-.05.12.88.88,0,0,0,.83.93,1.07,1.07,0,0,1-.31-.84c.12,0,.25.1.3.07.46-.18.25-.78.51-.95.09,0,.12,0,.15.06,0,.23.12.77.71.73a.73.73,0,0,0,.72-.81s0-.08.08,0a.58.58,0,0,1,.27.61,1,1,0,0,0,.4-.42.84.84,0,0,1-.22,1,1.37,1.37,0,0,0,.92-1,1,1,0,0,1,.21.3s0,0,.05-.06a1.84,1.84,0,0,0,1.14,0c.06,0,.08,0,.08.06a.59.59,0,0,0,.06.59c0-.06.13-.31.21-.31s0,.57.34.91c.13-1.43,1.29-1.09,2.18-1.68.11-.07.12-.06.09,0a.75.75,0,0,1-.38.47c1,.61,2-.73,2.27-1.46a.64.64,0,0,0,.26-.28.27.27,0,0,1-.15.41c.94.08.82-.66,1.2-.64,2.86.28.66-2.37,5.27-1.59a1.78,1.78,0,0,0,1.11-.5c-.33.62-.36,1.86.3,2a2.69,2.69,0,0,1,1.08.44c.07.07,0,.1,0,.1a3.46,3.46,0,0,0-.88.23c-1,.66-1-1.46-2-1.07a2.4,2.4,0,0,0-.29.23c-.42,0-1,.49-.89.91a1.33,1.33,0,0,1,.68-.39c0,.09,0,.21,0,.23s0,.33.4.33c.2,0,.26-.09.4-.09a.11.11,0,0,1,.12.11c0,.4-1.27-.21-1.06.86a2.11,2.11,0,0,0,.21.32c-.05.33.21.66.79.47-.1-.07-.31-.22-.27-.39a.94.94,0,0,0,.25,0c.06,0,.11,0,.15-.17s0-.06.06-.06.11.06.11.11-.08.12-.08.22.05.32.1.35c-.05.39.53.8,1.1.41-.16,0-.54-.09-.57-.29a2,2,0,0,1,.28-.12.51.51,0,0,0,.11-.38c0-.1.05-.11.11-.11h.27c.12,0,.17,0,.19.08a.62.62,0,0,0,.81.33c.69-.24.1-.85.66-.95a.8.8,0,0,1,.41,0c.55.15,1.36.13,1.5-.12a1.42,1.42,0,0,0-.53-1.6c-.33-.18.05-.58-.3-1.09a5,5,0,0,0,2.05.51,5.33,5.33,0,0,0,3-.64,2.56,2.56,0,0,1,1.86-.18c.17,0,.3.12.17.36-.35.76-.12.86-.38,1.21s-.82.06-1.25,0a.61.61,0,0,0-.5.23,1.28,1.28,0,0,0-1,.83,2.1,2.1,0,0,1,.78-.36.69.69,0,0,0,0,.16c-.09.55.45.72.87.36.05-.06.19,0,.09.07-.35.24-1,.74-.64,1l.24.13a.52.52,0,0,0,.31.7c0-.18,0-.29.19-.63h.26c.31,0,.35-.66.77-.86.06,0,.09,0,.06,0-.23.38-.42.85-.1,1a2.1,2.1,0,0,0,.25,0c0,.31.33.52.84.29-.08-.05-.3-.17-.32-.31a2.07,2.07,0,0,0,.32-.34c.45-.82-.22-.82-.11-1.17s.8-.13,1-.92a.45.45,0,0,0-.21-.52s0,0,0,0h0c.21,0,.42.06.62-.24-.6,0-.28-.47-.28-.78a.15.15,0,0,1,.06-.14,1.12,1.12,0,0,0,.48-.85c-.24.27-1,.58-.91,0,0,0,.06-.41-.56-.29a32.87,32.87,0,0,1-4.3-.28c-.12,0-.22-.11,0-.13,1.88-.14,5.75-.3,5.75-1.8,0-.69-.46-1.64-3.5-1.48-3.28.16-10.63,1.23-10.63-.61,0-.94,2-.8,3.14-.73m-9.85.17a5.83,5.83,0,0,0,1.28.51c-.61.13-.45.36-.82.34s-.53-.52-.46-.85m-.79-.41c-.17.3-.53.53-.8.27s0-.36-.32-.88a4.93,4.93,0,0,0,1.12.61M258,283.91c.11-.23.21-.4.33-.4s.34,0,.41-.25-.14-.37-.36-.53c.24-.07.36-.17.23-.27s-.37.09-.42,0,.12-.18.19-.26.19-.08.33,0l1,.49c.12.07.2.11.19.27s.06.3-.07.34-.08-.3-.27-.34-.16.14-.06.38c-.26-.09-.49-.22-.6,0a.39.39,0,0,0,.09.51c.08.11,0,.3-.08.51s-.38.58-.74.4a.58.58,0,0,1-.21-.83" transform="translate(-50 -86.48)"/><path d="M266.61,295.06a1,1,0,0,0,.78.55c4.18,1.2,9-1.95,11.54-1.22-3.3-1.15-5.39.86-8.57.18,1.87,0,3.82-.39,3.93-.88-1.45.93-5.55-.64-7.26.43a1.06,1.06,0,0,0-.33.29c-1.31.31-2.41,1-2.41,1.94,0,1.24,1.58,1.59,4.55,1.47s6.21-.48,6.21.05c0,.75-2.09,1.44-4.92,1.44-2.16,0-5.86-1.44-10.52-.25V299c.33-.8,1.33-2,.89-2.5a.94.94,0,0,0,.64-.77,1.3,1.3,0,0,0-.75-.35c.13-.19,0-.4-.18-.54s-.13-.48-.22-.56a4.14,4.14,0,0,0-.9-.61,4.35,4.35,0,0,0-.94-.27c-.11,0-.52.11-.56.11-.21,0-.47,0-.53.23a1.18,1.18,0,0,0-.69-.33,1.41,1.41,0,0,0-.11,1.12c-.37,0-.75,1-1.08.87.1.25.22.36.33.37-.31.57-.42,1.23-.79,1.25a1.64,1.64,0,0,0,.39.4,7.32,7.32,0,0,0-.19,2.61,19.84,19.84,0,0,0-2.3-2.63c-.61-.34-.62-.64-.62-1.26s.24-1,.21-1.54a4.4,4.4,0,0,0-.16-.48.8.8,0,0,0-.8-.53.8.8,0,0,1,.33.55,1.59,1.59,0,0,0-.25.27.39.39,0,0,0,0,.54.18.18,0,0,1,0,.12c0,.05,0,.14,0,.25s-.06.05-.08,0c-.14-.39-.32-.93-.66-1a1.85,1.85,0,0,0-.25,0,.25.25,0,0,0,0-.09c0-.37-.44-.7-.91-.22.11,0,.31.06.37.15a3.13,3.13,0,0,0-.08.42c0,.4.25.56.68.56.08,0,.14,0,.15.08a.65.65,0,0,0,0,.18c0,.08,0,.06,0,0-.73-.3-1,0-1,.33a1,1,0,0,0,0,.29c-.24.18-.31.53.16.84,0-.13,0-.39.13-.44s.09,0,.1-.06a2.68,2.68,0,0,0,.2.19c.06,0,.19,0,.43-.15,0,0,.06,0,.14,0l.21.13a.09.09,0,0,1,0,.13c-.48.47-.4.9.23,1a.12.12,0,0,1,.11.13c-.07.88-1.23.7-1.17-.16-.62,1,.5,1.76,1.35,1.24,0,0,.07,0,.08.05a.46.46,0,0,0,.3.32c0-.06,0-.21.19-.21s.07.05.07.1c0,.23.09.53.42.56-.06-.17,0-.35.1-.35s0,1.35,1.24,2.07a1.39,1.39,0,0,0,1.49,1.08c.22.51.52,1,.44,1a7.4,7.4,0,0,0-2.08.05,4.21,4.21,0,0,1-1.13.41l-.25.08c-.44.07-.83,0-1-.25s-.1-.4-.28-.7a.8.8,0,0,0-.46-.39h-.35a.87.87,0,0,0-1-.08.62.62,0,0,1,.54.34,2.15,2.15,0,0,1-.16.31c-.11.17,0,.48.87.82,0,0,.12.08,0,.11a.51.51,0,0,1-.51-.06c-.33-.28-.4-.68-.81-.43,0,0-.16.07-.28.14a.24.24,0,0,0-.1-.05c-.4,0-1,.48-.74.95a.74.74,0,0,1,.49-.43,2,2,0,0,1,.09.28c.09.49.29.84,1.23.21.1-.06.1,0,.08.06-.22.39-.87.8-.36,1.09l.21.16a.18.18,0,0,0,0,.1.85.85,0,0,0,.79.9.92.92,0,0,1-.3-.8,1.28,1.28,0,0,0,.29.07c.43-.18.22-.72.48-.9.07-.05.12,0,.12.06s.13.73.68.68a.75.75,0,0,0,.72-.76s0-.08,0,0a.51.51,0,0,1,.26.58,1.59,1.59,0,0,0,.4-.39.76.76,0,0,1-.24.92,1.28,1.28,0,0,0,.89-.9.51.51,0,0,1,.19.29s0,0,.06-.05a1.66,1.66,0,0,0,1,0c.07,0,.08,0,.08.06a.76.76,0,0,0,.05.55s.16-.29.24-.29,0,.52.3.86c.12-1.35.87-.82,1.72-1.37.1-.06.11,0,.09,0a.8.8,0,0,1-.37.44c.33,0,1.29-.43,1.29-.92a5.78,5.78,0,0,0,.8-2.34h.36c1.14-.1,1.65-.94,2.8-1a2.9,2.9,0,0,0-.36,1.63c0,.65.81,1.31,1,1.53,0,.06,0,.09,0,.09a3,3,0,0,0-.84.21c-.91.61-.94-1.36-1.92-1a.9.9,0,0,0-.27.19c-.39,0-.92.46-.83.87a.93.93,0,0,1,.63-.36,1.8,1.8,0,0,1,0,.2c0,.16,0,.32.38.32s.24-.1.38-.1a.12.12,0,0,1,.12.12c0,.36-1.22-.23-1,.81a1.24,1.24,0,0,0,.17.31c0,.31.23.62.75.45-.1-.08-.3-.22-.24-.38l.23,0s.1,0,.15-.17,0,0,0,0,.1,0,.1.1-.08.12-.05.23a1.49,1.49,0,0,0,.08.32c0,.36.49.76,1,.38-.14,0-.51-.08-.54-.27s.25-.08.26-.1.1-.21.12-.37,0-.09.09-.09a2.06,2.06,0,0,1,.26,0,.16.16,0,0,1,.18.09.6.6,0,0,0,.76.31c.66-.22.1-.8.63-.91a.64.64,0,0,1,.39,0c.52.11.94.2,1.07-.05a1.37,1.37,0,0,0-.49-1.5c-.32-.17.48-2.23-1.1-3.19.75.17,3.13.51,3.53-.06a3.78,3.78,0,0,1,1.63.81.24.24,0,0,1-.07.41c-.64.4-.54.62-.88.72l-.05,0a4.83,4.83,0,0,0-.64-.64.56.56,0,0,0-.48,0,.89.89,0,0,0-1,.44,1.19,1.19,0,0,1,.72,0,.9.9,0,0,0-.05.16c0,.11,0,.22.15.33h0l0,0s0,.09,0,.09c-.35,0-1.06-.09-.9.34,0,0,.05.16.08.26a.65.65,0,0,0-.17.8c.07-.18.12-.26.47-.38a.89.89,0,0,0,.17.17c.19.24.56-.29.94-.17,0,0,.07,0,0,.06-.35.16-.71.41-.56.72l.13.21a.58.58,0,0,0,.41.81.86.86,0,0,1-.05-.49,1.33,1.33,0,0,0,.41-.05c.7-.37.25-.84.48-1.07s.6.46,1.16-.05a.51.51,0,0,0,.12-.57,0,0,0,0,1,0-.05v0c.14.12.25.34.54.2-.41-.37.06-.55.22-.83a.09.09,0,0,1,.12-.06.79.79,0,0,0,.75-.38c-.31.05-1.11-.43-.61-.61.71-.29.84-.66.53-1.05-.55-.73-1.74-.78-1.78-1.61.5,0,1,0,1.06,0,3.65,0,6-1,5.89-2.14,0-.95-1-1.3-3.64-1.11-3.19.21-7.36.61-7.36-.47,0-.55.69-1,1.54-1.26m-8.65,0c-.15.27-.48.5-.75.23s0-.34-.29-.84a5.66,5.66,0,0,0,1,.61m.65,1.87c-.1,0-.09-.29-.27-.33s-.15.13-.06.35c-.23-.08-.47-.19-.57,0a.36.36,0,0,0,.09.49c.07.09,0,.28-.08.51s-.36.53-.71.34a.61.61,0,0,1-.2-.79c.12-.2.2-.37.32-.37a.33.33,0,0,0,.4-.24c.09-.25-.14-.35-.34-.49.22-.07.34-.16.21-.27s-.36.09-.39,0,.11-.2.18-.26.19-.06.32,0l1,.46c.12.07.21.13.21.26s0,.29-.07.33m.53-.69c-.34,0-.5-.49-.42-.8a4.87,4.87,0,0,0,1.2.48c-.56.11-.41.34-.78.32" transform="translate(-50 -86.48)"/><path d="M189.7,255c-.52-3.61-.08-7-4.21-11.87S168,223.62,163.78,218.84c1.06-.12,2.32.11,4.95,2.58,1.62,1.53,5.66,5.48,8.54,8.29a83.17,83.17,0,0,1,15.42-25.45c1.18-1.3,2.39-2.57,3.61-3.77a27.55,27.55,0,0,0-8.59,3.71c-.16-4.12-1.13-8-4-10.63,1.08-5.76.14-12.74-12.8-21.33,6.62,1.59,10.54,7.6,15.59,3-4.54-.13-4.65-10.06-21-18.29,6.26-.13,11.16,10,18.41,4.25-6.85-.81-9.11-13-21.43-16.72,4.26.48,8.68,2.58,12.35-2.39-4.27,1-6.8-2.94-11.39-3.29,1.73-5.33,1.32-8.6-.52-12.58a15.86,15.86,0,0,0-8.87,3.16c-.37-2.92-3.43-3.1-6.15-2.88.14,1.27.74,3.1-.65,3.36a114.06,114.06,0,0,0-15.19,4.59,81.73,81.73,0,0,0-14,7.5c-1.14.79-2.13-1.06-2.84-1.92-2,1.68-3.93,3.89-2.48,6.11a17.49,17.49,0,0,0-9.56,3.43c0,3.65,3,7.2,7.54,9.18-7.61,7.56-.72,14.55-7.42,21.15,9.42.34,7.78-12.76,12.54-14.58-.49,9.22-5.64,10.85-5.64,20.8,0,5.31,3.17,11.07.33,14.57,7.89-2.16,5.81-19.59,10.71-24.84a14.58,14.58,0,0,1-.64,8.88c-2.76,8.13.29,19.26-4,22.86,7-.68,8.65-10.66,13.38-16.32-5,13.17-10.46,35.94-17.78,46.62-13.71,18.49-21.77,41-34.35,41-5.54,0-9.71-3.39-9.71-10.4,0-21,36.05-35.49,36.05-57.88A13.31,13.31,0,0,0,91,196.87c-3.43,0-7.58,1.69-11,4.56a11.84,11.84,0,0,0-4.26-.94c-12.74,0-9.34,22.91-20.45,22.68,4.4,2.46,12-2.33,16.46-8.75-1.86,14.86-23.24,10.92-21.61,28.74,3-14,37.08-11.92,37.08-33.11a8.15,8.15,0,0,0-2.92-6,13,13,0,0,1,7.19-2.26c4.08,0,7.81,3,7.81,9,0,18.77-35.84,34.61-35.84,57.66a16.33,16.33,0,0,0,3,9.68c-2.52,1.06-5.12.56-7.29-2-.19,5.93,8.28,9.68,13.63,6.71a14.71,14.71,0,0,0,3.71.74c-1.62,4.42-7.1,5.73-10,5.54,8.79,6.92,24.11-2.18,23.26-10,7-5.61,11.39-15.24,16.45-21.58-.31,1.48-.58,2.93-.8,4.38-5.13,9.34-9.95,17.71-11.29,30-1.13,10.28-6.33,19.58-13.57,19.58-1.59,0-4.2-2.07-5.43-1.06-2.26,1.94-.12,4-.12,5.91,0,2.93-5.65,5.86-5.65,14.89,0,4.08,2.37,8.95,1.47,11.66,2.31-1.19,5.39-5.05,6.65-10,2.49,11.92-5.09,11.42.37,22,.67-3.51,4.18-5,6.32-3.51s1.14,2.5-.45,4.08-3.06,9.5,4.19,9c-1.36-.91-1.45-3,2.14-3.74,5-1,6.44,1.29,11.76,1.29,3.28,0,4.18-4.31,6.78-4.31s2.6,2,1.71,3.51c4.17-1.12,5-3.4,5-5.76s-1.93-3.84-.45-4.75,6.33.11,4.41,4.07c2.5-.45,3.85-2.26,3.85-5.32s-3.51-4.86-6.79-4.29c-.56-1.92-3.39-3-6-3-5.89,0-5,4.65-9,4.65-6.45,0-12.71-8.4-12.71-22.54,0-7.57,8.15-9.5,13.91-12s15.87-8.7,21.93-18.86c4.75-7.95,4.89-16.67,4.28-27,8.12,4.66,9.08,11.37,9.08,16.25,0,6.33-3.28,8.89-5.86,10.07-2.18,1-2.92.58-3.15,1.88a2.83,2.83,0,0,0,1.74,3c2.94,1.5,2.33,4.32,3.16,7.34a23.38,23.38,0,0,0,8.08,11.35c.47-1.88.34-4.9.08-8.82,6.25,3.07,1.24,15.62,13.37,15.62-2.23-1.28-1.64-4.58-.36-5s2.93.82,5.26,4.09,1.72,3,7.46,3,3.15-2,6.18-2,2.82,3.51,1.2,6.08c5.11-1.54,6.67-5.43,4.93-9.43,4.5-2.44,6.89,1,7.55,3.48,4.45-4.44,0-9.82-3.49-10.19a3.56,3.56,0,0,0-3.28-3.51,46.72,46.72,0,0,0-5.71-.12c-2.12.14-3.3,3.17-5.75,3.17-7.6,0-22.65-13.76-22.65-19.73s14.38-9.58,14.38-18.83c0-12.1-11.87-16.21-21.86-24,3.56-4,14-4.92,19.86-2,.66-3.38,2.83-2.55,3.62-8.35,2.11,5.1-.7,9.3,1.46,11.46,1.68-2.46,6-2.1,5.71-8.43,1.32,4-1.67,10,1.32,12.65.52-3.24,2.45-3.85,3.69-3.85s2.3.87,2.3,2.8c0,4.83-5.81,3.52-5.81,9,0,2.29,2.9,3.07,2.9,4.57s-2.37,3.77-5.27,1.85c1,2.1,2.87,3.95,5.36,3.95s5.45-2.12,6.55-4.83c1.38,3.46.32,7.31-2.15,7.8,2.62,1.32,8.85.08,8.13-7.91,3.52.59,5.38,3,3.3,7.23,2.88-.72,5.52-2.13,5.52-5.2,0-2.37-2.34-4-1.94-7.27.33-2.65-3.34-5.2-3.87-8.8m-63.27-99.75c-3.29.29-3.2-2.86-9-4.27,4.07-.82,9.29-2.87,13.84-4.61.86,3.79-.69,8.5-4.85,8.88m23.28,24.67c-4.22,1.83-7.5-1.88-8.32-4.4s-1.5-4.64-.51-5.61c1.83-1.8,2.41-3.19,1.3-5.45-1.27-2.61-4-1.36-7-.64,1.37-2.5,1.49-4.26-.4-4-2.24.26-2.27,3.9-3.52,3.47s-.54-2.53-.54-3.64c0-1.55,1-2.09,2.56-2.78l12.23-4.64c1.59-.58,2.68-.87,3.77.23.77.79,2.74,1.8,2.13,3s-3.14-1.41-4.94,0c-1.51,1.15-.19,2.33,2.52,3.15-2.64,1.54-5.46,2.56-4.56,5.33.77,2.36,2.13,3,4.72,3,1.38,0,2.37,2,3.51,4.39s1.55,6.73-3,8.67m.74-34.12c-3.28,2.58-7.64.23-9.61-3.13,4.51-1.86,9.72-3.95,13.25-6.15-3.25,5-1,7.24-3.64,9.28" transform="translate(-50 -86.48)"/><path d="M109.43,126.53a2.35,2.35,0,1,0-4.69,0,2.35,2.35,0,1,0,4.69,0" transform="translate(-50 -86.48)"/><path d="M108.61,120.28a2.35,2.35,0,1,0-4.69,0,2.35,2.35,0,0,0,4.69,0" transform="translate(-50 -86.48)"/><path d="M109.94,117.5a2.35,2.35,0,1,0,0-4.7,2.36,2.36,0,0,0-2.33,2.36,2.33,2.33,0,0,0,2.33,2.34" transform="translate(-50 -86.48)"/><path d="M116.19,117.1a2.36,2.36,0,1,0-2.33-2.35,2.35,2.35,0,0,0,2.33,2.35" transform="translate(-50 -86.48)"/><path d="M142.88,112.75a2.34,2.34,0,1,0,0-3.33,2.34,2.34,0,0,0,0,3.33" transform="translate(-50 -86.48)"/><path d="M142.34,107.75a2.34,2.34,0,0,0-3.3-3.33,2.35,2.35,0,0,0,0,3.33,2.32,2.32,0,0,0,3.3,0" transform="translate(-50 -86.48)"/><path d="M136.13,106.73a2.35,2.35,0,0,0-3.33-3.33,2.35,2.35,0,0,0,3.33,3.33" transform="translate(-50 -86.48)"/><path d="M130.81,110.68a2.35,2.35,0,0,0-3.33-3.32,2.35,2.35,0,1,0,3.33,3.32" transform="translate(-50 -86.48)"/><path d="M115.84,107.45l1.87,4.1,2.39-2.85a.76.76,0,0,0,.28.09,42.29,42.29,0,0,1,.3,5.11,3,3,0,1,0,4.39-2.63,24.09,24.09,0,0,1-3.31-3.09,1.51,1.51,0,0,0,.15-.37l4,.35-1.58-4.23-3,2.53a.84.84,0,0,1-.16-.07L121,102l-4.11,1.57,2.73,3.24a1.3,1.3,0,0,0-.15.34Z" transform="translate(-50 -86.48)"/><path d="M143,114.75a6.16,6.16,0,0,1,1.31,3.24,6.51,6.51,0,0,1-2.45-2.23l.49,5.47a4.86,4.86,0,0,1,2-2c-.19,3.57-1.63,5-2.84,5.28a2.31,2.31,0,0,1-2.8-1.83c-.3-1.58,1.08-2.56,2.46-1.15.26-3.28-2.38-3.24-3.54-1.84,1.38-3.17.83-5.26-2-7-1.75,3-1,4.91,1.22,7.17-2.17-1.11-4.11.75-2.18,3.16.41-2.11,2.24-1.63,2.67,0,.37,1.46-1,3.31-3.36,4-3.37,1-4.45-1.14-5.27-3,.71-.47,2.46-.31,4.38.92l-1.62-5.35a5.49,5.49,0,0,1-3.22,3.25,16.89,16.89,0,0,1,1-4.7l-6.45,2.64a16.22,16.22,0,0,1,4,2.64,5.51,5.51,0,0,1-4.58-.1l2.58,5c.51-2.23,1.65-3.55,2.5-3.74.67,1.89,1.41,4.2-1.7,5.82-2.18,1.13-4.44.77-5.2-.52-.87-1.49.11-3.11,1.87-1.89-.3-3.09-3-3.07-3.76-.75,0-3.18-.8-5.08-4.14-6-.84,3.18.25,5.07,3.44,6.4-1.81-.2-3.74,1.6-1.26,3.8,0-2,1.66-2.25,2.59-.91a2.31,2.31,0,0,1-.76,3.26c-1,.67-3.08.61-5.71-1.81a4.83,4.83,0,0,1,2.79,0L112,127.92a6.57,6.57,0,0,1-.21,3.29,5.88,5.88,0,0,1-1.32-3.23l-2.63,2.36c2.49,1.52,5.36,3.91,8.85,8.74a115.51,115.51,0,0,1,14.35-7.14,112.68,112.68,0,0,1,15.25-4.9c-.88-5.9-.48-9.61.25-12.44Z" transform="translate(-50 -86.48)"/><path d="M423.17,321.36a10.13,10.13,0,1,0,10.15-10.13,10.16,10.16,0,0,0-10.15,10.13m2.59,0a7.55,7.55,0,1,1,7.56,7.54,7.55,7.55,0,0,1-7.56-7.54" transform="translate(-50 -86.48)"/><path d="M385.36,330.71a5.86,5.86,0,0,0-2.51,3.76,6,6,0,0,0,1.56,5.06,9,9,0,0,0,5.08,2.75,8.89,8.89,0,0,0,5.71-.81,5.91,5.91,0,0,0,3.23-4.2h0c.64-3.52-2.34-7-6.64-7.81a8.69,8.69,0,0,0-6.43,1.25m4.59,9c-2.88-.52-4.92-2.67-4.55-4.79a3.36,3.36,0,0,1,1.44-2.1,6,6,0,0,1,4.48-.81c2.64.46,4.6,2.38,4.6,4.29a2.63,2.63,0,0,1,0,.49c-.39,2.13-3.05,3.43-5.93,2.92" transform="translate(-50 -86.48)"/><path d="M329.54,188.52c-3.15,2.46-4.09,6.57-2.05,9.18s6.23,2.73,9.37.29a8,8,0,0,0,3.09-5.15,5.2,5.2,0,0,0-4.63-6,8,8,0,0,0-5.78,1.69m-.53,5.92a5.15,5.15,0,0,1,2.12-3.85A5.36,5.36,0,0,1,335,189.4a2.73,2.73,0,0,1,1.89,1,2.78,2.78,0,0,1,.5,2.11,5.43,5.43,0,0,1-2.1,3.42c-2,1.54-4.6,1.62-5.74.17a2.72,2.72,0,0,1-.52-1.67" transform="translate(-50 -86.48)"/><path d="M373.47,313.87a8.58,8.58,0,0,0-2.48,6.06v.21a8.61,8.61,0,0,0,2.25,6,5.65,5.65,0,0,0,8.26.15,8.58,8.58,0,0,0,2.49-6.07,8.8,8.8,0,0,0-1.69-5.5,5.7,5.7,0,0,0-8.83-.82m3.92,11.51h0a3.21,3.21,0,0,1-2.28-1.08,6.14,6.14,0,0,1-1.53-4.33,6.08,6.08,0,0,1,1.68-4.23,3.27,3.27,0,0,1,2.34-1c2.14,0,3.85,2.45,3.8,5.39a6.11,6.11,0,0,1-1.69,4.25,3.24,3.24,0,0,1-2.32,1" transform="translate(-50 -86.48)"/><path d="M323.89,232a5.83,5.83,0,0,0-3.41,2.95c-1.55,3.23.37,7.4,4.29,9.28a8.65,8.65,0,0,0,6.56.51,5.62,5.62,0,0,0,3.57-7.43,9.07,9.07,0,0,0-11-5.31m2,9.89c-2.64-1.26-4.05-3.88-3.09-5.84a3.23,3.23,0,0,1,1.91-1.61,6.55,6.55,0,0,1,7.72,3.72,3,3,0,0,1-2,4.13,6,6,0,0,1-4.58-.4" transform="translate(-50 -86.48)"/><path d="M430.36,221.57c3.3,9.06,9.84,12.31,14.85,10-11.18-1.3-2.12-20.43-16.51-20.43a10.34,10.34,0,0,0-2.33.24c-2.43-2.57-5.22-3.65-9.36-3.65-6.09,0-16.58,5.89-16.58,18,0,26.13,30.36,28.44,30.36,51.56A10.59,10.59,0,0,1,420,288.24c-5.09,0-9.21-5.74-13.5-14.69-2.06-4.27-6.45-10.12-11.13-16.22a8.12,8.12,0,0,0,4.49,1.59,5.86,5.86,0,0,0,4.22-1.53,5.79,5.79,0,0,0,1.78-4.11,1.93,1.93,0,0,0,0-.24,9.09,9.09,0,0,0-8.42-8.71,5.93,5.93,0,0,0-4.21,1.55,5.76,5.76,0,0,0-1.78,4.1.9.9,0,0,0,0,.24,7.76,7.76,0,0,0,.49,2.66c-6.52-8.52-12.6-16.91-12.6-21.5,0-4.06,2.8-7.6,6.25-11.9.15.1,1.18.67,1.18.67l.92-1c1.22-1.34,3.75-4.11,9-9.74l.32-.33h0l1.27-1.33L395,205.13a41.07,41.07,0,0,0,2.18-6.43c1,4.22,3.15,6.89,6.13,6-2-4.34,2-10.16-.61-20.8,2.49,4.11,6.06,6.29,8.63,5.54-6.73-6,2-14.3-6.76-27.19,2.89,1,4.77.41,6-1-8-1.12-4.34-11.33-18.35-15,3.49-.62,5.52-2.66,5-4.49-3.7,2.67-6.95-5-19.1-4.78-.74-4.55-4.95-9.33-9.74-11.65a15.76,15.76,0,0,1-.85,9.33l-39.6-38.86c-1.15-1.09-1.8-1.35-2.11-.94s-.3,1.1.44,1.9l34,42.64c-2.57.87-5.07,1.95-7.72,2.92a4.6,4.6,0,0,0-3,4.41,71.06,71.06,0,0,0-14.6,9.54c-2.1,1.9-3.76,2.34-1.92,6.64.7,1.62-1.48,5.65,3.45,2.7,3.23-1.93,10.56-6,11.64-3.44.58,1.34-3.05,3.06-5.54,4s-5.16,2.86-4.77,3.84,2.35-.07,2.49.94a2.21,2.21,0,0,0,1.92,2.13c1,0,2.26-2.08,3.06-1.39s-.4,5.34-1.2,6.51a7.67,7.67,0,0,0,6.43-7c.09-2.87.89-3.56,1.48-4s1.29,3.06.49,5.14c2-.44,4.16-3.12,3.86-8.08a5.6,5.6,0,0,1,2.86-1.41c1.29,0,3.86,3.55,7.52,3.55,6.72,0,10.47-5.45,10.87-8a7.4,7.4,0,0,0-.95-5.6,9.36,9.36,0,0,1,3.17,7.25c0,9.53-16.84,14-23.78,20.6-.26.24-.49.49-.75.73l-7.9-3.06-.54,1.75-.45,1.48c-.84,2.71-2.58,8.36-3.63,11.6l-.42,1.32.71.4c-4.68,6.24-8.48,13.23-9.33,20.4a67.59,67.59,0,0,0-5.75-5.25,8.83,8.83,0,0,0,.41-2.2,7.65,7.65,0,0,0-1.8-5.57,5.25,5.25,0,0,0-3.64-1.83,5.19,5.19,0,0,0-3.84,1.4,8.22,8.22,0,0,0-.71.74c-.28-.21-.57-.42-.85-.65a66.65,66.65,0,0,1-7.8-6.54,4,4,0,0,0-3.45-1.43c-.66,0-2.34-.07-3.52-.07s-1.84.89-3.17,2.09c-.76.64-3.26,2.6-5.8,4.52,1.21,1.18,2.38,2.4,3.51,3.69.32.35.64.73,1,1.1,1.12-.89,2-1.53,2.59-2a4.49,4.49,0,0,1,2.93-.83,4.6,4.6,0,0,1,3.43,2.25c.73,1.09,7.13,9.5,12.43,15.34-.6.19-1.17.4-1.68.61-2.27,1-7.4.76-9.67.58s-2.7-.75-4.27,1.68a31.32,31.32,0,0,1-2.09,2.94c-.76.92-1.35,2,.26,4.69,2.34,3.94,8.13,14.36,10.07,19s4.18,5.45,7.87,7,10,5.13,10.75,6l.25-3.59c-1.09-1.11-4.63-2.43-6-2.91s-1.69-1-.08-1,6,1.58,9.14,2.84c-.93-3.51-4.29-7.38-6.29-9.56-2.68-.75-5.38-.75-6.46.09a1.48,1.48,0,0,1-1.51,1.67,1.39,1.39,0,0,1-1.42-1.84c.34-1.07,1.92-1.43,1.58-3.44s-2.84-2.34-4.44-2.51c-2.26-3.27-4.87-8.05-6-10s-.48-3,.33-3.69c1.93-1.59,5.95.85,14,1.34,2.81.18,6.38.35,10,.53,1.06,9.34,4.8,18.22,17.83,21.47,6.35,1.58,12.89,6.24,15.15,12.35-26-.47-30.06,9.68-30.06,19.23,0,10.87,9.14,10.25,9.14,18.4,0,7.11-21.84,10-28.43,11-5.62.82-8.8,2.07-11.49,4.75s-5.41,5.28-10.28,10.16a16.81,16.81,0,0,0,4.15.36l3.7-4.78c1.09-1.58,1.84-2.93,2.57-2.8s.23,1.34-.62,3.06l-3,5.1c12.8.87,13.65-3.88,13.65-5.84s-3.15-3.29-1.32-4.51,3.4-.37,4.87,1.33,1.95,3.18,5.5,1.85c0,0,28-11.6,31.48-13.2,3.19-1.43,2.27-2.82.38-4.4-2.09-1.71-2.44-4.52-2.44-7.44,0-8.44,5.1-11.07,14.18-10.89a38.17,38.17,0,0,0-.28,4.06c0,13.21,20,26.11,25.36,26.11,2.4,0,5.65-1.79,5.87,6.16.13,5.86,1.3,10,.26,16.75s-3,7.79-7.06,10.64-7.89,11.79-9.61,13.67c1.81,1.2,3.76,1.34,5.26-3,1.23-3.59,2.68-6.16,4.25-7-1.59,4-2.76,9.79-3.5,11.53,5.09.91,13.36-3.75,13.36-7.34s-2.86-3.32-2.86-5.7c0-1.07,1.31-2.26,2.86-2.26a4.14,4.14,0,0,1,3.75,2.39c2.26-1.2,3.68-3.44,3.6-8.71,0-2-.11-4.18-.21-6.39a5.46,5.46,0,0,0,.46.86,5.87,5.87,0,0,0,4.61,2.59,8.85,8.85,0,0,0,5.56-1.49,8.67,8.67,0,0,0,3.82-5.38,7.17,7.17,0,0,0,.14-1.29,5.65,5.65,0,0,0-.92-3.12,5.75,5.75,0,0,0-3.75-2.46,8.67,8.67,0,0,0-6.44,1.37,8.93,8.93,0,0,0-3.7,4.89c-.42-7.15-.93-13.93-.74-16.67.3-4,.46-5.84-.9-6.44s-2.85,1.66-4.8,1.66-7.81-5.41-7.81-11.1,6.17-13.08,5.86-20.89c-.11-2.43,1.43-3.7,2.4-1.49a35.51,35.51,0,0,0,5.57,9.25c-1.6,9.81,9.19,19.38,18.07,12.26-4.39.67-7.41-3.25-9.35-7.15a15,15,0,0,0,2.37.19,11.56,11.56,0,0,0,1.33,0c3.12,3.87,13.05,3.57,15.59-6a10.14,10.14,0,0,1-7.87,3.2c3.73-2.89,5.67-7.63,5.67-12.72,0-24.92-30.23-27.82-30.23-50.5,0-8.4,7.38-13.8,12.48-13.8a7.68,7.68,0,0,1,4.69,1.5c-1.95,2-3,5-2.83,8.66.79,17.89,30,17,30.4,25.62,3.29-13-18.5-9-19.3-26.46M352.54,152.9c1.42-2.7,0-6.83,4.94-6.83,2.44,0,4.61,2.43,7.54,3.39a29.85,29.85,0,0,0-12.48,3.44m-26.71,54.88a5.17,5.17,0,0,1-1.58,3.57,2.72,2.72,0,0,1-1.93.75c-1.69-.11-3-2.06-3-4.33,0-.12,0-.24,0-.36a5.09,5.09,0,0,1,1.54-3.55,2.62,2.62,0,0,1,2-.75,2.66,2.66,0,0,1,1.86,1,5.17,5.17,0,0,1,1.15,3.71m86.36,125.75a6.5,6.5,0,0,1,7.17-4.74,3.3,3.3,0,0,1,2.12,1.38h0a3.34,3.34,0,0,1,.4,2.46,6.25,6.25,0,0,1-2.72,3.72c-2.45,1.59-5.41,1.45-6.58-.34a3.27,3.27,0,0,1-.41-2.48M394,250.05a3.22,3.22,0,0,1,1-2.28v0a3.21,3.21,0,0,1,2.37-.81,6.46,6.46,0,0,1,5.88,6.25,3.23,3.23,0,0,1-.95,2.3h0a3.18,3.18,0,0,1-2.36.82,6.09,6.09,0,0,1-4.12-2,6.2,6.2,0,0,1-1.77-4.26m-50-56.27.08-.22c1.41-4.34,4.06-13,4.09-13.11l.08-.3,5.67,2.18-.75.28a14.83,14.83,0,0,0-3.92,2.73,4.54,4.54,0,0,0,3.41-.44l.83-.56-2.45,6.15-.32-.57a6.3,6.3,0,0,0-2.51-2.45,5,5,0,0,0-.15,1.22c0,2.26,1.59,3.3,3.13,4.08,2.71,1.4,4.36,1.55,5,.5a1.56,1.56,0,0,0,.18-.71,1.8,1.8,0,0,0-.5-1.2,2.24,2.24,0,0,0-2.63-.46l-.38.16,0-.41a3.81,3.81,0,0,1,.82-3.09,2.73,2.73,0,0,1,4.52.55,7.51,7.51,0,0,1,5.41-6.87l.29-.1.1.28a9.21,9.21,0,0,1,.58,3.08,8.14,8.14,0,0,1-2.47,5.56,3.06,3.06,0,0,1,3.15,1,2.93,2.93,0,0,1,.42,2.34,3.82,3.82,0,0,1-2.11,2.4l-.38.2-.07-.4a2.21,2.21,0,0,0-1.82-1.89,1.8,1.8,0,0,0-1.85.86c-.68,1.33.3,2.75,2.9,4.19,3.14,1.76,5.16.25,6.35-1.48a5.51,5.51,0,0,0-3.63.94l-1,.63,4-7.54.16.87a5.53,5.53,0,0,0,1.5,2.86,9.33,9.33,0,0,0,.48-2.73,5.17,5.17,0,0,0-.45-2.16l-.4-.88L377.7,194l-1,.08a6.6,6.6,0,0,0-4.18,2.49,5.62,5.62,0,0,0,3.23-.15l.83-.29-4.51,7.25,0-1.15V202a5.42,5.42,0,0,0-1-3.37,5.64,5.64,0,0,0-.61,2.39,4.4,4.4,0,0,0,2.51,3.84c2.55,1.53,4.26,1.67,5.07.41a1.77,1.77,0,0,0-.19-2,2.14,2.14,0,0,0-2.52-.65l-.4.14v-.41a3.8,3.8,0,0,1,1-3,3,3,0,0,1,2.24-.82,3.09,3.09,0,0,1,2.43,2.27c1.12-3.54,3.07-5.33,6.52-6l.29-.06.07.29a8.52,8.52,0,0,1,.21,1.84,7.59,7.59,0,0,1-3.45,6.28,2.82,2.82,0,0,1,2.49,1.28,3.16,3.16,0,0,1,.41,1.5,2.88,2.88,0,0,1-.15.86,3.87,3.87,0,0,1-2.26,2.27l-.4.16,0-.4a2.25,2.25,0,0,0-1.73-2.06,1.64,1.64,0,0,0-1.8.7c-.6,1.09.37,2.42,2.93,4.08,1.71,1.1,3.72,2.07,6.09,0a6.24,6.24,0,0,0-3.38-1h-.63l4.07-5.18-.06,1c0,.06,0,.13,0,.18a4.63,4.63,0,0,0,1.34,3,17.12,17.12,0,0,0,.47-3.68,7.22,7.22,0,0,0-.07-1.09l-.12-.78,4.73,3.8L396,208c-.06.07-6.26,6.7-9.31,10.09l-.17.18ZM385.37,297c-1.66,2.34-4.5,3.19-6.33,1.88s-2-4.25-.34-6.6,4.46-3.19,6.33-1.87,2,4.25.34,6.59m11.94-18.84c-1.67,2.34-4.5,3.16-6.34,1.85s-2-4.25-.32-6.58,4.49-3.18,6.34-1.87,2,4.28.32,6.6" transform="translate(-50 -86.48)"/><path d="M256.13,358.21a7.34,7.34,0,0,0-2.07.3V346.56a86.6,86.6,0,0,1-18-2.87v14.85a6.88,6.88,0,0,0-2.18-.33,7,7,0,0,0-7,7c0,3.16,1.86,6.1,3.48,7.92.81-1.91,1.54-3.47,2.61-3.47,2.15,0,1.18,10.67,7.42,11a5,5,0,0,0-.3,1.7,4.9,4.9,0,1,0,9.8,0,4.81,4.81,0,0,0-.33-1.7c6.26-.29,5.2-11,7.36-11,1.07,0,1.75,1.47,2.69,3.47,1.62-1.82,3.47-4.76,3.47-7.92a7,7,0,0,0-7-7M245,385.05a2.74,2.74,0,1,1,2.73-2.73,2.73,2.73,0,0,1-2.73,2.73m14.64-15.5a3.53,3.53,0,0,0-2.75-2.16c-4.21,0-2.57,11.06-7.56,11.06-2.19,0-3.36-1.4-3.36-3s1.09-2,1.09-3.27-1-1.71-2.06-1.71S243,371,243,372.22s1.1,1.71,1.1,3.27-1.18,3-3.36,3c-5,0-3.35-11.06-7.55-11.06a3.48,3.48,0,0,0-2.75,2.16,9.94,9.94,0,0,1-1.31-4.34,4.83,4.83,0,0,1,4.83-4.83c5.61,0,4.3,7.63,7,7.63a1.86,1.86,0,0,0,2.07-1.87c0-2.18-3.89-4.22-3.89-7.35s2.84-5.74,6-8.24c3.1,2.5,6,5.12,6,8.24s-3.9,5.17-3.9,7.35a1.86,1.86,0,0,0,2.06,1.87c2.69,0,1.37-7.63,7-7.63a4.83,4.83,0,0,1,4.85,4.83,10.36,10.36,0,0,1-1.31,4.34" transform="translate(-50 -86.48)"/><path d="M220.81,140.28c-1.88,3.6-3.51,5.7-3.26,8.48s3.17,4.75,4.56,7.55c1.24-3.25,3.34-5.7,3.08-8.26s-3.75-5.9-4.38-7.77" transform="translate(-50 -86.48)"/><path d="M269.12,140.28c1.89,3.6,3.51,5.7,3.26,8.48s-3.17,4.75-4.55,7.55c-1.26-3.25-3.35-5.7-3.11-8.26s3.77-5.9,4.4-7.77" transform="translate(-50 -86.48)"/><path d="M193,138.2a3.26,3.26,0,1,0-3.27-3.26A3.25,3.25,0,0,0,193,138.2" transform="translate(-50 -86.48)"/><path d="M195.16,142.87a3.26,3.26,0,1,0-3.25,3.27,3.25,3.25,0,0,0,3.25-3.27" transform="translate(-50 -86.48)"/><path d="M196.77,150.79a3.27,3.27,0,1,0-3.26,3.25,3.27,3.27,0,0,0,3.26-3.25" transform="translate(-50 -86.48)"/><path d="M211.07,122.64a3.27,3.27,0,1,0-3.26-3.27,3.26,3.26,0,0,0,3.26,3.27" transform="translate(-50 -86.48)"/><path d="M203,125.14a3.27,3.27,0,1,0-3.28-3.26,3.26,3.26,0,0,0,3.28,3.26" transform="translate(-50 -86.48)"/><path d="M196.58,130.74a3.27,3.27,0,1,0-3.28-3.27,3.28,3.28,0,0,0,3.28,3.27" transform="translate(-50 -86.48)"/><path d="M219.6,123.43a3.27,3.27,0,1,0-3.28-3.27,3.28,3.28,0,0,0,3.28,3.27" transform="translate(-50 -86.48)"/><path d="M227.68,125.77a3.27,3.27,0,1,0-3.27-3.28,3.26,3.26,0,0,0,3.27,3.28" transform="translate(-50 -86.48)"/><path d="M235.3,129.35a3.28,3.28,0,1,0-3.26-3.27,3.28,3.28,0,0,0,3.26,3.27" transform="translate(-50 -86.48)"/><path d="M293.56,134.94a3.27,3.27,0,1,0,3.26-3.27,3.27,3.27,0,0,0-3.26,3.27" transform="translate(-50 -86.48)"/><path d="M297.92,139.61a3.27,3.27,0,1,0,3.28,3.26,3.25,3.25,0,0,0-3.28-3.26" transform="translate(-50 -86.48)"/><path d="M296.32,147.52a3.26,3.26,0,1,0,3.28,3.27,3.26,3.26,0,0,0-3.28-3.27" transform="translate(-50 -86.48)"/><path d="M278.75,122.64a3.27,3.27,0,1,0-3.26-3.27,3.28,3.28,0,0,0,3.26,3.27" transform="translate(-50 -86.48)"/><path d="M286.88,125.14a3.27,3.27,0,1,0-3.27-3.26,3.25,3.25,0,0,0,3.27,3.26" transform="translate(-50 -86.48)"/><path d="M293.25,130.74a3.27,3.27,0,1,0-3.26-3.27,3.26,3.26,0,0,0,3.26,3.27" transform="translate(-50 -86.48)"/><path d="M270.22,123.43a3.27,3.27,0,1,0-3.27-3.27,3.26,3.26,0,0,0,3.27,3.27" transform="translate(-50 -86.48)"/><path d="M262.14,125.77a3.27,3.27,0,1,0-3.26-3.28,3.27,3.27,0,0,0,3.26,3.28" transform="translate(-50 -86.48)"/><path d="M251.26,126.08a3.27,3.27,0,1,0,3.26-3.28,3.26,3.26,0,0,0-3.26,3.28" transform="translate(-50 -86.48)"/><path d="M239.34,143.73H243v-14a12.91,12.91,0,0,1-3.66-1.13Z" transform="translate(-50 -86.48)"/><path d="M250.5,128.62a13.42,13.42,0,0,1-3.66,1.13v14h3.66Z" transform="translate(-50 -86.48)"/><path d="M242.8,113.19V104.9a10.25,10.25,0,0,0-8,8.29Z" transform="translate(-50 -86.48)"/><path d="M247.05,113.19h8a10.29,10.29,0,0,0-8-8.29Z" transform="translate(-50 -86.48)"/><path d="M234.9,117.2a10.26,10.26,0,0,0,20,0Z" transform="translate(-50 -86.48)"/><path d="M250.53,103.59a11.37,11.37,0,0,1-4.45-7.23,13.08,13.08,0,0,1,7.43,4.72V89.82a13,13,0,0,1-7.43,4.71c.3-2.72,2-5.2,4.28-8H239.48c2.28,2.85,4,5.33,4.28,8a12.82,12.82,0,0,1-7.43-4.71v11.26a13,13,0,0,1,7.42-4.72,11.32,11.32,0,0,1-4.47,7.23Z" transform="translate(-50 -86.48)"/><path d="M262.55,327.86a208.57,208.57,0,0,1-34-12.16l0-.15a9.06,9.06,0,0,0-2.31-6.93,8.83,8.83,0,0,0-6.51-3.18,9.15,9.15,0,0,0-3.11.61A50.47,50.47,0,0,1,212,301.2a56.18,56.18,0,0,1-10.09-17.52A62.06,62.06,0,0,1,198.93,272c-.56,3.33-4.51,7.22-10.94,7.3.11-.69-.08-1.7-.66-1.87-1.7,1.88-3.92,3.77-9.72,1.7a83.09,83.09,0,0,0,3.76,13.34,79.32,79.32,0,0,0,14.76,24.78,70.54,70.54,0,0,0,6.59,6.58,9.76,9.76,0,0,0-.09,1.32c0,2.42,2.33,6.23,5.67,7.86a7.92,7.92,0,0,0,8.39-.94,92.19,92.19,0,0,0,18.2,7.05,81.84,81.84,0,0,0,21,3.32c5,0,11.62-2.35,18.16-6.46a48,48,0,0,0,6.87-5.18c.27-.25.5-.47.71-.69-5.09.72-12.74-.71-19-2.29m-77.7-36.32a8,8,0,0,1,0-6.21,7.49,7.49,0,0,1,4.24-4,7.39,7.39,0,0,1,5.82.1,8,8,0,0,1,4.23,4.59,8.47,8.47,0,0,1,.59,3.09,7.44,7.44,0,0,1-.63,3.05,7.64,7.64,0,0,1-4.24,4,7.52,7.52,0,0,1-5.8-.09,8.1,8.1,0,0,1-4.23-4.55m12.33,21.51-2.54-3.6,4.42-3.11c-.29-.4-2.2-3.11-2.5-3.51-.44.29-4.4,3.09-4.4,3.09l-2.56-3.6,12.28-8.64,2.54,3.59-4.4,3.12c.29.4,2.19,3.11,2.48,3.52l4.43-3.12,2.52,3.64Zm27.75-.63-1.08-.82c-2-1.5-3.67-1.48-5.48.06a24.52,24.52,0,0,0-2.38,2.49l-1.1,1.29.75.6c2.1,1.67,2.43,3.51,1.82,4.61a1.6,1.6,0,0,1-1.07.82,5.65,5.65,0,0,1-4-1l-.79-.47-.49.77a6.27,6.27,0,0,1-.38.57c-.18.26-.37.53-.56.85a8.12,8.12,0,0,0-1.33,3.76,4,4,0,0,0,.1.79A3.73,3.73,0,0,0,211,328.9l.5.28c.94.6,2.28,1.38,3.26,2a5.69,5.69,0,0,1-5.6.23c-2.81-1.36-4.62-4.57-4.62-6.18,0-2.44,1.11-5.51,3.1-8.68l.31-.49-.29-.48a19.53,19.53,0,0,1-1.45-2.83c1.08.15,2.12.34,3.16.59l.54.13.36-.4c1.24-1.35,5.57-5.71,9.57-5.71a6.91,6.91,0,0,1,5.09,2.53,7.6,7.6,0,0,1,1.86,3.94c-.55-.4-1.19-.88-1.82-1.37M231.56,332a4.39,4.39,0,1,1,4.4-4.4,4.38,4.38,0,0,1-4.4,4.4m19.28,5.94a4,4,0,1,1,4-4,4,4,0,0,1-4,4" transform="translate(-50 -86.48)"/><path d="M195.46,289V289a4.24,4.24,0,0,0-.29-1.44,3.41,3.41,0,1,0-6.36,2.48,3.69,3.69,0,0,0,1.85,2,3.42,3.42,0,0,0,2.61,0,3.27,3.27,0,0,0,2.19-3" transform="translate(-50 -86.48)"/><path d="M197.63,223.57a3.13,3.13,0,0,0-4.37,1.45,3.35,3.35,0,0,0-.32,2.57,3.26,3.26,0,0,0,1.62,1.84,3.07,3.07,0,0,0,2.41.27,3.17,3.17,0,0,0,2-1.68,3.6,3.6,0,0,0,.38-1.6,3.19,3.19,0,0,0-1.68-2.85" transform="translate(-50 -86.48)"/></g><polygon points="235.87 129.52 236.7 130.61 237.49 129.06 235.87 129.52"/><g style="clip-path:url(#a)"><path d="M306.91,246l-1.39-2.76,0,0a11.25,11.25,0,0,0-.82,1.14c-.16.22-.3.46-.46.67a9.48,9.48,0,0,1,.92.33l1.77.6" transform="translate(-50 -86.48)"/><path d="M305.63,265.24c.28,0,.56,0,.59-.72,0,0,0-.53,0-.85l-1.22,0v.71a1.06,1.06,0,0,0,.19.73.52.52,0,0,0,.44.15" transform="translate(-50 -86.48)"/><path d="M229.84,194.59a3.83,3.83,0,0,0-4.78,1.72A3.57,3.57,0,0,0,225,199c.27.75,1.41,3.1,4.6,1.93a3.35,3.35,0,0,0,1.94-1.75,3.22,3.22,0,0,0,.31-1.4,3.61,3.61,0,0,0-.22-1.18,3.5,3.5,0,0,0-1.77-2" transform="translate(-50 -86.48)"/><path d="M313.91,256.48a14,14,0,0,1-4.3-5c-1.63-.57-6.05-2.12-7.94-2.81l-1-.36-6.16,1.66-1.15-4.25,6.17-1.66c.11-.13.33-.41.57-.73.9-1.19,2.58-3.37,3.33-4.25-1.54-2.82-3-5.41-4-7.08a8.69,8.69,0,0,1-1.39-4.31l-5.67,3,2.47,5L291,237.51l-4.37-9,13.45-6.58.59,1.13c.34-.46.7-1,1-1.5a9.9,9.9,0,0,1,1.28-1.69,76.41,76.41,0,0,0-9.07-12.52,70.07,70.07,0,0,0-14-12.08c2.74-1.76,5.51-4.34,5.51-8.62a7.86,7.86,0,0,0-2.85-6.12c2.87-9.23,8-20.34,12.43-25.2l-9.25-3.91a14.46,14.46,0,0,1,2,10.43,12,12,0,0,1-5.16-7,41.12,41.12,0,0,1-3.4,10c2.67-1.26,4.84-1.83,7.52-.7a11,11,0,0,1-11.6,3.87c-3.31-.77-6.59-2.51-6.43-5.08a3.08,3.08,0,0,1,3.25-3.11c2,.19,2.12,3.25,1.52,4.61,2.61-1.5,5.36-9.24,1.25-10.4-3.25-.89-6.25,3.56-7.32,7-.61-4.13-2.33-8.1-5.6-7.86-4.25.31-2.89,8.15-1.39,10.15.26-2.75,1.76-4.22,3-4.13s2.64.88,2.39,3.39-3.83,4.07-7.93,4.07c-3.91,0-10.77-1.23-11.41-8.76,2.53.44,6.5,2.36,8.2,4.92a50.19,50.19,0,0,1,0-12.55,12.78,12.78,0,0,1-8.1,4.91c.71-3.23,3.49-6.65,6.73-8.67H236.57c3.23,2,6,5.42,6.71,8.64a12.75,12.75,0,0,1-8-4.88,49.72,49.72,0,0,1,0,12.55c1.66-2.51,5.54-4.41,8.09-4.91-.67,7.52-7.51,8.75-11.42,8.75-4.09,0-7.66-1.57-7.92-4.07s1.25-3.31,2.38-3.39,2.75,1.38,3,4.13c1.5-2,2.88-9.84-1.38-10.15-3.27-.24-5,3.73-5.61,7.86-1.08-3.43-4.05-7.88-7.3-7-4.13,1.16-1.38,8.9,1.25,10.4-.62-1.36-.51-4.42,1.5-4.61a3.09,3.09,0,0,1,3.27,3.11c.14,2.57-3.14,4.31-6.43,5.08a11,11,0,0,1-11.6-3.84c2.75-1.17,4.92-.61,7.62.67a41.15,41.15,0,0,1-3.41-10,11.87,11.87,0,0,1-5.25,7,14.5,14.5,0,0,1,2-10.49l-9.24,3.91c4.41,4.87,9.59,16,12.46,25.28a7.87,7.87,0,0,0-2.77,6c0,4.28,2.77,6.86,5.5,8.62a70.92,70.92,0,0,0-14,12.08A78.53,78.53,0,0,0,181.36,232c-.16.45-.32.9-.48,1.33q1.55,1.62,3.05,3.27a2.83,2.83,0,0,1,.14-.41,8.65,8.65,0,0,1,2.86-3.26l4.64,1.85c-1.92,1.36-4.24,3.24-3.75,3.72.2.19,1.21-.63,1.66-1,1.39-1.08,3.42-2.78,6.19-1.68a4.64,4.64,0,0,1,2.59,2.46,4.82,4.82,0,0,1,0,3.71,8.85,8.85,0,0,1-3.43,3.8l-4.23-1.67a12.31,12.31,0,0,0,3.67-3.5c.14-.35.15-.67,0-.75-.37-.21-1.27.49-2.11,1.14a8.66,8.66,0,0,1-3.18,1.75c2,2.81,3.29,5.44,3.37,7.59.14,4.17,1,5.84,3.25,8.64,3.36,4.24-.07,3.9,2.83,9.14-.13-1.48-.2-3-.23-4.47h46v50.2c-1.87,0-3.91.26-5.49,2.16,5.33,2.16,10.68,4.08,15.76,5.67a12,12,0,0,1,3-6.93s-6.93-.69-10.55-.88V263.64h44.91a62.76,62.76,0,0,1-3.67,20,55.93,55.93,0,0,1-10.1,17.52A48.37,48.37,0,0,1,263.19,313c-1.31.66-2.27,2.76-3.13,4.65a17.32,17.32,0,0,0-1.41,5c2.13.61,2.54,1,4.54,1.55,15.78,4,19.91,3.16,20.79,2.47h0a71.19,71.19,0,0,0,9.92-9.31,78.83,78.83,0,0,0,14.77-24.79,86.47,86.47,0,0,0,5.4-30.3c0-1.92-.06-3.82-.17-5.73M292.3,209.8l1.83,2.3-7.94,15.42-2.89-4,1.45-2.69-2.89-3.73-2.54.83-3.55-3.34ZM282,200l2.63,2-9.07,12.27-3.64-2.54,4.63-6-4.47,1.15-.72-4.73-4.26,6.12-3.87-2.08,8.73-12.6,2.95,1.57,1,6.32Zm-74.1-13.37c0-8.72,24.62-9.47,37.11-9.47h0c12.48,0,37.09.75,37.09,9.47,0,2.44-1.54,4.49-5.09,6.59-6.16-4.1-16.69-8.6-32-8.61s-25.87,4.51-32,8.61c-3.56-2.1-5.11-4.15-5.11-6.59m52.6,3.41-3,15.14-4.31-.86,3-15.15Zm-22.12,11.55-1.9,4.09a17.11,17.11,0,0,1-7.57-.28,7.55,7.55,0,0,1-8.11-4.9,7.46,7.46,0,0,1,.15-5.78,8.41,8.41,0,0,1,4.86-4.24,7.62,7.62,0,0,1,10,4.56,7.32,7.32,0,0,1,.45,2.55,7.51,7.51,0,0,1-1.27,4.16,11.14,11.14,0,0,0,3.39-.16m-29-2,2.77,3-3,2.77,7,7.55L213,215.83l-7-7.55L203,211l-2.79-3Zm-11,10.67,11.31,8.87L207,222.52l-11.31-8.9Zm-.22,23.54A7.35,7.35,0,0,1,189,229a7.68,7.68,0,0,1,.64-5.9,7.77,7.77,0,0,1,4.49-3.89,7.33,7.33,0,0,1,5.55.56,7.18,7.18,0,0,1,3.6,4.28,7.45,7.45,0,0,1,.32,2.14,7.93,7.93,0,0,1-1,3.79,7.51,7.51,0,0,1-4.47,3.84m.12,27.11a62.47,62.47,0,0,1,3.68-20.26A56.35,56.35,0,0,1,212,223.12a46.94,46.94,0,0,1,14.89-11.77,40.47,40.47,0,0,1,17.35-4.26v53.82Zm46.83-57c-3.21.06-6.51-1.78-6.6-6l0-9,4.4-.11v8.66c0,1.22.21,1.39.39,1.6a2.27,2.27,0,0,0,1.76.61,2.8,2.8,0,0,0,2-.66c.21-.21.39-.56.38-1.81l0-8.5,4.41.06v8.87a6.19,6.19,0,0,1-1.59,4.37,7,7,0,0,1-5.08,1.94m1.89,57V207.1a40.85,40.85,0,0,1,16.26,4.25,46.8,46.8,0,0,1,14.88,11.77,56.21,56.21,0,0,1,10.1,17.53,62.73,62.73,0,0,1,3.67,20.26Zm37.71,60.5-3-3,3.67-3.75-.79-.79L281,317.53l-3-2.95L281.5,311l-.89-.87-3.87,3.71-3-3,7-6.83,10.69,10.52Zm12.19-13.64a8.85,8.85,0,0,1-3.51,2.58v0l-4.2-2.83c4.4-1.38,4.67-2.63,4.46-2.84s-.89.21-1.75.63c-1.56.8-3.94,2-6.41.31a4.62,4.62,0,0,1-2-3,4.78,4.78,0,0,1,.79-3.63,8.68,8.68,0,0,1,4.15-2.95l4.19,2.83-.68.15a8.64,8.64,0,0,0-4.07,2.18.88.88,0,0,0-.25.6.14.14,0,0,0,.07.12c.37.26,1.47-.26,2.32-.66,1.68-.75,3.77-1.7,5.87-.29a4.47,4.47,0,0,1,2,2.84,4.89,4.89,0,0,1,.08.85,5.56,5.56,0,0,1-1,3.09m8.92-18L296.43,293l6.88,2.78-1.59,4-13.93-5.64,1.29-3.19,9.2-3.16-6.8-2.75,1.58-4L307,286.66Zm2.36-7.2-4.15-.77,1-5.14-1.1-.22-.91,5-4.16-.76.92-5-1.21-.24-1,5.33-4.15-.75,1.76-9.66,14.77,2.7Zm2.33-18a5.25,5.25,0,0,1-1.5,3.89,4.81,4.81,0,0,1-3.47,1.28,4.49,4.49,0,0,1-3.27-1.37,5.64,5.64,0,0,1-1.4-4v-.75l-5.35-.09.08-4.41,15,.29Z" transform="translate(-50 -86.48)"/><path d="M125.9,369.06l-.9.49c.33.53,3.36,5.61,3.8,6.33l.95-.53c3.31-1.77,2.92-4,2-5.38-1.73-2.71-3.85-1.93-5.89-.91" transform="translate(-50 -86.48)"/><path d="M331,349.6a.86.86,0,0,0,.55-.43,1.12,1.12,0,0,0,.13-.48,1.23,1.23,0,0,0-.64-.93l-1.26-.74s-.68,1.16-1,1.71l1.09.65a1.32,1.32,0,0,0,1.14.22" transform="translate(-50 -86.48)"/><path d="M311.23,347.38c3,.76,4.84.27,6-2.58.85-2.12.19-3.79-3.24-4.74h0l-1.13-.26c-.28.75-2.53,7.1-2.62,7.34.45.12,1,.24,1,.24" transform="translate(-50 -86.48)"/><path d="M341.08,363.86a4.2,4.2,0,0,0,3.19.51,3.84,3.84,0,0,0,2.51-1.86,3.43,3.43,0,0,0,.46-2.89,3.92,3.92,0,0,0-1.92-2.41,4.43,4.43,0,0,0-3.23-.55,3.91,3.91,0,0,0-2.51,1.89,3.53,3.53,0,0,0-.48,2.91,3.9,3.9,0,0,0,2,2.4" transform="translate(-50 -86.48)"/><path d="M266.67,398.07A4.07,4.07,0,0,0,263.6,397a4.55,4.55,0,0,0-3.2,1.28,4,4,0,0,0-1.2,3,3.58,3.58,0,0,0,1.2,2.82,4.21,4.21,0,0,0,3.09,1.05,4.6,4.6,0,0,0,3.17-1.28,4.08,4.08,0,0,0,1.23-3,3.56,3.56,0,0,0-1.22-2.79" transform="translate(-50 -86.48)"/><path d="M372.4,386c8.57,0,16.22-10.84,26.93-15.62-27.1,7.91-64.51-38-90-38-7.15,0-15.44,2.72-19.51,12.56-4.29,10.46-9.07,13.89-9.07,18.54,0,4,3.67,7.15,9.84,10.42,4,2.13,8.15,3.28,7.93,7.06-11.63,5.32-30.79,9-53.55,9s-41.9-3.66-53.54-9c-.21-3.78,3.94-4.93,7.92-7.06,6.2-3.27,9.86-6.36,9.86-10.42,0-4.64-4.77-8.08-9.07-18.54-4.07-9.84-12.37-12.55-19.51-12.55-25.44,0-62.87,45.93-90,38,10.73,4.76,18.35,15.61,26.94,15.61,22,0,47.38-33,71.23-33l1.06,0c-5.57,6.89-13.31,8.32-13.31,15.28,0,4.89,4.2,7.82,7.13,14.35,1.81,4.09,2.17,7,3.7,12.74,1.38,5.08,4.92,18.07,57.55,18.07s56.19-13,57.54-18.07c1.55-5.77,1.91-8.65,3.74-12.74,2.92-6.53,7.12-9.46,7.12-14.35,0-7-7.77-8.39-13.31-15.28.37,0,.74,0,1,0,23.86,0,49.27,33,71.26,33m3.64-15.8-2.14,3.85c-1.2-.52-3.41-1.54-5-2.35-1.4,2.25-5.43,8.62-6.18,9.82l-4.29-1.88c.07-.08,4.82-7.54,6.39-10.09-1.35-.74-3.28-1.87-4.28-2.48l2.14-3.87c3.49,2.13,10.46,5.69,13.4,7M361.12,362l-8.69,14.24-4.07-2.51,8.72-14.16Zm-20.21-9.74a8.89,8.89,0,0,1,6.64,1,8.61,8.61,0,0,1,4.2,5.21,7.68,7.68,0,0,1-1,6.39,8.12,8.12,0,0,1-5.41,3.83,9.41,9.41,0,0,1-6.7-1.15,8.34,8.34,0,0,1-4.09-5.1,7.71,7.71,0,0,1,1-6.34,8.37,8.37,0,0,1,5.37-3.88m-7.54-8.12h0a7.19,7.19,0,0,1,2.48,2.45,4.44,4.44,0,0,1-.14,4.69,4.3,4.3,0,0,1-2.55,2.08,4.79,4.79,0,0,1-1.27.09,16.68,16.68,0,0,1,.3,2.4c.2,3.48.68,7.27.68,7.34-.74-.49-4.72-3-5.06-3.23l-.4-4.83c-.14-1.73-.23-2.43-.77-2.79l-3,5.14-4.12-2.17,8.27-14.4c1.27.7,4.36,2.47,5.6,3.23m-23.59-9.72,6.37,1.56c4,1,7.71,4.7,5.52,10.13-2.52,6.23-7.23,6.6-11.89,5.51l-5.59-1.37ZM131.9,379.26l-4.83,2.63-8.35-14,5.1-2.79a10.58,10.58,0,0,1,4.79-1.49,8,8,0,0,1,4.16,1.09,7.82,7.82,0,0,1,3.13,3.09c1.88,3.52,2.08,8.24-4,11.45m12.68-7.56-8.77-13.93,3.85-2.55,8.76,14Zm9.19-6.08-8.7-14,9.15-6,2.33,3.76-5.25,3.5c.26.41.55.89.8,1.32l5.07-3.42,2.33,3.75L154.43,358c.29.43.66,1,.92,1.43l5.43-3.62,2.35,3.75ZM172.64,355c-4.91,2.13-7.9,0-9.51-3.48l-3.91-8.84,4.2-2.19s3.94,8.92,4,8.92c.86,1.88,1.78,2.45,3.54,1.62,2.08-1,2.06-1.88,1.28-3.6l-4.09-9.33,4.64-1.58,3.84,9.1c1.51,3.66,1.18,7.12-4,9.38m16.73,25c-6.36-3.29-10-7.15-10-11.13,0-6.5,10.22-10.22,14.21-15.28,6,1,14.06,3.85,14.06,9.19,0,6.2-20.09,8.8-18.31,17.22m10.44,24.22-.88-16.88c2.61.75,8.24,2.23,11.17,2.75l.11,4.61c-1.44-.26-4.23-.87-6.25-1.4,0,.2,0,1,.07,1.49l5.81,1.46.16,4.65-5.72-1.42c0,.12.06,1.31.08,1.78a61.41,61.41,0,0,0,6.12,1.58l.23,4.69a55.88,55.88,0,0,1-10.9-3.31m26.27-7.24c-1.37-.17-3.64-.44-4.92-.61v12.81l-4.77-.69v-12.8c-1.36-.21-3.42-.55-4.82-.78v-4.56c4.19.71,9.89,1.53,14.51,2.08Zm26.75,13.29-4.77.07v-9.1l-4,4.74-4-4.74v9.09l-4.75-.13V393l4,.13,4.78,5.8c.67-.82,4.65-5.77,4.65-5.77l4.09-.09Zm17.29-3a10.2,10.2,0,0,1-6.71,2.66,9.07,9.07,0,0,1-6.51-2.29,8,8,0,0,1-2.66-6.15A8.62,8.62,0,0,1,256.9,395a9.57,9.57,0,0,1,6.58-2.7,9.17,9.17,0,0,1,6.66,2.29,8,8,0,0,1,2.71,6.21,8.52,8.52,0,0,1-2.73,6.39M290,404.31l-3.56,1.26-7.08-7.15c-.11,1.81-.53,9.17-.53,9.17l-4.68.91,1-17.6,3.39-.6,7.22,7.29c.09-1.78.52-9,.52-9l4.7-1.28Zm20.66-35.51c0,4-3.6,7.84-10,11.13,1.79-8.42-18.3-11-18.3-17.22,0-5.35,8-8.16,14.05-9.19,4,5.06,14.22,8.78,14.22,15.28" transform="translate(-50 -86.48)"/></g></svg>